<svg width="26" height="26" viewBox="0 0 26 26" fill="none" xmlns="http://www.w3.org/2000/svg">
<g clip-path="url(#clip0)">
<path d="M25.6206 16.1313C25.0009 18.6263 23.6553 20.8816 21.7539 22.612C19.8525 24.3424 17.4808 25.4703 14.9386 25.8528C12.3963 26.2354 9.79763 25.8556 7.4712 24.7615C5.14476 23.6673 3.19502 21.9079 1.8684 19.7057C0.541791 17.5036 -0.102129 14.9575 0.0181429 12.3894C0.138415 9.8213 1.01743 7.34659 2.54406 5.27804C4.07068 3.20949 6.17638 1.64001 8.59489 0.768073C11.0134 -0.103861 13.6361 -0.239124 16.1315 0.379395C17.7929 0.783433 19.3579 1.51269 20.7358 2.52497C22.1138 3.53726 23.2776 4.81254 24.1599 6.27715C25.0422 7.74177 25.6255 9.36664 25.8762 11.058C26.1269 12.7493 26.04 14.4737 25.6206 16.1313Z" fill="#F7931A"/>
<path d="M18.7889 11.0073C18.9787 9.2993 17.6502 8.35037 15.9422 7.78103L16.5115 5.50369L14.9933 5.1241L14.4239 7.4015C14.0443 7.21172 13.6648 7.21169 13.2852 7.02191L13.8546 4.74458L12.5261 4.36499L11.9568 6.83212C11.5772 6.83212 11.3874 6.64239 11.0079 6.64239L9.11005 6.07301L8.73046 7.59129C9.05022 7.63586 9.36707 7.69918 9.67937 7.78103C10.2487 7.97081 10.4385 8.35041 10.4385 8.5402L9.67937 11.3869L8.73046 15.1825C8.73046 15.3723 8.5407 15.5621 8.16114 15.5621L7.21224 15.3723L6.45312 16.8905L8.35094 17.2701C8.67069 17.3146 8.98754 17.378 9.29984 17.4599L8.73046 19.7373L10.2487 20.1168L10.8181 17.8395C11.1976 18.0292 11.5772 18.0292 11.9568 18.219L11.1977 20.4964L12.7159 20.876L13.2852 18.5986C15.7523 18.9781 17.4604 18.7883 18.2195 16.7008C18.378 16.3927 18.4692 16.0544 18.4873 15.7085C18.5053 15.3625 18.4497 15.0166 18.3241 14.6937C18.1985 14.3708 18.0059 14.0783 17.7588 13.8354C17.5118 13.5925 17.216 13.4048 16.8911 13.2847C17.3966 13.1344 17.8465 12.838 18.1841 12.4328C18.5218 12.0276 18.7322 11.5317 18.7889 11.0073ZM15.5626 15.5621C14.9932 17.4599 12.1466 16.511 11.1977 16.1314L11.9568 12.9051C12.9057 13.2847 15.9422 13.854 15.5626 15.5621ZM15.9422 11.0073C15.5626 12.7154 13.0954 11.7664 12.3363 11.5766L13.0955 8.72993C13.8546 8.91971 16.3217 9.2993 15.9422 11.0073Z" fill="white"/>
</g>
<defs>
<clipPath id="clip0">
<rect width="26" height="26" fill="white"/>
</clipPath>
</defs>
</svg>
