<svg xmlns="http://www.w3.org/2000/svg" width="20" height="20" fill="none" viewBox="0 0 20 20">
    <circle cx="10" cy="10" r="10" fill="#F3BA2F"/>
    <path fill="#fff" fill-rule="evenodd" d="M7.572 9.002L10 6.575l2.429 2.429L13.84 7.59 10 3.75 6.16 7.59l1.412 1.412zM3.75 10l1.412-1.412L6.575 10l-1.413 1.412L3.75 10zM10 13.425l-2.428-2.428-1.414 1.411.002.002L10 16.25l3.841-3.842-1.412-1.412L10 13.425zM13.425 10l1.412-1.412L16.25 10l-1.412 1.412L13.425 10zm-1.991-.001h-.002L10 8.566 8.94 9.625l-.121.122-.25.251-.003.002.002.002L10 11.434 11.434 10v-.001z" clip-rule="evenodd"/>
</svg>
