<svg xmlns="http://www.w3.org/2000/svg" width="20" height="20" fill="none" viewBox="0 0 20 20">
    <circle cx="9.981" cy="9.981" r="9.981" fill="#008DE4"/>
    <path fill="#fff" d="M12.113 4.387h-5.01l-.414 2.32 4.528.01c2.226 0 2.887.811 2.868 2.15-.01.69-.311 1.85-.434 2.227-.34 1-1.047 2.151-3.689 2.151H5.566l-.434 2.321h5c1.764 0 2.519-.208 3.311-.575 1.765-.812 2.812-2.557 3.227-4.821.632-3.378-.151-5.783-4.557-5.783z"/>
    <path fill="#fff" d="M4.934 8.811c-1.311 0-1.5.859-1.623 1.378-.16.679-.217.953-.217.953h5.132c1.312 0 1.5-.859 1.623-1.378.16-.68.217-.953.217-.953H4.934z"/>
</svg>
