<svg width="24" height="24" viewBox="0 0 24 24" fill="none" xmlns="http://www.w3.org/2000/svg">
<g clip-path="url(#clip0)">
<path d="M24.0001 12C24.0001 18.6333 18.6335 24 12.0001 24C9.30013 24 6.6668 23.0833 4.55013 21.4C3.98347 20.95 3.4668 20.4667 3.00013 19.9167C-0.999867 15.4 -0.999867 8.6 2.98347 4.06667C3.45013 3.53333 3.98347 3.03333 4.53347 2.58333C6.6668 0.916667 9.30013 0 12.0001 0C18.6335 0 24.0001 5.36667 24.0001 12Z" fill="#BBA025"/>
<path d="M21.8003 11.9999C21.8003 3.83325 16.317 2.59992 14.4003 2.59992H4.55031C3.98364 3.04992 3.46698 3.53325 3.00031 4.08325V7.23325H5.46698V16.7999H2.98364V19.9499C3.45031 20.4833 3.98364 20.9833 4.53364 21.4333H14.3836C16.3336 21.3999 21.8003 20.1666 21.8003 11.9999ZM10.9336 16.7833V7.21659H13.0003C13.5336 7.21659 15.8503 8.29992 15.8503 11.9999C15.8503 15.6999 13.5503 16.7833 13.0003 16.7833H10.9336Z" fill="#F0EFEB"/>
</g>
<defs>
<clipPath id="clip0">
<rect width="24" height="24" fill="white"/>
</clipPath>
</defs>
</svg>
