<svg width="40" height="40" viewBox="0 0 40 40" fill="none" xmlns="http://www.w3.org/2000/svg">
<g clip-path="url(#clip0_2063_32135)">
<path d="M29.288 3.51906C28.247 4.54834 27.2933 5.6639 26.4455 6.85342L26.1775 6.76713C24.6316 6.2679 23.0296 5.95974 21.4151 5.85496C20.9289 5.81798 19.115 5.81798 18.5228 5.85496C16.7338 5.97206 15.3625 6.23709 13.8041 6.7733C13.7418 6.79795 13.6857 6.81644 13.6296 6.83493C12.7506 5.65157 11.772 4.54217 10.6936 3.52522C15.8674 0.90581 21.92 0.591479 27.3369 2.65619C27.9166 2.87191 28.4838 3.12461 29.0386 3.39579L29.288 3.51906Z" fill="#F00500"/>
<path d="M38.9373 26.8967C38.1519 29.1094 36.9738 31.1618 35.4466 32.9491C34.6175 33.9106 33.7012 34.792 32.7163 35.5932C30.4099 37.4299 27.7171 38.7427 24.8435 39.433C21.6644 40.191 18.3482 40.191 15.1692 39.433C12.2893 38.7427 9.60272 37.4299 7.29635 35.5932C6.31146 34.792 5.39515 33.9106 4.5661 32.9491C0.171521 27.8151 -1.16244 20.7642 1.07537 14.4098C1.49924 13.2326 2.02909 12.0986 2.6649 11.02C2.95787 10.5269 3.31941 9.97224 3.49395 9.74419C4.09236 12.2896 4.8279 14.5269 5.10217 15.3343C5.08347 15.3775 5.05854 15.4268 5.03361 15.4699C3.58121 18.379 2.7958 21.1833 2.6088 24.1664C2.6088 24.2034 2.60256 24.2465 2.60256 24.2835C2.5527 25.1772 2.57763 25.6024 2.72723 26.1633C3.19474 27.9199 4.63467 29.8551 6.89117 31.7534C10.5876 34.8598 15.5993 37.1032 19.3955 37.3621C23.3537 37.6271 29.1944 35.3405 33.0841 32C33.695 31.4638 34.2684 30.8967 34.8045 30.2927C35.191 29.849 35.7645 29.0847 35.7208 29.0847C35.7084 29.0847 35.7208 29.0724 35.7458 29.0601C35.7645 29.0477 35.7832 29.0293 35.7707 29.0169C35.7645 29.0108 35.7769 28.9923 35.7956 28.9861C35.8143 28.9799 35.8268 28.9676 35.8206 28.9553C35.8143 28.943 35.8206 28.9306 35.8455 28.9245C35.8642 28.9183 35.8704 28.8998 35.8642 28.8875C35.858 28.8752 35.8642 28.8628 35.8767 28.8628C35.8891 28.8628 35.9016 28.8444 35.9016 28.832C35.9016 28.8197 35.9141 28.8012 35.9265 28.8012C35.939 28.8012 35.9515 28.7889 35.9515 28.7766C35.9702 28.7273 36.0013 28.6779 36.0325 28.6348C36.126 28.493 36.5 27.8336 36.5499 27.7226C36.9052 26.9276 37.1296 26.2188 37.2356 25.51C37.2854 25.171 37.3166 24.5485 37.2917 24.4006C37.2854 24.3759 37.2854 24.3328 37.2792 24.265C37.2667 24.1417 37.2605 23.9568 37.248 23.7719C37.2356 23.4946 37.2106 23.1063 37.1919 22.9152C36.9239 20.1171 36.2008 17.8305 34.8295 15.4083C34.7734 15.3158 34.7235 15.2234 34.6923 15.1494C34.6799 15.1309 34.6736 15.1125 34.6674 15.1001C34.8606 14.5269 35.6523 12.1294 36.2819 9.38672L36.2943 9.39905L36.3878 9.52231C36.5499 9.73803 36.98 10.379 37.1732 10.6872C38.0521 12.1047 38.7378 13.6271 39.224 15.2172C40.3523 19.0447 40.2588 23.1248 38.9373 26.8967Z" fill="#F00500"/>
<path d="M30.8463 19.5314C30.8276 19.63 30.5346 19.9258 30.2416 20.1415C29.3814 20.764 27.8418 21.3434 26.2772 21.6207C25.3858 21.781 24.4944 21.8056 24.2264 21.6762C24.0518 21.5899 24.0269 21.5221 24.0892 21.3003C24.2201 20.838 24.644 20.3326 25.3047 19.858C25.6413 19.6177 27.0065 18.7979 27.6423 18.4528C28.6895 17.8858 29.5373 17.5468 30.1107 17.4667C30.2915 17.442 30.5097 17.4358 30.5782 17.4667C30.6904 17.5098 30.8151 17.8365 30.865 18.2309C30.8899 18.4405 30.8774 19.365 30.8463 19.5314Z" fill="black"/>
<path d="M16.1603 21.5714C16.1229 21.6454 15.9359 21.7255 15.724 21.7563C15.512 21.7871 14.8638 21.7686 14.496 21.7255C13.1745 21.5529 11.772 21.1523 10.7497 20.6592C10.1762 20.3819 9.76479 20.1045 9.45936 19.8025L9.28482 19.6238L9.26612 19.3896C9.23495 18.9828 9.24119 18.3418 9.29106 18.1138C9.32222 17.9227 9.39079 17.7378 9.48429 17.5714C9.53416 17.5098 9.53416 17.5098 9.75856 17.5098C10.0328 17.5098 10.2635 17.5529 10.6375 17.67C11.4042 17.9042 12.5449 18.4712 13.935 19.2971C15.0819 19.9751 15.512 20.3079 15.8424 20.764C16.0668 21.0475 16.2164 21.4481 16.1603 21.5714Z" fill="black"/>
<path d="M24.9868 30.1506C24.9868 30.1691 24.912 30.465 24.8185 30.8163C24.725 31.1676 24.6502 31.4511 24.6502 31.4634C24.5817 31.4696 24.5193 31.4758 24.4507 31.4696H24.2513L23.977 32.1106C23.8274 32.4619 23.6903 32.7885 23.6716 32.8379L23.6342 32.9241L23.5033 32.7146L23.3724 32.505V30.7978L23.3225 30.8101C23.2165 30.8348 22.4623 30.9334 22.1319 30.9642C20.7668 31.0998 19.3954 31.069 18.0365 30.8779C17.8184 30.8471 17.6314 30.8224 17.6251 30.8286C17.6189 30.8348 17.6251 31.2292 17.6376 31.7161L17.6563 32.5913L17.5503 32.7516C17.4942 32.8379 17.4381 32.9118 17.4381 32.918C17.4194 32.9365 17.3571 32.8379 17.2137 32.5543C17.0579 32.2585 16.9457 31.9442 16.8646 31.6175L16.821 31.4388L16.6278 31.4511L16.4345 31.4696L16.3847 31.2416C16.3597 31.1183 16.3286 30.9272 16.3161 30.8224L16.2974 30.6252L16.1353 30.4835C16.0418 30.4033 15.9483 30.3232 15.9296 30.3109C15.8985 30.2862 15.886 30.2431 15.886 30.2061V30.1322L16.6652 30.1383L17.4443 30.1445L17.4693 30.2246L17.4942 30.3047L17.7623 30.3171C17.9119 30.3232 18.3856 30.3355 18.8095 30.3479L19.5887 30.3664L19.7881 30.0582L19.9938 29.75H20.2556L20.2494 29.109L20.2432 28.4681L19.9003 28.3201C18.797 27.8394 18.1487 27.2909 17.9056 26.6252C17.8558 26.4896 17.8558 26.4403 17.8433 25.824C17.8371 25.2138 17.8371 25.1584 17.8807 25.0228C17.968 24.7146 18.2111 24.4742 18.5227 24.3941C18.6287 24.3633 18.9092 24.3633 20.3803 24.3633L22.1132 24.3694L22.3064 24.4619C22.5371 24.5728 22.643 24.653 22.7739 24.8255C22.9235 25.0228 22.9672 25.1768 22.9672 25.5528C22.9672 26.089 22.9298 26.5513 22.8737 26.7362C22.7927 26.9889 22.668 27.2292 22.5121 27.4449C22.2005 27.8394 21.6332 28.2339 21.1158 28.4126L20.9662 28.4681L20.9725 29.1152L20.9787 29.7624L21.1158 29.7747L21.253 29.787L21.44 30.0644L21.6208 30.3417H22.456C22.9173 30.3417 23.3225 30.3479 23.3599 30.354C23.4222 30.3664 23.4347 30.3602 23.497 30.2554L23.5718 30.1445H24.2887C24.8248 30.1198 24.9868 30.1322 24.9868 30.1506Z" fill="black"/>
<path d="M21.6956 31.9199C21.5772 31.9877 21.4962 32.0185 21.4775 32.0062C21.4588 32 21.3715 31.926 21.278 31.8582L21.1097 31.7227L20.9351 31.9076C20.5549 32.3143 20.5424 32.3328 20.4302 32.339C20.2557 32.3575 20.2183 32.3267 20.0064 32.0123C19.8942 31.8521 19.8069 31.7165 19.8069 31.7165C19.8069 31.7165 19.7259 31.7042 19.6324 31.698L19.4578 31.6795L19.3768 31.8459L19.2958 32.0123L19.1524 31.9692C19.0402 31.9322 18.928 31.8891 18.822 31.8398L18.635 31.7473V31.396L20.2931 31.4022L21.9512 31.4083L21.9574 31.5747C21.9637 31.772 21.9699 31.7658 21.6956 31.9199Z" fill="black"/>
<path d="M37.2792 24.4005C37.273 24.3758 37.273 24.3327 37.2667 24.2649C35.7707 24.1046 31.5008 24.006 27.5363 27.2418C27.5363 27.2418 26.2585 21.4482 20.2744 21.4482C14.2903 21.4482 12.0712 27.2418 12.0712 27.2418C8.71757 23.6732 4.22949 23.9321 2.6088 24.1663C2.6088 24.2032 2.60256 24.2464 2.60256 24.2834C2.5527 25.1771 2.57763 25.6023 2.72723 26.1632C3.19474 27.9197 4.63467 29.855 6.89118 31.7533C10.5876 34.8596 15.5993 37.1031 19.3955 37.3619C23.3537 37.627 29.1944 35.3404 33.0841 31.9999C33.695 31.4636 34.2685 30.8966 34.8045 30.2926C35.191 29.8489 35.7645 29.0846 35.7209 29.0846C35.7084 29.0846 35.7209 29.0723 35.7458 29.0599C35.7645 29.0476 35.7832 29.0291 35.7707 29.0168C35.7645 29.0106 35.777 28.9922 35.7957 28.986C35.8144 28.9798 35.8268 28.9675 35.8206 28.9552C35.8144 28.9428 35.8206 28.9305 35.8455 28.9244C35.8642 28.9182 35.8705 28.8997 35.8642 28.8874C35.858 28.8751 35.8642 28.8627 35.8767 28.8627C35.8892 28.8627 35.9016 28.8442 35.9016 28.8319C35.9016 28.8196 35.9141 28.8011 35.9266 28.8011C35.939 28.8011 35.9515 28.7888 35.9515 28.7764C35.9702 28.7271 36.0014 28.6778 36.0325 28.6347C36.126 28.4929 36.5 27.8334 36.5499 27.7225C36.9052 26.9274 37.1296 26.2187 37.2356 25.5099C37.273 25.1709 37.3041 24.5484 37.2792 24.4005ZM21.6956 31.9197C21.5772 31.9875 21.4961 32.0183 21.4774 32.006C21.4587 31.9999 21.3715 31.9259 21.278 31.8581L21.1097 31.7225L20.9351 31.9074C20.5549 32.3142 20.5424 32.3327 20.4302 32.3388C20.2557 32.3573 20.2183 32.3265 20.0063 32.0122C19.8941 31.8519 19.8069 31.7163 19.8069 31.7163C19.8069 31.7163 19.7258 31.704 19.6323 31.6979L19.4578 31.6794L19.3768 31.8458L19.2957 32.0122L19.1524 31.969C19.0402 31.9321 18.928 31.8889 18.822 31.8396L18.635 31.7472V31.3959L20.2931 31.402L21.9512 31.4082L21.9574 31.5746C21.9636 31.7718 21.9699 31.7657 21.6956 31.9197ZM24.8123 30.8103C24.7188 31.1616 24.644 31.4452 24.644 31.4575C24.5754 31.4636 24.5131 31.4698 24.4445 31.4636H24.2451L23.977 32.1108C23.8274 32.4621 23.6903 32.7888 23.6716 32.8381L23.6342 32.9244L23.5033 32.7148L23.3724 32.5052V30.798L23.3225 30.8103C23.2166 30.835 22.4623 30.9336 22.1319 30.9644C20.7668 31.1 19.3955 31.0692 18.0366 30.8781C17.8184 30.8473 17.6314 30.8227 17.6252 30.8288C17.6189 30.835 17.6252 31.2294 17.6376 31.7163L17.6563 32.5915L17.5504 32.7518C17.4943 32.8381 17.4382 32.912 17.4382 32.9182C17.4195 32.9367 17.3571 32.8381 17.2138 32.5546C17.0579 32.2587 16.9457 31.9444 16.8647 31.6177L16.821 31.439L16.6278 31.4513L16.4346 31.4698L16.3847 31.2418C16.3598 31.1185 16.3286 30.9274 16.3161 30.8227L16.2974 30.6254L16.1354 30.4837C16.0419 30.4036 15.9484 30.3234 15.9297 30.3111C15.8985 30.2865 15.886 30.2433 15.886 30.2063V30.1324L16.6652 30.1385L17.4444 30.1447L17.4693 30.2248L17.4943 30.3049L17.7623 30.3173C17.9119 30.3234 18.3856 30.3358 18.8095 30.3481L19.5887 30.3666L19.7882 30.0584L19.9939 29.7502H20.2557L20.2494 29.1093L20.2432 28.4683L19.9004 28.3204C18.797 27.8396 18.1488 27.2911 17.9057 26.6254C17.8558 26.4898 17.8558 26.4405 17.8433 25.8242C17.8371 25.214 17.8371 25.1586 17.8807 25.023C17.968 24.7148 18.2111 24.4744 18.5228 24.3943C18.6287 24.3635 18.9093 24.3635 20.3803 24.3635L22.1132 24.3697L22.3065 24.4621C22.5371 24.573 22.6431 24.6532 22.774 24.8257C22.9236 25.023 22.9672 25.1771 22.9672 25.553C22.9672 26.0892 22.9298 26.5515 22.8737 26.7364C22.7927 26.9891 22.668 27.2294 22.5122 27.4452C22.2005 27.8396 21.6333 28.2341 21.1159 28.4128L20.9663 28.4683L20.9725 29.1154L20.9788 29.7626L21.1159 29.7749L21.253 29.7872L21.44 30.0646L21.6208 30.3419H22.4561C22.9174 30.3419 23.3225 30.3481 23.3599 30.3542C23.4223 30.3666 23.4347 30.3604 23.4971 30.2556L23.5719 30.1447H24.2887C24.8435 30.1447 25.0056 30.1509 25.0056 30.1693C24.9869 30.1632 24.9058 30.4652 24.8123 30.8103Z" fill="white"/>
<path d="M37.2293 23.7718C37.2169 23.4945 37.1919 23.1062 37.1732 22.9151C36.9052 20.117 36.1821 17.8304 34.8107 15.4082C34.7546 15.3157 34.7048 15.2233 34.6736 15.1493C34.6611 15.1308 34.6549 15.1123 34.6487 15.1C34.8419 14.5268 35.6336 12.1293 36.2631 9.38661C37.1171 5.66396 37.6594 1.31265 36.0013 0.0060285C36.0013 0.0060285 33.134 -0.203525 29.2942 3.51912C28.2532 4.5484 27.2994 5.66396 26.4517 6.85348L26.1837 6.7672C24.6378 6.26797 23.0358 5.9598 21.4213 5.85502C20.9351 5.81804 19.1212 5.81804 18.529 5.85502C16.74 5.97213 15.3686 6.23715 13.8103 6.77336C13.7479 6.79801 13.6918 6.8165 13.6357 6.83499C12.7568 5.65163 11.7782 4.54224 10.6998 3.52529C6.70415 -0.215851 3.7308 -0.000135201 3.7308 -0.000135201C1.97297 1.34963 2.57138 5.89817 3.48146 9.74408C4.07987 12.2895 4.81542 14.5268 5.08969 15.3342C5.07099 15.3774 5.04606 15.4267 5.02112 15.4698C3.56873 18.3789 2.78332 21.1832 2.59631 24.1663C4.22324 23.9321 8.70509 23.667 12.0649 27.2418C12.0649 27.2418 14.284 21.4482 20.2681 21.4482C26.2522 21.4482 27.5301 27.2418 27.5301 27.2418C31.4946 24.006 35.7645 24.1108 37.2605 24.2649C37.2543 24.1416 37.2418 23.9567 37.2293 23.7718ZM6.26781 13.0106C6.26781 13.0106 3.9365 7.24794 4.53491 3.95672C4.63465 3.40202 4.82165 2.91512 5.11463 2.54532C5.11463 2.54532 7.7576 2.80418 12.0213 7.48831C12.0213 7.48831 11.2109 7.8766 10.1263 8.70248C10.1263 8.70248 10.1201 8.70864 10.1138 8.70864C8.93572 9.60233 7.42723 11.0199 6.26781 13.0106ZM16.1603 21.5715C16.1229 21.6455 15.9359 21.7256 15.7239 21.7564C15.512 21.7872 14.8637 21.7687 14.496 21.7256C13.1745 21.553 11.7719 21.1524 10.7497 20.6593C10.1762 20.382 9.76477 20.1046 9.45933 19.8026L9.2848 19.6239L9.2661 19.3897C9.23493 18.9829 9.24116 18.3419 9.29103 18.1139C9.3222 17.9228 9.39077 17.7379 9.48427 17.5715C9.53414 17.5099 9.53414 17.5099 9.75854 17.5099C10.0328 17.5099 10.2634 17.553 10.6375 17.6701C11.4042 17.9043 12.5449 18.4714 13.9349 19.2972C15.0819 19.9752 15.512 20.308 15.8424 20.7641C16.0668 21.0476 16.2164 21.4482 16.1603 21.5715ZM30.8463 19.5314C30.8276 19.6301 30.5346 19.9259 30.2416 20.1416C29.3814 20.7641 27.8418 21.3435 26.2772 21.6208C25.3858 21.7811 24.4944 21.8057 24.2264 21.6763C24.0518 21.59 24.0269 21.5222 24.0892 21.3003C24.2201 20.8381 24.644 20.3327 25.3047 19.8581C25.6414 19.6177 27.0065 18.798 27.6423 18.4529C28.6895 17.8858 29.5373 17.5469 30.1107 17.4667C30.2915 17.4421 30.5097 17.4359 30.5782 17.4667C30.6904 17.5099 30.8151 17.8365 30.865 18.231C30.8899 18.4405 30.8774 19.365 30.8463 19.5314ZM29.8115 8.70248L29.7991 8.69632C28.7518 7.87043 27.9664 7.48214 27.9664 7.48214C32.0867 2.79801 34.6362 2.53916 34.6362 2.53916C34.9167 2.91512 35.0975 3.39586 35.1972 3.95056C35.7769 7.24177 33.5267 13.0106 33.5267 13.0106C32.5854 11.3527 31.32 9.88584 29.8115 8.70248Z" fill="#FFA409"/>
<path d="M35.2034 3.95046C34.7172 3.88883 32.4171 3.8765 29.8115 8.70239L29.7991 8.69623C28.7518 7.87034 27.9664 7.48205 27.9664 7.48205C32.0867 2.79792 34.6362 2.53906 34.6362 2.53906C34.9229 2.91503 35.1037 3.39576 35.2034 3.95046Z" fill="#FF9300"/>
<path d="M33.5329 13.0103C32.5854 11.3462 31.3262 9.88552 29.8115 8.70216C32.4171 3.87627 34.711 3.8886 35.2034 3.95023C35.7832 7.24761 33.5329 13.0103 33.5329 13.0103Z" fill="#FF8300"/>
<path d="M35.297 3.96975C35.2658 3.9634 35.2347 3.95704 35.2035 3.95068L35.297 3.96975Z" fill="#FF8300"/>
<path d="M12.0213 7.48205C12.0213 7.48205 11.2109 7.87034 10.1263 8.69623C10.1263 8.69623 10.1201 8.70239 10.1138 8.70239C7.41477 3.87034 5.03983 3.88883 4.52869 3.95046C4.62842 3.39576 4.81543 2.90886 5.1084 2.53906C5.11463 2.53906 7.75761 2.79792 12.0213 7.48205Z" fill="#FF9300"/>
<path d="M10.12 8.70216C8.93568 9.60201 7.42719 11.0134 6.26777 13.0103C6.26777 13.0103 3.93646 7.24761 4.53487 3.95023C5.03978 3.8886 7.42096 3.87627 10.12 8.70216Z" fill="#FF8300"/>
<path d="M4.53491 3.95068C4.50375 3.95704 4.46635 3.9634 4.43518 3.96975L4.53491 3.95068Z" fill="#FF8300"/>
<path d="M27.2247 16.2093C27.2247 16.2093 25.23 16.3326 25.4793 14.7918C25.7287 13.2509 27.287 13.066 27.7234 13.1277C28.1597 13.1893 29.9051 13.8056 29.5934 15.0999C29.2817 16.3942 28.8454 16.1477 28.5961 16.2093C28.3467 16.271 27.2247 16.2093 27.2247 16.2093Z" fill="white"/>
<path d="M12.5138 16.2093C12.5138 16.2093 10.5191 16.3326 10.7684 14.7918C11.0177 13.2509 12.5761 13.066 13.0124 13.1277C13.4488 13.1893 15.1941 13.8056 14.8825 15.0999C14.5708 16.3942 14.1344 16.1477 13.8851 16.2093C13.6358 16.271 12.5138 16.2093 12.5138 16.2093Z" fill="white"/>
</g>
<defs>
<clipPath id="clip0_2063_32135">
<rect width="40" height="40" fill="white"/>
</clipPath>
</defs>
</svg>
