<svg width="26" height="26" viewBox="0 0 26 26" fill="none" xmlns="http://www.w3.org/2000/svg">
<path d="M13 0C20.176 0 26 5.824 26 13C26 20.176 20.176 26 13 26C5.824 26 0 20.176 0 13C0 5.824 5.824 0 13 0Z" fill="#53AE94"/>
<path d="M14.6117 11.284V9.36H19.0317V6.396H6.9677V9.36H11.3877V11.284C7.7997 11.44 5.0957 12.168 5.0957 13C5.0957 13.832 7.7997 14.56 11.3877 14.716V20.904H14.5597V14.716C18.1997 14.56 20.9037 13.832 20.9037 13C20.9037 12.168 18.1997 11.44 14.6117 11.284ZM14.6117 14.196C14.5077 14.196 14.0397 14.248 13.0517 14.248C12.2197 14.248 11.6477 14.248 11.4397 14.196C8.2157 14.04 5.8757 13.52 5.8757 12.844C5.8757 12.168 8.2677 11.648 11.4397 11.492V13.676C11.6477 13.676 12.2197 13.728 13.0517 13.728C14.0397 13.728 14.5597 13.676 14.6117 13.676V11.492C17.7837 11.648 20.1237 12.168 20.1237 12.844C20.1237 13.52 17.7837 14.04 14.6117 14.196Z" fill="white"/>
</svg>
