<svg width="24" height="24" viewBox="0 0 24 24" fill="none" xmlns="http://www.w3.org/2000/svg">
<circle cx="12" cy="12" r="12" fill="black"/>
<path fill-rule="evenodd" clip-rule="evenodd" d="M19.8843 8.44714L19.5171 8.1904L19.5168 8.19018L19.5167 8.19008C18.945 7.79048 18.349 7.37388 17.7637 6.95993C17.7479 6.94813 17.7322 6.93632 17.7125 6.92452C17.6338 6.8655 17.5434 6.80255 17.4332 6.76714L17.4253 6.76321C15.6874 6.34309 13.9233 5.91314 12.2047 5.49429L11.7125 5.37436C10.8627 5.1678 10.0138 4.96124 9.16496 4.75468L9.16495 4.75467L9.16462 4.75459L9.1646 4.75459C8.31588 4.54806 7.46716 4.34154 6.61745 4.13501L6.61745 4.13501C6.57417 4.12321 6.53089 4.1114 6.48368 4.0996C6.33024 4.05632 6.15319 4.00911 5.96434 4.03272C5.90926 4.04059 5.86204 4.06026 5.81876 4.0878L5.77155 4.12714C5.6968 4.19796 5.65745 4.28845 5.63778 4.3396L5.62598 4.37108V4.55206L5.63385 4.5796C6.44141 6.84255 7.26454 9.12996 8.07481 11.3816L8.07494 11.382L8.07512 11.3825L8.0773 11.3886C8.34389 12.1294 8.60909 12.8664 8.87188 13.5973L9.60705 15.6394C10.1926 17.2656 10.7863 18.9143 11.3702 20.5416C11.4214 20.6989 11.567 20.8012 11.7479 20.817H11.7873C11.9565 20.817 12.106 20.7344 12.1807 20.6006L15.2968 16.0563C15.6765 15.5035 16.0561 14.9498 16.4358 14.396L16.4385 14.392L16.439 14.3913L16.4395 14.3906C16.818 13.8386 17.1964 13.2866 17.5748 12.7357C17.7302 12.5094 17.8856 12.2823 18.041 12.0551L18.0413 12.0547C18.1966 11.8276 18.3519 11.6005 18.5073 11.3744L18.5714 11.2807C19.0627 10.5625 19.5678 9.82433 20.0693 9.10419L20.0968 9.06485V9.01763C20.1086 8.87993 20.1125 8.59665 19.8843 8.44714ZM15.4072 10.5352L15.407 10.5353L15.4067 10.5354L15.4063 10.5356L15.4062 10.5357C14.9414 10.7789 14.4721 11.0245 14.0014 11.2685L15.3155 9.86C15.7917 9.34609 16.2858 8.81726 16.7745 8.29429L16.7746 8.29413L16.7749 8.29382L16.9915 8.06197L17.0033 8.05017C17.0505 7.98721 17.1096 7.9282 17.1725 7.86525C17.1832 7.85455 17.1941 7.84385 17.2052 7.83303L17.2052 7.83302L17.2052 7.833C17.2389 7.80007 17.2737 7.76603 17.3063 7.72754C17.5974 7.9282 17.8925 8.13279 18.1758 8.33344C18.3804 8.47902 18.5889 8.62459 18.8014 8.77017C17.9358 9.21082 17.0702 9.66328 16.2322 10.1039C15.9592 10.2463 15.6841 10.3903 15.4074 10.5351L15.4072 10.5352ZM12.6282 11.7677C13.2066 11.15 13.7888 10.5244 14.3515 9.91455L14.8474 9.38147L14.8475 9.38136C15.43 8.75511 16.0231 8.11749 16.6138 7.48701C15.4728 7.20965 14.331 6.93229 13.1891 6.65493C12.047 6.37753 10.905 6.10014 9.76393 5.82274C9.35868 5.72045 8.94557 5.62209 8.54819 5.52766C8.09573 5.42143 7.6354 5.31127 7.17901 5.19324C7.20241 5.22157 7.22582 5.24951 7.2491 5.27731C7.30018 5.33831 7.35069 5.39862 7.39934 5.46078C7.43466 5.50367 7.46998 5.54737 7.50544 5.59124L7.50544 5.59124L7.50544 5.59124C7.58055 5.68417 7.65625 5.77782 7.73376 5.86602L7.7377 5.86996L8.49499 6.78068L9.25245 7.6916C10.362 9.02537 11.5069 10.4064 12.6282 11.7677ZM12.4095 17.2396L12.4096 17.2392C12.4418 16.9364 12.4744 16.6302 12.5029 16.3281L12.5383 15.992C12.5619 15.7673 12.5856 15.5426 12.6092 15.3249L12.6341 15.0892L12.6341 15.0892C12.6816 14.6397 12.7303 14.1793 12.7705 13.7275L12.7823 13.6331C12.8216 13.2947 12.861 12.9445 12.8846 12.5944C12.9279 12.5708 12.9751 12.5472 13.0262 12.5275C13.0409 12.5206 13.0556 12.514 13.0703 12.5074L13.0705 12.5073C13.1147 12.4874 13.159 12.4675 13.2033 12.4409L13.2034 12.4409C14.1122 11.9648 15.021 11.4888 15.9338 11.0167C16.8426 10.5445 17.7751 10.0567 18.6997 9.57274C17.8577 10.7924 17.0118 12.0239 16.1934 13.2239L15.7317 13.8973L15.7311 13.8982C15.1743 14.7106 14.6086 15.536 14.0452 16.3518C13.8851 16.5876 13.7211 16.8259 13.5584 17.0624C13.4333 17.2443 13.3089 17.4251 13.1875 17.6029C12.8728 18.0593 12.5501 18.5275 12.2354 18.9957C12.2747 18.5236 12.322 18.0475 12.3731 17.5832C12.385 17.4694 12.3972 17.3547 12.4095 17.2396ZM6.83614 5.9793C6.85362 6.02694 6.87111 6.07459 6.88816 6.1218C7.7774 8.59805 8.66665 11.0708 9.5559 13.5436C10.0004 14.7797 10.4449 16.0158 10.8895 17.2523L11.3105 18.4208C11.3655 18.5821 11.4246 18.7474 11.4836 18.9048C11.4911 18.926 11.4993 18.9477 11.5076 18.9699C11.5208 19.0053 11.5344 19.0416 11.5465 19.0779C11.5626 18.9279 11.5778 18.7779 11.593 18.6286C11.6113 18.449 11.6295 18.2705 11.6488 18.0943C11.656 18.0262 11.6633 17.9579 11.6706 17.8895C11.7464 17.175 11.8242 16.4432 11.8888 15.7179L11.8927 15.6903C11.8927 15.6903 11.9557 15.1474 11.9832 14.9074C11.9877 14.8681 11.9924 14.8285 11.9971 14.7889C12.013 14.6538 12.0292 14.517 12.0383 14.3802V14.3762C12.0698 14.0969 12.0973 13.8215 12.1249 13.5461C12.1423 13.3877 12.1591 13.2269 12.176 13.0647C12.2011 12.8239 12.2265 12.5804 12.2547 12.3382C12.1471 12.219 12.046 12.0955 11.9466 11.974C11.9114 11.9311 11.8765 11.8885 11.8416 11.8464C11.7393 11.7205 11.6331 11.5907 11.5268 11.4687C11.1675 11.0333 10.8082 10.6014 10.4488 10.1695C10.2691 9.9535 10.0895 9.73754 9.9098 9.52115C8.86717 8.27 7.79701 6.97951 6.73471 5.69689C6.76619 5.78869 6.80116 5.88399 6.83614 5.9793Z" fill="white"/>
</svg>
