<svg width="24" height="25" viewBox="0 0 24 25" fill="none" xmlns="http://www.w3.org/2000/svg">
<path d="M12 0.512726C5.37258 0.512726 0 5.88531 0 12.5127C0 19.1401 5.37258 24.5127 12 24.5127C18.6274 24.5127 24 19.1401 24 12.5127C24 5.88531 18.6274 0.512726 12 0.512726Z" fill="white"/>
<g clip-path="url(#clip0)">
<path d="M17.8975 7.79418L16.0913 8.78249L7.35654 13.572C7.32832 13.3287 7.31421 13.0854 7.31421 12.8421C7.31421 9.77079 9.65663 7.24681 12.5071 7.24681C13.396 7.24681 14.2709 7.49009 15.047 7.96143L16.0771 7.39886L16.2324 7.30763C15.1458 6.45617 13.8476 6.00003 12.5071 6.00003C9.02164 6.00003 6.1571 9.08658 6.1571 12.8421C6.1571 13.0094 6.1571 13.1918 6.17121 13.3591C6.19944 13.8608 5.95955 14.3322 5.55033 14.5603L5 14.8644V16.2632L6.60865 15.3813L7.13076 15.0924L7.63876 14.8035L16.8391 9.75559L17.8692 9.19301L20 8.02225V6.62342L17.8975 7.79418ZM20 8.73687L8.15789 15.2445L7.12876 15.807L5 16.9778V18.3766L7.11466 17.2211L8.91917 16.2328L17.6457 11.4433C17.6739 11.6866 17.688 11.9299 17.688 12.1731C17.688 15.2445 15.3477 17.7685 12.5 17.7685C11.6118 17.7685 10.7378 17.5252 9.96241 17.0538L9.90601 17.0842L8.79229 17.7076C9.84962 18.5439 11.1607 19 12.5 19C15.9821 19 18.844 15.9135 18.844 12.1579C18.844 11.9755 18.844 11.8082 18.8299 11.6258C18.8017 11.124 19.0414 10.6527 19.4502 10.4246L20 10.1205V8.73687Z" fill="#1F1F1F"/>
</g>
<defs>
<clipPath id="clip0">
<rect width="15" height="13" fill="white" transform="translate(5 6.00003)"/>
</clipPath>
</defs>
</svg>
