<svg width="25" height="25" viewBox="0 0 25 25" fill="none" xmlns="http://www.w3.org/2000/svg">
<path d="M12.6797 0.512726C6.05227 0.512726 0.679688 5.88531 0.679688 12.5127C0.679688 19.1401 6.05227 24.5127 12.6797 24.5127C19.3071 24.5127 24.6797 19.1401 24.6797 12.5127C24.6797 5.88531 19.3071 0.512726 12.6797 0.512726Z" fill="white"/>
<g clip-path="url(#clip0)">
<path d="M17.0964 7.00003H18.9758L15.0636 11.6737C13.6471 13.3658 11.3506 13.3658 9.93717 11.6737L6.0249 7.00003H7.90438L10.8754 10.5503C11.7737 11.6207 13.227 11.6207 14.1223 10.5503L17.0964 7.00003Z" fill="black"/>
<path d="M7.87948 20H6L9.93679 15.2946C11.3533 13.6025 13.6498 13.6025 15.0663 15.2946L19 20H17.1205L14.125 16.4215C13.2267 15.3511 11.7733 15.3511 10.8781 16.4215L7.87948 20Z" fill="black"/>
</g>
<defs>
<clipPath id="clip0">
<rect width="13" height="13" fill="white" transform="translate(6 7.00003)"/>
</clipPath>
</defs>
</svg>
