<svg fill="none" height="319" viewBox="0 0 259 319" width="259" xmlns="http://www.w3.org/2000/svg"><g fill="#b4fbf7"><path d="m496.179-193.829-8.169 165.3696-2.176 41.3367-1.088 20.6755-.816 15.5067-.373 5.1645-.387 5.1785c-.091 1.7326-.182 3.4507-.488 5.1741l-1.216 10.3091c-.472 3.4239-1.096 6.8269-1.63 10.2336-.306 1.709-.523 3.4217-.892 5.1135l-1.066 5.0627c-1.285 6.8045-3.12 13.4405-4.864 20.0515l-2.996 9.871-.752 2.472-.851 2.423-1.716 4.847-1.715 4.847-1.914 4.766-1.913 4.752-.963 2.375-1.05 2.329-4.235 9.297-4.616 9.065c-6.344 11.97-13.439 23.416-21.229 34.244-15.714 21.59-34.192 40.382-54.787 55.72-5.107 3.906-10.455 7.339-15.806 10.83l-8.153 4.847c-1.314.841-2.76 1.532-4.145 2.269l-4.179 2.209c-1.396.708-2.77 1.488-4.189 2.151l-4.256 1.975c-2.85 1.326-5.65 2.653-8.566 3.788-2.917 1.134-5.773 2.329-8.675 3.421l-8.803 2.982c-11.823 3.689-23.848 6.392-35.978 8.089-24.276 3.296-48.77 2.252-72.591-3.096-11.901-2.708-23.589-6.423-34.967-11.114l-8.452-3.703c-2.787-1.334-5.517-2.767-8.288-4.159-2.771-1.391-5.431-2.966-8.132-4.485l-4.029-2.328c-1.343-.781-2.629-1.675-3.944-2.513l-3.916-2.54c-1.314-.852-2.642-1.675-3.887-2.626l-7.62-5.519c-4.873-3.913-9.9-7.788-14.599-12.113-18.9152-16.994-35.3632-37.251-48.7698-60.063-6.6174-11.443-12.4788-23.44-17.5373-35.897l-3.6437-9.417-3.2396-9.616-.8002-2.407-.7093-2.447-1.4057-4.893-1.4051-4.908-1.1984-4.971-1.1859-4.97-.6057-2.486-.4893-2.525-2.0087-10.0845c-1.0007-6.8004-2.1303-13.5629-2.7368-20.3755l-.5299-5.1308c-.189-1.7155-.2253-3.4391-.3376-5.1659-.1873-3.4375-.4379-6.8777-.5484-10.3264l-.1401-10.367c-.0482-1.7385-.0084-3.4588.0575-5.1925l.1713-5.1877.1581-5.1737.8206-15.5933 1.0881-20.6755 2.1755-41.3366 9.2213-165.3246.1266.006-12.7807 242.8505-.158 5.1737-.1579 5.1738c-.0905 1.7181-.105 3.4395-.056 5.1636l.1423 10.3236c.1232 3.4493.3873 6.8756.562 10.3126.1257 1.7129.1619 3.4364.3517 5.1376l.5307 5.1163c.5788 6.8548 1.71 13.5885 2.7368 20.3756l2.0109 10.0417.5028 2.51.5928 2.485 1.1994 4.957 1.1874 4.942 1.4066 4.879 1.4192 4.879.6966 2.446.8009 2.393 3.3052 9.576 3.646 9.373c5.0498 12.396 10.8973 24.335 17.4958 35.722 13.4523 22.713 29.9417 42.856 48.89 59.721 4.649 4.308 9.601 8.151 14.513 12.05l7.584 5.475c1.22.95 2.561 1.759 3.863 2.596l3.917 2.54c1.302.823 2.589 1.702 3.919 2.483l4.018 2.313c2.686 1.561 5.333 3.121 8.107 4.455s5.478 2.795 8.24 4.114l8.504 3.676c11.312 4.631 22.924 8.308 34.744 11.003 23.707 5.235 48.061 6.274 72.212 3.08 12.05-1.679 23.996-4.352 35.744-7.998l8.751-2.955c2.901-1.077 5.757-2.272 8.648-3.393 2.89-1.122 5.692-2.478 8.526-3.747l4.243-1.96c1.406-.664 2.779-1.43 4.163-2.153l4.165-2.181c1.384-.722 2.779-1.415 4.119-2.255l8.138-4.819c5.261-3.451 10.629-6.782 15.701-10.748 20.546-15.208 38.991-33.865 54.69-55.319 7.764-10.777 14.844-22.164 21.181-34.072l4.602-9.022 4.296-9.251 1.048-2.314.963-2.376 1.913-4.737 1.913-4.737 1.713-4.818 1.702-4.833.864-2.423.752-2.457 2.993-9.828c1.721-6.656 3.554-13.263 4.864-20.0517l1.066-5.0482c.38-1.6768.585-3.3901.89-5.0846.547-3.4062 1.17-6.7948 1.642-10.2187l1.226-10.2652c.242-1.7117.371-3.4282.486-5.1453l.386-5.164.399-5.1635 12.779-242.8218z"/><path d="m490.643-194.064-7.989 161.4412-2.124 40.35488-1.064 20.21352-.796 15.1312-.367 5.0491-.381 5.063c-.089 1.6892-.24 3.3614-.468 5.0447l-1.191 10.0787c-.468 3.3372-1.074 6.6541-1.592 9.9892-.291 1.6661-.507 3.35-.873 4.9985l-1.035 4.9483c-1.263 6.6315-3.051 13.1107-4.728 19.6377l-2.933 9.642-.735 2.4-.836 2.367-1.659 4.748c-4.486 12.622-9.841 24.84-16.017 36.535-6.198 11.683-13.126 22.854-20.728 33.426-15.361 21.067-33.425 39.39-53.559 54.325-4.975 3.825-10.205 7.177-15.399 10.573l-7.969 4.739c-2.623 1.581-5.409 2.895-8.115 4.372-1.307.696-2.705 1.461-4.086 2.112l-4.164 1.92c-2.783 1.256-5.523 2.659-8.358 3.696-2.836 1.036-5.644 2.277-8.48 3.343l-8.584 2.904c-11.523 3.596-23.243 6.235-35.066 7.896-23.725 3.221-47.664 2.201-70.944-3.025-11.598-2.654-22.988-6.284-34.079-10.859l-8.254-3.608c-2.711-1.317-5.381-2.704-8.077-4.063-2.697-1.36-5.307-2.904-7.946-4.391l-3.931-2.266c-1.319-.751-2.572-1.557-3.858-2.451-2.527-1.685-5.15-3.229-7.619-5.042l-7.437-5.382c-4.877-3.84-9.666-7.647-14.22-11.835-18.4628-16.597-34.5199-36.373-47.6133-58.64-6.4561-11.17-12.1756-22.881-17.1128-35.039-4.9324-12.167-8.9813-24.792-12.107-37.75l-1.1666-4.854-.5834-2.427-.4804-2.4512-1.9069-9.8489c-.9204-6.6379-2.0836-13.2427-2.6447-19.952l-.5106-5.0142c-.1913-1.6723-.2166-3.3664-.3311-5.0499-.1785-3.3648-.4336-6.7184-.5487-10.0804l-.1269-10.1349c-.0505-1.6952-.0002-3.3717.0633-5.062l.1526-5.0727.1647-5.0577.797-15.14569 1.0638-20.21351 2.1238-40.3548 9.0019-161.3981.1647.007-8.4951 161.4197-3.9824 75.6707-.1512 5.0438-.1512 5.0438c-.0889 1.6893-.101 3.3674-.0498 5.0481l.1396 10.1354c.1024 3.3616.371 6.7013.5368 10.0655.128 1.6696.1538 3.3493.3459 5.0072l.5241 5.0002c.5626 6.6805 1.6634 13.2682 2.6486 19.8798l1.9092 9.8057.4804 2.4511.584 2.413 1.1673 4.84c3.1388 12.891 7.1867 25.451 12.1044 37.56 4.9344 12.102 10.6436 23.759 17.083 34.88 13.0621 22.148 29.0743 41.81 47.479 58.3 4.527 4.202 9.371 7.954 14.16 11.761l7.337 5.349c2.446 1.783 5.069 3.327 7.596 4.998 1.228.804 2.527 1.685 3.834 2.435l3.919 2.251c2.627 1.472 5.194 3.116 7.91 4.346s5.342 2.731 8.041 4.032l8.217 3.578c11.037 4.529 22.37 8.122 33.907 10.75 23.149 5.117 46.931 6.131 70.514 3.007 11.761-1.633 23.42-4.246 34.884-7.817l8.556-2.862c2.824-1.066 5.614-2.221 8.428-3.331s5.561-2.411 8.331-3.653l4.138-1.907c1.379-.636 2.715-1.404 4.072-2.098 2.692-1.448 5.44-2.764 8.087-4.33l7.866-4.7c5.181-3.382 10.384-6.706 15.345-10.502 20.047-14.856 38.048-33.067 53.376-54.001 7.587-10.515 14.495-21.635 20.669-33.269 6.173-11.633 11.522-23.794 15.995-36.363l1.671-4.718.834-2.352.736-2.4 2.931-9.599c1.612-6.501 3.462-12.9629 4.737-19.5651l1.034-4.9338c.365-1.634.568-3.304.87-4.9553.531-3.3345 1.137-6.6369 1.604-9.9742l1.204-10.0781c.227-1.6689.354-3.3421.468-5.0303l.379-5.034.379-5.0341 12.477-237.0761z"/><path d="m485.108-194.3-7.808 157.5126-2.072 39.37303-1.036 19.69377c-.346 6.5694-.576 13.1147-1.138 19.6894l-.361 4.9335c-.087 1.646-.174 3.2919-.463 4.9293l-1.164 9.8192c-.451 3.2656-1.04 6.4964-1.555 9.7593-.288 1.6084-.488 3.2495-.84 4.8553l-1.016 4.8332c-1.229 6.4739-2.985 12.8095-4.614 19.1654l-2.856 9.399-.721 2.357-.82 2.31-1.627 4.619c-4.369 12.322-9.595 24.246-15.628 35.655-6.049 11.398-12.805 22.301-20.216 32.622-15.014 20.548-32.655 38.423-52.308 53.004-4.856 3.729-9.954 6.985-15.031 10.314l-7.772 4.617c-2.62 1.538-5.228 2.831-7.919 4.264-1.305.683-2.614 1.423-3.993 2.058l-4.06 1.868c-2.706 1.23-5.38 2.578-8.163 3.602-2.784 1.024-5.488 2.226-8.261 3.28l-8.389 2.826c-11.238 3.519-22.671 6.093-34.205 7.701-23.128 3.143-46.464 2.148-69.158-2.949-11.316-2.591-22.431-6.126-33.256-10.578l-8.054-3.541c-2.637-1.271-5.244-2.641-7.88-3.954-2.635-1.314-5.171-2.825-7.748-4.281l-3.846-2.204c-1.23-.747-2.458-1.552-3.683-2.4-2.453-1.639-5.029-3.109-7.448-4.92l-7.253-5.258c-4.692-3.731-9.437-7.42-13.867-11.545-18.0399-16.176-33.7258-35.469-46.5077-57.203-6.3028-10.903-11.8884-22.333-16.7126-34.198-4.8025-11.874-8.7529-24.188-11.813-36.825l-1.1346-4.7369-.5736-2.3687-.4575-2.4072-1.8564-9.6008c-.9295-6.4646-2.037-12.9223-2.5811-19.4718l-.5041-4.8981c-.1936-1.6289-.2211-3.2798-.326-4.905-.1696-3.292-.4285-6.5734-.5355-9.8483l-.1279-9.8744c-.0401-1.6514-.0041-3.2995.0571-4.9466l.1586-4.9421c.1438-6.5925.6908-13.12437.9352-19.69809l1.0364-19.69371 2.0721-39.373 8.7699-157.4713.2153.009-11.3978 216.57318c-.345 6.55494-.792 13.12002-.9216 19.68412l-.1451 4.9283c-.0859 1.6315-.1724 3.2775-.0556 4.9177l.1427 9.8316c.107 3.2749.3542 6.5414.5372 9.8195.1176 1.6257.1457 3.2621.3266 4.8905l.5055 4.8693c.5583 6.5211 1.6294 12.9483 2.5977 19.4l1.8588 9.5575.4708 2.3933.5616 2.3537 1.1483 4.7233c3.0532 12.589 6.9976 24.855 11.7951 36.679 4.8171 11.795 10.3894 23.156 16.6726 33.994 12.7409 21.605 28.3584 40.786 46.3096 56.876 4.431 4.096 9.153 7.756 13.82 11.471l7.23 5.214c2.447 1.754 4.907 3.248 7.361 4.886 1.228.791 2.453 1.639 3.684 2.372l3.821 2.188c2.565 1.441 5.073 2.995 7.712 4.251 2.638 1.255 5.218 2.653 7.856 3.923l8.006 3.496c10.77 4.413 21.827 7.916 33.083 10.484 22.582 4.996 45.784 5.985 68.79 2.934 11.475-1.599 22.85-4.146 34.036-7.622l8.337-2.799c2.759-1.04 5.485-2.168 8.233-3.238 2.748-1.069 5.419-2.359 8.124-3.575l4.033-1.854c1.303-.624 2.61-1.336 3.917-2.047 2.614-1.422 5.308-2.668 7.841-4.238l7.745-4.576c5.05-3.301 10.122-6.543 14.963-10.243 19.563-14.486 37.126-32.253 52.075-52.681 7.394-10.254 14.134-21.091 20.168-32.423 6.022-11.362 11.242-23.237 15.608-35.511l1.626-4.604.806-2.296.72-2.342 2.854-9.3568c1.604-6.3421 3.383-12.6477 4.624-19.0921l1.014-4.8044c.352-1.6058.564-3.2319.853-4.8548.513-3.234 1.102-6.4648 1.552-9.7159l1.175-9.7755c.225-1.6255.35-3.2699.461-4.9003l.373-4.9186c.561-6.5457.767-13.1211 1.163-19.6738l11.397-216.5738z"/><path d="m479.583-194.536-7.613 153.5854-2.02 38.39119-1.011 19.20291c-.336 6.3961-.571 12.7821-1.112 19.1985l-.355 4.818c-.084 1.6026-.232 3.2026-.443 4.7998l-1.139 9.5744c-.434 3.1795-1.019 6.3381-1.516 9.5149-.274 1.5801-.472 3.1779-.821 4.7403l-.984 4.7044c-1.209 6.3155-2.918 12.494-4.501 18.6923l-2.794 9.1709-.691 2.286-.804 2.252-1.584 4.52c-4.264 12.01-9.359 23.634-15.237 34.759-5.894 11.121-12.488 21.751-19.729 31.805-14.621 20.042-31.812 37.474-50.969 51.686-4.725 3.633-9.705 6.822-14.649 10.055l-7.576 4.51c-2.529 1.498-5.224 2.758-7.723 4.157-1.305.667-2.61 1.335-3.914 2.003l-3.906 1.831c-2.603 1.205-5.211 2.512-7.955 3.51-2.744.997-5.358 2.173-8.053 3.187l-8.183 2.762c-10.977 3.43-22.143 5.943-33.408 7.519-22.551 3.061-45.306 2.091-67.435-2.876-11.048-2.521-21.901-5.968-32.47-10.313l-7.843-3.446c-2.588-1.239-5.133-2.577-7.694-3.858-2.561-1.282-5.048-2.763-7.551-4.172l-3.696-2.154c-1.231-.733-2.458-1.552-3.687-2.328-2.457-1.552-4.915-3.104-7.25-4.81l-7.083-5.12c-4.582-3.64-9.192-7.237-13.526-11.256-17.5744-15.786-32.8564-34.602-45.3131-55.792-6.1096-10.636-11.5192-21.782-16.1858-33.351-4.691-11.576-8.543-23.587-11.5181-35.9149l-1.1154-4.6203-.5514-2.3099-.4611-2.335-1.8053-9.367c-.9378-6.3058-1.9903-12.602-2.5175-18.9916l-.4856-4.767c-.1832-1.5852-.2129-3.1927-.332-4.7895-.1614-3.2049-.3997-6.3986-.5105-9.6013l-.1155-9.6279c-.055-1.6086-.0085-3.2129.0505-4.8166l.1523-4.8267c.1355-6.4336.6741-12.80666.9093-19.20711l1.0106-19.20289 2.0205-38.3912 8.5378-153.5451.266.011-11.1128 211.15898c-.3366 6.39613-.762 12.78842-.8832 19.19372l-.1508 4.7979c-.0844 1.6026-.1679 3.1908-.0496 4.8021l.1305 9.5851c.1115 3.1883.3497 6.382.5253 9.5586.1064 1.5963.1361 3.2038.32 4.7745l.4991 4.7531c.5413 6.3612 1.5828 12.628 2.5215 18.9193l1.82 9.3244.4485 2.3344.5648 2.296 1.1036 4.6053c2.9858 12.2616 6.8365 24.2096 11.5151 35.7266 4.6909 11.513 10.1205 22.602 16.2457 33.18 12.4195 21.072 27.6471 39.778 45.1516 55.466 4.311 3.99 8.907 7.615 13.48 11.182l7.046 5.09c2.335 1.706 4.814 3.1 7.215 4.765 1.23.761 2.458 1.552 3.687 2.313l3.697 2.14c2.466 1.393 4.925 2.916 7.527 4.142 2.602 1.225 5.082 2.59 7.646 3.813l7.82 3.416c10.497 4.303 21.275 7.717 32.246 10.216 22.016 4.875 44.638 5.84 67.068 2.86 11.188-1.554 22.281-4.036 33.187-7.426l8.131-2.736c2.681-1 5.341-2.102 8.025-3.145 2.683-1.043 5.276-2.307 7.915-3.483l3.905-1.816c1.302-.61 2.61-1.335 3.914-1.989 2.61-1.336 5.219-2.671 7.696-4.129l7.549-4.467c4.918-3.22 9.871-6.381 14.581-9.986 19.071-14.133 36.194-31.459 50.775-51.376 7.212-10.005 13.783-20.583 19.657-31.648 5.878-11.062 10.966-22.629 15.216-34.587l1.595-4.491.79-2.238.692-2.285 2.791-9.1282c1.595-6.1689 3.302-12.3184 4.497-18.6201l.996-4.6894c.348-1.5479.547-3.1457.82-4.7259.509-3.1473 1.081-6.3065 1.527-9.471l1.136-9.5311c.224-1.5967.346-3.1832.456-4.7848l.366-4.7887c.539-6.3875.749-12.7889 1.124-19.1835l3.031-57.594 8.082-153.5653z"/><path d="m474.034-194.772-7.394 149.6584-1.968 37.40941-.988 18.76969c-.329 6.2373-.555 12.4645-1.077 18.7659l-.348 4.6881c-.083 1.5738-.165 3.1331-.437 4.6843l-1.113 9.3295c-.43 3.0929-.986 6.1803-1.479 9.2705-.271 1.5368-.467 3.0913-.802 4.6254l-.965 4.5894c-1.174 6.1434-2.824 12.1651-4.386 18.2051l-2.706 8.9433-.688 2.228-.776 2.1954-1.501 4.3926c-16.834 47.161-46.113 87.461-83.719 115.234-4.619 3.551-9.468 6.658-14.281 9.81l-7.392 4.388c-2.451 1.473-5.016 2.68-7.525 4.02-1.304.654-2.508 1.34-3.785 1.951l-3.903 1.788c-2.6 1.162-5.118 2.444-7.798 3.415-2.679.971-5.19 2.123-7.858 3.109l-7.962 2.685c-10.683 3.331-21.548 5.769-32.508 7.296-21.975 2.979-44.148 2.034-65.712-2.802-10.754-2.458-21.318-5.81-31.609-10.03l-7.645-3.351c-2.475-1.22-4.946-2.512-7.496-3.763-2.55-1.252-4.938-2.686-7.404-4.064l-3.698-2.111c-1.233-.704-2.37-1.548-3.563-2.265-2.357-1.548-4.769-3.011-7.07-4.643l-6.898-4.997c-4.46-3.562-8.961-7.053-13.173-10.98-34.53-30.843-59.4508-73.456-71.2556-121.8425l-1.0329-4.501-.5417-2.2516-.4388-2.2761-1.7668-9.134c-.9462-6.1469-1.8931-12.2794-2.4547-18.4968l-.479-4.651c-.1721-1.5557-.204-3.1199-.3127-4.6729-.1533-3.1177-.3954-6.2392-.4981-9.3548l-.1157-9.3819c-.0446-1.5647-.0132-3.1262.0569-4.7005l.1457-4.6968c.1263-6.26035.6564-12.474578.8864-18.77397l.9878-18.76973 1.9687-37.4094 8.3187-149.619.304.013-10.8286 205.75924c-.3283 6.237305-.7453 12.47085-.8739 18.77456l-.1441 4.6679c-.0821 1.5593-.1008 3.1213-.0561 4.686l.1433 9.3397c.1027 3.1156.3336 6.2077.5004 9.3115.1087 1.553.1406 3.1172.3134 4.6584l.4798 4.6366c.5251 6.1869 1.5495 12.2938 2.4719 18.4108l1.769 9.0906.4396 2.2617.5418 2.2516 1.0343 4.4721c5.8866 23.9113 15.0082 46.5593 27.0413 67.1393 12.1127 20.501 26.9505 38.701 43.9987 53.97 4.202 3.884 8.679 7.36 13.127 10.892l6.863 4.952c2.287 1.66 4.7 3.095 7.031 4.641 1.23.747 2.344 1.547 3.55 2.264l3.7 2.083c2.467 1.364 4.815 2.839 7.33 4.031 2.514 1.193 4.946 2.526 7.422 3.732l7.608 3.32c10.224 4.223 20.726 7.573 31.418 10.022 21.451 4.754 43.492 5.694 65.345 2.786 10.902-1.535 21.708-3.976 32.331-7.304l7.923-2.657c2.591-.99 5.187-2.065 7.78-3.084 2.593-1.018 5.197-2.238 7.721-3.389l3.901-1.758c1.301-.596 2.509-1.341 3.773-1.952 2.495-1.341 5.036-2.564 7.487-4.022l7.351-4.346c4.8-3.138 9.622-6.218 14.212-9.726 37.471-27.586 66.666-67.657 83.482-114.579l1.5-4.3637.776-2.1954.688-2.2136 2.715-8.8994c1.586-6.01 3.172-12.0056 4.382-18.1185l.964-4.575c.334-1.5196.531-3.0741.802-4.6108.492-3.0758 1.046-6.1344 1.488-9.2267l1.111-9.2862c.209-1.5539.329-3.1117.437-4.6699l.347-4.6592c.542-6.2137.744-12.4564 1.114-18.7643l10.826-205.7013z"/><path d="m468.499-195.008-7.25 145.7282-1.918 36.4276-.956 18.17774c-.32 6.07846-.537 12.13236-1.048 18.21726l-.342 4.5726c-.08 1.516-.224 3.0438-.43 4.5544l-1.075 9.0851c-.413 3.0212-.965 6.022-1.44 9.0261-.476 3.0041-1.091 6.0023-1.742 8.9699-1.14 5.9856-2.757 11.8496-4.273 17.7324l-2.641 8.7-.661 2.1858-.76 2.1382-1.495 4.2774c-16.403 45.9243-44.919 85.1673-81.542 112.2153-4.486 3.441-9.228 6.466-13.898 9.537l-7.196 4.28c-2.398 1.432-4.886 2.614-7.33 3.942-1.227.628-2.445 1.343-3.694 1.912l-3.748 1.736c-2.51 1.123-4.988 2.377-7.552 3.324s-5.098 2.055-7.651 3.031l-7.753 2.564c-10.403 3.253-20.985 5.636-31.661 7.129-21.399 2.908-42.991 1.988-63.989-2.728-10.47-2.399-20.754-5.672-30.77-9.792l-7.45-3.212c-2.477-1.176-4.874-2.436-7.298-3.654-2.425-1.217-4.789-2.621-7.169-3.966l-3.562-2.048c-1.233-.689-2.309-1.473-3.477-2.203-2.28-1.544-4.645-2.933-6.883-4.548l-6.715-4.874c-4.338-3.455-8.729-6.869-12.833-10.676-16.639-14.962-31.115-32.78-42.9289-52.84-11.7499-20.152-20.6523-42.321-26.392-65.7219l-1.0389-4.3855-.5195-2.1928-.4411-2.2328-1.7164-8.8858c-.8785-5.9849-1.9099-11.9618-2.3911-18.0166-.3115-3.0087-.6475-6.0329-.792-9.0779s-.3791-6.0649-.4856-9.1082l-.1159-9.136c-.0469-1.5214-.0044-3.0534.05-4.5705l.1523-4.58069c.1179-6.1015796.6391-12.14254.8576-18.22531l.9589-18.2211 1.9171-36.4276 8.0865-145.6923.3547.015-10.5391 200.2578c-.3191 6.06408-.7278 12.138767-.8442 18.21147l-.1381 4.55243c-.0759 1.4438-.1595 3.032-.0493 4.5561l.1309 9.0931c.1073 3.029.3293 6.0483.488 9.065.1586 3.0166.4566 6.0392.7934 9.049.5082 6.027 1.503 11.9734 2.3958 17.9299l1.7185 8.8425.4427 2.204.5195 2.1927 1.0389 4.3855c11.4867 46.8735 35.6795 88.1345 69.1733 117.9765 4.092 3.792 8.511 7.179 12.771 10.674l6.691 4.829c2.213 1.614 4.565 3.002 6.847 4.518 1.155.729 2.28 1.544 3.453 2.187l3.537 2.032c2.368 1.331 4.691 2.776 7.132 3.936 2.44 1.161 4.835 2.45 7.262 3.624l7.449 3.212c9.96 4.086 20.187 7.327 30.598 9.697 20.886 4.615 42.344 5.53 63.622 2.713 10.613-1.472 21.134-3.828 31.478-7.05l7.754-2.564c2.59-.96 5.069-1.998 7.61-2.989s5.016-2.188 7.513-3.312l3.735-1.722c1.236-.569 2.441-1.256 3.667-1.884 2.432-1.343 4.918-2.496 7.304-3.914l7.155-4.238c4.668-3.043 9.372-6.055 13.834-9.54 36.479-26.858 64.896-65.876 81.254-111.562l1.495-4.2775.76-2.1382.66-2.1569 2.639-8.6566c1.514-5.8539 3.154-11.688 4.268-17.6458.639-2.9682 1.277-5.9364 1.74-8.941s1.026-5.9761 1.438-8.9829l1.085-9.0412c.207-1.5106.325-3.025.43-4.5399l.34-4.5438c.522-6.0554.715-12.1393 1.072-18.2017l10.543-200.3155z"/><path d="m462.963-195.244-7.259 141.7917-1.865 35.4459-.934 17.730124c-.31 5.905236-.52 11.814776-1.009 17.726876l-.335 4.4426c-.076 1.4439-.156 2.9599-.411 4.425l-1.036 8.8408c-.406 2.8768-.943 5.8493-1.402 8.7818-.459 2.9324-1.051 5.7434-1.728 8.71-1.107 5.8278-2.673 11.4625-4.143 17.1881l-2.566 8.4716-.644 2.1142-.732 2.0815-1.489 4.1619c-15.929 44.6749-43.644 82.8589-79.25 109.1879-4.366 3.359-8.965 6.303-13.516 9.292l-6.999 4.159c-2.331 1.348-4.756 2.546-7.135 3.849-1.201.614-2.382 1.345-3.589 1.844l-3.657 1.696c-2.433 1.112-4.845 2.311-7.345 3.246-2.499.936-4.943 2.004-7.442 2.939l-7.538 2.573c-10.133 3.174-20.44 5.496-30.839 6.947-20.823 2.836-41.834 1.94-62.266-2.655-10.199-2.336-20.216-5.525-29.971-9.541l-7.247-3.203c-2.378-1.143-4.738-2.372-7.101-3.558-2.362-1.186-4.652-2.557-6.971-3.857l-3.462-2c-1.146-.671-2.248-1.442-3.378-2.156-2.217-1.541-4.524-2.841-6.688-4.423l-6.531-4.736c-4.228-3.378-8.536-6.688-12.479-10.401-32.6904-29.235-56.2763-69.608-67.4412-115.4428l-1.0449-4.27-.5099-2.1344-.4195-2.1596-1.6651-8.6521c-.8616-5.8249-1.8244-11.6543-2.3313-17.4641-.3041-2.9071-.6209-5.8148-.8056-8.8181-.1848-3.0033-.375-5.9055-.4607-8.8612l-.1162-8.88986c-.038-1.4487-.0089-2.96687.0559-4.44012l.1455-4.450735c.1215-5.927765.6222-11.824885.8443-17.733885l.9331-17.7302 1.8654-35.4458 7.6772-141.7741.3801.016-10.258 194.9162c-.3108 5.9052-.711 11.82106-.831 17.719948l-.1313 4.422412c-.0759 1.44384-.1557 2.95984-.0424 4.4262l.1177 8.86104c.1014 2.8984.3249 5.889.4881 8.819.1633 2.93.4397 5.8793.8064 8.8036.4942 5.8093 1.4699 11.6391 2.3315 17.4641l1.6681 8.5943.4196 2.1596.5105 2.12 1.0465 4.2411c5.5742 22.6491 14.2151 44.1005 25.6155 63.5905 11.4861 19.451 25.5657 36.712 41.7457 51.183 3.97 3.7 8.216 6.993 12.433 10.327l6.495 4.705c2.166 1.539 4.456 2.91 6.663 4.394 1.132.699 2.217 1.541 3.367 2.126l3.438 1.984c2.307 1.285 4.569 2.698 6.948 3.813 2.379 1.114 4.686 2.399 7.065 3.528l7.195 3.201c9.694 3.969 19.645 7.121 29.774 9.431 20.32 4.494 41.198 5.384 61.899 2.64 10.326-1.438 20.564-3.73 30.631-6.856l7.499-2.574c2.487-.922 4.94-1.946 7.404-2.911 2.463-.966 4.885-2.122 7.317-3.205l3.631-1.683c1.21-.556 2.388-1.229 3.575-1.83 2.369-1.346 4.775-2.43 7.095-3.807l6.972-4.13c4.537-2.962 9.109-5.878 13.462-9.223 35.603-26.065 63.375-64.009 79.403-108.4865l1.488-4.1331.731-2.0671.644-2.1141 2.576-8.4134c1.47-5.7256 3.036-11.3747 4.155-17.1876.608-2.8682 1.241-5.7353 1.727-8.6955s1.005-5.8178 1.412-8.7379l1.048-8.8113c.203-1.4385.317-2.8807.423-4.4101l.334-4.4138c.5-5.8826.697-11.80716 1.046-17.710776l10.258-194.915824z"/><path d="m457.426-195.48-7.065 137.8638-1.814 34.464-.907 17.23921c-.304 5.775289-.502 11.48271-.983 17.23599l-.317 4.3277c-.076 1.4438-.215 2.8849-.405 4.3239l-1.026 8.6386c-.393 2.8774-.912 5.7494-1.351 8.538-.439 2.7885-1.022 5.6723-1.627 8.4827-1.072 5.6557-2.596 11.2053-4.032 16.7732l-2.49 8.2289-.629 2.057-.715 2.0243-1.419 4.0346c-15.493 43.4421-42.446 80.5711-77.072 106.1691-4.248 3.278-8.716 6.14-13.173 9.047l-6.803 4.051c-2.268 1.35-4.626 2.48-6.939 3.741-1.162.602-2.313 1.248-3.498 1.805l-3.54 1.643c-2.38 1.071-4.715 2.259-7.15 3.154-2.434.894-4.813 1.951-7.235 2.86l-7.343 2.48c-9.837 3.083-19.844 5.346-29.94 6.769-20.247 2.745-40.675 1.874-60.543-2.582-9.906-2.274-19.635-5.378-29.109-9.287l-7.049-3.093c-2.316-1.112-4.602-2.309-6.902-3.463-2.301-1.155-4.53-2.48-6.774-3.748l-3.364-1.937c-1.121-.656-2.186-1.411-3.292-2.109-2.159-1.438-4.388-2.763-6.503-4.3l-6.347-4.612c-4.107-3.272-8.254-6.502-12.165-10.113-15.766-14.176-29.4745-31.071-40.6482-50.094-11.1071-19.058-19.5163-40.0254-24.9289-62.1576l-1.0518-4.1401-.4877-2.0756-.4099-2.1012-1.6273-8.4045c-.8319-5.6646-1.7659-11.319-2.252-17.0411-.2914-2.9066-.6009-5.7126-.7165-8.5827s-.3675-5.8039-.4608-8.6152l-.1015-8.68672c-.0507-1.44923-.0128-2.89467.0505-4.33903l.1394-4.33525c.1139-5.7834.5444-11.5533.8185-17.243l.9072-17.2392 1.8138-34.4641 7.4578-137.8477.4307.019-9.9753 189.5446c-.304 5.7752-.6838 11.5473-.7924 17.22964l-.1394 4.33524c-.0759 1.443822-.1519 2.88764-.0505 4.33904l.1306 8.61558c.0887 2.8979.3088 5.7146.4632 8.5719.1543 2.8573.436 5.7055.7305 8.5543.4868 5.7077 1.4358 11.3194 2.2693 16.955l1.6288 8.3756.4108 2.0868.5009 2.0618 1.0526 4.1256c10.8702 44.3279 33.7496 83.3499 65.4216 111.5799 3.874 3.595 7.997 6.795 12.093 10.037l6.322 4.611c2.103 1.537 4.319 2.847 6.479 4.27 1.093.698 2.159 1.438 3.268 2.079l3.34 1.922c2.245 1.253 4.446 2.62 6.749 3.717 2.304 1.097 4.564 2.322 6.867 3.433l7.012 3.063c9.421 3.86 19.092 6.922 28.937 9.164 19.754 4.374 40.051 5.239 60.176 2.566 10.037-1.394 19.987-3.62 29.77-6.661l7.303-2.452c2.409-.91 4.797-1.894 7.196-2.833 2.398-.94 4.743-2.07 7.11-3.127l3.526-1.629c1.184-.543 2.323-1.189 3.485-1.791 2.287-1.233 4.643-2.349 6.898-3.699l6.765-4.053c4.418-2.88 8.859-5.714 13.093-8.963 34.495-25.409 61.37-62.309 76.847-105.5137l1.481-4.0175.703-2.0104.628-2.0425 2.501-8.1995c1.434-5.539 2.956-11.0453 4.04-16.686.608-2.8682 1.209-5.6065 1.626-8.4539.416-2.8474.97-5.66 1.373-8.4936l1.023-8.5664c.19-1.4389.304-2.8811.405-4.3239l.329-4.3271c.494-5.76721.608-11.550621 1.008-17.22051l9.976-189.55899z"/><path d="m451.877-195.717-6.858 133.9372-1.762 33.4823-.881 16.7483c-.294 5.58761-.498 11.150117-.958 16.74511l-.31 4.19775c-.076 1.44384-.21 2.78384-.397 4.17954l-.986 8.3509c-.387 2.7763-.888 5.5334-1.325 8.2931-.438 2.7597-.989 5.5145-1.564 8.2394-1.052 5.5119-2.541 10.8893-3.918 16.3005l-2.427 8.0001-.612 1.9853-.701 1.967-1.375 3.9353c-15.061 42.2052-41.252 78.2772-74.894 103.1512-4.116 3.181-8.465 5.948-12.765 8.775l-6.556 3.931c-2.204 1.353-4.495 2.413-6.73 3.635-9.052 4.689-18.397 8.572-27.948 11.614-9.56 2.986-19.283 5.178-29.092 6.559-19.67 2.672-39.518 1.826-58.82-2.508-9.625-2.207-19.079-5.222-28.284-9.02-9.188-3.83-18.079-8.487-26.592-13.926-2.109-1.407-4.277-2.686-6.331-4.191l-6.113-4.472c-3.997-3.18-8.022-6.319-11.799-9.822-30.903-27.631-53.1984-65.7943-63.7485-109.1212l-.9685-4.0352-.4779-2.0173-.4011-2.0285-1.5761-8.1708c-.815-5.5046-1.7328-10.9847-2.1885-16.5609-.2864-2.7616-.5973-5.5387-.7041-8.3361-.1067-2.7974-.3542-5.57184-.4483-8.36867l-.1041-8.39743c-.038-1.44868-.0054-2.79304.0557-4.1941l.1325-4.2053c.1175-5.6096.5873-11.1608.8053-16.7516l.8815-16.7483 1.7621-33.4822 7.2384-133.9204.4687.02-9.6949 184.2168c-.2933 5.5731-.6761 11.1569-.7794 16.7382l-.1308 4.17642c-.076 1.44384-.1466 2.78657-.0422 4.1802l.1181 8.36906c.0948 2.78239.3045 5.55522.4508 8.32542.1462 2.7701.419 5.5456.7181 8.3078.4698 5.5478 1.3892 10.999 2.2057 16.4747l1.5783 8.1275.4012 2.0285.4786 2.0029.9693 4.0208c10.5621 43.0461 32.7861 80.9367 63.5481 108.3457 3.765 3.488 7.766 6.597 11.739 9.747l6.115 4.443c2.04 1.534 4.198 2.754 6.296 4.146 8.472 5.391 17.319 10.007 26.458 13.805 9.152 3.748 18.548 6.722 28.113 8.897 19.188 4.252 38.904 5.093 58.453 2.492 9.75-1.351 19.417-3.512 28.921-6.465 9.497-3.003 18.789-6.845 27.789-11.491 2.235-1.207 4.515-2.296 6.703-3.592l6.554-3.903c4.287-2.798 8.609-5.551 12.711-8.705 33.502-24.668 59.606-60.498 74.642-102.4522l1.387-3.9203.699-1.9526.6-1.9859 2.437-7.9562c1.388-5.3817 2.876-10.7303 3.927-16.2133.575-2.7249 1.162-5.4492 1.574-8.21s.937-5.4879 1.323-8.2498l.997-8.3215c.19-1.4389.298-2.7656.397-4.16505l.308-4.16887c.483-5.565057.663-11.15752.995-16.72908l9.692-184.1592z"/><path d="m446.342-195.953-6.662 129.9515-1.71 32.5004-.856 16.2575c-.285 5.4143-.481 10.83244-.944 16.253639l-.29 4.068301c-.071 1.35719-.143 2.71439-.379 4.06456l-.96 8.106c-.37 2.6903-.866 5.3607-1.287 8.0487-.421 2.6881-.968 5.3563-1.526 8.0095-1.018 5.3397-2.46 10.56-3.8 15.7557l-2.364 7.7568-.585 1.943-.631 2.1003-1.344 3.8208c-14.623 40.9563-40.042 75.9623-72.689 100.1053-3.971 3.072-8.214 5.77-12.397 8.515l-6.422 3.821c-2.137 1.27-4.364 2.332-6.534 3.513-8.785 4.558-17.856 8.327-27.13 11.273-9.289 2.905-18.737 5.036-28.269 6.378-19.095 2.591-38.361 1.769-57.098-2.435-9.349-2.135-18.532-5.057-27.473-8.74-8.917-3.728-17.547-8.252-25.812-13.531-2.049-1.36-4.155-2.608-6.135-4.067l-5.981-4.336c-3.876-3.059-7.791-6.12-11.458-9.533-14.867-13.373-27.795-29.307-38.3351-47.246-10.4987-17.9709-18.4524-37.7477-23.5785-58.6271l-.9365-3.918-.4682-1.9591-.3908-1.9846-1.5257-7.9227c-.798-5.3447-1.6861-10.6644-2.1286-16.0084-.2902-2.6895-.5803-5.3789-.6909-8.10406-.1105-2.7252-.3374-5.41195-.4233-8.121611l-.1042-8.151419c-.0426-1.36205-.0092-2.72081.0496-4.07861l.1255-4.0753c.1083-5.4364.5707-10.8431.7797-16.2607l.8556-16.2574 1.7104-32.5005 7.016-129.9365.5193.022-9.3986 178.5866c-.2849 5.4143-.6465 10.8399-.7534 16.2473l-.1249 4.0609c-.0706 1.3428-.0787 2.70268-.0353 4.05029l.1058 8.122563c.0994 2.695767.3008 5.381387.4508 8.079317.1501 2.69793.4022 5.38583.6805 8.06023.4663 5.374 1.3552 10.6792 2.1413 16.009l1.5407 7.8798.3788 1.9697.4682 1.9591.9381 3.8892c10.2498 41.7889 31.8217 78.574 61.6827 105.184 3.631 3.381 7.536 6.399 11.4 9.457l5.956 4.306c1.981 1.445 4.075 2.677 6.136 4.039 8.221 5.227 16.803 9.706 25.667 13.394 8.884 3.638 18.005 6.523 27.289 8.631 18.622 4.132 37.758 4.948 56.73 2.419 9.465-1.309 18.848-3.404 28.074-6.27 9.215-2.92 18.233-6.648 26.971-11.15 2.157-1.181 4.371-2.23 6.533-3.498l6.382-3.78c4.155-2.717 8.348-5.432 12.329-8.446 32.522-23.949 57.86-58.734 72.453-99.4636l1.342-3.792.672-1.9104.597-1.9281 2.348-7.714c1.355-5.224 2.796-10.4298 3.813-15.7551.558-2.6388 1.141-5.2765 1.537-7.9657.395-2.6891.915-5.3295 1.284-8.0053l.971-8.07663c.172-1.33843.295-2.69344.378-4.03566l.302-4.05337c.462-5.39233.57-10.82864.956-16.23864l9.408-178.7595z"/><path d="m440.805-196.189-6.47 126.0814-1.659 31.5187-.83 15.7665c-.276 5.2555-.464 10.5004-.906 15.76333l-.284 3.95281c-.069 1.31387-.138 2.627777-.372 3.934626l-.934 7.861124c-.354 2.61851-.833 5.20291-1.237 7.81931s-.933 5.1841-1.487 7.7507c-.984 5.1819-2.381 10.2594-3.69 15.3407l-2.288 7.5284-.569 1.8859-.656 1.8532-1.299 3.6925c-14.175 39.7395-38.835 73.7028-70.514 97.1158-3.89 2.988-7.913 5.61-12.027 8.27l-6.226 3.7c-2.072 1.243-4.233 2.265-6.338 3.42-8.522 4.411-17.319 8.062-26.312 10.917-9.002 2.816-18.158 4.883-27.395 6.183-18.519 2.51-37.203 1.713-55.375-2.361-9.064-2.081-17.966-4.917-26.636-8.487-8.65-3.609-17.021-7.997-25.034-13.122-1.988-1.314-4.031-2.53-5.964-3.929l-5.797-4.213c-3.763-3.054-7.559-5.951-11.105-9.257-29.088-25.993-50.0731-61.906-59.9988-102.6805l-.918-3.7871-.4587-1.9007-.3685-1.9258-1.4872-7.6895c-.769-5.1698-1.6268-10.3435-2.062-15.58594-.2693-2.60174-.5506-5.21845-.653-7.85647s-.3465-5.23866-.4236-7.87559l-.1046-7.9054c-.0322-1.3182-.001-2.6337.0555-3.9481l.1196-3.9599c.1126-5.277.5531-10.511.7536-15.7698l.8298-15.7665 1.6587-31.5187 6.7998-126.067.5701.024-9.1235 173.3596c-.2758 5.241-.6292 10.5077-.7404 15.7558l-.1179 3.931c-.0691 1.3139-.1383 2.6278-.042 3.9342l.1194 7.86267c.0778 2.62251.2832 5.23598.4251 7.84674.1419 2.61077.3852 5.22586.668 7.81369.4367 5.2136 1.3086 10.3589 2.0658 15.5138l1.4895 7.6461.3818 1.9119.4468 1.8858.9188 3.7726c9.9316 40.5236 30.8479 76.1941 59.8069 101.9921 3.535 3.277 7.291 6.201 11.047 9.154l5.773 4.182c1.92 1.399 3.951 2.599 5.927 3.899 7.969 5.083 16.296 9.425 24.901 12.986 8.613 3.52 17.454 6.315 26.453 8.363 18.058 3.991 36.611 4.782 55.007 2.346 9.174-1.27 18.269-3.3 27.212-6.075 8.941-2.812 17.686-6.427 26.154-10.809 2.103-1.126 4.252-2.148 6.31-3.377l6.186-3.672c4.037-2.636 8.097-5.226 11.972-8.172 15.686-11.574 29.773-25.78 41.768-42.123 11.907-16.3705 21.557-34.6838 28.607-54.2896l1.311-3.6775.643-1.8393.581-1.8709 2.285-7.4851c1.308-5.0669 2.704-10.1154 3.686-15.2685.554-2.5522 1.108-5.1188 1.486-7.7218.378-2.6031.894-5.1714 1.26-7.77495l.932-7.817803c.182-1.294579.277-2.607367.371-3.920167l.296-3.92341c.453-5.23347.553-10.51107.93-15.74777l9.125-173.3882z"/><path d="m435.243-196.426-6.276 122.1534-1.607 30.5368-.804 15.2756c-.268 5.0967-.443 10.1106-.88 15.2725-.223 2.5517-.269 5.11106-.631 7.64247l-.909 7.61623c-.349 2.53193-.811 5.04456-1.198 7.57489-.387 2.53031-.912 5.02581-1.45 7.52081-.949 5.0097-2.3 9.93-3.575 14.868l-2.212 7.2857c-.345 1.2298-.75 2.4281-1.181 3.6252l-1.268 3.578c-13.753 38.4764-37.643 71.3594-68.32 94.0404-3.771 2.892-7.728 5.458-11.659 8.011l-6.029 3.578c-2.006 1.202-4.102 2.198-6.154 3.312-8.251 4.276-16.772 7.813-25.481 10.576-8.722 2.736-17.596 4.737-26.548 5.988-8.963 1.134-17.971 1.552-26.958 1.252-8.977-.473-17.901-1.656-26.706-3.541-8.775-2.013-17.394-4.76-25.787-8.219-8.385-3.492-16.499-7.738-24.269-12.698-1.926-1.283-3.896-2.452-5.766-3.82l-5.638-4.09c-3.657-2.89-7.316-5.753-10.754-8.952-28.166-25.184-48.5008-59.9543-58.1503-99.4332l-.8728-3.6838c-.317-1.2146-.5825-2.4415-.8085-3.6956l-1.4361-7.4557c-.7394-5.0094-1.5801-10.0232-1.9991-15.09131-.2605-2.5289905-.5464-5.05906-.6407-7.60992-.0943-2.55085-.3288-5.09317-.4104-7.64347l-.092-7.6589c-.0689-2.5498.1162-5.1032.162-7.6625.1043-5.1182.5357-10.179.728-15.2789l.8039-15.2756 1.6071-30.5369 6.5803-122.1412.6081.026-8.8394 167.9601c-.2674 5.0822-.6117 10.1757-.7018 15.2655-.0443 2.5305-.2674 5.0823-.1597 7.6192l.107 7.6161c.0824 2.5359.2788 5.07663.4126 7.60022.1338 2.5236.3818 5.0520917.6557 7.56719.4197 5.05366 1.2619 10.03849 2.0029 15.01909l1.4384 7.4124c.2267 1.2397.4922 2.4665.8092 3.6811l.8743 3.6549c9.626 39.2514 29.8853 73.8042 57.9303 98.8012 3.426 3.17 7.085 6.018 10.705 8.893l5.603 4.045c1.858 1.352 3.829 2.507 5.73 3.775 7.725 4.921 15.79 9.136 24.122 12.605 8.342 3.421 16.908 6.136 25.627 8.125 17.491 3.872 35.464 4.638 53.284 2.272 8.889-1.238 17.701-3.212 26.365-5.908 8.659-2.745 17.131-6.254 25.337-10.496 2.026-1.1 4.11-2.082 6.102-3.271l6.002-3.55c3.944-2.552 7.885-5.075 11.592-7.942 30.544-22.498 54.341-55.1724 68.046-93.4289l1.255-3.5642c.443-1.1822.836-2.3809 1.192-3.5957l2.21-7.2569c1.274-4.8946 2.623-9.786 3.584-14.7808.524-2.4811 1.074-4.9611 1.435-7.47806s.86-5.01354 1.209-7.53104l.906-7.57291c.348-2.51751.432-5.07519.654-7.59809.432-5.0753.599-10.1763.892-15.2575l8.839-167.9599z"/><path d="m429.732-196.661-6.082 118.2256-1.555 29.555-.779 14.7848c-.259 4.9234-.442 9.8501-.854 14.7815-.218 2.4651-.26 4.9523-.617 7.3971l-.871 7.3718c-.345 2.45975-.778 4.886868-1.173 7.33001-.395 2.44316-.878 4.86809-1.386 7.27749-.929 4.866-2.245 9.614-3.462 14.3954l-2.149 7.0568c-.342 1.1865-.72 2.3425-1.149 3.4963l-1.224 3.4787c-6.622 18.5084-15.701 35.8017-26.911 51.265-11.259 15.4305-24.491 28.8585-39.235 39.8145-3.636 2.739-7.475 5.252-11.276 7.738l-5.833 3.47c-1.953 1.162-3.921 2.134-5.958 3.205-7.988 4.138-16.235 7.565-24.664 10.25-8.446 2.634-17.035 4.57-25.699 5.792-17.37 2.346-34.895 1.599-51.941-2.215-8.498-1.953-16.845-4.611-24.976-7.953-8.11-3.388-15.96-7.502-23.477-12.303-1.865-1.237-3.773-2.375-5.583-3.696l-5.455-3.952c-3.521-2.813-7.083-5.569-10.412-8.678-27.273-24.3825-46.956-58.0546-56.2846-96.285l-.8533-3.5673c-.2932-1.1846-.5611-2.3681-.7767-3.5784l-1.3856-7.2076c-.7217-4.86394-1.5336-9.702782-1.9348-14.62544-.2651-2.44237-.5294-4.89918-.6283-7.36336-.0989-2.4643-.3125-4.9189-.3979-7.397l-.0924-7.4129c-.0608-2.4626.1206-4.9438.1619-7.4166.1078-4.9443.5189-9.8613.7781-14.7847l.778-14.7848 1.5555-29.555 6.361-118.2139.6588.028-8.5552 162.5597c-.2591 4.9235-.5951 9.8581-.6887 14.7741-.0405 2.4583-.2583 4.909-.1468 7.3738l.0947 7.3695c.0862 2.4637.2752 4.9029.4002 7.3537.1249 2.45088.3773 4.89274.6297 7.33456.4161 4.879878 1.2295 9.68987 1.9385 14.55334l1.4006 7.1647c.2156 1.2103.4835 2.3938.7774 3.564l.855 3.5384c9.3199 37.9792 28.9219 71.4137 56.0539 95.6102 3.319 3.035 6.855 5.82 10.365 8.603l5.407 3.906c1.81 1.307 3.681 2.429 5.558 3.667 7.471 4.754 15.273 8.822 23.332 12.166 8.075 3.309 16.365 5.935 24.803 7.859 16.926 3.751 34.317 4.492 51.561 2.199 8.603-1.196 17.132-3.105 25.517-5.714 8.375-2.643 16.569-6.029 24.505-10.126 1.974-1.073 3.993-2.029 5.919-3.177l5.806-3.428c3.774-2.473 7.584-4.901 11.209-7.683 14.711-10.856 27.921-24.182 39.168-39.5137 11.162-15.3649 20.204-32.5524 26.806-50.9512l1.223-3.4497c.428-1.1394.806-2.2954 1.148-3.4819l2.146-7.0135c1.228-4.7519 2.531-9.4717 3.459-14.32318.52-2.40887 1.04-4.80334 1.397-7.24813.357-2.44476.826-4.84132 1.171-7.28664l.88-7.32795c.32-2.4464.398-4.9031.616-7.3538.423-4.902.518-9.8469.879-14.766l8.552-162.5023z"/><path d="m424.197-196.897-5.876 114.2988-1.504 28.5732-.752 14.2938c-.251 4.7646-.425 9.5181-.828 14.2907-.202 2.379-.252 4.779-.596 7.2099l-.845 7.1269c-.328 2.37364-.756 4.72858-1.134 7.08564-.378 2.35705-.858 4.709759-1.349 7.04752-.895 4.69375-2.164 9.28474-3.347 13.90824l-2.074 6.8286c-.641 2.2879-1.506 4.494-2.297 6.7322-12.858 36.0371-35.224 66.834-63.955 88.0615-3.522 2.744-7.226 5.089-10.908 7.494l-5.648 3.348c-1.876 1.135-3.829 2.065-5.75 3.097-7.727 4.003-15.704 7.316-23.859 9.908-8.161 2.556-16.462 4.427-24.838 5.597-16.794 2.275-33.738 1.552-50.218-2.141-8.214-1.885-16.281-4.454-24.139-7.686-7.846-3.275-15.44-7.251-22.712-11.894-1.791-1.19-3.688-2.299-5.398-3.573l-5.272-3.813c-3.399-2.721-6.84-5.385-10.072-8.388-26.375-23.5815-45.407-56.1491-54.4196-93.1241-.5142-2.2938-1.1692-4.5647-1.5797-6.8975l-1.3471-6.97441c-.692-4.70352-1.4742-9.38193-1.8718-14.13079-.2435-2.3691-.4998-4.7387-.6024-7.1308-.1027-2.392-.2957-4.7589-.373-7.1499l-.0926-7.1669c-.0646-2.3904.1122-4.785.152-7.2288.0995-4.7856.5015-9.5292.7522-14.2939l.7523-14.2938 1.5037-28.5732 6.1417-114.2879.6973.03-8.2722 157.1745c-.25 4.7501-.5016 9.5292-.6629 14.2832-.0359 2.3716-.2499 4.7501-.1465 7.1277l.1076 7.1242c.078 2.3765.2582 4.7429.3877 7.1071s.3478 4.7323.6047 7.0875c.3992 4.71994 1.1829 9.36947 1.8764 14.04412l1.3493 6.93108c.3986 2.3178 1.0298 4.5588 1.5693 6.8536 9.0236 36.7254 27.9916 69.0507 54.2406 92.436 3.205 3.031 6.624 5.622 10.012 8.313l5.235 3.783c1.737 1.261 3.584 2.353 5.363 3.528 7.221 4.608 14.767 8.545 22.565 11.772 7.802 3.2 15.812 5.737 23.967 7.592 16.359 3.631 33.17 4.348 49.838 2.125 8.317-1.152 16.562-2.997 24.669-5.518 8.096-2.558 16.016-5.835 23.688-9.799 1.907-1.019 3.848-1.949 5.709-3.056l5.609-3.321c3.656-2.391 7.347-4.737 10.841-7.424 28.575-21.0411 50.837-51.6059 63.653-87.3941.753-2.2398 1.642-4.4159 2.282-6.6894l2.071-6.7852c1.182-4.5947 2.45-9.15675 3.356-13.82108.491-2.32332.994-4.64611 1.346-7.00425.353-2.35816.793-4.68368 1.133-7.04237l.842-7.0836c.315-2.3598.39-4.7442.603-7.1083.402-4.7437.502-9.5292.84-14.2756l8.272-157.1741z"/><path d="m418.66-197.133-5.681 110.371-1.452 27.5915-.727 13.8029c-.242 4.6058-.407 9.186-.79 13.8002-.197 2.3069-.243 4.6203-.579 6.9068l-.819 6.882c-.312 2.302-.723 4.5709-1.084 6.8418-.361 2.271-.823 4.55208-1.31 6.80322-.861 4.536003-2.086 8.98416-3.247 13.43501l-1.998 6.60027c-.624 2.2163-1.494 4.2774-2.221 6.5038-6.181 17.2846-14.66 33.4327-25.133 47.868-10.511 14.4089-22.865 26.9466-36.632 37.1755-3.401 2.619-6.987 4.897-10.539 7.235l-5.452 3.24c-1.809 1.081-3.698 1.984-5.554 2.99-7.464 3.855-15.167 7.048-23.04 9.553-7.883 2.468-15.901 4.278-23.99 5.416-16.218 2.193-32.581 1.495-48.496-2.068-7.934-1.813-15.727-4.293-23.315-7.419-7.577-3.162-14.91-7.002-21.933-11.484-1.73-1.145-3.515-2.205-5.214-3.45l-5.089-3.675c-3.29-2.629-6.607-5.216-9.731-8.0991-12.613-11.3637-23.578-24.9004-32.513-40.1387-8.905-15.2653-15.65-32.0616-19.993-49.79226-.505-2.22108-1.14-4.38981-1.529-6.66378l-1.2954-6.74068c-.6758-4.52919-1.4277-9.06158-1.821-13.65108-.2354-2.2819-.4962-4.5649-.5773-6.8837s-.304-4.6002-.3732-6.904l-.0928-6.9209c-.0566-2.3032.1158-4.6112.1487-6.9251.1038-4.6261.484-9.1971.7264-13.8029l.7264-13.803 1.4521-27.5918 5.9221-110.361.748.032-7.9872 151.7605c-.2417 4.5914-.56 9.194-.6496 13.7918-.0314 2.285-.2417 4.5913-.1337 6.8823l.0951 6.8776c.0826 2.2899.2548 4.5691.3754 6.8606.1207 2.2915.3442 4.5585.5796 6.8404.3949 4.5606 1.149 9.04972 1.8254 13.56447l1.312 6.68346c.389 2.24509 1.039 4.38547 1.518 6.61992 8.695 35.44645 26.99 66.65035 52.314 89.22825 3.087 2.8667 6.393 5.4237 9.659 8.0237l5.052 3.645c1.688 1.229 3.461 2.274 5.191 3.419 6.973 4.436 14.254 8.235 21.774 11.362 7.533 3.09 15.268 5.538 23.143 7.325 15.804 3.494 32.04 4.186 48.141 2.053 8.026-1.109 15.984-2.888 23.807-5.323 7.82-2.473 15.471-5.635 22.883-9.458 1.83-.993 3.705-1.882 5.514-2.963l5.412-3.199c3.525-2.309 7.085-4.574 10.535-7.162 13.681-10.1377 25.965-22.5656 36.425-36.8517 10.413-14.3326 18.85-30.3644 25.013-47.5258.735-2.1537 1.596-4.2731 2.219-6.4605l1.995-6.54247c1.135-4.43751 2.37-8.841801 3.242-13.3484.474-2.25168.972-4.48782 1.295-6.76043.323-2.2726.784-4.5248 1.094-6.7979l.817-6.8388c.31-2.2731.381-4.5853.59-6.8628.394-4.5849.484-9.1972.814-13.7848l7.987-151.7604z"/><path d="m413.124-197.369-5.488 106.4431-1.4 26.6097-.701 13.312c-.233 4.4326-.39 8.8539-.701 13.3121-.193 2.2202-.234 4.4614-.553 6.6618l-.794 6.6515c-.307 2.201-.702 4.3981-1.059 6.5969s-.789 4.3799-1.246 6.5599c-.84 4.37778-2.015 8.59653-3.117 12.89072l-1.935 6.37137c-.607 2.13021-1.489 4.17641-2.146 6.27561-11.983 33.5636-32.822 62.2443-59.586 82.011-3.282 2.5226-6.725 4.7343-10.157 6.9763l-5.244 3.133c-1.756 1.04-3.579 1.917-5.357 2.883-7.2 3.706-14.629 6.776-22.221 9.182-7.601 2.367-15.331 4.107-23.129 5.207-7.812.983-15.663 1.344-23.495 1.082-7.824-.412-15.602-1.44-23.277-3.077-7.649-1.756-15.161-4.151-22.478-7.166-7.305-3.04-14.379-6.729-21.157-11.032-1.668-1.113-3.391-2.141-5.03-3.325l-4.892-3.566c-3.168-2.5227-6.376-5.0182-9.378-7.8089-24.569-21.9556-42.302-52.2811-50.707-86.71405-.483-2.147818-1.046-4.25555-1.477-6.43006l-1.245-6.50699c-.659-4.3693-1.381-8.7413-1.748-13.0981-.239-2.2098-.482-4.3617-.565-6.6372-.084-2.2754-.287-4.4403-.361-6.6574l-.079-6.6888c-.062-2.2166.107-4.4524.148-6.6791.083-4.4679.467-8.8796.624-13.3153l.701-13.3121 1.4-26.61 5.716-106.433.773.033-7.704 146.3743c-.233 4.4326-.53 8.8768-.611 13.3014-.04 2.2123-.232 4.4181-.146 6.6358l.096 6.6316c.074 2.2028.253 4.352.363 6.6141.109 2.2621.342 4.3558.567 6.5938.367 4.3569 1.102 8.7294 1.748 13.0982l1.248 6.4492c.381 2.17237 1.045 4.269977 1.467 6.38622 8.381 34.18978 26.019 64.29168 50.435 86.08028 2.991 2.7612 6.175 5.2268 9.332 7.7345l4.893 3.5225c1.614 1.1831 3.339 2.1831 4.995 3.2951 6.724 4.302 13.748 7.989 21.004 11.025 7.268 2.97 14.727 5.333 22.318 7.073 15.232 3.351 30.877 4.018 46.392 1.978 7.74-1.086 15.413-2.804 22.961-5.142 7.544-2.403 14.923-5.475 22.068-9.188 1.778-.966 3.587-1.815 5.318-2.856l5.242-3.09c3.406-2.228 6.822-4.412 10.089-6.9063 26.604-19.6024 47.326-48.0723 59.25-81.4031.706-2.0682 1.486-4.10421 2.131-6.23282l1.919-6.31419c1.102-4.29419 2.29-8.5124 3.117-12.89069.469-2.165.937-4.3012 1.257-6.516.32-2.2149.747-4.3093 1.055-6.5536l.792-6.5938c.294-2.2015.359-4.4127.564-6.618.372-4.4121.467-8.865.776-13.2943l7.703-146.3602z"/><path d="m407.588-197.605-5.293 102.5153-1.349 25.6278-.675 12.8211c-.228 4.3315-.449 8.533-.738 12.8184-.189 2.1481-.228 4.3315-.541 6.4164l-.756 6.4072c-.302 2.1143-.679 4.2254-1.02 6.3525-.34 2.1271-.768 4.2216-1.208 6.3156-.806 4.2199-1.938 8.33924-3.007 12.49013s-2.437 8.18778-3.915 12.16202c-11.545 32.31545-31.607 59.93315-57.37 78.97975-6.371 4.7759-13.063 8.9577-20.009 12.5032-6.93 3.5956-14.088 6.5656-21.405 8.8836-7.327 2.285-14.778 3.965-22.294 5.026-7.525.938-15.086 1.282-22.629 1.032-7.537-.391-15.028-1.382-22.42-2.967-7.369-1.683-14.606-3.984-21.654-6.886-7.039-2.9364-13.852-6.5025-20.376-10.6652-6.545-4.124-12.772-8.8565-18.619-14.1503-11.752-10.5337-21.976-23.092-30.316-37.2378-8.276-14.1859-14.543-29.7954-18.578-46.27332-1.055-4.08229-1.825-8.26818-2.634-12.44128s-1.322-8.4204-1.681-12.6901c-.219-2.122-.45-4.2446-.54-6.3901s-.27-4.2803-.336-6.4103l-.092-6.4434c-.052-2.1439.101-4.3369.148-6.4331.089-4.3374.45-8.5474.599-12.8243l.675-12.8356 1.349-25.6282 5.509-102.506.823.035-7.418 140.9603c-.224 4.2593-.45 8.5474-.598 12.8099-.036 2.1257-.224 4.2593-.133 6.3904l.095 6.3856c.066 2.1299.234 4.2498.338 6.367.105 2.1172.323 4.2392.542 6.3468.361 4.2408 1.069 8.4095 1.687 12.589.618 4.1794 1.569 8.30068 2.625 12.35408 8.112 32.94092 25.154 61.92322 48.726 82.86722 5.801 5.2409 11.979 9.923 18.474 13.9994 6.477 4.1247 13.241 7.6549 20.229 10.5583 6.995 2.861 14.174 5.136 21.481 6.805 14.666 3.23 29.73 3.873 44.67 1.905 7.454-1.042 14.844-2.695 22.112-4.947 7.257-2.295 14.358-5.234 21.235-8.7895 6.895-3.5022 13.537-7.6377 19.861-12.3647 25.613-18.8603 45.565-46.2605 57.045-78.34256 1.477-3.94537 2.669-8.01866 3.911-12.07535s2.196-8.19799 3.001-12.38909c.439-2.0795.892-4.1585 1.206-6.2722.314-2.1138.716-4.1949 1.018-6.3093l.753-6.3494c.289-2.1148.351-4.2538.538-6.373.364-4.2534.45-8.5474.763-12.8029l7.419-140.96z"/><path d="m402.039-197.842-5.087 98.5881c-.865 16.4451-1.627 32.8512-2.594 49.3065-.185 2.0614-.218 4.1293-.529 6.1709l-.73 6.1623c-.646 4.0676-1.217 8.1674-2.139 12.1798-.923 4.0125-1.87 8.0238-2.893 12.0175-1.023 3.99372-2.332 7.87393-3.765 11.70542-5.538 15.44688-13.129 29.87548-22.503 42.77068-9.392 12.8783-20.435 24.0814-32.741 33.2175-6.13 4.5875-12.566 8.6058-19.247 12.0148-6.665 3.4574-13.549 6.3139-20.587 8.5425-7.048 2.2122-14.216 3.841-21.448 4.8736-14.489 1.9484-29.106 1.3254-43.326-1.8475-7.088-1.6416-14.049-3.873-20.828-6.6764-6.772-2.8174-13.325-6.2469-19.598-10.256-6.298-3.9591-12.288-8.5074-17.911-13.5992-22.756-20.352-39.183-48.4479-46.979-80.3472-1.062-3.9379-1.752-7.9612-2.531-11.9739-.779-4.0126-1.275-8.1-1.618-12.2098-.342-4.1098-.634-8.203-.85-12.3074l-.08-6.1968c-.057-2.0573.09-4.1203.135-6.1877.727-16.4655 1.729-32.8613 2.595-49.3067l5.29-98.58.874.038-5.189 98.584c-.864 16.4305-1.806 32.8724-2.518 49.2951-.031 2.0391-.215 4.086-.12 6.1449l.083 6.1391c.23 4.0761.37 8.1772.855 12.2207.486 4.0436 1.022 8.0893 1.623 12.1088s1.497 7.9793 2.511 11.8861c7.77 31.6345 24.099 59.4833 46.698 79.6407 5.58 5.0386 11.521 9.5411 17.766 13.4627 6.225 3.9615 12.725 7.3545 19.439 10.148 6.726 2.7493 13.63 4.9347 20.656 6.5389 14.1 3.1095 28.584 3.727 42.947 1.8313 7.164-.9991 14.266-2.5872 21.251-4.7518 6.978-2.2071 13.805-5.0319 20.417-8.4485 6.63-3.3693 13.018-7.3462 19.1-11.8907 24.624-18.1325 43.808-44.4708 54.854-75.31033 1.47-3.80098 2.564-7.71921 3.747-11.61927 1.183-3.9 2.117-7.8975 2.888-11.9164.77-4.019 1.49-8.0545 2.135-12.0932l.74-6.104c.272-2.0432.33-4.0956.513-6.1282 1.016-16.4098 1.729-32.8614 2.67-49.2888l5.188-98.5841z"/><path d="m396.502-198.078-4.892 94.66c-.831 15.7814-1.559 31.5522-2.492 47.3433-.18 1.9748-.209 3.9706-.502 5.9261l-.705 5.9173c-.625 3.9094-1.175 7.8509-2.051 11.7061-.876 3.8553-1.803 7.7084-2.774 11.4582-.972 3.7499-2.252 7.5589-3.627 11.24821-10.674 29.86419-29.217 55.38579-53.029 72.98599-5.887 4.4116-12.069 8.2762-18.486 11.5552-6.408 3.31-13.022 6.0518-19.782 8.2006-6.756 2.1062-13.627 3.651-20.558 4.6222-13.914 1.8753-27.95 1.2768-41.604-1.7741-6.8-1.5547-13.478-3.6822-19.981-6.3653-6.502-2.7006-12.795-5.9882-18.82-9.8322-6.047-3.8039-11.796-8.1776-17.189-13.0765-21.868-19.5368-37.65-46.52602-45.127-77.1715-.994-3.7903-1.692-7.6547-2.429-11.5064s-1.229-7.7797-1.559-11.643c-.33-3.8632-.613-7.8837-.825-11.8287l-.08-5.9509c-.049-1.97.094-3.9609.135-5.9417.692-15.8013 1.661-31.5619 2.491-47.3429l5.071-94.653.912.039-4.982 94.657c-.83 15.7663-1.737 31.5584-2.427 47.3309-.028 1.9668-.207 3.9272-.12 5.8989l.083 5.8931c.213 3.9161.349 7.8435.831 11.7277.481 3.8841.975 7.7544 1.545 11.6424.57 3.8879 1.438 7.6584 2.422 11.4048 7.447 30.36777 23.123 57.0992 44.823 76.4351 5.365 4.851 11.082 9.1797 17.095 12.9421 5.979 3.796 12.217 7.0519 18.66 9.7386 6.403 2.6293 12.977 4.7184 19.669 6.2507 13.533 2.9889 27.437 3.5817 41.224 1.7579 6.88-.9457 13.7-2.4736 20.403-4.571 6.698-2.1125 13.251-4.8184 19.599-8.0926 6.38-3.2339 12.527-7.0568 18.377-11.4296 23.633-17.4027 42.046-42.6806 52.649-72.2786 1.373-3.6459 2.473-7.4048 3.609-11.1477 1.137-3.7428 2.024-7.5831 2.774-11.4582s1.422-7.7246 2.046-11.605l.702-5.8596c.255-1.9571.32-3.9224.5-5.8827.969-15.7606 1.661-31.562 2.567-47.3252l4.98-94.643z"/><path d="m390.966-198.314-4.699 90.733c-.797 15.1309-1.503 30.2371-2.388 45.379-.101 1.9058-.2 3.7972-.482 5.7677l-.666 5.6585c-.604 3.7511-1.132 7.5199-1.974 11.2174s-1.659 7.3961-2.665 11.0577c-1.005 3.6616-2.159 7.259-3.474 10.7772-10.234 28.6293-28.017 53.0919-50.851 69.9531-5.645 4.2242-11.573 7.9253-17.724 11.0668-6.138 3.18-12.475 5.8128-18.952 7.8742-6.485 2.0262-13.082 3.5103-19.736 4.4402-6.662.832-13.356 1.1365-20.033.9112-6.671-.3511-13.303-1.2238-19.848-2.6118-6.525-1.5005-12.936-3.5391-19.182-6.0998-6.232-2.6033-12.264-5.7635-18.04-9.4516-5.794-3.6508-11.306-7.8398-16.482-12.5253-20.962-18.7289-36.096-44.59507-43.277-73.967-.94-3.6143-1.609-7.3039-2.327-11.0245-.719-3.7207-1.17-7.4444-1.491-11.2349-.321-3.7906-.581-7.5495-.788-11.3352l-.068-5.7043c-.052-1.8979.085-3.7877.122-5.6962.671-15.1511 1.592-30.2484 2.388-45.3794l4.851-90.726.963.041-4.771 90.657c-.796 15.117-1.596 30.3205-2.311 45.3539-.036 1.8941-.199 3.7828-.119 5.6529l.082 5.6615c.197 3.7418.329 7.5098.781 11.2336.451 3.7237.942 7.4346 1.496 11.1338s1.381 7.2942 2.319 10.9373c7.139 29.097313 22.158 54.7115 42.947 73.2439 5.127 4.6452 10.591 8.7936 16.336 12.4033 5.725 3.6427 11.704 6.7573 17.882 9.3147 6.183 2.5407 12.532 4.5527 18.996 6.0194 12.967 2.8683 26.29 3.4364 39.501 1.6844 6.593-.9099 13.129-2.3724 19.555-4.3755 6.417-2.0255 12.697-4.6172 18.78-7.7513 6.096-3.1114 11.97-6.776 17.566-10.9578 22.642-16.6803 40.284-40.9018 50.446-69.2613 1.302-3.5043 2.356-7.1349 3.458-10.6911 1.101-3.5562 1.931-7.2542 2.646-10.9571.716-3.703 1.368-7.4086 1.969-11.1164l.665-5.6296c.25-1.8561.311-3.7491.487-5.6372.921-15.0826 1.591-30.2337 2.45-45.3474l4.775-90.73z"/><path d="m385.43-198.55-4.505 86.805c-.76 14.4384-1.431 28.8805-2.285 43.416-.096 1.8192-.192 3.6384-.452 5.4506l-.64 5.4136c-.583 3.5928-1.09 7.1889-1.899 10.7431s-1.642 7.064-2.55 10.5706-2.067 6.9446-3.324 10.3205c-9.79 27.39261-26.807 50.7962-48.66 66.921-5.399 4.0492-11.072 7.5921-16.962 10.5927-5.885 3.0391-11.961 5.5525-18.171 7.5168-6.207 1.9373-12.52 3.356-18.888 4.2449-12.762 1.7132-25.634 1.1643-38.158-1.6272-6.245-1.4335-12.381-3.383-18.358-5.833-5.976-2.484-11.761-5.5031-17.301-9.0294-5.548-3.4884-10.824-7.4982-15.774-11.9886-20.061-17.9121-34.544-42.65897-41.414-70.762-.896-3.4678-1.548-7.0119-2.225-10.5571s-1.123-7.124-1.428-10.7402-.557-7.2591-.698-10.8539l-.082-5.4444c-.044-1.8251.09-3.6427.122-5.4647.634-14.4436 1.52-28.8763 2.285-43.4153l4.632-86.8 1.001.042-4.569 86.803c-.759 14.438-1.599 28.9454-2.283 43.3868-.095 1.8048-.19 3.6096-.107 5.4075l.071 5.415c.192 3.5825.317 7.2488.704 10.7383.388 3.4895.896 7.1143 1.42 10.6531.525 3.5387 1.32 7.0166 2.218 10.4555 6.833 27.82513 21.194 52.3211 41.071 70.0527 4.907 4.4372 10.134 8.4012 15.628 11.8522 5.477 3.4856 11.195 6.4681 17.104 8.9197 5.915 2.4281 11.988 4.3556 18.17 5.7672 12.404 2.7285 25.144 3.2718 37.778 1.6109 6.303-.8791 12.552-2.2812 18.695-4.1951 6.14-1.9355 12.147-4.4181 17.964-7.4244 5.832-2.9681 11.452-6.4695 16.803-10.4693 21.658-15.95 38.53-39.117703 48.244-66.2441 1.255-3.3471 2.262-6.7916 3.305-10.2201 1.044-3.4284 1.864-6.9388 2.533-10.4845s1.312-7.078 1.829-10.6302l.652-5.3842c.233-1.7844.29-3.5909.448-5.393.9-14.4322 1.52-28.8764 2.36-43.384l4.568-86.802z"/><path d="m379.894-198.786-4.361 82.875c-.728 13.818-1.365 27.6243-2.182 41.4524-.154 1.7298-.183 3.4796-.439 5.2051l-.615 5.1688c-.549 3.4351-1.022 6.8733-1.809 10.2548-.788 3.3815-1.625 6.7464-2.437 10.1124-.812 3.3659-1.973 6.6158-3.185 9.8489-9.348 26.15889-25.6 48.5076-46.469 63.9032-5.158 3.8609-10.577 7.2403-16.2 10.1043-5.609 2.9-11.398 5.2997-17.316 7.177-5.911 1.8543-11.924 3.2133-17.99 4.0661-6.086.7533-12.201 1.0292-18.302.8258-6.095-.3148-12.154-1.1147-18.132-2.3939-5.951-1.3534-11.795-3.2133-17.483-5.5642-5.694-2.3725-11.206-5.2541-16.485-8.6184-5.298-3.3297-10.337-7.155-15.066-11.4375-19.173-17.10336-33.025-40.733-39.614-67.5739-.854-3.3213-1.475-6.705-2.123-10.0753-.648-3.3704-1.076-6.8182-1.364-10.2744-.288-3.4563-.539-6.8965-.724-10.3629l-.07-5.1979c-.048-1.7386.082-3.484.11-5.2193.614-13.8367 1.454-27.6351 2.181-41.4521l4.362-82.875 1.051.044-4.361 82.876c-.727 13.803-1.455 27.649-2.117 41.4258-.09 1.7181-.181 3.4507-.106 5.1615l.071 5.1546c.188 3.4375.312 6.8723.729 10.2762.418 3.404.913 6.7823 1.369 10.1878.455 3.4056 1.26 6.6958 2.116 9.9737 6.515 26.5593 20.221 49.9408 39.194 66.8614 4.698 4.2295 9.701 8.0049 14.96 11.2883 5.224 3.3222 10.678 6.1675 16.312 8.5098 5.647 2.3174 11.444 4.1558 17.347 5.5005 11.837 2.6078 23.997 3.1263 36.055 1.5374 6.017-.8345 11.982-2.1714 17.846-3.9998 5.859-1.8521 11.592-4.2204 17.146-7.083 5.566-2.83 10.927-6.1733 16.029-9.9958 20.673-15.2237 36.779-37.33562 46.054-63.2264 1.196-3.1904 2.156-6.4776 3.154-9.7489.997-3.2712 1.77-6.6244 2.419-10.0262.649-3.4019 1.245-6.7626 1.805-10.1683l.613-5.1254c.229-1.6978.282-3.432.435-5.1474.852-13.7687 1.454-27.6208 2.244-41.4208l4.361-82.875z"/><path d="m374.358-199.023-4.155 78.948c-.693 13.168-1.308 26.3101-2.078 39.489-.44 6.6162-1.351 13.1929-2.723 19.6652-.616 3.2441-1.507 6.433-2.323 9.6252-.815 3.1922-1.881 6.3158-3.033 9.3779-4.436 12.3817-10.514 23.95-18.019 34.29397-7.54 10.31081-16.397 19.28313-26.261 26.60593-4.919 3.6729-10.082 6.8934-15.438 9.6302-5.347 2.7526-10.863 5.0379-16.498 6.8357-5.65 1.7558-11.396 3.0439-17.192 3.8541-11.608 1.5503-23.318 1.051-34.712-1.4802-5.681-1.298-11.261-3.0691-16.697-5.2992-5.425-2.2694-10.68-5.014-15.718-8.2094-5.042-3.1803-9.839-6.8256-14.346-10.9003-18.257-16.30231-31.44-38.8216-37.699-64.3956-.824-3.1464-1.403-6.3835-2.034-9.594-.631-3.2104-1.017-6.4972-1.301-9.7797-.687-6.5601-.903-13.1848-.646-19.8089.579-13.1869 1.385-26.3209 2.078-39.4889l4.155-78.948 1.089.047-4.155 78.948c-.692 13.153-1.386 26.335-2.076 39.4595-.254 6.5571-.034 13.1147.657 19.6067.273 3.2531.815 6.4598 1.293 9.6782s1.201 6.3748 2.04 9.4929c6.195 25.2834 19.231 47.54683 37.28 63.6686 4.457 4.0243 9.207 7.6149 14.202 10.735 4.978 3.1654 10.176 5.874 15.546 8.1008 5.374 2.2084 10.892 3.9576 16.51 5.2334 11.272 2.4872 22.85 2.981 34.332 1.464 5.732-.7937 11.413-2.0653 16.999-3.8045 5.576-1.7601 11.031-4.0144 16.315-6.7422 5.3-2.6812 10.405-5.8515 15.265-9.4785 19.671-14.50207 34.989-35.5604 43.8-60.2112 1.137-3.0338 2.051-6.1639 3.028-9.2768.976-3.113 1.69-6.3095 2.304-9.5248 1.369-6.4042 2.276-12.9137 2.713-19.463.804-13.1195 1.384-26.3061 2.076-39.4601l4.155-78.948z"/><path d="m368.822-199.258-3.951 75.079c-.659 12.518-1.24 24.9957-1.976 37.5393-.416 6.2926-1.284 12.5474-2.597 18.7011-.582 3.1008-1.426 6.1181-2.208 9.1525-.782 3.0345-1.789 6.0014-2.882 8.9213-4.22 11.7539-9.997 22.7345-17.128 32.5521-7.17 9.79732-15.591 18.32005-24.972 25.27167-4.664 3.50623-9.57 6.56913-14.664 9.15683-5.08 2.6325-10.328 4.804-15.693 6.4938-5.361 1.6723-10.815 2.8908-16.317 3.6454-11.016 1.4714-22.127.9976-32.938-1.4046-5.403-1.2179-10.709-2.8952-15.874-5.0181-5.16-2.1476-10.156-4.7556-14.94-7.8-4.797-3.016-9.358-6.48224-13.638-10.36366-17.358-15.48344-29.891-36.88404-35.836-61.19054-.785-2.9276-1.344-6.0626-1.932-9.1265s-.945-6.1614-1.237-9.2995c-.654-6.2385-.862-12.5386-.621-18.8382.558-12.5369 1.316-25.0069 1.975-37.5399l3.952-75.078 1.14.048-3.952 75.079c-.658 12.504-1.316 25.022-1.975 37.5395-.247 6.1879-.046 12.377.6 18.5045.257 3.0932.769 6.1394 1.231 9.1835.462 3.044 1.128 6.0679 1.912 9.0244 5.89 24.0264 18.29 45.1774 35.455 60.47959 4.215 3.82545 8.707 7.24505 13.428 10.22451 4.732 3.0046 9.669 5.5809 14.768 7.7059 5.105 2.1053 10.347 3.7798 15.684 5.0099 10.705 2.3666 21.703 2.8356 32.609 1.3906 5.442-.7706 10.836-1.9915 16.14-3.653 5.321-1.6745 10.528-3.8184 15.574-6.412 5.012-2.5683 9.842-5.5902 14.442-9.03609 18.695-13.77305 33.26-33.77421 41.647-57.19191 1.077-2.8482 1.946-5.8499 2.851-8.8212.906-2.9713 1.585-5.9812 2.19-9.0376 1.291-6.0842 2.151-12.2659 2.573-18.4851.77-12.4697 1.315-24.9925 1.975-37.5395l3.952-75.079z"/><path d="m363.285-199.495-3.741 71.094c-.624 11.854-1.247 23.693-1.872 35.5616-.396 5.963-1.217 11.8903-2.456 17.723-.558 2.8704-1.356 5.7305-2.107 8.6649-.751 2.9345-1.685 5.7164-2.731 8.4646-8.031 22.4565-21.989 41.6393-39.911 54.84935-4.427 3.312579-9.076 6.21177-13.902 8.66838-4.816 2.49474-9.79 4.55207-14.875 6.15247-5.067 1.5857-10.221 2.7491-15.42 3.481-10.461 1.3868-21.01.9369-31.279-1.3338-5.099-1.1717-10.107-2.7684-14.985-4.77754-4.893-2.02845-9.629-4.49975-14.162-7.39061-4.546-2.85628-8.871-6.13815-12.93-9.81255-8.157-7.3186-15.252-16.0446-21.035-25.8733-5.76-9.8462-10.124-20.6836-12.937-32.1265-.738-2.8533-1.271-5.7557-1.829-8.6591-.559-2.9035-.963-5.8293-1.175-8.8048-.625-5.9119-.825-11.8827-.597-17.8531.523-11.873 1.248-23.708 1.872-35.562l3.741-71.093 1.191.05-3.741 71.094c-.623 11.84-1.249 23.722-1.87 35.533-.227 5.8973-.032 11.7953.582 17.6353.254 2.9049.735 5.8196 1.166 8.7321s1.082 5.7331 1.811 8.5425c2.759 11.2896 7.044 21.9864 12.704 31.7115 5.723 9.6829 12.734 18.2779 20.79 25.48654 4.015 3.62577 8.29 6.86661 12.783 9.690513 4.477 2.847277 9.15 5.286667 13.977 7.295877 4.838 1.98007 9.806 3.55087 14.862 4.69997 10.139 2.246 20.557 2.6903 30.886 1.3171 5.154-.7137 10.264-1.8548 15.289-3.4143 5.017-1.58689 9.926-3.61779 14.68-6.07393 4.771-2.42559 9.368-5.28826 13.745-8.55931 8.777-6.49496 16.663-14.45406 23.385-23.60286 6.686-9.204 12.106-19.4965 16.068-30.5135 1.02-2.7349 1.854-5.55 2.7-8.3502s1.571-5.7212 2.077-8.5938c1.232-5.7602 2.045-11.6159 2.433-17.507.735-11.8055 1.247-23.6935 1.87-35.5325l3.74-71.065z"/><path d="m357.749-199.731-3.535 67.167c-.59 11.204-1.115 22.382-1.769 33.5977-.377 5.6339-1.156 11.2339-2.328 16.7445-.527 2.7704-1.279 5.4733-1.981 8.2072-.703 2.734-1.553 5.3748-2.592 7.993-3.783 10.5364-8.961 20.3806-15.35 29.1839-6.434 8.8051-13.992 16.4666-22.413 22.7182-16.918 12.52024-36.732 18.79396-56.671 17.94371-19.94-.85024-39.006-8.78193-54.534-22.68571-7.708-6.9173-14.412-15.1627-19.879-24.4492-5.452-9.3353-9.576-19.6117-12.224-30.461-.709-2.6928-1.199-5.4487-1.741-8.1778s-.864-5.5356-1.11-8.339c-.582-5.5864-.769-11.2265-.56-16.8675.489-11.223 1.178-22.394 1.768-33.598l3.533-67.138 1.267.054-3.535 67.167c-.588 11.19-1.179 22.408-1.766 33.569-.216 5.568-.029 11.1374.558 16.6504.236 2.7595.689 5.4848 1.091 8.2225.402 2.7376.985 5.4106 1.721 8.0756 5.292 21.4604 16.374 40.3546 31.699 54.0482 15.326 13.69374 34.131 21.50435 53.795 22.34284 19.664.8385 39.205-5.33691 55.9-17.66524 16.695-12.3282 29.711-30.1948 37.234-51.1088.962-2.5926 1.736-5.2511 2.548-7.8936.812-2.6424 1.426-5.3657 1.95-8.0928 1.164-5.4383 1.935-10.9665 2.305-16.5284.688-11.1567 1.177-22.3797 1.766-33.5687l3.535-67.167z"/></g></svg>