<svg fill="none" height="782" viewBox="0 0 120 782" width="120" xmlns="http://www.w3.org/2000/svg"><g fill="#b4fbf7"><path d="m521.9-206.188-14.61 319.807-3.787 79.945-1.894 39.986-1.421 29.99-.576 9.992-.591 10.019c-.158 3.351-.316 6.674-.693 10.015l-1.627 19.961c-.61 6.631-1.372 13.228-2.045 19.829-.375 3.313-.661 6.629-1.099 9.911l-1.276 9.819c-1.563 13.191-3.678 26.077-5.7 38.91l-3.416 19.177-.858 4.801-.956 4.713-1.925 9.424-1.925 9.424-2.123 9.275-2.123 9.247-1.067 4.623-1.154 4.535-4.651 18.11-5.029 17.673c-6.892 23.348-14.526 45.707-22.841 66.897-16.765 42.257-36.225 79.203-57.701 109.547-5.329 7.724-10.885 14.541-16.447 21.47l-8.454 9.647c-1.365 1.671-2.858 3.055-4.291 4.527l-4.323 4.412c-1.443 1.415-2.867 2.971-4.331 4.301l-4.392 3.962c-2.942 2.659-5.833 5.321-8.834 7.614-3.002 2.292-5.945 4.699-8.929 6.909l-9.044 6.064c-12.133 7.534-24.432 13.172-36.801 16.868-24.749 7.205-49.553 6.03-73.51-3.483-11.967-4.823-23.68-11.599-35.042-20.27l-8.431-6.865c-2.775-2.482-5.49-5.157-8.247-7.751-2.757-2.593-5.395-5.545-8.076-8.386l-3.998-4.36c-1.332-1.462-2.603-3.146-3.904-4.719l-3.875-4.773c-1.3-1.601-2.616-3.146-3.842-4.939l-7.518-10.404c-4.793-7.391-9.744-14.706-14.344-22.9-18.5364-32.186-34.4448-70.76-47.1707-114.376-6.2744-21.881-11.7607-44.861-16.4152-68.756l-3.3357-18.069-2.9182-18.47-.7195-4.623-.6259-4.704-1.2387-9.406-1.2375-9.434-1.0255-9.564-1.0127-9.563-.5193-4.782-.3998-4.861-1.6517-19.417c-.755-13.105-1.6422-26.133-1.9968-39.275l-.3413-9.895c-.1261-3.309-.097-6.638-.1448-9.97-.0586-6.636-.1812-13.275-.1615-19.934l.2543-20.026c.0177-3.358.1239-6.683.2569-10.035l.3722-10.03.3581-10.002 1.4287-30.157 1.8942-39.987 3.7872-79.9453 15.6749-319.7567.1282.006-22.2496 469.676-.3582 10.002-.358 10.002c-.1574 3.323-.2379 6.649-.2542 9.979l-.2504 19.942c-.0069 6.661.1299 13.272.1757 19.907.062 3.305.0328 6.634.1603 9.915l.3426 9.867c.325 13.225 1.2148 26.197 1.9968 39.275l1.6557 19.333.4139 4.834.5063 4.781 1.0269 9.536 1.0155 9.508 1.2401 9.378 1.2529 9.379.613 4.702.7209 4.596 2.9862 18.389 3.3397 17.985c4.648 23.779 10.1225 46.646 16.3798 68.419 12.776 43.424 28.7309 81.776 47.3042 113.71 4.551 8.164 9.428 15.42 14.26 22.785l7.483 10.318c1.201 1.792 2.531 3.31 3.819 4.882l3.876 4.774c1.29 1.544 2.561 3.199 3.881 4.661l3.986 4.331c2.665 2.925 5.29 5.848 8.053 8.33 2.763 2.481 5.449 5.211 8.2 7.665l8.485 6.81c11.297 8.558 22.934 15.264 34.82 20.065 23.845 9.298 48.508 10.467 73.125 3.464 12.287-3.659 24.506-9.235 36.561-16.683l8.99-6.011c2.983-2.182 5.926-4.589 8.901-6.855 2.974-2.266 5.867-4.983 8.791-7.531l4.378-3.935c1.452-1.33 2.874-2.858 4.306-4.302l4.308-4.358c1.431-1.443 2.872-2.83 4.263-4.499l8.439-9.592c5.468-6.849 11.04-13.47 16.336-21.307 21.422-30.092 40.843-66.776 57.587-108.769 8.287-21.091 15.903-43.337 22.787-66.563l5.012-17.59 4.711-18.024 1.152-4.507 1.068-4.623 2.121-9.219 2.121-9.219 1.923-9.369 1.91-9.397.969-4.711.856-4.773 3.412-19.093c2.001-12.919 4.113-25.749 5.701-38.911l1.274-9.791c.45-3.253.723-6.57 1.097-9.855.685-6.6 1.446-13.169 2.056-19.801l1.636-19.877c.312-3.315.507-6.636.69-9.958l.59-9.991.602-9.991 22.247-469.619z"/><path d="m516.293-206.452-14.276 312.21-3.697 78.047-1.852 39.093-1.386 29.264-.566 9.768-.579 9.796c-.155 3.267-.373 6.503-.669 9.764l-1.593 19.515c-.602 6.464-1.344 12.894-1.997 19.356-.359 3.229-.642 6.49-1.076 9.688l-1.239 9.596c-1.534 12.857-3.596 25.437-5.547 38.107l-3.343 18.732-.838 4.662-.938 4.601-1.865 9.231c-5.032 24.545-10.931 48.335-17.642 71.145-6.733 22.787-14.187 44.611-22.303 65.299-16.385 41.235-35.408 77.26-56.401 106.811-5.193 7.562-10.625 14.217-16.023 20.958l-8.265 9.432c-2.72 3.145-5.597 5.78-8.398 8.726-1.351 1.391-2.8 2.917-4.224 4.221l-4.297 3.855c-2.872 2.522-5.704 5.327-8.62 7.427-2.915 2.101-5.811 4.595-8.729 6.751l-8.817 5.908c-11.826 7.345-23.814 12.847-35.869 16.464-24.187 7.04-48.429 5.892-71.842-3.404-11.662-4.729-23.077-11.35-34.151-19.809l-8.234-6.687c-2.699-2.45-5.354-5.039-8.037-7.573s-5.272-5.427-7.891-8.21l-3.901-4.243c-1.309-1.405-2.549-2.919-3.819-4.602-2.499-3.169-5.101-6.063-7.536-9.481l-7.337-10.143c-4.8-7.252-9.512-14.443-13.971-22.379-18.0916-31.433-33.6219-69.091-46.051-111.664-6.1212-21.361-11.4746-43.792-16.0174-67.114-4.5377-23.339-8.1617-47.593-10.8366-72.522l-.9977-9.339-.4989-4.669-.3935-4.721-1.5575-18.964c-.6797-12.794-1.607-25.516-1.9196-38.46l-.3261-9.671c-.1302-3.224-.091-6.497-.1428-9.746-.0523-6.495-.1829-12.966-.1711-19.458l.2589-19.579c.0136-3.273.1287-6.514.2578-9.783l.3487-9.806.3604-9.778 1.3877-29.292 1.8519-39.093 3.6972-78.0468 15.3022-312.1622.1668.008-14.789 312.1864-6.9328 146.3476-.3463 9.751-.3462 9.751c-.1548 3.267-.2312 6.51-.2435 9.755l-.246 19.579c-.0247 6.492.1201 12.935.1595 19.43.066 3.222.028 6.466.1594 9.663l.3404 9.643c.3152 12.889 1.1798 25.58 1.9263 38.321l1.5615 18.881.3935 4.72.5001 4.641.999 9.311c2.6907 24.801 6.3161 48.931 10.8411 72.159 4.542 23.213 9.8871 45.54 15.9932 66.805 12.4019 42.345 27.891 79.784 45.9284 111.014 4.431 7.962 9.2 15.045 13.913 22.237l7.237 10.082c2.412 3.361 5.014 6.254 7.514 9.395 1.214 1.513 2.498 3.169 3.795 4.574l3.889 4.214c2.608 2.755 5.149 5.842 7.857 8.125 2.707 2.283 5.313 5.093 8.001 7.515l8.198 6.63c11.022 8.371 22.379 14.924 33.98 19.605 23.284 9.089 47.368 10.23 71.406 3.382 11.992-3.56 23.918-9.01 35.682-16.305l8.788-5.824c2.905-2.158 5.779-4.484 8.676-6.726 2.896-2.241 5.733-4.85 8.59-7.345l4.27-3.828c1.423-1.276 2.807-2.805 4.21-4.194 2.786-2.891 5.624-5.527 8.369-8.643l8.157-9.353c5.384-6.714 10.789-13.314 15.966-20.821 20.902-29.394 39.856-65.201 56.204-106.176 8.097-20.579 15.529-42.302 22.237-64.995 6.705-22.69 12.596-46.37 17.614-70.81l1.874-9.175.937-4.573.838-4.662 3.339-18.649c1.884-12.616 4.008-25.165 5.553-37.966l1.238-9.568c.433-3.17.702-6.404 1.072-9.605.666-6.461 1.406-12.863 2.008-19.327l1.606-19.515c.295-3.232.487-6.469.668-9.735l.576-9.74.578-9.74 21.72-458.506z"/><path d="m510.687-206.718-13.942 304.614-3.607 76.148-1.804 38.088c-.602 12.705-1.086 25.36-1.907 38.083l-.555 9.545c-.151 3.183-.302 6.366-.658 9.54l-1.556 19.013c-.583 6.325-1.304 12.588-1.95 18.91-.354 3.118-.62 6.295-1.038 9.41l-1.215 9.374c-1.495 12.551-3.518 24.853-5.414 37.189l-3.256 18.261-.821 4.579-.92 4.49-1.827 8.981c-4.902 23.959-10.659 47.178-17.215 69.43-6.571 22.232-13.84 43.531-21.752 63.73-16.014 40.218-34.591 75.364-55.082 104.214-5.068 7.372-10.364 13.838-15.64 20.445l-8.06 9.189c-2.716 3.062-5.41 5.649-8.195 8.512-1.35 1.363-2.706 2.838-4.129 4.114l-4.189 3.748c-2.792 2.47-5.555 5.166-8.418 7.241s-5.652 4.49-8.504 6.622l-8.617 5.748c-11.534 7.187-23.228 12.554-34.988 16.058-23.579 6.869-47.21 5.749-70.034-3.317-11.378-4.617-22.517-11.066-33.326-19.294l-8.034-6.566c-2.627-2.363-5.219-4.921-7.841-7.368-2.623-2.447-5.138-5.281-7.696-8.005l-3.816-4.127c-1.219-1.401-2.434-2.914-3.644-4.51-2.425-3.082-4.982-5.833-7.366-9.249l-7.155-9.91c-4.617-7.047-9.289-14.013-13.624-21.831-17.6798-30.633-32.8521-67.371-44.9855-108.927-5.9759-20.849-11.2043-42.741-15.6437-65.501-4.4171-22.777-7.953-46.435-10.5737-70.747l-.9697-9.113-.4912-4.557-.372-4.635-1.5157-18.487c-.6956-12.459-1.5721-24.899-1.8735-37.535l-.3239-9.446c-.1341-3.141-.0989-6.33-.1432-9.466-.0461-6.356-.1833-12.687-.1665-19.011l.2478-19.075c.0225-3.189.122-6.375.2471-9.56l.3498-9.554c.398-12.743 1.2025-25.383 1.7018-38.093l1.8043-38.088 3.6073-76.1475 14.9167-304.5675.218.01-19.8421 418.854c-.6006 12.678-1.305 25.378-1.6875 38.066l-.3356 9.527c-.1495 3.155-.3003 6.339-.2445 9.504l-.2312 18.992c-.0167 6.324.1091 12.627.1694 18.954.0571 3.138.023 6.298.1443 9.439l.3266 9.391c.3169 12.58 1.1575 24.962 1.8929 37.395l1.5199 18.403.386 4.608.4797 4.528.984 9.087c2.6154 24.22 6.1472 47.784 10.5611 70.466 4.4349 22.624 9.6524 44.384 15.6109 65.108 12.0968 41.307 27.2041 77.832 44.7959 108.302 4.339 7.762 8.987 14.67 13.579 21.689l7.134 9.825c2.415 3.305 4.854 6.107 7.279 9.188 1.216 1.485 2.426 3.082 3.647 4.455l3.791 4.098c2.547 2.695 5.032 5.611 7.66 7.947 2.628 2.335 5.192 4.947 7.818 7.311l7.987 6.479c10.756 8.155 21.837 14.544 33.154 19.118 22.715 8.875 46.211 9.988 69.662 3.3 11.7-3.484 23.335-8.797 34.814-15.898l8.563-5.695c2.838-2.105 5.646-4.379 8.474-6.54 2.828-2.16 5.586-4.744 8.377-7.187l4.162-3.721c1.345-1.251 2.698-2.671 4.051-4.09 2.706-2.838 5.486-5.337 8.115-8.459l8.031-9.107c5.247-6.552 10.516-12.991 15.568-20.308 20.397-28.663 38.89-63.596 54.834-103.582 7.891-20.068 15.142-41.238 21.696-63.341 6.542-22.162 12.29-45.287 17.188-69.152l1.826-8.953.905-4.463.82-4.551 3.253-18.176c1.869-12.31 3.915-24.555 5.419-37.049l1.213-9.318c.418-3.115.695-6.264 1.05-9.41.644-6.266 1.365-12.529 1.946-18.827l1.566-18.928c.29-3.149.48-6.33.655-9.484l.566-9.517c.819-12.667 1.28-25.379 1.932-38.054l19.842-418.854z"/><path d="m505.094-206.983-13.594 297.0181-3.518 74.2489-1.759 37.138c-.586 12.371-1.068 24.718-1.862 37.134l-.545 9.322c-.146 3.099-.357 6.196-.632 9.289l-1.522 18.539c-.561 6.158-1.276 12.281-1.902 18.437-.338 3.062-.6 6.156-1.013 9.187l-1.178 9.124c-1.468 12.244-3.438 24.241-5.28 36.272l-3.185 17.816-.788 4.441-.902 4.379-1.779 8.787c-4.784 23.354-10.397 45.989-16.785 67.687-6.403 21.69-13.498 42.456-21.227 62.132-15.596 39.228-33.698 73.502-53.674 101.622-4.93 7.183-10.103 13.515-15.242 19.932l-7.857 8.975c-2.622 2.982-5.404 5.509-7.992 8.297-1.349 1.336-2.698 2.671-4.047 4.006l-4.031 3.672c-2.686 2.419-5.382 5.034-8.203 7.055-2.822 2.022-5.518 4.385-8.29 6.436l-8.405 5.619c-11.266 7.006-22.687 12.245-34.173 15.677-22.991 6.691-46.033 5.6-68.289-3.235-11.11-4.491-21.986-10.777-32.539-18.809l-7.824-6.388c-2.578-2.305-5.108-4.803-7.657-7.191-2.548-2.388-5.014-5.163-7.499-7.8l-3.666-4.036c-1.221-1.373-2.434-2.914-3.65-4.37-2.434-2.914-4.867-5.828-7.171-9.044l-6.987-9.65c-4.509-6.875-9.048-13.666-13.29-21.284-17.2216-29.895-32.0024-65.726-43.8268-106.241-5.7902-20.339-10.8509-41.69-15.1418-63.882-4.3153-22.207-7.7631-45.282-10.3093-68.999l-.9546-8.889-.471-4.444-.3784-4.496-1.4729-18.037c-.7101-12.151-1.5369-24.281-1.8272-36.608l-.3103-9.195c-.1253-3.056-.0939-6.161-.1536-9.242-.0412-6.187-.1608-12.35-.1507-18.534l.2511-18.599c.0057-3.106.1141-6.208.2353-9.309l.3391-9.331c.3834-12.436 1.1734-24.768 1.6568-37.143l1.7593-37.139 3.5173-74.2485 14.5313-296.9735.2693.013-19.3461 408.382c-.586 12.371-1.2618 24.736-1.6297 37.117l-.3365 9.275c-.1468 3.1-.2922 6.172-.2338 9.281l-.2343 18.516c-.0087 6.156.1107 12.319.1674 18.451.0469 3.08.0155 6.185.142 9.214l.3245 9.167c.3058 12.272 1.1225 24.345 1.834 36.469l1.4895 17.953.3656 4.496.4851 4.416.9433 8.861c2.5595 23.59 6.0084 46.542 10.3135 68.635 4.3176 22.083 9.4008 43.323 15.209 63.55 11.7912 40.287 26.5206 75.907 43.6766 105.618 4.219 7.56 8.742 14.407 13.245 21.141l6.951 9.593c2.304 3.216 4.765 5.823 7.136 8.958 1.218 1.429 2.434 2.914 3.652 4.343l3.667 4.008c2.448 2.606 4.885 5.465 7.477 7.742 2.592 2.278 5.056 4.829 7.609 7.105l7.801 6.331c10.483 7.953 21.284 14.18 32.316 18.631 22.145 8.661 45.053 9.746 67.917 3.217 11.408-3.388 22.753-8.566 33.946-15.492l8.351-5.565c2.757-2.024 5.498-4.245 8.26-6.353 2.761-2.108 5.44-4.64 8.162-7.002l4.03-3.643c1.343-1.224 2.698-2.671 4.045-3.979 2.699-2.67 5.397-5.341 7.964-8.242l7.828-8.893c5.111-6.39 10.256-12.668 15.171-19.795 19.884-27.964 37.915-62.031 53.465-101.016 7.698-19.581 14.767-40.245 21.148-61.828 6.385-21.576 11.988-44.101 16.756-67.353l1.789-8.731.888-4.351.789-4.441 3.18-17.732c1.853-11.975 3.82-23.916 5.273-36.133l1.19-9.095c.412-3.003.675-6.097 1.012-9.159.637-6.099 1.338-12.223 1.911-18.353l1.517-18.455c.288-3.093.472-6.163.645-9.261l.554-9.265c.792-12.361 1.249-24.737 1.874-37.105l5.277-111.3874 14.069-296.9956z"/><path d="m499.475-207.249-13.222 289.4236-3.427 72.3504-1.72 36.3c-.571 12.063-1.039 24.103-1.809 36.297l-.533 9.07c-.144 3.044-.287 6.06-.622 9.066l-1.486 18.065c-.554 5.991-1.236 11.975-1.854 17.963-.334 2.979-.592 5.989-.99 8.965l-1.155 8.901c-1.426 11.91-3.33 23.602-5.145 35.327l-3.086 17.373-.784 4.329-.871 4.268-1.69 8.54c-18.878 91.703-50.116 170.578-89.322 225.536-4.82 7.02-9.857 13.19-14.859 19.446l-7.666 8.732c-2.543 2.93-5.191 5.352-7.786 8.027-1.348 1.308-2.596 2.676-3.914 3.901l-4.027 3.587c-2.682 2.336-5.285 4.9-8.04 6.868-2.755 1.969-5.346 4.281-8.089 6.278l-8.179 5.461c-10.963 6.804-22.076 11.89-33.251 15.217-22.404 6.513-44.857 5.45-66.545-3.153-10.813-4.378-21.4-10.492-31.676-18.292l-7.626-6.21c-2.464-2.272-4.922-4.683-7.46-7.014-2.538-2.332-4.905-5.018-7.355-7.597l-3.67-3.952c-1.223-1.318-2.344-2.91-3.527-4.253-2.331-2.909-4.721-5.653-6.993-8.728l-6.805-9.418c-4.388-6.728-8.82-13.319-12.942-20.763-33.844-58.406-57.4914-139.884-67.6146-232.97l-.8755-8.661-.4634-4.332-.3581-4.383-1.4427-17.588c-.7246-11.844-1.4506-23.661-1.7824-35.655l-.3081-8.97c-.115-3-.0875-6.021-.1384-9.018-.0364-6.019-.1625-12.042-.1475-18.058l.2414-18.124c.0146-3.022.1061-6.04.2374-9.084l.3274-9.08c.3675-12.101 1.1428-24.126 1.6169-36.306l1.7196-36.3 3.4274-72.3506 14.1588-289.3794.3079.015-18.8514 397.939c-.5714 12.063-1.2327 24.122-1.6042 36.307l-.3247 9.024c-.1429 3.015-.2216 6.034-.2361 9.056l-.2118 18.041c-.015 6.017.101 11.983.1515 17.975.0509 2.997.0234 6.018.1397 8.99l.3094 8.942c.296 11.936 1.1016 23.701 1.8033 35.488l1.4466 17.504.3594 4.355.4634 4.332.8781 8.605c5.0563 46 13.4423 89.445 24.8604 128.795 11.5018 39.196 25.8553 73.852 42.5643 102.767 4.113 7.36 8.521 13.921 12.898 20.594l6.771 9.332c2.256 3.129 4.649 5.817 6.954 8.725 1.219 1.401 2.318 2.909 3.514 4.253l3.673 3.896c2.451 2.551 4.776 5.32 7.281 7.537 2.505 2.218 4.92 4.711 7.385 6.955l7.59 6.153c10.209 7.808 20.732 13.919 31.484 18.283 21.575 8.448 43.895 9.505 66.172 3.135 11.116-3.342 22.17-8.431 33.072-15.226l8.138-5.407c2.666-2.001 5.34-4.169 8.009-6.226 2.669-2.056 5.357-4.503 7.961-6.815l4.025-3.531c1.342-1.196 2.595-2.676 3.9-3.902 2.583-2.676 5.206-5.126 7.748-8.028l7.623-8.651c4.988-6.228 9.997-12.344 14.787-19.282 39.061-54.591 70.206-133.02 89.056-224.261l1.688-8.484.871-4.268.783-4.301 3.094-17.289c1.839-11.667 3.676-23.306 5.138-35.159l1.153-8.873c.396-2.948.655-5.958.989-8.937.616-5.96 1.296-11.889 1.862-17.879l1.482-17.981c.271-3.009.453-6.023.621-9.038l.53-9.014c.789-12.025 1.232-24.094 1.848-36.295l18.846-397.828z"/><path d="m493.869-207.515-12.927 281.8257-3.337 70.4513-1.665 35.156c-.557 11.756-1.009 23.46-1.76 35.235l-.522 8.847c-.139 2.932-.343 5.889-.61 8.815l-1.438 17.591c-.534 5.852-1.208 11.669-1.805 17.49-.598 5.821-1.336 11.635-2.11 17.391-1.386 11.605-3.25 22.991-5.012 34.41l-3.012 16.901-.754 4.246-.853 4.158-1.68 8.316c-18.393 89.3-48.817 166.106-86.998 219.629-4.681 6.803-9.607 12.81-14.46 18.905l-7.463 8.518c-2.488 2.849-5.056 5.218-7.586 7.869-1.268 1.255-2.531 2.679-3.82 3.821l-3.868 3.483c-2.588 2.256-5.15 4.766-7.787 6.684-2.636 1.918-5.249 4.145-7.876 6.119l-7.962 5.221c-10.676 6.644-21.5 11.612-32.385 14.865-21.817 6.355-43.682 5.32-64.8-3.069-10.528-4.275-20.834-10.244-30.835-17.861l-7.433-5.949c-2.468-2.188-4.851-4.54-7.264-6.809-2.412-2.27-4.756-4.899-7.119-7.418l-3.534-3.834c-1.225-1.289-2.286-2.767-3.443-4.137-2.254-2.905-4.599-5.507-6.808-8.55l-6.624-9.186c-4.268-6.527-8.591-12.973-12.608-20.188-16.304-28.336-30.3062-62.266-41.5219-100.618-11.1471-38.534-19.329-81.062-24.256-126.08l-.886-8.438-.443-4.219-.3621-4.299-1.4011-17.11c-.6622-11.534-1.4798-23.047-1.7364-34.729-.2008-5.803-.426-11.635-.4561-17.513-.0301-5.879-.1527-11.706-.1443-17.582l.2318-17.649c.0106-2.938.1123-5.9.2255-8.833l.3296-8.856c.353-11.793 1.1125-23.483 1.5668-35.244l1.6694-35.24 3.3374-70.4511 13.7731-281.7849.3593.017-18.3474 387.3c-.5556 11.728-1.2023 23.48-1.5526 35.218l-.3141 8.8c-.1323 2.793-.2778 5.864-.2243 8.805l-.2149 17.566c-.0071 5.848.1027 11.675.1482 17.498.0456 5.823.2323 11.653.4588 17.457.285 11.628 1.0666 23.083 1.7444 34.562l1.4049 17.026.3648 4.243.443 4.219.8861 8.438c9.8584 90.174 32.8191 169.066 65.6511 225.573 4.005 7.186 8.357 13.578 12.544 20.185l6.602 9.1c2.183 3.042 4.516 5.644 6.773 8.493 1.143 1.37 2.254 2.906 3.418 4.108l3.51 3.805c2.351 2.49 4.652 5.202 7.083 7.36s4.811 4.566 7.228 6.751l7.433 5.949c9.946 7.553 20.195 13.463 30.664 17.685 21.008 8.197 42.738 9.226 64.427 3.052 10.821-3.21 21.583-8.125 32.198-14.707l7.962-5.22c2.664-1.945 5.219-4.034 7.834-6.037 2.615-2.004 5.171-4.401 7.747-6.658l3.854-3.456c1.275-1.143 2.523-2.511 3.791-3.766 2.519-2.679 5.084-4.993 7.558-7.814l7.42-8.436c4.85-6.039 9.737-12.021 14.396-18.909 38.027-53.151 68.343-129.519 86.681-218.356l1.68-8.317.853-4.157.751-4.191 3.008-16.817c1.76-11.363 3.647-22.692 5.004-34.242.761-5.757 1.522-11.514 2.107-17.335.584-5.822 1.269-11.583 1.802-17.407l1.446-17.506c.267-2.926.445-5.856.609-8.787l.52-8.791c.761-11.718 1.189-23.48 1.783-35.206l18.353-387.413z"/><path d="m488.262-207.78-12.785 274.2194-3.247 68.5526-1.625 34.29c-.541 11.421-.979 22.847-1.701 34.287l-.51 8.595c-.133 2.793-.271 5.725-.586 8.564l-1.389 17.118c-.521 5.573-1.18 11.335-1.758 17.016-.578 5.682-1.286 11.134-2.086 16.889-1.345 11.299-3.149 22.24-4.859 33.354l-2.926 16.457-.735 4.107-.822 4.047-1.669 8.093c-17.865 86.869-47.436 161.602-84.557 213.7-4.558 6.64-9.335 12.487-14.065 18.42l-7.258 8.276c-2.416 2.684-4.921 5.084-7.384 7.682-1.241 1.229-2.468 2.682-3.711 3.687l-3.774 3.403c-2.51 2.232-5.003 4.633-7.574 6.526s-5.09 4.041-7.661 5.934l-7.744 5.23c-10.399 6.482-20.942 11.324-31.545 14.486-21.229 6.196-42.507 5.188-63.055-2.987-10.254-4.164-20.293-9.98-30.034-17.403l-7.228-5.94c-2.368-2.127-4.715-4.421-7.066-6.631-2.351-2.211-4.621-4.781-6.923-7.213l-3.436-3.745c-1.136-1.257-2.224-2.708-3.344-4.048-2.189-2.903-4.479-5.334-6.613-8.318l-6.443-8.925c-4.16-6.382-8.403-12.628-12.261-19.667-32.039-55.362-54.4181-132.559-63.9898-220.737l-.8966-8.214-.4355-4.107-.3429-4.158-1.3581-16.66c-.6512-11.226-1.4049-22.456-1.6968-33.664-.1973-5.607-.4074-11.214-.4799-17.011-.0726-5.796-.1546-11.398-.1285-17.105l.2222-17.174c.0168-2.797.1043-5.732.2264-8.581l.3177-8.604c.35-11.458 1.0833-22.87 1.5346-34.295l1.6244-34.29 3.2475-68.5525 13.2081-274.1995.3849.018-17.8579 376.969c-.541 11.421-1.1732 22.865-1.5205 34.267l-.3022 8.55c-.1323 2.792-.2712 5.724-.2123 8.553l-.2195 17.118c-.008 5.596.1044 11.367.1579 17.023s.2212 11.345.4813 16.982c.2791 11.208 1.0458 22.439 1.6969 33.664l1.3634 16.549.3429 4.158.4368 4.079.8993 8.158c4.7878 43.571 12.7319 84.721 23.5499 121.989 10.9063 37.186 24.5263 70.054 40.3853 97.458 3.885 7.013 8.065 13.228 12.216 19.525l6.407 8.868c2.139 2.9 4.408 5.47 6.591 8.26 1.12 1.312 2.189 2.902 3.334 3.992l3.411 3.716c2.291 2.403 4.531 5.056 6.901 7.128 2.371 2.071 4.661 4.474 7.031 6.573l7.176 5.938c9.68 7.335 19.653 13.082 29.838 17.198 20.439 7.983 41.581 8.984 62.683 2.969 10.529-3.134 21-7.913 31.33-14.3l7.706-5.232c2.557-1.866 5.084-3.929 7.62-5.88 2.535-1.951 5.037-4.268 7.544-6.444l3.747-3.376c1.249-1.117 2.47-2.458 3.697-3.659 2.454-2.683 4.936-4.86 7.342-7.601l7.229-8.221c4.715-5.878 9.464-11.67 14.007-18.283 37.109-51.588 66.729-125.859 84.686-212.35l1.667-8.037.82-4.02.735-4.107 2.934-16.345c1.71-11.113 3.515-22.082 4.872-33.352.726-5.563 1.478-11.125 2.084-16.861.606-5.737 1.242-11.276 1.767-16.932l1.4-17.062c.26-2.786.431-5.576.597-8.535l.507-8.54c.733-11.384 1.159-22.838 1.739-34.257l17.858-376.969z"/><path d="m482.656-208.046-12.438 266.6241-3.157 66.6539-1.58 33.341c-.529 11.169-.949 22.204-1.656 33.337l-.487 8.373c-.132 2.792-.329 5.581-.576 8.368l-1.371 16.727c-.509 5.573-1.145 11.14-1.697 16.543-.552 5.404-1.254 10.996-1.975 16.447-1.303 10.965-3.061 21.74-4.73 32.548l-2.841 15.985-.716 3.996-.804 3.936-1.593 7.845c-17.375 84.471-46.133 157.139-82.233 207.793-4.434 6.478-9.075 12.163-13.707 17.933l-7.055 8.062c-2.352 2.687-4.786 4.95-7.182 7.468-1.201 1.202-2.393 2.489-3.616 3.606l-3.654 3.298c-2.455 2.15-4.869 4.527-7.372 6.339-2.503 1.813-4.957 3.935-7.448 5.776l-7.542 5.044c-10.097 6.296-20.333 11.012-30.628 14.11-20.641 6-41.328 5.02-61.309-2.905-9.96-4.053-19.71-9.716-29.169-16.942l-7.032-5.734c-2.306-2.069-4.579-4.303-6.869-6.455-2.289-2.151-4.499-4.635-6.727-7.007l-3.338-3.628c-1.112-1.229-2.163-2.65-3.258-3.961-2.135-2.704-4.345-5.187-6.432-8.085l-6.261-8.692c-4.041-6.181-8.123-12.279-11.952-19.121-15.449-26.85-28.708-59.021-39.3136-95.393-10.5371-36.441-18.2646-76.665-22.9083-119.243l-.9086-7.963-.4152-3.994-.3354-4.046-1.3292-16.183c-.6272-10.916-1.3583-21.81-1.6326-32.849-.1844-5.606-.391-11.017-.3985-16.559s-.1508-11.202-.1379-16.63l.2291-16.781c.004-2.799.0978-5.593.2172-8.386l.3072-8.381c.3366-11.179.994-22.342 1.4895-33.345l1.5794-33.341 3.1576-66.6538 12.8355-266.6052.4361.021-17.3658 366.581c-.5291 11.17-1.1351 22.335-1.4626 33.319l-.3071 8.381c-.1323 2.792-.2645 5.585-.2172 8.385l-.197 16.643c-.0208 5.596.0947 11.031.1421 16.547.0473 5.515.2241 11.009.4138 16.503.2756 11.012 1.0235 21.822 1.6534 32.682l1.3318 16.128.3369 4.018.4292 3.966.9099 7.935c9.3304 85.277 31.0443 159.887 62.0903 213.343 3.792 6.812 7.851 12.853 11.881 18.977l6.236 8.692c2.074 2.896 4.273 5.351 6.409 8.027 1.082 1.311 2.135 2.704 3.235 3.904l3.314 3.599c2.229 2.345 4.409 4.911 6.704 6.95 2.295 2.04 4.539 4.329 6.833 6.397l6.996 5.677c9.407 7.133 19.1 12.718 29 16.71 19.869 7.771 40.423 8.745 60.937 2.887 10.233-3.039 20.411-7.682 30.45-13.894l7.501-4.99c2.479-1.842 4.939-3.824 7.407-5.722 2.469-1.898 4.891-4.162 7.331-6.286l3.64-3.27c1.221-1.089 2.401-2.377 3.602-3.579 2.367-2.463 4.8-4.698 7.139-7.386l7.017-8.064c4.591-5.715 9.203-11.346 13.622-17.769 35.96-50.281 64.63-122.505 81.98-206.517l1.656-7.814.79-3.909.715-3.968 2.85-15.929c1.666-10.752 3.42-21.443 4.736-32.38.726-5.563 1.44-10.874 1.972-16.39.531-5.516 1.201-10.97 1.718-16.459l1.364-16.587c.248-2.787.419-5.577.577-8.368l.499-8.373c.722-11.16 1.059-22.339 1.681-33.308l17.367-366.609z"/><path d="m477.037-208.311-12.078 259.0282-3.068 64.7548-1.534 32.391c-.512 10.807-.932 21.562-1.612 32.388l-.474 8.122c-.133 2.792-.32 5.386-.564 8.089l-1.318 16.17c-.499 5.377-1.113 10.722-1.662 16.069s-1.213 10.689-1.901 15.974c-1.278 10.686-2.994 21.128-4.597 31.631l-2.768 15.541-.697 3.857-.785 3.825-1.546 7.651c-16.89 82.067-44.834 152.666-79.908 201.886-4.297 6.289-8.813 11.784-13.284 17.394l-6.799 7.821c-2.288 2.691-4.651 4.818-6.966 7.255-9.36 9.372-18.987 17.197-28.791 23.404-9.811 6.098-19.757 10.669-29.758 13.675-20.054 5.84-40.153 4.887-59.565-2.822-9.678-3.934-19.152-9.434-28.343-16.456-9.173-7.084-18.013-15.775-26.439-25.992-2.086-2.645-4.236-5.042-6.262-7.881l-6.029-8.429c-3.933-6.008-7.895-11.933-11.592-18.573-30.288-52.323-51.4427-125.295-60.4868-208.648l-.8281-7.764-.4075-3.881-.3293-3.906-1.2862-15.733c-.6161-10.608-1.3375-21.165-1.5865-31.924-.1848-5.326-.394-10.681-.3953-16.082-.0013-5.402-.1463-10.754-.1347-16.155l.2155-16.222c.0168-2.798.1013-5.396.2168-8.105l.2952-8.13c.3337-10.843 1.0225-21.585 1.4574-32.396l1.5345-32.3909 3.0676-64.7549 12.4628-259.0102.4747.022-16.8777 356.278c-.5106 10.778-1.1124 21.58-1.4306 32.368l-.2924 8.074c-.1323 2.793-.2553 5.39-.2027 8.079l-.2001 16.166c-.0103 5.373.0964 10.724.1388 16.071s.213 10.701.4107 16.028c.2644 10.703.9885 21.204 1.6072 31.756l1.2902 15.65.3293 3.905.4088 3.854.8294 7.735c9.067 82.81 30.16 155.258 60.313 207.157 3.686 6.612 7.625 12.48 11.535 18.43l6.032 8.374c2.01 2.894 4.152 5.178 6.227 7.795 8.387 10.125 17.184 18.739 26.308 25.762 9.139 6.929 18.556 12.351 28.174 16.224 19.3 7.556 39.266 8.502 59.193 2.804 9.942-2.946 19.829-7.454 29.582-13.487 9.747-6.13 19.319-13.874 28.626-23.16 2.313-2.409 4.666-4.593 6.936-7.172l6.796-7.766c4.455-5.554 8.944-11.023 13.226-17.257 34.924-48.817 62.771-118.946 79.626-200.528l1.556-7.622.785-3.797.684-3.858 2.776-15.457c1.614-10.446 3.328-20.832 4.603-31.462.687-5.285 1.387-10.569 1.911-15.918.523-5.348 1.159-10.635 1.657-15.985l1.329-16.113c.248-2.787.408-5.354.562-8.062l.472-8.065c.703-10.77 1.1-21.582 1.649-32.358l16.872-356.166z"/><path d="m471.431-208.578-11.726 251.3214-2.977 62.8556-1.49 31.442c-.496 10.472-.902 20.947-1.579 31.438l-.45 7.871c-.124 2.625-.249 5.25-.54 7.867l-1.283 15.695c-.479 5.211-1.084 10.388-1.613 15.596-.53 5.208-1.187 10.383-1.855 15.528-1.236 10.353-2.899 20.489-4.457 30.574l-2.694 15.069-.667 3.775-.721 4.08-1.509 7.428c-16.398 79.64-43.519 148.152-77.556 195.924-4.145 6.073-8.552 11.434-12.899 16.881l-6.661 7.604c-2.215 2.526-4.515 4.656-6.761 7.013-9.084 9.108-18.43 16.704-27.949 22.716-9.533 5.931-19.197 10.375-28.917 13.295-19.466 5.664-38.976 4.74-57.82-2.739-9.401-3.804-18.604-9.133-27.532-15.941-8.901-6.897-17.482-15.341-25.663-25.256-2.027-2.559-4.114-4.897-6.067-7.648l-5.9-8.172c-3.816-5.778-7.669-11.558-11.259-18.025-14.567-25.329-27.07-55.67-37.075-89.969-9.9618-34.362-17.2729-72.301-21.6738-112.468l-.8002-7.538-.3999-3.769-.3205-3.821-1.2446-15.256c-.605-10.3-1.3024-20.548-1.5468-30.858-.1915-5.187-.383-10.373-.3909-15.635s-.1352-10.445-.1188-15.678l.206-15.747c.0089-2.63.0948-5.256.2063-7.882l.2831-7.879c.3178-10.507.9935-20.97 1.4126-31.445l1.4895-31.4422 2.9776-62.8561 12.0849-251.3037.5259.025-16.3618 345.387c-.4961 10.471-1.0703 20.967-1.3854 31.419l-.282 7.851c-.123 2.596-.1832 5.224-.1908 7.827l-.2032 15.69c-.0023 5.206.0993 10.388.1483 15.596.049 5.207.202 10.392.382 15.55.2675 10.368.9662 20.588 1.5597 30.859l1.2614 15.172.3089 3.793.4 3.769.8028 7.483c8.7983 80.391 29.2717 150.725 58.5417 201.112 3.554 6.409 7.399 12.104 11.201 17.882l5.877 8.114c1.954 2.724 4.031 5.033 6.07 7.592 8.138 9.818 16.671 18.176 25.521 24.998 8.871 6.724 18.012 11.983 27.349 15.736 18.73 7.343 38.108 8.261 57.448 2.722 9.65-2.854 19.247-7.226 28.714-13.081 9.459-5.959 18.748-13.472 27.783-22.472 2.233-2.357 4.519-4.46 6.76-6.984l6.618-7.523c4.319-5.393 8.676-10.784 12.828-16.744 33.903-47.394 60.933-115.477 77.292-194.677l1.506-7.373.755-3.715.679-3.746 2.677-14.985c1.573-10.141 3.235-20.249 4.47-30.573.666-5.118 1.359-10.235 1.863-15.445.504-5.209 1.132-10.329 1.609-15.512l1.294-15.639c.225-2.592.401-5.214.537-7.81l.461-7.843c.675-10.435.993-20.942 1.591-31.409l16.378-345.722z"/><path d="m465.824-208.843-11.383 243.8367-2.888 60.9573-1.445 30.493c-.481 10.164-.872 20.304-1.521 30.488l-.44 7.648c-.12 2.541-.24 5.082-.527 7.615l-1.249 15.222c-.458 5.071-1.043 10.081-1.553 15.15-.51 5.07-1.145 10.049-1.805 15.028-1.196 10.046-2.807 19.905-4.329 29.768l-2.608 14.625-.65 3.663-.736 3.604-1.459 7.179c-15.897 77.272-42.208 143.744-75.235 190.073-4.06 5.909-8.241 11.112-12.515 16.395l-6.457 7.362c-2.148 2.473-4.38 4.523-6.559 6.826-8.812 8.818-17.875 16.174-27.105 22.001-9.239 5.751-18.605 10.059-28.024 12.889-18.879 5.486-37.799 4.59-56.075-2.656-9.114-3.709-18.035-8.883-26.692-15.482-8.636-6.675-16.958-14.865-24.89-24.491-1.966-2.472-3.992-4.751-5.899-7.388l-5.719-7.94c-3.699-5.772-7.439-11.239-10.909-17.504-28.51-49.222-48.4219-117.891-56.9302-196.334l-.7863-7.286-.3926-3.657-.3001-3.708-1.2143-14.806c-.5824-9.963-1.2546-19.93-1.4955-30.044-.1738-5.018-.359-10.065-.362-15.158-.003-5.094-.1511-10.11-.1285-15.203l.1963-15.271c.0177-2.546.0996-5.089.2072-7.63l.2727-7.656c.316-10.2.9629-20.328 1.3674-30.496l1.4445-30.4926 2.8877-60.9573 11.7177-243.8211.577.027-15.8827 335.279c-.4802 10.136-1.04 20.325-1.3534 30.469l-.27 7.6c-.1203 2.541-.2407 5.082-.193 7.603l-.1795 15.188c-.0214 5.064.0869 10.107.1311 15.147.0441 5.039.1908 10.084.3787 15.074.2436 10.059.9313 19.971 1.5021 29.905l1.2184 14.722.3142 3.681.3811 3.629.7877 7.257c8.5239 77.958 28.3753 146.161 56.7613 195.011 3.46 6.209 7.159 11.73 10.855 17.306l5.695 7.882c1.894 2.637 3.909 4.887 5.863 7.33 7.889 9.547 16.169 17.651 24.761 24.234 8.601 6.505 17.461 11.602 26.51 15.249 18.164 7.09 36.951 7.98 55.704 2.639 9.353-2.769 18.656-7.005 27.833-12.675 9.176-5.741 18.184-13.026 26.94-21.784 2.177-2.248 4.396-4.298 6.53-6.743l6.415-7.309c4.195-5.23 8.412-10.376 12.455-16.202 16.353-22.902 31.184-50.836 43.976-82.827 12.703-32.04 23.191-67.757 31.092-105.882l1.47-7.151.722-3.576.661-3.635 2.605-14.541c1.52-9.835 3.129-19.638 4.322-29.629.659-4.95 1.319-9.929 1.802-14.971.483-5.043 1.105-10.023 1.575-15.066l1.245-15.138c.234-2.507.38-5.047.526-7.587l.45-7.591c.66-10.128.963-20.328 1.546-30.46l15.885-335.335z"/><path d="m460.193-209.11-11.037 236.2409-2.798 59.0585-1.399 29.5436c-.467 9.857-.836 19.55-1.477 29.539-.324 4.938-.468 9.885-.932 14.789l-1.213 14.747c-.451 4.904-1.016 9.775-1.505 14.677-.489 4.903-1.117 9.743-1.758 14.582-1.154 9.712-2.713 19.266-4.195 28.851l-2.523 14.154c-.396 2.388-.853 4.717-1.336 7.045l-1.423 6.957c-15.421 74.817-40.909 139.175-72.892 184.055-3.936 5.719-8.047 10.813-12.132 15.881l-6.251 7.12c-2.081 2.393-4.246 4.389-6.37 6.611-8.532 8.548-17.309 15.675-26.249 21.314-8.951 5.585-18.028 9.758-27.156 12.483-9.135 2.499-18.288 3.618-27.391 3.348-9.088-.606-18.093-2.585-26.952-5.923-8.824-3.588-17.461-8.6-25.842-14.993-8.371-6.459-16.439-14.384-24.13-23.7-1.904-2.413-3.857-4.605-5.702-7.183l-5.563-7.708c-3.598-5.46-7.2-10.864-10.564-16.928-27.606-47.69-46.902-114.174-55.1797-190.123l-.7444-7.087c-.2751-2.336-.4974-4.698-.6787-7.113l-1.1715-14.356c-.5585-9.654-1.2195-19.313-1.4506-29.091-.1675-4.878-.3608-9.756-.3589-14.682.0019-4.925-.1387-9.83-.124-14.754l.1996-14.796c.0276-4.924.3129-9.864.4573-14.811.3015-9.893.9326-19.686 1.3226-29.5466l1.3995-29.5432 2.7978-59.0585 11.345-236.2267.616.029-15.3886 324.8358c-.4656 9.8292-1.0096 19.6822-1.2956 29.5202-.1417 4.891-.4656 9.829-.4533 14.727l-.1828 14.712c-.0134 4.897.0887 9.8.128 14.671.0392 4.872.194 9.749.3757 14.599.2324 9.75.8961 19.353 1.4572 28.951l1.1754 14.273c.1827 2.387.405 4.748.6801 7.084l.747 7.032c8.2629 75.51 27.4899 141.576 54.9799 188.909 3.354 6.008 6.957 11.385 10.518 16.815l5.528 7.622c1.834 2.55 3.788 4.713 5.668 7.097 7.647 9.243 15.666 17.109 23.984 23.525 8.331 6.323 16.915 11.276 25.683 14.818 17.594 6.879 35.793 7.741 53.959 2.557 9.063-2.699 18.076-6.817 26.967-12.324 8.888-5.601 17.615-12.674 26.101-21.153 2.097-2.195 4.248-4.165 6.314-6.529l6.223-7.066c4.098-5.067 8.193-10.079 12.061-15.745 31.842-44.523 57.228-108.475 72.592-182.866l1.408-6.929c.495-2.3.94-4.63 1.347-6.989l2.52-14.098c1.478-9.501 3.034-18.999 4.2-28.683.627-4.812 1.279-9.622 1.741-14.498.463-4.876 1.065-9.717 1.514-14.593l1.209-14.664c.45-4.876.633-9.821.954-14.703.632-9.821.997-19.683 1.488-29.511l15.388-324.836z"/><path d="m454.612-209.375-10.69 228.6458-2.708 57.1596-1.355 28.5936c-.451 9.522-.825 19.048-1.431 28.59-.316 4.771-.454 9.578-.91 14.314l-1.165 14.274c-.444 4.765-.975 9.469-1.469 14.203-.495 4.735-1.078 9.437-1.685 14.11-1.128 9.434-2.645 18.653-4.061 27.933l-2.45 13.71c-.392 2.304-.82 4.551-1.299 6.795l-1.375 6.763c-7.425 35.99-17.294 69.717-29.256 99.981-12.01 30.202-25.944 56.602-41.317 78.279-3.793 5.418-7.784 10.406-11.733 15.34l-6.049 6.906c-2.026 2.311-4.059 4.258-6.167 6.397-8.26 8.27-16.756 15.176-25.408 20.654-8.667 5.381-17.453 9.417-26.287 12.076-17.709 5.131-35.455 4.29-52.599-2.492-8.544-3.481-16.909-8.329-25.029-14.507-8.096-6.268-15.901-13.946-23.342-22.963-1.844-2.326-3.736-4.459-5.521-6.95l-5.382-7.448c-3.464-5.313-6.972-10.517-10.228-16.409-26.731-46.173-45.408-110.557-53.408-184.105l-.729-6.863c-.252-2.279-.479-4.556-.651-6.887l-1.1297-13.879c-.546-9.373-1.1845-18.695-1.4032-28.193-.1755-4.71-.3497-9.448-.3557-14.206-.0061-4.758-.1289-9.493-.1208-14.278l.1898-14.32c.0324-4.757.3114-9.557.4478-14.336.2984-9.557.9034-19.072 1.3545-28.5939l1.3543-28.5939 2.708-57.15956 10.972-228.63164.667.031-14.893 314.3924c-.451 9.5219-.9806 19.0676-1.2635 28.5696-.1351 4.752-.4497 9.494-.4308 14.253l-.1858 14.236c-.0068 4.758.0917 9.464.1247 14.195s.1956 9.441.3582 14.15c.2355 9.415.8762 18.681 1.4102 28.053l1.146 13.796c.173 2.331.399 4.609.652 6.859l.732 6.808c8.002 73.062 26.605 136.99 53.199 182.808 3.251 5.751 6.73 11.009 10.184 16.266l5.335 7.362c1.786 2.463 3.641 4.566 5.498 6.893 7.395 8.929 15.153 16.52 23.2 22.704 8.063 6.115 16.371 10.905 24.856 14.331 17.025 6.665 34.636 7.5 52.214 2.474 8.772-2.606 17.495-6.589 26.101-11.917 8.595-5.396 17.035-12.22 25.242-20.41 2.043-2.142 4.127-4.058 6.125-6.342l6.019-6.824c3.923-4.908 7.88-9.73 11.664-15.232 15.336-21.481 29.244-47.685 41.238-77.695 11.909-30.072 21.738-63.593 29.137-99.37l1.373-6.708c.477-2.216.905-4.463 1.297-6.767l2.446-13.626c1.427-9.223 2.928-18.388 4.055-27.794.62-4.672 1.239-9.317 1.694-14.053.456-4.736 1.024-9.382 1.467-14.119l1.173-14.19c.417-4.737.591-9.487.906-14.23.616-9.486.902-19.044 1.456-28.561l14.888-314.28z"/><path d="m449.005-209.639-10.33 221.0499-2.618 55.2608-1.31 27.6444c-.436 9.2149-.794 18.4049-1.386 27.6409-.295 4.604-.438 9.243-.88 13.951l-1.129 13.8c-.423 4.598-.948 9.163-1.422 13.73-.473 4.567-1.05 9.13-1.637 13.664-1.087 9.1-2.551 18.014-3.927 26.988l-2.365 13.266c-.737 4.443-1.699 8.735-2.587 13.087-14.419 70.073-38.283 130.349-68.236 172.353-3.677 5.423-7.524 10.083-11.35 14.855l-5.858 6.663c-1.945 2.259-3.962 4.122-5.95 6.183-7.99 8-16.208 14.676-24.578 19.965-8.376 5.219-16.868 9.12-25.407 11.67-17.121 4.973-34.28 4.16-50.855-2.409-8.258-3.359-16.343-8.045-24.19-14.019-7.832-6.058-15.382-13.48-22.581-22.2-1.771-2.239-3.652-4.315-5.339-6.717l-5.201-7.187c-3.344-5.14-6.732-10.171-9.895-15.862-25.85-44.655-43.909-106.927-51.636-178.06-.434-4.414-1.012-8.779-1.339-13.273l-1.1-13.429c-.522-9.065-1.136-18.077-1.358-27.239-.156-4.569-.325-9.139-.338-13.758-.013-4.618-.118-9.185-.105-13.802l.18-13.844c.026-4.617.297-9.25.431-13.973.284-9.2502.873-18.4298 1.309-27.6445l1.31-27.6444 2.618-55.26086 10.599-221.03724.706.033-14.4 303.9768c-.435 9.1869-.873 18.4297-1.219 27.6212-.127 4.583-.435 9.186-.421 13.777l-.163 13.761c-.012 4.59.08 9.156.121 13.719.041 4.564.172 9.132.343 13.674.224 9.106.841 18.063 1.366 27.071l1.103 13.346c.316 4.465.871 8.773 1.33 13.189 7.748 70.65 25.752 132.456 51.481 176.737 3.135 5.746 6.503 10.635 9.837 15.719l5.166 7.129c1.713 2.376 3.545 4.422 5.304 6.632 7.148 8.655 14.651 16.001 22.438 21.969 7.79 5.913 15.818 10.54 24.018 13.843 16.455 6.453 33.479 7.26 50.469 2.391 8.48-2.513 16.914-6.36 25.233-11.51 8.309-5.222 16.468-11.826 24.401-19.75 1.973-2.034 3.977-3.898 5.908-6.101l5.816-6.609c3.799-4.746 7.633-9.406 11.279-14.718 29.788-41.64 53.537-101.463 67.905-171.054.849-4.354 1.834-8.589 2.57-13.004l2.361-13.182c1.373-8.918 2.835-17.776 3.932-26.82.586-4.506 1.185-9.011 1.633-13.58s.983-9.077 1.418-13.646l1.125-13.716c.41-4.57.577-9.18.883-13.755.59-9.18.874-18.43 1.399-27.6127l14.4-303.9763z"/><path d="m443.399-209.905-9.983 213.45388-2.528 53.36202-1.265 26.695c-.422 8.9076-.764 17.7631-1.329 26.6921-.288 4.464-.423 8.935-.851 13.365l-1.094 13.326c-.405 4.458-.908 8.856-1.361 13.257-.453 4.4-1.01 8.823-1.589 13.19-1.047 8.794-2.459 17.431-3.807 26.071l-2.279 12.821c-.718 4.304-1.68 8.317-2.502 12.643-6.93 33.61-16.147 65.103-27.322 93.356-11.212 28.202-24.223 52.853-38.577 73.092-3.55 5.177-7.275 9.702-10.966 14.341l-5.654 6.449c-1.876 2.15-3.827 3.96-5.748 5.968-7.718 7.704-15.653 14.14-23.734 19.25-8.09 5.04-16.292 8.814-24.54 11.291-16.534 4.796-33.104 4.011-49.11-2.326-7.978-3.23-15.788-7.753-23.364-13.533-7.564-5.848-14.856-13.015-21.807-21.435-1.711-2.152-3.482-4.139-5.158-6.485l-5.021-6.927c-3.236-4.967-6.502-9.851-9.56-15.313-12.359-21.523-22.963-47.301-31.443-76.437-8.448-29.189-14.647-61.411-18.374-95.52-.428-4.274-.989-8.443-1.296-12.823l-1.056-12.98c-.513-8.728-1.102-17.46-1.325-26.314-.152-4.401-.329-8.803-.323-13.281.007-4.477-.132-8.878-.114-13.327l.17-13.369c.031-4.448.294-8.9137.416-13.3857.282-8.9423.842-17.7874 1.264-26.695l1.265-26.695 2.528-53.362 10.227-213.4423.757.035-13.904 293.5056c-.421 8.8797-.92 17.7838-1.187 26.6708-.119 4.4162-.42 8.8796-.398 13.3026l-.167 13.285c-.004 4.422.084 8.82.119 13.244.034 4.423.174 8.796.326 13.197.226 8.798.819 17.446 1.333 26.146l1.075 12.869c.309 4.324.886 8.437 1.286 12.738 7.464 68.19 24.827 127.853 49.65 170.606 3.021 5.433 6.277 10.26 9.49 15.17l4.985 6.869c1.665 2.318 3.423 4.276 5.134 6.428 6.904 8.332 14.143 15.422 21.651 21.204 7.522 5.712 15.274 10.176 23.193 13.357 15.896 6.207 32.339 6.986 48.75 2.309 8.184-2.418 16.324-6.129 24.352-11.104 8.026-5.046 15.907-11.42 23.571-19.062 1.894-1.981 3.83-3.764 5.706-5.914l5.612-6.367c3.663-4.584 7.361-9.083 10.959-14.202 14.264-20.059 27.199-44.495 38.355-72.458 11.11-28.052 20.281-59.319 27.187-92.69.829-4.187 1.783-8.312 2.498-12.56l2.274-12.71c1.321-8.613 2.742-17.166 3.799-25.903.567-4.367 1.158-8.705 1.572-13.107s.968-8.77 1.37-13.173l1.09-13.242c.401-4.403.562-8.873.861-13.28.574-8.873.842-17.7878 1.353-26.6632l13.904-293.5048z"/><path d="m437.793-210.171-9.636 205.85859-2.438 51.46321-1.22 25.7456c-.406 8.5725-.734 17.1208-1.22 25.7456-.28 4.297-.408 8.628-.816 12.891l-1.06 12.879c-.395 4.264-.879 8.523-1.326 12.783-.446 4.261-.967 8.49-1.515 12.718-1.019 8.488-2.372 16.68-3.654 25.015l-2.206 12.377c-.698 4.137-1.671 8.121-2.417 12.2-13.438 65.264-35.671 121.398-63.574 160.512-3.425 4.987-7.001 9.379-10.568 13.828l-5.439 6.235c-1.82 2.069-3.704 3.827-5.544 5.755-7.444 7.409-15.097 13.597-22.889 18.506-7.801 4.835-15.708 8.464-23.658 10.857-7.962 2.169-15.939 3.137-23.873 2.899-7.92-.527-15.77-2.245-23.492-5.142-7.691-3.131-15.219-7.501-22.525-13.074-7.293-5.623-14.327-12.506-21.037-20.587-1.65-2.093-3.358-4.021-4.976-6.252l-4.824-6.722c-3.118-4.765-6.276-9.477-9.214-14.765-24.081-41.577-40.907-99.561-48.116-165.803-.408-4.134-.898-8.187-1.252-12.374l-1.014-12.53c-.501-8.419-1.066-16.842-1.273-25.248-.158-4.261-.321-8.411-.319-12.804.003-4.394-.121-8.57-.111-12.851l.175-12.9219c.023-4.2808.279-8.6065.406-12.9104.255-8.6357.813-17.173 1.142-25.7492l1.22-25.7456 2.438-51.4632 9.867-205.8477.783.037-13.411 283.09c-.406 8.5725-.878 17.1699-1.128 25.7219-.126 4.2759-.405 8.5446-.402 12.8266l-.157 12.8105c-.009 4.253.091 8.4.115 12.767.025 4.367.181 8.404.323 12.721.206 8.406.784 16.829 1.273 25.248l1.019 12.418c.303 4.185.896 8.215 1.243 12.289 7.194 65.773 23.932 123.329 47.865 164.588 2.928 5.232 6.063 9.887 9.169 14.624l4.829 6.637c1.591 2.231 3.303 4.103 4.94 6.195 6.656 8.082 13.638 14.963 20.883 20.58 7.258 5.487 14.733 9.797 22.366 12.898 15.321 5.95 31.164 6.7 46.98 2.225 7.891-2.365 15.74-5.949 23.485-10.725 7.743-4.903 15.345-11.093 22.735-18.514 1.84-1.928 3.708-3.63 5.503-5.7l5.435-6.152c3.539-4.422 7.088-8.759 10.497-13.691 27.734-38.792 49.841-94.514 63.209-159.326.795-4.021 1.664-7.982 2.4-12.117l2.188-12.266c1.282-8.335 2.648-16.527 3.654-25.015.559-4.199 1.115-8.343 1.524-12.633.409-4.291.923-8.352 1.322-12.699l1.055-12.768c.382-4.264.533-8.539.825-12.8067.546-8.538.812-17.1451 1.295-25.714l13.41-283.0623z"/><path d="m432.187-210.436-9.289 198.2621-2.348 49.5644-1.175 24.7961c-.397 8.3771-.782 16.5028-1.239 24.7931-.274 4.1569-.396 8.3771-.794 12.4163l-1.012 12.406c-.387 4.096-.85 8.188-1.277 12.309-.427 4.122-.941 8.184-1.467 12.245-.979 8.181-2.284 16.18-3.527 24.237s-2.785 15.904-4.437 23.634c-12.945 62.837-34.349 116.89-61.21 154.579-6.644 9.447-13.591 17.757-20.772 24.847-7.167 7.185-14.54 13.171-22.051 17.902-7.519 4.667-15.14 8.169-22.804 10.478-7.669 2.071-15.351 2.997-22.993 2.773-7.629-.495-15.19-2.153-22.626-4.962-7.41-2.997-14.663-7.194-21.701-12.558-7.027-5.432-13.8-12.088-20.259-19.906-6.481-7.744-12.616-16.673-18.343-26.701-11.518-19.948-21.407-43.862-29.326-70.907-7.852-27.125-13.612-57.07-17.074-88.77-.914-7.851-1.535-15.913-2.196-23.948s-1.019-16.224-1.22-24.462c-.14-4.092-.294-8.186-.303-12.328-.01-4.142-.11-8.261-.095-12.3744l.152-12.4467c.029-4.1406.269-8.3832.396-12.4352.256-8.3838.783-16.5307 1.098-24.7997l1.176-24.8242 2.348-49.5644 9.507-198.2524.834.04-12.914 272.618c-.391 8.2375-.783 16.5308-1.097 24.7719-.117 4.1084-.39 8.2375-.379 12.352l-.147 12.3349c-.015 4.1132.074 8.2032.099 12.2902.025 4.088.165 8.18.307 12.245.204 8.182.762 16.212 1.229 24.266.467 8.055 1.274 15.985 2.191 23.781 6.968 63.369 23.145 118.781 46.253 158.438 5.683 9.927 11.771 18.761 18.202 26.414 6.413 7.747 13.138 14.335 20.115 19.703 6.985 5.289 14.18 9.436 21.528 12.411 14.752 5.736 30.007 6.459 45.235 2.143 7.6-2.27 15.159-5.718 22.617-10.319 7.449-4.686 14.763-10.609 21.875-17.715 7.127-7.004 14.023-15.223 20.618-24.575 26.7-37.323 47.984-90.952 60.855-153.336 1.649-7.674 3.014-15.586 4.429-23.467s2.541-15.916 3.517-24.041c.526-4.033 1.064-8.066 1.464-12.161.399-4.095.886-8.13 1.273-12.226l1.007-12.2939c.374-4.0962.518-8.2313.79-12.3324.531-8.2308.783-16.5308 1.263-24.764l12.915-272.6187z"/><path d="m426.568-210.703-8.929 190.667c-1.507 31.805-2.907 63.5311-4.517 95.3592-.267 3.9894-.379 7.9861-.772 11.9415l-.977 11.9319c-.81 7.8814-1.547 15.8234-2.635 23.6074-1.089 7.785-2.204 15.568-3.394 23.32s-2.666 15.294-4.266 22.747c-6.208 30.036-14.459 58.177-24.46 83.415-10.019 25.207-21.648 47.234-34.48 65.31-6.392 9.075-13.074 17.061-19.98 23.877-6.893 6.91-13.985 12.667-21.208 17.215-7.233 4.517-14.566 7.911-21.941 10.155-14.771 4.263-29.573 3.562-43.875-2.078-7.126-2.928-14.101-7-20.87-12.184-6.761-5.21-13.277-11.611-19.486-19.142-6.236-7.433-12.138-16.015-17.646-25.66-22.303-38.54-37.891-92.262-44.578-153.629-.927-7.572-1.473-15.322-2.11-23.049-.637-7.726-.983-15.607-1.174-23.536-.19-7.929-.33-15.8278-.392-23.7509l.156-11.9707c.021-3.9731.249-7.9643.374-11.9604 1.367-31.8397 3.01-63.55418 4.517-95.3592l9.135-190.6578.885.042-9.032 190.6626c-1.505 31.77709-3.089 63.5784-4.439 95.3349-.11 3.9408-.375 7.9023-.357 11.8772l-.15 11.8591c.077 7.8679.062 15.7872.4 23.5832.337 7.796.727 15.595 1.183 23.341s1.213 15.366 2.092 22.88c6.671 60.856 22.169 114.104 44.32 152.274 5.467 9.543 11.321 18.038 17.505 25.401 6.163 7.44 12.625 13.772 19.328 18.939 6.717 5.08 13.636 9.065 20.702 11.923 14.182 5.523 28.85 6.218 43.49 2.06 7.305-2.177 14.569-5.49 21.737-9.913 7.162-4.504 14.194-10.197 21.032-17.026 6.853-6.739 13.485-14.643 19.827-23.633 25.669-35.883 46.134-87.434 58.517-147.402 1.636-7.395 2.897-15.004 4.246-22.58 1.349-7.577 2.449-15.333 3.384-23.124.935-7.792 1.82-15.614 2.628-23.4404l.984-11.8196c.354-3.9572.491-7.9248.754-11.8584 1.658-31.7419 3.011-63.5541 4.593-95.3276l9.032-190.662z"/></g></svg>