<svg fill="none" height="899" viewBox="0 0 169 899" width="169" xmlns="http://www.w3.org/2000/svg"><g fill="#b4fbf7"><path d="m926.373 185.11-57.214 231.08-14.515 57.717-7.26 28.868-5.445 21.652-1.976 7.176-2.001 7.192c-.609 2.419-1.212 4.818-2.163 7.151l-4.699 14.165c-1.67 4.682-3.577 9.282-5.343 13.918-.946 2.313-1.751 4.661-2.793 6.928l-3.06 6.797c-3.874 9.186-8.586 17.947-13.145 26.703l-7.435 12.941-1.865 3.239-2.011 3.139-4.042 6.271-4.041 6.271-4.34 6.089-4.334 6.069-2.177 3.032-2.303 2.937-9.268 11.708-9.817 11.25c-13.361 14.772-27.786 28.545-43.159 41.21-30.945 25.191-65.572 45.485-102.671 60.175-9.227 3.789-18.715 6.825-28.222 9.943l-14.36 4.084c-2.33.743-4.831 1.228-7.247 1.8l-7.288 1.704c-2.425.526-4.836 1.163-7.287 1.618l-7.348 1.346c-4.922.906-9.763 1.831-14.74 2.445-4.977.613-9.873 1.332-14.815 1.89l-14.905 1.224c-19.932 1.198-39.925.934-59.818-.789-39.786-3.59-78.763-13.392-115.514-29.051-18.35-7.875-36.091-17.101-53.075-27.601l-12.558-8.11c-4.11-2.834-8.104-5.789-12.173-8.698-4.07-2.91-7.912-6.041-11.836-9.107l-5.836-4.662c-1.944-1.56-3.767-3.262-5.65-4.893l-5.6-4.923c-1.878-1.652-3.786-3.268-5.528-5.035l-10.74-10.395c-6.765-7.189-13.789-14.378-20.166-22.091-25.781-30.462-46.737-64.699-62.137-101.515-7.553-18.43-13.7458-37.389-18.5295-56.724l-3.3273-14.555-2.6264-14.7-.6402-3.676-.4839-3.702-.9475-7.397-.9426-7.418-.5944-7.437-.5745-7.432-.3075-3.721-.1107-3.736-.5286-14.945c.2105-9.957.2042-19.904 1.0499-29.744l.5196-7.436c.1547-2.49.5565-4.94.8372-7.42.6169-4.925 1.1331-9.875 1.8761-14.789l2.5413-14.708c.3866-2.475.9094-4.894 1.4775-7.324l1.6587-7.278 1.6336-7.262 5.4754-21.773 7.2598-28.868 14.515-57.717 58.887-230.65886.201.05069-85.2746 339.08317-1.6336 7.263-1.6334 7.263c-.6033 2.399-1.0858 4.828-1.4674 7.283l-2.5261 14.647c-.7228 4.92-1.2137 9.855-1.8508 14.775-.2555 2.465-.6572 4.914-.8069 7.385l-.5145 7.415c-.9012 9.891-.8848 19.798-1.05 29.744l.5439 14.884.1359 3.721.2871 3.716.5998 7.417.5846 7.392.9527 7.378.9727 7.382.4638 3.696.6452 3.656 2.7423 14.665 3.3426 14.495c4.7857 19.246 10.9727 38.117 18.5097 56.462 15.5 36.692 36.553 70.782 62.42 101.071 6.302 7.672 13.214 14.791 20.046 21.975l10.694 10.32c1.701 1.757 3.635 3.358 5.498 4.984l5.599 4.923c1.869 1.606 3.697 3.287 5.62 4.843l5.822 4.636c3.888 3.121 7.715 6.227 11.805 9.056s8.033 5.815 12.108 8.618l12.648 8.09c16.894 10.393 34.524 19.54 52.748 27.369 36.597 15.46 75.352 25.207 114.909 28.898 19.76 1.721 39.62 2.002 59.42.84l14.814-1.205c4.937-.537 9.833-1.257 14.765-1.86 4.931-.603 9.783-1.569 14.664-2.399l7.323-1.331c2.43-.46 4.836-1.077 7.247-1.628l7.257-1.669c2.411-.551 4.831-1.057 7.202-1.79l14.329-4.049c9.351-3.092 18.844-5.978 28.03-9.862 36.987-14.523 71.526-34.638 102.409-59.641 15.32-12.601 29.703-26.298 43.038-40.984l9.781-11.194 9.354-11.623 2.298-2.916 2.177-3.032 4.329-6.049 4.329-6.049 4.032-6.23 4.017-6.257 2.031-3.133 1.86-3.219 7.419-12.881c4.534-8.827 9.235-17.547 13.145-26.702l3.055-6.777c1.057-2.242 1.842-4.595 2.783-6.888 1.786-4.631 3.688-9.211 5.358-13.892l4.704-14.1c.845-2.339 1.508-4.722 2.152-7.111l1.997-7.172 2.016-7.166 85.265-339.043z"/><path d="m917.562 182.894-55.875 225.587-14.17 56.345-7.098 28.224-5.313 21.127-1.936 7.015-1.961 7.031c-.593 2.358-1.282 4.671-2.097 6.974l-4.597 13.848c-1.64 4.561-3.496 9.045-5.217 13.585-.911 2.258-1.705 4.566-2.732 6.773l-2.979 6.645c-3.793 8.949-8.388 17.503-12.817 26.164l-7.272 12.639-1.82 3.144-1.97 3.062-3.927 6.15c-10.556 16.326-22.399 31.783-35.416 46.223-13.05 14.415-27.134 27.858-42.139 40.224-30.238 24.571-64.078 44.342-100.331 58.62-8.994 3.719-18.27 6.68-27.5 9.717l-14.036 3.994c-4.626 1.345-9.442 2.256-14.172 3.424-2.28.541-4.726 1.148-7.111 1.598l-7.187 1.301c-4.795.83-9.561 1.882-14.382 2.384-4.82.503-9.651 1.303-14.482 1.846l-14.532 1.189c-19.427 1.169-38.914.918-58.305-.752-38.883-3.508-76.977-13.088-112.894-28.391-17.879-7.695-35.166-16.7-51.719-26.939l-12.266-7.908c-3.994-2.783-7.902-5.652-11.861-8.491s-7.731-5.91-11.563-8.91l-5.696-4.54c-1.914-1.51-3.706-3.076-5.529-4.777-3.6-3.242-7.392-6.318-10.866-9.721l-10.483-10.138c-6.791-7.088-13.452-14.1-19.632-21.571-25.162-29.745-45.62-63.169-60.664-99.107-7.367-17.991-13.409-36.496-18.078-55.368-4.658-18.882-7.7794-38.111-9.3318-57.498l-.5747-7.261-.2875-3.63-.1158-3.63-.4284-14.576c.2959-9.7.1937-19.436 1.0845-29.114l.5194-7.265c.1395-2.43.5511-4.834.8166-7.254.6117-4.818 1.0975-9.648 1.81-14.441l2.5007-14.376c.371-2.414.899-4.768 1.452-7.137l1.598-7.121 1.613-7.097 5.318-21.147 7.098-28.223 14.17-56.346 57.488-225.180936.262.065911-56.681 225.384025-26.571 105.656-1.588 7.081-1.588 7.081c-.593 2.359-1.06 4.728-1.427 7.122l-2.4801 14.38c-.7327 4.789-1.1933 9.603-1.8252 14.417-.2403 2.405-.647 4.789-.7814 7.198l-.4942 7.25c-.8806 9.638-.874 19.328-1.0589 29.013l.4436 14.516.1159 3.63.2923 3.61.5797 7.24c1.5911 19.297 4.7273 38.436 9.3783 57.231 4.679 18.791 10.719 37.217 18.073 55.131 15.025 35.76 35.441 69.007 60.538 98.583 6.135 7.481 12.897 14.433 19.557 21.445l10.331 10.057c3.444 3.353 7.236 6.428 10.842 9.65 1.752 1.555 3.6 3.242 5.493 4.747l5.681 4.515c3.818 2.975 7.493 6.171 11.518 8.834 4.025 2.662 7.832 5.678 11.811 8.436l12.215 7.852c16.48 10.156 33.684 19.09 51.473 26.727 35.735 15.104 73.58 24.621 112.208 28.219 19.285 1.688 38.669 1.956 57.993.802l14.476-1.14c4.811-.547 9.591-1.231 14.397-1.845 4.805-.613 9.556-1.519 14.326-2.334l7.141-1.291c2.38-.43 4.726-1.062 7.086-1.583 4.7-1.133 9.456-2.059 14.116-3.374l13.86-3.973c9.205-3.022 18.431-5.954 27.395-9.637 36.092-14.194 69.8-33.829 99.951-58.222 14.965-12.292 29.004-25.669 42.003-40.023 12.996-14.353 24.813-29.731 35.336-45.986l3.936-6.104 1.965-3.043 1.819-3.143 7.258-12.579c4.318-8.646 9.008-17.154 12.812-26.058l2.974-6.625c1.021-2.187 1.791-4.48 2.717-6.712 1.74-4.535 3.591-9 5.231-13.56l4.618-13.843c.81-2.283 1.458-4.606 2.092-6.954l1.95-6.99 1.951-6.991 83.247-331.019z"/><path d="m908.753 180.679-54.536 220.093-13.826 54.975-6.915 27.498c-2.307 9.172-4.422 18.35-7.077 27.457l-1.895 6.854c-.578 2.298-1.156 4.596-2.056 6.813l-4.486 13.49c-1.595 4.465-3.4 8.834-5.095 13.273-.891 2.177-1.651 4.429-2.642 6.581l-2.918 6.489c-3.697 8.737-8.201 17.1-12.508 25.534l-7.086 12.322-1.784 3.088-1.93 2.987-3.84 5.979c-10.289 15.941-21.846 31.026-34.558 45.11-12.736 14.062-26.473 27.184-41.104 39.262-29.544 23.954-62.586 43.237-97.974 57.176-8.777 3.623-17.816 6.494-26.84 9.476l-13.689 3.889c-4.609 1.284-9.133 2.225-13.828 3.338-2.275.521-4.57 1.123-6.95 1.553l-7.005 1.261c-4.664.82-9.309 1.817-14.044 2.32-4.735.502-9.389 1.282-14.114 1.83l-14.199 1.145c-18.95 1.157-37.96.911-56.874-.735-37.904-3.417-75.039-12.755-110.051-27.676-17.443-7.51-34.314-16.288-50.475-26.262l-11.963-7.746c-3.889-2.692-7.701-5.516-11.574-8.269-3.874-2.753-7.535-5.753-11.277-8.688l-5.575-4.424c-1.772-1.475-3.524-3.03-5.262-4.646-3.494-3.151-7.231-6.105-10.624-9.488l-10.221-9.901c-6.524-6.871-13.145-13.701-19.144-21.04-24.597-29.006-44.589-61.621-59.276-96.701-7.192-17.561-13.094-35.622-17.66-54.041-4.529-18.424-7.575-37.181-9.108-56.091l-.555-7.085-.287-3.544-.091-3.56-.414-14.208c.235-9.458.183-18.966 1.058-28.413l.5-7.098c.124-2.369.52-4.713.786-7.047.606-4.713 1.067-9.442 1.769-14.109l2.429-14.008c.377-2.349.874-4.667 1.412-6.975l1.572-6.935c1.99-9.274 4.609-18.325 6.754-27.539l6.916-27.497 13.825-54.975 56.068-219.70774.343.08615-76.048 302.39259c-2.302 9.153-4.77 18.285-6.729 27.523l-1.547 6.92c-.573 2.278-1.151 4.577-1.401 6.936l-2.395 13.952c-.702 4.667-1.177 9.371-1.758 14.069-.246 2.339-.637 4.662-.782 7.027l-.489 7.057c-.845 9.412-.843 18.865-1.012 28.318l.429 14.147.116 3.545.272 3.519.58 7.069c1.535 18.841 4.584 37.528 9.118 55.88 4.573 18.317 10.473 36.277 17.651 53.738 14.655 34.884 34.568 67.318 59.045 96.172 6.009 7.298 12.599 14.078 19.088 20.919l10.196 9.83c3.454 3.312 6.999 6.262 10.494 9.413 1.757 1.535 3.494 3.15 5.272 4.605l5.539 4.394c3.727 2.909 7.333 5.959 11.226 8.632 3.894 2.672 7.656 5.526 11.544 8.219l11.898 7.665c16.085 9.9 32.871 18.613 50.224 26.07 34.86 14.739 71.781 24.025 109.466 27.529 18.816 1.639 37.727 1.903 56.582.79l14.108-1.125c4.699-.533 9.369-1.202 14.058-1.78 4.69-.578 9.314-1.494 13.974-2.295l6.959-1.25c2.254-.441 4.539-1.002 6.824-1.564 4.569-1.123 9.218-1.968 13.697-3.328l13.633-3.838c8.974-2.952 17.967-5.813 26.714-9.401 35.218-13.835 68.105-32.991 97.514-56.799 14.585-11.988 28.279-25.021 40.973-38.995 12.683-14.021 24.216-29.041 34.487-44.913l3.836-5.959 1.904-2.972 1.779-3.068 7.071-12.261c4.261-8.424 8.796-16.736 12.503-25.428l2.908-6.449c.991-2.152 1.766-4.379 2.661-6.576 1.685-4.399 3.491-8.768 5.081-13.212l4.49-13.425c.795-2.222 1.433-4.505 2.046-6.773l1.911-6.829c2.644-9.066 4.729-18.294 7.112-27.426l76.048-302.393z"/><path d="m899.964 178.469-53.177 214.604-13.481 53.604-6.743 26.813c-2.246 8.93-4.325 17.881-6.904 26.771l-1.855 6.693c-.562 2.238-1.226 4.45-1.99 6.637l-4.38 13.153c-1.543 4.348-3.324 8.616-4.969 12.94-.86 2.141-1.604 4.333-2.58 6.424l-2.832 6.318c-3.622 8.521-8.01 16.677-12.201 24.904l-6.924 12.02-1.718 2.997-1.89 2.912-3.743 5.853c-10.038 15.536-21.306 30.242-33.695 43.977-12.412 13.722-25.816 26.513-40.104 38.27-28.779 23.373-60.981 42.182-95.476 55.768-8.541 3.533-17.373 6.349-26.159 9.24l-13.346 3.803c-4.453 1.26-9.108 2.125-13.486 3.253-2.269.501-4.539 1.002-6.808 1.503l-6.748 1.261c-4.493.821-9.022 1.783-13.686 2.26-4.664.478-9.167 1.253-13.756 1.771l-13.851 1.125c-18.509 1.119-37.075.878-55.548-.723-36.96-3.336-73.168-12.442-107.309-26.987-17.035-7.32-33.508-15.883-49.287-25.62l-11.651-7.538c-3.817-2.632-7.54-5.39-11.302-8.073-3.762-2.682-7.353-5.622-10.989-8.465l-5.348-4.303c-1.778-1.455-3.525-3.03-5.288-4.545-3.524-3.03-7.049-6.06-10.337-9.266l-9.984-9.648c-6.373-6.705-12.802-13.359-18.676-20.516-23.954-28.296-43.426-60.099-57.736-94.299-6.954-17.117-12.65-34.718-17.043-52.664-4.429-17.965-7.398-36.26-8.878-54.704l-.555-6.913-.267-3.454-.116-3.458-.394-13.861c.179-9.236.172-18.497 1.032-27.712l.493-6.906c.13-2.304.511-4.588.746-6.886.597-4.587 1.067-9.185 1.744-13.751l2.383-13.655c.341-2.293.844-4.546 1.366-6.794l1.532-6.774c1.934-9.052 4.497-17.882 6.582-26.853l6.743-26.812 13.48-53.604 54.649-214.2344.423.10644-74.146 294.83296c-2.246 8.931-4.633 17.826-6.537 26.843l-1.521 6.733c-.563 2.238-1.121 4.456-1.361 6.775l-2.348 13.599c-.672 4.546-1.142 9.144-1.708 13.695-.256 2.294-.637 4.577-.761 6.861l-.468 6.891c-.83 9.18-.833 18.396-1.007 27.612l.429 13.805.096 3.453.293 3.439.54 6.888c1.514 18.355 4.497 36.559 8.923 54.437 4.446 17.875 10.19 35.402 17.184 52.442 14.283 34.02 33.697 65.649 57.566 93.785 5.843 7.107 12.242 13.796 18.62 20.394l9.934 9.593c3.288 3.206 6.889 6.019 10.292 9.19 1.768 1.495 3.525 3.03 5.293 4.525l5.353 4.283c3.581 2.808 7.116 5.798 10.959 8.415s7.454 5.389 11.237 7.991l11.621 7.488c15.676 9.653 32.037 18.145 48.954 25.408 33.984 14.377 69.982 23.43 106.724 26.84 18.346 1.605 36.786 1.865 55.17.778l13.76-1.105c4.564-.503 9.122-1.157 13.701-1.72 4.578-.564 9.072-1.47 13.615-2.235l6.743-1.241c2.249-.42 4.539-1.002 6.803-1.483 4.539-1.002 9.078-2.004 13.436-3.223l13.289-3.752c8.742-2.882 17.523-5.668 26.033-9.165 34.336-13.504 66.402-32.186 95.083-55.396 14.229-11.697 27.581-24.423 39.948-38.074 12.371-13.645 23.612-28.273 33.613-43.74l3.754-5.807 1.864-2.897 1.719-2.997 6.909-11.959c4.201-8.182 8.578-16.298 12.175-24.803l2.847-6.293c.971-2.071 1.715-4.263 2.575-6.405 1.655-4.278 3.415-8.551 4.974-12.874l4.364-13.092c.784-2.182 1.403-4.385 2.006-6.612l1.864-6.648c2.569-8.849 4.613-17.83 6.92-26.746l20.223-80.416 53.923-214.417z"/><path d="m891.133 176.248-51.778 209.126-13.136 52.234-6.591 26.207c-2.19 8.709-4.214 17.438-6.732 26.172l-1.809 6.511c-.552 2.198-1.1 4.375-1.95 6.476l-4.273 12.815c-1.513 4.228-3.228 8.405-4.843 12.607-.845 2.081-1.573 4.213-2.519 6.269l-2.772 6.162c-3.52 8.288-7.771 16.243-11.886 24.254l-6.722 11.727-1.698 2.917-1.829 2.841-3.578 5.702c-39.562 60.971-97.238 108.009-164.919 134.503-8.348 3.451-16.948 6.197-25.503 9.019l-13.018 3.692c-4.322 1.249-8.755 2.085-13.133 3.128-2.264.481-4.377 1.042-6.586 1.473l-6.732 1.2c-4.479.76-8.856 1.717-13.409 2.18-4.554.462-8.885 1.238-13.423 1.725l-13.478 1.091c-18.009 1.079-36.073.835-54.046-.731-36.014-3.256-71.297-12.129-104.567-26.298-16.579-7.13-32.616-15.462-47.982-24.927l-11.359-7.336c-3.641-2.567-7.258-5.234-11.01-7.871s-7.197-5.475-10.782-8.263l-5.364-4.242c-1.788-1.415-3.384-2.995-5.106-4.414-3.364-2.989-6.838-5.878-10.091-8.968l-9.722-9.411c-6.197-6.553-12.48-13.02-18.183-20.006-47.111-55.353-75.682-124.083-81.692-196.522l-.455-6.716-.267-3.368-.096-3.368-.395-13.517c.124-9.015.242-18.009 1.001-26.992l.473-6.74c.139-2.258.506-4.481.746-6.714.586-4.461 1.031-8.958 1.697-13.399l2.318-13.306c.346-2.228.813-4.426 1.345-6.628l1.487-6.593c1.872-8.81 4.38-17.418 6.429-26.248l6.591-26.207 13.136-52.233 53.25-208.75636.483.12167-72.25 287.29369c-2.19 8.709-4.522 17.382-6.409 26.253l-1.477 6.552c-.547 2.177-.994 4.38-1.34 6.608l-2.262 13.256c-.667 4.441-1.122 8.892-1.682 13.338-.241 2.233-.607 4.456-.741 6.694l-.468 6.72c-.809 8.928-.797 17.912-.95 26.876l.41 13.457.101 3.347.267 3.368.465 6.676c3.054 35.816 11.631 70.943 25.426 104.136 13.943 33.109 32.867 63.89 56.116 91.277 5.698 6.92 11.946 13.357 18.133 19.864l9.677 9.336c3.222 3.125 6.707 5.973 10.03 8.953 1.773 1.474 3.344 2.984 5.086 4.408l5.374 4.202c3.59 2.768 6.959 5.652 10.672 8.193 3.712 2.541 7.252 5.253 10.899 7.799l11.308 7.281c15.259 9.447 31.196 17.754 47.679 24.852 33.11 14.013 68.184 22.834 103.983 26.15 17.881 1.534 35.851 1.755 53.764.66l13.407-1.065c4.417-.519 8.865-1.158 13.292-1.716 4.427-.559 8.926-1.399 13.278-2.17l6.722-1.16c2.244-.4 4.378-1.042 6.566-1.478 4.358-1.048 8.755-1.914 13.073-3.143l12.942-3.647c8.529-2.806 17.078-5.522 25.371-8.924 67.413-26.275 124.895-73.017 164.364-133.656l3.567-5.662 1.829-2.841 1.694-2.896 6.726-11.662c4.145-7.96 8.286-15.9 11.857-24.133l2.766-6.142c.94-2.036 1.67-4.167 2.515-6.248 1.609-4.182 3.313-8.319 4.847-12.542l4.257-12.755c.75-2.126 1.358-4.288 1.946-6.455l1.799-6.471c2.528-8.603 4.516-17.362 6.792-26.157l72.23-287.213z"/><path d="m882.324 174.033-50.5 203.617-12.791 50.863-6.383 25.38c-2.134 8.488-4.097 16.975-6.539 25.406l-1.769 6.35c-.532 2.117-1.17 4.229-1.904 6.295l-4.147 12.482c-1.468 4.132-3.152 8.188-4.716 12.275-1.563 4.087-3.349 8.117-5.184 12.093-3.425 8.077-7.58 15.82-11.579 23.624l-6.555 11.405-1.642 2.866-1.789 2.766-3.537 5.541c-38.541 59.368-94.712 105.171-160.624 130.974-8.106 3.341-16.514 6.007-24.817 8.763l-12.674 3.607c-4.227 1.209-8.529 2.035-12.8 3.083-2.134.471-4.277 1.068-6.431 1.448l-6.47 1.181c-4.322.735-8.628 1.666-12.99 2.134s-8.719 1.173-13.07 1.686l-13.11.99c-17.541 1.065-35.136.838-52.644-.679-35.072-3.161-69.431-11.802-101.826-25.607-16.14-6.951-31.749-15.075-46.702-24.306l-11.082-7.074c-3.657-2.506-7.162-5.102-10.723-7.648s-6.975-5.334-10.43-8.046l-5.162-4.106c-1.793-1.394-3.308-2.868-4.985-4.297-3.243-2.959-6.662-5.727-9.819-8.771l-9.46-9.174c-6.031-6.361-12.158-12.682-17.72-19.461-22.674-26.813-41.121-56.931-54.703-89.313-13.454-32.493-21.807-66.869-24.763-101.912l-.495-6.555-.248-3.277-.111-3.308-.38-13.149c.189-8.762.131-17.565.975-26.291.303-4.36.571-8.751 1.152-13.106.581-4.356 1.011-8.706 1.652-13.046l2.252-12.959c.33-2.167.807-4.319 1.299-6.446l1.466-6.426c1.817-8.589 4.264-16.954 6.237-25.482l6.399-25.441 12.791-50.863 51.83-203.28268.564.14197-70.318 279.61271c-2.13 8.467-4.405 16.919-6.212 25.467l-1.436 6.391c-.507 2.016-1.065 4.233-1.294 6.426l-2.217 12.903c-.636 4.32-1.086 8.666-1.636 12.985-.551 4.32-.88 8.696-1.143 13.067-.793 8.696-.785 17.443-.944 26.17l.395 13.088.122 3.268.247 3.277.495 6.555c5.904 70.19 33.669 136.762 79.387 190.348 5.547 6.753 11.724 13.044 17.619 19.435l9.435 9.103c3.117 3.034 6.516 5.797 9.769 8.716 1.657 1.424 3.242 2.959 4.95 4.267l5.126 4.075c3.44 2.687 6.779 5.521 10.38 7.991s7.097 5.107 10.673 7.592l11.081 7.074c14.873 9.164 30.398 17.223 46.451 24.114 32.243 13.624 66.389 22.212 101.241 25.461 17.402 1.525 34.893 1.769 52.331.728l13.11-.99c4.407-.478 8.658-1.102 12.995-1.64 4.336-.539 8.623-1.39 12.924-2.13l6.445-1.166c2.133-.385 4.247-.947 6.38-1.417 4.257-1.073 8.548-1.859 12.75-3.053l12.598-3.562c8.293-2.716 16.635-5.376 24.717-8.788 65.628-25.583 121.582-71.101 159.987-130.149l3.537-5.541 1.789-2.765 1.632-2.826 6.54-11.345c3.989-7.763 8.174-15.456 11.548-23.503 1.815-3.98 3.631-7.961 5.174-12.052 1.544-4.092 3.238-8.103 4.701-12.215l4.152-12.417c.733-2.066 1.327-4.167 1.899-6.274l1.759-6.309c2.452-8.386 4.384-16.924 6.574-25.376l70.339-279.693z"/><path d="m873.514 171.817-49.463 198.048-12.446 49.492-6.226 24.755c-2.074 8.246-3.986 16.532-6.347 24.726l-1.723 6.168c-.507 2.016-1.039 4.133-1.838 6.119l-4.02 12.149c-1.418 3.931-3.072 7.952-4.59 11.943s-3.217 7.764-5.093 11.73c-3.329 7.865-7.342 15.301-11.225 22.898l-6.373 11.108-1.597 2.771-1.728 2.695-3.496 5.379c-37.449 57.763-92.053 102.341-156.142 127.472-7.895 3.266-16.051 5.866-24.141 8.547l-12.327 3.502c-4.096 1.113-8.302 1.985-12.462 3.017-2.088.461-4.176 1.094-6.244 1.388l-6.314 1.156c-4.195.745-8.381 1.622-12.637 2.095s-8.456 1.153-12.712 1.626l-12.767 1.076c-17.086 1.045-34.225.825-51.278-.657-34.129-3.067-67.564-11.475-99.084-24.918-15.721-6.771-30.924-14.685-45.488-23.679l-10.759-6.993c-3.506-2.424-6.961-4.965-10.431-7.445-3.47-2.481-6.774-5.198-10.143-7.824l-5.016-4.005c-1.657-1.339-3.218-2.803-4.839-4.197-3.142-2.933-6.491-5.555-9.537-8.528l-9.204-8.917c-5.875-6.214-11.896-12.358-17.226-18.95-44.591-52.453-71.62-117.564-77.285-186.176l-.536-6.393-.247-3.192-.097-3.196-.36-12.802c.173-8.53.185-17.101.923-25.489.288-4.214.556-8.434 1.062-12.744.505-4.31.974-8.479 1.625-12.688l2.186-12.611c.326-2.061.777-4.198 1.274-6.26l1.421-6.244c1.776-8.342 4.152-16.511 6.084-24.792l6.226-24.756 12.447-49.491 50.128-197.8806.605.1521-68.443 272.1535c-2.073 8.245-4.293 16.475-6.059 24.777l-1.391 6.209c-.507 2.016-1.039 4.133-1.248 6.245l-2.176 12.571c-.611 4.133-1.05 8.438-1.57 12.637-.521 4.199-.864 8.464-1.057 12.723-.758 8.384-.749 16.96-.923 25.49l.381 12.72.096 3.197.253 3.172.545 6.353c2.891 33.924 11.017 67.195 24.088 98.633 13.219 31.41 31.178 60.605 53.25 86.569 5.375 6.582 11.3 12.681 17.17 18.83l9.154 8.861c3.061 2.913 6.364 5.63 9.506 8.478 1.627 1.373 3.142 2.933 4.83 4.151l4.98 3.975c3.354 2.601 6.602 5.368 10.118 7.753 3.516 2.384 6.87 4.985 10.381 7.39l10.678 6.972c14.477 8.908 29.584 16.747 45.201 23.457 31.368 13.262 64.59 21.616 98.5 24.771 16.933 1.477 33.951 1.716 50.919.717l12.707-1.092c4.23-.457 8.436-1.072 12.641-1.6 4.206-.529 8.397-1.34 12.582-2.045l6.269-1.145c2.087-.376 4.155-.927 6.218-1.373 4.156-1.098 8.301-1.814 12.387-2.973l12.276-3.471c8.06-2.646 16.165-5.216 24.035-8.467 64.014-24.758 118.647-68.978 156.201-126.428l3.486-5.339 1.723-2.675 1.597-2.77 6.373-11.023c3.883-7.597 7.901-15.053 11.245-22.893 1.739-3.85 3.519-7.689 5.088-11.71 1.568-4.021 3.162-7.886 4.594-11.877l4.031-12.104c.708-1.965 1.276-3.966 1.853-6.093l1.713-6.128c2.371-8.149 4.268-16.46 6.402-24.69l68.443-272.154z"/><path d="m864.704 169.602-48.104 192.559-12.102 48.12-6.053 24.071c-2.028 8.064-3.869 16.067-6.174 24.04l-1.663 6.012c-.507 2.016-1.115 4.007-1.803 5.977l-3.949 11.868c-1.397 3.935-2.996 7.82-4.443 11.615-1.447 3.794-3.151 7.674-4.871 11.443-3.227 7.633-7.15 14.963-10.936 22.349l-6.187 10.791-1.556 2.695-1.687 2.619-3.35 5.224c-36.42 56.167-89.523 99.512-151.847 123.943-7.683 3.191-15.607 5.721-23.526 8.316l-11.984 3.417c-3.994 1.139-8.074 1.934-12.119 2.932-2.022.456-4.04.977-6.087 1.363l-6.112 1.121c-4.1.705-8.16 1.591-12.299 2.029-4.14.438-8.235 1.123-12.36 1.586l-12.429 1.011c-16.589 1.017-33.231.815-49.791-.604-33.181-3-65.688-11.175-96.342-24.229-15.268-6.583-30.032-14.279-44.173-23.026l-10.472-6.771c-3.415-2.359-6.759-4.829-10.139-7.243-3.379-2.415-6.597-5.046-9.856-7.602l-4.875-3.884c-1.621-1.308-3.127-2.737-4.713-4.1-3.076-2.767-6.294-5.398-9.275-8.291l-8.942-8.68c-5.709-6.022-11.493-12-16.798-18.435-21.485-25.407-38.948-53.957-51.78-84.656-12.717-30.727-20.6-63.236-23.37-96.374l-.581-6.212-.228-3.101-.096-3.111-.366-12.438c.178-8.294.19-16.607.937-24.864.309-4.21.562-8.283 1.142-12.381s.96-8.333 1.56-12.34l2.155-12.319c.305-2.066.752-4.098 1.239-6.119l1.379-6.083c1.726-8.14 3.955-16.153 5.913-24.106l6.053-24.07 12.102-48.121 48.729-192.4022.686.1723-66.557 264.6539c-2.028 8.064-4.177 16.098-5.867 24.096l-1.38 6.084c-.507 2.016-1.014 4.032-1.239 6.119l-2.089 12.228c-.631 4.128-1.03 8.186-1.545 12.279s-.823 8.217-1.111 12.346c-.743 8.237-.719 16.495-.887 24.748l.376 12.398.102 3.09.253 3.086.586 6.192c5.595 66.382 31.852 129.341 75.081 180.027 5.249 6.4 11.003 12.327 16.702 18.304l8.902 8.669c2.96 2.888 6.163 5.494 9.245 8.241 1.566 1.358 3.076 2.767 4.683 4.05l4.839 3.853c3.264 2.536 6.426 5.217 9.826 7.551s6.694 4.835 10.089 7.189l10.421 6.715c14.068 8.66 28.751 16.278 43.932 22.794 30.492 12.9 62.79 21.022 95.757 24.082 16.457 1.44 32.997 1.674 49.488.699l12.359-.986c4.104-.468 8.194-1.047 12.288-1.561 4.095-.513 8.155-1.314 12.229-2.004l6.087-1.106c2.043-.365 4.04-.892 6.062-1.348 3.994-.967 8.069-1.743 12.044-2.887l11.923-3.432c7.848-2.57 15.722-5.07 23.374-8.225 62.063-24.207 114.98-67.254 151.312-123.092l3.445-5.178 1.662-2.604 1.552-2.675 6.196-10.746c3.776-7.345 7.684-14.615 10.926-22.223 1.74-3.849 3.434-7.517 4.861-11.402 1.427-3.886 3.066-7.675 4.468-11.545l3.924-11.766c.688-1.971 1.256-3.971 1.803-5.977l1.682-6.008c2.33-7.987 4.056-16.127 6.21-24.009l66.562-264.675z"/><path d="m855.874 167.381-46.725 187.076-11.757 46.75-5.881 23.385c-1.962 7.802-3.773 15.599-6.002 23.355l-1.617 5.831c-.507 2.016-1.079 3.865-1.752 5.775l-3.807 11.475c-1.362 3.794-2.9 7.523-4.337 11.277s-3.055 7.462-4.704 11.12c-3.157 7.437-6.978 14.535-10.628 21.72l-6.024 10.488-1.511 2.599-1.648 2.544-3.254 5.098c-35.399 54.565-86.997 96.674-147.551 120.415-7.446 3.1-15.152 5.535-22.799 8.07l-11.555 3.332c-3.894 1.164-7.848 1.884-11.756 2.852-15.759 3.554-31.771 5.87-47.891 6.926-16.118.973-32.285.768-48.374-.613-32.238-2.907-63.822-10.85-93.6-23.539-14.837-6.393-29.184-13.87-42.924-22.369-13.703-8.539-26.71-18.146-38.902-28.732-3.006-2.706-6.138-5.251-9.028-8.079l-8.604-8.401c-5.558-5.856-11.171-11.662-16.29-17.901-42.156-49.577-67.706-111.124-73.055-175.98l-.475-6.036-.228-3.015-.102-3.005-.346-12.09c.163-8.061.154-16.123.911-24.163.278-4.003.521-8.036 1.096-12.028.575-3.993.919-8 1.514-11.987l2.074-11.911c.325-2.061.736-3.951 1.208-5.912l1.334-5.902c1.685-7.893 3.919-15.583 5.76-23.415l5.881-23.385 11.757-46.75 47.331-186.9241.746.1875-64.687 257.2156c-1.957 7.781-4.06 15.548-5.714 23.405l-1.324 5.862c-.507 2.016-.979 3.891-1.183 5.897l-2.044 11.875c-.59 3.967-.994 7.96-1.499 11.927-.504 3.967-.807 7.985-1.065 11.992-.727 8.006-.708 16.027-.86 24.048l.361 12.03.101 3.005.233 2.995.481 6.015c5.443 64.464 30.952 125.6 72.94 174.816 5.104 6.213 10.687 11.968 16.214 17.774l8.615 8.361c2.86 2.863 5.992 5.322 8.983 8.004 12.141 10.503 25.087 20.037 38.72 28.514 13.668 8.412 27.933 15.811 42.682 22.137 29.618 12.536 60.992 20.426 93.017 23.392 15.987 1.404 32.055 1.633 48.076.688 16.021-1.019 31.938-3.295 47.603-6.805 3.903-.948 7.847-1.714 11.7-2.802l11.545-3.292c7.617-2.5 15.278-4.924 22.694-7.989 60.274-23.498 111.669-65.294 146.96-119.514l3.268-5.072 1.643-2.524 1.491-2.604 6.029-10.423c3.66-7.139 7.471-14.197 10.618-21.594 1.648-3.657 3.317-7.31 4.714-11.075 1.397-3.764 2.965-7.442 4.321-11.216l3.818-11.429c.688-1.971 1.215-3.81 1.747-5.755l1.606-5.791c2.26-7.706 4.04-15.553 6.057-23.319l64.666-257.135z"/><path d="m847.065 165.165-45.347 181.507-11.412 45.379-5.709 22.7c-1.901 7.56-3.661 15.155-5.849 22.664l-1.551 5.655c-.476 1.895-.953 3.789-1.692 5.619l-3.701 11.136c-1.311 3.679-2.818 7.287-4.21 10.945-1.391 3.658-2.979 7.246-4.583 10.808-3.055 7.205-6.76 14.097-10.294 20.989l-5.857 10.166-1.456 2.549-1.572 2.756-3.172 4.946c-34.364 52.949-84.441 93.812-143.206 116.857-7.183 2.995-14.704 5.369-22.139 7.829l-11.313 3.221c-3.762 1.069-7.615 1.814-11.408 2.747-15.295 3.459-30.839 5.706-46.488 6.721-15.663.95-31.374.753-47.008-.59-31.293-2.826-61.951-10.536-90.859-22.85-14.414-6.197-28.352-13.45-41.699-21.697-13.295-8.303-25.92-17.634-37.758-27.908-2.921-2.621-5.963-5.101-8.747-7.837l-8.428-8.164c-5.397-5.644-10.854-11.304-15.822-17.376-20.257-23.965-36.726-50.891-48.832-79.842-12.032-28.983-19.502-59.653-22.147-90.922l-.456-5.859-.228-2.93-.096-2.939-.332-11.722c.147-7.83.143-15.654.86-23.362.252-3.902.505-7.804 1.054-11.695.55-3.892.904-7.768 1.489-11.629l2.008-11.563c.295-1.941.711-3.851 1.167-5.751l1.289-5.72c1.624-7.651 3.807-15.14 5.587-22.73l5.709-22.7 11.412-45.379 45.911-181.365.827.2078-62.709 249.3532c-1.902 7.56-3.929 15.11-5.542 22.72l-1.284 5.7c-.472 1.875-.847 3.796-1.137 5.716l-1.998 11.523c-.56 3.846-.953 7.712-1.433 11.578-.479 3.866-.792 7.753-1.06 11.63-.686 7.758-.677 15.562-.839 23.367l.367 11.667.081 2.914.228 2.929.466 5.819c5.278 62.58 30.037 121.931 70.795 169.71 4.917 6.017 10.369 11.611 15.746 17.25l8.398 8.113c2.789 2.717 5.816 5.171 8.756 7.797 11.781 10.187 24.34 19.437 37.563 27.666 13.266 8.164 27.114 15.343 41.432 21.48 28.742 12.172 59.193 19.83 90.274 22.702 15.518 1.367 31.115 1.593 46.665.676 15.548-.997 30.995-3.204 46.201-6.601 3.772-.937 7.6-1.668 11.403-2.726l11.237-3.176c7.385-2.43 14.829-4.845 22.013-7.754 58.511-22.814 108.401-63.392 142.655-116.03l3.162-4.907 1.587-2.473 1.471-2.524 5.822-10.11c3.564-6.927 7.264-13.799 10.314-20.984 1.598-3.542 3.237-7.074 4.588-10.742 1.351-3.669 2.889-7.226 4.195-10.885l3.71-11.091c.633-1.834 1.191-3.709 1.682-5.579l1.566-5.629c2.178-7.469 3.802-15.12 5.865-22.639l62.77-249.595z"/><path d="m838.255 162.95-44.008 176.099-11.067 44.008-5.536 22.014c-1.846 7.338-3.545 14.692-5.658 21.984l-1.51 5.493c-.461 1.835-.922 3.67-1.646 5.438l-3.594 10.799c-1.266 3.583-2.723 7.075-4.069 10.638-1.346 3.562-2.878 7.014-4.451 10.455-2.959 6.994-6.553 13.699-10.006 20.44l-5.676 9.869-1.415 2.473-1.546 2.398-3.067 4.78c-33.32 51.379-81.903 91.027-138.92 113.369-7.032 2.904-14.179 5.244-21.483 7.608l-10.965 3.116c-3.652 1.053-7.388 1.764-11.07 2.681-14.834 3.343-29.907 5.515-45.082 6.496-15.178.923-30.404.733-45.555-.568-30.349-2.745-60.081-10.222-88.118-22.16-13.97-6.023-27.481-13.06-40.424-21.055-12.9-8.043-25.145-17.093-36.62-27.064-2.835-2.535-5.786-4.949-8.51-7.585l-8.167-7.927c-5.215-5.598-10.526-10.985-15.328-16.865-39.684-46.645-63.734-104.564-68.763-165.599l-.461-5.667-.228-2.844-.077-2.849-.332-11.379c.147-7.572.152-15.18.854-22.742.262-3.771.509-7.567 1.049-11.332s.842-7.526 1.422-11.281l1.942-11.215c.3-1.875.701-3.725 1.142-5.565l1.248-5.559c1.589-7.424 3.691-14.676 5.416-22.044l5.536-22.015 11.067-44.008 44.532-175.967.908.2282-60.874 242.0558c-1.84 7.318-3.812 14.645-5.39 22.029l-1.238 5.519c-.461 1.835-.923 3.669-1.117 5.549l-1.906 11.16c-.575 3.735-.943 7.501-1.413 11.241-.469 3.74-.776 7.521-1.014 11.277-.691 7.521-.666 15.093-.828 22.641l.347 11.319.102 2.833.213 2.819.466 5.647c5.106 60.682 29.112 118.235 68.639 164.56 4.792 5.835 10.032 11.247 15.263 16.699l8.136 7.876c2.704 2.631 5.64 5.02 8.46 7.529 11.416 9.897 23.602 18.868 36.444 26.827 12.864 7.906 26.287 14.864 40.163 20.818 27.876 11.782 57.399 19.206 87.532 22.013 15.042 1.323 30.16 1.543 45.233.659 15.079-.938 30.06-3.077 44.799-6.396 3.672-.877 7.388-1.593 11.015-2.631l10.894-3.091c7.173-2.354 14.37-4.638 21.367-7.487 28.227-11.036 54.594-26.338 78.179-45.372 23.449-19.103 43.801-41.721 60.331-67.05l3.082-4.755 1.521-2.382 1.43-2.449 5.661-9.808c3.448-6.721 7.031-13.386 9.98-20.339 1.568-3.421 3.141-6.862 4.442-10.415 1.3-3.553 2.813-7.009 4.093-10.567l3.579-10.738c.638-1.769 1.14-3.593 1.642-5.418l1.52-5.448c2.123-7.247 3.691-14.676 5.692-21.953l60.884-242.096z"/><path d="m829.405 160.724-42.649 170.611-10.723 42.637-5.364 21.329c-1.789 7.116-3.408 14.147-5.485 21.298-1.038 3.533-1.795 7.137-3.05 10.594l-3.488 10.461c-1.235 3.462-2.646 6.858-3.942 10.305-1.295 3.447-2.802 6.797-4.33 10.143-2.858 6.762-6.335 13.261-9.697 19.81l-5.489 9.551c-.88 1.622-1.849 3.179-2.86 4.725l-2.986 4.629c-32.308 49.737-79.368 88.119-134.584 109.766-6.816 2.808-13.842 5.093-20.823 7.367l-10.617 3.01c-3.535 1.018-7.161 1.714-10.747 2.591-14.365 3.244-28.963 5.349-43.659 6.297-14.709.904-29.464.718-44.144-.556-14.668-1.443-29.217-3.913-43.54-7.391-14.261-3.721-28.247-8.427-41.856-14.085-13.526-5.83-26.606-12.644-39.135-20.388-12.506-7.788-24.379-16.55-35.507-26.205-2.745-2.47-5.59-4.793-8.223-7.363l-7.945-7.699c-5.09-5.331-10.189-10.622-14.845-16.316-38.423-45.186-61.736-101.268-66.668-160.377l-.416-5.506c-.184-1.826-.282-3.651-.31-5.501l-.312-11.032c.151-7.335.141-14.711.822-22.021.257-3.664.474-7.34 1.003-10.979.53-3.639.832-7.314 1.382-10.948l1.896-10.862c.57-3.63 1.548-7.178 2.304-10.781 1.532-7.203 3.574-14.213 5.243-21.36l5.364-21.328 10.722-42.638 43.133-170.4886.968.2434-58.978 234.5162c-1.784 7.096-3.695 14.182-5.197 21.349-.746 3.563-1.785 7.096-2.289 10.72l-1.86 10.807c-.545 3.614-.908 7.274-1.367 10.888s-.736 7.274-.968 10.924c-.676 7.289-.656 14.625-.797 21.92l.328 10.971c.032 1.83.131 3.655.315 5.481l.426 5.466c4.955 58.779 28.205 114.527 66.483 159.409 4.645 5.648 9.75 10.918 14.784 16.214l7.9 7.624c2.618 2.545 5.468 4.848 8.177 7.287 11.067 9.584 22.868 18.286 35.296 26.024 12.458 7.673 25.46 14.425 38.903 20.201 27.001 11.42 55.601 18.612 84.792 21.323 14.576 1.271 29.225 1.473 43.831.606 14.61-.938 29.123-3.022 43.407-6.231 3.54-.867 7.141-1.548 10.652-2.551l10.566-2.98c7.001-2.269 13.992-4.498 20.696-7.292 54.955-21.435 101.812-59.552 133.983-108.995l2.961-4.614c1.026-1.521 1.976-3.082 2.871-4.679l5.478-9.511c3.347-6.489 6.814-12.948 9.687-19.685 1.502-3.33 3.045-6.65 4.295-10.087s2.717-6.797 3.946-10.239l3.473-10.401c1.23-3.442 2.047-7.03 3.076-10.523 2.046-7.03 3.674-14.187 5.499-21.273l58.978-234.516z"/><path d="m820.635 158.518-41.29 165.123-10.378 41.266-5.191 20.644c-1.729 6.874-3.337 13.779-5.313 20.612-1.008 3.412-1.738 6.915-2.963 10.251l-3.362 10.129c-1.21 3.361-2.55 6.646-3.836 9.967-1.285 3.321-2.706 6.586-4.163 9.82-2.787 6.566-6.163 12.833-9.389 19.181l-5.327 9.249c-.864 1.562-1.779 3.068-2.774 4.554l-2.89 4.503c-15.551 23.923-34.714 45.293-56.807 63.35-22.161 17.994-46.95 32.485-73.502 42.968-6.558 2.637-13.382 4.886-20.136 7.11l-10.274 2.925c-3.44.979-6.854 1.685-10.405 2.507-13.906 3.136-28.037 5.18-42.262 6.112-14.239.855-28.521.673-42.733-.544-28.465-2.586-56.352-9.599-82.654-20.787-13.097-5.65-25.766-12.246-37.906-19.735-12.093-7.548-23.576-16.033-34.343-25.378-2.659-2.383-5.413-4.64-7.961-7.124l-7.688-7.443c-4.893-5.174-9.867-10.283-14.372-15.81-37.204-43.751-59.767-98.059-64.518-155.293l-.416-5.334c-.153-1.775-.267-3.54-.29-5.325l-.297-10.663c.141-7.124.131-14.243.801-21.341.227-3.543.458-7.108.957-10.626s.812-7.062 1.336-10.596l1.83-10.514c.559-3.503 1.512-6.95 2.238-10.433 1.492-6.956 3.463-13.769 5.192-20.643l5.191-20.644 10.378-41.266 41.734-165.0109 1.048.2636-57.081 226.9763c-1.729 6.874-3.584 13.738-5.046 20.659-.721 3.462-1.723 6.854-2.202 10.377l-1.815 10.454c-.519 3.513-.867 7.027-1.32 10.535-.454 3.509-.701 7.048-.948 10.587-.635 7.042-.615 14.12-.776 21.239l.333 10.608c.023 1.785.136 3.55.295 5.304l.427 5.295c4.804 56.876 27.299 110.82 64.327 154.258 4.51 5.421 9.433 10.561 14.316 15.69l7.623 7.361c2.553 2.464 5.252 4.686 7.931 7.075 10.705 9.262 22.122 17.666 34.147 25.135 12.059 7.423 24.644 13.955 37.654 19.543 26.126 11.058 53.801 18.018 82.049 20.635 14.107 1.233 28.285 1.432 42.42.593 14.127-.891 28.163-2.894 41.975-5.991 3.45-.847 6.94-1.513 10.334-2.481l10.219-2.875c6.708-2.214 13.462-4.352 20.015-7.055 26.473-10.351 51.199-24.707 73.314-42.565 21.989-17.935 41.067-39.167 56.555-62.942l2.88-4.463c.99-1.465 1.905-2.971 2.769-4.533l5.312-9.189c3.235-6.302 6.582-12.534 9.364-19.079 1.476-3.23 2.948-6.44 4.172-9.775 1.225-3.336 2.616-6.566 3.821-9.907l3.367-10.063c1.164-3.352 1.945-6.799 2.948-10.19 1.986-6.789 3.458-13.749 5.348-20.583l57.061-226.896z"/></g></svg>