<svg fill="none" height="592" viewBox="0 0 255 592" width="255" xmlns="http://www.w3.org/2000/svg"><g fill="#b4fbf7"><path d="m254.151 4.50772-79.813 182.56728-20.078 45.598-10.042 22.807-7.531 17.105-2.605 5.668-2.624 5.68c-.841 1.911-1.676 3.806-2.718 5.646l-5.646 11.18c-1.94 3.694-4.014 7.321-6.007 10.978-1.034 1.824-1.987 3.677-3.074 5.464l-3.218 5.357c-4.185 7.242-8.818 14.14-13.355 21.035l-7.1447 10.185-1.791 2.549-1.8643 2.468-3.74 4.931-3.7401 4.932-3.8939 4.784-3.8868 4.769-1.9492 2.382-2.0108 2.305-8.0717 9.191-8.3318 8.821c-11.2382 11.58-22.9604 22.359-35.0729 32.25-24.32505 19.67-50.0534 35.426-76.2873 46.718-6.5498 2.916-13.1227 5.233-19.7237 7.614l-9.8513 3.101c-1.6138.567-3.2873.928-4.9227 1.359l-4.93 1.281c-1.6328.394-3.2778.876-4.9138 1.214l-4.9.998c-3.284.671-6.52 1.36-9.783 1.799s-6.495.963-9.725 1.358l-9.657.831c-12.83.762-25.422.365-37.677-1.187-24.48-3.218-47.277-11.351-67.559-24.103-10.117-6.412-19.593-13.889-28.351-22.369l-6.409-6.544c-2.064-2.284-4.031-4.663-6.055-7.007-2.024-2.343-3.863-4.861-5.765-7.327l-2.81-3.748c-.935-1.255-1.766-2.621-2.649-3.931l-2.611-3.953c-.876-1.326-1.778-2.625-2.546-4.041l-4.828-8.339c-2.921-5.759-6.004-11.522-8.58-17.693-10.551-24.38-17.338-51.705-20.124-81.022-1.296-14.675-1.632-29.756-1.006-45.121l.644-11.565 1.115-11.672.29-2.919.392-2.938.798-5.87.805-5.887 1.028-5.898 1.04-5.895.509-2.952.635-2.961 2.488-11.846c2.013-7.888 3.887-15.77 6.28-23.56l1.733-5.887c.568-1.972 1.285-3.909 1.93-5.871 1.32-3.897 2.582-7.815 3.979-11.702l4.385-11.63c.711-1.958 1.499-3.87 2.317-5.79l2.423-5.751 2.404-5.739 7.574-17.2011 10.042-22.8068 20.077-45.5977 80.792-182.2184.118.042-117.952 267.885-2.405 5.739-2.404 5.74c-.834 1.895-1.598 3.816-2.303 5.757l-4.363 11.583c-1.386 3.891-2.629 7.797-3.961 11.69-.627 1.95-1.343 3.888-1.904 5.844l-1.726 5.871c-2.437 7.828-4.298 15.679-6.28 23.559l-2.467 11.799-.617 2.949-.52 2.948-1.021 5.882-1.026 5.863-.791 5.855-.779 5.859-.404 2.933-.283 2.903-1.035 11.646-.623 11.516c-.608 15.296-.259 30.307 1.043 44.914 2.873 29.22 9.748 56.429 20.386 80.673 2.536 6.139 5.563 11.844 8.527 17.6l4.813 8.278c.744 1.408 1.665 2.695 2.536 4.001l2.611 3.954c.878 1.29 1.717 2.639 2.639 3.89l2.806 3.728c1.869 2.51 3.703 5.007 5.755 7.287s3.982 4.682 6.029 6.942l6.471 6.529c8.72 8.394 18.141 15.807 28.187 22.182 20.223 12.594 42.889 20.68 67.206 23.977 12.17 1.549 24.675 1.957 37.416 1.222l9.595-.815c3.223-.38 6.455-.904 9.687-1.335 3.233-.432 6.483-1.152 9.727-1.764l4.881-.986c1.624-.342 3.262-.808 4.8904-1.222l4.9043-1.255c1.6285-.414 3.2546-.792 4.892-1.35l9.8254-3.074c6.4975-2.363 13.0451-4.56 19.5875-7.552 26.131-11.161 51.76965-26.775 76.0202-46.297 12.0665-9.842 23.7485-20.56 34.9537-32.071l8.2989-8.779 8.1094-9.122 2.0038-2.289 1.9491-2.382 3.8799-4.752 3.8798-4.753 3.7261-4.899 3.7212-4.92 1.8761-2.463 1.7839-2.534 7.1238-10.137c4.5345-6.951 9.1535-13.817 13.3545-21.035l3.212-5.341c1.091-1.767 2.032-3.624 3.06-5.432 2.004-3.653 4.071-7.264 6.012-10.958l5.636-11.128c.976-1.845 1.846-3.728 2.704-5.615l2.617-5.664 2.628-5.659 117.938-267.85291z"/><path d="m248.998 2.67025-77.93 178.22675-19.6 44.515-9.818 22.297-7.349 16.691-2.549 5.541-2.567 5.552c-.821 1.864-1.693 3.69-2.643 5.507l-5.522 10.93c-1.898 3.598-3.919 7.134-5.864 10.716-1.002 1.78-1.941 3.601-3.007 5.34l-3.138 5.238c-4.089 7.056-8.61 13.791-13.0456 20.612l-6.9854 9.947-1.7441 2.473-1.8244 2.409-3.6441 4.836c-9.7579 12.838-20.1655 24.974-31.1237 36.294-10.9741 11.299-22.4184 21.82-34.242 31.478-23.76094 19.186-48.8929 34.535-74.5132 45.508-6.3898 2.862-12.8145 5.122-19.2249 7.442l-9.63 3.033c-3.1786 1.022-6.396 1.698-9.608 2.579-1.5438.408-3.205.866-4.7986 1.2l-4.79.963c-3.189.613-6.401 1.402-9.545 1.755-3.143.353-6.349.942-9.506 1.326l-9.414.807c-12.505.744-24.781.362-36.727-1.143-23.926-3.145-46.205-11.094-66.027-23.556-9.853-6.266-19.084-13.563-27.618-21.832l-6.263-6.381c-2.001-2.243-3.93-4.553-5.897-6.84-1.968-2.286-3.773-4.755-5.63-7.168l-2.744-3.651c-.925-1.215-1.763-2.472-2.595-3.837-1.664-2.603-3.481-5.075-5.035-7.805l-4.715-8.131c-2.956-5.68-5.843-11.299-8.341-17.277-10.294-23.806-16.92-50.482-19.646-79.101-1.262-14.324-1.588-29.044-.977-44.042.62-15.005 2.277-30.272 4.956-45.648l1.008-5.759.504-2.879.612-2.877 2.481-11.554c2.019-7.684 3.793-15.399 6.184-23.06l1.7-5.751c.547-1.924 1.261-3.825 1.886-5.74 1.297-3.813 2.516-7.635 3.871-11.427l4.296-11.367c.691-1.91 1.469-3.77 2.266-5.641l2.355-5.629 2.36-5.608 7.357-16.7065 9.817-22.2972 19.601-44.5147 78.872-177.8906.153.055-78.401 178.0585-36.753 83.4715-2.341 5.596-2.341 5.596c-.821 1.863-1.563 3.736-2.247 5.63l-4.284 11.371c-1.368 3.788-2.568 7.598-3.876 11.407-.606 1.903-1.314 3.788-1.854 5.696l-1.681 5.74c-2.377 7.629-4.203 15.307-6.148 22.98l-2.461 11.506-.612 2.877-.497 2.864-1.001 5.743c-2.637 15.305-4.268 30.5-4.876 45.437-.589 14.933-.249 29.59 1.018 43.854 2.749 28.477 9.381 55.013 19.666 78.684 2.467 5.985 5.43 11.557 8.318 17.176l4.634 8.066c1.544 2.689 3.361 5.161 5.033 7.748.814 1.249 1.664 2.602 2.578 3.813l2.739 3.631c1.852 2.393 3.573 4.96 5.616 7.108 2.042 2.147 3.88 4.572 5.875 6.795l6.242 6.336c8.503 8.203 17.695 15.443 27.502 21.662 19.745 12.303 41.879 20.2 65.626 23.413 11.876 1.518 24.083 1.913 36.521 1.179l9.369-.767c3.145-.389 6.297-.886 9.452-1.327 3.154-.441 6.33-1.114 9.5-1.715l4.759-.956c1.5866-.318 3.189-.797 4.7799-1.188 3.1862-.854 6.3683-1.543 9.5635-2.54l9.5146-3.019c6.3917-2.308 12.7787-4.545 19.1427-7.379 25.5035-10.908 50.5261-26.15 74.1985-45.197 11.7838-9.599 23.1871-20.067 34.1176-31.319 10.9285-11.251 21.305-23.326 31.0281-36.107l3.6418-4.8 1.8172-2.393 1.744-2.473 6.9647-9.9c4.3628-6.81 8.9354-13.508 13.0224-20.527l3.131-5.222c1.059-1.723 1.979-3.533 2.986-5.293 1.957-3.577 3.97-7.097 5.868-10.696l5.534-10.925c.943-1.801 1.792-3.636 2.636-5.491l2.554-5.521 2.553-5.52 115.147-261.51423z"/><path d="m243.845.831986-76.046 173.887014-19.123 43.431-9.565 21.724c-3.191 7.247-6.262 14.499-9.66 21.69l-2.492 5.413c-.8 1.816-1.599 3.632-2.587 5.38l-5.384 10.647c-1.852 3.523-3.818 6.968-5.728 10.47-.975 1.716-1.88 3.494-2.913 5.189l-3.071 5.115c-3.988 6.889-8.4151 13.473-12.7313 20.115l-6.8072 9.698-1.7112 2.43-1.7846 2.348-3.5574 4.702c-9.5159 12.535-19.6725 24.38-30.3709 35.42-10.7086 11.024-21.873 21.292-33.4058 30.725-23.20518 18.704-47.7403 33.674-72.7503 44.387-6.2345 2.788-12.4925 4.979-18.7617 7.257l-9.3901 2.952c-3.1576.975-6.1958 1.678-9.375 2.516-1.5367.392-3.1015.847-4.6879 1.165l-4.6676.934c-3.104.606-6.23 1.352-9.319 1.706s-6.179.928-9.271 1.318l-9.194.774c-12.202.739-24.176.366-35.826-1.116-23.324-3.063-45.042-10.811-64.364-22.963-9.613-6.114-18.623-13.228-26.96-21.283l-6.102-6.25c-1.95-2.17-3.828-4.443-5.757-6.661-1.93-2.218-3.678-4.629-5.49-6.99l-2.69-3.558c-.843-1.185-1.657-2.434-2.451-3.73-1.614-2.53-3.419-4.906-4.926-7.618l-4.594-7.941c-2.828-5.506-5.725-10.98-8.133-16.852-10.077-23.215-16.56-49.246-19.223-77.181-1.232-13.982-1.554-28.349-.963-42.987.615-14.641 2.231-29.532 4.832-44.531l.987-5.619.488-2.811.615-2.822 2.421-11.262c1.934-7.492 3.697-15.027 6.034-22.504l1.656-5.62c.526-1.876 1.219-3.729 1.828-5.576 1.273-3.729 2.457-7.472 3.783-11.164l4.181-11.076c.682-1.858 1.434-3.69 2.21-5.514l2.304-5.481c3.009-7.329 6.374-14.4769 9.471-21.7571l9.565-21.7239 19.123-43.4316 76.942-173.5674.2.072-105.189 238.8981c-3.184 7.2307-6.469 14.4439-9.452 21.7459l-2.285 5.469c-.792 1.799-1.592 3.615-2.196 5.482l-4.148 11.033c-1.326 3.692-2.514 7.414-3.769 11.131-.597 1.851-1.283 3.689-1.821 5.561l-1.642 5.588c-2.311 7.449-4.095 14.94-5.987 22.429l-2.4 11.214-.596 2.81-.493 2.791-.968 5.607c-2.587 14.944-4.188 29.779-4.786 44.363-.567 14.557-.227 28.844 1.015 42.748 2.68 27.779 9.147 53.665 19.177 76.759 2.421 5.839 5.308 11.274 8.12 16.755l4.591 7.885c1.559 2.657 3.244 5.027 4.858 7.557.822 1.232 1.615 2.529 2.465 3.698l2.673 3.534c1.807 2.34 3.511 4.791 5.469 6.945 1.957 2.154 3.797 4.451 5.748 6.621l6.076 6.185c8.301 7.996 17.271 15.057 26.836 21.129 19.26 12.006 40.854 19.71 64.023 22.841 11.589 1.475 23.497 1.862 35.63 1.157l9.133-.759c3.073-.378 6.152-.865 9.227-1.279 3.074-.414 6.171-1.097 9.269-1.687l4.6369-.926c1.5086-.328 3.0593-.751 4.6101-1.175 3.1014-.847 6.2013-1.473 9.2903-2.509l9.3455-2.913c6.2317-2.255 12.4589-4.437 18.6677-7.198 24.8825-10.633 49.29573-25.503 72.3884-44.092 11.4863-9.362 22.6065-19.561 33.2725-30.515 10.6673-10.991 20.7965-22.784 30.289-35.265l3.5503-4.685 1.7655-2.337 1.7042-2.415 6.7864-9.649c4.2857-6.635 8.7222-13.179 12.7082-20.031l3.057-5.083c1.033-1.696 1.943-3.454 2.924-5.186 1.896-3.47 3.863-6.914 5.707-10.421l5.375-10.596c.922-1.753 1.757-3.556 2.573-5.348l2.497-5.393c3.385-7.159 6.446-14.451 9.677-21.665l105.189-238.898548z"/><path d="m238.704-1.00201-74.149 169.55001-18.647 42.349-9.327 21.183c-3.106 7.055-6.112 14.128-9.421 21.148l-2.436 5.286c-.779 1.768-1.616 3.515-2.512 5.24l-5.253 10.381c-1.798 3.432-3.73 6.797-5.586 10.207-.948 1.689-1.833 3.419-2.845 5.067l-2.984 4.979c-3.899 6.718-8.2135 13.14-12.4172 19.619l-6.6481 9.46-1.6525 2.359-1.7448 2.289-3.4725 4.603c-9.2812 12.216-19.1832 23.763-29.6108 34.53-10.4401 10.757-21.3316 20.767-32.5866 29.949-22.61193 18.25-46.5263 32.852-70.905 43.294-6.0676 2.719-12.1843 4.867-18.2866 7.076l-9.157 2.888c-3.054.956-6.1609 1.599-9.1422 2.452-1.5296.375-3.0594.751-4.589 1.127l-4.5049.936c-2.9958.608-6.0418 1.327-9.0808 1.662-3.04.334-6.034.906-9.033 1.274l-8.972.761c-11.915.714-23.61.348-34.989-1.094-22.741-2.99-43.919-10.545-62.761-22.391-9.39-5.96-18.19-12.9-26.329-20.763l-5.943-6.083c-1.918-2.121-3.751-4.341-5.623-6.502-1.873-2.161-3.588-4.524-5.351-6.811l-2.569-3.46c-.85-1.169-1.657-2.434-2.485-3.651-1.657-2.434-3.314-4.868-4.788-7.439l-4.491-7.739c-2.764-5.372-5.573-10.705-7.936-16.431-9.804-22.646-16.112-48.029-18.703-75.263-1.165-13.629-1.444-27.629-.833-41.89.592-14.277 2.169-28.801 4.716-43.43l.955-5.483.483-2.74.579-2.741 2.368-10.987c1.858-7.316 3.602-14.655 5.886-21.949l1.616-5.468c.517-1.824 1.189-3.63 1.772-5.449 1.243-3.629 2.409-7.268 3.699-10.88l4.086-10.797c.648-1.814 1.392-3.595 2.146-5.371l2.248-5.353c2.932-7.155 6.22-14.1269 9.233-21.216l9.326-21.1824 18.647-42.3487 75.011-169.2429.247.088-102.559 232.9257c-3.107 7.0555-6.296 14.0813-9.202 21.2083l-2.234 5.321c-.778 1.768-1.55 3.52-2.139 5.355l-4.053 10.754c-1.284 3.596-2.449 7.235-3.667 10.836-.594 1.815-1.267 3.621-1.776 5.429l-1.598 5.457c-2.258 7.266-4 14.568-5.85 21.869l-2.335 10.943-.592 2.738-.464 2.727-.959 5.463c-2.509 14.558-4.06 29.011-4.637 43.219-.564 14.205-.241 28.148.964 41.715 2.608 27.091 8.912 52.336 18.692 74.854 2.354 5.686 5.137 11.047 7.924 16.335l4.47 7.695c1.474 2.571 3.22 4.834 4.773 7.378.836 1.201 1.657 2.434 2.493 3.635l2.576 3.444c1.734 2.259 3.405 4.661 5.341 6.771 1.936 2.109 3.696 4.341 5.596 6.438l5.935 6.042c8.09 7.796 16.833 14.678 26.158 20.592 18.776 11.711 39.829 19.222 62.419 22.269 11.299 1.444 22.91 1.823 34.74 1.134l8.91-.746c2.981-.356 5.987-.832 8.989-1.235 3.001-.403 6.014-1.079 9.0313-1.643l4.4979-.92c1.5016-.312 3.0594-.751 4.5821-1.111 3.0593-.751 6.1187-1.503 9.1045-2.428l9.1125-2.849c6.0717-2.201 12.1508-4.326 18.1925-7.017 24.2622-10.378 48.06643-24.881 70.5855-43.003 11.2066-9.135 22.0528-19.094 32.4508-29.795 10.3993-10.696 20.2698-22.181 29.5145-34.343l3.4706-4.567 1.7259-2.277 1.6526-2.359 6.627-9.412c4.2015-6.443 8.5023-12.833 12.3823-19.539l2.989-4.96c1.005-1.632 1.889-3.362 2.838-5.05 1.854-3.375 3.774-6.744 5.576-10.155l5.232-10.333c.908-1.722 1.715-3.461 2.517-5.221l2.434-5.249c3.295-6.989 6.284-14.086 9.426-21.129l27.973-63.531 74.586-169.3948z"/><path d="m233.541-2.84434-72.231 165.22234-18.17 41.266-9.116 20.705c-3.03 6.88-5.958 13.778-9.199 20.675l-2.374 5.142c-.764 1.736-1.521 3.456-2.456 5.113l-5.122 10.114c-1.755 3.336-3.628 6.63-5.442 9.945-.928 1.641-1.791 3.323-2.777 4.943l-2.916 4.857c-3.7918 6.535-7.982 12.798-12.0968 19.107l-6.4651 9.23-1.6244 2.295-1.6931 2.234-3.3389 4.484c-36.5303 47.942-81.88378 84.673-129.6845 105.031-5.9312 2.657-11.8879 4.752-17.8301 6.907l-8.929 2.804c-2.9693.949-5.9301 1.57-8.8952 2.355-1.5227.36-2.9651.785-4.4431 1.106l-4.4839.888c-2.9752.56-5.9239 1.277-8.8909 1.601-2.966.324-5.852.897-8.814 1.241l-8.728.738c-11.592.686-22.968.323-34.038-1.087-22.159-2.917-42.795-10.279-61.158-21.818-9.137-5.806-17.704-12.558-25.634-20.203l-5.797-5.92c-1.818-2.067-3.601-4.214-5.476-6.339s-3.517-4.406-5.258-6.649l-2.591-3.412c-.863-1.137-1.574-2.404-2.395-3.545-1.563-2.4-3.215-4.722-4.688-7.201l-4.371-7.549c-2.681-5.25-5.433-10.433-7.72-16.022-19.339-44.303-24.427-99.032-14.549-156.488l.981-5.326.467-2.671.575-2.67 2.303-10.715c1.78-7.141 3.553-14.267 5.729-21.378l1.572-5.336c.515-1.788 1.166-3.546 1.74-5.314 1.213-3.529 2.343-7.088 3.603-10.6l3.978-10.523c.64-1.762 1.35-3.499 2.103-5.239l2.184-5.21c2.848-6.9632 6.059-13.7602 9.022-20.7379l9.117-20.7045 18.169-41.2657 73.092-164.9159.283.101-99.937 226.9697c-3.029 6.8802-6.141 13.731-9.01 20.7423l-2.171 5.178c-.757 1.72-1.456 3.461-2.095 5.223l-3.934 10.483c-1.26 3.513-2.388 7.035-3.582 10.553-.574 1.767-1.225 3.525-1.733 5.298l-1.564 5.32c-2.198 7.067-3.886 14.186-5.676 21.287l-2.282 10.667-.568 2.653-.467 2.672-.967 5.294c-4.831 28.408-6.041 56.323-3.586 82.754 2.565 26.366 8.72 50.934 18.25 72.853 2.296 5.537 5.032 10.696 7.715 15.911l4.357 7.488c1.447 2.506 3.113 4.796 4.652 7.188.842 1.185 1.551 2.396 2.383 3.541l2.605 3.38c1.748 2.227 3.334 4.543 5.201 6.592 1.868 2.048 3.595 4.231 5.42 6.282l5.776 5.876c7.865 7.629 16.374 14.36 25.457 20.139 18.291 11.415 38.804 18.733 60.816 21.697 11.017 1.383 22.338 1.727 33.873 1.027l8.679-.718c2.891-.369 5.824-.834 8.729-1.235s5.9084-1.025 8.8058-1.594l4.4698-.857c1.4947-.296 2.9651-.785 4.4314-1.109 2.9532-.79 5.8975-1.435 8.8597-2.368l8.8726-2.769c5.9234-2.143 11.8423-4.215 17.7289-6.832 47.58977-20.188 92.7649-56.687 129.1734-104.366l3.3248-4.452 1.6931-2.234 1.6178-2.28 6.4555-9.178c4.1244-6.268 8.2419-12.521 12.0542-19.011l2.909-4.841c.979-1.604 1.843-3.286 2.77-4.927 1.808-3.299 3.667-6.561 5.434-9.893l5.101-10.066c.875-1.678 1.668-3.385 2.449-5.097l2.359-5.111c3.223-6.793 6.134-13.715 9.234-20.662l99.909-226.90587z"/><path d="m228.388-4.68273-70.382 160.86973-17.693 40.183-8.829 20.051c-2.952 6.705-5.796 13.412-8.932 20.07l-2.318 5.015c-.736 1.672-1.538 3.34-2.392 4.97l-4.98 9.852c-1.708 3.26-3.539 6.458-5.3 9.682-1.76 3.223-3.65 6.401-5.562 9.533-3.6901 6.368-7.7799 12.465-11.7822 18.611l-6.2986 8.976-1.5799 2.256-1.6532 2.174-3.2828 4.358c-35.5818 46.681-79.75099 82.448-126.3022 102.275-5.7572 2.571-11.5773 4.604-17.3478 6.71l-8.696 2.74c-2.901.918-5.7771 1.532-8.6762 2.322-1.4379.354-2.9062.807-4.3397 1.088l-4.3143.875c-2.8717.541-5.7709 1.239-8.6171 1.569-2.847.33-5.735.847-8.584 1.213l-8.477.662c-11.293.679-22.376.334-33.161-1.032-21.581-2.834-41.676-10.003-59.554-21.247-8.894-5.659-17.23-12.242-24.943-19.697l-5.671-5.709c-1.839-2.02-3.566-4.11-5.337-6.161s-3.403-4.292-5.076-6.474l-2.489-3.302c-.87-1.121-1.55-2.303-2.341-3.452-1.491-2.375-3.131-4.6-4.552-7.042l-4.25-7.358c-2.613-5.097-5.294-10.163-7.531-15.586-9.275-21.459-15.252-45.498-17.726-71.284-2.373-25.873-1.164-53.19 3.585-80.986l.924-5.198.463-2.6.554-2.622 2.242-10.422c1.774-6.942 3.4-13.917 5.581-20.824 1.015-3.452 2.014-6.929 3.204-10.375 1.19-3.445 2.283-6.888 3.508-10.321l3.871-10.247c.618-1.715 1.326-3.416 2.039-5.096l2.14-5.0784c2.771-6.7884 5.898-13.3943 8.756-20.133l8.85-20.0993 17.693-40.1827 71.16-160.5916.33.117-97.265 220.9017c-2.945 6.6892-5.98 13.3648-8.737 20.1212l-2.114 5.0501c-.702 1.593-1.473 3.345-2.032 5.08l-3.838 10.204c-1.218 3.417-2.323 6.856-3.487 10.274s-2.198 6.882-3.19 10.343c-2.144 6.883-3.791 13.814-5.539 20.728l-2.221 10.375-.54 2.59-.463 2.599-.925 5.199c-9.52 55.673-4.534 108.684 14.258 151.573 2.232 5.404 4.95 10.446 7.471 15.566l4.247 7.301c1.398 2.434 3.026 4.655 4.532 6.998.779 1.144 1.492 2.375 2.324 3.428l2.473 3.278c1.667 2.161 3.243 4.437 5.054 6.428 1.811 1.992 3.523 4.114 5.315 6.117l5.672 5.709c7.675 7.401 15.97 13.933 24.82 19.543 17.816 11.098 37.787 18.223 59.212 21.125 10.716 1.372 21.731 1.729 32.954 1.068l8.477-.661c2.877-.338 5.683-.792 8.527-1.178 2.8438-.386 5.7152-1.021 8.5751-1.567l4.2955-.863c1.4216-.285 2.8641-.71 4.302-1.064 2.8943-.81 5.7563-1.392 8.6385-2.299l8.6396-2.704c5.7565-2.074 11.5343-4.104 17.2889-6.732 46.3308-19.656 90.3086-55.198 125.7439-101.626l3.2829-4.358 1.6532-2.174 1.5658-2.224 6.2776-8.928c3.9882-6.115 8.0872-12.171 11.74-18.515 1.9-3.137 3.8-6.274 5.548-9.502 1.749-3.228 3.578-6.39 5.279-9.634l4.97-9.8c.854-1.631 1.626-3.29 2.386-4.954l2.303-4.983c3.134-6.622 5.969-13.369 8.949-20.046l97.293-220.96495z"/><path d="m223.235-6.521-68.675 156.466-17.216 39.1-8.611 19.558c-2.869 6.514-5.642 13.061-8.683 19.532l-2.254 4.872c-.701 1.593-1.437 3.265-2.318 4.831l-4.836 9.589c-1.638 3.101-3.444 6.272-5.157 9.42-1.714 3.148-3.501 6.122-5.436 9.247-3.5899 6.201-7.532 12.055-11.4218 18.039l-6.1274 8.742-1.5332 2.18-1.6016 2.12-3.2267 4.229c-34.5879 45.419-77.53466 80.23-122.8066 99.542-5.6089 2.514-11.2574 4.498-16.8797 6.546l-8.4561 2.659c-2.8.844-5.6242 1.495-8.4502 2.275-1.4074.345-2.8472.827-4.2102 1.041l-4.2107.856c-2.7939.552-5.6063 1.207-8.3868 1.542-2.78.335-5.565.834-8.346 1.169l-8.276.733c-11.001.667-21.798.332-32.302-1.002-21.002-2.75-40.557-9.727-57.95-20.674-8.663-5.513-16.782-11.926-24.293-19.19l-5.483-5.642c-1.759-1.954-3.464-4-5.19-5.998s-3.302-4.182-4.937-6.294l-2.415-3.221c-.795-1.076-1.506-2.251-2.268-3.37-1.433-2.354-3.056-4.463-4.42-6.848l-4.137-7.151c-2.541-4.98-5.189-9.905-7.314-15.178-18.293-41.981-23.09-93.828-13.716-148.248l.868-5.071.446-2.532.543-2.533 2.189-10.147c1.721-6.758 3.347-13.549 5.397-20.189.978-3.337 1.945-6.678 3.078-10.088s2.217-6.709 3.424-10.038l3.763-9.973c.595-1.63 1.284-3.319 1.988-4.9481l2.077-4.9348c2.699-6.593 5.744-13.0439 8.529-19.5873l8.612-19.5578 17.216-39.0997 69.064-156.3273.354.126-94.67 215.0088c-2.869 6.514-5.826 13.0144-8.511 19.5755l-2.051 4.9072c-.701 1.5925-1.438 3.2645-1.969 4.9365l-3.75 9.941c-1.166 3.269-2.257 6.676-3.379 9.998-1.122 3.323-2.144 6.699-3.071 10.073-2.062 6.635-3.676 13.431-5.396 20.188l-2.162 10.084-.542 2.533-.439 2.516-.855 5.039c-4.578 26.908-5.722 53.348-3.393 78.382 2.428 25.012 8.271 48.315 17.326 69.096 2.156 5.265 4.751 10.153 7.302 15.081l4.115 7.107c1.386 2.337 2.962 4.521 4.411 6.807.769 1.104 1.432 2.354 2.27 3.335l2.399 3.196c1.629 2.093 3.161 4.316 4.934 6.238 1.772 1.923 3.402 4.015 5.168 5.954l5.436 5.625c7.473 7.194 15.545 13.547 24.154 19.011 17.331 10.802 36.761 17.734 57.608 20.552 10.429 1.329 21.146 1.678 32.064 1.046l8.241-.746c2.762-.323 5.5373-.77 8.2964-1.15 2.7591-.379 5.5623-.982 8.3421-1.502l4.1802-.849c1.3911-.277 2.8029-.695 4.1914-1.029 2.8353-.831 5.5917-1.359 8.3939-2.239l8.4184-2.636c5.5965-2.021 11.2073-3.981 16.7974-6.483 45.15459-19.018 88.0516-53.544 122.647-98.714l3.2127-4.198 1.5945-2.104 1.533-2.18 6.1115-8.674c3.8898-5.984 7.8386-11.854 11.4333-18.035 1.8272-3.034 3.6772-6.059 5.4282-9.231 1.752-3.171 3.489-6.219 5.148-9.368l4.835-9.553c.819-1.551 1.555-3.131 2.322-4.811l2.241-4.84c3.038-6.435 5.807-13.002 8.71-19.504l94.67-215.00825z"/><path d="m218.083-8.35876-66.78 152.12976-16.739 38.017-8.373 19.016c-2.805 6.371-5.48 12.695-8.443 18.991l-2.187 4.749c-.701 1.592-1.461 3.164-2.269 4.719l-4.738 9.366c-1.626 3.106-3.371 6.169-5.002 9.162-1.632 2.993-3.442 6.051-5.2413 9.022-3.4822 6.018-7.3468 11.789-11.1358 17.606l-5.9495 8.493-1.4931 2.121-1.5618 2.059-3.1046 4.108c-33.6359 44.164-75.400322 78.012-119.4243 96.786-5.4608 2.456-10.9492 4.387-16.4469 6.369l-8.2232 2.595c-2.741.865-5.4711 1.457-8.2172 2.21-1.3649.342-2.7392.736-4.1066 1.022l-4.0766.831c-2.7257.52-5.4603 1.185-8.1608 1.493s-5.4193.812-8.1153 1.141l-8.05.684c-10.682.65-21.167.334-31.371-.946-20.416-2.688-39.428-9.471-56.347-20.102-8.412-5.36-16.295-11.597-23.585-18.66l-5.344-5.463c-1.714-1.902-3.362-3.891-5.043-5.836s-3.219-4.06-4.797-6.115l-2.349-3.124c-.779-1.051-1.461-2.198-2.206-3.293-1.423-2.221-2.961-4.336-4.3-6.657l-4.015-6.961c-2.473-4.826-5.002-9.616-7.142-14.766-8.788-20.333-14.44-43.12-16.757-67.566-2.24-24.466-1.086-50.3 3.42-76.584l.806-4.928.441-2.459.527-2.466 2.117-9.86c1.679-6.569 3.256-13.157 5.288-19.693.99-3.332 1.919-6.558 3.059-9.799 1.141-3.242 2.181-6.594 3.317-9.764l3.689-9.7407c.583-1.6347 1.249-3.24 1.938-4.8369l2.022-4.8074c2.628-6.4337 5.551-12.7623 8.29-19.0457l8.373-19.0164 16.739-38.0166 67.145-151.9993.401.143-92.061 209.0836c-2.805 6.3707-5.681 12.7161-8.26 19.0383l-2.021 4.8074c-.702 1.5927-1.403 3.1853-1.939 4.8369l-3.63 9.6698c-1.179 3.265-2.197 6.477-3.296 9.715-1.098 3.239-2.072 6.504-3.034 9.772-2.025 6.52-3.569 13.064-5.234 19.602l-2.103 9.828-.519 2.45-.423 2.447-.799 4.912c-8.997 52.652-4.281 102.787 13.484 143.355 2.111 5.121 4.63 9.871 7.105 14.661l3.992 6.953c1.327 2.316 2.86 4.411 4.29 6.616.734 1.091 1.423 2.222 2.196 3.253l2.333 3.099c1.585 2.04 3.078 4.194 4.788 6.076 1.709 1.881 3.32 3.893 5.022 5.79l5.322 5.419c7.261 6.994 15.107 13.168 23.476 18.474 16.846 10.507 35.736 17.247 56.005 19.981 10.134 1.295 20.549 1.636 31.162 1.018l8.001-.665c2.6835-.333 5.3789-.753 8.0651-1.122 2.6861-.368 5.4045-.965 8.1113-1.473l4.0579-.819c1.3605-.271 2.7228-.669 4.0877-1.012 2.7085-.729 5.4317-1.305 8.1609-2.174l8.1878-2.608c5.4483-1.963 10.899-3.87 16.334-6.298 43.816588-18.599 85.4073-52.213 118.925-96.117l3.1566-4.071 1.5429-2.047 1.4861-2.106 5.947-8.456c3.775-5.785 7.6188-11.508 11.1058-17.507 1.827-3.034 3.5909-5.924 5.2269-8.989s3.388-6.052 5.005-9.106l4.703-9.287c.808-1.555 1.544-3.135 2.269-4.719l2.198-4.744c2.982-6.308 5.61-12.741 8.461-18.967l92.068-209.09966z"/><path d="m212.918-10.2007-64.872 147.7977-16.262 36.934-8.135 18.475c-2.714 6.163-5.331 12.324-8.205 18.449l-2.124 4.605c-.701 1.593-1.412 3.053-2.198 4.56l-4.574 9.057c-1.578 2.994-3.255 5.934-4.872 8.895-1.618 2.961-3.3415 5.884-5.0747 8.767-3.4003 5.864-7.1571 11.453-10.8218 17.111l-5.7901 8.254-1.4462 2.046-1.5222 2-3.0201 4.009c-32.6879 42.904-73.267487 75.786-116.0418 94.031-5.2937 2.386-10.6269 4.243-15.941 6.18l-7.936 2.532c-2.6821.886-5.3183 1.419-7.9726 2.149-10.6359 2.669-21.1986 4.354-31.5915 5.039-10.376.62-20.561.306-30.473-.939-19.837-2.606-38.309-9.196-54.744-19.53-8.175-5.206-15.835-11.265-22.919-18.128-7.052-6.895-13.464-14.629-19.174-23.132-1.39-2.172-2.89-4.219-4.183-6.486l-3.855-6.738c-2.409-4.692-4.862-9.346-6.921-14.337-17.295-39.679-21.83-88.688-12.966-140.13l.839-4.787.426-2.391.503-2.382 2.064-9.583c1.625-6.387 3.142-12.775 5.139-19.139.931-3.169 1.846-6.362 2.964-9.52 1.117-3.158 2.091-6.33 3.221-9.484l3.56-9.4184c.595-1.6305 1.212-3.1243 1.88-4.6734l1.959-4.664c2.556-6.2384 5.42-12.3113 8.063-18.5001l8.135-18.4748 16.262-36.9336 65.226-147.6717.436.156-89.473 203.2066c-2.707 6.1476-5.504 12.2817-8.034 18.4925l-1.944 4.6322c-.701 1.5927-1.353 3.0738-1.861 4.6617l-3.535 9.391c-1.122 3.137-2.132 6.297-3.2 9.436s-2.018 6.319-2.938 9.493c-1.972 6.336-3.474 12.692-5.085 19.046l-2.043 9.536-.503 2.382-.419 2.376-.832 4.771c-8.73 51.131-4.144 99.814 13.114 139.205 2.054 4.972 4.498 9.584 6.897 14.237l3.868 6.706c1.268 2.295 2.785 4.273 4.17 6.426 5.693 8.436 12.08 16.113 19.1 22.957 7.054 6.794 14.678 12.791 22.81 17.942 16.362 10.211 34.711 16.757 54.402 19.408 9.844 1.262 19.962 1.595 30.271.996 10.3234-.657 20.8179-2.311 31.3866-4.945 2.6473-.715 5.2858-1.284 7.928-2.111l7.9219-2.5c5.2883-1.909 10.5908-3.758 15.8588-6.117 42.551706-18.054 82.9438-50.691 115.4978-93.322l3.0249-3.989 1.5149-1.984 1.4347-2.05 5.7806-8.202c3.6625-5.623 7.4055-11.18 10.7917-17.011 1.7333-2.883 3.4782-5.762 5.0721-8.732 1.594-2.969 3.28-5.869 4.851-8.847l4.572-9.02c.807-1.555 1.488-3.008 2.192-4.544l2.109-4.574c2.884-6.084 5.491-12.286 8.233-18.421l89.446-203.1428z"/><path d="m207.767-12.0394-62.949 143.3974-15.785 35.851-7.896 17.933c-2.63 5.973-5.177 11.975-7.979 17.904l-2.048 4.466c-.659 1.497-1.319 2.995-2.131 4.437l-4.443 8.79c-1.524 2.903-3.158 5.747-4.7292 8.633-1.5708 2.886-3.2526 5.713-4.939 8.521-3.2925 5.681-6.9367 11.107-10.4727 16.535l-5.6236 8-1.4019 2.006-1.5142 2.169-2.9404 3.89c-31.728 41.633-71.11026 73.542-112.6219 91.252-5.108 2.305-10.3119 4.116-15.4778 5.996l-7.762 2.446c-2.5811.811-5.1583 1.366-7.7326 2.069-10.3252 2.598-20.5789 4.233-30.6657 4.89-10.084.605-19.982.302-29.614-.909-19.255-2.532-37.186-8.929-53.14-18.958-7.945-5.046-15.389-10.923-22.272-17.584-6.839-6.704-13.061-14.216-18.607-22.468-1.351-2.104-2.807-4.098-4.05-6.292l-3.789-6.548c-2.346-4.523-4.729-9.059-6.723-13.917-8.285-19.18-13.614-40.67-15.803-63.724-2.135-23.078-1.068-47.451 3.164-72.253l.818-4.647.409-2.323.494-2.33 2.004-9.292c1.571-6.203 3.046-12.403 4.955-18.504.896-3.089 1.793-6.178 2.875-9.257 1.083-3.078 2.038-6.147 3.137-9.2005l3.453-9.1433c.553-1.535 1.177-3.0446 1.825-4.546l1.895-4.5207c2.471-6.0473 5.266-11.9609 7.825-17.9585l7.896-17.9333 15.786-35.85072 63.278-143.27998.484.172-86.739 196.9959c-2.63 5.9724-5.337 11.9356-7.795 17.951l-1.888 4.5048c-.652 1.4812-1.253 2.9993-1.799 4.5183l-3.438 9.1115c-1.081 3.0425-2.06 6.1025-3.093 9.1615s-1.965 6.136-2.866 9.205c-1.899 6.141-3.367 12.325-4.943 18.508l-1.971 9.248-.499 2.31-.409 2.323-.804 4.615c-8.48 49.637-4.031 96.899 12.721 135.141 1.973 4.813 4.364 9.297 6.699 13.816l3.779 6.508c1.251 2.178 2.701 4.151 4.065 6.26 5.526 8.182 11.721 15.63 18.528 22.274 6.848 6.594 14.249 12.412 22.144 17.409 15.877 9.915 33.686 16.269 52.798 18.836 9.555 1.229 19.374 1.554 29.381.973 10.0202-.644 20.2049-2.247 30.4615-4.796 2.5626-.708 5.121-1.251 7.7256-2.054l7.7055-2.411c5.1283-1.856 10.292-3.699 15.3838-5.937 41.30762-17.529 80.5179-49.215 112.1177-90.603l2.9263-3.858 1.4702-1.945 1.4068-1.986 5.5907-7.956c3.5619-5.456 7.199-10.866 10.4845-16.531 1.6794-2.792 3.3826-5.575 4.9298-8.469 1.5476-2.894 3.1906-5.699 4.7076-8.585l4.441-8.754c.747-1.448 1.453-2.928 2.117-4.405l2.053-4.446c2.788-5.897 5.259-11.945 7.983-17.883l86.824-197.1872z"/><path d="m202.613-13.8779-61.08 139.1259-15.309 34.767-7.658 17.392c-2.552 5.797-5.015 11.608-7.728 17.367l-1.992 4.338c-.639 1.449-1.277 2.899-2.068 4.294l-4.312 8.523c-1.477 2.827-3.0578 5.58-4.5817 8.391-1.5238 2.81-3.1445 5.53-4.7888 8.242-3.1918 5.514-6.7307 10.794-10.187 16.103l-5.4524 7.766-1.3621 1.947-1.4303 1.885-2.8422 3.759c-30.7721 40.4-68.97975 71.36-109.2533 88.529-4.9952 2.235-9.9565 4.022-15.0214 5.827l-7.522 2.366c-2.5081.8-5.0052 1.329-7.5066 2.021-10.0114 2.51-19.9533 4.089-29.734 4.724-9.7722.589-19.3652.296-28.7002-.877-18.672-2.46-36.061-8.664-51.536-18.386-7.697-4.904-14.912-10.607-21.587-17.063-6.638-6.495-12.673-13.781-18.046-21.789-1.314-2.036-2.724-3.976-3.949-6.09l-3.668-6.358c-2.24-4.485-4.582-8.803-6.508-13.508-16.286-37.332-20.557-83.452-12.212-131.863l.778-4.495.393-2.255.489-2.258 1.939-9.02c1.523-5.999 2.963-12.028 4.834-18.013.878-2.985 1.752-5.991 2.804-8.969 1.052-2.9788 1.954-5.9559 3.029-8.926l3.346-8.8684c.544-1.4829 1.146-2.9449 1.773-4.3984l1.839-4.3933c2.406-5.8679 5.105-11.5946 7.587-17.4171l7.658-17.3918 15.308-34.76767 61.387-139.01633.531.19-84.2 191.2298c-2.546 5.7813-5.176 11.5693-7.569 17.4053l-1.824 4.3615c-.639 1.4493-1.277 2.8986-1.755 4.3867l-3.312 8.8248c-1.069 2.9542-2.013 5.9346-3.016 8.8939-1.003 2.959-1.911 5.952-2.771 8.926-1.857 5.953-3.271 11.954-4.798 17.933l-1.918 8.972-.471 2.246-.397 2.236-.772 4.479c-8.23 48.131-3.918 93.961 12.33 131.039 1.928 4.668 4.22 9.006 6.498 13.375l3.658 6.317c1.213 2.11 2.618 4.031 3.928 6.046 5.35 7.949 11.362 15.171 17.979 21.599 6.642 6.385 13.817 12.024 21.466 16.872 15.403 9.598 32.67 15.758 51.195 18.265 9.262 1.189 18.78 1.505 28.4787.946 9.7125-.602 19.5891-2.156 29.5363-4.648 2.4873-.66 4.9728-1.193 7.4621-1.982l7.4725-2.346c4.9801-1.798 9.9628-3.541 14.9251-5.732 19.9333-8.48 39.49563-20.358 58.0039-35.219 18.4357-14.917 35.5758-32.648 50.8117-52.563l2.8467-3.739 1.4118-1.874 1.3665-1.926 5.4314-7.719c3.4493-5.293 6.9742-10.541 10.1519-16.023 1.6374-2.696 3.2819-5.408 4.7752-8.211s3.1022-5.527 4.5832-8.334l4.292-8.476c.737-1.396 1.399-2.836 2.06-4.277l1.991-4.303c2.71-5.722 5.104-11.594 7.744-17.342l84.215-191.2622z"/><path d="m197.438-15.7245-59.185 134.7895-14.831 33.684-7.42 16.851c-2.475 5.622-4.826 11.178-7.49 16.825-1.324 2.789-2.483 5.638-3.929 8.365l-4.181 8.257c-1.4348 2.731-2.9684 5.409-4.4385 8.128-1.47 2.719-3.0558 5.36-4.6533 7.997-3.084 5.331-6.5103 10.448-9.8729 15.606l-5.2745 7.517c-.8625 1.277-1.7697 2.501-2.7006 3.717l-2.7625 3.64c-29.8213 39.107-66.82721 69.079-105.8312 85.714-4.84 2.161-9.7143 3.905-14.5581 5.642l-7.282 2.285c-2.428.774-4.8522 1.291-7.2854 1.953-9.6961 2.436-19.325 3.967-28.797 4.58-9.471.578-18.767.292-27.81-.855-9.002-1.281-17.736-3.375-26.136-6.265-8.316-3.082-16.271-6.943-23.808-11.553-7.453-4.747-14.437-10.269-20.898-16.523-6.437-6.288-12.29-13.343-17.504-21.098-1.269-1.982-2.63-3.85-3.81-5.911l-3.57-6.175c-2.211-4.272-4.437-8.513-6.306-13.068-15.765-36.166-19.917-80.823-11.874-127.706l.777-4.367c.228-1.448.511-2.895.842-4.362l1.886-8.744c1.481-5.811 2.867-11.656 4.678-17.441.855-2.902 1.686-5.8117 2.708-8.6905s1.907-5.7879 2.941-8.6625l3.25-8.5892c1.045-2.8704 2.334-5.6725 3.492-8.521 2.33-5.6927 4.944-11.2282 7.349-16.8755l7.419-16.8503 14.832-33.68471 59.468-134.68829.566.202-81.577 185.2736c-2.469 5.6062-5.015 11.203-7.319 16.8681-1.144 2.8165-2.468 5.6061-3.471 8.4732l-3.217 8.5456c-1.027 2.8586-1.948 5.7551-2.92 8.6147-.973 2.8598-1.839 5.7568-2.675 8.6468-1.804 5.77-3.176 11.582-4.643 17.362l-1.865 8.696c-.325 1.451-.607 2.898-.836 4.346l-.762 4.335c-7.966 46.622-3.79 91.015 11.939 126.937 1.872 4.519 4.104 8.744 6.288 12.987l3.556 6.115c1.175 2.041 2.542 3.893 3.795 5.851 5.187 7.698 11.007 14.704 17.405 20.952 6.429 6.197 13.376 11.669 20.786 16.372 14.917 9.302 31.644 15.27 49.591 17.692 8.977 1.144 18.203 1.441 27.6022.891 9.4157-.606 18.9869-2.121 28.6253-4.53 2.4026-.654 4.8081-1.159 7.2173-1.922l7.2444-2.262c4.8555-1.732 9.6971-3.432 14.4641-5.583 38.7985-16.469 75.6259-46.233 105.3056-85.109l2.7437-3.628c.9357-1.196 1.8314-2.424 2.6986-3.681l5.2602-7.485c3.3416-5.111 6.7538-10.196 9.8427-15.507 1.5787-2.625 3.181-5.241 4.6205-7.953 1.4394-2.711 3.0014-5.36 4.4291-8.076l4.1603-8.209c1.427-2.716 2.622-5.552 3.931-8.309 2.622-5.552 5.003-11.208 7.495-16.805l81.578-185.2739z"/><path d="m192.308-17.5544-57.289 130.4534-14.355 32.601-7.181 16.309c-2.391 5.431-4.712 10.887-7.251 16.284-1.282 2.694-2.406 5.462-3.81 8.094l-4.0387 7.995c-1.3996 2.652-2.8676 5.242-4.3073 7.862-1.4397 2.619-2.9551 5.192-4.4869 7.742-3.0022 5.176-6.3206 10.11-9.5589 15.11l-5.1151 7.279c-.8414 1.229-1.7042 2.414-2.6142 3.582l-2.6777 3.542c-14.3512 18.81-30.5042 35.563-47.8843 49.664-17.41134 14.051-35.8227 25.301-54.5925 33.357-4.645 2.029-9.3852 3.747-14.076 5.446l-7.049 2.221c-2.3599.743-4.6522 1.271-7.0526 1.889-9.386 2.354-18.7075 3.841-27.8789 4.446-9.1651.544-18.1619.266-26.9189-.832-17.512-2.316-33.822-8.135-48.341-17.246-7.216-4.6-13.981-9.945-20.244-15.994-6.222-6.094-11.881-12.926-16.925-20.431-1.231-1.913-2.546-3.728-3.688-5.72l-3.457-5.969c-2.117-4.147-4.297-8.242-6.102-12.663-15.265-35.017-19.278-78.261-11.474-123.657l.744-4.231c.238-1.408.499-2.807.822-4.222l1.825-8.452c1.435-5.644 2.772-11.285 4.536-16.902.813-2.8065 1.633-5.6286 2.613-8.4118.979-2.7832 1.846-5.5884 2.845-8.3833l3.142-8.3143c1.016-2.7706 2.269-5.4931 3.386-8.246 2.257-5.4974 4.789-10.8778 7.181-16.3088l7.181-16.3088 14.354-32.60162 57.549-130.36038.613.219-78.955 179.3168c-2.391 5.431-4.86 10.8526-7.091 16.3223-1.11 2.7369-2.384 5.4151-3.352 8.2025l-3.122 8.2664c-.991 2.7791-1.875 5.5599-2.824 8.3356s-1.774 5.5776-2.598 8.3794c-1.732 5.574-3.055 11.183-4.501 16.823l-1.793 8.408c-.323 1.415-.584 2.814-.815 4.206l-.73 4.199c-7.702 45.113-3.663 88.069 11.549 122.836 1.828 4.338 3.971 8.457 6.09 12.567l3.431 5.904c1.148 1.977 2.436 3.763 3.679 5.68 5.02 7.44 10.653 14.207 16.847 20.237 6.223 5.996 12.948 11.29 20.12 15.84 14.432 9.007 30.619 14.781 47.987 17.12 8.687 1.11 17.6152 1.4 26.7121.869 9.1018-.574 18.3552-2.03 27.6743-4.354 2.3414-.639 4.6738-1.134 7.0031-1.869l7.0045-2.182c4.6602-1.691 9.3347-3.322 13.9889-5.403 18.695-7.954 37.04152-19.097 54.3981-33.04 17.2909-14.005 33.3639-30.65 47.6474-49.343l2.664-3.51c.9029-1.152 1.7657-2.337 2.6072-3.566l5.0937-7.231c3.2361-4.964 6.529-9.87 9.5242-15.031 1.5436-2.545 3.08-5.074 4.4843-7.706 1.4044-2.632 2.894-5.178 4.2866-7.814l4.0286-7.943c1.369-2.644 2.515-5.368 3.789-8.046 2.538-5.361 4.783-10.862 7.268-16.26l78.927-179.2531z"/><path d="m187.156-19.3922-55.382 126.1212-13.878 31.518-6.943 15.768c-2.314 5.255-4.55 10.52-7.013 15.742-1.228 2.602-2.321 5.271-3.707 7.891l-3.9072 7.728c-1.3458 2.561-2.7789 5.072-4.1648 7.6s-2.8661 5.022-4.3511 7.496c-2.8944 4.993-6.1003 9.765-9.2379 14.598l-4.9439 7.045c-1.6054 2.376-3.388 4.596-5.1139 6.874-27.9083 36.635-62.55945 64.707-99.0826 80.271-4.5388 2.066-9.077 3.635-13.6195 5.276l-6.8208 2.137c-2.2751.736-4.5346 1.22-6.8078 1.828-9.079 2.278-18.0953 3.714-26.9656 4.293-8.8605.537-17.5559.268-26.0169-.804-16.933-2.233-32.703-7.859-46.738-16.675-6.975-4.443-13.514-9.609-19.565-15.457-6.021-5.892-11.497-12.498-16.377-19.756-1.181-1.84-2.499-3.619-3.568-5.53l-3.342-5.762c-2.042-4.009-4.146-7.966-5.906-12.243-14.762-33.865-18.637-75.689-11.081-119.592.511-2.71.879-5.436 1.506-8.16l1.76-8.181c1.393-5.456 2.689-10.9088 4.381-16.3313.801-2.7181 1.59-5.4403 2.535-8.1439s1.793-5.4048 2.761-8.1l3.035-8.0393c.981-2.691 2.192-5.3179 3.295-8.0389 2.179-5.3222 4.628-10.5116 6.942-15.7673l6.942-15.7673 13.878-31.51866 55.63-126.03234.649.231-76.34 173.3766c-2.307 5.2398-4.628 10.5115-6.853 15.7808-1.067 2.6414-2.307 5.2398-3.245 7.9275l-3.002 7.9957c-.961 2.6793-1.821 5.3763-2.728 8.0564-.908 2.6802-1.732 5.3898-2.515 8.0961-1.678 5.3907-2.96 10.8119-4.338 16.2359l-1.739 8.133c-.632 2.704-1.009 5.389-1.497 8.109-7.437 43.626-3.516 85.161 11.21 118.771 1.722 4.3 3.839 8.169 5.882 12.142l3.321 5.718c1.1 1.904 2.377 3.649 3.554 5.47 4.847 7.205 10.295 13.752 16.291 19.578 6.012 5.795 12.51 10.91 19.442 15.303 13.948 8.711 29.594 14.293 46.384 16.548 8.398 1.076 17.0281 1.359 25.8221.845 8.8001-.558 17.7465-1.969 26.7562-4.22 2.2544-.596 4.5021-1.085 6.7514-1.793l6.7715-2.118c4.5119-1.633 9.0382-3.207 13.5254-5.218 36.29405-15.399 70.7448-43.242 98.5055-79.61 1.6905-2.291 3.4826-4.471 5.0811-6.831l4.9225-6.997c3.1236-4.801 6.3157-9.541 9.2079-14.498 1.478-2.458 2.9678-4.912 4.3301-7.448 1.3623-2.537 2.7932-5.012 4.1437-7.552l3.8863-7.68c1.3273-2.549 2.4363-5.194 3.6693-7.776 2.449-5.19 4.628-10.512 7.018-15.722l76.339-173.3768z"/><path d="m182.004-21.2307-53.487 121.7847-13.401 30.436-6.704 15.225c-2.237 5.081-4.389 10.155-6.763 15.205-1.193 2.523-2.244 5.097-3.5595 7.558l-3.7766 7.461c-1.2989 2.485-2.6779 4.905-4.0099 7.341-1.332 2.437-2.7653 4.855-4.2082 7.234-2.7938 4.827-5.8943 9.452-8.936 14.098l-4.7726 6.811c-1.5586 2.3-3.2828 4.357-4.9428 6.64-13.3989 17.567-28.4836 33.211-44.7157 46.372-16.25641 13.121-33.4472 23.625-50.9728 31.148-4.3696 1.96-8.7665 3.488-13.1562 5.091l-6.5877 2.073c-2.1881.694-4.3746 1.167-6.5749 1.764-8.7649 2.187-17.4689 3.567-26.0334 4.128-8.5584.518-16.9589.262-25.1337-.766-16.351-2.16-31.579-7.593-45.134-16.102-6.742-4.283-13.059-9.272-18.899-14.925-5.815-5.69-11.103-12.068-15.817-19.077-1.143-1.772-2.376-3.465-3.447-5.339l-3.229-5.557c-1.977-3.875-3.999-7.71-5.708-11.822-7.022-16.292-11.532-34.544-13.373-54.122-1.802-19.6-.886-40.296 2.717-61.355.488-2.627.831-5.233 1.453-7.885l1.707-7.905c1.332-5.2562 2.593-10.5375 4.22-15.7806.771-2.6183 1.518-5.2449 2.451-7.8605.934-2.6155 1.716-5.2296 2.654-7.825l2.928-7.7644c.95-2.5912 2.119-5.1226 3.159-7.7003 2.114-5.1427 4.467-10.1452 6.704-15.2257l6.704-15.2258 13.401-30.43564 53.71-121.70506.696.248-73.71 167.4045c-2.23 5.0646-4.537 10.12-6.626 15.2351-1.025 2.5459-2.23 5.0646-3.126 7.6567l-2.906 7.7166c-.92 2.5837-1.749 5.1809-2.633 7.7772-.884 2.5964-1.66 5.1945-2.431 7.8127-1.612 5.2113-2.852 10.4447-4.177 15.6852l-1.668 7.845c-.608 2.621-.924 5.199-1.443 7.833-7.192 42.103-3.422 82.193 10.78 114.637 1.681 4.083 3.705 7.883 5.673 11.718l3.207 5.511c1.066 1.855 2.294 3.528 3.438 5.3 4.686 6.943 9.942 13.26 15.719 18.894 5.804 5.597 12.079 10.534 18.776 14.771 13.48 8.4 28.591 13.791 44.804 15.984 8.1029 1.043 16.4319 1.317 24.9196.819 8.5001-.541 17.1408-1.901 25.8428-4.067 2.1696-.59 4.3374-1.051 6.5255-1.745l6.5315-2.037c4.352-1.581 8.7184-3.1 13.1211-5.013 17.4042-7.444 34.48006-17.846 50.6345-30.844 16.1302-13.064 31.1254-28.588 44.453-46.023 1.6367-2.199 3.3772-4.324 4.9217-6.593l4.7446-6.747c3.011-4.639 6.1024-9.212 8.8939-14.002 1.4311-2.383 2.8788-4.741 4.1754-7.19 1.2966-2.45 2.7161-4.836 4.0009-7.29l3.7553-7.413c1.2849-2.454 2.3599-5.019 3.5502-7.506 2.372-5.014 4.467-10.145 6.78-15.18l73.709-167.4042z"/><path d="m176.852-23.0688-51.591 117.4484-12.925 29.3524-6.465 14.685c-2.153 4.889-4.228 9.788-6.4658 14.684-1.1507 2.427-2.1668 4.921-3.4284 7.291l-3.6523 7.211c-1.2498 2.373-2.5822 4.717-3.8791 7.074-1.297 2.357-2.6576 4.673-4.0419 6.98-2.7047 4.656-5.658 9.039-8.5753 13.526l-4.6132 6.573c-1.5048 2.209-3.2337 4.246-4.7716 6.407-26.0004 34.118-58.27906 60.259-92.299 74.748-4.2144 1.887-8.4465 3.381-12.6809 4.911l-6.3432 2.013c-2.1199.662-4.2334 1.125-6.3418 1.699-8.4494 2.097-16.8394 3.417-25.0943 3.947-8.2472.485-16.3432.233-24.2242-.755-7.845-1.122-15.455-2.95-22.775-5.471-7.248-2.686-14.183-6.047-20.756-10.059-6.495-4.139-12.583-8.953-18.215-14.404-5.609-5.477-10.717-11.612-15.276-18.35-1.099-1.719-2.287-3.359-3.327-5.149l-3.089-5.377c-1.908-3.722-3.866-7.424-5.5-11.398-13.755-31.534-17.375-70.481-10.349-111.369.476-2.539.861-5.055 1.399-7.609l1.654-7.6294c1.278-5.0725 2.498-10.1659 4.047-15.1415.736-2.5387 1.444-5.0136 2.356-7.5814.912-2.5677 1.663-5.046 2.559-7.5458l2.839-7.5011c.908-2.4956 2.042-4.9474 3.051-7.4254 2.025-4.9718 4.313-9.7948 6.395-14.7095l6.465-14.6843 12.925-29.35266 51.803-117.37294.719.257-71.094 161.4633c-2.153 4.8895-4.372 9.7738-6.376 14.6978-1.002 2.462-2.146 4.8735-3.03 7.3776l-2.799 7.4416c-.889 2.4839-1.656 4.9378-2.538 7.4981-.881 2.5602-1.573 4.9672-2.335 7.5334-1.549 4.9757-2.757 10.0733-4.047 15.1415l-1.626 7.5657c-.585 2.537-.869 5.071-1.39 7.557-6.942 40.609-3.316 79.28 10.368 110.584 1.636 3.937 3.584 7.599 5.488 11.301l3.11 5.329c1.017 1.782 2.219 3.39 3.305 5.105 4.509 6.722 9.57 12.841 15.136 18.299 5.605 5.387 11.655 10.151 18.103 14.254 12.999 8.078 27.56 13.273 43.177 15.404 7.8202.987 15.853 1.247 24.036.78 8.2082-.541 16.5517-1.878 24.9528-3.998 2.1084-.574 4.196-1.009 6.2924-1.68l6.3221-1.965c4.2038-1.522 8.3984-2.993 12.587-4.852 33.79608-14.352 65.8722-40.29 91.7145-74.165 1.571-2.111 3.1986-4.166 4.7387-6.362l4.5734-6.514c2.9173-4.488 5.8823-8.866 8.5753-13.526 1.3891-2.287 2.764-4.543 4.0326-6.928s2.587-4.606 3.8578-7.027l3.6246-7.147c1.238-2.378 2.2637-4.832 3.4191-7.239 2.2757-4.827 4.3057-9.779 6.5297-14.643l71.087-161.4476z"/><path d="m171.699-24.9069-49.695 113.1122-12.448 28.2697-6.227 14.143c-2.104 4.778-4.1445 9.412-6.2862 14.121-1.1157 2.348-2.1038 4.778-3.3092 7.02l-3.5098 6.949c-1.2077 2.278-2.4862 4.531-3.7363 6.812-1.2501 2.282-2.5687 4.502-3.899 6.718-2.6041 4.489-5.4728 8.773-8.2964 13.109-2.8236 4.337-5.881 8.462-9.0165 12.485-25.0403 32.847-56.11796 58.02-88.8742 71.989-8.1282 3.528-16.3027 6.301-24.4415 8.29-8.1453 2.049-16.234 3.335-24.1901 3.846-7.9507.471-15.7554.23-23.3529-.721-7.5519-1.091-14.8799-2.856-21.9309-5.281-6.984-2.58-13.664-5.819-19.989-9.693-6.262-3.976-12.13-8.607-17.556-13.855-5.402-5.285-10.315-11.21-14.695-17.719-4.416-6.472-8.265-13.534-11.508-21.115-6.566-15.119-10.799-32.067-12.552-50.254-1.675-18.214-.823-37.449 2.527-57.019.777-4.864 1.87-9.7633 2.921-14.659s2.414-9.7902 3.934-14.6661c.717-2.4347 1.422-4.8736 2.272-7.298.849-2.4244 1.609-4.8623 2.474-7.2624l2.72-7.2304c.885-2.4118 1.986-4.82 2.944-7.1504 1.974-4.8242 4.151-9.4285 6.156-14.168l6.235-14.1587 12.447-28.26962 49.8955-113.04038.7665.273-68.464 155.4911c-2.069 4.6983-4.152 9.4285-6.15 14.1521-.96 2.3664-2.068 4.6983-2.911 7.1068l-2.691 7.1666c-.866 2.4001-1.63 4.8179-2.454 7.2147-.823 2.3968-1.541 4.8314-2.251 7.2502-1.505 4.844-2.65 9.706-3.884 14.5546-1.235 4.8485-2.128 9.7269-2.891 14.5589-6.654 39.136-3.105 76.386 10.145 106.505 3.223 7.509 7.048 14.501 11.436 20.905 4.352 6.454 9.234 12.324 14.603 17.557 5.393 5.188 11.216 9.773 17.426 13.717 12.514 7.782 26.534 12.784 41.5731 14.832 7.5297.955 15.2652 1.208 23.1458.757 7.8897-.503 15.9105-1.769 23.9878-3.789 8.0711-1.955 16.179-4.69 24.2416-8.176 32.53193-13.804 63.4105-38.765 88.2875-71.37 3.1216-3.991 6.0279-8.206 8.9745-12.389 2.9466-4.182 5.6572-8.541 8.2472-12.998 1.3234-2.2 2.6585-4.396 3.878-6.67 1.2195-2.273 2.5076-4.486 3.7153-6.764l3.4817-6.885c1.196-2.282 2.1866-4.656 3.2882-6.972 2.1984-4.652 4.1513-9.429 6.3023-14.098l68.465-155.4904z"/><path d="m166.535-26.7497-47.788 108.7802c-7.987 18.1405-15.859 36.2665-23.9479 54.3895-1.0735 2.252-2.0058 4.555-3.1902 6.749l-3.3788 6.682c-2.3854 4.364-4.7141 8.785-7.3379 13.009s-5.2712 8.439-7.9823 12.614c-2.7111 4.174-5.6443 8.14-8.6744 12.016-11.9877 15.696-25.481 29.669-39.998 41.421-14.52768 11.728-29.89191 21.113-45.555 27.829-7.8171 3.386-15.6782 6.048-23.505 7.96-7.8339 1.97-15.6135 3.206-23.2652 3.697-7.6541.469-15.1684.252-22.4834-.65-14.6039-1.942-28.2069-6.795-40.3239-14.386-6.012-3.851-11.648-8.325-16.861-13.387-5.201-5.076-9.928-10.774-14.135-17.04-4.254-6.217-7.958-13.006-11.077-20.297-12.733-29.226-16.085-65.31-9.585-103.1913.708-4.7048 1.806-9.3992 2.815-14.1071s2.319-9.4189 3.785-14.1112c1.465-4.6923 2.971-9.3518 4.555-14.0021l2.624-6.9511c.843-2.3163 1.881-4.5812 2.825-6.8797 7.864-18.2025 15.96-36.24879 23.948-54.3891l47.9763-108.7124.8135.29-47.8818 108.7463c-7.981 18.12438-16.039 36.2395-23.871 54.3984-.918 2.2709-1.984 4.5072-2.791 6.8361l-2.596 6.8875c-1.558 4.6226-3.213 9.2475-4.514 13.9065-1.301 4.6589-2.555 9.3347-3.736 13.9996-1.18 4.665-2.055 9.347-2.796 14.0032-6.408 37.5784-3.042 73.3584 9.627 102.3214 3.101 7.22 6.779 13.943 10.999 20.104 4.183 6.199 8.874 11.841 14.03 16.873 5.187 4.987 10.788 9.393 16.76 13.185 12.029 7.486 25.509 12.295 39.9696 14.26 7.2358.92 14.6698 1.164 22.2436.73 7.5855-.484 15.2969-1.701 23.0627-3.64 7.7618-1.882 15.5586-4.512 23.3122-7.863 31.2758-13.271 60.9631-37.264 84.8862-68.603 3.0515-3.832 5.7982-7.901 8.6205-11.925s5.451-8.228 7.9333-12.502c2.4823-4.275 4.9246-8.582 7.2961-12.914l3.3622-6.614c1.1491-2.207 2.0979-4.485 3.1574-6.706 8.1152-18.058 15.9602-36.2487 24.0112-54.3479l47.883-108.7465z"/><path d="m161.382-28.5877-45.893 104.444c-7.664 17.4078-15.228 34.8327-22.9939 52.2227-1.0315 2.157-1.9284 4.38-3.0589 6.483l-3.2478 6.416c-2.2965 4.193-4.5365 8.443-7.0478 12.504-2.5113 4.062-5.0697 8.106-7.6262 12.022-2.5565 3.917-5.431 7.811-8.3438 11.545-23.1452 30.355-51.8685 53.616-82.1421 66.523-7.5101 3.258-15.063 5.821-22.583 7.662-7.5255 1.879-14.9987 3.064-22.3517 3.544-7.3311.433-14.5268.207-21.5297-.678-14.0247-1.86-27.0881-6.521-38.7201-13.814-5.778-3.672-11.19-7.95-16.193-12.799-4.996-4.868-9.538-10.333-13.581-16.344-4.083-5.973-7.635-12.498-10.62-19.508-12.245-28.062-15.466-62.725-9.211-99.114.708-4.5204 1.729-9.0395 2.708-13.5554s2.224-9.0474 3.594-13.4605c1.37-4.4132 2.853-8.9889 4.371-13.4598l2.517-6.6761c.812-2.2165 1.815-4.4018 2.717-6.6048 7.542-17.4699 15.33-34.81537 22.995-52.2231l46.0567-104.3853.8489.303-45.9746 104.4146c-7.658 17.39177-15.4 34.7902-22.928 52.2283-.883 2.1912-1.908 4.332-2.685 6.5611l-2.488 6.6125c-1.505 4.439-3.087 8.8686-4.322 13.3482-1.236 4.4795-2.453 8.9474-3.606 13.4563-1.153 4.509-1.972 8.9715-2.671 13.4399-6.163 36.0701-2.93 70.4151 9.244 98.2041 2.978 6.949 6.52 13.414 10.588 19.331 4.021 5.944 8.525 11.358 13.47 16.194 4.932 4.761 10.262 8.966 15.947 12.582 11.545 7.19 24.4844 11.806 38.3666 13.687 6.9432.9 14.0831 1.131 21.3601.692 7.2784-.458 14.6781-1.619 22.1305-3.475 7.4661-1.801 14.9667-4.328 22.4254-7.553 30.0176-12.737 58.5111-35.763 81.4732-65.84 2.8918-3.686 5.5734-7.576 8.2832-11.437 2.7098-3.862 5.2258-7.903 7.6262-12.022 2.4004-4.12 4.7159-8.232 6.9984-12.394l3.2197-6.351c1.0952-2.116 2.0134-4.295 3.0379-6.435 7.7875-17.346 15.3298-34.8157 23.0578-52.1823l45.968-104.3986z"/><path d="m156.23-30.4257-43.997 100.1077c-7.349 16.691-14.6014 33.38-22.0402 50.057-.9256 2.102-1.8445 4.189-2.9703 6.312l-3.0979 6.137c-2.2076 4.022-4.3512 8.086-6.7618 11.98-2.4106 3.895-4.7977 7.798-7.3476 11.605-2.5498 3.808-5.2131 7.502-7.9946 11.062-22.1895 29.099-49.7292 51.392-78.7527 63.751-7.199 3.118-14.4385 5.57-21.6465 7.333-7.2123 1.81-14.3748 2.952-21.4218 3.415-7.0391.421-13.9477.205-20.6699-.648-6.6861-.964-13.1731-2.527-19.4139-4.678-6.1798-2.289-12.0948-5.151-17.7028-8.564-5.54-3.533-10.738-7.635-15.551-12.274-4.781-4.683-9.13-9.931-13.006-15.698-3.909-5.729-7.317-11.98-10.188-18.69-11.738-26.901-14.833-60.124-8.851-95.005.682-4.3082 1.655-8.6237 2.594-12.9878s2.133-8.6559 3.48-12.9852 2.739-8.6057 4.192-12.8971l2.421-6.397c.777-2.1369 1.731-4.2107 2.598-6.334 7.238-16.749 14.691-33.366119 22.04-50.0571l44.1384-100.0568.8961.319-44.0325 100.003c-7.342 16.67514-14.726 33.4458-21.956 50.0506-.859 2.1074-1.837 4.1728-2.576 6.2862l-2.389 6.3534c-1.443 4.2394-2.96 8.4898-4.154 12.7815s-2.345 8.5801-3.431 12.8737c-1.086 4.2935-1.867 8.5479-2.564 12.888-5.903 34.5616-2.807 67.4706 8.852 94.1026 2.843 6.651 6.222 12.843 10.103 18.513 3.847 5.7 8.166 10.883 12.917 15.499 4.761 4.598 9.911 8.653 15.409 12.131 11.059 6.895 23.4588 11.318 36.7625 13.116 6.6555.858 13.4974 1.081 20.4698.669 6.9745-.44 14.0647-1.552 21.2054-3.326 7.142-1.746 14.3153-4.172 21.4489-7.257 28.7622-12.21 56.0634-34.275 78.0674-63.092 2.7627-3.548 5.3454-7.307 7.9405-10.97 2.595-3.663 4.9939-7.562 7.2866-11.498 2.2927-3.937 4.5265-7.895 6.7131-11.869l3.0836-6.105c1.0461-2.004 1.9295-4.103 2.9189-6.164 7.4461-16.602 14.6843-33.3506 22.0853-50.0047l44.068-100.0825z"/><path d="m151.077-32.264-42.101 95.7715c-7.012 15.9266-13.9423 31.8826-21.0866 47.8915-.8836 2.006-1.767 4.013-2.8039 5.965l-2.9669 5.871c-2.1186 3.851-4.1666 7.728-6.4835 11.471-2.3169 3.744-4.6364 7.431-7.0265 11.094-2.3902 3.662-4.988 7.176-7.6522 10.593-21.2297 27.843-47.5817 49.17-75.3516 60.984-6.8896 2.992-13.8188 5.34-20.7172 7.02-6.9112 1.724-13.774 2.807-20.525 3.237-6.7359.401-13.3469.192-19.7796-.625-12.8602-1.713-24.841-5.987-35.513-12.67-5.304-3.378-10.278-7.303-14.885-11.742-4.59-4.476-8.766-9.497-12.488-15.014-3.747-5.478-7.008-11.462-9.75-17.89-11.238-25.731-14.204-57.517-8.479-90.8914.66-4.1321 1.585-8.2799 2.488-12.4361.902-4.1562 2.038-8.2844 3.324-12.4142 1.286-4.1297 2.634-8.2745 4.066-12.3337l2.295-6.1104c.754-2.053 1.673-4.0471 2.498-6.0749 6.894-15.9686 14.025-31.85311 21.087-47.8912l42.2184-95.7291.9314.332-42.1598 95.7505c-7.013 15.92653-14.131 31.9075-21.073 47.8593-.877 1.9908-1.753 3.9816-2.458 6.0154l-2.292 6.0743c-1.379 4.0601-2.858 8.1947-4.01 12.2063-1.153 4.0117-2.251 8.2087-3.294 12.3144-1.044 4.1058-1.805 8.2202-2.451 12.3205-5.638 33.0523-2.679 64.5243 8.462 90.0013 2.725 6.356 5.959 12.274 9.671 17.695 3.68 5.454 7.809 10.415 12.349 14.836 4.557 4.397 9.483 8.279 14.736 11.615 10.5856 6.578 22.4424 10.808 35.1597 12.544 6.3663.809 12.9087 1.018 19.5746.626 6.6718-.419 13.4554-1.486 20.2873-3.193 6.8298-1.66 13.6902-3.977 20.5126-6.927 27.5091-11.674 53.6208-32.779 74.6613-60.346 2.6502-3.385 5.1066-6.95 7.5913-10.486 2.4848-3.537 4.7925-7.228 6.9727-11.002 2.1801-3.774 4.3297-7.541 6.3684-11.365l2.9646-5.835c.9993-1.929 1.8404-3.932 2.7759-5.902 7.1423-15.8801 14.0256-31.8529 21.1436-47.8338l42.16-95.7505z"/><path d="m145.925-34.1021-40.253 91.4185c-6.7106 15.2417-13.3321 30.4969-20.1327 45.7256-.9005 1.89-1.6902 3.838-2.685 5.694l-2.8359 5.604c-2.0179 3.685-3.9651 7.394-6.1861 10.951-2.2209 3.557-4.4819 7.081-6.7194 10.613-2.2375 3.533-4.7559 6.836-7.3146 10.107-20.2728 26.588-45.4383 46.954-71.9575 58.232-6.5786 2.85-13.1944 5.088-19.7809 6.691-6.5874 1.647-13.1289 2.684-19.5644 3.1-6.4189.393-12.7189.202-18.849-.569-6.1057-.889-12.0308-2.319-17.7332-4.281-5.6489-2.086-11.0518-4.703-16.1693-7.833-5.06-3.205-9.797-6.947-14.172-11.192-4.371-4.272-8.348-9.061-11.893-14.324-3.578-5.229-6.694-10.939-9.318-17.072-10.747-24.574-13.601-54.932-8.159-86.8151.637-3.956 1.521-7.916 2.374-11.8685.854-3.9524 1.95-7.9289 3.183-11.8751 1.233-3.9461 2.494-7.8637 3.828-11.7921l2.199-5.8313c.712-1.9574 1.596-3.8719 2.378-5.8042 6.612-15.29546 13.422-30.48338 20.133-45.7251l40.2527-91.4186.9786.349-40.2523 91.4187c-6.704 15.22581-13.429 30.4994-20.06 45.7144-.835 1.8952-1.676 3.8064-2.351 5.7405l-2.178 5.7834c-1.32 3.8966-2.699 7.7721-3.785 11.6966-1.087 3.9245-2.089 7.8424-3.141 11.7796-1.051 3.9371-1.721 7.8445-2.337 11.7528-5.388 31.547-2.565 61.586 8.072 85.9 2.616 6.064 5.721 11.708 9.282 16.874 3.511 5.2 7.449 9.932 11.776 14.153 4.351 4.197 9.054 7.901 14.07 11.083 10.1009 6.281 21.4176 10.319 33.5565 11.971 6.0756.778 12.3205.98 18.684.603 6.3686-.405 12.8426-1.422 19.3623-3.044 6.5166-1.581 13.0626-3.794 19.5715-6.617 26.2575-11.143 51.1815-31.285 71.2671-57.595 2.5259-3.227 4.8698-6.629 7.2421-10.003 2.3723-3.373 4.5674-6.903 6.6656-10.522 2.0983-3.618 4.1283-7.207 6.144-10.855l2.8149-5.556c.9572-1.833 1.7632-3.757 2.6566-5.631 6.808-15.1522 13.4152-30.4678 20.1784-45.6726l40.252-91.4184z"/><path d="m140.772-35.9405-38.345 87.0864c-6.3959 14.525-12.7066 29.0434-19.1799 43.5591-3.3011 7.272-7.0314 14.366-11.1543 21.212-1.9975 3.452-4.2333 6.764-6.3984 10.101-2.1652 3.337-4.5381 6.527-6.9655 9.623-9.6067 12.582-20.4174 23.787-32.0481 33.218-11.6511 9.384-23.96763 16.897-36.52216 22.279-6.26994 2.708-12.57434 4.841-18.85164 6.377-6.275 1.557-12.5064 2.544-18.6393 2.952-6.1286.356-12.1441.162-17.9988-.58-11.6954-1.568-22.5931-5.456-32.3062-11.525-4.8267-3.067-9.3527-6.634-13.5407-10.673-4.162-4.08-7.954-8.643-11.344-13.648-3.4-4.99-6.365-10.429-8.868-16.267-10.227-23.418-12.929-52.3444-7.727-82.7171.588-3.7523 1.45-7.5362 2.249-11.305.8-3.7689 1.866-7.5534 3.027-11.3042 2.207-7.5297 4.888-14.9979 8.018-22.331 6.296-14.5788 12.784-29.03412 19.179-43.5591l38.3455-87.0866 1.0139.362-38.3454 87.0863c-6.388 14.5091-12.791 29.05002-19.165 43.5273-3.098 7.2591-5.746 14.6533-7.92 22.1081-1.158 3.7147-2.041 7.4541-2.989 11.1884-.949 3.7343-1.638 7.4689-2.2 11.1936-5.136 30.0297-2.463 58.6283 7.646 81.7853 2.477 5.767 5.422 11.132 8.803 16.041 3.347 4.954 7.101 9.461 11.228 13.478 4.139 3.997 8.615 7.522 13.3924 10.546 9.6156 5.986 20.3919 9.83 31.9524 11.399 5.7862.742 11.7335.936 17.7938.58 6.0599-.382 12.2208-1.351 18.4253-2.899 6.1992-1.49 12.4273-3.583 18.6211-6.256 24.9915-10.621 48.7087-29.809 67.8139-54.865 2.4016-3.068 4.633-6.308 6.9163-9.51 2.2834-3.203 4.3543-6.574 6.3378-9.994 4.0903-6.771 7.788-13.791 11.0561-20.9895 6.4806-14.4394 12.777-29.0182 19.1659-43.5273l38.345-87.0864z"/><path d="m135.62-37.7785-36.4656 82.8181c-6.0799 13.8083-12.0681 27.5941-18.2328 41.409-3.1366 6.9173-6.6863 13.6634-10.6137 20.1704-1.9038 3.301-4.0203 6.435-6.0847 9.605s-4.3129 6.201-6.6229 9.155c-9.1273 11.941-19.3963 22.575-30.4428 31.524-11.0755 8.915-22.78356 16.049-34.71696 21.154-5.95594 2.594-11.94704 4.624-17.91064 6.068-5.9695 1.499-11.897 2.434-17.726 2.798-5.8179.345-11.5263.157-17.0779-.564-11.098-1.487-21.4388-5.177-30.6554-10.937-4.5977-2.898-8.9036-6.282-12.8816-10.124-3.963-3.869-7.568-8.205-10.784-12.969-3.239-4.736-6.058-9.909-8.429-15.465-9.731-22.247-12.303-49.7383-7.355-78.6044.53-3.4966 1.365-7.1606 2.142-10.7534.777-3.5927 1.788-7.1575 2.878-10.7491 2.097-7.161 4.646-14.2638 7.619-21.2387 5.993-13.85787 12.146-27.5848 18.2329-41.409l36.4656-82.8184 1.061.379-36.4656 82.8179c-6.0729 13.7924-12.1529 27.60075-18.2329 41.4091-2.931 6.8482-5.437 13.825-7.493 20.8598-1.105 3.5311-1.945 7.0828-2.833 10.6175-.888 3.5348-1.573 7.105-2.117 10.6334-4.878 28.5376-2.325 55.7113 7.302 77.7013 2.335 5.475 5.108 10.576 8.292 15.25 3.182 4.704 6.746 8.989 10.661 12.814 3.9286 3.806 8.1749 7.169 12.7049 10.062 9.1308 5.69 19.3668 9.342 30.3489 10.827 5.5017.686 11.1544.855 16.9128.505 5.781-.359 11.6583-1.275 17.5778-2.74 5.8767-1.446 11.7784-3.452 17.64702-5.996 23.74838-10.083 46.28958-28.303 64.45498-52.101 2.2632-2.878 4.3961-5.987 6.5504-9.051 2.1543-3.065 4.1103-6.237 6.0167-9.482 3.8764-6.4356 7.3867-13.1023 10.4968-19.9358 6.165-13.7227 12.1388-27.5689 18.2328-41.409l36.4659-82.8181z"/><path d="m130.467-39.6168-34.5301 78.4224c-5.7573 13.0757-11.5077 26.1355-17.272 39.2271-2.9741 6.5544-6.3366 12.9479-10.0544 19.1168-1.7798 3.0505-3.7837 6.0215-5.7754 9.0885-1.9918 3.067-4.0902 5.912-6.2807 8.687-17.409 22.824-39.0179 40.302-61.78664 49.976-5.64526 2.444-11.32236 4.364-16.97426 5.738-5.6581 1.42-11.2763 2.306-16.801 2.649-5.5007.332-10.8999.167-16.1542-.493-10.5344-1.424-20.3529-4.927-29.1108-10.385-4.3297-2.76-8.3883-5.97-12.1431-9.603-3.7614-3.66-7.1794-7.769-10.2234-12.29-3.071-4.487-5.746-9.386-7.998-14.648-4.555-10.502-7.487-22.276-8.695-34.9092-1.176-12.6462-.597-26.004 1.719-39.5976.542-3.4001 1.301-6.7966 2.036-10.2016.736-3.4049 1.626-6.7913 2.722-10.1782 1.983-6.7874 4.395-13.5199 7.213-20.1305 5.67-13.12525 11.5146-26.1514 17.272-39.2271l34.5301-78.4228 1.1084.396-34.5301 78.4222c-5.7504 13.0598-11.5214 26.16735-17.2584 39.1953-2.785 6.5292-5.17 13.1789-7.131 19.8832-1.025 3.3199-1.838 6.7155-2.698 10.0943-.861 3.3788-1.471 6.7177-2.004 10.0658-2.3 13.4069-2.894 26.585-1.758 39.0675 1.213 12.4537 4.123 24.0567 8.629 34.4067 2.232 5.196 4.878 10.035 7.913 14.47 3.009 4.456 6.3816 8.512 10.0882 12.131 3.7302 3.59 7.7611 6.759 12.0602 9.481 8.6459 5.395 18.3417 8.854 28.7454 10.256 5.2039.667 10.552.845 16.0014.53 5.4539-.348 10.9983-1.223 16.5818-2.617 5.5859-1.355 11.197-3.248 16.77681-5.661 11.16237-4.766 22.11629-11.422 32.48409-19.739 10.3569-8.39 19.9866-18.356 28.5487-29.547 2.16-2.767 4.1782-5.678 6.2011-8.568 2.023-2.89 3.9841-5.95 5.7168-9.0175 3.6791-6.0901 7.0028-12.4056 9.9374-18.8821 5.8424-12.99 11.5077-26.1354 17.258-39.1952l34.5161-78.3905z"/><path d="m125.315-41.455-32.6226 74.0903c-5.4418 12.359-10.8106 24.7072-16.3183 37.0611-2.8135 6.1916-5.993 12.2311-9.5069 18.059-1.7071 2.9476-3.5984 5.7559-5.4566 8.6127-1.8582 2.8569-3.8158 5.5679-5.9432 8.1999-8.1825 10.704-17.3871 20.238-27.2882 28.264-9.9441 8.015-20.45744 14.431-31.17456 19.027-21.51544 9.187-43.05834 10.567-61.61554 3.946-18.5572-6.62-33.2006-20.91-41.8821-40.87-4.303-9.926-7.074-21.0513-8.217-32.9887-1.107-11.9875-.544-24.6497 1.669-37.5329.5-3.2123 1.236-6.4327 1.911-9.6381s1.592-6.4349 2.58-9.6391c1.882-6.4114 4.162-12.771 6.818-19.01805 5.3547-12.40858 10.8768-24.70205 16.3186-37.06105l32.6086-74.0581 1.1791.42-32.6227 74.0906c-5.4348 12.343-10.8836 24.71797-16.3046 37.0292-2.631 6.1644-4.881 12.4439-6.725 18.7749-.979 3.1522-1.736 6.3282-2.547 9.5033-.812 3.1751-1.423 6.3294-1.885 9.5183-4.328 25.4987-2.041 49.7744 6.54 69.4427 8.5808 19.668 23.029 33.748 41.3297 40.277 18.3008 6.529 39.5418 5.182 60.76174-3.855 21.21996-9.036 41.36096-25.31 57.61486-46.554 2.0427-2.625 3.9365-5.3774 5.8587-8.1009 1.9223-2.7234 3.691-5.5939 5.3771-8.4937 3.4748-5.7493 6.6153-11.7109 9.3898-17.8243 5.5151-12.2775 10.8696-24.6861 16.3044-37.0292l32.6227-74.0903z"/></g></svg>