<svg fill="none" height="1402" viewBox="0 0 457 1402" width="457" xmlns="http://www.w3.org/2000/svg"><g fill="#b4fbf7"><path d="m1250.05 440.006-105.85 219.727-26.55 54.912-13.28 27.468c-4.43 9.164-8.67 18.317-13.42 27.436l-3.5 6.854c-1.14 2.368-2.33 4.544-3.65 6.794l-7.66 13.509c-2.66 4.471-5.52 8.87-8.27 13.296-2.74 4.426-5.7 8.805-8.68 13.127-5.82 8.778-12.37 17.185-18.74 25.685l-10.16 12.434-2.54 3.082-2.7 3.022-5.34 6.054c-57.88 64.821-132.675 115.663-213.88 145.384-10.032 3.87-20.217 6.97-30.353 10.18l-15.19 4.28c-5.129 1.48-10.218 2.46-15.316 3.72-20.461 4.67-40.92 7.91-61.191 9.69-20.247 1.67-40.254 1.98-59.861.91-39.256-2.3-76.41-10.5-110.109-24.3-16.773-6.95-32.66-15.19-47.533-24.637-14.816-9.496-28.496-20.261-40.914-32.194-3.037-3.055-6.272-5.918-9.134-9.118l-8.526-9.507c-5.397-6.642-10.876-13.223-15.63-20.326-39.617-56.393-55.568-127.304-45.609-202.754l.955-7.023.489-3.508.643-3.501 2.664-14.087c2.265-9.406 4.317-18.807 7.314-28.208 1.369-4.677 2.702-9.388 4.437-14.063s3.187-9.36 4.946-14.029l5.621-13.959c.931-2.415 1.925-4.633 3.012-6.935l3.165-6.927c4.111-9.261 8.85-18.304 13.139-27.5l13.28-27.468 26.551-54.912 106.556-219.569.877.193-146.077 302.123c-4.419 9.14-9.016 18.267-13.08 27.486l-3.142 6.88c-1.145 2.368-2.21 4.57-2.977 6.917l-5.574 13.916c-1.748 4.646-3.27 9.316-4.912 13.959-1.641 4.643-3.045 9.338-4.391 14.02-2.95 9.36-4.979 18.713-7.221 28.072l-2.63 14.016-.643 3.501-.477 3.484-.943 6.999c-9.743 74.989 6.262 145.423 45.765 201.4 4.742 7.074 10.196 13.597 15.568 20.181l8.549 9.46c2.816 3.242 6.073 6.005 9.098 9.031 12.375 11.839 25.999 22.521 40.745 31.947 14.804 9.35 30.611 17.5 47.291 24.38 33.54 13.62 70.448 21.76 109.422 24.14 19.476 1.1 39.354.83 59.473-.81 20.139-1.73 40.469-4.92 60.803-9.54 5.086-1.24 10.175-2.26 15.235-3.66l15.166-4.23c10.09-3.17 20.216-6.26 30.201-10.08 80.797-29.431 155.259-79.902 212.918-144.317l5.36-6.025 2.68-2.998 2.51-3.087 10.15-12.358c6.37-8.448 12.91-16.806 18.7-25.538 2.98-4.321 5.99-8.637 8.68-13.073 2.7-4.437 5.59-8.779 8.24-13.226l7.66-13.456c1.36-2.321 2.48-4.484 3.64-6.77l3.47-6.807c4.78-9.062 9-18.273 13.49-27.397l146.03-302.028z"/><path d="m1239.69 437.719-102.71 213.186-25.77 53.302-12.9 26.663c-4.29 8.88-8.42 17.796-13.05 26.626l-3.37 6.646c-1.08 2.226-2.16 4.452-3.54 6.61l-7.44 13.111c-2.57 4.334-5.36 8.592-8.03 12.905-2.66 4.313-5.55 8.549-8.45 12.757-5.63 8.506-11.99 16.667-18.14 24.823l-9.87 12.052-2.46 3.021-2.65 3.267-5.21 5.875c-56.182 62.901-128.77 112.239-207.578 141.091-9.679 3.736-19.618 6.756-29.472 9.876l-14.861 4.14c-4.941 1.37-9.912 2.37-14.857 3.58-19.862 4.55-39.723 7.7-59.399 9.41-19.676 1.63-39.118 1.93-58.172.89-38.104-2.24-74.169-10.2-106.884-23.59-16.298-6.737-31.735-14.724-46.185-23.893-14.372-9.234-27.648-19.69-39.706-31.272-2.953-2.958-6.093-5.747-8.847-8.845l-8.368-9.236c-5.252-6.4-10.574-12.816-15.184-19.729-19.001-27.265-32.544-58.11-40.157-91.462-7.511-33.392-8.931-68.906-4.212-105.28l.934-6.818.467-3.408.633-3.424 2.588-13.659c2.186-9.135 4.183-18.259 7.045-27.272 1.311-4.558 2.623-9.117 4.301-13.673 1.678-4.557 3.108-9.089 4.823-13.611l5.449-13.551c.863-2.273 1.868-4.515 2.921-6.746l3.062-6.714c3.973-8.977 8.599-17.783 12.75-26.694l12.891-26.663 25.772-53.302 103.372-213.039.973.214-141.613 292.888c-4.293 8.88-8.74 17.752-12.69 26.681l-3.051 6.691c-1.065 2.202-2.022 4.454-2.874 6.703l-5.427 13.504c-1.678 4.504-3.156 9.025-4.74 13.55s-2.967 9.068-4.291 13.597c-2.837 9.071-4.823 18.171-7.021 27.277l-2.53 13.593-.645 3.396-.467 3.408-.911 6.77c-9.465 72.798 6.066 141.175 44.409 195.519 4.561 6.851 9.895 13.19 15.122 19.585l8.344 9.179c2.766 3.073 5.893 5.834 8.869 8.797 12.01 11.482 25.225 21.846 39.525 30.996 14.371 9.074 29.715 16.98 45.91 23.653 32.546 13.23 68.368 21.13 106.196 23.43 18.903 1.08 38.196.81 57.725-.78 19.546-1.68 39.277-4.78 59.012-9.25 4.92-1.22 9.856-2.2 14.845-3.57l14.755-4.08c9.784-3.08 19.639-6.15 29.296-9.779 78.434-28.575 150.717-77.574 206.683-140.11l5.18-5.828 2.6-2.937 2.48-2.993 9.81-11.986c6.19-8.198 12.54-16.336 18.16-24.817 2.89-4.185 5.83-8.358 8.44-12.682 2.62-4.323 5.44-8.523 7.99-12.833l7.45-13.059c1.25-2.161 2.42-4.365 3.51-6.562l3.38-6.618c4.62-8.782 8.59-17.759 13.07-26.597l141.75-293.172z"/><path d="m1229.32 435.432-99.66 206.835-24.99 51.692-12.51 25.858c-4.16 8.619-8.15 17.251-12.64 25.826l-3.28 6.456c-1.04 2.155-2.08 4.31-3.44 6.397l-7.22 12.714c-2.49 4.221-5.19 8.342-7.77 12.541-2.58 4.2-5.36 8.277-8.2 12.342-5.46 8.256-11.63 16.196-17.64 24.173l-9.57 11.699-2.39 2.932-2.53 2.848-5.03 5.678c-54.487 61.037-124.91 108.906-201.369 136.88-9.469 3.623-18.935 6.592-28.602 9.595l-14.401 4.002c-4.801 1.352-9.619 2.307-14.422 3.5-19.26 4.4-38.518 7.44-57.596 9.09-19.068 1.59-37.911 1.88-56.376.88-36.952-2.18-71.928-9.902-103.659-22.879-15.792-6.553-30.755-14.304-44.768-23.192-13.947-8.945-26.824-19.086-38.51-30.327-2.868-2.861-5.912-5.576-8.617-8.558l-8.104-8.969c-5.039-6.353-10.25-12.455-14.703-19.151-37.3-53.057-52.319-119.788-42.94-190.793l.878-6.593.445-3.309.633-3.319 2.501-13.259c2.119-8.835 4.073-17.707 6.878-26.548 1.291-4.406 2.569-8.841 4.202-13.25s2.971-8.805 4.651-13.203l5.279-13.144c.852-2.196 1.823-4.367 2.841-6.527l2.971-6.525c3.871-8.711 8.335-17.238 12.36-25.889l12.502-25.857 24.994-51.692 100.28-206.699 1.068.236-137.468 284.316c-4.156 8.595-8.477 17.207-12.325 25.87l-2.948 6.478c-1.042 2.155-2.084 4.309-2.806 6.509l-5.221 13.077c-1.669 4.375-3.089 8.779-4.628 13.156-1.54 4.377-2.889 8.797-4.144 13.184-2.782 8.794-4.689 17.624-6.822 26.43l-2.465 13.188-.599 3.301-.457 3.279-.867 6.57c-9.193 70.591 5.864 136.897 43.052 189.586 4.452 6.643 9.569 12.777 14.664 18.959l8.08 8.911c2.681 2.977 5.712 5.663 8.569 8.495 11.631 11.156 24.456 21.207 38.352 30.056 13.938 8.786 28.812 16.448 44.504 22.924 31.572 12.8 66.302 20.468 102.971 22.718 18.323 1.04 37.024.79 55.953-.75 18.949-1.6 38.083-4.601 57.219-8.967 4.78-1.147 9.575-2.107 14.34-3.44l14.308-3.97c9.501-2.988 19.016-5.893 28.426-9.451 37.846-13.819 74.475-32.551 108.609-55.541 33.982-23.066 65.021-50.127 92.007-80.22l5.05-5.649 2.49-2.83 2.4-2.903 9.54-11.628c5.99-7.953 12.15-15.846 17.58-24.054 2.82-4.042 5.66-8.108 8.18-12.295 2.52-4.186 5.28-8.268 7.78-12.459l7.19-12.644c1.24-2.084 2.33-4.228 3.42-6.372l3.28-6.404c4.49-8.523 8.34-17.239 12.68-25.793l137.49-284.363z"/><path d="m1218.91 433.135-96.57 200.388-24.22 50.082-12.11 25.053c-4.04 8.358-7.85 16.612-12.26 25.021-2.19 4.154-4.05 8.382-6.49 12.455l-7.01 12.317c-2.41 4.079-5.03 8.087-7.52 12.15s-5.22 8.02-7.97 11.973c-5.28 7.982-11.25 15.677-17.1 23.428l-9.26 11.323c-1.5 1.921-3.1 3.769-4.75 5.606l-4.89 5.499c-52.815 59.087-121.025 105.429-195.073 132.531-9.175 3.505-18.477 6.405-27.72 9.292l-13.943 3.868c-4.647 1.307-9.324 2.24-13.997 3.384-18.653 4.266-37.305 7.213-55.781 8.812-18.48 1.55-36.739 1.83-54.628.839-17.83-1.189-35.249-3.58-52.129-7.154-16.742-3.858-32.891-8.875-48.328-15.014-15.29-6.343-29.776-13.849-43.339-22.457-13.524-8.661-26.012-18.48-37.349-29.364-2.773-2.787-5.708-5.4-8.318-8.308l-7.887-8.711c-4.951-6.046-9.924-12.044-14.244-18.526-36.109-51.4-50.683-116.013-41.677-184.776l.893-6.406c.239-2.123.584-4.248 1.023-6.404l2.435-12.854c2.065-8.559 3.941-17.16 6.656-25.707 1.257-4.282 2.466-8.575 4.054-12.837s2.904-8.557 4.516-12.814l5.132-12.73c1.636-4.251 3.757-8.422 5.617-12.65 3.745-8.45 8.072-16.693 11.971-25.084l12.113-25.052 24.215-50.082 97.143-200.263 1.138.251-133.186 275.46c-4.03 8.336-8.214 16.663-11.912 25.071-1.838 4.181-4.03 8.335-5.583 12.579l-5.074 12.664c-1.6 4.233-2.987 8.513-4.481 12.743s-2.775 8.507-3.997 12.771c-2.703 8.523-4.556 17.077-6.598 25.589l-2.401 12.782c-.427 2.133-.773 4.258-1.011 6.381l-.87 6.359c-8.894 68.377 5.688 132.604 41.695 183.652 4.319 6.43 9.303 12.405 14.194 18.411l7.851 8.624c2.597 2.879 5.544 5.469 8.281 8.222 11.278 10.804 23.693 20.554 37.133 29.158 13.493 8.529 27.898 15.964 43.099 22.247 30.578 12.408 64.222 19.832 99.746 22.011 17.76.991 35.884.734 54.227-.769 18.367-1.586 36.908-4.505 55.451-8.728 4.615-1.131 9.257-2.046 13.869-3.334l13.872-3.831c9.267-2.882 18.511-5.716 27.544-9.2 73.67-26.846 141.56-72.873 194.128-131.612l4.85-5.481c1.67-1.808 3.24-3.661 4.76-5.553l9.23-11.276c5.82-7.679 11.77-15.328 17.06-23.28 2.72-3.934 5.48-7.858 7.91-11.908 2.43-4.049 5.11-8.018 7.52-12.073l6.97-12.246c2.4-4.055 4.34-8.267 6.51-12.374 4.33-8.267 8.18-16.668 12.26-24.992l133.19-275.461z"/><path d="m1208.59 430.858-93.48 193.943-23.43 48.472-11.73 24.247c-3.9 8.075-7.66 16.181-11.86 24.216-2.13 4.013-3.93 8.122-6.3 12.053l-6.77 11.925c-2.36 3.96-4.86 7.837-7.31 11.752-2.44 3.916-5.04 7.771-7.67 11.592-5.14 7.75-10.94 15.172-16.56 22.683l-8.98 10.965c-1.47 1.85-2.99 3.637-4.61 5.404l-4.73 5.348c-25.42 28.421-54.665 53.986-86.696 75.786-32.101 21.731-66.564 39.464-102.191 52.582-8.812 3.296-17.855 6.149-26.803 8.97l-13.496 3.756c-4.518 1.257-8.935 2.195-13.55 3.273-18.057 4.126-36.112 6.985-54.001 8.551-17.884 1.476-35.558 1.745-52.879.804-34.656-2.057-67.461-9.296-97.232-21.456-14.805-6.147-28.835-13.413-41.981-21.738-13.073-8.394-25.149-17.902-36.117-28.436-2.688-2.69-5.528-5.23-8.054-8.041l-7.634-8.419c-4.747-5.87-9.611-11.66-13.786-17.954-34.965-49.766-49.062-112.335-40.31-178.917l.849-6.207c.263-2.065.574-4.119 1.003-6.199l2.359-12.425c1.998-8.312 3.807-16.613 6.455-24.912 1.188-4.141 2.388-8.305 3.907-12.425 1.52-4.119 2.814-8.262 4.369-12.4l4.96-12.323c1.591-4.104 3.655-8.156 5.447-12.242 3.631-8.161 7.82-16.173 11.724-24.247l11.724-24.248 23.436-48.471 94.005-193.828 1.233.272-128.904 266.605c-3.904 8.074-7.962 16.141-11.547 24.26-1.78 4.062-3.892 8.051-5.388 12.176l-4.926 12.251c-1.543 4.115-2.874 8.224-4.334 12.33-1.461 4.107-2.673 8.242-3.885 12.377-2.59 8.233-4.376 16.487-6.398 24.794l-2.301 12.359c-.429 2.08-.739 4.135-.991 6.175l-.826 6.16c-8.593 66.163 5.513 128.31 40.339 177.718 4.208 6.17 9.001 11.997 13.748 17.814l7.574 8.328c2.536 2.787 5.317 5.288 8.029 7.983 10.912 10.44 22.927 19.856 35.936 28.16 13.061 8.251 27.004 15.444 41.717 21.523 29.585 12.014 62.141 19.198 96.52 21.299 17.186.964 34.726.718 52.479-.736 17.756-1.515 35.683-4.324 53.613-8.4 4.497-1.104 8.997-1.998 13.456-3.241l13.414-3.696c8.89-2.808 17.817-5.529 26.639-8.902 35.495-12.962 69.847-30.535 101.855-52.105 31.871-21.654 60.974-47.056 86.28-75.302l4.71-5.301c1.6-1.742 3.12-3.529 4.6-5.38l8.94-10.894c5.62-7.458 11.37-14.838 16.5-22.564 2.66-3.816 5.3-7.608 7.68-11.54 2.37-3.931 4.92-7.744 7.27-11.68l6.75-11.849c2.31-3.947 4.16-7.993 6.27-11.982 4.2-7.983 7.81-16.149 11.9-24.182l128.86-266.51z"/><path d="m1198.23 428.572-90.37 187.502-22.66 46.861-11.33 23.442c-3.78 7.814-7.4 15.636-11.48 23.411-2.03 3.876-3.79 7.838-6.12 11.751l-6.55 11.528c-2.27 3.823-4.71 7.581-7.07 11.359-2.35 3.779-4.89 7.516-7.44 11.224-4.96 7.476-10.55 14.653-16.01 21.914l-8.67 10.613c-2.8 3.574-5.98 6.935-9.03 10.375-49.421 55.35-113.29 98.755-182.63 124.114-8.598 3.344-17.267 5.965-25.933 8.69l-13.061 3.617c-4.353 1.241-8.711 2.114-13.079 3.168-17.466 3.991-34.931 6.752-52.232 8.259-17.289 1.443-34.371 1.703-51.108.776-33.51-1.979-65.229-8.978-94.007-20.744-14.311-5.938-27.872-12.959-40.574-21.009-12.65-8.116-24.334-17.309-34.945-27.496-2.581-2.588-5.42-5.075-7.789-7.773l-7.382-8.128c-4.579-5.675-9.275-11.271-13.34-17.356-33.812-48.13-47.436-108.645-38.954-173.037.612-3.979.94-7.969 1.775-11.977l2.271-12.026c1.944-8.035 3.698-16.06 6.232-24.07 1.179-4.012 2.333-8.028 3.796-12.03 1.462-4.001 2.735-7.991 4.245-11.982l4.789-11.915c1.534-3.986 3.529-7.895 5.298-11.934 3.505-7.9 7.556-15.628 11.335-23.442l11.334-23.443 22.658-46.861 90.867-187.392 1.304.288-124.633 257.772c-3.767 7.79-7.557 15.628-11.157 23.455-1.712 3.92-3.767 7.79-5.218 11.768l-4.732 11.849c-1.498 3.967-2.795 7.952-4.187 11.917-1.392 3.964-2.617 7.965-3.761 11.958-2.511 7.963-4.243 15.94-6.163 23.929l-2.237 11.954c-.848 3.979-1.2 7.911-1.764 11.901-8.288 63.982 5.381 124.074 39.089 171.835 3.995 6.122 8.7 11.589 13.278 17.212l7.334 8.065c2.428 2.685 5.184 5.127 7.753 7.686 10.538 10.112 22.159 19.223 34.751 27.244 12.618 7.976 26.091 14.925 40.311 20.793 28.592 11.622 60.062 18.566 93.295 20.587 16.613.937 33.569.702 50.731-.702 17.167-1.47 34.499-4.191 51.833-8.138 4.332-1.035 8.667-1.913 12.974-3.112l12.966-3.585c8.608-2.713 17.252-5.339 25.757-8.598 68.915-25.104 132.424-68.16 181.59-123.111 2.98-3.456 6.18-6.759 8.98-10.31l8.64-10.541c5.43-7.214 11-14.343 15.95-21.767 2.55-3.684 5.11-7.363 7.42-11.153 2.3-3.789 4.75-7.494 7.03-11.288l6.51-11.457c2.23-3.805 4.03-7.733 6.07-11.58 4.05-7.727 7.56-15.628 11.49-23.382l124.63-257.771z"/><path d="m1187.87 426.284-87.28 181.056-21.88 45.251-10.94 22.638c-3.66 7.553-7.14 15.091-11.07 22.611-1.97 3.757-3.66 7.577-5.89 11.253l-6.32 11.13c-2.19 3.71-4.54 7.332-6.8 10.973-2.26 3.642-4.72 7.266-7.21 10.832-4.78 7.226-10.19 14.182-15.48 21.164l-8.37 10.26c-2.73 3.461-5.81 6.58-8.734 10.023-23.729 26.542-51.04 50.414-80.957 70.763-29.971 20.291-62.15 36.85-95.415 49.097-8.281 3.177-16.679 5.727-25.051 8.387l-12.613 3.506c-4.189 1.172-8.406 2.023-12.632 3.056-16.864 3.835-33.725 6.493-50.43 7.95-16.699 1.393-33.2 1.649-49.37.766-32.358-1.917-62.988-8.676-90.782-20.033-13.831-5.722-26.93-12.502-39.192-20.284-12.217-7.836-23.501-16.714-33.748-26.551-2.497-2.49-5.157-4.859-7.526-7.504l-7.129-7.837c-4.434-5.486-8.95-10.911-12.893-16.76-16.109-23.16-27.579-49.359-34.011-77.684-6.356-28.36-7.542-58.518-3.516-89.404.578-3.855.874-7.669 1.711-11.572l2.207-11.62c1.853-7.741 3.564-15.513 5.996-23.258 1.133-3.864 2.219-7.738 3.672-11.611 1.452-3.872 2.609-7.731 4.074-11.575l4.619-11.507c1.488-3.838 3.415-7.606 5.081-11.431 3.403-7.635 7.293-15.084 10.945-22.637l10.945-22.638 21.879-45.251 87.729-180.956 1.4.308-120.341 248.892c-3.64 7.53-7.435 15.053-10.791 22.646-1.643 3.778-3.641 7.529-5.023 11.365l-4.584 11.436c-1.43 3.825-2.682 7.663-4.04 11.504s-2.504 7.676-3.638 11.54c-2.409 7.697-4.085 15.398-5.927 23.116l-2.137 11.53c-.815 3.856-1.063 7.627-1.701 11.496-8.026 61.749 5.14 119.751 37.65 165.857 3.883 5.81 8.398 11.182 12.808 16.61l7.081 7.774c2.356 2.616 5.004 4.956 7.501 7.446 10.185 9.744 21.397 18.535 33.531 26.294 12.182 7.703 25.194 14.411 38.93 20.069 27.63 11.204 58.024 17.911 90.117 19.886 16.031.911 32.395.685 48.958-.674 16.582-1.422 33.321-4.046 50.065-7.847 4.167-1.019 8.349-1.852 12.538-3.024l12.508-3.451c8.301-2.623 16.64-5.159 24.994-8.268 33.038-12.125 65.007-28.526 94.795-48.632 29.732-20.199 56.884-43.891 80.493-70.236 2.89-3.319 5.994-6.538 8.694-9.952l8.33-10.165c5.23-6.969 10.63-13.848 15.41-21.022 2.46-3.571 4.96-7.108 7.15-10.766 2.19-3.657 4.63-7.234 6.79-10.896l6.29-11.06c2.17-3.663 3.9-7.472 5.88-11.177 3.92-7.467 7.29-15.083 11.1-22.577l120.34-248.892z"/></g></svg>