<svg fill="none" height="766" viewBox="0 0 302 766" width="302" xmlns="http://www.w3.org/2000/svg"><g fill="#b4fbf7"><path d="m-12.6823-148.516 36.0952 189.4142 8.9471 47.3681 4.4755 23.6947c1.4931 7.904 3.1214 15.741 4.3528 23.717l.9796 5.971c.3859 2.043.6428 3.961.8332 5.978l1.3595 12.012c.3566 4.016.525 8.046.796 12.057.271 4.01.3583 8.055.3969 12.067.2559 8.076-.2337 16.122-.5319 24.175l-1.0669 12.048-.2806 2.994-.428 3-.8142 5.993c-9.2327 64.383-38.39653 124.258-83.3972 171.219-5.4574 5.939-11.4312 11.383-17.3081 16.893l-9.0903 7.873c-3.0457 2.691-6.3321 5.004-9.4739 7.522-12.8119 9.84-26.3744 18.661-40.5634 26.384-14.221 7.648-28.982 14.247-44.165 19.745-30.482 10.89-62.483 16.934-94.838 17.913-16.15.423-32.31-.342-48.348-2.291-16.021-2-31.86-5.262-47.368-9.754-3.864-1.195-7.776-2.191-11.585-3.545l-11.336-4.014c-7.502-2.984-15.034-5.898-22.298-9.412-59.069-27.31-108.089-72.453-140.161-129.078l-2.965-5.278-1.472-2.642-1.353-2.685-5.388-10.829c-3.235-7.385-6.627-14.699-9.313-22.315-1.428-3.749-2.9-7.512-4.053-11.377s-2.523-7.647-3.656-11.516l-3.116-11.681c-.57-2.008-.99-3.896-1.385-5.873l-1.265-5.917c-1.783-7.872-2.983-15.79-4.598-23.671l-4.476-23.695-8.947-47.368-35.482-189.5299.756-.1427 49.226 260.6166c1.489 7.884 2.839 15.816 4.635 23.643l1.258 5.876c.386 2.042.745 3.942 1.401 5.849l3.129 11.636c1.129 3.849 2.438 7.642 3.644 11.455 1.207 3.813 2.618 7.587 4.066 11.333 2.699 7.571 6.083 14.844 9.311 22.188l5.376 10.768 1.353 2.685 1.468 2.621 2.961 5.258c31.993 56.228 80.803 101.016 139.569 128.068 7.24 3.498 14.722 6.379 22.176 9.329l11.328 3.974c3.797 1.398 7.673 2.316 11.513 3.495 15.427 4.439 31.18 7.66 47.112 9.633 15.935 1.9 31.989 2.629 48.031 2.182 32.144-1.051 63.934-7.056 94.246-17.802 15.101-5.435 29.782-11.97 43.927-19.551 14.114-7.649 27.6068-16.393 40.3525-26.154 3.1456-2.498 6.4038-4.848 9.4446-7.454l9.098-7.832c5.8641-5.465 11.8009-10.881 17.2456-16.775 44.84958-46.623 73.9602-106.129 83.2392-170.153l.8384-5.976.4315-2.98.2606-2.989 1.0984-11.991c.3264-8.016.8242-16.022.576-24.056-.0386-4.012-.0569-8.028-.3688-12.031-.3118-4.003-.4322-8-.7848-11.995l-1.3309-11.976c-.202-2.077-.4959-3.968-.8293-5.957l-.9719-5.93c-1.1829-7.942-2.8602-15.812-4.2881-23.708l-49.2111-260.535z"/><path d="m-21.609-146.83 35.0094 183.7803 8.6848 45.979 4.3443 22.9997c1.4468 7.66 3.037 15.293 4.2017 23.027l.9653 5.783c.3626 1.92.7251 3.84.8222 5.81l1.3144 11.662c.3538 3.89.4997 7.797.7718 11.701.2721 3.905.3359 7.828.3755 11.734.2506 7.822-.2201 15.632-.5354 23.371l-1.0506 11.686-.2518 2.924-.2701 3.161-.8042 5.822c-8.9712 62.481-37.27704 120.587-80.9461 166.165-5.2636 5.733-11.0935 11.044-16.8097 16.397l-8.9169 7.671c-2.9668 2.549-6.151 4.843-9.2022 7.281-12.4316 9.559-25.5974 18.122-39.3764 25.609-13.818 7.435-28.161 13.85-42.915 19.192-29.591 10.568-60.654 16.435-92.061 17.389-15.684.423-31.379-.31-46.955-2.195-15.552-1.957-30.927-5.129-45.984-9.486-3.751-1.154-7.553-2.128-11.228-3.443l-11.076-3.874c-7.268-2.858-14.596-5.705-21.653-9.132-28.445-13.252-54.693-30.781-77.831-51.979-23.083-21.258-42.735-45.962-58.258-73.234l-2.872-5.127-1.436-2.564-1.322-2.627-5.22-10.501c-3.152-7.169-6.44-14.269-9.024-21.566-1.408-3.648-2.816-7.295-3.95-11.058s-2.44-7.43-3.529-11.18l-3.03-11.338c-.547-1.886-.971-3.794-1.354-5.71l-1.231-5.733c-1.736-7.627-2.897-15.34-4.467-22.977l-4.344-23-8.685-45.979-34.437-183.8885.837-.1582 47.722 252.6497c1.447 7.66 2.775 15.364 4.504 22.949l1.227 5.713c.359 1.899.824 3.8 1.366 5.665l3.023 11.297c1.105 3.726 2.371 7.4 3.558 11.111 1.187 3.71 2.534 7.37 3.918 11.001 2.633 7.33 5.916 14.41 9.044 21.562l5.229 10.436 1.298 2.611 1.436 2.563 2.864 5.086c31.053 54.588 78.433 98.07 135.479 124.335 6.988 3.397 14.285 6.186 21.531 9.049l11.028 3.84c3.672 1.295 7.449 2.253 11.22 3.402 14.968 4.303 30.249 7.429 45.705 9.349 15.468 1.843 31.05 2.548 46.621 2.109 31.198-1.012 62.051-6.84 91.468-17.276 14.659-5.272 28.91-11.612 42.64-18.97 13.695-7.43 26.7901-15.916 39.1664-25.38 3.0307-2.434 6.1984-4.703 9.206-7.26l8.8672-7.598c5.683-5.305 11.4273-10.621 16.7267-16.276 43.53584-45.262 71.7911-103.031 80.7929-165.185l.8119-5.78.402-2.911.2761-2.908 1.0418-11.62c.328-7.784.8025-15.574.5559-23.376-.0359-3.885-.0307-7.779-.3436-11.676-.313-3.896-.4102-7.771-.7602-11.639l-1.2863-11.625c-.1953-1.931-.476-3.866-.8144-5.77l-.9416-5.766c-1.157-7.694-2.8934-15.32-4.1768-23.011l-47.7682-252.895z"/><path d="m-30.5348-145.144 33.95548 178.3104 8.42242 44.5902 4.2131 22.3054c1.4044 7.435 2.9478 14.823 4.0905 22.328l.9345 5.62c.351 1.859.7024 3.718.7879 5.627l1.2693 11.31c.3549 3.784.4976 7.564.7709 11.363.2732 3.799.3309 7.574.3475 11.358.2489 7.59-.1994 15.185-.5047 22.752l-1.0102 11.34-.2467 2.839-.3971 2.825-.778 5.626c-8.6828 60.619-36.1424 116.994-78.5197 161.201-5.1642 5.587-10.67 10.71-16.3072 15.921l-8.6452 7.43c-2.8724 2.489-5.966 4.702-8.9228 7.08-12.0612 9.259-24.8322 17.556-38.1932 24.815-13.391 7.207-27.291 13.424-41.589 18.602-28.699 10.244-58.824 15.934-89.282 16.864-15.209.396-30.425-.322-45.529-2.147-15.085-1.888-29.997-4.963-44.597-9.198-3.637-1.112-7.329-2.064-10.907-3.313l-10.739-3.768c-7.084-2.893-14.165-5.554-20.991-8.877-55.595-25.685-101.731-68.164-131.91-121.454l-2.796-4.951-1.401-2.485-1.265-2.554-5.077-10.19c-3.044-6.935-6.232-13.842-8.768-21-1.345-3.533-2.713-7.082-3.803-10.727-1.091-3.644-2.394-7.184-3.444-10.836l-2.944-10.995c-.514-1.828-.927-3.675-1.298-5.53l-1.2-5.57c-1.674-7.405-2.809-14.87-4.336-22.282l-4.213-22.305-8.423-44.59-33.424-178.4107.92-.1736 46.325 245.2563c1.4 7.414 2.686 14.893 4.352 22.257l1.193 5.529c.351 1.859.702 3.718 1.315 5.506l2.952 10.929c1.046 3.632 2.292 7.204 3.436 10.796s2.451 7.153 3.812 10.661c2.529 7.117 5.729 13.981 8.749 20.899l5.065 10.128 1.282 2.529 1.376 2.47 2.793 4.93c30.1 52.938 76.042 95.104 131.36 120.564 6.798 3.285 13.826 5.998 20.862 8.752l10.691 3.735c3.558 1.253 7.225 2.189 10.838 3.284 14.515 4.192 29.341 7.221 44.338 9.057 14.994 1.777 30.097 2.459 45.191 2.041 30.247-1.004 60.16-6.654 88.69-16.752 14.208-5.112 28.023-11.256 41.333-18.385 13.294-7.179 25.994-15.407 37.9797-24.605 2.9645-2.337 6.0379-4.546 8.8937-7.011l8.5916-7.377c5.5223-5.147 11.097-10.24 16.2523-15.763 20.9902-21.862 38.5012-46.816 51.92153-73.99 13.26809-27.181 22.24917-56.251 26.62417-86.179l.8018-5.61.381-2.801.2706-2.822 1.0217-11.278c.3091-7.547.7652-15.101.524-22.65-.0127-3.763-.0291-7.547-.3393-11.317-.3103-3.771-.3882-7.543-.7189-11.309l-1.2577-11.25c-.1634-1.873-.4734-3.739-.7836-5.606l-.9064-5.583c-1.1145-7.469-2.809-14.87-4.0462-22.316l-46.3329-245.296z"/><path d="m-39.5021-143.451 32.88555 172.7586 8.16007 43.2012 4.08195 21.6108c1.36194 7.2104 2.8436 14.2714 3.95926 21.6344.53987 3.642 1.36547 7.23 1.67687 10.895l1.2241 10.96c.3318 3.66.4761 7.335.7466 11.007.2706 3.672.3085 7.346.3262 11.024.2435 7.337-.1859 14.695-.4889 22.051l-.974 10.973c-.1176 1.841-.3445 3.661-.6128 5.489l-.7681 5.455c-8.4527 58.703-35.0614 113.29-76.0967 156.111-5.0074 5.409-10.4264 10.431-15.8084 15.425l-8.3736 7.187c-2.7818 2.408-5.7809 4.562-8.6676 6.863-11.6774 8.972-24.0444 17.01-36.9864 24.037-12.971 6.993-26.442 13.016-40.302 18.02-13.92 4.846-28.162 8.71-42.622 11.563-14.507 2.607-29.176 4.205-43.903 4.781-14.724.384-29.456-.312-44.078-2.083-14.62-1.821-29.074-4.792-43.227-8.886-3.527-1.089-7.084-2.004-10.553-3.232l-10.443-3.654c-6.857-2.703-13.706-5.366-20.321-8.58-53.839-24.891-98.535-66.012-127.817-117.595l-2.688-4.823c-.933-1.579-1.788-3.195-2.59-4.863l-4.913-9.882c-2.941-6.722-6.045-13.413-8.494-20.333-1.305-3.435-2.65-6.861-3.697-10.387-1.047-3.525-2.314-6.988-3.341-10.517l-2.837-10.655c-1.006-3.534-1.607-7.165-2.433-10.753-1.631-7.181-2.72-14.4-4.204-21.588l-4.082-21.61-8.16-43.202-32.396-172.8505.981-.1852 44.882 237.6167c1.358 7.19 2.597 14.423 4.241 21.559.819 3.548 1.359 7.19 2.422 10.692l2.846 10.589c1.023 3.509 2.229 6.984 3.329 10.457s2.385 6.911 3.706 10.322c2.445 6.899 5.542 13.549 8.475 20.23l4.902 9.821c.797 1.648 1.652 3.263 2.585 4.843l2.681 4.782c29.164 51.274 73.663 92.119 127.242 116.794 6.587 3.177 13.432 5.819 20.224 8.513l10.37 3.605c3.445 1.211 6.998 2.105 10.48 3.182 14.067 4.056 28.431 7.002 42.959 8.81 14.528 1.737 29.163 2.409 43.789 2.01 29.301-.965 58.278-6.438 85.912-16.228 13.764-4.963 27.146-10.927 40.039-17.844 12.868-6.982 25.167-14.964 36.7855-23.872 2.8497-2.273 5.8325-4.401 8.5977-6.785l8.3404-7.139c5.4025-4.998 10.8128-9.955 15.7257-15.304 40.8869-42.518 67.421652-96.781 75.87446-155.159l.75145-5.431c.29249-1.811.49959-3.627.64149-5.452l.9812-10.932c.3146-7.295.7517-14.612.5325-21.932-.0343-3.654-.0275-7.315-.3351-10.959-.3074-3.644-.3866-7.31-.7146-10.95l-1.21258-10.898c-.32792-3.641-1.09208-7.241-1.62429-10.842-1.09257-7.24-2.6183-14.42-3.93548-21.6175l-44.88225-237.6165z"/><path d="m-48.3877-141.772 31.8157 167.2062 7.89773 41.8121 3.95079 20.9163c1.31564 6.9653 2.75374 13.9074 3.828122 20.9394.516771 3.52 1.323478 7.006 1.611726 10.548l1.198892 10.605c.31256 3.558.4746 7.103.70155 10.656.22695 3.554.30695 7.114.34236 10.661.22533 7.129-.20928 14.235-.47303 21.35l-.95401 10.631c-.12916 1.78-.32732 3.531-.607182 5.297l-.733152 5.301c-4.076476 28.24-12.502596 55.679-24.978396 81.34-12.5634 25.634-28.9824 49.19-48.6848 69.847-4.8455 5.147-10.0963 10.052-15.2934 14.905l-8.0979 6.966c-2.7117 2.332-5.5143 4.406-8.3923 6.641-11.307 8.683-23.275 16.468-35.796 23.284-12.566 6.751-25.605 12.58-39.016 17.439-26.922 9.598-55.178 14.935-83.747 15.818-14.259.368-28.526-.302-42.688-2.006-14.145-1.776-28.129-4.659-41.823-8.622-3.414-1.048-6.861-1.941-10.216-3.127l-10.102-3.528c-6.613-2.644-13.272-5.194-19.68-8.32-52.13-24.099-95.4-63.925-123.73-113.882l-2.617-4.667c-.884-1.547-1.728-3.101-2.497-4.712l-4.746-9.554c-2.861-6.525-5.858-12.982-8.228-19.706-1.281-3.312-2.567-6.645-3.59-10.048-1.024-3.402-2.227-6.75-3.234-10.178l-2.752-10.311c-.962-3.415-1.544-6.943-2.347-10.409-1.564-6.94-2.635-13.951-3.95-20.917l-3.951-20.916-7.898-41.812-31.366-167.2913 1.062-.2006 43.44 229.9769c1.315 6.966 2.512 13.974 4.089 20.869.799 3.446 1.312 6.945 2.356 10.344l2.74 10.25c1.003 3.407 2.162 6.742 3.223 10.117 1.06 3.375 2.321 6.691 3.582 10.007 2.379 6.659 5.368 13.075 8.209 19.604l4.754 9.489c.77 1.611 1.613 3.165 2.494 4.691l2.609 4.627c28.229 49.609 71.285 89.133 123.124 113.023 6.368 3.028 12.994 5.626 19.579 8.233l10.008 3.483c3.351 1.165 6.734 2.049 10.168 3.093 13.603 3.915 27.493 6.752 41.542 8.485 14.061 1.677 28.225 2.325 42.38 1.938 28.354-.928 56.395-6.224 83.134-15.703 13.322-4.8 26.274-10.57 38.753-17.263 12.449-6.738 24.348-14.446 35.586-23.053 2.775-2.217 5.664-4.285 8.3383-6.589l8.0689-6.897c5.1601-4.825 10.393-9.6 15.2066-14.804 19.6854-20.505 36.1048-43.912 48.6841-69.402 12.4322-25.506 20.83862-52.785 24.92005-80.865l.741418-5.259c.283718-1.746.4818278-3.497.610989-5.277l.965103-10.57c.29186-7.078.71432-14.139.4928-21.247-.01497-3.552-.02643-7.082-.31468-10.624s-.380787-7.057-.689426-10.595l-1.167412-10.548c-.349537-3.53-1.086752-6.987-1.599672-10.487-1.04621-6.995-2.63164-13.9301-3.78385-20.9263l-43.42382-229.8957z"/><path d="m-57.3138-140.086 30.7658 161.6506 7.6354 40.4231 3.8196 20.2219c1.2732 6.7406 2.6655 13.4376 3.6974 20.2444.5141 3.394 1.2767 6.762 1.58155 10.279l1.15424 10.254c.30979 3.432.45207 6.874.67633 10.301.22419 3.427.28494 6.885.32152 10.327.21986 6.876-.19575 13.745-.4611 20.628l-.91354 10.285c-.22012 3.426-.82729 6.82-1.3042 10.231-7.879 54.973-32.7876 106.095-71.2243 146.179-4.6617 5.111-9.7544 9.733-14.7908 14.429l-7.8471 6.728c-2.596 2.268-5.39 4.276-8.096 6.416-10.936 8.399-22.515 15.927-34.63 22.513-12.138 6.538-24.742 12.171-37.709 16.854-26.027 9.288-53.347 14.448-80.969 15.294-13.781.359-27.571-.288-41.258-1.938-13.683-1.714-27.21-4.499-40.456-8.331-3.28-1.009-6.699-1.865-9.879-3.02l-9.761-3.403c-6.385-2.56-12.817-5.026-19.034-8.04-50.414-23.307-92.255-61.828-119.641-110.148-1.627-3.014-3.471-5.945-4.946-9.051l-4.602-9.243c-2.758-6.312-5.651-12.556-7.954-19.039-1.221-3.217-2.463-6.431-3.467-9.732s-2.144-6.534-3.108-9.842l-2.665-9.968c-.943-3.313-1.502-6.719-2.297-10.144-1.522-6.715-2.546-13.481-3.819-20.222l-3.82-20.222-7.635-40.423-30.337-161.7313 1.123-.2122 42 222.3585c1.27 6.72 2.547 13.481 3.959 20.174.776 3.323 1.269 6.72 2.27 10.001l2.674 9.903c.96 3.288 2.079 6.525 3.116 9.777 1.038 3.252 2.218 6.478 3.456 9.671 2.295 6.442 5.181 12.645 7.931 18.916l4.59 9.182c1.451 3.089 3.246 5.987 4.914 8.993 27.315 47.968 68.969 86.174 119.112 109.254 6.185 3.063 12.556 5.435 18.914 7.957l9.691 3.373c3.217 1.128 6.551 1.979 9.806 2.972 13.154 3.801 26.59 6.548 40.18 8.213 13.586 1.625 27.272 2.249 40.949 1.869 27.408-.888 54.513-6.008 80.356-15.178 12.88-4.636 25.403-10.211 37.467-16.681 12.033-6.518 23.534-13.974 34.395-22.299 2.689-2.116 5.463-4.121 8.047-6.343l7.7932-6.677c4.9994-4.667 10.0716-9.285 14.7079-14.307 38.2532-39.767 63.0762-90.527 70.9768-145.138.4156-3.399 1.0713-6.76 1.2954-10.166l.92454-10.223c.27307-6.842.69695-13.671.50519-20.51-.03265-3.421-.04486-6.846-.30996-10.265-.26509-3.419-.37926-6.825-.66477-10.24l-1.1427-10.193c-.3263-3.407-1.0448-6.762-1.5346-10.139-1.0242-6.7665-2.5462-13.4813-3.6725-20.2285l-42.0002-222.3585z"/><path d="m-66.2405-138.4 29.6964 156.0982 7.373 39.0342 3.6884 19.5273c1.2308 6.516 2.5763 12.9679 3.5862 19.5467.4948 3.2913 1.2348 6.5366 1.501 9.8496l1.1087 9.903c.3108 3.326.451 6.642.6725 9.942.2215 3.301.2834 6.653.2968 9.972.2183 6.643-.175 13.297-.4662 19.931l-.873 9.938c-.2191 3.321-.8851 6.514-1.2637 9.886-3.8013 26.372-11.6719 51.994-23.3306 75.952-11.7284 23.935-27.0585 45.93-45.4554 65.217-4.5126 4.893-9.4407 9.378-14.2926 13.933l-7.571 6.507c-2.51 2.167-5.209 4.115-7.82 6.195-10.569 8.096-21.752 15.358-33.448 21.719-11.725 6.314-23.897 11.759-36.419 16.293-25.135 8.964-51.517 13.947-78.191 14.769-13.31.358-26.629-.265-39.848-1.866-13.213-1.654-26.277-4.343-39.069-8.043-3.166-.967-6.39-1.797-9.541-2.915l-9.42-3.277c-6.178-2.471-12.386-4.874-18.389-7.759-24.139-11.268-46.409-26.167-66.035-44.18-19.587-18.062-36.26-39.047-49.427-62.21-1.587-2.916-3.363-5.711-4.782-8.743l-4.438-8.935c-2.671-6.075-5.464-12.127-7.704-18.388-1.178-3.099-2.396-6.19-3.34-9.397-.945-3.206-2.102-6.309-3.022-9.499l-2.579-9.625c-.9-3.193-1.435-6.477-2.195-9.718-1.46-6.494-2.458-13.012-3.689-19.528l-3.688-19.527-7.373-39.034-29.308-156.1718 1.205-.2276 40.553 214.6984c1.227 6.496 2.335 13.035 3.807 19.484.753 3.2 1.227 6.495 2.204 9.653l2.568 9.564c.937 3.165 2.012 6.283 3.01 9.437.998 3.155 2.151 6.237 3.329 9.336 2.232 6.221 5.014 12.211 7.681 18.265l4.442 8.85c1.412 2.991 3.2 5.742 4.751 8.686 26.341 46.302 66.525 83.189 114.908 105.478 5.938 2.877 12.118 5.242 18.248 7.681l9.351 3.247c3.127 1.102 6.327 1.915 9.492 2.883 12.697 3.652 25.661 6.303 38.773 7.929 13.118 1.57 26.333 2.171 39.539 1.797 26.472-.878 52.651-5.822 77.619-14.661 12.433-4.469 24.519-9.849 36.16-16.096 11.622-6.297 22.732-13.495 33.229-21.529 2.574-2.052 5.257-3.976 7.768-6.142l7.521-6.435c4.818-4.506 9.7097-8.963 14.3117-13.83 18.2917-19.129 33.5475-40.945 45.2374-64.69 11.5987-23.793 19.4447-49.238 23.2596-75.431.4183-3.274 1.0485-6.545 1.2753-9.824l.8884-9.857c.2542-6.606.6796-13.202.4894-19.809-.0338-3.315-.0229-6.617-.3057-9.906-.2827-3.289-.3368-6.6-.64-9.885l-1.0976-9.842c-.3032-3.285-1.0018-6.5377-1.4685-9.792-.9817-6.5418-2.458-13.0114-3.5419-19.5339l-40.5534-214.6981z"/></g></svg>