<svg fill="none" height="769" viewBox="0 0 249 769" width="249" xmlns="http://www.w3.org/2000/svg"><g fill="#b4fbf7"><path d="m-1.5736-39.7206 81.2448 205.2226 20.1857 51.355 10.0961 25.686 7.573 19.265 2.428 6.459 2.424 6.482c.846 2.152 1.685 4.287 2.327 6.519l4.415 13.092c1.403 4.378 2.656 8.793 3.992 13.176.636 2.214 1.356 4.396 1.925 6.616l1.735 6.628c2.47 8.845 4.343 17.718 6.285 26.522l2.541 13.311.634 3.333.517 3.317 1.023 6.639 1.023 6.639.796 6.625.789 6.606.388 3.306.284 3.285 1.092 13.135.615 13.011c.585 17.289.197 34.253-1.162 50.759-2.878 32.987-9.802 63.729-20.53 91.153-2.605 6.926-5.686 13.376-8.739 19.898l-4.903 9.362c-.759 1.582-1.719 3.036-2.598 4.521l-2.662 4.463c-.905 1.453-1.751 2.987-2.702 4.396l-2.858 4.209c-1.912 2.823-3.777 5.627-5.853 8.244-2.0764 2.618-4.0645 5.284-6.1497 7.843l-6.5045 7.361c-8.9043 9.501-18.5235 17.884-28.7803 25.084-20.5798 14.288-43.6907 23.372-68.49159 26.922-12.40991 1.728-25.16411 2.138-38.15751 1.227l-9.7688-.944c-3.2817-.45-6.5649-1.044-9.8629-1.57s-6.592-1.323-9.8937-2.034l-4.9591-1.136c-1.6554-.385-3.3196-.932-4.9793-1.398l-4.9692-1.443c-1.6668-.484-3.3315-.927-4.9878-1.56l-9.9776-3.512c-6.587-2.713-13.295-5.315-19.942-8.605-26.537-12.736-52.553-30.495-77.14-52.659-12.235-11.162-24.071-23.322-35.414-36.381l-8.41-9.948-8.144-10.363-2.029-2.599-1.966-2.686-3.921-5.375-3.928-5.394-3.771-5.558-3.76-5.563-1.892-2.777-1.806-2.873-7.262-11.455c-4.572-7.874-9.242-15.648-13.457-23.703l-3.242-6.036c-1.095-2.013-2.053-4.101-3.084-6.16-2.017-4.115-4.095-8.207-6.047-12.368l-5.694-12.589c-.978-2.101-1.864-4.217-2.734-6.36l-2.627-6.402-2.632-6.379-7.615-19.372-10.096-25.687-20.186-51.355-80.252-205.612.119-.047 118.59 301.708 2.632 6.379 2.632 6.379c.839 2.135 1.749 4.241 2.72 6.324l5.672 12.536c1.965 4.156 4.048 8.225 6.053 12.345 1.035 2.036 1.994 4.124 3.082 6.119l3.235 6.018c4.212 8.119 8.868 15.856 13.456 23.703l7.242 11.401 1.81 2.851 1.88 2.781 3.765 5.541 3.746 5.527 3.913 5.358 3.926 5.353 1.954 2.69 2.022 2.581 8.183 10.285 8.388 9.895c11.303 12.989 23.095 25.083 35.282 36.185 24.577 22.024 50.569 39.627 77.066 52.191 6.593 3.29 13.215 5.885 19.83 8.565l9.9212 3.473c1.6325.642 3.302 1.063 4.9498 1.533l4.9693 1.443c1.6407.453 3.2977.982 4.9412 1.372l4.9403 1.123c3.3108.769 6.5857 1.553 9.8554 2.007 3.2698.454 6.5433 1.094 9.7941 1.535l9.8024.889c12.8998.866 25.5643.442 37.89297-1.268 24.63503-3.638 47.61403-12.671 68.13303-26.78 10.1924-7.145 19.7559-15.458 28.6146-24.874l6.4707-7.307c2.0923-2.541 4.0803-5.207 6.1395-7.797 2.0595-2.59 3.9105-5.43 5.8395-8.176l2.853-4.187c.938-1.404 1.791-2.92 2.678-4.387l2.664-4.422c.886-1.467 1.798-2.902 2.58-4.494l4.906-9.321c2.99-6.435 6.145-12.77 8.686-19.753 10.752-27.245 17.718-57.808 20.655-90.623 1.364-16.432 1.768-33.32 1.212-50.529l-.607-12.953-1.011-13.105-.277-3.266-.388-3.306-.782-6.589-.782-6.588-1.009-6.603-1.027-6.617-.505-3.322-.627-3.315-2.52-13.257c-1.988-8.849-3.847-17.685-6.285-26.522l-1.729-6.61c-.55-2.207-1.281-4.384-1.91-6.58-1.324-4.388-2.57-8.785-3.973-13.163l-4.382-13.043c-.695-2.191-1.498-4.339-2.314-6.483l-2.416-6.464-2.404-6.469-118.5765-301.6714z"/><path d="m-6.79764-37.666 79.30314 200.353 19.7063 50.135 9.8712 25.112 7.389 18.799 2.372 6.315 2.367 6.339c.825 2.098 1.583 4.202 2.276 6.353l4.314 12.8c1.361 4.27 2.583 8.573 3.896 12.862.627 2.156 1.332 4.301 1.88 6.467l1.703 6.475c2.397 8.626 4.228 17.287 6.188 25.96l2.476 13.005.611 3.239.501 3.241 1.021 6.494c2.646 17.298 4.274 34.47 4.866 51.351.565 16.875.184 33.435-1.141 49.549-2.833 32.199-9.629 62.194-20.147 88.931-2.528 6.772-5.544 13.072-8.502 19.412l-4.793 9.153c-1.566 3.038-3.426 5.819-5.125 8.765-.828 1.403-1.705 2.928-2.627 4.305l-2.8027 4.104c-1.8882 2.71-3.658 5.58-5.7117 8.044s-3.9729 5.165-6.0124 7.664l-6.3435 7.174c-8.6785 9.261-18.0517 17.437-28.0445 24.463-20.1131 13.964-42.69969 22.842-66.9378 26.311-12.1019 1.666-24.5366 2.055-37.2029 1.162l-9.5353-.911c-3.2029-.46-6.4053-1.024-9.6174-1.542-3.2122-.518-6.4442-1.298-9.6719-1.997l-4.8355-1.102c-1.6174-.358-3.2033-.812-4.8673-1.359-3.2309-.987-6.4748-1.762-9.7214-2.93l-9.7347-3.421c-6.551-2.623-13.005-5.243-19.445-8.427-25.906-12.442-51.304-29.78-75.311-51.411-11.939-10.899-23.491-22.768-34.563-35.515-11.072-12.759-21.576-26.45-31.409-40.938l-3.679-5.429-1.84-2.714-1.758-2.788-7.043-11.211c-4.41-7.709-9.026-15.276-13.144-23.225l-3.162-5.902c-1.073-1.959-2.006-4.015-3.015-6.021-1.971-4.03-4.006-8.014-5.916-12.067l-5.557-12.312c-.957-2.047-1.81-4.114-2.659-6.203l-2.583-6.254-2.563-6.24-7.396-18.816-9.871-25.113-19.706-50.135-78.347-200.729.156-.061 78.825 200.541 36.952 94.01 2.568 6.218 2.568 6.218c.825 2.099 1.715 4.151 2.664 6.18l5.569 12.307c1.899 4.058 3.938 8.02 5.897 12.054 1.014 1.983 1.939 4.022 3.006 5.963l3.167 5.879c4.103 7.913 8.653 15.485 13.109 23.136l7.021 11.156 1.758 2.788 1.833 2.697 3.672 5.411c9.81 14.401 20.279 28.014 31.306 40.709 11.039 12.679 22.552 24.487 34.449 35.332 23.915 21.499 49.21 38.717 75.006 51.054 6.423 3.212 12.896 5.741 19.349 8.361l9.6256 3.424c3.2085 1.141 6.4525 1.916 9.6763 2.885 1.5619.463 3.2308.987 4.8363 1.35l4.8164 1.089c3.2088.686 6.4545 1.605 9.6151 1.957 3.1606.353 6.3835 1.074 9.5674 1.52l9.4853.89c12.5925.859 24.9545.451 36.9863-1.222 24.058-3.546 46.4975-12.367 66.5314-26.151 9.9513-6.966 19.2829-15.085 27.9193-24.29l6.3408-7.11c2.0276-2.495 3.9771-5.084 5.9716-7.628 1.9946-2.544 3.8258-5.294 5.709-7.981l2.7862-4.077c.928-1.359 1.746-2.86 2.622-4.282 1.701-2.905 3.525-5.672 5.122-8.702l4.718-9.061c2.954-6.318 5.96-12.573 8.489-19.303 10.483-26.603 17.28-56.435 20.155-88.458 1.34-16.039 1.731-32.527 1.17-49.333-.561-16.804-2.164-33.903-4.793-51.131l-.995-6.463-.494-3.223-.611-3.239-2.454-12.951c-2.006-8.614-3.77-17.281-6.141-25.875l-1.696-6.457c-.541-2.148-1.251-4.271-1.859-6.414-1.301-4.293-2.516-8.578-3.877-12.848l-4.302-12.805c-.686-2.132-1.468-4.227-2.269-6.335l-2.353-6.303-2.353-6.302-115.77046-294.5329z"/><path d="m-12.0201-35.6131 77.3614 195.4831 19.2269 48.915 9.6169 24.467c3.208 8.162 6.5099 16.245 9.5209 24.504l2.316 6.172c.804 2.045 1.608 4.09 2.22 6.21l4.199 12.473c1.337 4.175 2.53 8.366 3.807 12.565.599 2.084 1.295 4.171 1.833 6.279l1.659 6.327c2.343 8.418 4.128 16.891 6.039 25.334l2.416 12.677.602 3.181.485 3.164.981 6.324c2.593 16.881 4.182 33.64 4.751 50.111.55 16.465.182 32.625-1.1 48.353-2.793 31.419-9.439 60.689-19.706 86.79-2.469 6.604-5.415 12.732-8.301 18.94l-4.677 8.921c-1.5869 2.984-3.2935 5.664-5.0015 8.551-.8357 1.385-1.6433 2.841-2.5719 4.2l-2.7353 3.995c-1.8305 2.646-3.5689 5.42-5.5818 7.848-2.0129 2.427-3.8576 5.036-5.8445 7.495l-6.2065 6.995c-8.4574 9.047-17.6011 17.022-27.3563 23.862-19.6054 13.615-41.62353 22.269-65.2524 25.648-11.8082 1.624-23.9387 2.011-36.2943 1.157l-9.3157-.915c-3.1101-.434-6.2456-1.003-9.3768-1.491-3.1313-.488-6.2775-1.26-9.4315-1.947l-4.7235-1.063c-1.5337-.391-3.0957-.854-4.6788-1.371-3.138-.961-6.2989-1.666-9.4972-2.852l-9.5-3.348c-6.322-2.568-12.671-5.063-18.964-8.223-25.291-12.106-50.088-29.012-73.522-50.126-11.655-10.637-22.932-22.22-33.743-34.657-10.795-12.456-21.042-25.81-30.642-39.934l-3.587-5.3-1.8-2.647-1.713-2.744-6.863-10.929c-4.325-7.494-8.811-14.905-12.828-22.666l-3.093-5.763c-1.053-1.905-1.964-3.908-2.933-5.846-1.923-3.945-3.923-7.839-5.779-11.79l-5.419-11.994c-.923-1.998-1.774-4.024-2.602-6.059l-2.507-6.097c-3.406-8.104-6.409-16.305-9.713-24.429l-9.616-24.467-19.227-48.915-76.453-195.84.203-.08 105.758 269.061c3.201 8.144 6.313 16.343 9.717 24.407l2.512 6.074c.797 2.027 1.601 4.072 2.589 6.024l5.408 11.935c1.857 3.95 3.838 7.831 5.766 11.754.981 1.933 1.885 3.918 2.926 5.828l3.079 5.728c4.014 7.72 8.45 15.109 12.805 22.571l6.841 10.875 1.718 2.721 1.781 2.634 3.592 5.277c9.569 14.069 19.784 27.367 30.548 39.765 10.766 12.354 21.994 23.859 33.596 34.425 23.327 20.973 48.001 37.771 73.164 49.811 6.279 3.123 12.589 5.592 18.881 8.151l9.454 3.304c3.1947 1.105 6.2621 1.888 9.4001 2.849 1.5549.445 3.1381.962 4.6647 1.335l4.6926 1.055c3.1349.673 6.2784 1.508 9.3814 1.925 3.103.416 6.2287 1.03 9.3387 1.465l9.247.88c12.2842.828 24.3444.427 36.0846-1.2 23.47179-3.455 45.3635-12.059 64.9058-25.512 9.7057-6.802 18.811-14.721 27.2433-23.692l6.1726-6.941c1.982-2.436 3.8858-4.965 5.8418-7.432 1.9559-2.467 3.7224-5.17 5.56-7.797l2.7184-3.968c.864-1.313 1.6856-2.734 2.5072-4.154 1.6433-2.841 3.4548-5.5 4.944-8.487l4.6738-8.858c2.877-6.163 5.806-12.264 8.277-18.826 10.235-25.947 16.867-55.052 19.665-86.298 1.302-15.638 1.691-31.71 1.163-48.088-.555-16.41-2.124-33.106-4.693-49.927l-.974-6.306-.49-3.142-.595-3.162-2.394-12.623c-1.928-8.416-3.675-16.862-5.992-25.25l-1.645-6.291c-.538-2.107-1.216-4.181-1.821-6.283-1.264-4.163-2.456-8.354-3.786-12.511l-4.166-12.424c-.665-2.079-1.433-4.138-2.206-6.174l-2.296-6.159c-2.998-8.224-6.3374-16.334-9.4905-24.496l-105.7582-269.0614z"/><path d="m-17.2324-33.5647 75.4321 190.6087 18.7474 47.696 9.3772 23.856c3.1234 7.947 6.3353 15.838 9.2815 23.895l2.2592 6.029c.7826 1.991 1.5056 4.005 2.169 6.043l4.091 12.163c1.307 4.063 2.463 8.165 3.711 12.251.596 2.044 1.271 4.077 1.789 6.131l1.619 6.156c2.277 8.216 4.02 16.477 5.89 24.71l2.351 12.37.59 3.082.468 3.088.969 6.184c2.521 16.457 4.069 32.795 4.63 48.854.543 16.06.178 31.819-1.092 47.148-2.702 30.636-9.171 59.175-19.18 84.617-2.399 6.431-5.272 12.427-8.0884 18.463l-4.554 8.706c-1.5243 2.898-3.3289 5.575-4.8787 8.337-.8428 1.367-1.6856 2.734-2.5284 4.101l-2.6129 3.884c-1.7491 2.572-3.4487 5.27-5.4399 7.647s-3.7662 4.918-5.7026 7.295l-6.0506 6.83c-8.2652 8.828-17.1962 16.616-26.7209 23.301-19.1187 13.272-40.58793 21.711-63.6267 25.01-11.525 1.596-23.3664 1.98-35.4285 1.148l-9.0702-.887c-3.0482-.417-6.1099-.974-9.1553-1.455-3.0454-.48-6.1298-1.235-9.1908-1.896l-4.559-1.065c-1.5267-.374-3.0957-.855-4.6435-1.282-3.0957-.854-6.1916-1.708-9.2566-2.801l-9.269-3.253c-6.173-2.503-12.348-4.942-18.495-8.013-24.653-11.828-48.822-28.323-71.665-48.91-11.333-10.393-22.296-21.705-32.802-33.846-10.533-12.141-20.527-25.166-29.883-38.949l-3.507-5.166-1.747-2.585-1.678-2.654-6.69-10.665c-4.248-7.297-8.597-14.534-12.512-22.107l-3.006-5.611c-1.02-1.857-1.91-3.805-2.876-5.703-1.869-3.842-3.803-7.638-5.624-11.499l-5.275-11.698c-.914-1.939-1.732-3.916-2.539-5.898l-2.45-5.954c-3.329-7.907-6.254-15.91-9.473-23.819l-9.377-23.857-18.748-47.695-74.559-190.952.251-.099 103.114 262.335c3.124 7.947 6.163 15.926 9.49 23.792l2.437 5.918c.782 1.991 1.558 3.964 2.532 5.88l5.265 11.64c1.814 3.842 3.747 7.638 5.614 11.44.955 1.902 1.845 3.851 2.858 5.69l3.01 5.588c3.913 7.533 8.236 14.738 12.477 22.017l6.681 10.607 1.666 2.659 1.752 2.562 3.488 5.153c9.331 13.698 19.289 26.646 29.779 38.72 10.498 12.063 21.449 23.297 32.766 33.612 22.745 20.458 46.805 36.842 71.342 48.581 6.109 3.045 12.287 5.525 18.412 7.942l9.219 3.231c3.065 1.094 6.0955 1.746 9.1998 2.762 1.5408.41 3.0957.855 4.6365 1.264l4.5518 1.048c3.0182.656 6.0997 1.475 9.1528 1.869 3.0531.395 6.0691 1.011 9.0863 1.419l9.0323.861c11.974.811 23.7291.419 35.171-1.171 22.88579-3.363 44.2297-11.752 63.28-24.873 9.4663-6.628 18.3459-14.347 26.5672-23.096l6.0168-6.776c1.9314-2.354 3.7895-4.824 5.6998-7.231 1.9103-2.408 3.6191-5.047 5.4181-7.597l2.62-3.867c.871-1.295 1.6856-2.733 2.5355-4.082 1.6855-2.733 3.3711-5.467 4.8688-8.292l4.5513-8.644c2.7995-6.008 5.663-11.959 8.064-18.349 9.972-25.309 16.436-53.689 19.168-84.156 1.27-15.258 1.64-30.942 1.109-46.927-.527-15.982-2.051-32.247-4.558-48.635l-.941-6.153-.474-3.065-.59-3.081-2.33-12.318c-1.843-8.2-3.572-16.426-5.854-24.62l-1.601-6.142c-.51-2.036-1.185-4.07-1.781-6.113-1.222-4.055-2.391-8.152-3.679-12.202l-4.0696-12.109c-.6511-2.043-1.3906-4.03-2.1493-6.031l-2.2334-5.997c-2.9322-8.021-6.175-15.921-9.2625-23.881l-28.1247-71.553-74.9896-190.7821z"/><path d="m-22.4671-31.5066 73.5259 185.7256 18.268 46.475 9.1657 23.319c3.0458 7.749 6.1802 15.443 9.082 23.352l2.196 5.867c.7685 1.955 1.5298 3.892 2.1119 5.9l3.9831 11.854c1.2649 3.955 2.4101 7.957 3.6152 11.936.5753 1.99 1.2293 3.969 1.7443 5.982l1.575 6.008c2.217 7.992 3.93 16.037 5.734 24.067l2.31 12.056.562 3.01.464 3.006.976 5.995c9.817 64.66 4.494 126.212-15.2203 176.001-2.3456 6.286-5.1418 12.127-7.881 18.008l-4.4502 8.48c-1.4667 2.834-3.1799 5.391-4.7698 8.087-.8499 1.349-1.59 2.696-2.4371 3.982l-2.6341 3.831c-1.7702 2.518-3.4003 5.147-5.3458 7.465-1.9455 2.317-3.639 4.785-5.5655 7.116l-5.8897 6.643c-8.0465 8.581-16.7402 16.152-26.0111 22.649-18.6321 12.929-39.55239 21.152-62.0011 24.371-11.2197 1.548-22.7449 1.926-34.4839 1.129l-8.8367-.855c-2.9336-.442-5.9023-.973-8.9216-1.422-3.0194-.449-5.9869-1.188-8.998-1.827l-4.5378-1.012c-1.5126-.337-3.012-.887-4.4958-1.256-3.0005-.892-6.0055-1.657-9.0005-2.675l-9.033-3.18c-6.017-2.46-12.036-4.816-18.021-7.827-48.346-23.028-94.162-64.481-131.003-118.526l-3.367-5.055-1.707-2.518-1.626-2.591-6.529-10.398c-4.171-7.099-8.335-14.181-12.189-21.53l-2.937-5.472c-.994-1.825-1.863-3.72-2.797-5.569-1.814-3.739-3.713-7.445-5.48-11.203l-5.142-11.398c-.881-1.89-1.69-3.809-2.471-5.759l-2.387-5.792c-3.244-7.692-6.092-15.498-9.261-23.281l-9.166-23.319-18.268-46.476-72.653-186.068.286-.113 100.478 255.627c3.046 7.749 6.008 15.53 9.273 23.276l2.373 5.756c.761 1.938 1.583 3.851 2.464 5.741l5.145 11.335c1.767 3.758 3.639 7.433 5.459 11.15.933 1.848 1.802 3.743 2.789 5.551l2.93 5.454c3.805 7.327 8.026 14.344 12.159 21.418l6.508 10.343 1.619 2.574 1.707 2.518 3.353 5.019c18.254 26.685 38.809 50.46 60.934 70.481 22.155 19.891 45.585 35.823 69.477 47.242 5.952 2.962 11.94 5.31 17.931 7.738l8.976 3.14c2.997 1.059 5.988 1.788 8.9645 2.689 1.5338.391 2.9882.897 4.4839 1.261l4.5237.976c3.004.621 5.9569 1.428 8.9122 1.819 2.9553.392 5.9094.991 8.8358 1.415l8.7868.833c11.6796.829 23.1456.475 34.3044-1.059 22.29991-3.27 43.0962-11.445 61.6546-24.234 9.2121-6.483 17.85-14.031 25.8439-22.584l5.8676-6.593c1.8549-2.303 3.6674-4.713 5.508-7.052 1.8407-2.339 3.5828-4.929 5.2883-7.401l2.6483-3.795c.878-1.277 1.5899-2.696 2.4251-3.977 1.578-2.691 3.2602-5.257 4.7339-8.073l4.4355-8.411c2.7342-5.859 5.5205-11.655 7.8633-17.877 19.6892-49.504 25.0582-110.741 15.3532-175.101l-.962-5.959-.464-3.007-.555-2.992-2.277-12.006c-1.766-8.004-3.524-15.989-5.691-23.96l-1.568-5.989c-.5083-1.996-1.1619-3.975-1.737-5.965-1.1981-3.961-2.3296-7.927-3.5824-11.887l-3.962-11.8c-.6419-1.984-1.3673-3.936-2.1049-5.882l-2.1816-5.832c-2.8355-7.811-6.0011-15.512-9.0463-23.365l-100.4492-255.5549z"/><path d="m-27.691-29.4535 71.5487 180.8695 17.7885 45.256 8.8767 22.583c2.9683 7.552 6.018 15.03 8.814 22.67l2.1393 5.724c.7403 1.884 1.4281 3.808 2.0488 5.739l3.8871 11.539c1.2416 3.861 2.3446 7.756 3.5193 11.622 1.1748 3.866 2.218 7.784 3.2113 11.681 2.1632 7.785 3.8225 15.623 5.5848 23.442l2.2375 11.732.565 2.946.448 2.931.92 5.851c9.55 62.969 4.362 122.908-14.836 171.398-2.2825 6.095-5.0252 11.791-7.6752 17.513l-4.3272 8.265c-1.4401 2.761-3.0957 5.255-4.6329 7.91-.7922 1.284-1.5302 2.672-2.3746 3.894l-2.5189 3.703c-1.7076 2.432-3.3159 5.01-5.168 7.25-1.852 2.24-3.5907 4.663-5.4166 6.934l-5.7619 6.406c-7.8312 8.369-16.2944 15.752-25.3209 22.088-18.14012 12.598-38.5127 20.605-60.3755 23.732-10.9266 1.501-22.1514 1.857-33.5843 1.065l-8.582-.768c-2.9124-.388-5.7952-.912-8.6809-1.372s-5.8154-1.173-8.7286-1.808l-4.3782-.992c-1.5055-.32-2.9173-.821-4.3843-1.218-2.928-.92-5.85-1.614-8.778-2.638l-8.797-3.106c-5.849-2.382-11.725-4.69-17.546-7.6-23.349-11.219-46.241-26.837-67.885-46.315-21.635-19.619-41.73-42.903-59.576-69.027l-3.31-4.912-1.655-2.455-1.605-2.538-6.35-10.116c-4.021-6.93-8.179-13.787-11.872-20.971-1.902-3.539-3.834-7.087-5.602-10.741-1.767-3.654-3.605-7.239-5.336-10.907l-5.011-11.098c-.86-1.836-1.643-3.724-2.407-5.598l-2.319-5.653c-3.166-7.494-5.929-15.085-8.993-22.6l-8.898-22.637-17.788-45.256-70.76-181.179.335-.132 97.791 248.792c2.961 7.534 5.845 15.119 8.998 22.577l2.316 5.613c.705 1.794 1.481 3.767 2.401 5.58l5.001 11.039c1.725 3.65 3.55 7.24 5.315 10.854 1.766 3.613 3.662 7.175 5.588 10.705 3.703 7.139 7.811 13.973 11.83 20.863l6.329 10.062 1.59 2.502 1.655 2.456 3.311 4.911c35.736 52.333 80.156 92.445 127.011 114.691 5.802 2.896 11.688 5.159 17.486 7.622l8.752 3.063c2.904 1.033 5.815 1.732 8.729 2.616 1.455.401 2.9281.92 4.3527 1.209l4.3471.983c2.8943.623 5.8092 1.403 8.6787 1.787s5.7665.943 8.6311 1.35l8.582.768c11.3629.774 22.5177.404 33.3745-1.107 21.7058-3.203 41.9518-11.161 60.0288-23.595 8.9808-6.285 17.4022-13.609 25.196-21.915l5.7618-6.406c1.8689-2.267 3.595-4.582 5.4019-6.866 1.807-2.284 3.4436-4.791 5.1393-7.218l2.514-3.68c.8324-1.218 1.5726-2.565 2.3648-3.85 1.5182-2.667 3.1878-5.125 4.623-7.864l4.3125-8.197c2.6641-5.686 5.3781-11.35 7.6155-17.49 19.1663-48.196 24.3853-107.819 14.9213-170.479l-.92-5.851-.448-2.93-.551-2.911-2.2163-11.678c-1.7481-7.783-3.3698-15.594-5.5427-23.334-1.0052-3.892-2.0105-7.783-3.1972-11.645-1.1866-3.862-2.2636-7.725-3.4981-11.568l-3.854-11.49c-.6208-1.931-1.3251-3.828-2.0414-5.721l-2.1253-5.688c-2.77-7.609-5.858-15.114-8.7833-22.661l-97.8193-248.8645z"/><path d="m-32.9144-27.4004 69.4278 176.0704 17.3091 44.036 8.6581 22.028c2.8837 7.336 5.8629 14.635 8.5863 22.055l2.0758 5.562c.705 1.794 1.4455 3.677 1.9973 5.573l3.7912 11.225c1.171 3.681 2.2719 7.535 3.4234 11.307 1.1514 3.772 2.1149 7.452 3.0843 11.358 2.1095 7.579 3.692 15.116 5.4126 22.723l2.1849 11.422.5412 2.852.4437 2.849.8634 5.707c9.3153 61.245 4.2967 119.553-14.3506 166.735-2.2171 5.945-4.8708 11.481-7.4555 17.053l-4.2115 8.034c-1.4226 2.63-3.0113 5.118-4.5029 7.713-.7753 1.258-1.4704 2.649-2.3141 3.768l-2.4563 3.616c-1.643 2.385-3.2198 4.869-5.0192 7.067-1.7993 2.198-3.4754 4.535-5.2747 6.733l-5.5587 6.327c-7.6243 8.157-15.8673 15.349-24.6618 21.518-17.64807 12.266-37.4728 20.058-58.7497 23.092-10.6431 1.462-21.5769 1.808-32.7134 1.034l-8.3909-.844c-2.8027-.389-5.6357-.891-8.4475-1.339-2.8118-.447-5.6556-1.152-8.488-1.758l-4.2609-.975c-1.415-.335-2.843-.809-4.268-1.202-2.868-.943-5.689-1.553-8.531-2.569l-8.554-3.016c-5.706-2.334-11.448-4.55-17.072-7.413-45.788-21.845-89.174-61.13-124.056-112.332l-3.254-4.768-1.615-2.388-1.545-2.458-6.177-9.852c-3.92-6.743-7.936-13.448-11.521-20.322-1.84-3.418-3.693-6.832-5.475-10.418s-3.515-7.047-5.181-10.617l-4.878-10.797c-.813-1.752-1.601-3.617-2.332-5.441l-2.255-5.492c-3.07-7.284-5.775-14.691-8.742-21.995l-8.658-22.027-17.309-44.036-69.034-176.226.359-.141 95.182 242.156c2.884 7.336 5.691 14.723 8.747 21.971l2.253 5.452c.705 1.793 1.445 3.677 2.337 5.418l4.865 10.762c1.649 3.493 3.46 7.047 5.183 10.553s3.561 6.988 5.468 10.401c3.573 6.879 7.601 13.579 11.521 20.322l6.149 9.78 1.545 2.458 1.608 2.37 3.24 4.732c17.289 25.277 36.759 47.796 57.717 66.755 21.014 18.874 43.242 33.981 65.906 44.794 5.641 2.836 11.317 5.057 16.99 7.342l8.504 2.994c2.821.962 5.665 1.667 8.493 2.543 1.417.375 2.869.944 4.241 1.17l4.2306.968c2.8134.592 5.6543 1.36 8.4429 1.713 2.7885.354 5.6019.946 8.3975 1.317l8.343.863c11.0546.743 21.9076.381 32.4728-1.084 21.1198-3.111 40.818115-10.853 58.4032-22.956 8.7349-6.122 16.9299-13.246 24.5198-21.318l5.5228-6.313c1.7944-2.175 3.5036-4.462 5.253-6.682s3.3593-4.655 5.0163-7.004l2.4396-3.589c.8155-1.19 1.5388-2.51 2.3092-3.745 1.4585-2.644 3.0917-4.984 4.4883-7.645l4.2015-7.989c2.5869-5.531 5.2307-11.023 7.443-16.945 18.7866-46.858 23.9875-104.899 14.8684-165.944l-.8493-5.671-.4366-2.832-.5415-2.852-2.1445-11.354c-1.7205-7.607-3.3104-15.162-5.4009-22.728-.9798-3.756-1.9356-7.522-3.0773-11.34-1.1416-3.817-2.198-7.523-3.3902-11.258l-3.7648-11.194c-.5856-1.841-1.2549-3.649-1.9784-5.559l-2.0617-5.527c-2.6973-7.389-5.6958-14.701-8.5436-22.051l-95.1824-242.1556z"/><path d="m-38.1381-25.347 67.4978 171.196 16.8297 42.817 8.4183 21.417c2.8202 7.175 5.701 14.223 8.3469 21.446l2.0314 5.414c.705 1.793 1.3502 3.611 1.9476 5.447l3.6925 10.974c1.183 3.676 2.2465 7.4 3.3394 10.988s2.1037 7.353 3.0553 11.038c2.0488 7.354 3.625 14.769 5.2919 22.17l2.1245 11.093.5253 2.776.4275 2.772.8598 5.523c9.0555 59.555 4.1714 116.254-13.9661 162.13-2.1519 5.796-4.7283 11.178-7.2716 16.609l-4.0886 7.82c-1.3629 2.606-2.927 4.981-4.38 7.499-.7466 1.226-1.4601 2.5-2.2517 3.681l-2.377 3.502c-1.6163 2.313-3.1284 4.75-4.8891 6.871s-3.3842 4.416-5.1259 6.55l-5.4286 6.131c-7.402 7.922-15.4004 14.914-23.9309 20.92-17.16679 11.911-36.4413 19.487-57.1241 22.454-10.3402 1.413-20.9632 1.741-31.783.978l-8.1502-.793c-2.7288-.377-5.4759-.871-8.2139-1.307-2.738-.435-5.5008-1.109-8.2471-1.707l-4.138-.942c-1.384-.326-2.769-.796-4.162-1.18-2.76-.841-5.522-1.516-8.295-2.497l-8.319-2.942c-5.537-2.256-11.089-4.443-16.628-7.195-22.124-10.63-43.813-25.445-64.311-43.93-20.456-18.555-39.452-40.582-56.315-65.297l-3.191-4.606-1.563-2.326-1.505-2.391-6.01-9.566c-3.806-6.559-7.701-13.063-11.22-19.839-1.829-3.423-3.62-6.716-5.267-10.169s-3.454-6.926-5.049-10.317l-4.756-10.555c-.825-1.747-1.566-3.527-2.283-5.316l-2.198-5.348c-3-7.105-5.701-14.327-8.502-21.385l-8.419-21.417-16.829-42.817-67.128-171.341.407-.16 92.559 235.483c2.82 7.174 5.569 14.378 8.519 21.357l2.199 5.348c.705 1.794 1.41 3.587 2.282 5.315l4.745 10.457c1.638 3.498 3.352 6.842 5.028 10.263s3.464 6.777 5.264 10.128c3.512 6.758 7.398 13.204 11.19 19.727l5.996 9.53 1.498 2.373 1.568 2.304 3.184 4.588c33.801 49.488 75.811 87.423 120.123 108.472 5.496 2.748 11.009 4.909 16.52 7.133l8.295 2.952c2.761.986 5.505 1.647 8.258 2.47 1.381.389 2.759.842 4.124 1.154l4.106.933c2.74.58 5.5 1.318 8.2098 1.681 2.7098.364 5.4472.903 8.1641 1.285l8.1001.772c10.7443.725 21.2923.372 31.5592-1.057 20.5341-3.017 39.68478-10.544 56.7776-22.317 8.4916-5.945 16.4569-12.868 23.8318-20.716l5.4068-6.08c1.7297-2.13 3.4004-4.34 5.1041-6.5 1.7037-2.161 3.2559-4.531 4.8674-6.821l2.3722-3.48c.7986-1.163 1.5-2.433 2.2466-3.658 1.4431-2.473 3.0144-4.83 4.3653-7.432l4.0527-7.805c2.5216-5.382 5.0882-10.719 7.2422-16.473 18.1189-45.588 23.054-101.976 14.1113-161.235l-.793-5.528-.4323-2.75-.5183-2.758-2.0988-11.062c-1.6528-7.364-3.2075-14.726-5.2373-22.067-.9797-3.757-1.8962-7.352-3.0412-11.002-1.1449-3.65-2.1444-7.316-3.2943-10.944l-3.6572-10.884c-.5975-1.836-1.2665-3.644-1.9477-5.447l-2.0197-5.419c-2.6409-7.245-5.6404-14.35-8.3156-21.437l-92.5666-235.5005z"/><path d="m-43.3734-23.2887 65.5803 166.3167 16.3503 41.597 8.1786 20.808c2.7286 6.942 5.5266 13.815 8.1069 20.835l1.9679 5.253c.7051 1.794 1.3011 3.486 1.8775 5.268l3.5754 10.605c1.1336 3.552 2.1524 7.127 3.2312 10.679s2.0501 7.147 2.9833 10.714c1.9902 7.17 3.5058 14.361 5.1429 21.546l2.0596 10.787.502 2.681.411 2.696.8463 5.383c8.7884 57.864 4.0391 112.951-13.5813 157.527-2.0817 5.623-4.5998 10.837-7.042 16.105l-3.9249 7.569c-1.303 2.583-2.8428 4.845-4.2452 7.28-5.8165 9.55-12.335 18.239-19.4955 25.99-7.1984 7.687-14.9729 14.473-23.26175 20.306-16.67525 11.579-35.40205 18.939-55.49855 21.814-10.0464 1.377-20.3681 1.697-30.8812.956-10.5143-.788-21.1994-2.709-31.9564-5.746-2.697-.824-5.379-1.468-8.078-2.437l-8.028-2.87c-5.388-2.19-10.777-4.317-16.136-6.995-43.281-20.643-84.292-57.778-117.262-106.179l-3.058-4.514-1.522-2.26-1.459-2.305-5.836-9.302c-3.705-6.372-7.492-12.67-10.905-19.281-1.746-3.248-3.523-6.505-5.122-9.873-1.6-3.368-3.317-6.649-4.905-10.021l-4.604-10.202c-.812-1.751-1.504-3.405-2.2-5.141l-2.135-5.187c-2.903-6.894-5.45-13.865-8.25-20.779l-8.179-20.807-16.35-41.597-65.222-166.458.442-.174 89.958 228.864c2.722 6.923 5.367 13.898 8.267 20.752l2.122 5.151c.705 1.793 1.361 3.461 2.205 5.118l4.601 10.161c1.581 3.355 3.262 6.649 4.884 9.967 1.621 3.318 3.362 6.589 5.12 9.833 3.411 6.57 7.183 12.832 10.874 19.168l5.816 9.249 1.458 2.305 1.516 2.241 3.05 4.496c32.83 48.054 73.63 84.886 116.662 105.319 5.339 2.664 10.691 4.764 16.04 6.928l8.014 2.834c2.701 1.01 5.343 1.587 8.022 2.398 10.694 2.994 21.3159 4.884 31.7679 5.653 10.4378.704 20.6844.359 30.6575-1.033 19.9479-2.926 38.5508-10.238 55.15193-21.678 8.25127-5.772 15.99057-12.496 23.15567-20.119 7.131-7.68 13.6228-16.297 19.4156-25.772 1.4094-2.418 2.9231-4.711 4.2424-7.218l3.939-7.533c2.4443-5.227 4.9455-10.414 7.0294-15.996 17.6022-44.265 22.4017-99.02 13.7237-156.568l-.8274-5.369-.4041-2.679-.5137-2.676-2.0268-10.738c-1.6111-7.154-3.1122-14.309-5.0884-21.443-.9332-3.567-1.8545-7.14-2.9572-10.683-1.1027-3.542-2.0838-7.091-3.2104-10.625l-3.549-10.574c-.5975-1.836-1.2104-3.501-1.8704-5.25l-1.9539-5.217c-2.5422-6.994-5.3785-13.894-8.0642-20.831l-89.9297-228.7924z"/><path d="m-48.5969-21.2363 63.6222 161.3713 15.8708 40.377 7.9389 20.198c2.644 6.726 5.3718 13.42 7.8555 20.23l1.9164 5.087c.6628 1.686 1.3254 3.372 1.8327 5.119l3.4676 10.296c1.1032 3.439 2.08 6.907 3.1355 10.365 1.0555 3.457 1.9843 6.944 2.8941 10.417 1.9296 6.946 3.4035 13.925 4.9588 20.831l1.9876 10.464.5045 2.618.5465 2.829.8139 5.23c8.5217 56.156 3.9103 109.615-13.187 152.878-2.0067 5.428-4.4645 10.515-6.8414 15.632l-3.8618 7.379c-1.2856 2.452-2.7656 4.69-4.1293 7.049-5.6412 9.275-11.9694 17.711-18.9257 25.227-6.993 7.472-14.54733 14.068-22.602413 19.736-16.188287 11.236-34.366287 18.382-53.872987 21.175-9.7536 1.349-19.7757 1.668-29.9845.955-10.2099-.778-20.584-2.648-31.027-5.593-2.616-.794-5.224-1.425-7.83-2.368l-7.834-2.761c-5.211-2.094-10.458-4.173-15.666-6.785-20.865-10.031-41.32-24.004-60.653-41.434-19.312-17.487-37.25-38.253-53.177-61.56l-2.965-4.384-1.483-2.193-1.425-2.256-5.657-9.021c-3.604-6.184-7.277-12.299-10.553-18.632-1.711-3.159-3.421-6.317-4.986-9.596-1.565-3.278-3.216-6.46-4.749-9.73l-4.472-9.901c-.77-1.644-1.469-3.316-2.143-4.997l-2.072-5.026c-2.819-6.679-5.295-13.471-8.011-20.169l-7.939-20.198-15.871-40.377-63.287-161.503.49-.192 87.208 221.868c2.644 6.726 5.223 13.499 8.028 20.142l2.064 5.007c.656 1.669 1.379 3.331 2.142 4.957l4.457 9.866c1.539 3.247 3.166 6.438 4.752 9.667 1.587 3.228 3.261 6.401 4.953 9.546 3.314 6.36 6.98 12.457 10.565 18.627l5.648 8.963 1.406 2.243 1.483 2.192 2.951 4.349c31.867 46.652 71.473 82.411 113.247 102.249 5.158 2.591 10.372 4.621 15.572 6.719l7.795 2.734c2.599.925 5.188 1.544 7.817 2.333 10.374 2.902 20.6789 4.737 30.8196 5.488 10.1312.682 20.0765.345 29.7557-1.01 19.3619-2.834 37.4171-9.93 53.52632-21.039 8.01106-5.599 15.52448-12.124 22.47958-19.522 6.9168-7.459 13.2178-15.821 18.8458-25.01 1.3518-2.354 2.8269-4.569 4.1364-7.031l3.847-7.31c2.3671-5.072 4.7701-10.159 6.8168-15.519 17.0854-42.974 21.7413-96.13 13.313-151.996l-.7998-5.194-.4069-2.615-.4855-2.605-1.9784-10.405c-1.5575-6.947-3.0243-13.908-4.9468-20.835-.9028-3.456-1.7816-6.921-2.861-10.369s-2.0182-6.89-3.1144-10.311l-3.4415-10.264c-.5601-1.706-1.1748-3.411-1.8186-5.084l-1.8978-5.073c-2.4695-6.775-5.2878-13.453-7.8361-20.218l-87.2928-222.083z"/><path d="m-53.8208-19.1831 61.72089 156.5681 15.39131 39.158 7.6992 19.588c2.5664 6.529 5.2094 13.007 7.6274 19.616l1.8601 4.943c.6416 1.632 1.2834 3.264 1.7695 4.958l3.3597 9.986c1.08 3.344 2.0262 6.7 3.0583 10.063 1.0322 3.364 1.9239 6.72 2.7915 10.086 1.8759 6.738 3.315 13.524 4.8377 20.277l1.9347 10.154.4882 2.541.3907 2.539.7861 5.054c8.281 54.481 3.809 106.348-12.788 148.311-1.9772 5.291-4.2741 10.191-6.6335 15.177l-3.7459 7.147c-1.24 2.392-2.6813 4.553-3.9994 6.853-5.4768 8.986-11.6167 17.16-18.3631 24.447-6.77602 7.243-14.09652 13.636-21.90256 19.129-15.70164 10.893-33.33064 17.823-52.24724 20.537-9.4609 1.294-19.1794 1.598-29.0777.909-9.9006-.745-19.9621-2.559-30.0901-5.423-2.536-.764-5.07-1.383-7.6-2.273l-7.598-2.687c-5.104-2.136-10.154-4.065-15.193-6.599-40.732-19.413-79.329-54.356-110.353-99.908l-2.878-4.232-1.443-2.125-1.373-2.194-5.497-8.753c-3.483-5.983-7.049-11.932-10.264-18.145-1.645-3.06-3.308-6.134-4.818-9.309-1.511-3.176-3.131-6.245-4.618-9.43l-4.34-9.601c-.737-1.595-1.414-3.213-2.068-4.841l-2.015-4.882c-2.729-6.486-5.133-13.058-7.771-19.559l-7.699-19.588-15.392-39.157-61.41-156.691.538-.212 84.656 215.375c2.559 6.511 5.061 13.087 7.776 19.537l2.001 4.846c.642 1.632 1.284 3.265 2.074 4.818l4.33 9.543c1.479 3.167 3.071 6.268 4.603 9.394 1.532 3.125 3.16 6.213 4.809 9.251 3.201 6.176 6.766 12.085 10.23 18.055l5.475 8.699 1.378 2.171 1.424 2.112 2.871 4.214c30.895 45.243 69.299 79.92 109.807 99.15 5.013 2.502 10.041 4.481 15.083 6.496l7.56 2.661c2.518.895 5.033 1.501 7.55 2.251 10.065 2.832 20.0619 4.609 29.8954 5.314 9.8188.652 19.4583.324 28.842-.983 18.7673-2.767 36.2722-9.648 51.90074-20.4 7.764202-5.429 15.04756-11.752 21.79156-18.92 6.7216-7.212 12.8329-15.32 18.2759-24.247 1.3323-2.264 2.7617-4.42 3.9968-6.79l3.7241-7.097c2.3018-4.922 4.6486-9.8 6.6351-15.033 8.2284-20.754 13.5715-44.045 15.8428-69.057 2.1742-25.009 1.2281-51.434-2.8049-78.337l-.7673-5.041-.3953-2.516-.4696-2.528-1.9134-10.1c-1.5158-6.735-2.9407-13.485-4.8025-20.187-.8606-3.348-1.728-6.714-2.7771-10.05-1.049-3.336-1.9526-6.688-3.0135-10.019l-3.3385-9.933c-.527-1.656-1.1445-3.298-1.7622-4.94l-1.834-4.912c-2.392-6.577-5.133-13.058-7.5967-19.607l-84.6701-215.4107z"/><path d="m-59.0678-17.1206 59.791217 151.6946 14.911883 37.937 7.4595 18.978c2.4889 6.332 5.019 12.524 7.3877 19.006 1.1643 3.208 2.4957 6.35 3.5214 9.592l3.2518 9.677c1.0377 3.236 1.9608 6.498 2.9627 9.748 1.0018 3.251 1.858 6.518 2.7022 9.79 1.8152 6.514 3.2127 13.088 4.6889 19.652l1.8743 9.825c.3434 1.646.6131 3.28.8587 4.923l.7536 4.901c7.9914 52.762 3.6486 102.985-12.4197 143.631-1.919 5.123-4.1843 9.928-6.4328 14.705l-3.63 6.914c-1.2014 2.316-2.597 4.418-3.8884 6.644-5.3006 8.708-11.2462 16.626-17.78139 23.68-6.561348 7.026-13.65622 13.221-21.22641 18.532-7.6435 5.175-15.7121 9.495-24.1465 12.929-8.5188 3.219-17.3691 5.549-26.4871 6.974-9.1593 1.254-18.5686 1.547-28.1523.877-9.5935-.715-19.3435-2.464-29.1585-5.23-2.462-.752-4.903-1.345-7.36-2.223l-7.385-2.605c-4.919-1.981-9.824-3.926-14.706-6.376-39.449-18.815-76.834-52.639-106.909-96.727l-2.781-4.125c-.943-1.348-1.846-2.733-2.728-4.167l-5.324-8.49c-3.369-5.799-6.835-11.561-9.941-17.567-1.597-2.976-3.219-5.942-4.675-9.014-1.456-3.073-3.036-6.075-4.48-9.153l-4.196-9.305c-1.432-3.082-2.632-6.276-3.964-9.418-2.651-6.289-4.971-12.646-7.531-18.949l-7.46-18.978-14.912-37.938-59.504-151.807.574-.226 82.019 208.667c2.482 6.314 4.899 12.674 7.548 18.922 1.318 3.106 2.482 6.314 3.943 9.364l4.186 9.247c1.438 3.059 2.982 6.076 4.46 9.098 1.478 3.023 3.063 6.003 4.666 8.956 3.099 5.988 6.55 11.714 9.905 17.478l5.303 8.435c.875 1.417 1.777 2.802 2.721 4.149l2.767 4.09c29.931 43.82 67.13 77.41 106.367 96.049 4.856 2.42 9.753 4.347 14.629 6.323l7.329 2.566c2.437.864 4.871 1.44 7.302 2.183 9.753 2.738 19.44 4.469 28.9733 5.178 9.5168.646 18.8599.338 27.9545-.923 18.1818-2.674 35.1391-9.339 50.2751-19.761 7.51883-5.27 14.571304-11.406 21.10124-18.359 6.49856-7.01 12.41416-14.875 17.69216-23.521 1.2746-2.199 2.6654-4.278 3.8619-6.571l3.6202-6.869c2.2604-4.782 4.535-9.528 6.4083-14.592 16.0437-40.368 20.4136-90.297 12.4957-142.77l-.7585-4.879c-.2266-1.63-.5079-3.259-.8323-4.892l-1.8605-9.788c-1.4551-6.511-2.8384-13.049-4.6346-19.55-.8492-3.249-1.6744-6.507-2.6931-9.731-1.0187-3.223-1.899-6.481-2.9296-9.7l-3.2306-9.623c-1.0306-3.219-2.3261-6.375-3.4763-9.547-2.3264-6.375-4.9111-12.669-7.369-18.992l-82.019-208.6666z"/><path d="m-64.2678-15.0767 57.86148 146.8197 14.43245 36.718 7.21977 18.368c2.4042 6.117 4.8801 12.205 7.148 18.396 1.122 3.101 2.4184 6.153 3.4018 9.287l3.1555 9.362c1.0025 3.148 1.9073 6.292 2.8549 9.44s1.8044 6.311 2.6303 9.465c1.7566 6.33 3.0934 12.68 4.5399 19.028l1.8093 9.519c.3223 1.592.5945 3.162.819 4.752l.7404 4.762c3.8381 25.382 4.763 50.321 2.7422 73.929-2.0822 23.588-7.0563 45.567-14.7491 65.169-1.877 4.88-4.063 9.57-6.2272 14.21l-3.5071 6.701c-1.1747 2.243-2.465 4.262-3.7657 6.43-5.1332 8.426-10.8856 16.095-17.204513 22.936-6.361217 6.786-13.229387 12.78-20.550287 17.934-14.7324 10.209-31.2674 16.708-49.008 19.264-8.8713 1.21-17.9828 1.497-27.2624.858-9.2849-.704-18.7199-2.403-28.2179-5.082-2.381-.721-4.748-1.302-7.123-2.149l-7.143-2.515c-4.752-1.942-9.512-3.799-14.244-6.184-38.197-18.217-74.393-50.976-103.502-93.676l-2.7-3.992c-.906-1.321-1.788-2.652-2.636-4.037l-5.145-8.208c-3.275-5.63-6.62-11.19-9.631-17.027-1.555-2.867-3.118-5.753-4.531-8.718-1.414-2.965-2.928-5.869-4.337-8.857l-4.064-9.005c-1.378-2.979-2.543-6.083-3.832-9.118-2.555-6.078-4.816-12.251-7.22-18.367l-7.22-18.368-14.432-36.718-57.599-146.924.622-.244 79.382 201.958c2.404 6.116 4.744 12.279 7.296 18.317 1.283 3.016 2.398 6.098 3.823 9.058l4.043 8.952c1.402 2.97 2.885 5.866 4.316 8.803 1.431 2.938 2.974 5.81 4.517 8.683 3.002 5.778 6.333 11.302 9.596 16.936l5.135 8.15c.849 1.385 1.731 2.716 2.629 4.019l2.687 3.956c28.967 42.397 64.96 74.901 102.926 92.949 4.685 2.3 9.435 4.203 14.161 6.114l7.074 2.479c2.368.83 4.693 1.407 7.086 2.123 9.429 2.642 18.795 4.306 28.0101 4.977 9.2099.623 18.2515.322 27.0528-.9 17.5958-2.581 34.0053-9.031 48.6493-19.122 7.2785-5.097 14.10514-11.033 20.42524-17.762 6.29134-6.766 12.01726-14.363 17.12456-22.718 1.2409-2.144 2.586-4.164 3.7439-6.379l3.5044-6.638c2.1474-4.613 4.3517-9.186 6.1957-14.115 7.7165-19.466 12.7246-41.312 14.8493-64.774 2.0286-23.467 1.1276-48.261-2.671-73.501l-.7259-4.727c-.2174-1.571-.4897-3.141-.8119-4.733l-1.7885-9.465c-1.4204-6.317-2.7548-12.627-4.5044-18.939-.8139-3.159-1.6211-6.3-2.6045-9.434s-1.838-6.256-2.8334-9.385l-3.1227-9.314c-1.0192-3.12-2.2655-6.15-3.3804-9.232-2.2418-6.16-4.8087-12.234-7.1173-18.388l-79.3539-201.8859z"/><path d="m-69.4913-13.0231 55.9435 141.9411 13.953005 35.498 6.980035 17.758c2.32669 5.92 4.71826 11.793 6.90856 17.786 1.0916 2.988 2.3335 5.938 3.3219 9.049l3.0478 9.053c.9721 3.035 1.8414 6.089 2.7587 9.125.9172 3.036 1.7387 6.109 2.5414 9.169 1.6959 6.105 2.9911 12.244 4.3839 18.385l1.7564 9.209c.638 3.062 1.0256 6.12 1.499 9.185 7.5066 49.406 3.4463 96.44-11.6101 134.49-1.7694 4.837-3.9205 9.265-6.0194 13.756l-3.4033 6.473c-1.117 2.179-2.4165 4.139-3.63071 6.211-4.96505 8.151-10.53109 15.567-16.64677 22.178-6.14132 6.57-12.78002 12.363-19.86222 17.334-14.2404 9.877-30.2278 16.161-47.3824 18.624-8.5732 1.173-17.3796 1.451-26.349.831-8.981-.678-18.106-2.319-27.293-4.908-2.288-.695-4.629-1.245-6.888-2.076l-6.9-2.423c-4.59-1.882-9.188-3.679-13.775-5.976-36.94-17.617-71.943-49.305-100.088-90.606-1.704-2.582-3.526-5.075-5.156-7.748l-4.984-7.94c-3.162-5.446-6.393-10.823-9.309-16.449-1.495-2.788-3.003-5.571-4.382-8.446-1.378-2.875-2.827-5.681-4.181-8.566l-3.932-8.705c-1.343-2.889-2.466-5.886-3.741-8.884-2.477-5.881-4.653-11.839-6.98-17.758l-6.98-17.758-13.953-35.498-55.692-142.04.657-.259 76.752 195.267c2.32 5.902 4.654 11.839 7.057 17.708 1.24 2.909 2.32 5.901 3.691 8.758l3.923 8.647c1.348 2.866 2.784 5.678 4.172 8.507 1.388 2.83 2.86 5.627 4.361 8.392 2.901 5.59 6.118 10.932 9.266 16.342l4.963 7.886c1.611 2.659 3.395 5.126 5.123 7.698 28.021 40.993 62.835 72.412 99.553 89.844 4.578 2.342 9.116 4.058 13.68 5.909l6.851 2.402c2.275.803 4.562 1.354 6.831 2.036 9.121 2.569 18.181 4.181 27.093 4.82 8.8997.605 17.6362.313 26.1391-.872 17.0102-2.488 32.8721-8.723 47.0237-18.483 7.0382-4.924 13.639-10.661 19.74926-17.165 6.08-6.545 11.61305-13.893 16.54777-21.974 1.20933-2.049 2.49677-4.005 3.61597-6.143l3.3816-6.423c2.0821-4.463 4.2212-8.887 5.9949-13.643 15.0128-37.757 19.1014-84.463 11.6905-133.548-.5093-3.051-.8589-6.082-1.4898-9.127l-1.7355-9.155c-1.3787-6.105-2.6596-12.208-4.3294-18.282-.7956-3.042-1.5792-6.089-2.5203-9.115s-1.7844-6.05-2.7375-9.071l-3.0267-8.999c-.977-3.013-2.1882-5.953-3.2608-8.928-2.1762-5.958-4.65334-11.839-6.8893-17.773l-76.7523-195.267z"/><path d="m-74.7145-10.9693 54.014 137.0663 13.47361 34.279 6.740321 17.148c2.249129 5.722 4.555809 11.38 6.680479 17.172 1.05638 2.898 2.25629 5.74 3.17412 8.672l2.93977 8.743c.9487 2.94 1.788 5.883 2.6749 8.806s1.6852 5.902 2.4455 8.855c1.6422 5.898 2.9026 11.843 4.2227 17.765l1.7034 8.898c.6147 2.968.9199 5.851 1.446 8.874 3.5876 23.703 4.4499 46.991 2.5563 69.033-1.9425 22.025-6.5865 42.547-13.7699 60.849-1.7253 4.634-3.80401 8.93-5.81867 13.284l-3.28028 6.259c-1.08551 2.084-2.33927 3.985-3.507828 5.997-4.802832 7.859-10.180432 15.013-16.084122 21.398-5.9325 6.345-12.3427 11.945-19.1791 16.754-13.7538 9.534-29.1922 15.602-45.7568 17.985-8.2776 1.144-16.783 1.414-25.4469.808-8.673-.653-17.485-2.237-26.357-4.737-2.207-.665-4.42-1.203-6.652-2.003l-6.658-2.333c-4.44-1.816-8.883-3.57-13.306-5.766-17.712-8.531-35.072-20.41-51.478-35.224-16.392-14.859-31.617-32.5-45.133-52.296-1.658-2.497-3.407-4.874-4.985-7.484l-4.811-7.677c-3.053-5.24-6.178-10.452-9.004-15.885-1.441-2.685-2.907-5.36-4.226-8.155-1.32-2.795-2.749-5.484-4.05-8.266l-3.8-8.405c-1.289-2.786-2.369-5.675-3.58-8.512-2.388-5.688-4.492-11.426-6.741-17.148l-6.74-17.148-13.474-34.279-53.787-137.156.706-.277 74.108 188.54c2.242 5.704 4.419 11.455 6.805 17.102 1.198 2.802 2.242 5.705 3.571 8.454l3.779 8.351c1.306 2.759 2.688 5.467 4.029 8.212s2.763 5.416 4.205 8.101c2.812 5.397 5.915 10.556 8.962 15.778l4.795 7.6c1.564 2.574 3.31 4.911 4.951 7.435 27.031 39.571 60.624 69.906 96.057 86.744 4.381 2.192 8.798 3.915 13.2 5.705l6.608 2.31c2.213.787 4.407 1.312 6.614 1.977 8.801 2.464 17.543 4.02 26.145 4.655 8.5933.585 17.0287.301 25.2372-.85 16.4251-2.42 31.7449-8.442 45.4221-17.854 6.7949-4.746 13.1658-10.282 19.0609-16.562 5.8718-6.324 11.21822-13.417 15.9900535-21.216 1.1517065-1.985 2.4006665-3.864 3.4861565-5.947l3.26569-6.192c2.00487-4.308 4.0668-8.577 5.854-13.194 7.1532-18.154 11.791-38.512 13.7525-60.366 1.8933-21.891 1.0558-45.02-2.4828-68.564-.4789-2.939-.8242-5.889-1.4248-8.821l-1.6752-8.826c-1.337-5.895-2.5642-11.791-4.1805-17.658-.7722-2.948-1.5135-5.887-2.4363-8.796-.9227-2.909-1.7068-5.852-2.6415-8.757l-2.91884-8.689c-.93471-2.905-2.11039-5.756-3.1407-8.623-2.09862-5.761-4.491409-11.426-6.64981-17.163l-74.10835-188.5407z"/><path d="m-79.9381-8.91697 52.0841 132.19297 12.9941 33.058 6.50062 16.539c2.16452 5.506 4.3937 10.967 6.50061 16.538 1.01407 2.791 2.178733 5.543 3.06621 8.362l2.83917 8.452c.89943 2.815 1.71513 5.662 2.56676 8.496.8516 2.834 1.62453 5.678 2.37348 8.531 1.57665 5.696 2.75985 11.34 4.05025 17.046l1.6385 8.592c.5843 2.856.8705 5.725 1.393 8.564 6.9838 46.019 3.1943 89.825-10.83586 125.261-1.66709 4.465-3.64953 8.62-5.605964 12.806l-3.145536 6.041c-1.05884 2.011-2.26693 3.852-3.38491 5.783-4.63853 7.567-9.83033 14.454-15.52843 20.6-5.7277 6.102-11.9099 11.494-18.4981 16.134-6.6648 4.503-13.6988 8.264-21.0504 11.256-7.4243 2.806-15.1362 4.841-23.0808 6.09-7.9844 1.091-16.1867 1.346-24.5407.762-8.357-.62-16.849-2.129-25.399-4.513-2.133-.652-4.272-1.178-6.417-1.93l-6.417-2.282c-4.271-1.738-8.564-3.426-12.825-5.562-34.404-16.398-67.008-45.899-93.229-84.356-1.598-2.416-3.247-4.75-4.811-7.221l-4.639-7.412c-2.952-5.053-5.964-10.082-8.641-15.242-1.406-2.595-2.784-5.118-4.082-7.859-1.299-2.741-2.648-5.296-3.906-7.97l-3.664-8.128c-1.246-2.678-2.291-5.477-3.448-8.212-2.322-5.486-4.336-11.031-6.573-16.51l-6.5-16.538-12.994-33.059-51.869-132.277.729-.286 71.478 181.849c2.165 5.507 4.277 11.055 6.577 16.488 1.151 2.716 2.158 5.489 3.428 8.158l3.647 8.051c1.251 2.656 2.57 5.202 3.885 7.916s2.653 5.17 4.061 7.805c2.677 5.161 5.701 10.185 8.641 15.242l4.61 7.341c1.517 2.49 3.254 4.768 4.779 7.172 26.068 38.17 58.464 67.439 92.638 83.698 4.236 2.104 8.491 3.765 12.743 5.49l6.396 2.229c2.121.761 4.245 1.251 6.367 1.908 8.5 2.405 16.945 3.933 25.255 4.569 8.285.549 16.4207.279 24.3431-.808 15.8216-2.354 30.5831-8.156 43.7725-17.206 6.5424-4.598 12.6843-9.939 18.3779-15.983 5.6555-6.122 10.7998-12.991 15.38503-20.544 1.11799-1.93 2.32818-3.731 3.36311-5.732l3.16669-5.988c1.939578-4.158 3.91231-8.268 5.58154-12.693 13.97063-35.167 17.76613-78.667 10.85213-124.376-.4605-2.822-.8353-5.636-1.3838-8.506l-1.6222-8.516c-1.2904-5.705-2.46168-11.354-4.0503-17.045-.72994-2.841-1.44582-5.645-2.34035-8.482-.89452-2.838-1.6253-5.574-2.54589-8.443l-2.810682-8.38c-.911388-2.81-2.038038-5.535-3.033098-8.313-2.02596-5.54-4.32894-11.013-6.42174-16.548l-71.47144-181.83214z"/><path d="m-85.1615-6.86389 50.1546 127.31789 12.5147 31.839 6.2609 15.929c2.1152 5.381 4.1668 10.601 6.201 15.952.97884 2.7 2.11531 5.381 2.94638 8.057l2.74297 8.137c.85712 2.707 1.64249 5.443 2.4708 8.182.82833 2.739 1.558943 5.476 2.277544 8.217 1.523026 5.49 2.692816 10.994 3.936616 16.51 1.2438 5.517 2.15156 11.021 2.92336 16.495 6.71753 44.311 3.07303 86.491-10.42239 120.625-3.30109 8.521-7.21718 16.453-11.70898 23.717-4.4506 7.317-9.4454 13.968-14.9375 19.891-5.519 5.886-11.477 11.086-17.8269 15.56-6.4246 4.326-13.2007 7.944-20.2798 10.829-7.1481 2.71-14.5773 4.668-22.2328 5.86-7.6872 1.063-15.586 1.316-23.632.757-8.056-.607-16.242-2.077-24.484-4.396-8.239-2.264-16.512-5.405-24.736-9.392-16.473-7.882-32.627-18.881-47.898-32.613-15.234-13.808-29.383-30.203-41.943-48.601-3.162-4.535-6.118-9.317-9.103-14.066-2.984-4.75-5.736-9.715-8.359-14.773-1.34-2.496-2.692-4.988-3.927-7.568-1.235-2.579-2.546-5.108-3.75-7.679l-3.544-7.823c-1.199-2.593-2.235-5.334-3.317-7.911-2.246-5.33-4.174-10.619-6.332-15.901l-6.268-15.946-12.515-31.839-49.951-127.398.777-.305 68.834 175.123c2.08 5.291 4.174 10.619 6.326 15.882 1.108 2.609 2.08 5.292 3.307 7.853l3.516 7.751c1.204 2.571 2.496 5.087 3.729 7.626 1.232 2.539 2.573 5.035 3.906 7.514 2.608 5.022 5.497 9.809 8.31 14.647 2.812 4.838 5.9 9.464 9.048 13.963 25.15 36.76 56.396 64.915 89.34 80.5 8.153 3.942 16.355 7.042 24.522 9.269 8.177 2.293 16.299 3.74 24.291 4.327 7.975.533 15.8057.272 23.4292-.781 15.2357-2.261 29.4495-7.848 42.1469-16.566 6.3032-4.424 12.2194-9.566 17.702-15.387 5.4494-5.87 10.4085-12.459 14.8315-19.704 4.4678-7.189 8.36356-15.044 11.64801-23.486 13.45662-33.843 17.11669-75.711 10.46474-119.709-.75766-5.439-1.84687-10.913-2.88103-16.388-1.03414-5.474-2.378336-10.931-3.887253-16.385-.711547-2.723-1.411197-5.451-2.256397-8.163-.84517-2.712-1.59255-5.421-2.44967-8.128l-2.71473-8.065c-.86911-2.703-1.9605-5.339-2.92517-8.004-1.9484-5.343-4.1739-10.619-6.1701-15.943l-68.8345-175.12335z"/><path d="m-90.3977-4.80631 48.2368 122.43931c8.0306 20.431 16.1356 40.77 24.0777 61.256.9364 2.593 2.0162 5.13 2.8261 7.753l2.6351 7.827c1.5889 5.236 3.2637 10.48 4.56846 15.766 1.3048 5.285 2.58561 10.58 3.7877 15.885 1.20212 5.306 2.07999 10.593 2.81711 15.874 3.19315 21.189 3.94935 42.004 2.2415 61.701-1.734396 19.685-5.88715 38.024-12.31287 54.375-3.1802 8.189-6.9491 15.814-11.2694 22.798-4.2806 7.038-9.085 13.434-14.3679 19.129-5.3009 5.68-11.0258 10.699-17.1296 15.017-12.2938 8.505-26.0853 13.925-40.8798 16.068-7.4062.994-15.0122 1.216-22.7582.662-7.747-.574-15.621-1.987-23.548-4.226-7.923-2.167-15.88-5.183-23.789-9.018-31.874-15.208-62.079-42.541-86.379-78.164-3.091-4.356-5.886-8.973-8.757-13.539-2.872-4.567-5.522-9.344-8.043-14.213-2.522-4.87-4.988-9.74-7.39-14.657l-3.4-7.527c-1.156-2.486-2.129-5.065-3.197-7.607-8.169-20.397-16.047-40.825-24.077-61.256l-48.046-122.5144.825-.3242 48.141 122.4766c8.023 20.413 15.982 40.872 24.142 61.21 1.066 2.501 1.995 5.077 3.188 7.549l3.372 7.455c2.399 4.876 4.729 9.821 7.347 14.549 2.617 4.728 5.283 9.437 7.994 14.087s5.661 9.103 8.691 13.441c24.134 35.311 54.116 62.384 85.742 77.421 7.841 3.788 15.728 6.769 23.582 8.913 7.858 2.201 15.662 3.592 23.343 4.161 7.668.51 15.197.257 22.5272-.757 14.6498-2.169 28.3158-7.54 40.5213-15.928 6.0589-4.248 11.7452-9.189 17.0138-14.784 5.2393-5.644 10.008-11.977 14.2618-18.942 4.2952-6.915 8.0415-14.469 11.2014-22.586 12.936571-32.536 16.46007-72.784 10.07504-115.083-.68718-5.259-1.78231-10.503-2.78674-15.761-1.00439-5.259-2.29013-10.531-3.73836-15.761-1.44824-5.229-2.95104-10.457-4.52584-15.657l-2.5952-7.761c-.8458-2.608-1.8946-5.136-2.817-7.694-7.873-20.451-16.0473-40.825-23.9991-61.266l-48.1411-122.47716z"/><path d="m-95.6211-2.75268 46.3072 117.56468c7.7062 19.606 15.501 39.156 23.1187 58.817.8942 2.486 1.939 4.933 2.7186 7.443l2.5272 7.518c1.5233 5.034 3.1322 10.076 4.3953 15.15s2.4784 10.167 3.5965 15.153 1.9847 10.175 2.6991 15.258c6.20383 40.951 2.83163 79.932-9.6437 111.476-3.0511 7.872-6.6686 15.201-10.816 21.916-4.123 6.748-8.7403 12.891-13.8101 18.371-5.0893 5.427-10.5859 10.217-16.4458 14.334-11.8025 8.172-25.0461 13.377-39.2539 15.429-7.095.979-14.385 1.207-21.812.683-7.436-.545-14.994-1.895-22.604-4.037-7.609-2.084-15.25-4.989-22.844-8.686-30.619-14.589-59.636-40.844-82.97-75.073-2.949-4.204-5.666-8.624-8.412-13.012-2.746-4.387-5.307-8.972-7.685-13.546-2.377-4.574-4.796-9.36-7.109-14.084l-3.268-7.226c-1.102-2.383-2.039-4.873-3.065-7.307-7.845-19.572-15.412-39.211-23.119-58.817l-46.139-117.6303.86-.3383 46.224 117.5976c7.699 19.588 15.34 39.24 23.171 58.776 1.031 2.411 1.918 4.879 3.056 7.248l3.24 7.155c2.298 4.688 4.532 9.422 7.06 13.957 2.528 4.536 5.061 9.049 7.672 13.552 2.612 4.502 5.435 8.736 8.352 12.891 23.156 33.902 51.937 59.888 82.294 74.303 7.542 3.65 15.13 6.513 22.685 8.561 7.542 2.103 15.033 3.438 22.406 3.991 7.307.5 14.48.269 21.463-.691 14.0642-2.077 27.1825-7.233 38.8961-15.289 5.8266-4.063 11.2853-8.811 16.3306-14.205 5.0322-5.41 9.6127-11.483 13.6991-18.162 4.1383-6.644 7.7452-13.908 10.7838-21.717 12.41645-31.227 15.79953-69.856 9.6735-110.452-.6933-5.029-1.6987-10.08-2.6615-15.128-.9627-5.047-2.2068-10.108-3.5964-15.153-1.3897-5.045-2.8371-10.026-4.3463-15.024l-2.499-7.447c-.8154-2.495-1.8103-4.921-2.6974-7.388-7.5677-19.64-15.4125-39.212-23.0399-58.828l-46.2164-117.57951z"/><path d="m-100.844-.699464 44.3771 112.690464c7.389 18.799 14.8475 37.528 22.1599 56.378.9307 2.367 1.8541 4.717 2.6527 7.24l2.4242 7.186c1.4576 4.832 2.9943 9.654 4.2037 14.521 1.2095 4.868 2.4426 9.726 3.4826 14.618 1.0399 4.893 1.9082 9.771 2.5858 14.619 5.946 39.259 2.7057 76.626-9.266 106.855-2.9294 7.541-6.3997 14.563-10.3765 20.997-3.9439 6.476-8.3645 12.368-13.2213 17.622-4.8828 5.215-10.1592 9.816-15.7866 13.764-5.6861 3.833-11.6853 7.035-17.9541 9.584-6.3298 2.393-12.9036 4.132-19.6745 5.207-6.813.929-13.809 1.152-20.934.669-7.134-.541-14.384-1.846-21.682-3.903-7.293-2.004-14.616-4.784-21.897-8.312-29.351-13.986-57.168-39.146-79.546-71.946-2.805-4.012-5.401-8.231-8.06-12.466-2.658-4.236-5.073-8.589-7.403-13.078-2.331-4.489-4.587-8.965-6.81-13.497l-3.124-6.931c-1.067-2.293-1.955-4.657-2.946-7.001-7.515-18.77-14.77-37.579-22.159-56.378l-44.234-112.7466.908-.3571 44.27 112.6287c7.382 18.781 14.807 37.669 22.218 56.314.983 2.326 1.847 4.699 2.924 6.947l3.115 6.873c2.19 4.482 4.334 9.024 6.749 13.376 2.414 4.353 4.858 8.673 7.354 12.952s5.186 8.315 8.006 12.364c22.19 32.483 49.766 57.383 78.853 71.203 7.214 3.499 14.471 6.25 21.698 8.225 7.226 2.023 14.403 3.295 21.463 3.802 7.055.486 13.98.256 20.719-.688 13.4777-1.985 26.0483-6.926 37.27-14.65 5.5817-3.898 10.8141-8.447 15.6545-13.608 4.8209-5.185 9.2108-11.003 13.1293-17.4 3.9417-6.374 7.3828-13.329 10.2894-20.798 11.892-29.927 15.1322-66.94 9.2651-105.839-.6825-4.826-1.6608-9.702-2.5558-14.506-.8949-4.805-2.1161-9.668-3.4451-14.488-1.329-4.821-2.7176-9.618-4.1542-14.396l-2.4103-7.15c-.7661-2.37-1.7254-4.706-2.5773-7.084-7.2483-18.791-14.7638-37.561-22.086-56.365l-44.3056-112.718598z"/><path d="m-106.069 1.35384 42.4481 107.81616c7.0506 17.938 14.1848 35.842 21.201 53.938.8884 2.26 1.7769 4.52 2.5099 6.841l2.3162 6.876c1.3921 4.631 2.8559 9.232 4.0187 13.911s2.2805 9.313 3.3266 13.976c1.046 4.662 1.8249 9.347 2.4798 13.997 5.6904 37.562 2.5861 73.314-8.8765 102.229-2.7972 7.223-6.1183 13.945-9.9299 20.097-3.7872 6.197-8.0317 11.833-12.6945 16.856-4.6742 4.988-9.7247 9.389-15.1106 13.167-10.8287 7.486-22.9745 12.261-36.0028 14.151-6.519.892-13.214 1.108-20.032.646-6.835-.503-13.781-1.741-20.774-3.7-6.981-1.91-13.99-4.571-20.957-7.957-28.084-13.371-54.701-37.44-76.111-68.823-2.687-3.852-5.189-7.9-7.715-11.94-2.526-4.039-4.858-8.217-7.08-12.5s-4.41-8.621-6.469-12.947l-2.998-6.609c-1.02-2.208-1.872-4.482-2.82-6.719-7.17-17.89-14.102-35.875-21.201-53.938l-42.328-107.8631.944-.3711 42.388 107.8402c7.05 17.937 14.064 35.992 21.186 53.902.882 2.242 1.763 4.484 2.805 6.643l2.971 6.577c2.1 4.289 4.183 8.71 6.413 12.803 2.23 4.094 4.643 8.302 7.026 12.398 2.382 4.095 4.981 8.003 7.654 11.819 21.226 31.06 47.597 54.874 75.413 68.103 6.9 3.338 13.84 5.964 20.751 7.851 6.912 1.937 13.778 3.158 20.533 3.65 6.749.462 13.375.245 19.825-.647 12.8833-1.917 24.9036-6.641 35.6439-14.011 5.3309-3.738 10.3308-8.091 14.9595-13.024 4.6137-4.958 8.811-10.527 12.5526-16.655 3.7764-6.088 7.0706-12.737 9.8499-19.88 11.3774-28.619 14.4749-64.022 8.8565-101.226-.6409-4.615-1.5632-9.243-2.4425-13.868-.8793-4.624-2.009-9.254-3.2963-13.863-1.2872-4.609-2.5913-9.191-4.022-13.743l-2.2903-6.845c-.7427-2.276-1.6601-4.504-2.4816-6.77-6.9191-17.989-14.101-35.875-21.1151-53.93l-42.3876-107.84005z"/><path d="m-111.291 3.40677 40.47 102.96123c6.7474 17.166 13.5714 34.281 20.2421 51.498.7863 2.176 1.6991 4.323 2.3897 6.537l2.2084 6.566c1.3385 4.423 2.7486 8.818 3.8388 13.277s2.1255 8.919 3.1847 13.369 1.7346 8.906 2.3549 13.363c5.4348 35.87 2.4691 70.011-8.48 97.62-2.6762 6.892-5.8503 13.307-9.4904 19.179-3.6066 5.91-7.6486 11.287-12.0889 16.08-4.4463 4.762-9.2525 8.963-14.3796 12.569-5.1987 3.492-10.6804 6.415-16.406 8.747-5.7807 2.193-11.7877 3.78-17.9787 4.747-6.205.865-12.583 1.068-19.082.605-6.516-.487-13.137-1.672-19.802-3.544-6.665-1.823-13.357-4.359-20.01-7.584-26.832-12.76-52.269-35.732-72.742-65.695-2.569-3.691-4.957-7.557-7.363-11.395s-4.65-7.864-6.771-11.959c-2.12-4.095-4.197-8.187-6.229-12.337l-2.854-6.313c-.978-2.101-1.795-4.285-2.701-6.414-6.862-17.142-13.494-34.333-20.242-51.499l-40.47-102.9606.992-.39 40.47 102.9606c6.741 17.149 13.502 34.351 20.288 51.439.839 2.135 1.685 4.287 2.673 6.343l2.832 6.259c2.018 4.115 3.976 8.253 6.187 12.23 2.212 3.976 4.481 7.889 6.729 11.851 2.247 3.963 4.754 7.637 7.301 11.274 20.255 29.65 45.424 52.382 71.974 65.003 6.595 3.174 13.228 5.664 19.832 7.446 6.592 1.845 13.141 3.01 19.585 3.485 6.442.439 12.767.231 18.923-.625 12.297-1.824 23.7701-6.333 34.0184-13.371 5.0917-3.563 9.8657-7.717 14.2832-12.428 4.3996-4.737 8.4061-10.051 11.9829-15.892 3.605-5.807 6.7461-12.153 9.3915-18.975 10.8603-27.317 13.8189-61.107 8.4597-96.618-.6111-4.399-1.4915-8.816-2.3291-13.229s-1.9257-8.831-3.1544-13.256-2.4841-8.777-3.7965-13.169l-2.1872-6.513c-.7005-2.168-1.5825-4.307-2.3618-6.465-6.6067-17.159-13.4876-34.314-20.1682-51.486l-40.4705-102.9606z"/><path d="m-116.515 5.45991 38.5523 98.08209c6.4301 16.359 12.9178 32.654 19.2833 49.059 3.1459 8.258 5.8375 16.668 8.0483 25.145 1.1751 4.218 2.0661 8.486 3.0288 12.726.9626 4.239 1.658 8.501 2.2415 12.724 2.5618 16.984 3.1755 33.669 1.8193 49.463-1.4078 15.769-4.7449 30.461-9.8956 43.567-2.5571 6.562-5.5816 12.675-9.044 18.279-3.4449 5.619-7.2959 10.74-11.5191 15.317-4.2593 4.532-8.8575 8.533-13.7583 11.973-9.8554 6.8-20.9035 11.143-32.7515 12.873-5.927.819-12.015 1.018-18.217.596-6.213-.475-12.524-1.601-18.877-3.37-6.348-1.748-12.722-4.167-19.058-7.232-25.559-12.17-49.784-34.071-69.273-62.627-2.448-3.49-4.719-7.195-7.023-10.845-2.304-3.651-4.424-7.498-6.447-11.382-4.154-7.714-7.908-15.706-11.228-23.896-6.545-16.335-12.853-32.7-19.283-49.059l-38.553-98.0819 1.028-.404 38.553 98.0819c6.423 16.341 12.86 32.718 19.269 49.023 3.286 8.107 7.008 16.016 11.129 23.644 1.998 3.854 4.218 7.537 6.386 11.262 2.168 3.724 4.527 7.27 6.973 10.719 19.275 28.229 43.227 49.88 68.497 61.917 6.264 3.025 12.564 5.397 18.837 7.092 6.283 1.757 12.522 2.864 18.661 3.31 6.133.422 12.152.222 18.009-.597 11.712-1.732 22.637-6.026 32.3934-12.733 4.8503-3.392 9.3983-7.346 13.6072-11.83 4.1885-4.506 8.0008-9.563 11.4013-15.126 3.4399-5.512 6.4387-11.54 8.966-18.02 10.3247-26.013 13.1237-58.184 8.0033-91.987-.5813-4.182-1.4202-8.387-2.1922-12.599-.772-4.211-1.8303-8.413-2.9912-12.595-2.1771-8.393-4.8359-16.719-7.9497-24.894-6.3013-16.348-12.8461-32.682-19.2691-49.023l-38.552-98.08225z"/></g></svg>