<svg fill="none" height="936" viewBox="0 0 235 936" width="235" xmlns="http://www.w3.org/2000/svg"><g fill="#b4fbf7"><path d="m937.588 452.856-139.378 156.838-34.987 39.081-17.5 19.548-13.125 14.661-4.484 4.788-4.51 4.791c-1.467 1.638-2.921 3.262-4.62 4.693l-9.473 9.126c-3.223 2.968-6.597 5.775-9.875 8.668-1.686 1.417-3.277 2.919-5.02 4.261l-5.174 4.048c-6.789 5.579-14.056 10.483-21.204 15.445l-11.106 7.049-2.783 1.763-2.855 1.624-5.725 3.236-5.725 3.236-5.882 2.972-5.87 2.958-2.942 1.473-3 1.347-12.032 5.335-12.271 4.753c-16.481 6.047-33.382 10.88-50.569 14.459-34.472 6.968-69.809 8.605-104.778 4.857-8.752-.827-17.399-2.347-26.096-3.813l-12.877-2.7c-2.123-.376-4.274-1.023-6.393-1.567l-6.384-1.659c-2.109-.584-4.251-1.075-6.35-1.725l-6.284-1.962c-4.212-1.311-8.369-2.574-12.503-4.136-4.135-1.562-8.25-3.008-12.334-4.599l-12.131-5.155c-16.043-7.237-31.534-15.64-46.348-25.14-29.571-19.112-55.963-42.74-78.217-70.025-11.089-13.667-21.148-28.139-30.095-43.295l-6.473-11.475c-2.045-3.897-3.949-7.84-5.932-11.778-1.982-3.939-3.696-7.957-5.5-11.958l-2.643-6.03c-.877-2.014-1.602-4.089-2.402-6.134l-2.35-6.137c-.789-2.058-1.616-4.102-2.25-6.194l-4.117-12.514c-2.332-8.383-4.864-16.872-6.678-25.504-7.626-34.337-9.94-69.641-6.862-104.679 1.663-17.477 4.604-34.808 8.799-51.855l3.371-12.72 3.978-12.546 1.007-3.131 1.14-3.086 2.294-6.16 2.305-6.174 2.586-6.046 2.598-6.035 1.286-3.029 1.445-2.961 5.715-11.876c4.246-7.683 8.319-15.446 13.013-22.777l3.454-5.588c1.142-1.88 2.46-3.627 3.696-5.447 2.5-3.589 4.932-7.24 7.527-10.77l8.013-10.433c1.316-1.773 2.716-3.446 4.155-5.109l4.278-4.998 4.252-4.997 13.198-14.742 17.5-19.548 34.988-39.081 140.51-155.823739.136.122176-205.55 229.600563-4.252 4.997-4.252 4.997c-1.455 1.624-2.827 3.322-4.131 5.081l-7.976 10.392c-2.581 3.542-4.988 7.192-7.502 10.769-1.21 1.818-2.527 3.565-3.657 5.431l-3.442 5.575c-4.758 7.347-8.806 15.084-13.013 22.777l-5.678 11.835-1.419 2.959-1.3 3.017-2.573 6.033-2.574 6.007-2.281 6.147-2.268 6.159-1.154 3.074-.995 3.117-3.873 12.566-3.334 12.679c-4.157 16.979-7.067 34.239-8.707 51.642-2.95 34.983-.5 70.212 7.265 104.45 1.771 8.569 4.246 16.957 6.631 25.363l4.112 12.436c.608 2.069 1.46 4.11 2.247 6.143l2.35 6.137c.8 2.019 1.537 4.08 2.4 6.082l2.641 6.005c1.754 4.029 3.467 8.021 5.498 11.905s3.884 7.83 5.914 11.688l6.552 11.497c8.92 15.036 18.924 29.4 29.934 42.98 22.216 27.067 48.458 50.56 77.807 69.658 14.712 9.444 30.092 17.805 46.017 25.015l12.052 5.134c4.072 1.605 8.188 3.051 12.283 4.602s8.276 2.787 12.425 4.14l6.259 1.964c2.085.637 4.215 1.142 6.322 1.7l6.346 1.674c2.107.558 4.203 1.156 6.353 1.556l12.84 2.716c8.564 1.421 17.153 3.061 25.913 3.797 34.813 3.832 70.007 2.298 104.354-4.548 17.118-3.551 33.957-8.341 50.381-14.332l12.221-4.724 12.063-5.234 2.989-1.333 2.941-1.473 5.858-2.944 5.858-2.945 5.7-3.209 5.699-3.234 2.869-1.612 2.771-1.749 11.069-7.008c7.157-5.028 14.4-9.905 21.204-15.445l5.162-4.035c1.744-1.316 3.321-2.83 4.995-4.233 3.292-2.881 6.654-5.675 9.877-8.643l9.45-9.072c1.618-1.478 3.113-3.066 4.595-4.666l4.498-4.777 4.511-4.764 205.527-229.574z"/><path d="m931.622 447.515-136.08 153.101-34.157 38.153-17.109 19.111-12.807 14.305-4.386 4.681-4.413 4.681c-1.429 1.597-2.915 3.119-4.495 4.582l-9.264 8.92c-3.149 2.886-6.437 5.623-9.64 8.46-1.636 1.388-3.203 2.863-4.908 4.164l-5.049 3.964c-6.629 5.427-13.721 10.217-20.727 15.159l-10.856 6.88-2.708 1.706-2.793 1.582-5.585 3.189c-14.93 8.41-30.507 15.614-46.583 21.544-16.092 5.896-32.592 10.611-49.369 14.108-33.667 6.774-68.175 8.326-102.314 4.603-8.542-.786-16.993-2.278-25.44-3.693l-12.589-2.639c-4.16-.847-8.291-2.11-12.461-3.139-2-.512-4.158-1.041-6.203-1.668l-6.141-1.931c-4.082-1.319-8.231-2.452-12.198-4.036-3.968-1.584-8.065-2.941-12.056-4.498l-11.826-5.029c-15.637-7.053-30.739-15.239-45.183-24.491-28.9-18.679-54.693-41.771-76.443-68.436-10.795-13.334-20.591-27.446-29.309-42.222l-6.327-11.198c-1.976-3.81-3.849-7.651-5.774-11.489-1.924-3.838-3.608-7.78-5.369-11.692l-2.582-5.878c-.874-1.962-1.631-3.919-2.356-5.994-1.48-4.005-3.177-7.959-4.493-12.039l-4.022-12.207c-2.393-8.315-4.714-16.517-6.474-24.879-7.437-33.524-9.696-67.989-6.699-102.198 1.628-17.057 4.501-33.972 8.595-50.61 4.106-16.643 9.555-32.925 16.291-48.688l2.529-5.9 1.264-2.951 1.398-2.88 5.642-11.548c4.207-7.446 8.119-15.084 12.782-22.271l3.383-5.455c1.105-1.838 2.412-3.545 3.611-5.324 2.453-3.509 4.812-7.078 7.333-10.526l7.845-10.191c1.28-1.731 2.656-3.351 4.059-4.973l4.166-4.901 4.168-4.876 12.82-14.319 17.109-19.111 34.156-38.153 137.173-152.12296.177.15887-136.626 152.61209-64.048 71.542-4.143 4.874-4.142 4.874c-1.43 1.597-2.765 3.254-4.033 4.972l-7.831 10.203c-2.534 3.435-4.867 7.003-7.334 10.5-1.173 1.777-2.468 3.471-3.561 5.296l-3.358 5.453c-4.638 7.159-8.606 14.722-12.721 22.203l-5.605 11.507-1.397 2.88-1.252 2.937-2.517 5.887c-6.67 15.708-12.069 31.926-16.146 48.497-4.053 16.58-6.894 33.432-8.502 50.424-2.938 34.061-.639 68.372 6.817 101.737 1.72 8.352 4.145 16.548 6.467 24.749l3.937 12.083c1.313 4.028 3.011 7.982 4.503 11.974.729 1.932 1.48 4.005 2.34 5.956l2.581 5.852c1.759 3.886 3.317 7.887 5.365 11.614 2.049 3.728 3.783 7.641 5.757 11.424l6.311 11.134c8.694 14.682 18.455 28.705 29.203 41.957 21.689 26.434 47.315 49.376 75.978 68.02 14.355 9.223 29.369 17.379 44.919 24.401l11.762 5.046c3.978 1.545 7.988 2.971 11.989 4.463 4.001 1.491 8.079 2.732 12.135 4.052l6.101 1.921c2.033.64 4.122 1.108 6.177 1.669 4.132 1.043 8.222 2.271 12.397 3.156l12.443 2.582c8.421 1.416 16.821 2.911 25.325 3.712 33.98 3.723 68.329 2.223 101.855-4.448 16.715-3.455 33.152-8.137 49.18-14.007 16.024-5.87 31.549-13.024 46.423-21.392l5.574-3.15 2.78-1.568 2.709-1.706 10.819-6.839c6.914-4.975 14.062-9.691 20.68-15.078l5.036-3.951c1.694-1.287 3.234-2.76 4.872-4.122 3.217-2.825 6.492-5.549 9.641-8.435l9.278-8.908c1.567-1.449 3.026-2.996 4.483-4.568l4.388-4.654 4.388-4.654 200.663-224.141z"/><path d="m925.658 442.176-132.784 149.363-33.326 37.225-16.669 18.619c-5.56 6.211-10.974 12.504-16.778 18.521l-4.289 4.571c-1.393 1.556-2.786 3.112-4.398 4.473l-9.03 8.686c-3.075 2.83-6.275 5.498-9.417 8.267-1.587 1.333-3.104 2.779-4.759 4.051l-4.937 3.868c-6.467 5.3-13.41 9.979-20.228 14.793l-10.58 6.709-2.658 1.678-2.731 1.539-5.447 3.091c-14.563 8.219-29.765 15.251-45.457 21.028-15.702 5.75-31.8 10.357-48.167 13.781-32.872 6.578-66.557 8.076-99.883 4.444-8.334-.772-16.563-2.238-24.827-3.611l-12.274-2.578c-4.123-.888-8.038-2.008-12.158-3.065-1.988-.526-4.025-.997-6.059-1.637l-5.982-1.888c-3.976-1.273-8.009-2.399-11.909-3.948s-7.851-2.849-11.763-4.359l-11.547-4.928c-15.26-6.866-29.991-14.852-44.073-23.89-28.174-18.206-53.318-40.717-74.518-66.713-10.531-13.011-20.095-26.775-28.616-41.184l-6.158-10.948c-1.93-3.695-3.747-7.461-5.64-11.197s-3.52-7.577-5.236-11.401l-2.536-5.737c-.779-1.878-1.508-3.81-2.201-5.782-1.435-3.892-3.139-7.729-4.4-11.759l-3.915-11.915c-2.274-8.036-4.639-16.08-6.311-24.265-7.299-32.716-9.526-66.359-6.603-99.751 1.588-16.65 4.388-33.162 8.377-49.405 4.019-16.231 9.333-32.115 15.89-47.497l2.471-5.755 1.23-2.884 1.388-2.814 5.502-11.255c4.061-7.283 7.919-14.723 12.475-21.735l3.299-5.333c1.068-1.798 2.339-3.464 3.502-5.177 2.406-3.428 4.704-6.929 7.165-10.282l7.639-9.933c1.256-1.679 2.595-3.284 3.961-4.864l4.07-4.766c5.354-6.421 11.109-12.409 16.56-18.717l16.669-18.62 33.325-37.224 133.821-148.4351.232.2076-183.309 204.7565c-5.548 6.198-11.217 12.311-16.534 18.716l-4.044 4.765c-1.381 1.542-2.774 3.098-3.937 4.836l-7.588 9.904c-2.461 3.354-4.76 6.829-7.14 10.256-1.15 1.725-2.408 3.377-3.49 5.162l-3.275 5.307c-4.518 6.996-8.392 14.373-12.4 21.678l-5.465 11.215-1.363 2.813-1.231 2.857-2.445 5.754c-6.527 15.329-11.81 31.159-15.796 47.336-3.941 16.167-6.701 32.598-8.259 49.165-2.868 33.226-.629 66.695 6.639 99.243 1.697 8.158 4.059 16.15 6.317 24.147l3.925 11.85c1.337 4 2.894 7.755 4.329 11.646.741 1.918 1.434 3.891 2.225 5.755l2.521 5.699c1.715 3.798 3.277 7.656 5.219 11.337 1.943 3.682 3.708 7.451 5.638 11.146l6.14 10.858c8.491 14.319 18.016 27.999 28.498 40.931 21.155 25.792 46.156 48.174 74.122 66.358 14.009 8.993 28.655 16.953 43.822 23.814l11.469 4.906c3.885 1.511 7.803 2.903 11.699 4.375 3.896 1.471 7.879 2.653 11.843 3.939l5.942 1.877c1.94.58 3.953 1.079 5.965 1.577 4.026.998 8 2.244 12.052 3.019l12.211 2.595c8.211 1.376 16.401 2.831 24.697 3.618 33.15 3.644 66.662 2.181 99.369-4.337 16.294-3.374 32.322-7.929 47.955-13.628 15.644-5.74 30.8-12.73 45.322-20.903l5.435-3.077 2.704-1.538 2.646-1.664 10.544-6.668c6.778-4.825 13.724-9.452 20.18-14.713l4.913-3.84c1.655-1.272 3.173-2.693 4.772-4.04 3.118-2.741 6.318-5.409 9.381-8.225l9.007-8.633c1.531-1.408 2.965-2.928 4.374-4.446l4.29-4.545c5.78-5.989 11.19-12.335 16.793-18.483l183.309-204.757z"/><path d="m919.706 436.847-129.474 145.639-32.494 36.296-16.254 18.155c-5.413 6.048-10.706 12.179-16.362 18.058l-4.191 4.461c-1.357 1.515-2.782 2.969-4.275 4.362l-8.809 8.467c-2.987 2.76-6.126 5.36-9.182 8.059-1.549 1.318-3.028 2.723-4.647 3.955l-4.8 3.768c-6.319 5.163-13.086 9.728-19.729 14.429l-10.33 6.539-2.57 1.634-2.668 1.497-5.32 3.032c-14.202 8.006-29.022 14.861-44.319 20.498-15.311 5.618-31.013 10.102-46.981 13.417-32.036 6.438-64.872 7.911-97.357 4.369-8.111-.745-16.157-2.169-24.198-3.515l-11.971-2.504c-3.991-.844-7.978-2.077-11.856-2.991-1.976-.54-3.952-1.079-5.929-1.619l-5.781-1.782c-3.842-1.202-7.77-2.309-11.605-3.848-3.835-1.54-7.666-2.781-11.459-4.259l-11.268-4.8c-14.9-6.715-29.286-14.515-43.043-23.338-27.47-17.755-51.987-39.705-72.662-65.05-10.29-12.696-19.632-26.131-27.951-40.196l-5.999-10.658c-1.9-3.619-3.673-7.297-5.509-10.933-1.836-3.635-3.432-7.4-5.104-11.11l-2.408-5.55c-.791-1.863-1.508-3.809-2.262-5.713-1.508-3.809-3.016-7.619-4.267-11.468l-3.834-11.621c-2.224-7.844-4.512-15.671-6.161-23.664-7.088-31.898-9.242-64.694-6.386-97.245 1.591-16.206 4.363-32.274 8.294-48.077 3.909-15.833 9.093-31.324 15.501-46.321l2.401-5.621 1.207-2.805 1.328-2.746 5.374-10.975c3.927-7.133 7.719-14.362 12.167-21.199l3.217-5.186c1.045-1.745 2.279-3.37 3.405-5.067 2.346-3.335 4.597-6.729 6.998-10.015l7.458-9.676c1.206-1.649 2.522-3.201 3.851-4.741l3.972-4.657c5.22-6.27 10.84-12.108 16.144-18.253l16.254-18.155 32.494-36.296 130.47-144.7467.287.2566-178.727 199.6381c-5.413 6.047-10.923 12.008-16.104 18.263l-3.948 4.63c-1.357 1.515-2.701 3.017-3.839 4.728l-7.408 9.647c-2.388 3.272-4.64 6.666-6.947 9.986-1.14 1.685-2.374 3.31-3.407 5.041l-3.19 5.184c-4.411 6.823-8.192 14.012-12.106 21.131l-5.325 10.947-1.341 2.734-1.181 2.803-2.403 5.595c-6.344 14.942-11.479 30.369-15.356 46.132-3.859 15.769-6.564 31.799-8.092 47.962-2.804 32.398-.624 65.036 6.464 96.774 1.646 7.94 3.895 15.782 6.167 23.546l3.818 11.557c1.25 3.849 2.906 7.521 4.262 11.39.766 1.891 1.508 3.809 2.274 5.7l2.421 5.537c1.643 3.659 3.175 7.44 5.101 11.058 1.925 3.617 3.606 7.261 5.491 10.842l5.997 10.607c8.273 13.958 17.557 27.291 27.778 39.894 20.622 25.15 44.996 46.971 72.266 64.696 13.656 8.773 27.936 16.536 42.726 23.225l11.189 4.779c3.766 1.479 7.591 2.837 11.394 4.275 3.804 1.438 7.681 2.573 11.54 3.839l5.769 1.796c1.927.594 3.952 1.079 5.916 1.632 3.952 1.079 7.904 2.158 11.804 2.994l11.908 2.52c8.002 1.336 15.995 2.762 24.069 3.523 32.326 3.541 65.003 2.111 96.896-4.24 15.898-3.293 31.533-7.747 46.779-13.328 15.246-5.575 30.014-12.379 44.158-20.346l5.31-2.993 2.642-1.495 2.57-1.634 10.293-6.499c6.632-4.661 13.375-9.199 19.668-14.36l4.802-3.743c1.606-1.217 3.086-2.623 4.635-3.941 3.044-2.659 6.17-5.272 9.158-8.006l8.773-8.425c1.507-1.381 2.892-2.846 4.276-4.337l4.18-4.422c5.632-5.851 10.909-12.021 16.364-18.031l48.748-54.452 129.978-145.186z"/><path d="m913.726 431.495-126.136 141.937-31.663 35.368-15.887 17.746c-5.279 5.897-10.437 11.878-15.982 17.66l-4.081 4.339c-1.332 1.488-2.652 2.962-4.177 4.253l-8.588 8.246c-2.914 2.679-5.964 5.235-8.947 7.852-1.512 1.277-2.955 2.641-4.535 3.858l-4.689 3.671c-6.145 5.024-12.723 9.487-19.218 14.05l-10.052 6.395-2.521 1.579-2.592 1.467-5.129 2.982c-55.864 31.351-120.149 44.406-183.817 37.329-7.929-.729-15.765-2.113-23.596-3.419l-11.671-2.456c-3.885-.797-7.686-1.963-11.529-2.944-1.964-.553-3.843-.981-5.743-1.551l-5.744-1.823c-3.806-1.243-7.614-2.291-11.356-3.797s-7.44-2.677-11.181-4.157l-10.962-4.675c-14.494-6.541-28.487-14.137-41.868-22.728-26.765-17.305-50.656-38.694-70.805-63.388-10.012-12.361-19.109-25.436-27.217-39.121l-5.855-10.381c-1.789-3.495-3.517-7.058-5.363-10.654-1.847-3.596-3.371-7.223-5.025-10.868l-2.446-5.509c-.815-1.836-1.412-3.724-2.174-5.537-1.399-3.711-2.926-7.39-4.197-11.134l-3.727-11.329c-2.149-7.653-4.399-15.275-5.984-23.063-14.065-62.503-8.178-127.842 16.831-186.824l2.399-5.426 1.172-2.738 1.306-2.667 5.234-10.708c3.792-6.983 7.572-13.952 11.847-20.65l3.132-5.064c1.035-1.705 2.232-3.29 3.335-4.933 2.286-3.241 4.476-6.567 6.817-9.758l7.264-9.432c1.183-1.597 2.448-3.12 3.767-4.62l3.862-4.534c5.073-6.106 10.559-11.794 15.778-17.844l15.887-17.745 31.663-35.369 127.133-141.045.327.2933-174.156 194.5327c-5.279 5.897-10.654 11.708-15.764 17.855l-3.838 4.507c-1.32 1.475-2.571 3.01-3.755 4.606l-7.199 9.416c-2.341 3.191-4.521 6.478-6.781 9.717-1.103 1.644-2.3 3.228-3.322 4.919l-3.121 5.051c-4.291 6.634-7.965 13.649-11.76 20.58l-5.197 10.667-1.294 2.654-1.172 2.737-2.374 5.399c-12.3 29.197-20.01 60.12-22.856 91.674-2.695 31.548-.549 63.323 6.362 94.223 1.609 7.735 3.844 15.319 6.004 22.933l3.723 11.251c1.232 3.759 2.784 7.41 4.155 11.097.779 1.878 1.385 3.7 2.161 5.525l2.47 5.482c1.667 3.631 3.113 7.263 4.968 10.767 1.854 3.505 3.504 7.072 5.306 10.554l5.838 10.317c8.032 13.627 17.061 26.641 27.012 38.937 20.087 24.508 43.836 45.77 70.409 63.034 13.322 8.528 27.252 16.067 41.677 22.557l10.897 4.665c3.659 1.407 7.391 2.732 11.074 4.111 3.684 1.38 7.538 2.568 11.25 3.751l5.72 1.851c1.915.608 3.843.981 5.729 1.539 3.83.969 7.616 2.096 11.488 2.907l11.593 2.46c7.805 1.308 15.589 2.694 23.454 3.44 63.369 7.137 127.382-5.767 183.037-36.897l5.105-2.955 2.592-1.466 2.508-1.566 10.03-6.341c6.497-4.512 12.983-9.009 19.145-13.968l4.676-3.659c1.568-1.202 3.011-2.566 4.523-3.843 2.971-2.604 5.996-5.133 8.924-7.799l8.551-8.206c1.457-1.352 2.818-2.789 4.165-4.239l4.056-4.311c5.499-5.676 10.642-11.695 16.023-17.624l174.108-194.478z"/><path d="m907.762 426.154-122.88 138.164-30.833 34.44-15.386 17.186c-5.145 5.747-10.156 11.564-15.518 17.141l-3.983 4.23c-1.283 1.433-2.647 2.819-4.066 4.13l-8.353 8.039c-2.839 2.622-5.817 5.096-8.712 7.644-2.895 2.547-5.941 4.96-9.003 7.309-5.983 4.898-12.4 9.236-18.719 13.685l-9.791 6.211-2.456 1.564-2.529 1.424-5.032 2.873c-54.41 30.52-117.015 43.228-179.019 36.337-7.695-.717-15.348-2.084-22.956-3.337l-11.368-2.382c-3.793-.79-7.488-1.909-11.251-2.843-1.857-.507-3.774-.92-5.61-1.506l-5.533-1.732c-3.673-1.198-7.415-2.237-11.01-3.66s-7.283-2.659-10.889-4.043l-10.634-4.602c-14.123-6.361-27.758-13.752-40.796-22.113-26.068-16.845-49.334-37.673-68.949-61.726-9.743-12.04-18.591-24.778-26.473-38.111l-5.746-10.062c-1.826-3.455-3.497-6.917-5.231-10.364-1.735-3.446-3.256-7.021-4.839-10.554l-2.344-5.319c-.828-1.823-1.406-3.595-2.128-5.397-1.317-3.638-2.85-7.2-4.065-10.869l-3.62-11.037c-2.098-7.435-4.287-14.879-5.847-22.448-6.698-30.216-8.743-61.278-6.064-92.112 2.823-30.867 10.4-61.113 22.461-89.666l2.301-5.317 1.15-2.659 1.27-2.626 5.094-10.415c3.739-6.759 7.303-13.651 11.539-20.113 2.025-3.278 4.034-6.594 6.273-9.754s4.357-6.378 6.637-9.501l7.07-9.188c1.146-1.556 2.401-3.039 3.657-4.497l3.778-4.413c4.939-5.956 10.278-11.48 15.313-17.324l15.423-17.227 30.832-34.44 123.781-137.3573.382.3422-169.5 189.3321c-5.132 5.733-10.373 11.394-15.287 17.323l-3.74 4.397c-1.222 1.366-2.567 2.867-3.645 4.484l-7.019 9.159c-2.268 3.109-4.4 6.315-6.601 9.46-2.2 3.145-4.251 6.424-6.248 9.726-4.185 6.46-7.764 13.288-11.466 20.032l-5.058 10.374-1.244 2.599-1.151 2.658-2.301 5.318c-24.171 57.184-29.801 120.509-16.099 181.061 1.559 7.543 3.799 14.984 5.778 22.387l3.63 10.971c1.187 3.645 2.707 7.194 4.049 10.805.708 1.79 1.316 3.638 2.112 5.358l2.329 5.282c1.582 3.507 3.026 7.086 4.823 10.49s3.443 6.894 5.214 10.3l5.746 10.062c7.847 13.247 16.656 25.9 26.356 37.858 19.571 23.849 42.692 44.548 68.552 61.372 12.953 8.325 26.5 15.685 40.532 22.023l10.634 4.602c3.635 1.434 7.207 2.69 10.812 4.048 3.604 1.358 7.297 2.451 10.957 3.637l5.506 1.733c1.823.574 3.702 1.002 5.559 1.509 3.761.908 7.432 2.055 11.199 2.846l11.291 2.386c7.583 1.28 15.183 2.625 22.887 3.276 61.693 6.946 124.012-5.629 178.185-35.953l5.031-2.874 2.529-1.424 2.432-1.536 9.754-6.17c6.295-4.422 12.714-8.708 18.646-13.603 3.048-2.362 6.096-4.723 8.978-7.283 2.882-2.559 5.848-4.994 8.675-7.602l8.33-7.986c1.42-1.311 2.744-2.708 4.055-4.117l3.958-4.202c5.351-5.537 10.36-11.407 15.533-17.103l169.549-189.386z"/><path d="m901.796 420.813-119.788 134.244-30.002 33.511-15.007 16.763c-4.998 5.583-9.887 11.264-15.088 16.69l-3.874 4.106c-1.222 1.365-2.505 2.798-3.942 4.02l-8.118 7.831c-2.717 2.486-5.656 4.945-8.477 7.436-2.821 2.492-5.694 4.74-8.783 7.064-5.821 4.772-12.001 8.929-18.146 13.264l-9.526 6.054-2.382 1.507-2.453 1.394-4.934 2.764c-52.899 29.715-113.779 42.109-174.086 35.442-7.499-.688-14.928-2.004-22.34-3.229l-11.053-2.321c-3.652-.811-7.291-1.855-10.961-2.755-1.818-.496-3.706-.859-5.44-1.477l-5.4-1.687c-3.579-1.138-7.204-2.171-10.719-3.546-3.514-1.376-7.07-2.568-10.585-3.944l-10.402-4.394c-13.759-6.19-27.042-13.388-39.739-21.535-25.371-16.385-48.011-36.654-67.092-60.065-9.49-11.727-18.108-24.135-25.783-37.123l-5.528-9.867c-1.741-3.33-3.395-6.728-5.086-10.086s-3.154-6.833-4.706-10.263l-2.272-5.181c-.744-1.724-1.361-3.506-2.055-5.258-1.248-3.577-2.787-6.996-3.944-10.565l-3.526-10.73c-2.036-7.257-4.215-14.52-5.671-21.848-13.286-59.206-7.681-121.089 16.028-176.944l2.204-5.208 1.115-2.592 1.236-2.533 4.967-10.136c3.632-6.584 7.155-13.267 11.17-19.509 1.953-3.17 3.892-6.352 6.053-9.508 2.161-3.155 4.236-6.216 6.47-9.232l6.876-8.944c1.099-1.475 2.327-2.957 3.56-4.362l3.669-4.289c4.805-5.78 10.008-11.18 14.911-16.849l15.007-16.763 30.002-33.511 120.238-133.8401.41.3667-164.979 184.2814c-4.998 5.583-10.104 11.094-14.885 16.846l-3.63 4.275c-1.223 1.365-2.506 2.799-3.535 4.361l-6.851 8.916c-2.171 2.974-4.279 6.153-6.407 9.216-2.127 3.063-4.144 6.249-6.04 9.494-4.029 6.23-7.538 12.925-11.171 19.509l-4.918 10.081-1.235 2.534-1.103 2.578-2.179 5.18c-11.653 27.654-18.954 56.945-21.644 86.832-2.564 29.926-.521 60.068 6.055 89.375 1.496 7.339 3.618 14.526 5.677 21.731l3.509 10.666c1.194 3.528 2.658 7.002 3.942 10.512.706 1.739 1.248 3.577 2.066 5.219l2.256 5.143c1.551 3.405 2.95 6.895 4.716 10.197 1.765 3.302 3.316 6.707 5.069 10.022l5.473 9.818c7.644 12.885 16.216 25.195 25.65 36.833 19.038 23.207 41.533 43.346 66.697 59.71 12.606 8.094 25.786 15.258 39.435 21.435l10.361 4.358c3.489 1.377 7.022 2.622 10.52 3.934s7.1 2.397 10.654 3.563l5.361 1.676c1.783.563 3.622.981 5.414 1.478 3.693.847 7.221 1.989 10.883 2.76l11.002 2.324c7.373 1.24 14.751 2.558 22.224 3.248 60.096 6.927 120.851-5.175 173.705-34.603l4.909-2.737 2.441-1.38 2.382-1.507 9.491-5.987c6.144-4.336 12.336-8.506 18.159-13.252 2.936-2.291 5.898-4.556 8.771-7.051 2.872-2.494 5.7-4.856 8.454-7.382l8.107-7.792c1.358-1.243 2.621-2.572 3.944-3.994l3.849-4.079c5.191-5.386 10.078-11.093 15.117-16.64l164.979-184.281z"/><path d="m895.831 415.473-116.478 130.518-29.171 32.584-14.591 16.298c-4.888 5.46-9.606 10.95-14.673 16.226l-3.762 4.009c-1.222 1.365-2.513 2.669-3.858 3.924l-7.946 7.641c-2.704 2.497-5.544 4.873-8.228 7.24-2.685 2.367-5.605 4.696-8.492 6.931-5.648 4.633-11.713 8.744-17.696 12.954l-9.25 5.883-2.32 1.465-2.39 1.352-4.755 2.702c-51.443 28.892-110.646 40.939-169.289 34.45-7.303-.661-14.522-1.936-21.765-3.157l-10.751-2.248c-3.584-.749-7.093-1.8-10.658-2.68-1.765-.474-3.553-.894-5.308-1.433l-5.228-1.631c-3.488-1.131-7.019-2.103-10.429-3.459-3.409-1.355-6.885-2.5-10.293-3.83l-10.112-4.306c-13.36-6.008-26.262-12.989-38.6-20.885-24.659-15.944-46.671-35.65-65.236-58.402-9.214-11.396-17.578-23.454-25.024-36.076l-5.395-9.576c-1.697-3.241-3.294-6.539-4.941-9.808-1.647-3.27-3.079-6.642-4.573-9.972l-2.211-5.029c-.729-1.685-1.318-3.417-1.997-5.131-1.266-3.421-2.698-6.793-3.837-10.272l-3.419-10.438c-1.985-7.039-4.047-14.075-5.548-21.271-6.347-28.631-8.267-58.066-5.693-87.279 2.676-29.187 9.853-57.784 21.278-84.775l2.093-5.085 1.094-2.513 1.2-2.466 4.814-9.855c3.539-6.397 6.957-12.879 10.925-19.015 1.967-3.158 3.834-6.232 5.967-9.192 2.133-2.959 4.165-6.108 6.276-8.988l6.732-8.728c1.085-1.487 2.266-2.889 3.475-4.266l3.571-4.181c4.683-5.644 9.708-10.982 14.495-16.384l14.592-16.299 29.17-32.584 116.901-130.1385.464.4155-160.432 179.203c-4.888 5.46-9.858 10.847-14.456 16.395l-3.571 4.181c-1.222 1.365-2.444 2.73-3.475 4.266l-6.643 8.684c-2.185 2.962-4.16 5.965-6.24 8.948-2.08 2.982-4.011 6.073-5.928 9.176-3.957 6.122-7.324 12.575-10.838 18.946l-4.79 9.827-1.188 2.453-1.068 2.511-2.081 5.072c-22.85 54.086-28.175 113.973-15.227 171.243 1.472 7.146 3.531 14.129 5.527 21.129l3.391 10.413c1.126 3.467 2.557 6.814 3.835 10.22.665 1.702 1.266 3.421 1.993 5.08l2.196 4.991c1.507 3.316 2.875 6.705 4.571 9.92s3.241 6.516 4.924 9.744l5.378 9.512c7.426 12.524 15.759 24.488 24.932 35.796 18.502 22.566 40.372 42.145 64.839 58.048 12.25 7.87 25.059 14.834 38.325 20.835l10.047 4.297c3.394 1.317 6.823 2.542 10.228 3.82s6.901 2.318 10.363 3.45l5.202 1.633c1.744.552 3.518.96 5.282 1.433 3.514.883 7.011 1.948 10.581 2.685l10.71 2.211c7.177 1.212 14.345 2.49 21.609 3.165 58.348 6.558 117.284-5.334 168.522-34.005l4.812-2.627 2.364-1.351 2.307-1.451 9.24-5.843c5.958-4.183 11.987-8.253 17.636-12.86 2.936-2.29 5.761-4.457 8.468-6.903 2.706-2.447 5.538-4.731 8.218-7.176l7.886-7.572c1.345-1.255 2.608-2.583 3.857-3.924l3.775-3.997c5.093-5.277 9.777-10.921 14.689-16.188l160.444-179.216z"/><path d="m889.852 410.12-113.153 126.806-28.34 31.655-14.176 15.835c-4.729 5.282-9.339 10.623-14.258 15.761l-3.652 3.886c-1.222 1.365-2.426 2.574-3.735 3.788l-7.675 7.392c-2.617 2.402-5.346 4.681-8.007 7.02-2.66 2.34-5.443 4.57-8.229 6.748-5.512 4.509-11.403 8.481-17.197 12.589l-9 5.714-2.245 1.408-2.328 1.31-4.629 2.643c-49.989 28.06-107.511 39.76-164.491 33.458-7.08-.634-14.091-1.894-21.097-3.051l-10.381-2.138c-3.516-.688-6.896-1.747-10.342-2.594-13.752-3.687-27.195-8.445-40.205-14.23-12.974-5.849-25.505-12.637-37.491-20.31-23.962-15.486-45.348-34.632-63.379-56.741-8.955-11.071-17.084-22.786-24.319-35.051-7.191-12.28-13.401-25.108-18.573-38.365-1.236-3.344-2.636-6.615-3.732-10.006l-3.269-10.082c-1.936-6.848-3.935-13.679-5.371-20.645-12.565-55.964-7.267-114.46 15.149-167.255l2.104-4.904 1.058-2.446 1.153-2.386 4.687-9.575c3.432-6.224 6.73-12.517 10.617-18.48 1.858-3.009 3.701-6.056 5.786-8.935 2.086-2.879 3.997-5.865 6.096-8.732l6.501-8.443c1.099-1.475 2.195-2.781 3.366-4.117l3.461-4.058c4.551-5.467 9.447-10.552 14.094-15.908l14.176-15.834 28.34-31.656 113.563-126.438.505.4522-155.923 174.1658c-4.717 5.269-9.542 10.466-14.055 15.919l-3.436 4.03c-1.222 1.366-2.358 2.635-3.34 4.117l-6.463 8.427c-2.087 2.853-4.039 5.803-6.059 8.691-2.021 2.888-3.904 5.899-5.748 8.92-3.85 5.948-7.123 12.214-10.531 18.41l-4.65 9.534-1.152 2.386-1.047 2.432-2.091 4.891c-22.182 52.527-27.344 110.686-14.761 166.299 1.435 6.941 3.431 13.72 5.364 20.516l3.293 10.055c1.058 3.406 2.493 6.609 3.728 9.928 5.166 13.172 11.359 25.919 18.52 38.122 7.215 12.166 15.312 23.788 24.226 34.77 17.969 21.924 39.213 40.943 62.983 56.386 11.898 7.65 24.341 14.417 37.229 20.247 12.918 5.773 26.269 10.523 39.931 14.207 3.434.861 6.825 1.88 10.277 2.61l10.357 2.166c6.968 1.172 13.94 2.421 20.982 3.07 56.661 6.378 113.897-5.162 163.66-32.997l4.63-2.617 2.316-1.296 2.231-1.421 8.977-5.66c5.783-4.07 11.65-8.014 17.138-12.495 2.786-2.178 5.585-4.344 8.218-6.708 2.633-2.365 5.365-4.592 7.97-6.98l7.665-7.352c1.345-1.255 2.51-2.475 3.722-3.774l3.628-3.86c4.922-5.085 9.528-10.478 14.286-15.711l155.874-174.111z"/><path d="m883.886 404.78-109.794 123.025-27.509 30.727-13.76 15.371c-4.583 5.119-9.07 10.323-13.856 15.285l-3.528 3.776c-1.149 1.283-2.298 2.566-3.624 3.69l-7.453 7.172c-2.531 2.333-5.186 4.53-7.772 6.814-2.586 2.283-5.296 4.431-8.007 6.553-5.338 4.369-11.054 8.228-16.637 12.156l-8.738 5.53-2.18 1.392-2.356 1.506-4.504 2.559c-48.519 27.223-104.343 38.575-159.642 32.463-6.832-.608-13.673-1.839-20.482-2.968l-10.148-2.125c-3.373-.709-6.685-1.707-10.027-2.534-13.352-3.572-26.401-8.191-39.026-13.815-12.61-5.68-24.788-12.276-36.435-19.733-23.258-15.034-44.017-33.619-61.523-55.078-8.705-10.745-16.607-22.118-23.639-34.025-6.97-11.929-12.994-24.385-18.019-37.254-1.204-3.242-2.56-6.424-3.611-9.701l-3.229-9.825c-1.896-6.616-3.834-13.269-5.221-20.043-5.98-27.004-7.79-54.764-5.366-82.316 2.495-27.545 9.24-54.538 19.996-80.019l2.047-4.758 1.023-2.379 1.13-2.333 4.547-9.283c3.325-6.048 6.529-12.155 10.249-17.875 1.796-2.94 3.593-5.881 5.617-8.692 2.025-2.811 3.89-5.69 5.929-8.463l6.307-8.198c1.026-1.394 2.134-2.713 3.269-4.009l3.351-3.935c4.403-5.303 9.177-10.251 13.678-15.443l13.761-15.371 27.508-30.727 110.177-122.6829.559.5009-151.156 168.842c-4.583 5.119-9.26 10.179-13.639 15.455l-3.339 3.921c-1.136 1.27-2.217 2.614-3.23 3.994l-6.283 8.171c-2.014 2.771-3.906 5.626-5.865 8.446s-3.797 5.724-5.595 8.639c-3.716 5.772-6.909 11.865-10.235 17.888l-4.497 9.253-1.131 2.307-1.023 2.379-2.022 4.731c-21.538 50.99-26.554 107.448-14.342 161.437 1.37 6.71 3.331 13.31 5.214 19.914l3.226 9.773c1.062 3.263 2.417 6.419 3.635 9.673 5.015 12.778 11.022 25.144 17.965 36.986 7.004 11.809 14.865 23.087 23.52 33.745 17.435 21.281 38.054 39.741 61.127 54.724 11.547 7.428 23.623 13.999 36.132 19.659 12.54 5.596 25.497 10.207 38.753 13.791 3.328.815 6.614 1.815 10.015 2.548l10.069 2.129c6.758 1.132 13.557 2.3 20.354 2.975 55.005 6.188 110.567-5.018 158.873-32.044l4.479-2.532 2.252-1.279 2.182-1.366 8.688-5.501c5.621-3.944 11.325-7.789 16.65-12.144 2.699-2.109 5.426-4.193 7.984-6.501 2.559-2.308 5.217-4.453 7.735-6.772l7.443-7.133c1.246-1.171 2.449-2.405 3.599-3.663l3.53-3.75c4.761-4.934 9.165-10.238 13.857-15.259l151.304-169.006z"/><path d="m877.922 399.44-106.533 119.354-26.678 29.799-13.345 14.907c-4.448 4.968-8.789 10.009-13.427 14.833l-3.43 3.666c-1.112 1.243-2.224 2.485-3.514 3.568l-7.232 6.952c-2.456 2.277-5.024 4.404-7.535 6.632s-5.121 4.292-7.759 6.332c-5.176 4.244-10.73 8.002-16.187 11.846l-8.475 5.373-2.118 1.349-2.189 1.237-4.353 2.473c-47.062 26.427-101.222 37.442-154.868 31.499-6.677-.617-13.213-1.722-19.881-2.872l-9.832-2.064c-3.281-.675-6.488-1.653-9.737-2.447-12.944-3.473-25.595-7.958-37.837-13.414-12.221-5.503-24.023-11.893-35.311-19.12-22.553-14.584-42.685-32.607-59.666-53.416-8.431-10.427-16.087-21.456-22.908-33.001-6.767-11.564-12.611-23.645-17.476-36.13-1.173-3.14-2.485-6.233-3.53-9.406l-3.122-9.533c-1.774-6.506-3.709-12.887-5.045-19.443-11.839-52.663-6.858-107.713 14.241-157.396l1.964-4.611.988-2.312 1.108-2.254 4.406-9.015c3.219-5.848 6.343-11.781 9.99-17.394 1.751-2.834 3.5-5.694 5.465-8.411s3.743-5.527 5.735-8.219l6.112-7.954c1.003-1.34 2.074-2.619 3.173-3.873l3.253-3.826c4.283-5.141 8.896-9.938 13.263-14.98l13.345-14.906 26.677-29.799 106.888-119.0367.614.55-146.732 163.9007c-4.437 4.955-8.979 9.864-13.238 14.978l-3.228 3.799c-1.112 1.242-2.224 2.484-3.147 3.872l-6.062 7.925c-1.98 2.679-3.811 5.466-5.711 8.192-1.899 2.726-3.689 5.549-5.414 8.382-3.623 5.585-6.708 11.504-9.929 17.326l-4.369 8.973-1.082 2.253-.99 2.286-1.952 4.598c-20.894 49.439-25.76 104.185-13.912 156.534 1.346 6.517 3.217 12.888 5.062 19.287l3.119 9.481c1.031 3.161 2.343 6.228 3.514 9.342 4.849 12.402 10.68 24.397 17.436 35.873 6.796 11.442 14.416 22.374 22.801 32.708 16.92 20.621 36.91 38.518 59.27 53.062 11.194 7.199 22.899 13.568 35.022 19.058 12.15 5.45 24.715 9.923 37.576 13.377 3.224.821 6.417 1.786 9.673 2.462l9.767 2.056c6.561 1.103 13.113 2.272 19.74 2.918 26.548 2.962 53.393 1.833 79.599-3.348 26.128-5.292 51.279-14.595 74.561-27.58l4.354-2.447 2.164-1.235 2.119-1.324 8.438-5.332c5.445-3.83 10.974-7.561 16.126-11.777 2.625-2.027 5.263-4.067 7.735-6.305 2.471-2.239 5.068-4.316 7.526-6.566l7.195-6.912c1.223-1.118 2.362-2.336 3.502-3.554l3.419-3.627c4.627-4.784 8.897-9.938 13.442-14.795l146.757-163.928z"/><path d="m871.929 394.075-103.223 115.63-25.846 28.87-12.93 14.443c-4.314 4.818-8.459 9.64-13.011 14.368-2.259 2.331-4.327 4.832-6.723 7.015l-7.011 6.732c-2.383 2.195-4.876 4.266-7.3 6.424s-4.973 4.155-7.536 6.139c-5.003 4.104-10.38 7.749-15.688 11.481l-8.199 5.201c-1.351.905-2.746 1.722-4.168 2.515l-4.228 2.387c-45.598 25.56-98.051 36.213-150.008 30.465-6.469-.603-12.887-1.701-19.266-2.789l-9.518-2.004c-3.176-.655-6.29-1.599-9.448-2.384-12.537-3.359-24.791-7.701-36.645-12.987-11.847-5.325-23.283-11.519-34.215-18.532-10.852-7.139-21.191-15.031-30.94-23.617-9.602-8.75-18.584-18.156-26.883-28.149-8.163-10.094-15.575-20.774-22.176-31.952-6.564-11.204-12.235-22.908-16.959-35.004-1.129-3.051-2.397-6.03-3.397-9.115l-3.043-9.265c-1.785-6.246-3.595-12.465-4.893-18.816-11.453-51.008-6.65-104.322 13.735-152.463l1.933-4.466c.605-1.5 1.276-2.964 2.013-4.419l4.279-8.735c3.126-5.662 6.142-11.421 9.67-16.844 1.703-2.755 3.379-5.533 5.284-8.155 1.905-2.623 3.648-5.366 5.567-7.976l5.932-7.698c1.933-2.598 4.15-4.965 6.218-7.467 4.148-4.991 8.615-9.623 12.847-14.515l12.93-14.443 25.847-28.87 103.55-115.3365.655.5866-142.163 158.7959c-4.301 4.805-8.697 9.55-12.808 14.526-2.043 2.474-4.301 4.805-6.18 7.426l-5.883 7.669c-1.906 2.597-3.69 5.303-5.53 7.935-1.839 2.632-3.556 5.374-5.233 8.126-3.516 5.41-6.508 11.142-9.609 16.776l-4.242 8.694c-.725 1.442-1.397 2.906-2.002 4.405l-1.908 4.44c-20.232 47.892-24.947 100.921-13.483 151.632 1.309 6.311 3.131 12.516 4.888 18.712l3.038 9.187c.999 3.059 2.279 6.024 3.393 9.038 4.704 12.015 10.345 23.642 16.869 34.775 6.574 11.094 13.951 21.693 22.071 31.711 16.385 19.98 35.75 37.317 57.414 51.4 10.852 6.967 22.199 13.131 33.95 18.442 11.784 5.258 23.962 9.583 36.422 12.934 3.118.775 6.207 1.721 9.357 2.377l9.466 2.007c6.393 1.1 12.761 2.227 19.137 2.796 51.665 5.806 103.851-4.724 149.223-30.11l4.202-2.386c1.423-.767 2.805-1.596 4.158-2.475l8.173-5.175c5.272-3.69 10.625-7.308 15.629-11.386 2.537-1.983 5.102-3.941 7.486-6.11s4.906-4.19 7.277-6.371l6.974-6.691c2.371-2.181 4.479-4.646 6.714-6.949 4.479-4.646 8.683-9.563 13.012-14.344l142.163-158.795z"/><path d="m865.99 388.759-99.912 111.904-25.015 27.943-12.514 13.978c-4.168 4.654-8.253 9.382-12.596 13.904-2.185 2.249-4.192 4.682-6.515 6.783l-6.776 6.525c-2.322 2.126-4.714 4.14-7.078 6.204-2.365 2.064-4.812 4.028-7.275 5.955-4.866 3.98-10.07 7.485-15.189 11.116l-7.948 5.032c-1.315.864-2.646 1.664-4.032 2.416l-4.101 2.329c-21.941 12.289-45.654 21.106-70.294 26.137-24.668 4.954-49.95 6.098-74.964 3.39-6.198-.63-12.445-1.673-18.626-2.707l-9.215-1.93c-3.085-.647-6.039-1.496-9.146-2.31-12.136-3.255-23.999-7.454-35.48-12.558-11.46-5.171-22.528-11.168-33.118-17.944-21.149-13.688-40.032-30.593-55.967-50.105-7.902-9.778-15.083-20.118-21.484-30.938-6.341-10.848-11.822-22.176-16.391-33.881-1.097-2.949-2.321-5.84-3.29-8.822l-2.948-8.959c-1.696-6.043-3.482-12.069-4.731-18.228-11.091-49.389-6.43-101.011 13.328-147.614l1.863-4.333c.608-1.448 1.243-2.871 1.957-4.273l4.139-8.442c3.031-5.5 5.941-11.059 9.374-16.322 1.63-2.672 3.272-5.358 5.104-7.898 1.832-2.541 3.529-5.178 5.386-7.72l5.738-7.453c1.873-2.504 4.03-4.803 6.024-7.223 4.016-4.815 8.347-9.323 12.514-13.978l12.514-13.978 25.015-27.942 100.213-111.6357.71.6355-137.592 153.6902c-4.167 4.655-8.429 9.25-12.406 14.05-1.982 2.406-4.155 4.641-5.973 7.194l-5.702 7.413c-1.845 2.528-3.557 5.127-5.35 7.678-1.792 2.551-3.435 5.211-5.079 7.871-3.383 5.234-6.269 10.766-9.313 16.254l-4.089 8.413c-.714 1.402-1.349 2.825-1.945 4.259l-1.838 4.306c-19.569 46.346-24.134 97.657-13.053 146.729 1.297 6.079 3.031 12.107 4.738 18.111l2.93 8.869c.981 2.969 2.176 5.809 3.287 8.771 4.555 11.615 10.017 22.854 16.338 33.611 6.364 10.735 13.506 20.991 21.366 30.686 15.85 19.338 34.59 36.114 55.557 49.737 10.5 6.746 21.481 12.714 32.853 17.855 11.388 5.096 23.16 9.287 35.207 12.534 3.039.753 6.034 1.665 9.08 2.301l9.151 1.947c6.142 1.023 12.288 2.123 18.509 2.7 24.899 2.778 50.077 1.714 74.653-3.152 24.509-4.979 48.098-13.723 69.93-25.923l4.077-2.301c1.373-.738 2.704-1.538 4.019-2.402l7.911-4.992c5.109-3.591 10.275-7.081 15.129-11.047 2.476-1.914 4.94-3.815 7.263-5.916s4.733-4.05 7.042-6.163l6.753-6.471c2.282-2.138 4.305-4.507 6.478-6.742 4.333-4.482 8.334-9.31 12.611-13.867l137.543-153.636z"/><path d="m860.026 383.419-96.589 108.191-24.185 27.014-12.098 13.514c-4.033 4.505-7.971 9.069-12.18 13.441-2.098 2.179-4.045 4.518-6.343 6.617l-6.554 6.305c-2.234 2.057-4.566 4.002-6.844 5.997-2.277 1.994-4.663 3.89-7.051 5.761-4.692 3.84-9.721 7.233-14.678 10.737l-7.684 4.875c-2.515 1.683-5.215 3.078-7.857 4.574-42.681 23.961-91.798 33.945-140.447 28.548-6.075-.521-12.039-1.606-18.024-2.611l-8.914-1.882c-2.979-.601-5.882-1.478-8.829-2.224-11.739-3.147-23.213-7.212-34.316-12.155-11.082-4.986-21.78-10.783-32.008-17.343-20.452-13.228-38.71-29.573-54.11-48.443-7.641-9.448-14.581-19.442-20.765-29.902-6.137-10.49-11.441-21.446-15.863-32.767-1.052-2.835-2.287-5.687-3.184-8.53l-2.852-8.653c-1.633-5.839-3.357-11.661-4.582-17.626-10.724-47.764-6.21-97.687 12.91-142.752 1.236-2.754 2.298-5.615 3.68-8.312l3.998-8.175c2.937-5.314 5.755-10.685 9.055-15.772 1.596-2.579 3.178-5.171 4.949-7.643 1.77-2.473 3.421-5.003 5.219-7.451l5.544-7.209c1.812-2.436 3.895-4.653 5.865-7.045 3.881-4.665 8.066-9.01 12.098-13.514l12.099-13.514 24.184-27.015 96.875-107.9344.751.6722-133.034 148.5992c-4.02 4.491-8.065 9.009-11.99 13.585-1.909 2.325-4.021 4.491-5.779 6.95l-5.494 7.181c-1.786 2.434-3.45 4.952-5.169 7.421-1.719 2.47-3.343 5.025-4.913 7.603-3.275 5.06-6.068 10.404-8.981 15.69l-3.962 8.134c-1.383 2.671-2.448 5.481-3.656 8.259-18.911 44.826-23.306 94.45-12.567 141.902 1.173 5.969 2.93 11.698 4.574 17.497l2.836 8.589c.936 2.854 2.128 5.643 3.179 8.453 4.392 11.24 9.675 22.111 15.797 32.511 6.147 10.375 13.048 20.285 20.647 29.649 15.316 18.697 33.43 34.913 53.7 48.076 10.149 6.524 20.764 12.295 31.758 17.266 11.011 4.923 22.393 8.971 34.04 12.106 2.922.747 5.812 1.612 8.752 2.228l8.849 1.872c5.945.995 11.895 2.068 17.894 2.618 48.329 5.439 97.147-4.41 139.586-28.163 2.601-1.532 5.304-2.875 7.807-4.544l7.647-4.835c4.933-3.477 9.937-6.842 14.619-10.643 2.375-1.857 4.765-3.701 7.014-5.72 2.25-2.019 4.571-3.924 6.808-5.955l6.517-6.264c2.209-2.056 4.171-4.357 6.271-6.51 4.184-4.345 8.065-9.009 12.181-13.415l133.034-148.599z"/><path d="m854.06 378.078-93.278 104.466-23.353 26.086-11.683 13.05c-3.899 4.355-7.691 8.755-11.751 12.989-2.038 2.111-3.911 4.368-6.086 6.331l-6.333 6.085c-2.16 2-4.405 3.876-6.595 5.801s-4.502 3.765-6.816 5.554c-4.531 3.714-9.396 7.007-14.193 10.36l-7.421 4.717c-2.44 1.627-5.031 2.874-7.593 4.416-20.486 11.48-42.63 19.712-65.641 24.401-23.033 4.628-46.638 5.697-69.994 3.168-5.843-.534-11.622-1.576-17.41-2.528l-8.611-1.808c-2.862-.594-5.672-1.438-8.527-2.149-11.33-3.053-22.406-6.983-33.126-11.754-10.704-4.817-21.039-10.413-30.924-16.742-19.748-12.777-37.378-28.561-52.254-46.781-7.387-9.119-14.092-18.77-20.059-28.876-5.927-10.13-11.05-20.711-15.321-31.643-1.02-2.733-2.169-5.433-3.076-8.238l-2.758-8.346c-1.584-5.647-3.231-11.278-4.431-17.025-5.06-22.927-6.577-46.495-4.498-69.881 2.133-23.387 7.874-46.302 17.018-67.931 1.189-2.674 2.192-5.415 3.553-8.034l3.871-7.895c2.818-5.125 5.554-10.323 8.733-15.248 1.536-2.485 3.046-4.995 4.783-7.374 1.736-2.38 3.286-4.853 5.025-7.207l5.35-6.965c1.752-2.341 3.762-4.476 5.622-6.746 3.76-4.503 7.784-8.695 11.682-13.05l11.683-13.05 23.354-26.086 93.537-104.2339.805.721-128.45 143.4799c-3.887 4.341-7.867 8.622-11.589 13.11-1.835 2.242-3.886 4.34-5.572 6.717l-5.313 6.924c-1.712 2.352-3.317 4.777-4.988 7.166-1.672 2.389-3.21 4.848-4.746 7.333-3.155 4.898-5.854 10.055-8.66 15.167l-3.809 7.852c-1.336 2.591-2.301 5.317-3.529 7.98-18.268 43.252-22.528 91.14-12.18 136.937 1.171 5.697 2.83 11.288 4.411 16.884l2.741 8.282c.906 2.779 2.053 5.453 3.073 8.186 4.253 10.841 9.349 21.331 15.241 31.375 5.935 10.018 12.6 19.586 19.942 28.624 14.807 18.048 32.302 33.71 51.872 46.438 9.792 6.301 20.035 11.871 30.647 16.666 10.636 4.754 21.628 8.667 32.876 11.703 2.816.701 5.6 1.546 8.462 2.14l8.534 1.812c5.735.955 11.476 1.987 17.348 2.597 23.189 2.54 46.629 1.516 69.508-3.038 22.863-4.642 44.87-12.796 65.239-24.171 2.514-1.462 5.141-2.775 7.556-4.375l7.372-4.663c4.758-3.364 9.6-6.603 14.12-10.278 2.301-1.801 4.616-3.564 6.766-5.525 2.149-1.961 4.436-3.774 6.572-5.748l6.296-6.044c2.136-1.974 4.036-4.206 6.063-6.277 4.05-4.195 7.784-8.696 11.766-12.951l128.451-143.48z"/></g></svg>