<svg fill="none" height="615" viewBox="0 0 211 615" width="211" xmlns="http://www.w3.org/2000/svg"><g fill="#b4fbf7"><path d="m-274.211.642286 157.024 20.446814 39.2356 5.2671 19.6245 2.6345 14.7184 1.9759 4.8902.7772 4.902.7935c1.6445.2208 3.2753.4399 4.886.9124l9.7069 2.102c3.2159.7784 6.3943 1.7324 9.5865 2.583 1.59703.4706 3.20794.8376 4.78133 1.3804l4.712369 1.5824c6.350711 1.9528 12.476901 4.5388 18.589701 7.0174l9.082 4.1584 2.2735 1.0437 2.2164 1.1568 4.4309 2.328 4.4309 2.3281 4.3305 2.5559 4.3168 2.5542 2.1575 1.2843 2.1024 1.3826 8.3899 5.573 8.1227 6.0042c10.6983 8.2194 20.8075 17.284 30.247 27.1219 18.799 19.829 34.604 42.712 46.864 67.848 3.138 6.24 5.796 12.731 8.509 19.23l3.684 9.87c.651 1.595 1.143 3.334 1.686 5.004l1.625 5.042c.514 1.681 1.1 3.343 1.568 5.049l1.392 5.115c.936 3.427 1.879 6.794 2.624 10.286.745 3.491 1.555 6.916 2.26 10.387l1.826 10.509c2.151 14.093 3.336 28.358 3.548 42.681.329 28.656-3.514 57.283-11.389 84.838-3.97 13.763-8.876 27.211-14.679 40.233l-4.519 9.658c-1.598 3.177-3.285 6.281-4.936 9.436s-3.464 6.167-5.229 9.231l-2.692 4.568c-.902 1.521-1.905 2.969-2.858 4.454l-2.882 4.422c-.966 1.483-1.907 2.984-2.959 4.38l-6.158 8.564c-4.304 5.451-8.59 11.086-13.267 16.306-18.4318 21.043-39.6931 38.979-63.0422 53.185-11.6995 7-23.8414 13.078-36.32869 18.185l-9.41869 3.649-9.56272 3.163-2.3925.779-2.4198.67-4.8376 1.325-4.8514 1.323-4.888 1.077-4.886 1.063-2.4451.546-2.4681.407-9.8672 1.69c-6.6126.725-13.2039 1.604-19.7823 1.866l-4.9628.283c-1.6608.109-3.3115.038-4.9741.056-3.3056-.007-6.6211.061-9.9284-.036l-9.9194-.518c-1.667-.058-3.305-.218-4.954-.409l-4.936-.542-4.924-.525-14.8-1.987-19.625-2.635-39.235-5.267-156.86-21.676.02-.148 230.506 30.945 4.924.525 4.924.525c1.631.219 3.273.349 4.926.406l9.8786.512c3.3093.082 6.6131-.002 9.9167.02 1.6508-.035 3.3015.036 4.9487-.075l4.9491-.285c6.6155-.227 13.1794-1.109 19.7822-1.866l9.8261-1.695 2.4565-.424 2.443-.531 4.8743-1.079 4.8587-1.067 4.8239-1.327 4.8259-1.341 2.4178-.655 2.3789-.781 9.53144-3.243 9.37758-3.655c12.42848-5.1 24.51278-11.166 36.15628-18.147 23.2604-14.266 44.4177-32.259 62.7293-53.347 4.655-5.163 8.902-10.713 13.198-16.21l6.111-8.525c1.048-1.367 1.977-2.885 2.928-4.355l2.882-4.421c.937-1.472 1.927-2.922 2.826-4.429l2.677-4.554c1.803-3.044 3.601-6.043 5.198-9.205 1.596-3.162 3.306-6.234 4.886-9.383l4.5-9.721c5.738-12.947 10.6-26.309 14.547-39.979 7.755-27.429 11.576-55.892 11.33-84.394-.205-14.227-1.37-28.399-3.488-42.401l-1.807-10.447c-.692-3.469-1.502-6.894-2.237-10.354s-1.706-6.831-2.588-10.235l-1.38-5.099c-.471-1.691-1.043-3.351-1.573-5.019l-1.599-5.023c-.53-1.669-1.03-3.349-1.677-4.973l-3.658-9.852c-2.686-6.389-5.244-12.898-8.443-19.1-12.142-25.071-27.822-47.906-46.4923-67.708-9.3932-9.8053-19.4489-18.8475-30.0881-27.0557l-8.0836-5.9838-8.3389-5.6413-2.0887-1.3807-2.1574-1.2843-4.3032-2.5523-4.3031-2.5523-4.4035-2.3244-4.4192-2.3114-2.2144-1.1716-2.2597-1.0419-9.041-4.1528c-6.1578-2.4546-12.25661-5.0368-18.589674-7.0174l-4.698636-1.5806c-1.55767-.5558-3.1706-.908-4.75393-1.3768-3.19026-.8653-6.35496-1.8175-9.57086-2.5959l-9.6638-2.1113c-1.6069-.3966-3.2318-.6599-4.8586-.9084l-4.8883-.792-4.8862-.8068-230.4779-30.940552z"/><path d="m-275.082 7.11369 153.293 19.97601 38.3036 5.1421 19.186 2.5756 14.3621 1.928 4.7806.7622 4.7923.7791c1.6034.2152 3.1832.5025 4.7647.8807l9.4896 2.0577c3.1337.7673 6.2318 1.6959 9.3575 2.5224 1.5579.4504 3.1414.8136 4.6737 1.3509l4.60675 1.5377c6.18824 1.916 12.16964 4.4375 18.21005 6.831l8.8708 4.0697 2.2069 1.0197 2.1636 1.1346 4.3429 2.2562c11.5373 6.0847 22.5861 13.1625 33.0411 21.1662 10.4402 8.0294 20.3074 16.8801 29.5233 26.4825 18.3405 19.38 33.7455 41.748 45.6745 66.317 3.076 6.08 5.67 12.428 8.311 18.736l3.602 9.648c1.206 3.176 2.137 6.527 3.233 9.794.514 1.576 1.082 3.265 1.543 4.925l1.351 5.004c.877 3.344 1.898 6.646 2.559 10.036.661 3.389 1.52 6.76 2.209 10.154l1.777 10.247c2.097 13.736 3.257 27.64 3.47 41.599.321 28.007-3.434 55.984-11.131 82.914-3.883 13.412-8.673 26.517-14.332 39.209l-4.405 9.432c-1.573 3.09-3.208 6.126-4.82 9.196-1.612 3.069-3.39 6.026-5.117 9.02l-2.621 4.456c-.871 1.496-1.786 2.911-2.79 4.359-1.903 2.849-3.683 5.821-5.702 8.594l-6.005 8.358c-4.234 5.461-8.4279 10.822-12.9576 15.881-17.9993 20.538-38.7558 38.048-61.5477 51.923-11.4206 6.829-23.27232 12.759-35.46033 17.744-12.19587 4.978-24.72597 8.891-37.46737 11.701l-4.7724 1.047-2.3862.524-2.3977.401-9.6301 1.587c-6.4479.641-12.8924 1.57-19.3669 1.786l-4.8492.268c-1.6197.114-3.241.032-4.8625.056-3.2351-.012-6.4683.066-9.6934-.02l-9.6966-.518c-1.625-.052-3.221-.222-4.828-.407l-4.828-.513-4.813-.525-14.375-1.93-19.186-2.576-38.304-5.142-153.134-21.16.026-.193 153.214 20.569 71.824 9.642 4.8.509 4.801.508c1.603.216 3.205.34 4.817.391l9.6979.503c3.2232.101 6.4447.006 9.6777.033 1.6098-.04 3.2174.04 4.8234-.076l4.8376-.285c6.447-.22 12.868-1.076 19.2984-1.796l9.5889-1.591 2.3977-.402 2.3725-.526 4.7587-1.049c12.6794-2.829 25.1484-6.745 37.28725-11.71 12.13371-4.985 23.93265-10.907 35.30355-17.719 22.6751-13.846 43.3175-31.311 61.2087-51.788 4.5394-5.028 8.6857-10.455 12.8797-15.816l5.962-8.243c1.987-2.748 3.767-5.719 5.656-8.571.912-1.385 1.904-2.849 2.772-4.33l2.606-4.444c1.711-2.98 3.579-5.88 5.07-8.981 1.49-3.101 3.229-6.078 4.786-9.155l4.372-9.391c5.609-12.632 10.358-25.672 14.208-39.015 7.577-26.782 11.309-54.578 11.063-82.41-.193-13.886-1.335-27.717-3.415-41.381l-1.74-10.212c-.691-3.379-1.469-6.724-2.203-10.093-.733-3.369-1.657-6.674-2.522-10l-1.341-4.973c-.447-1.658-1.026-3.273-1.532-4.909-1.07-3.249-2.008-6.555-3.196-9.759l-3.576-9.524c-2.63-6.291-5.2-12.605-8.251-18.667-11.862-24.463-27.168-46.748-45.3849-66.083-9.1636-9.579-18.9837-18.4038-29.3804-26.4021-10.3961-7.9963-21.3913-15.0626-32.8787-21.1296l-4.3134-2.2675-2.15-1.1324-2.2069-1.0197-8.8296-4.0645c-6.02294-2.3158-11.98077-4.9092-18.13963-6.8362l-4.59297-1.5362c-1.5186-.5355-3.0904-.8821-4.6326-1.3454-3.1237-.8414-6.2082-1.7677-9.3419-2.5351l-9.4876-2.0725c-1.5678-.3763-3.1515-.6344-4.7509-.8792l-4.765-.7751-4.7649-.7754-225.0236-30.20838z"/><path d="m-275.95 13.5831 149.561 19.5053 37.372 5.017 18.6926 2.5094c6.2355.837 12.4614 1.5373 18.6768 2.6279l4.6709.7474c1.5623.2097 3.1246.4196 4.6551.8663l9.2449 2.0098c3.0671.7433 6.085 1.6456 9.1422 2.463 1.5031.4429 3.0475.7862 4.5406 1.3032l4.4991 1.5081c6.04148 1.8662 11.88984 4.3396 17.77181 6.6666l8.64769 3.9643 2.1678.9993 2.1108 1.1125 4.2235 2.2101c11.2638 5.9278 22.0471 12.8345 32.2451 20.6527 10.1858 7.836 19.8162 16.468 28.8157 25.829 17.8845 18.94 32.9114 40.782 44.5574 64.766 2.998 5.934 5.516 12.12 8.106 18.286l3.508 9.409c1.165 3.171 2.097 6.311 3.154 9.558.5 1.574 1.055 3.156 1.502 4.814l1.312 4.878c.861 3.251 1.838 6.472 2.493 9.801.656 3.329 1.489 6.576 2.174 9.893l1.725 10.014c2.056 13.397 3.187 26.96 3.384 40.578.315 27.301-3.346 54.574-10.851 80.826-3.789 13.086-8.458 25.874-13.968 38.263l-4.318 9.203c-1.52 3.006-3.132 5.97-4.692 8.971-1.561 3.001-3.3 5.873-4.99 8.796l-2.552 4.36c-.857 1.393-1.768 2.778-2.721 4.157-1.85 2.766-3.554 5.688-5.564 8.402l-5.8657 8.151c-4.1091 5.251-8.185 10.568-12.6401 15.486-17.5473 20.071-37.7996 37.178-60.0472 50.723-11.1475 6.667-22.71461 12.459-34.60961 17.33-11.90069 4.845-24.12329 8.663-36.55029 11.417l-4.6568 1.018-2.3294.516-2.3527.378-9.3871 1.543c-6.2834.664-12.581 1.537-18.9008 1.743l-4.7376.269c-1.5786.12-3.1588.043-4.7234.059-3.1646-.018-6.3293.07-9.4703-.02l-9.448-.5c-1.582-.061-3.152-.212-4.718-.392l-4.703-.511c-6.281-.602-12.457-1.672-18.709-2.391l-18.692-2.509-37.372-5.017-149.41-20.63.034-.252 205.564 27.596c6.221.835 12.441 1.79 18.696 2.374l4.691.494c1.549.208 3.111.418 4.692.389l9.408.479c3.141.09 6.2901.015 9.4429.017 1.5667-.031 3.1332.043 4.7098-.061l4.7102-.272c6.2943-.226 12.5585-1.058 18.8342-1.768l9.346-1.549 2.3409-.394 2.3137-.503 4.6452-1.035c12.381-2.749 24.5567-6.563 36.4092-11.406 11.82698-4.867 23.3273-10.648 34.4099-17.296 22.1194-13.505 42.2569-30.54 59.7119-50.512 4.4276-4.922 8.4721-10.212 12.5635-15.436l5.8206-8.127c1.96-2.751 3.673-5.536 5.523-8.302.898-1.387 1.85-2.766 2.693-4.16l2.535-4.332c1.674-2.911 3.45-5.747 4.956-8.755 1.506-3.009 3.141-5.939 4.661-8.946l4.269-9.149c5.466-12.328 10.098-25.051 13.858-38.067 7.395-26.128 11.035-53.244 10.793-80.397-.194-13.547-1.306-27.041-3.327-40.374l-1.706-9.951c-.673-3.301-1.434-6.569-2.137-9.858-.702-3.29-1.624-6.504-2.471-9.753l-1.303-4.847c-.445-1.567-.972-3.145-1.5-4.723-1.055-3.156-1.932-6.394-3.138-9.465l-3.471-9.374c-2.567-6.133-5.075-12.288-8.048-18.203-11.565-23.871-26.4974-45.615-44.2757-64.472-8.9368-9.335-18.5054-17.9446-28.6298-25.7591-10.1547-7.8019-20.8927-14.6974-32.11-20.6195l-4.2098-2.2082-2.0991-1.0954-2.1541-.9975-8.6066-3.9591c-5.8722-2.2956-11.68915-4.795-17.7012-6.6722l-4.4718-1.5045c-1.4931-.5169-3.0218-.8729-4.5386-1.3176-3.0298-.8138-6.0477-1.7164-9.1011-2.4579l-9.2018-2.0191c-1.5267-.3708-3.0831-.6248-4.6277-.8623l-4.6552-.7607c-6.188-1.087-12.4452-1.7613-18.659-2.6558l-205.5635-27.5959z"/><path d="m-276.817 20.0387 145.833 19.0194 36.4391 4.8918 18.2268 2.4468c6.0709.815 12.1441 1.5099 18.2107 2.5654l4.5613.7331c1.5212.2042 3.0324.4823 4.5337.8346l9.014 1.9637c2.9869.7174 5.9362 1.6109 8.9132 2.4024 1.4776.4244 2.9809.7619 4.4329 1.2733l4.3797 1.4623c5.8928 1.8311 11.5964 4.2397 17.33356 6.5021l8.43632 3.8759 2.10328.9606 2.05795 1.0902 4.13359 2.1524c10.9784 5.7851 21.4905 12.5191 31.4354 20.137 9.9382 7.6357 19.327 16.0603 28.0904 25.2043 17.4472 18.447 32.1031 39.732 43.4541 63.11 2.922 5.774 5.389 11.818 7.904 17.822l3.428 9.173c1.138 3.061 2.028 6.301 3.074 9.32.486 1.573.973 3.146 1.459 4.718l1.295 4.696c.849 3.128 1.795 6.27 2.429 9.55.634 3.281 1.454 6.421 2.109 9.644l1.689 9.768c2.001 13.086 3.105 26.332 3.301 39.632.305 26.621-3.265 53.214-10.58 78.812-3.692 12.778-8.245 25.265-13.624 37.361l-4.202 8.961c-1.484 2.951-3.059 5.845-4.58 8.761-1.522 2.916-3.225 5.732-4.862 8.572l-2.488 4.188c-.842 1.394-1.7675 2.777-2.6514 4.166-1.768 2.777-3.5359 5.554-5.4367 8.178l-5.7144 7.96c-4.009 5.129-7.9808 10.293-12.324 15.106-17.1208 19.55-36.8705 36.216-58.5602 49.415-10.86956 6.458-22.14582 12.063-33.739 16.769-11.6039 4.734-23.5251 8.457-35.647 11.132l-4.5432 1.002-2.2707.495-2.2841.386-9.1578 1.499c-6.1328.684-12.2697 1.503-18.4347 1.7l-4.6103.256c-1.5355.11-3.0745.039-4.6138.074-3.0807-.022-6.1587.047-9.2317-.034l-9.21-.498c-1.543-.041-3.07-.201-4.596-.376l-4.593-.495c-6.13-.582-12.155-1.632-18.242-2.329l-18.227-2.447-36.44-4.892-145.687-20.1.042-.311 200.425 26.906c6.071.815 12.128 1.734 18.233 2.297l4.566.492c1.521.205 3.028.407 4.581.374l9.172.478c3.058.079 6.137.01 9.1919.013 1.5373-.02 3.0763.051 4.5981-.061l4.5986-.272c6.1396-.216 12.2471-1.024 18.3661-1.71l9.1188-1.519 2.2821-.371 2.2589-.511 4.5276-.99c12.0604-2.692 23.9207-6.417 35.4668-11.141 11.54268-4.738 22.76664-10.369 33.5825-16.85 21.5722-13.163 41.2106-29.772 58.2309-49.248 4.3118-4.787 8.3091-9.933 12.2475-15.056l5.681-7.92c1.9008-2.623 3.52-5.436 5.3896-8.139.8703-1.39 1.768-2.777 2.6386-4.168l2.473-4.189c1.618-2.798 3.358-5.579 4.831-8.546 1.472-2.968 3.064-5.784 4.531-8.707l4.171-8.936c5.33-12.015 9.844-24.417 13.506-37.105 7.214-25.472 10.763-51.91 10.522-78.383-.185-13.21-1.268-26.367-3.239-39.368l-1.669-9.705c-.644-3.206-1.388-6.396-2.072-9.608-.685-3.212-1.592-6.333-2.408-9.502l-1.281-4.694c-.432-1.565-.973-3.145-1.446-4.716-.973-3.145-1.946-6.29-3.05-9.287l-3.391-9.138c-2.505-5.973-4.949-11.984-7.845-17.738-11.286-23.272-25.8479-44.472-43.1807-62.863-8.72-9.108-18.0616-17.5-27.9496-25.1102-9.8843-7.613-20.343-14.3349-31.273-20.0997l-4.10415-2.1639-2.04618-1.0736-2.10327-.9605-8.39528-3.8704c-5.70772-2.2735-11.38392-4.6785-17.26492-6.4929l-4.364-1.4753c-1.4383-.5096-2.9417-.847-4.4193-1.2715-2.9476-.8026-5.8989-1.6809-8.8701-2.4114l-8.9729-1.9581c-1.4993-.3671-3.0008-.6142-4.518-.848l-4.5319-.7438c-6.0392-1.0519-12.13-1.7189-18.1951-2.5783l-54.6666-7.3387-145.758-19.5674z"/><path d="m-277.687 26.5235 142.106 18.5045 35.508 4.7668 17.8154 2.3916c5.9203.7948 11.8427 1.4694 17.8017 2.4954l4.438.7161c1.4938.2006 2.9738.3995 4.424.8202l8.783 1.9177c2.9047.7064 5.7895 1.561 8.6842 2.3415 1.4366.4189 2.8987.7508 4.3253 1.2438l4.2721 1.4327c5.7323 1.7794 11.2931 4.1085 16.8815 6.3359l8.22902 3.7575 2.04843.9532 2.007103 1.0533 4.022137 2.0472c43.09621 22.8231 78.19281 59.7741 100.35611 105.6571 2.855 5.644 5.26 11.529 7.712 17.375l3.333 8.948c1.122 2.969 1.978 6.054 2.966 9.08.473 1.571.989 3.027 1.425 4.563l1.254 4.69c.808 3.123 1.74 6.157 2.356 9.36.617 3.203 1.425 6.22 2.058 9.41l1.639 9.505c1.941 12.734 3.009 25.622 3.194 38.563.294 25.941-3.185 51.854-10.31 76.799-3.597 12.436-8.026 24.592-13.253 36.37l-4.088 8.736c-1.453 2.819-2.9745 5.63-4.4666 8.534-1.4921 2.905-3.1385 5.608-4.742 8.407l-2.4463 4.194c-.8155 1.398-1.7541 2.673-2.5773 4.025-1.752 2.659-3.4298 5.388-5.2561 7.976l-5.575 7.753c-3.9205 4.99-7.7785 10.034-12.0197 14.71-33.4744 38.424-77.0762 64.817-124.6702 75.464l-4.4197.914-2.2138.487-2.2253.364-8.9307 1.469c-5.982.704-11.9502 1.41-17.9548 1.659l-4.4987.256c-1.5058.099-3.0038.033-4.4998.059-2.996-.026-6.007.053-8.995-.032l-8.975-.482c-1.5-.05-2.988-.19-4.484-.375l-4.47-.48c-5.966-.56-11.84-1.589-17.831-2.273l-17.816-2.392-35.508-4.766-141.961-19.586.048-.355 195.299 26.218c5.92.795 11.827 1.693 17.834 2.258l4.442.476c1.48.199 2.97.324 4.47.374l8.939.447c2.988.084 5.968.017 8.953.026 1.496-.025 2.994.04 4.4862-.061l4.485-.257c5.9712-.208 11.924-1.007 17.8745-1.685l8.8896-1.475 2.2116-.366 2.2138-.487 4.3923-.917c23.526-5.324 46.2202-14.521 67.27767-27.264 20.99123-12.842 40.10143-29.028 56.66763-47.996 4.198-4.667 8.0384-9.683 11.9296-14.662l5.5278-7.714c1.8517-2.57 3.5021-5.303 5.2501-7.932.8566-1.392 1.7501-2.644 2.5753-4.01l2.4189-4.197c1.5898-2.801 3.2714-5.455 4.7027-8.322 1.4313-2.868 2.9877-5.628 4.4263-8.45l4.056-8.695c5.222-11.7 9.641-23.782 13.223-36.148 7.033-24.817 10.491-50.576 10.252-76.369-.2-12.872-1.277-25.692-3.221-38.356l-1.619-9.457c-.644-3.101-1.37-6.213-2.041-9.317-.672-3.105-1.535-6.236-2.342-9.268l-1.226-4.686c-.418-1.564-.989-3.027-1.427-4.548-.99-3.012-1.864-6.068-2.972-9.036l-3.298-8.898c-2.44-5.829-4.821-11.681-7.64-17.289-21.9996-45.712-56.8871-82.55-99.7569-105.3363l-3.994759-2.0436-2.007101-1.0532-2.03465-.9517-8.18599-3.7665c-5.557-2.2533-11.1003-4.5051-16.7992-6.3252l-4.2584-1.4305c-1.4129-.4912-2.875-.8234-4.3116-1.2423-2.881-.7787-5.7385-1.6292-8.6412-2.3505l-8.7418-1.9121c-1.4602-.3467-2.9343-.5901-4.4104-.8184l-4.4105-.7128c-5.8727-1.0446-11.8129-1.6911-17.7957-2.5395l-195.2448-26.2106z"/><path d="m-278.557 32.9937 138.369 18.0778 34.576 4.6417 17.2539 2.3162c5.7695.7745 11.5274 1.427 17.2808 2.4255l4.3284.7017c1.4389.1932 2.8817.4621 4.3007.8033l8.554 1.8568c2.8381.6824 5.6407 1.5259 8.4552 2.2806 2.8145.7546 5.6072 1.6721 8.3664 2.6304 5.5855 1.7295 10.9995 4.009 16.4431 6.1717l8.0041 3.667 2.0113.918 1.95421 1.0311 3.91252 2.0325c41.96537 22.236 76.14077 58.224 97.72527 102.908 2.766 5.481 5.1045 11.236 7.4961 16.908l3.253 8.712c1.089 2.904 1.929 5.896 2.914 8.847.457 1.478.999 2.952 1.397 4.453l1.223 4.505c.781 3.014 1.692 6 2.299 9.066s1.37 6.107 2.006 9.162l1.549 9.252c1.899 12.401 2.946 24.955 3.133 37.56.292 25.261-3.096 50.495-10.04 74.785-3.507 12.108-7.828 23.941-12.9279 35.404l-3.9334 8.515c-1.4117 2.825-2.8936 5.55-4.3384 8.311-1.4448 2.76-3.0598 5.437-4.6219 8.137l-2.3697 4.037c-.8018 1.4-1.6756 2.609-2.5086 3.929-1.7401 2.57-3.3414 5.249-5.1441 7.766l-5.4354 7.545c-3.8048 4.855-7.5764 9.775-11.69 14.332-16.2253 18.508-34.9285 34.296-55.462938 46.817-20.616062 12.44-42.827662 21.411-65.848762 26.596l-4.3101.929-2.155.464-2.1842.37-8.6878 1.426c-5.8192.636-11.6487 1.451-17.4888 1.617-2.91.167-5.838.362-8.764.331-2.925-.031-5.837.045-8.757-.031l-8.741-.465c-1.459-.045-2.917-.195-4.36-.359l-4.358-.479c-5.815-.54-11.526-1.548-17.311-2.204l-17.295-2.321-34.576-4.642-138.238-19.055.056-.415 190.078 25.517c5.756.773 11.512 1.651 17.299 2.187l4.333.461c1.37.184 2.878.386 4.347.357l8.701.445c2.906.074 5.816.012 8.717.025 2.9.012 5.822-.138 8.736-.335 5.8166-.199 11.6126-.973 17.4065-1.627l8.6466-1.432 2.1568-.374 2.1551-.464 4.31-.929c46.1116-10.374 88.3377-36.002 120.7357-73.279 4.0979-4.544 7.846-9.497 11.68-14.258l5.3904-7.521c1.7987-2.487 3.398-5.151 5.1107-7.725.8309-1.305 1.7402-2.57 2.4909-3.901l2.352-4.01c1.5465-2.686 3.1966-5.314 4.5886-8.096 1.392-2.783 2.9013-5.504 4.305-8.27l3.9334-8.516c5.0604-11.399 9.3443-23.167 12.8183-35.207 6.834-24.166 10.201-49.244 9.982-74.356-.174-12.53-1.203-25.011-3.079-37.341l-1.548-9.252c-.617-3.097-1.32-6.071-1.972-9.112-.652-3.042-1.508-6.021-2.291-9.02l-1.211-4.489c-.4-1.485-.916-2.941-1.374-4.42-1-2.937-1.813-5.925-2.89-8.813l-3.2181-8.662c-2.3642-5.668-4.695-11.377-7.506-16.834-21.4198-44.501-55.3917-80.359-97.13463-102.5272l-3.91252-2.0325-1.95425-1.0311-1.9839-.9144-7.9629-3.6614c-5.4163-2.159-10.7989-4.4641-16.3609-6.1604-2.7613-.9434-5.5226-1.8869-8.339-2.6267-2.8165-.7399-5.5897-1.5945-8.4142-2.2751l-8.5108-1.866c-1.4191-.3413-2.852-.579-4.287-.8018l-4.301-.6981c-5.724-1.0096-11.5133-1.6358-17.2632-2.4529l-190.1326-25.5244z"/><path d="m-279.424 39.4641 134.607 17.829 33.644 4.5166 16.829 2.2591c5.6051.7525 11.226 1.3866 16.817 2.3482l4.2049.6851c1.3705.184 2.8094.377 4.1794.772l8.325 1.7957c2.7011.6641 5.4783 1.4891 8.2263 2.2198 2.7479.7306 5.3644 1.6094 8.1197 2.5973 5.4387 1.6797 10.6394 3.8852 15.9383 5.9832l7.7947 3.5635 1.9447.8944 1.9034.994 3.8029 2.0178c40.8265 21.5992 74.0838 56.5792 95.0991 100.0232 2.7016 5.336 4.9798 10.918 7.307 16.445l3.1595 8.474c1.0167 2.819 1.8803 5.738 2.8479 8.612.4475 1.446 1.0087 2.878 1.3446 4.325l1.1956 4.396c.7795 2.923 1.6452 5.828 2.248 8.818.603 2.99 1.34 5.922 1.943 8.912l1.582 9c1.855 12.079 2.876 24.307 3.055 36.585.29 24.581-3.007 49.137-9.7695 72.771-3.4168 11.794-7.6265 23.32-12.5954 34.484l-3.9017 8.279c-1.3683 2.71-2.8168 5.395-4.2243 8.085-1.4074 2.69-2.9832 5.282-4.4943 7.913l-2.3126 3.925c-.7742 1.297-1.6383 2.538-2.4515 3.816-1.7302 2.495-3.2394 5.112-5.0027 7.543l-5.2823 7.339c-3.7184 4.732-7.3801 9.561-11.3856 13.937-31.7244 36.374-73.032 61.35-118.1139 71.415l-4.2004.943-2.0982.457-2.1117.35-8.4585 1.381c-5.6646.627-11.3454 1.371-16.9544 1.583-2.812.165-5.626.345-8.517.364-2.89.019-5.685.051-8.518-.043l-8.506-.449c-1.388-.05-2.835-.184-4.235-.357l-4.235-.463c-5.649-.532-11.224-1.507-16.843-2.156l-16.829-2.259-33.644-4.516-134.542-18.318.06-.445 185.008 24.837c5.605.752 11.209 1.61 16.831 2.139l4.209.444c1.37.184 2.809.377 4.223.341l8.479.445c2.78.072 5.663.007 8.481.008 2.818.002 5.668-.128 8.504-.366 5.607-.197 11.289-.956 16.9536-1.582l8.4037-1.389 2.1117-.35 2.0845-.459 4.173-.947c22.2837-5.04 43.7791-13.753 63.72253-25.826 19.91447-12.177 38.03957-27.536 53.74307-45.54 3.9958-4.408 7.6338-9.165 11.3091-13.887l5.2489-7.299c1.7223-2.436 3.298-5.028 4.9713-7.517.7996-1.279 1.7302-2.496 2.4221-3.805l2.2951-3.897c1.4954-2.618 3.1082-5.175 4.4491-7.889s2.8363-5.331 4.1909-8.043l3.8937-8.22c4.9173-11.095 9.0843-22.546 12.4677-34.26 6.653-23.51 9.929-47.909 9.712-72.342-.175-12.192-1.174-24.336-2.991-36.335l-1.588-8.955c-.592-2.974-1.2848-5.915-1.9212-8.865-.6365-2.949-1.4591-5.863-2.2111-8.783l-1.186-4.364c-.3907-1.454-.897-2.879-1.3328-4.309-1.0107-2.864-1.7667-5.754-2.8128-8.562l-3.1361-8.44c-2.3018-5.509-4.5564-11.057-7.2464-16.377-20.7635-43.424-53.7848-78.455-94.4114-100.1569l-3.7755-2.0141-1.8897-.9923-1.9448-.894-7.7379-3.5712c-5.2988-2.0981-10.5133-4.3051-15.9363-5.9978-2.6693-.9009-5.3346-1.8315-8.106-2.5955-2.7714-.7639-5.4409-1.5594-8.1831-2.2289l-8.2955-1.8073c-1.3506-.3321-2.7151-.5603-4.1638-.785l-4.1776-.6815c-5.5615-.9727-11.1982-1.5935-16.7972-2.3903l-185.0078-24.8364z"/><path d="m-280.293 45.9341 130.878 17.3438 32.712 4.3914 16.363 2.1966c5.4817.7359 10.9109 1.3439 16.351 2.2852l4.0974.6557c1.3704.184 2.7309.4422 4.0834.7594l8.1331 1.7701c2.7031.6492 5.3864 1.4464 7.9992 2.1439 2.613.6974 5.3 1.5705 7.9144 2.4641 5.2783 1.6281 10.4027 3.778 15.5548 5.8262l7.5716 3.4584 1.892.8719 1.8506.9719 3.6895 1.9271c39.6994 21.0072 72.037 55.0252 92.4687 97.2732 2.6372 5.193 4.8531 10.615 7.112 16.028l3.0797 8.236c1.0265 2.746 1.8316 5.582 2.768 8.375.4398 1.401.9227 2.792 1.3174 4.217l1.1586 4.255c.7464 2.859 1.6103 5.673 2.1822 8.583s1.3045 5.767 1.8921 8.665l1.516 8.765c1.8026 11.727 2.8014 23.6 2.9884 35.52.27 23.901-2.9351 47.775-9.4989 70.758-3.3234 11.455-7.4187 22.648-12.2527 33.49l-3.7739 8.055c-1.331 2.64-2.7402 5.239-4.1103 7.859-1.3702 2.619-2.8948 5.143-4.3666 7.688l-2.2419 3.814c-.7565 1.27-1.6009 2.468-2.3965 3.718-1.6243 2.435-3.1489 4.958-4.8632 7.336l-5.1428 7.132c-3.6026 4.596-7.17 9.242-11.0736 13.586-15.3742 17.538-33.10529 32.486-52.5754 44.326-19.496 11.758-40.5027 20.231-62.2739 25.116l-4.0772.96-2.0394.435-2.0548.342-8.2177 1.354c-5.5083.602-11.0183 1.324-16.5403 1.517-2.811.15-5.527.328-8.282.275-2.756-.053-5.587.049-8.284-.027l-8.31-.452c-1.39-.036-2.767-.175-4.139-.345l-4.125-.448c-5.512-.514-10.974-1.398-16.377-2.093l-16.363-2.196-32.712-4.392-130.816-17.803.067-.503 179.91 24.152c5.481.736 10.951 1.561 16.367 2.061l4.125.449c1.37.184 2.741.368 4.139.344l8.246.414c2.778.087 5.494.014 8.242.021 2.747.007 5.501-.135 8.257-.293 5.509-.195 10.979-.938 16.4599-1.544l8.1902-1.357 2.0413-.344 2.0276-.451 4.0634-.962c43.6086-9.819 83.54295-34.056 114.1892-69.304 3.8839-4.302 7.4199-8.922 10.993-13.507l5.1389-7.103c1.7123-2.362 3.2213-4.873 4.8319-7.31.7936-1.235 1.6243-2.434 2.3651-3.691l2.2242-3.787c1.4582-2.547 3.0199-5.035 4.3352-7.662s2.7479-5.193 4.0769-7.819l3.7406-8.013c4.7811-10.783 8.8304-21.912 12.1152-33.298 6.4729-22.854 9.6574-46.576 9.4413-70.328-.1657-11.85-1.1364-23.652-2.9046-35.314l-1.4946-8.716c-.5896-2.883-1.2516-5.746-1.8707-8.617-.6189-2.872-1.426-5.693-2.1606-8.535l-1.147-4.239c-.3809-1.423-.8659-2.799-1.3057-4.199-.9129-2.761-1.7043-5.595-2.7329-8.326l-3.0857-8.192c-2.2374-5.364-4.4297-10.753-7.0416-15.927-20.265-42.083-52.3932-75.994-91.8681-96.967l-3.6659-1.9995-1.8388-.9552-1.8783-.87-7.5422-3.4692c-5.1247-2.0445-10.208-4.1893-15.4705-5.8303-2.6693-.9009-5.2153-1.7852-7.887-2.4604s-5.2942-1.5096-7.9542-2.1681l-8.0645-1.7609c-1.3526-.3172-2.717-.5458-4.0835-.7594l-4.0954-.6701c-5.4519-.958-10.9634-1.4719-16.3331-2.3133l-179.923-24.1538z"/><path d="m-281.164 52.4192 127.15 16.8431 31.78 4.2663 15.897 2.1341c5.304.7119 10.5939 1.3167 15.8854 2.223l3.974.6391c1.3704.184 2.635.4289 3.9464.7406l7.863 1.7036c2.6072.6364 5.1827 1.4045 7.7682 2.0983 2.5855.6937 5.1531 1.5206 7.6894 2.3735 5.1432 1.5949 10.1072 3.6931 15.1164 5.6618l7.3604 3.3697 1.8254.8478 1.7977.9501 3.5995 1.8698c38.56805 20.421 69.9844 53.475 89.8384 94.524 2.5612 5.031 4.699 10.307 6.8995 15.531l2.9942 7.939c1.0365 2.671 1.783 5.424 2.6902 8.123 3.4279 10.913 6.0522 22.116 7.8489 33.506 1.742 11.396 2.7068 22.93 2.8866 34.512.2676 23.22-2.8464 46.417-9.2285 68.744-3.227 11.131-7.2052 22.008-11.9023 32.542-4.726 10.512-10.207 20.622-16.392 30.236-1.5889 2.38-3.0625 4.835-4.7394 7.142l-4.9818 6.867c-3.5024 4.474-6.9677 8.983-10.7535 13.177-29.98434 34.387-69.0311 57.996-111.6458 67.506l-3.9673.869-1.9826.427-1.9844.337-7.988 1.309c-5.354.593-10.695 1.308-16.075 1.475-2.671.154-5.36.335-8.045.276s-5.364.049-8.046-.025l-8.034-.43c-1.389-.051-2.669-.178-4.001-.341l-4.001-.432c-5.345-.507-10.594-1.422-15.909-2.045l-15.897-2.134-31.78-4.267-127.091-17.287.073-.548 174.853 23.473c5.29.71 10.579 1.526 15.899 2.014l3.975.428c1.37.184 2.644.355 3.988.324l8.008.412c2.669.072 5.343.009 8.006.02s5.346-.126 8.02-.295c5.354-.186 10.668-.904 15.994-1.501l7.947-1.314 1.9845-.337 1.9689-.429 3.9535-.871c42.3479-9.542 81.12562-33.086 110.8817-67.322 3.7701-4.181 7.204-8.664 10.675-13.112l4.9544-6.871c1.7023-2.289 3.1192-4.736 4.6924-7.102 6.1341-9.572 11.5709-19.632 16.2604-30.088 4.6442-10.476 8.5763-21.288 11.7648-32.35 6.2913-22.199 9.3847-45.242 9.1709-68.315-.158-11.511-1.0994-22.978-2.8165-34.307-1.7657-11.323-4.3568-22.461-7.7493-33.311-.8935-2.697-1.6695-5.439-2.6532-8.089l-2.9667-7.934c-2.1751-5.206-4.3031-10.45-6.8389-15.463-19.6735-40.871-50.86888-73.809-89.2007-94.1823l-3.5838-1.8828-1.7841-.9479-1.8273-.8333-7.3173-3.3787c-4.9799-1.9798-9.9164-4.0747-15.0322-5.6659-2.5362-.8529-5.0705-1.7205-7.66-2.3847-2.5894-.6641-5.1337-1.4578-7.7271-2.0923l-7.8336-1.7151c-1.3525-.3173-2.6074-.5308-3.9327-.7388l-3.9466-.6355c-5.26-.9322-10.5815-1.5107-15.8655-2.2652l-174.798-23.4658z"/><path d="m-282.032 58.8891 123.366 16.3504 30.848 4.1412 15.431 2.0715c5.139.6899 10.292 1.2759 15.4173 2.175l3.8527.6077c1.2882.1729 2.5763.346 3.8387.7115l7.6321 1.6575c2.5269.6105 5.0202 1.3672 7.5392 2.0369 2.519.6698 5.0043 1.4859 7.474 2.3149 4.9827 1.5431 9.802 3.5765 14.6096 5.4881l7.1354 3.2791 1.7882.8131 1.9331.877 3.4938 1.826c37.42647 19.825 67.9136 51.905 87.1845 91.741 2.4735 4.853 4.5586 10.002 6.6948 15.082l2.9044 7.775c.9642 2.587 1.7207 5.266 2.5967 7.885 3.3335 10.592 5.8806 21.467 7.6178 32.525 1.6955 11.074 2.6341 22.283 2.8083 33.537.2574 22.54-2.7653 45.057-8.9582 66.731-3.1259 10.812-6.9831 21.378-11.5402 31.611-4.5972 10.2-9.9214 20.014-15.9241 29.349-1.5379 2.311-2.9741 4.696-4.598 6.919l-4.8366 6.722c-3.3729 4.34-6.7517 8.725-10.4374 12.797-14.50265 16.537-31.2252 30.634-49.5861 41.802-18.3872 11.118-38.2034 19.135-58.7444 23.767l-3.8517.84-1.9258.419-1.9411.328-7.746 1.266c-5.198.583-10.383 1.274-15.54 1.441-2.602.163-5.205.326-7.821.276-2.617-.049-5.21.04-7.808-.038l-7.799-.414c-1.306-.04-2.6-.168-3.89-.326l-3.879-.415c-5.181-.485-10.292-1.382-15.443-1.983l-15.431-2.072-30.848-4.141-123.311-16.765.082-.607 169.508 22.756c5.139.69 10.28 1.47 15.433 1.951l3.865.413c1.274.172 2.572.27 3.865.308l7.771.41c2.587.061 5.176.002 7.771.004 2.595.001 5.192-.117 7.779-.267 5.188-.193 10.359-.886 15.541-1.456l7.707-1.287 1.9255-.314 1.9258-.42 3.8242-.843c41.1107-9.259 78.7566-32.112 107.6447-65.345 3.6523-4.031 6.9881-8.407 10.359-12.732l4.8052-6.696c1.6102-2.225 3.0307-4.597 4.5706-6.922 5.9488-9.287 11.2239-19.047 15.7769-29.189 4.5074-10.168 8.3224-20.663 11.4143-31.401 6.1104-21.545 9.1127-43.909 8.9006-66.302-.1503-11.173-1.0622-22.303-2.7284-33.3-1.7188-10.988-4.2325-21.798-7.5183-32.331-.878-2.605-1.6227-5.267-2.583-7.883l-2.8692-7.725c-2.1128-5.047-4.2196-10.138-6.6362-14.999-19.1006-39.675-49.386541-71.647-86.5997-91.422l-3.4664-1.821-1.747-.913-1.7725-.826-7.0962-3.2588c-4.8331-1.93-9.6386-3.9616-14.6076-5.5029-2.456-.8271-4.908-1.684-7.431-2.3242-2.5229-.6401-4.9849-1.4227-7.4981-2.0314l-7.6026-1.6686c-1.2586-.2896-2.5388-.5219-3.8113-.7078l-3.8371-.6204c-5.0972-.8953-10.2782-1.3799-15.4012-2.1882l-169.673-22.7777z"/><path d="m-282.901 65.3594 119.691 15.8718 29.917 4.0161 14.965 2.009c4.988.6697 9.976 1.2339 14.953 2.0979l3.7427.593c1.2471.1674 2.4942.3347 3.7155.6946l7.401 1.6114c2.4604.5865 4.8735 1.3176 7.3259 1.9634s4.8439 1.4338 7.2314 2.2517c4.8359 1.4933 9.5241 3.4642 14.2261 5.3317l6.926 3.175 1.7354.791 1.6941.891 3.3764 1.764c36.31575 19.22 65.8954 50.343 84.5816 88.995 2.4031 4.754 4.4399 9.64 6.5038 14.635l2.8108 7.536c.9468 2.509 1.6721 5.108 2.5306 7.65 3.2248 10.273 5.69 20.82 7.3731 31.543 1.6444 10.731 2.5548 21.594 2.724 32.501.2463 21.86-2.6852 43.696-8.6879 64.717-3.0403 10.481-6.784 20.724-11.2013 30.646-4.4523 9.896-9.6159 19.414-15.4426 28.465-1.4868 2.242-2.8857 4.556-4.4469 6.728l-4.6971 6.514c-3.355 4.207-6.56326 8.464-10.13314 12.401-28.20936 32.368-64.95416 54.59-105.05806 63.537l-3.7244.826-1.869.412-1.882.305-7.519 1.237c-5.028.561-10.07 1.226-15.128 1.391-2.517.144-5.049.301-7.581.248-2.532-.054-5.045.061-7.573-.022l-7.564-.397c-1.263-.049-2.516-.172-3.765-.325l-3.769-.4c-5.028-.479-9.977-1.34-14.977-1.92l-14.965-2.009-29.916-4.016-119.64-16.257.089-.667 164.547 22.09c4.975.668 9.965 1.428 14.966 1.903l3.741.397c1.247.167 2.494.335 3.754.308l7.524.377c2.515.081 5.035.013 7.546.018 2.51.006 5.037-.107 7.542-.268 5.031-.169 10.047-.852 15.059-1.4l7.478-1.242 1.87-.322 1.854-.399 3.7104-.829c39.865-8.97 76.3704-31.128 104.37821-63.356 3.54053-3.926 6.77019-8.135 10.02729-12.34l4.6658-6.488c1.5591-2.157 2.9423-4.459 4.4135-6.688 5.7812-9.001 10.8965-18.471 15.2973-28.318 4.3633-9.858 8.0604-20.032 11.0619-30.439 5.9101-20.893 8.8209-42.576 8.6303-64.288-.1473-10.83-1.0304-21.619-2.6423-32.279-1.648-10.659-4.0848-21.142-7.2872-31.349-.8312-2.539-1.5584-5.123-2.4935-7.615l-2.7894-7.489c-2.0484-4.903-4.0518-9.829-6.4158-14.563-9.2341-19.137-21.1688-36.574-35.38731-51.702-14.25529-15.025-30.62859-27.535-48.53869-37.084l-3.3607-1.777-1.6824-.874-1.7197-.804-6.885-3.17c-4.6883-1.865-9.3489-3.8325-14.1575-5.3221-2.3737-.8161-4.7612-1.6341-7.2039-2.2484s-4.8362-1.3877-7.2809-1.9872l-7.3599-1.6059c-1.2155-.2988-2.4586-.496-3.7017-.6931l-3.7138-.6041c-4.947-.8751-9.977-1.3391-14.935-2.1253l-164.575-22.0933z"/><path d="m-283.773 71.8593 115.962 15.3863 28.984 3.891 14.499 1.9464c4.838.6494 9.607 1.1843 14.487 2.0354 2.412.4293 4.852.6515 7.228 1.2418l7.1699 1.5653c2.3782.5755 4.7248 1.2822 7.0969 1.9021 2.3722.6204 4.6951 1.3994 7.0161 2.1934 4.6754 1.441 9.2188 3.347 13.7877 5.167l6.703 3.07c1.1348.484 2.2324 1.038 3.3259 1.622l3.2708 1.72c35.158 18.643 63.7953 48.793 81.8983 86.223 2.3251 4.608 4.3169 9.412 6.299 14.185l2.7174 7.299c.9155 2.429 1.6233 4.95 2.4487 7.428 3.1272 9.947 5.516 20.161 7.144 30.546 1.6 10.398 2.4812 20.925 2.636 31.495.0421 10.575-.6045 21.156-1.9349 31.664-1.4949 10.486-3.6616 20.862-6.4846 31.054-2.9428 10.147-6.5682 20.064-10.847 29.669-4.31 9.593-9.3086 18.821-14.9494 27.596-1.4495 2.172-2.7953 4.403-4.3191 6.505l-4.56159 6.336c-3.18639 4.094-6.345432 8.192-9.80152 12.008-27.32909 31.342-62.90649 52.877-101.74059 61.586l-3.621.78c-1.197.291-2.4.522-3.624.704l-7.289 1.192c-4.871.537-9.758 1.192-14.649 1.349-2.446.139-4.896.308-7.344.251-2.447-.058-4.903.05-7.349-.022l-7.327-.396c-2.444-.087-4.861-.472-7.301-.694-4.877-.459-9.661-1.297-14.511-1.858l-14.499-1.946-28.985-3.891-115.914-15.742.096-.71 159.421 21.401c4.824.648 9.65 1.386 14.502 1.826 2.412.219 4.823.648 7.259.688l7.288.376c2.432.07 4.882.007 7.309.016 2.426.01 4.87-.115 7.305-.27 4.876-.159 9.736-.818 14.58-1.359l7.248-1.197c1.21-.184 2.413-.415 3.61-.706l3.593-.784c38.6143-8.696 73.9751-30.157 101.1119-61.368 3.4267-3.806 6.57195-7.905 9.73868-11.957l4.51455-6.297c1.50807-2.089 2.84027-4.322 4.27207-6.466 5.5984-8.725 10.5614-17.896 14.8433-27.429 4.2369-9.549 7.8262-19.404 10.7389-29.488 5.7302-20.237 8.5499-41.242 8.3599-62.274-.1501-10.495-1.013-20.948-2.5817-31.276-1.616-10.325-3.9845-20.48-7.0835-30.373-.8157-2.446-1.5118-4.951-2.4156-7.363l-2.6939-7.265c-1.9801-4.788-3.9328-9.572-6.2405-14.102-17.94449-37.263-46.3931-67.291-81.3468-85.862l-3.2591-1.704c-1.0778-.597-2.1773-1.137-3.2964-1.634l-6.6756-3.066c-4.5279-1.814-9.0437-3.716-13.7035-5.171-2.3092-.777-4.6145-1.584-6.977-2.172-2.3624-.589-4.6893-1.3383-7.0538-1.9119l-7.1289-1.5598c-2.365-.5737-4.798-.8404-7.182-1.2659-4.798-.8401-9.652-1.3708-14.472-2.048l-159.422-21.4016z"/><path d="m-284.638 78.3005 112.232 14.9007 28.053 3.7659 14.033 1.8839c4.673.6274 9.358 1.166 14.021 1.973 2.33.418 4.701.631 6.995 1.21l6.941 1.505c2.31.566 4.578 1.232 6.866 1.856 2.288.623 4.5483 1.349 6.791 2.102 4.5404 1.409 8.9233 3.263 13.3494 5.003l6.4917 2.982c1.0937.478 2.1541.997 3.2065 1.576l3.1809 1.662c16.9114 8.976 32.3769 20.748 45.8464 34.899 13.43292 14.204 24.72284 30.589 33.4763 48.582 2.1943 4.439 4.1491 9.103 6.0826 13.719l2.6375 7.061c.8824 2.365 1.5827 4.735 2.369 7.192 3.0249 9.63 5.3408 19.516 6.9265 29.568 1.5357 10.067 2.3873 20.257 2.548 30.487.2236 20.504-2.5259 40.986-8.1493 60.705-2.8527 9.826-6.3614 19.43-10.4985 28.736-4.1787 9.278-9.02008 18.204-14.47948 26.695-1.39845 2.103-2.70694 4.263-4.179689 6.296l-4.408491 6.131c-3.09603 3.941-6.14314 7.933-9.49914 11.627-26.4605 30.348-60.9132 51.193-98.5172 59.607l-3.507.765c-1.166.265-2.328.501-3.509.674l-7.046 1.15c-4.73.525-9.447 1.158-14.196 1.304-2.364.15-4.742.298-7.107.252-2.366-.046-4.735.043-7.113-.02l-7.092-.379c-2.359-.091-4.708-.467-7.066-.678-4.71-.451-9.36-1.256-14.033-1.884l-14.033-1.884-28.053-3.766-112.188-15.226.103-.77 154.296 20.713c4.674.628 9.348 1.346 14.034 1.779 2.343.209 4.659.625 7.027.657l7.051.374c2.363.061 4.715 0 7.071.014 2.356.015 4.718-.12 7.08-.255 4.71-.167 9.399-.803 14.127-1.314l7.007-1.169c1.181-.173 2.343-.409 3.495-.677l3.48-.769c37.3631-8.421 71.5792-29.186 97.845-59.38 3.2854-3.689 6.35602-7.647 9.42262-11.577l4.359465-6.077c1.459012-2.035 2.747855-4.153 4.148305-6.271 5.40932-8.439 10.20161-17.311 14.33231-26.533 4.0986-9.242 7.5706-18.781 10.3884-28.54 5.5493-19.582 8.2779-39.908 8.0896-60.26-.1425-10.157-.9759-20.274-2.4935-30.27-1.5523-9.985-3.835-19.807-6.8271-29.374-.7962-2.383-1.4748-4.81-2.3475-7.143l-2.6004-7.026c-1.9237-4.584-3.8003-9.208-6.0377-13.638-8.66126-17.948-19.85728-34.3-33.1965-48.484-13.3812-14.087-28.7497-25.811-45.5588-34.754l-3.1534-1.66c-1.0387-.576-2.0991-1.095-3.1928-1.574l-6.4506-2.976c-4.3967-1.751-8.7542-3.587-13.2809-4.993-2.2407-.768-4.4677-1.534-6.7617-2.114-2.2939-.579-4.5288-1.286-6.8248-1.851l-6.898-1.513c-2.3-.535-4.637-.789-6.953-1.205-4.634-.818-9.347-1.255-14.004-2.0005l-154.241-20.7061z"/><path d="m-285.506 84.7706 108.505 14.4007 27.12 3.6407 13.568 1.821c4.522.608 9.043 1.124 13.555 1.91 2.249.393 4.536.61 6.818 1.172l6.71 1.458c2.23.541 4.43 1.198 6.637 1.796 2.208.598 4.3999 1.314 6.5761 2.043 4.3799 1.357 8.618 3.147 12.8974 4.836l6.2823 2.879c2.1112.901 4.1181 2.06 6.1643 3.134 32.932 17.433 59.7536 45.661 76.69439 80.715 2.21215 4.307 4.02241 8.8 5.89161 13.272l2.542 6.837c.8669 2.272 1.528 4.622 2.2911 6.94 2.9262 9.315 5.1642 18.879 6.6934 28.602 1.4936 9.729 2.3165 19.578 2.4619 29.466.2219 19.825-2.4365 39.628-7.8789 58.691-2.7547 9.498-6.1458 18.781-10.14609 27.774-4.03953 8.976-8.720575 17.611-13.99996 25.824-1.34543 2.02-2.62449 4.17-4.04025 6.09l-4.2553 5.925c-2.9939 3.804-5.939 7.659-9.1831 11.248-25.5902 29.348-58.9121 49.502-95.2809 57.629-2.251.451-4.496 1.069-6.772 1.397l-6.819 1.119c-4.574.502-9.134 1.11-13.716 1.264-2.292.129-4.585.274-6.882.237s-4.581.033-6.874-.034l-6.857-.362c-2.291-.082-4.558-.447-6.888-.654-4.56-.431-9.045-1.214-13.567-1.821l-13.567-1.822-27.121-3.64-108.463-14.712.109-.814 149.185 20.027c4.509.605 9.045 1.214 13.567 1.716 2.262.198 4.509.605 6.792.64l6.818.343c2.28.065 4.561.009 6.835.013 2.273.004 4.561-.096 6.84-.242 4.556-.157 9.088-.77 13.635-1.275l6.777-1.125c2.261-.314 4.475-.906 6.73-1.387 36.1309-8.157 69.2139-28.252 94.6024-57.464 3.2676-3.556 6.1401-7.391 9.1046-11.183l4.222-5.885c1.40596-1.951 2.66343-4.043 3.99313-6.05 5.24078-8.157 9.87765-16.738 13.8665-25.662 3.96247-8.929 7.31677-18.146 10.03597-27.577 5.369-18.927 8.0066-38.574 7.8194-58.247-.135-9.819-.9389-19.599-2.4056-29.263-1.5036-9.652-3.7137-19.147-6.6096-28.395-.7513-2.301-1.4145-4.636-2.256-6.889l-2.5205-6.79c-1.85939-4.44-3.67175-8.919-5.83303-13.188-16.78107-34.86-43.39297-62.95-76.09197-80.318-2.0522-1.03-4.0277-2.214-6.1252-3.114l-6.2412-2.872c-4.252-1.686-8.4627-3.473-12.8132-4.841-2.1624-.727-4.3227-1.469-6.5347-2.037-2.212-.569-4.382-1.237-6.596-1.79l-6.669-1.453c-2.217-.524-4.487-.768-6.72-1.174-4.485-.783-9.045-1.214-13.54-1.923l-149.184-20.0271z"/><path d="m-286.375 91.2408 104.775 13.9142 26.189 3.516 13.101 1.759c4.372.587 8.728 1.081 13.092 1.833 2.18.383 4.385.588 6.53 1.133l6.479 1.412c2.163.517 4.283 1.148 6.41 1.72 2.128.572 4.253 1.264 6.347 1.982 4.2331 1.307 8.3401 3.034 12.457 4.687l6.073 2.775c2.0446.877 3.9125 2.032 5.955 3.03 15.7935 8.378 30.2346 19.372 42.8078 32.591 12.5436 13.262 23.0855 28.56 31.2581 45.361 2.10669 4.156 3.86638 8.507 5.686871 12.821l2.462169 6.601c.82205 2.19 1.46576 4.462 2.21131 6.703 2.81489 8.998 4.97095 18.232 6.44865 27.62 1.442 9.397 2.24 18.91 2.3875 28.461.211 19.144-2.3562 38.267-7.60861 56.678-2.65339 9.175-5.927466 18.142-9.79559 26.825-3.90035 8.669-8.4204 17.007-13.5185 24.94-1.2943 1.951-2.5144 3.973-3.9008 5.882l-4.1021 5.72c-2.8938 3.681-5.7505 7.397-8.8671 10.868-12.3206 14.028-26.5255 25.983-42.1203 35.449-15.617 9.428-32.4454 16.225-49.8874 20.147-2.181.446-4.326 1.047-6.544 1.353l-6.589 1.074c-4.406.494-8.823 1.077-13.253 1.236-2.207.126-4.418.281-6.642.223-2.225-.057-4.43.054-6.639-.016l-6.622-.347c-2.207-.085-4.392-.439-6.598-.629-4.408-.426-8.73-1.172-13.102-1.759l-13.101-1.759-26.189-3.516-104.737-14.196.117-.873 144.046 19.337c4.358.585 8.717 1.261 13.099 1.668 2.179.187 4.358.585 6.559.609l6.581.341c2.197.054 4.395.002 6.598.012 2.203.009 4.394-.104 6.601-.229 4.403-.163 8.779-.751 13.17-1.247l6.537-1.097c2.19-.309 4.31-.929 6.5-1.343 34.8716-7.855 66.8052-27.236 91.3149-55.418 3.0969-3.428 5.9242-7.134 8.7866-10.789l4.0688-5.679c1.3706-1.896 2.5751-3.904 3.8695-5.856 5.0479-7.877 9.52258-16.157 13.3829-24.762 3.827004-8.621 7.06433-17.522 9.68554-26.629 5.17336-18.285 7.72086-37.261 7.55296-56.263-.1263-9.477-.9016-18.916-2.3194-28.241-1.45349-9.323-3.58554-18.495-6.37654-27.43-.73586-2.209-1.36784-4.464-2.18988-6.654l-2.427018-6.551c-1.797062-4.281-3.546992-8.601-5.618332-12.813-8.09533-16.694-18.54053-31.902-30.97273-45.095-12.4821-13.142-26.8168-24.081-42.4949-32.429-1.9719-1.003-3.8966-2.151-5.9139-3.025l-6.0181-2.767c-4.1072-1.622-8.1711-3.358-12.3744-4.676-2.096-.703-4.175-1.435-6.308-1.962-2.134-.528-4.231-1.216-6.367-1.729l-6.438-1.407c-2.135-.513-4.336-.748-6.487-1.142-4.334-.763-8.73-1.172-13.074-1.861l-144.046-19.3371z"/><path d="m-287.244 97.7112 101.046 13.4298 25.256 3.39 12.636 1.697c4.207.564 8.412 1.038 12.635 1.696 2.099.372 4.235.568 6.3 1.086l6.262 1.368c2.067.504 4.12 1.111 6.179 1.674 2.058.563 4.092 1.213 6.121 1.892 4.085 1.272 7.978 2.925 11.9524 4.499l5.8617 2.686c1.9644.851 3.8166 2.019 5.7456 2.926 30.6706 16.247 55.6482 42.545 71.4219 75.2 2.0287 4.011 3.7417 8.19 5.4842 12.358l2.38432 6.349c.78889 2.126 1.41511 4.32 2.13149 6.466 2.70452 8.678 4.77413 17.583 6.190172 26.636 1.378088 9.06 2.142668 18.231 2.287688 27.438.03155 9.217-.53507 18.438-1.695763 27.597-1.302591 9.138-3.187927 18.182-5.642567 27.066-2.5665 8.845-5.72724 17.489-9.45684 25.862-3.7531 8.358-8.0981 16.402-12.9958 24.06-1.2571 1.881-2.4398 3.832-3.7613 5.675l-3.9745 5.495c-2.778 3.546-5.5345 7.14-8.549 10.474-23.8277 27.339-54.8568 46.119-88.7267 53.701-2.107.425-4.186.945-6.314 1.308l-6.36 1.03c-4.251.484-8.511 1.043-12.716 1.187-2.138.135-4.222.277-6.406.225-2.183-.052-4.275.044-6.401-.015l-6.399-.347c-2.125-.074-4.241-.418-6.363-.613-4.259-.391-8.428-1.131-12.648-1.607l-12.635-1.696-25.257-3.391-101.01-13.696.121-.903 138.934 18.651c4.208.565 8.418 1.206 12.636 1.591 2.109.193 4.193.563 6.322.607l6.346.325c2.113.057 4.187-.011 6.36.01 2.174.02 4.201-.115 6.365-.231 4.205-.144 8.467-.717 12.716-1.187l6.305-1.038c2.12-.303 4.201-.943 6.272-1.298 33.6339-7.571 64.4382-26.253 88.0887-53.425 2.9851-3.322 5.7103-6.89 8.4726-10.423l3.9333-5.501c1.3176-1.813 2.4729-3.768 3.728-5.635 4.891-7.595 9.2283-15.58 12.972-23.882 3.6807-8.319 6.80503-16.902 9.34872-25.68 4.970276-17.624 7.42488-35.909 7.27869-54.22-.13842-9.138-.888682-18.24-2.244985-27.236-1.419005-8.996-3.496795-17.843-6.214025-26.458-.71641-2.146-1.31722-4.322-2.11005-6.418l-2.34325-6.343c-1.7327-4.137-3.4223-8.283-5.4255-12.275-15.6355-32.456-40.4251-58.604-70.8804-74.765-1.8937-.963-3.748-2.01-5.7065-2.906l-5.8088-2.664c-3.9745-1.574-7.8655-3.242-11.9525-4.499-2.013-.693-4-1.381-6.078-1.901-2.079-.521-4.03-1.159-6.138-1.668l-6.207-1.361c-2.069-.489-4.174-.711-6.257-1.096-4.171-.726-8.414-1.13-12.609-1.783l-138.921-18.6497z"/><path d="m-288.113 104.181 97.316 12.944 24.325 3.265 12.17 1.634c4.111.552 8.099 1.087 12.159 1.708 2.03.363 4.111.551 6.067 1.055l6.033 1.308c1.984.492 3.957 1.073 5.949 1.612 1.993.539 3.944 1.178 5.893 1.831 3.938 1.222 7.742 2.818 11.583 4.344 3.841 1.525 7.5381 3.393 11.1629 5.387 29.5292 15.65 53.5815 40.968 68.7837 72.404 3.8223 7.777 7.0397 15.892 9.6199 24.262 2.6293 8.356 4.6356 16.936 6.0002 25.661 1.3313 8.734 2.07037 17.573 2.2113 26.448.02146 8.877-.52746 17.758-1.6428 26.579-1.2487 8.803-3.0662 17.514-5.439 26.069-2.4632 8.522-5.5023 16.85-9.0926 24.916-3.623 8.053-7.821 15.799-12.5554 23.169-4.6999 7.397-9.944 14.38-15.6802 20.881-11.4277 13.075-24.612 24.227-39.0939 33.067-14.5131 8.763-30.1521 15.079-46.3621 18.722-4.022.967-8.11 1.594-12.191 2.267-4.08.673-8.197.995-12.318 1.135-2.052.116-4.107.248-6.167.212-2.06-.035-4.12.035-6.162-.028l-6.166-.315c-2.054-.08-4.131-.404-6.128-.597-4.134-.389-8.113-1.089-12.182-1.545l-12.183-1.635-24.325-3.266-97.282-13.195.129-.963 133.795 17.962c4.042.542 8.113 1.089 12.167 1.543 2.027.181 4.043.542 6.089.576l6.111.308c2.043.063 4.087.006 6.122.023s4.087-.1 6.126-.218c4.093-.144 8.158-.698 12.222-1.148 4.064-.449 8.112-1.292 12.106-2.263 32.411-7.337 62.0761-25.395 84.8216-51.633 5.6804-6.451 10.8708-13.381 15.5193-20.722 4.6926-7.316 8.8507-15.008 12.4355-23.004 3.5461-8.006 6.5528-16.267 8.9964-24.718 4.7893-16.968 7.1528-34.575 7.0084-52.206-.1292-8.8-.8501-17.567-2.1569-26.23-1.35-8.653-3.3328-17.164-5.9301-25.455-2.5447-8.307-5.7237-16.362-9.5047-24.081-15.0416-31.246-38.899-56.422-68.2128-71.981-3.5973-1.99-7.3497-3.654-11.0807-5.376-3.731-1.721-7.577-3.112-11.487-4.33-1.935-.652-3.869-1.318-5.851-1.826-1.983-.507-3.925-1.115-5.909-1.607l-5.978-1.3c-1.987-.478-4.023-.691-6.026-1.05-4.021-.706-8.113-1.089-12.141-1.736l-133.795-17.961z"/><path d="m-288.983 110.666 93.588 12.443c15.609 2.096 31.193 4.067 46.8 6.283 1.948.352 3.92.526 5.834 1.024l5.802 1.262c3.81 1.024 7.661 1.962 11.386 3.307 3.726 1.344 7.448 2.718 11.144 4.179 3.697 1.461 7.251 3.249 10.745 5.18 14.1128 7.504 27.0144 17.346 38.2441 29.175 11.2113 11.851 20.6307 25.524 27.9288 40.542 3.6704 7.482 6.7613 15.287 9.2418 23.338 2.5286 8.036 4.4577 16.288 5.7691 24.68 1.2946 8.402 2.018 16.906 2.1644 25.447.1781 17.103-2.1152 34.186-6.7977 50.636-2.3915 8.195-5.3316 16.203-8.7971 23.961-3.4781 7.748-7.5154 15.2-12.0739 22.284-4.5135 7.118-9.5543 13.837-15.0715 20.089-22.0851 25.32-50.833 42.718-82.211 49.752-3.885.986-7.809 1.529-11.732 2.178-3.924.649-7.886.961-11.852 1.092s-7.91.204-11.856.187l-5.929-.314c-1.972-.068-3.925-.376-5.895-.565-15.645-1.934-31.191-4.187-46.8-6.283l-93.557-12.68.137-1.021 93.573 12.561c15.595 2.094 31.193 4.278 46.798 6.192 1.944.171 3.878.521 5.856.545l5.875.307c3.92-.002 7.854.105 11.773-.198s7.846-.665 11.756-1.105c3.909-.44 7.796-1.23 11.646-2.16 31.122-7.022 59.6224-24.321 81.5035-49.47 5.4614-6.205 10.4527-12.87 14.9243-19.928 4.5074-7.032 8.5037-14.423 11.9521-22.104 3.4077-7.7 6.2972-15.644 8.6459-23.77 4.6082-16.314 6.8807-33.241 6.7381-50.193-.1223-8.458-.8144-16.883-2.0708-25.208-1.2979-8.32-3.2035-16.503-5.6991-24.475-2.4485-7.988-5.5056-15.733-9.1403-23.157-14.4613-30.04-37.3934-54.247-65.5707-69.215-3.46-1.972-7.076-3.512-10.664-5.154-3.589-1.643-7.299-3-11.048-4.166-3.75-1.167-7.522-2.277-11.305-3.297l-5.745-1.268c-1.92-.454-3.874-.656-5.794-1.004-15.558-2.27-31.191-4.187-46.775-6.37l-93.573-12.562z"/></g></svg>