<!DOCTYPE svg PUBLIC "-//W3C//DTD SVG 1.1//EN" "http://www.w3.org/Graphics/SVG/1.1/DTD/svg11.dtd">
<!-- Uploaded to: SVG Repo, www.svgrepo.com, Transformed by: SVG Repo Mixer Tools -->
<svg width="20px" height="20px" viewBox="0 0 24 24" fill="none" xmlns="http://www.w3.org/2000/svg" stroke="#333333">
<g id="SVGRepo_bgCarrier" stroke-width="0"/>
<g id="SVGRepo_tracerCarrier" stroke-linecap="round" stroke-linejoin="round"/>
<g id="SVGRepo_iconCarrier"> <path d="M20 5C20 6.65685 16.4183 8 12 8C7.58172 8 4 6.65685 4 5M20 5C20 3.34315 16.4183 2 12 2C7.58172 2 4 3.34315 4 5M20 5V19C20 20.6569 16.4183 22 12 22C7.58172 22 4 20.6569 4 19V5M20 9.6666C20 11.3235 16.4183 12.6666 12 12.6666C7.58172 12.6666 4 11.3235 4 9.6666M20 14.33C20 15.9869 16.4183 17.33 12 17.33C7.58172 17.33 4 15.9869 4 14.33" stroke="#333333" stroke-width="2" stroke-linecap="round" stroke-linejoin="round"/> </g>
</svg>