<svg width="66" height="68" viewBox="0 0 66 68" fill="none" xmlns="http://www.w3.org/2000/svg">
<g clip-path="url(#clip0)">
<path d="M65.4985 32.6738C65.4985 14.6329 50.8735 0.0078125 32.8326 0.0078125C14.7917 0.0078125 0.166656 14.6329 0.166656 32.6738V35.007C0.166656 53.0479 14.7917 67.673 32.8326 67.673C50.8735 67.673 65.4985 53.0479 65.4985 35.007V32.6738Z" fill="#041836"/>
<path d="M19.9633 26.8372L29.6327 32.4368L19.9633 37.8433C18.3846 38.8086 17.0032 41.1258 17.0032 42.8636V53.0972C17.0032 55.0278 18.5819 56.5728 20.358 56.5728H43.6439C45.4198 56.5728 46.9985 55.0278 46.9985 53.0972V42.8636C46.9985 40.9326 45.617 38.8086 44.0385 37.8433L34.3689 32.2437L44.0385 26.644C45.617 25.6787 46.9985 23.3616 46.9985 21.4307V11.3901C46.9985 9.45926 45.4198 7.91455 43.6439 7.91455H20.358C18.5819 7.91455 17.0032 9.45926 17.0032 11.3901V21.6238C17.0032 23.5547 18.3846 25.8718 19.9633 26.8372Z" fill="#E1F9FF"/>
<path d="M18.1856 53.0979V42.8642C18.1856 41.3196 19.3696 39.3886 20.5537 38.6165L30.8151 33.0168C31.4073 32.6306 31.4073 32.2446 30.8151 31.8584L20.3563 25.8725C19.1723 25.1003 17.9883 23.1694 17.9883 21.6247V11.391C17.9883 10.0394 18.975 9.07397 20.159 9.07397H43.6422C44.8262 9.07397 45.8128 10.0394 45.8128 11.391V21.6247C45.8128 23.1694 44.6287 25.1003 43.4447 25.8725L32.986 31.8584C32.3938 32.2446 32.3938 32.6306 32.986 33.0168L43.4447 39.0027C44.6287 39.7749 45.8128 41.7058 45.8128 43.2505V53.4841C45.8128 54.8357 44.8262 55.8013 43.6422 55.8013H20.3563C19.1723 55.6082 18.1856 54.4497 18.1856 53.0979Z" fill="white"/>
<path d="M47.3949 4.82495V7.14202C47.3949 7.91436 46.803 8.49363 46.0137 8.49363H17.9917C17.2023 8.49363 16.6104 7.91436 16.6104 7.14202V4.82495H47.3949Z" fill="url(#paint0_linear)"/>
<path d="M16.4111 59.6609V57.3437C16.4111 56.5715 17.0031 55.9922 17.7925 55.9922H45.8145C46.6036 55.9922 47.1957 56.5715 47.1957 57.3437V59.6609H16.4111Z" fill="url(#paint1_linear)"/>
<path d="M46.4047 57.1511C46.4047 57.5374 46.2075 57.7305 45.8128 57.7305H17.9882C17.5935 57.7305 17.3961 57.5374 17.3961 57.1511C17.3961 56.7649 17.5935 56.5718 17.9882 56.5718H45.8128C46.2075 56.5718 46.4047 56.7649 46.4047 57.1511Z" fill="#666B84"/>
<path d="M16.4111 59.6609V57.3437C16.4111 56.5715 17.0031 55.9922 17.7925 55.9922H45.8145C46.6036 55.9922 47.1957 56.5715 47.1957 57.3437V59.6609H16.4111Z" fill="url(#paint2_linear)"/>
<path d="M51.9291 -1.73975V3.47361C51.9291 4.24598 51.3372 4.82523 50.5479 4.82523H13.4484C12.6591 4.82523 12.067 4.24598 12.067 3.47361V-1.73975H51.9291Z" fill="url(#paint3_linear)"/>
<path d="M12.067 66.4204V61.207C12.067 60.4345 12.6591 59.8555 13.4484 59.8555H50.3504C51.1397 59.8555 51.7319 60.4345 51.7319 61.207V66.4204H12.067Z" fill="url(#paint4_linear)"/>
<path d="M33.1795 31.8559L43.6385 25.8704C44.8225 25.0979 46.0066 23.167 46.0066 21.6223V18.3398H18.182V21.6223C18.182 23.167 19.366 25.0979 20.55 25.8704L31.0089 31.8559C31.2061 32.0491 31.4036 32.2422 31.4036 32.4353V47.8823L18.182 50.9717V53.0957C18.182 54.4473 19.1687 55.4126 20.3527 55.4126H43.6385C44.8225 55.4126 45.8091 54.4473 45.8091 53.0957V50.9717L32.5876 47.6892V32.2422C32.7848 32.2422 32.7848 32.0491 33.1795 31.8559Z" fill="url(#paint5_radial)"/>
<path d="M45.4189 7.1423V4.82523H48.1817C48.9711 4.82523 49.563 4.24598 49.563 3.47361V-1.73975H44.6296V3.47361C44.6296 4.24598 44.2349 4.82523 43.643 4.82523H41.6696V7.1423C41.6696 7.91464 41.2749 8.49391 40.683 8.49391H40.2883C40.8802 9.07319 41.2749 10.2317 41.2749 11.3902V21.6239C41.2749 23.5548 40.2883 25.8719 39.3015 26.8372L32.5922 32.4368L39.3015 38.0364C40.4855 39.0018 41.2749 41.3189 41.2749 43.0567V53.2904C41.2749 54.4488 40.8802 55.6072 40.2883 56.1866H40.683C41.2749 56.1866 41.6696 56.766 41.6696 57.5382V59.8553H43.643C44.2349 59.8553 44.6296 60.4347 44.6296 61.2069V66.4203H49.563V61.2069C49.563 60.4347 48.9711 59.8553 48.1817 59.8553H45.4189V57.5382C45.4189 56.766 44.8271 56.1866 44.0377 56.1866H43.4455C44.2349 55.6072 44.8271 54.4488 44.8271 53.2904V43.0567C44.8271 41.1258 43.643 39.0018 42.0643 38.0364L32.9868 32.4368L42.0643 26.8372C43.643 25.8719 44.8271 23.5548 44.8271 21.6239V11.3902C44.8271 10.2317 44.2349 9.07319 43.4455 8.49391H44.0377C44.8271 8.49391 45.4189 7.91464 45.4189 7.1423Z" fill="#041836" fill-opacity="0.2"/>
</g>
<defs>
<linearGradient id="paint0_linear" x1="16.5537" y1="6.73536" x2="47.4768" y2="6.73536" gradientUnits="userSpaceOnUse">
<stop stop-color="#069EFC"/>
<stop offset="1" stop-color="#14F4C9"/>
</linearGradient>
<linearGradient id="paint1_linear" x1="16.4865" y1="57.9049" x2="47.4094" y2="57.9049" gradientUnits="userSpaceOnUse">
<stop stop-color="#069EFC"/>
<stop offset="1" stop-color="#14F4C9"/>
</linearGradient>
<linearGradient id="paint2_linear" x1="16.4865" y1="57.9049" x2="47.4094" y2="57.9049" gradientUnits="userSpaceOnUse">
<stop stop-color="#069EFC"/>
<stop offset="1" stop-color="#14F4C9"/>
</linearGradient>
<linearGradient id="paint3_linear" x1="12.067" y1="1.58618" x2="51.8889" y2="1.58618" gradientUnits="userSpaceOnUse">
<stop stop-color="#069EFC"/>
<stop offset="1" stop-color="#14F4C9"/>
</linearGradient>
<linearGradient id="paint4_linear" x1="12.067" y1="63.0562" x2="51.8889" y2="63.0562" gradientUnits="userSpaceOnUse">
<stop stop-color="#069EFC"/>
<stop offset="1" stop-color="#14F4C9"/>
</linearGradient>
<radialGradient id="paint5_radial" cx="0" cy="0" r="1" gradientUnits="userSpaceOnUse" gradientTransform="translate(31.9754 37.0142) scale(16.5842 16.2271)">
<stop stop-color="#041836"/>
<stop offset="1" stop-color="#2E7DAF"/>
</radialGradient>
<clipPath id="clip0">
<rect width="65.3333" height="67.6667" fill="white" transform="translate(0.166656 0.00683594)"/>
</clipPath>
</defs>
</svg>
