<svg width="66" height="70" viewBox="0 0 66 70" fill="none" xmlns="http://www.w3.org/2000/svg">
<g clip-path="url(#clip0)">
<path d="M66 34.1706C66 16.0856 51.2254 1.4248 33 1.4248C14.7746 1.4248 0 16.0856 0 34.1706V36.5096C0 54.5945 14.7746 69.2553 33 69.2553C51.2254 69.2553 66 54.5945 66 36.5096V34.1706Z" fill="#041836"/>
<path d="M51.6974 61.6665L9.53737 61.544C7.01415 61.544 4.95637 59.0453 4.98087 56.0077L5.07886 22.6177C5.07886 19.5555 7.13664 17.0813 9.65986 17.0813L51.8198 17.2038C54.3431 17.2038 56.4008 19.7025 56.3764 22.7402L56.2784 56.1301C56.2784 59.2168 54.2206 61.691 51.6974 61.6665Z" fill="url(#paint0_linear)"/>
<path d="M11.8407 26.2922L14.168 17.1057H8.95009L5.56946 26.2922H11.8407Z" fill="#FFF4E6"/>
<path d="M27.9597 26.3411H34.231L32.8102 17.1545H27.5922L27.9597 26.3411Z" fill="#FFF4E6"/>
<path d="M23.035 26.3166L23.5004 17.1301H18.258L16.7636 26.3166H23.035Z" fill="#FFF4E6"/>
<path d="M50.3517 26.3901L56.6231 26.4146L51.4296 17.2036H46.2117L50.3517 26.3901Z" fill="#FFF4E6"/>
<path d="M39.1791 26.3657L45.4505 26.3902L42.1188 17.1792H36.9009L39.1791 26.3657Z" fill="#FFF4E6"/>
<path d="M51.4282 17.2036L55.5193 17.2281L51.4282 17.2036Z" fill="url(#paint1_linear)"/>
<path d="M56.6463 26.4146H61.5702L55.5193 17.2281L51.4282 17.2036L56.6218 26.4146H56.6463Z" fill="#FFF4E6"/>
<path d="M56.6463 26.4146H61.5702L55.5193 17.2281L51.4282 17.2036L56.6218 26.4146H56.6463Z" fill="url(#paint2_linear)"/>
<path d="M18.2592 17.1302L14.1682 17.1057L18.2592 17.1302Z" fill="url(#paint3_linear)"/>
<path d="M12.2813 26.2922L16.7644 26.3167L18.2587 17.1302L14.1677 17.1057L11.8404 26.2922H12.2813Z" fill="#FFF4E6"/>
<path d="M12.2813 26.2922L16.7644 26.3167L18.2587 17.1302L14.1677 17.1057L11.8404 26.2922H12.2813Z" fill="url(#paint4_linear)"/>
<path d="M46.2106 17.2037L42.1196 17.1792L46.2106 17.2037Z" fill="url(#paint5_linear)"/>
<path d="M46.8966 26.3902H50.3507L46.2106 17.2037L42.1196 17.1792L45.4512 26.3902H46.8966Z" fill="#FFF4E6"/>
<path d="M46.8966 26.3902H50.3507L46.2106 17.2037L42.1196 17.1792L45.4512 26.3902H46.8966Z" fill="url(#paint6_linear)"/>
<path d="M36.902 17.179L32.811 17.1545L36.902 17.179Z" fill="url(#paint7_linear)"/>
<path d="M34.2562 26.3411L39.1803 26.3656L36.902 17.179L32.811 17.1545L34.2317 26.3411H34.2562Z" fill="#FFF4E6"/>
<path d="M34.2562 26.3411L39.1803 26.3656L36.902 17.179L32.811 17.1545L34.2317 26.3411H34.2562Z" fill="url(#paint8_linear)"/>
<path d="M27.5912 17.1546L23.5002 17.1301L27.5912 17.1546Z" fill="url(#paint9_linear)"/>
<path d="M27.9607 26.3411L27.5933 17.1546L23.5022 17.1301L23.0367 26.3166L27.9607 26.3411Z" fill="#FFF4E6"/>
<path d="M27.9607 26.3411L27.5933 17.1546L23.5022 17.1301L23.0367 26.3166L27.9607 26.3411Z" fill="url(#paint10_linear)"/>
<path d="M8.94842 17.1058L4.85736 17.0813L8.94842 17.1058Z" fill="url(#paint11_linear)"/>
<path d="M3.92888 26.2678L5.57021 26.2923L8.95085 17.1058L4.85979 17.0813L0.64624 26.2678H3.92888Z" fill="#FFF4E6"/>
<path d="M3.92888 26.2678L5.57021 26.2923L8.95085 17.1058L4.85979 17.0813L0.64624 26.2678H3.92888Z" fill="url(#paint12_linear)"/>
<path d="M45.4515 26.39L39.1802 26.3655L39.1557 32.5388H35.8975L45.427 32.5633L45.4515 26.39Z" fill="#FFF4E6"/>
<path d="M34.2302 26.3412H27.9588L27.9344 32.5145H23.0349V26.3167H16.7636L12.2806 26.2922H12.2316L16.7636 26.3167L16.739 32.49H12.8195L34.2302 32.5391L34.2547 26.3412H34.2302Z" fill="#FFF4E6"/>
<path d="M5.57058 26.2922L5.54608 32.4655H11.8174L11.842 26.2922H5.57058Z" fill="#FFF4E6"/>
<path d="M56.6219 32.5877L56.6464 26.4144H56.6219L50.3505 26.3899V32.5633L61.5459 32.6122L56.6219 32.5877Z" fill="#FFF4E6"/>
<path d="M16.7656 26.3167L12.2825 26.2922L16.7656 26.3167Z" fill="#FFF4E6"/>
<path d="M5.56973 26.2923L3.92841 26.2678L5.56973 26.2923Z" fill="#FFF4E6"/>
<path d="M5.5458 32.4654L1.62622 32.4409L5.5458 32.4654Z" fill="url(#paint13_linear)"/>
<path d="M2.11507 26.2678H0.645225L0.620728 32.4412H1.62512L5.54471 32.4657L5.56919 26.2923L2.11507 26.2678Z" fill="#FFF4E6"/>
<path d="M2.11507 26.2678H0.645225L0.620728 32.4412H1.62512L5.54471 32.4657L5.56919 26.2923L2.11507 26.2678Z" fill="url(#paint14_linear)"/>
<path d="M3.92794 26.2678H2.11514L5.56927 26.2923L3.92794 26.2678Z" fill="#FFF4E6"/>
<path d="M3.92794 26.2678H2.11514L5.56927 26.2923L3.92794 26.2678Z" fill="url(#paint15_linear)"/>
<path d="M11.817 32.4653L12.8214 32.4898L11.817 32.4653Z" fill="url(#paint16_linear)"/>
<path d="M16.7655 26.3167L12.2335 26.2922H11.8415L11.817 32.4655L12.8214 32.49H16.741L16.7655 26.3167Z" fill="#FFF4E6"/>
<path d="M16.7655 26.3167L12.2335 26.2922H11.8415L11.817 32.4655L12.8214 32.49H16.741L16.7655 26.3167Z" fill="url(#paint17_linear)"/>
<path d="M23.0372 26.3398L23.0219 32.5132L27.9459 32.5255L27.9613 26.3521L23.0372 26.3398Z" fill="#FFF4E6"/>
<path d="M23.0367 32.5145H27.9362L27.9607 26.3412L23.0367 26.3167V32.5145Z" fill="url(#paint18_linear)"/>
<path d="M34.2543 26.3411L38.1004 26.3656H39.1783L34.2543 26.3411Z" fill="#FFF4E6"/>
<path d="M34.2543 26.3411L38.1004 26.3656H39.1783L34.2543 26.3411Z" fill="url(#paint19_linear)"/>
<path d="M34.2543 26.3411L38.1004 26.3656H39.1783L34.2543 26.3411Z" fill="url(#paint20_linear)"/>
<path d="M39.1794 26.3656H38.1015L34.2555 26.3411L34.231 32.539H35.8968H39.1549L39.1794 26.3656Z" fill="#FFF4E6"/>
<path d="M39.1794 26.3656H38.1015L34.2555 26.3411L34.231 32.539H35.8968H39.1549L39.1794 26.3656Z" fill="url(#paint21_linear)"/>
<path d="M34.2543 26.3411L38.1004 26.3656L34.2543 26.3411Z" fill="#FFF4E6"/>
<path d="M34.2543 26.3411L38.1004 26.3656L34.2543 26.3411Z" fill="url(#paint22_linear)"/>
<path d="M46.895 26.3899H45.4496L45.4251 32.5633H50.3491V26.3899H46.895Z" fill="#FFF4E6"/>
<path d="M46.895 26.3899H45.4496L45.4251 32.5633H50.3491V26.3899H46.895Z" fill="url(#paint23_linear)"/>
<path d="M56.6476 26.4067L56.6321 32.58L61.5561 32.5923L61.5715 26.419L56.6476 26.4067Z" fill="#FFF4E6"/>
<path d="M56.6214 32.5889L61.5454 32.6133L61.5699 26.4155H56.6459L56.6214 32.5889Z" fill="url(#paint24_linear)"/>
<path d="M23.9829 59.1441C26.1877 56.4249 25.8693 52.3828 24.1789 48.9777C21.9497 44.5192 17.3687 40.9915 13.1061 41.114C10.2889 40.8691 3.65009 42.6819 1.46983 49.5902C-4.53203 64.7295 18.4465 66.5423 23.9829 59.1441Z" fill="url(#paint25_linear)"/>
<path opacity="0.8" d="M13.4985 54.0735C16.5117 54.0735 19.0594 51.5258 19.0594 48.5126C19.0594 45.4995 16.5117 42.9517 13.4985 42.9517C10.4853 42.9517 7.93756 45.4995 7.93756 48.5126C7.93756 51.6973 10.3138 54.0735 13.4985 54.0735Z" fill="white"/>
<path d="M15.4568 50.9619C17.3677 49.9331 18.0046 47.5078 17.0001 45.7195C15.9713 43.8087 13.546 43.1718 11.7577 44.1762C9.84693 45.205 9.20999 47.6303 10.2144 49.4186C11.2433 51.3539 13.546 51.9909 15.4568 50.9619Z" fill="url(#paint26_radial)"/>
<path d="M17.7128 56.5719C17.3944 55.6166 16.7574 55.2981 13.2298 55.2981C9.70218 55.2981 9.06525 55.6166 8.74678 56.5719C8.45281 57.4294 9.21223 58.2868 12.1275 59.1687C12.8378 59.3891 13.5972 59.3891 14.3077 59.1687C17.2718 58.2868 18.0068 57.4294 17.7128 56.5719Z" fill="black"/>
<path d="M44.9837 46.7232L35.3807 46.6743C34.8908 46.6743 34.4988 46.2823 34.5232 45.7924C34.5232 45.3025 34.9153 44.9104 35.4052 44.9349L45.0082 44.9839C45.4981 44.9839 45.8901 45.3759 45.8656 45.8658C45.8656 46.3313 45.4736 46.7232 44.9837 46.7232Z" fill="url(#paint27_linear)"/>
<path d="M59.6827 50.9855L54.3424 50.9365C53.8524 50.9365 53.4605 50.5446 53.4849 50.0546C53.4849 49.5647 53.8769 49.1726 54.3669 49.1971L59.7072 49.2462C60.1972 49.2462 60.5892 49.6381 60.5647 50.1281C60.5402 50.5935 60.1482 50.9855 59.6827 50.9855Z" fill="url(#paint28_linear)"/>
<path d="M49.3687 50.9855L35.3807 50.9365C34.8908 50.9365 34.4988 50.5446 34.5232 50.0546C34.5232 49.5647 34.9153 49.1726 35.4052 49.1971L49.3932 49.2462C49.8832 49.2462 50.2751 49.6381 50.2506 50.1281C50.2506 50.5935 49.8587 50.9855 49.3687 50.9855Z" fill="url(#paint29_linear)"/>
<path d="M59.1912 46.8948H53.4588C52.5034 46.8948 51.7195 46.1108 51.7195 45.1555L51.744 37.0713C51.744 36.1159 52.5279 35.332 53.4833 35.332H59.2157C60.1711 35.332 60.9551 36.1159 60.9551 37.0713L60.9305 45.1555C60.9305 46.1353 60.1466 46.8948 59.1912 46.8948Z" fill="url(#paint30_linear)"/>
<path d="M59.6579 55.2731L42.8527 55.2241C42.3628 55.2241 41.9708 54.832 41.9953 54.3422C41.9953 53.8522 42.3872 53.4602 42.8772 53.4847L59.6824 53.5337C60.1723 53.5337 60.5643 53.9256 60.5399 54.4156C60.5399 54.881 60.1478 55.2731 59.6579 55.2731Z" fill="url(#paint31_linear)"/>
<path d="M59.6571 59.5353L50.3481 59.4863C49.8581 59.4863 49.4662 59.0944 49.4907 58.6044C49.4907 58.1144 49.8826 57.7224 50.3726 57.7469L59.6815 57.7959C60.1715 57.7959 60.5635 58.188 60.539 58.6778C60.5145 59.1433 60.1226 59.5353 59.6571 59.5353Z" fill="url(#paint32_linear)"/>
</g>
<defs>
<linearGradient id="paint0_linear" x1="4.97707" y1="39.3929" x2="56.3824" y2="39.4187" gradientUnits="userSpaceOnUse">
<stop stop-color="#2E7DAF"/>
<stop offset="1" stop-color="#041836"/>
</linearGradient>
<linearGradient id="paint1_linear" x1="53.4792" y1="26.4205" x2="53.4792" y2="17.2068" gradientUnits="userSpaceOnUse">
<stop stop-color="#069EFC"/>
<stop offset="1" stop-color="#14F4C9"/>
</linearGradient>
<linearGradient id="paint2_linear" x1="56.4943" y1="26.4205" x2="56.4943" y2="17.2069" gradientUnits="userSpaceOnUse">
<stop stop-color="#069EFC"/>
<stop offset="1" stop-color="#14F4C9"/>
</linearGradient>
<linearGradient id="paint3_linear" x1="16.2204" y1="26.3093" x2="16.2204" y2="17.1144" gradientUnits="userSpaceOnUse">
<stop stop-color="#069EFC"/>
<stop offset="1" stop-color="#14F4C9"/>
</linearGradient>
<linearGradient id="paint4_linear" x1="15.0557" y1="26.3093" x2="15.0557" y2="17.1144" gradientUnits="userSpaceOnUse">
<stop stop-color="#069EFC"/>
<stop offset="1" stop-color="#14F4C9"/>
</linearGradient>
<linearGradient id="paint5_linear" x1="44.1666" y1="26.3928" x2="44.1666" y2="17.1838" gradientUnits="userSpaceOnUse">
<stop stop-color="#069EFC"/>
<stop offset="1" stop-color="#14F4C9"/>
</linearGradient>
<linearGradient id="paint6_linear" x1="46.2399" y1="26.3927" x2="46.2399" y2="17.1839" gradientUnits="userSpaceOnUse">
<stop stop-color="#069EFC"/>
<stop offset="1" stop-color="#14F4C9"/>
</linearGradient>
<linearGradient id="paint7_linear" x1="34.8532" y1="26.3648" x2="34.8532" y2="17.1605" gradientUnits="userSpaceOnUse">
<stop stop-color="#069EFC"/>
<stop offset="1" stop-color="#14F4C9"/>
</linearGradient>
<linearGradient id="paint8_linear" x1="35.9861" y1="26.3648" x2="35.9861" y2="17.1605" gradientUnits="userSpaceOnUse">
<stop stop-color="#069EFC"/>
<stop offset="1" stop-color="#14F4C9"/>
</linearGradient>
<linearGradient id="paint9_linear" x1="25.5376" y1="26.337" x2="25.5376" y2="17.1375" gradientUnits="userSpaceOnUse">
<stop stop-color="#069EFC"/>
<stop offset="1" stop-color="#14F4C9"/>
</linearGradient>
<linearGradient id="paint10_linear" x1="25.5085" y1="26.337" x2="25.5085" y2="17.1375" gradientUnits="userSpaceOnUse">
<stop stop-color="#069EFC"/>
<stop offset="1" stop-color="#14F4C9"/>
</linearGradient>
<linearGradient id="paint11_linear" x1="6.90536" y1="26.2816" x2="6.90536" y2="17.0913" gradientUnits="userSpaceOnUse">
<stop stop-color="#069EFC"/>
<stop offset="1" stop-color="#14F4C9"/>
</linearGradient>
<linearGradient id="paint12_linear" x1="4.80127" y1="26.2816" x2="4.80127" y2="17.0914" gradientUnits="userSpaceOnUse">
<stop stop-color="#069EFC"/>
<stop offset="1" stop-color="#14F4C9"/>
</linearGradient>
<linearGradient id="paint13_linear" x1="3.58621" y1="32.4619" x2="3.58621" y2="26.2673" gradientUnits="userSpaceOnUse">
<stop stop-color="#069EFC"/>
<stop offset="1" stop-color="#14F4C9"/>
</linearGradient>
<linearGradient id="paint14_linear" x1="3.09153" y1="32.4621" x2="3.09153" y2="26.2693" gradientUnits="userSpaceOnUse">
<stop stop-color="#069EFC"/>
<stop offset="1" stop-color="#14F4C9"/>
</linearGradient>
<linearGradient id="paint15_linear" x1="3.83836" y1="32.4625" x2="3.83836" y2="26.2693" gradientUnits="userSpaceOnUse">
<stop stop-color="#069EFC"/>
<stop offset="1" stop-color="#14F4C9"/>
</linearGradient>
<linearGradient id="paint16_linear" x1="12.325" y1="32.4895" x2="12.325" y2="26.2964" gradientUnits="userSpaceOnUse">
<stop stop-color="#069EFC"/>
<stop offset="1" stop-color="#14F4C9"/>
</linearGradient>
<linearGradient id="paint17_linear" x1="14.2946" y1="32.4898" x2="14.2946" y2="26.297" gradientUnits="userSpaceOnUse">
<stop stop-color="#069EFC"/>
<stop offset="1" stop-color="#14F4C9"/>
</linearGradient>
<linearGradient id="paint18_linear" x1="25.4979" y1="32.5175" x2="25.4979" y2="26.3248" gradientUnits="userSpaceOnUse">
<stop stop-color="#069EFC"/>
<stop offset="1" stop-color="#14F4C9"/>
</linearGradient>
<linearGradient id="paint19_linear" x1="36.7091" y1="26.3648" x2="36.7091" y2="17.1601" gradientUnits="userSpaceOnUse">
<stop stop-color="#069EFC"/>
<stop offset="1" stop-color="#14F4C9"/>
</linearGradient>
<linearGradient id="paint20_linear" x1="36.7091" y1="32.5456" x2="36.7091" y2="26.3526" gradientUnits="userSpaceOnUse">
<stop stop-color="#069EFC"/>
<stop offset="1" stop-color="#14F4C9"/>
</linearGradient>
<linearGradient id="paint21_linear" x1="36.6997" y1="32.5454" x2="36.6997" y2="26.3526" gradientUnits="userSpaceOnUse">
<stop stop-color="#069EFC"/>
<stop offset="1" stop-color="#14F4C9"/>
</linearGradient>
<linearGradient id="paint22_linear" x1="36.1698" y1="32.5456" x2="36.1698" y2="26.3526" gradientUnits="userSpaceOnUse">
<stop stop-color="#069EFC"/>
<stop offset="1" stop-color="#14F4C9"/>
</linearGradient>
<linearGradient id="paint23_linear" x1="47.8882" y1="32.5729" x2="47.8882" y2="26.3802" gradientUnits="userSpaceOnUse">
<stop stop-color="#069EFC"/>
<stop offset="1" stop-color="#14F4C9"/>
</linearGradient>
<linearGradient id="paint24_linear" x1="59.0914" y1="32.602" x2="59.0914" y2="26.4092" gradientUnits="userSpaceOnUse">
<stop stop-color="#069EFC"/>
<stop offset="1" stop-color="#14F4C9"/>
</linearGradient>
<linearGradient id="paint25_linear" x1="12.4663" y1="41.1037" x2="13.3309" y2="63.3542" gradientUnits="userSpaceOnUse">
<stop stop-color="#14F4C9"/>
<stop offset="0.0940217" stop-color="#10DBD8"/>
<stop offset="0.2042" stop-color="#0CC5E5"/>
<stop offset="0.3258" stop-color="#0AB6EE"/>
<stop offset="0.4663" stop-color="#08ADF3"/>
<stop offset="0.6695" stop-color="#08AAF5"/>
<stop offset="0.7685" stop-color="#08ADF3"/>
<stop offset="0.8381" stop-color="#0AB6EE"/>
<stop offset="0.8988" stop-color="#0CC6E5"/>
<stop offset="0.954" stop-color="#10DBD8"/>
<stop offset="1" stop-color="#14F4C9"/>
</linearGradient>
<radialGradient id="paint26_radial" cx="0" cy="0" r="1" gradientUnits="userSpaceOnUse" gradientTransform="translate(15.1439 46.0013) scale(5.40153)">
<stop stop-color="#041836"/>
<stop offset="1" stop-color="#2E7DAF"/>
</radialGradient>
<linearGradient id="paint27_linear" x1="34.5157" y1="45.8296" x2="45.8603" y2="45.8296" gradientUnits="userSpaceOnUse">
<stop stop-color="#069EFC"/>
<stop offset="1" stop-color="#14F4C9"/>
</linearGradient>
<linearGradient id="paint28_linear" x1="53.474" y1="50.1005" x2="60.547" y2="50.1005" gradientUnits="userSpaceOnUse">
<stop stop-color="#069EFC"/>
<stop offset="1" stop-color="#14F4C9"/>
</linearGradient>
<linearGradient id="paint29_linear" x1="34.5033" y1="50.1005" x2="50.2458" y2="50.1005" gradientUnits="userSpaceOnUse">
<stop stop-color="#069EFC"/>
<stop offset="1" stop-color="#14F4C9"/>
</linearGradient>
<linearGradient id="paint30_linear" x1="51.7245" y1="41.228" x2="60.948" y2="41.2521" gradientUnits="userSpaceOnUse">
<stop stop-color="#069EFC"/>
<stop offset="1" stop-color="#14F4C9"/>
</linearGradient>
<linearGradient id="paint31_linear" x1="41.9876" y1="54.3731" x2="60.5341" y2="54.3731" gradientUnits="userSpaceOnUse">
<stop stop-color="#069EFC"/>
<stop offset="1" stop-color="#14F4C9"/>
</linearGradient>
<linearGradient id="paint32_linear" x1="49.4707" y1="58.6442" x2="60.5209" y2="58.6442" gradientUnits="userSpaceOnUse">
<stop stop-color="#069EFC"/>
<stop offset="1" stop-color="#14F4C9"/>
</linearGradient>
<clipPath id="clip0">
<rect width="66" height="69" fill="white" transform="translate(0 0.840088)"/>
</clipPath>
</defs>
</svg>
