<?xml version="1.0" standalone="yes"?>
<svg xmlns="http://www.w3.org/2000/svg" width="405" height="405">
<path style="fill:transparent; stroke:none;" d="M0 0L0 197L1 197C3.77034 178.517 27.4852 162.515 40 150L148 42C160.941 29.0593 177.919 3.86014 197 1L178 0L138 0L0 0z"/>
<path style="fill:#ffcd01; stroke:none;" d="M104 86L125 105L125 106L105 126L104 126L85 105C59.9813 122.624 38.6595 150.339 17 172C6.61046 182.39 -2.68567 193.276 0.668981 209C3.21865 220.951 12.734 228.734 21 237L63 279C67.5131 283.513 78.3151 298.793 85 298.793C91.0557 298.793 100.771 285.584 104 281L105 281L125 301L125 302C120.416 305.229 107.207 314.944 107.207 321C107.207 325.101 113.383 329.383 116 332L142 358C158.955 374.955 182.22 410.849 210 404.1C221.425 401.325 229.019 391.981 237 384L278 343C282.513 338.487 297.793 327.685 297.793 321C297.793 314.944 284.584 305.229 280 302L280 301L300 281L301 281C304.229 285.584 313.944 298.793 320 298.793C326.685 298.793 337.487 283.513 342 279L384 237C392.266 228.734 401.781 220.951 404.331 209C407.686 193.276 398.39 182.39 388 172C366.34 150.339 345.019 122.624 320 105L301 126L300 126L280 106L280 105L301 86C284.15 62.0789 257.709 41.7087 237 21C227.201 11.2007 217.945 0.21167 203 0.0185242C187.552 -0.181122 178.103 10.8971 168 21C147.291 41.7087 120.85 62.0789 104 86z"/>
<path style="fill:transparent; stroke:none;" d="M208 0L208 1C227.081 3.86014 244.059 29.0593 257 42L365 150C377.515 162.515 401.23 178.517 404 197L405 197L405 0L208 0z"/>
<path style="fill:#7b6301; stroke:none;" d="M103 86L104 87L103 86z"/>
<path style="fill:#020201; stroke:none;" d="M104 125L105 125L124 106C120.266 100.699 111.527 89.0134 105 87.4576C99.3085 86.1009 85.1009 100.309 86.4576 106C88.0515 112.687 99.2277 120.228 104 125z"/>
<path style="fill:#bc9701; stroke:none;" d="M105 86L106 87L105 86M299 86L280 106C285.875 101.861 297.28 93.0939 299 86z"/>
<path style="fill:#020201; stroke:none;" d="M281 105L281 106L300 125C305.301 121.266 316.987 112.527 318.542 106C319.899 100.309 305.691 86.1009 300 87.4576C293.313 89.0515 285.772 100.228 281 105z"/>
<path style="fill:#7b6301; stroke:none;" d="M301 86L302 87L301 86z"/>
<path style="fill:#bc9701; stroke:none;" d="M106 87L107 88L106 87M107 88L108 89L107 88M108 89L109 90L108 89M109 90L110 91L109 90M110 91L111 92L110 91M111 92L112 93L111 92M112 93L113 94L112 93M113 94L114 95L113 94M114 95L115 96L114 95M115 96L116 97L115 96M116 97L117 98L116 97M117 98L118 99L117 98M118 99L119 100L118 99M119 100L120 101L119 100M120 101L121 102L120 101M121 102L122 103L121 102M122 103L123 104L122 103z"/>
<path style="fill:#7b6301; stroke:none;" d="M85 104L86 105L85 104z"/>
<path style="fill:#bc9701; stroke:none;" d="M123 104L124 105L123 104z"/>
<path style="fill:#7b6301; stroke:none;" d="M319 104L320 105L319 104z"/>
<path style="fill:#bc9701; stroke:none;" d="M124 105L125 106L124 105M85 106L86 107L85 106z"/>
<path style="fill:#7b6301; stroke:none;" d="M123 106L124 107L123 106M281 106L282 107L281 106z"/>
<path style="fill:#bc9701; stroke:none;" d="M319 106L320 107L319 106M86 107L87 108L86 107z"/>
<path style="fill:#7b6301; stroke:none;" d="M122 107L123 108L122 107M282 107L283 108L282 107z"/>
<path style="fill:#bc9701; stroke:none;" d="M318 107L319 108L318 107M87 108L88 109L87 108M121 108L122 109L121 108M283 108L284 109L283 108M317 108L318 109L317 108M88 109L89 110L88 109M120 109L121 110L120 109M284 109L285 110L284 109M316 109L317 110L316 109M89 110L90 111L89 110M315 110L316 111L315 110M90 111L91 112L90 111M314 111L315 112L314 111M91 112L92 113L91 112z"/>
<path style="fill:#7b6301; stroke:none;" d="M116 112L117 113L116 112M288 112L289 113L288 112z"/>
<path style="fill:#bc9701; stroke:none;" d="M313 112L314 113L313 112M92 113L93 114L92 113z"/>
<path style="fill:#7b6301; stroke:none;" d="M115 113L116 114L115 113M289 113L290 114L289 113z"/>
<path style="fill:#bc9701; stroke:none;" d="M312 113L313 114L312 113M93 114L94 115L93 114z"/>
<path style="fill:#7b6301; stroke:none;" d="M114 114L115 115L114 114M290 114L291 115L290 114z"/>
<path style="fill:#bc9701; stroke:none;" d="M311 114L312 115L311 114M94 115L95 116L94 115z"/>
<path style="fill:#7b6301; stroke:none;" d="M113 115L114 116L113 115M291 115L292 116L291 115z"/>
<path style="fill:#bc9701; stroke:none;" d="M310 115L311 116L310 115M95 116L96 117L95 116z"/>
<path style="fill:#7b6301; stroke:none;" d="M112 116L113 117L112 116M292 116L293 117L292 116z"/>
<path style="fill:#bc9701; stroke:none;" d="M309 116L310 117L309 116M96 117L97 118L96 117z"/>
<path style="fill:#7b6301; stroke:none;" d="M111 117L112 118L111 117M293 117L294 118L293 117z"/>
<path style="fill:#bc9701; stroke:none;" d="M308 117L309 118L308 117M97 118L98 119L97 118M307 118L308 119L307 118M98 119L99 120L98 119M306 119L307 120L306 119M99 120L100 121L99 120z"/>
<path style="fill:#020201; stroke:none;" d="M138 120C127.364 130.179 117.425 139.872 110.309 153C84.398 200.795 100.936 251.527 138 287L139 287L158 266C132.511 250.057 120.975 216.647 126.807 188C128.897 177.736 134.489 169.59 138 160C161.557 176.594 181.607 202.607 202 223L203 223C223.393 202.607 243.443 176.594 267 160C270.511 169.59 276.103 177.736 278.193 188C284.025 216.647 272.488 250.057 247 266L266 287L267 287C304.064 251.527 320.602 200.795 294.691 153C287.574 139.872 277.636 130.179 267 120L266 120C245.607 140.393 219.594 160.443 203 184L202 184L170 151L138 120z"/>
<path style="fill:#bc9701; stroke:none;" d="M139 120L140 121L139 120M265 120L266 121L265 120M305 120L306 121L305 120M100 121L101 122L100 121M108 121L109 122L108 121M136 121L137 122L136 121M140 121L141 122L140 121M264 121L265 122L264 121M268 121L269 122L268 121M296 121L297 122L296 121M304 121L305 122L304 121M101 122L102 123L101 122M107 122L108 123L107 122z"/>
<path style="fill:#7b6301; stroke:none;" d="M135 122L136 123L135 122z"/>
<path style="fill:#bc9701; stroke:none;" d="M141 122L142 123L141 122M263 122L264 123L263 122z"/>
<path style="fill:#7b6301; stroke:none;" d="M269 122L270 123L269 122z"/>
<path style="fill:#bc9701; stroke:none;" d="M297 122L298 123L297 122M303 122L304 123L303 122M102 123L103 124L102 123z"/>
<path style="fill:#7b6301; stroke:none;" d="M106 123L107 124L106 123M134 123L135 124L134 123z"/>
<path style="fill:#bc9701; stroke:none;" d="M142 123L143 124L142 123M262 123L263 124L262 123z"/>
<path style="fill:#7b6301; stroke:none;" d="M270 123L271 124L270 123M298 123L299 124L298 123z"/>
<path style="fill:#bc9701; stroke:none;" d="M302 123L303 124L302 123M103 124L104 125L103 124z"/>
<path style="fill:#7b6301; stroke:none;" d="M105 124L106 125L105 124M133 124L134 125L133 124z"/>
<path style="fill:#bc9701; stroke:none;" d="M143 124L144 125L143 124M261 124L262 125L261 124z"/>
<path style="fill:#7b6301; stroke:none;" d="M271 124L272 125L271 124M299 124L300 125L299 124z"/>
<path style="fill:#bc9701; stroke:none;" d="M301 124L302 125L301 124M104 125L105 126L104 125M144 125L145 126L144 125M260 125L261 126L260 125M300 125L301 126L300 125M145 126L146 127L145 126M259 126L260 127L259 126M129 127L130 128L129 127M146 127L147 128L146 127M258 127L259 128L258 127M275 127L276 128L275 127M128 128L129 129L128 128M147 128L148 129L147 128M257 128L258 129L257 128M276 128L277 129L276 128M127 129L128 130L127 129M148 129L149 130L148 129M256 129L257 130L256 129M277 129L278 130L277 129M126 130L127 131L126 130M149 130L150 131L149 130M255 130L256 131L255 130M278 130L279 131L278 130M150 131L151 132L150 131M254 131L255 132L254 131M151 132L152 133L151 132M253 132L254 133L253 132M152 133L153 134L152 133M252 133L253 134L252 133z"/>
<path style="fill:#7b6301; stroke:none;" d="M123 134L124 135L123 134z"/>
<path style="fill:#bc9701; stroke:none;" d="M153 134L154 135L153 134M251 134L252 135L251 134z"/>
<path style="fill:#7b6301; stroke:none;" d="M281 134L282 135L281 134M122 135L123 136L122 135z"/>
<path style="fill:#bc9701; stroke:none;" d="M154 135L155 136L154 135M250 135L251 136L250 135z"/>
<path style="fill:#7b6301; stroke:none;" d="M282 135L283 136L282 135M121 136L122 137L121 136z"/>
<path style="fill:#bc9701; stroke:none;" d="M155 136L156 137L155 136M249 136L250 137L249 136z"/>
<path style="fill:#7b6301; stroke:none;" d="M283 136L284 137L283 136z"/>
<path style="fill:#bc9701; stroke:none;" d="M120 137L121 138L120 137M156 137L157 138L156 137M248 137L249 138L248 137M284 137L285 138L284 137M157 138L158 139L157 138M247 138L248 139L247 138M158 139L159 140L158 139M246 139L247 140L246 139z"/>
<path style="fill:#7b6301; stroke:none;" d="M118 140L119 141L118 140z"/>
<path style="fill:#bc9701; stroke:none;" d="M159 140L160 141L159 140M245 140L246 141L245 140z"/>
<path style="fill:#7b6301; stroke:none;" d="M286 140L287 141L286 140z"/>
<path style="fill:#bc9701; stroke:none;" d="M117 141L118 142L117 141M160 141L161 142L160 141M244 141L245 142L244 141M287 141L288 142L287 141M161 142L162 143L161 142M243 142L244 143L243 142z"/>
<path style="fill:#7b6301; stroke:none;" d="M116 143L117 144L116 143z"/>
<path style="fill:#bc9701; stroke:none;" d="M162 143L163 144L162 143M242 143L243 144L242 143z"/>
<path style="fill:#7b6301; stroke:none;" d="M288 143L289 144L288 143M115 144L116 145L115 144z"/>
<path style="fill:#bc9701; stroke:none;" d="M163 144L164 145L163 144M241 144L242 145L241 144z"/>
<path style="fill:#7b6301; stroke:none;" d="M289 144L290 145L289 144z"/>
<path style="fill:#bc9701; stroke:none;" d="M114 145L115 146L114 145M164 145L165 146L164 145M240 145L241 146L240 145M290 145L291 146L290 145M165 146L166 147L165 146M239 146L240 147L239 146z"/>
<path style="fill:#7b6301; stroke:none;" d="M113 147L114 148L113 147z"/>
<path style="fill:#bc9701; stroke:none;" d="M166 147L167 148L166 147M238 147L239 148L238 147z"/>
<path style="fill:#7b6301; stroke:none;" d="M291 147L292 148L291 147z"/>
<path style="fill:#bc9701; stroke:none;" d="M167 148L168 149L167 148M237 148L238 149L237 148z"/>
<path style="fill:#7b6301; stroke:none;" d="M112 149L113 150L112 149z"/>
<path style="fill:#bc9701; stroke:none;" d="M168 149L169 150L168 149M236 149L237 150L236 149z"/>
<path style="fill:#7b6301; stroke:none;" d="M292 149L293 150L292 149z"/>
<path style="fill:#bc9701; stroke:none;" d="M111 150L112 151L111 150M169 150L170 151L169 150M235 150L236 151L235 150M293 150L294 151L293 150M170 151L171 152L170 151M234 151L235 152L234 151M110 152L111 153L110 152M171 152L172 153L171 152M233 152L234 153L233 152M294 152L295 153L294 152M172 153L173 154L172 153M232 153L233 154L232 153z"/>
<path style="fill:#7b6301; stroke:none;" d="M109 154L110 155L109 154z"/>
<path style="fill:#bc9701; stroke:none;" d="M173 154L174 155L173 154M231 154L232 155L231 154z"/>
<path style="fill:#7b6301; stroke:none;" d="M295 154L296 155L295 154z"/>
<path style="fill:#bc9701; stroke:none;" d="M174 155L175 156L174 155M230 155L231 156L230 155z"/>
<path style="fill:#7b6301; stroke:none;" d="M108 156L109 157L108 156z"/>
<path style="fill:#bc9701; stroke:none;" d="M175 156L176 157L175 156M229 156L230 157L229 156z"/>
<path style="fill:#7b6301; stroke:none;" d="M296 156L297 157L296 156z"/>
<path style="fill:#bc9701; stroke:none;" d="M176 157L177 158L176 157M228 157L229 158L228 157z"/>
<path style="fill:#7b6301; stroke:none;" d="M107 158L108 159L107 158z"/>
<path style="fill:#bc9701; stroke:none;" d="M177 158L178 159L177 158M227 158L228 159L227 158z"/>
<path style="fill:#7b6301; stroke:none;" d="M297 158L298 159L297 158z"/>
<path style="fill:#bc9701; stroke:none;" d="M178 159L179 160L178 159M226 159L227 160L226 159z"/>
<path style="fill:#7b6301; stroke:none;" d="M106 160L107 161L106 160M138 160L139 161L138 160z"/>
<path style="fill:#bc9701; stroke:none;" d="M139 160L140 161L139 160M179 160L180 161L179 160M225 160L226 161L225 160M265 160L266 161L265 160z"/>
<path style="fill:#7b6301; stroke:none;" d="M266 160L267 161L266 160M298 160L299 161L298 160z"/>
<path style="fill:#bc9701; stroke:none;" d="M140 161L141 162L140 161M180 161L181 162L180 161M224 161L225 162L224 161M264 161L265 162L264 161M105 162L106 163L105 162M137 162L138 163L137 162M141 162L142 163L141 162M181 162L182 163L181 162M223 162L224 163L223 162M263 162L264 163L263 162M267 162L268 163L267 162M299 162L300 163L299 162z"/>
<path style="fill:#7b6301; stroke:none;" d="M105 163L106 164L105 163M136 163L137 164L136 163z"/>
<path style="fill:#bc9701; stroke:none;" d="M142 163L143 164L142 163M182 163L183 164L182 163M222 163L223 164L222 163M262 163L263 164L262 163z"/>
<path style="fill:#7b6301; stroke:none;" d="M268 163L269 164L268 163M299 163L300 164L299 163z"/>
<path style="fill:#bc9701; stroke:none;" d="M143 164L144 165L143 164M183 164L184 165L183 164M221 164L222 165L221 164M261 164L262 165L261 164z"/>
<path style="fill:#7b6301; stroke:none;" d="M104 165L105 166L104 165z"/>
<path style="fill:#bc9701; stroke:none;" d="M135 165L136 166L135 165M144 165L145 166L144 165M184 165L185 166L184 165M220 165L221 166L220 165M260 165L261 166L260 165M269 165L270 166L269 165z"/>
<path style="fill:#7b6301; stroke:none;" d="M300 165L301 166L300 165z"/>
<path style="fill:#bc9701; stroke:none;" d="M145 166L146 167L145 166M185 166L186 167L185 166M219 166L220 167L219 166M259 166L260 167L259 166M103 167L104 168L103 167M134 167L135 168L134 167M146 167L147 168L146 167M186 167L187 168L186 167M218 167L219 168L218 167M258 167L259 168L258 167M270 167L271 168L270 167M301 167L302 168L301 167z"/>
<path style="fill:#7b6301; stroke:none;" d="M103 168L104 169L103 168M133 168L134 169L133 168z"/>
<path style="fill:#bc9701; stroke:none;" d="M147 168L148 169L147 168M187 168L188 169L187 168M217 168L218 169L217 168M257 168L258 169L257 168z"/>
<path style="fill:#7b6301; stroke:none;" d="M271 168L272 169L271 168M301 168L302 169L301 168z"/>
<path style="fill:#bc9701; stroke:none;" d="M133 169L134 170L133 169M148 169L149 170L148 169M188 169L189 170L188 169M216 169L217 170L216 169M256 169L257 170L256 169M271 169L272 170L271 169M102 170L103 171L102 170z"/>
<path style="fill:#7b6301; stroke:none;" d="M132 170L133 171L132 170z"/>
<path style="fill:#bc9701; stroke:none;" d="M149 170L150 171L149 170M189 170L190 171L189 170M215 170L216 171L215 170M255 170L256 171L255 170z"/>
<path style="fill:#7b6301; stroke:none;" d="M272 170L273 171L272 170z"/>
<path style="fill:#bc9701; stroke:none;" d="M302 170L303 171L302 170z"/>
<path style="fill:#7b6301; stroke:none;" d="M102 171L103 172L102 171z"/>
<path style="fill:#bc9701; stroke:none;" d="M132 171L133 172L132 171M150 171L151 172L150 171M190 171L191 172L190 171M214 171L215 172L214 171M254 171L255 172L254 171M272 171L273 172L272 171z"/>
<path style="fill:#7b6301; stroke:none;" d="M302 171L303 172L302 171z"/>
<path style="fill:#bc9701; stroke:none;" d="M151 172L152 173L151 172M191 172L192 173L191 172M213 172L214 173L213 172M253 172L254 173L253 172M101 173L102 174L101 173z"/>
<path style="fill:#7b6301; stroke:none;" d="M131 173L132 174L131 173z"/>
<path style="fill:#bc9701; stroke:none;" d="M152 173L153 174L152 173M192 173L193 174L192 173M212 173L213 174L212 173M252 173L253 174L252 173z"/>
<path style="fill:#7b6301; stroke:none;" d="M273 173L274 174L273 173z"/>
<path style="fill:#bc9701; stroke:none;" d="M303 173L304 174L303 173z"/>
<path style="fill:#7b6301; stroke:none;" d="M101 174L102 175L101 174z"/>
<path style="fill:#bc9701; stroke:none;" d="M153 174L154 175L153 174M193 174L194 175L193 174M211 174L212 175L211 174M251 174L252 175L251 174z"/>
<path style="fill:#7b6301; stroke:none;" d="M303 174L304 175L303 174M130 175L131 176L130 175z"/>
<path style="fill:#bc9701; stroke:none;" d="M154 175L155 176L154 175M194 175L195 176L194 175M210 175L211 176L210 175M250 175L251 176L250 175z"/>
<path style="fill:#7b6301; stroke:none;" d="M274 175L275 176L274 175z"/>
<path style="fill:#bc9701; stroke:none;" d="M130 176L131 177L130 176M155 176L156 177L155 176M195 176L196 177L195 176M209 176L210 177L209 176M249 176L250 177L249 176M274 176L275 177L274 176M100 177L101 178L100 177M156 177L157 178L156 177M196 177L197 178L196 177M208 177L209 178L208 177M248 177L249 178L248 177M304 177L305 178L304 177z"/>
<path style="fill:#7b6301; stroke:none;" d="M100 178L101 179L100 178M129 178L130 179L129 178z"/>
<path style="fill:#bc9701; stroke:none;" d="M157 178L158 179L157 178M197 178L198 179L197 178M207 178L208 179L207 178M247 178L248 179L247 178z"/>
<path style="fill:#7b6301; stroke:none;" d="M275 178L276 179L275 178M304 178L305 179L304 178z"/>
<path style="fill:#bc9701; stroke:none;" d="M129 179L130 180L129 179M158 179L159 180L158 179M198 179L199 180L198 179M206 179L207 180L206 179M246 179L247 180L246 179M275 179L276 180L275 179M159 180L160 181L159 180M199 180L200 181L199 180M205 180L206 181L205 180M245 180L246 181L245 180M99 181L100 182L99 181z"/>
<path style="fill:#7b6301; stroke:none;" d="M128 181L129 182L128 181z"/>
<path style="fill:#bc9701; stroke:none;" d="M160 181L161 182L160 181M200 181L201 182L200 181M204 181L205 182L204 181M244 181L245 182L244 181z"/>
<path style="fill:#7b6301; stroke:none;" d="M276 181L277 182L276 181z"/>
<path style="fill:#bc9701; stroke:none;" d="M305 181L306 182L305 181z"/>
<path style="fill:#7b6301; stroke:none;" d="M99.3333 182.667L99.6667 183.333L99.3333 182.667z"/>
<path style="fill:#bc9701; stroke:none;" d="M128 182L129 183L128 182M161 182L162 183L161 182M201 182L202 183L201 182M203 182L204 183L203 182M243 182L244 183L243 182M276 182L277 183L276 182z"/>
<path style="fill:#7b6301; stroke:none;" d="M305.333 182.667L305.667 183.333L305.333 182.667z"/>
<path style="fill:#bc9701; stroke:none;" d="M162 183L163 184L162 183z"/>
<path style="fill:#7b6301; stroke:none;" d="M202 183L203 184L202 183z"/>
<path style="fill:#bc9701; stroke:none;" d="M242 183L243 184L242 183z"/>
<path style="fill:#7b6301; stroke:none;" d="M127.333 184.667L127.667 185.333L127.333 184.667z"/>
<path style="fill:#bc9701; stroke:none;" d="M163 184L164 185L163 184M241 184L242 185L241 184z"/>
<path style="fill:#7b6301; stroke:none;" d="M277.333 184.667L277.667 185.333L277.333 184.667z"/>
<path style="fill:#bc9701; stroke:none;" d="M164 185L165 186L164 185M240 185L241 186L240 185M98.3333 186.667L98.6667 187.333L98.3333 186.667M127 186L128 187L127 186M165 186L166 187L165 186M239 186L240 187L239 186M277 186L278 187L277 186M306.333 186.667L306.667 187.333L306.333 186.667M166 187L167 188L166 187M238 187L239 188L238 187z"/>
<path style="fill:#7b6301; stroke:none;" d="M98.3333 188.667L98.6667 189.333L98.3333 188.667z"/>
<path style="fill:#bc9701; stroke:none;" d="M167 188L168 189L167 188M237 188L238 189L237 188z"/>
<path style="fill:#7b6301; stroke:none;" d="M306.333 188.667L306.667 189.333L306.333 188.667M126.333 189.667L126.667 190.333L126.333 189.667z"/>
<path style="fill:#bc9701; stroke:none;" d="M168 189L169 190L168 189M236 189L237 190L236 189z"/>
<path style="fill:#7b6301; stroke:none;" d="M278.333 189.667L278.667 190.333L278.333 189.667z"/>
<path style="fill:#bc9701; stroke:none;" d="M169 190L170 191L169 190M235 190L236 191L235 190M126 191L127 192L126 191M170 191L171 192L170 191M234 191L235 192L234 191M278 191L279 192L278 191M171 192L172 193L171 192M233 192L234 193L233 192M172 193L173 194L172 193M232 193L233 194L232 193M97 194L97 197L98 197L97 194M173 194L174 195L173 194M231 194L232 195L231 194M307 194L307 197L308 197L307 194z"/>
<path style="fill:#7b6301; stroke:none;" d="M125 195L125 200L126 200L125 195z"/>
<path style="fill:#bc9701; stroke:none;" d="M174 195L175 196L174 195M230 195L231 196L230 195z"/>
<path style="fill:#7b6301; stroke:none;" d="M279 195L279 200L280 200L279 195z"/>
<path style="fill:#bc9701; stroke:none;" d="M175 196L176 197L175 196M229 196L230 197L229 196z"/>
<path style="fill:#7b6301; stroke:none;" d="M97 197L97 210L98 210L97 197z"/>
<path style="fill:#bc9701; stroke:none;" d="M176 197L177 198L176 197M228 197L229 198L228 197z"/>
<path style="fill:#7b6301; stroke:none;" d="M307 197L307 210L308 210L307 197z"/>
<path style="fill:#bc9701; stroke:none;" d="M177 198L178 199L177 198M227 198L228 199L227 198M178 199L179 200L178 199M226 199L227 200L226 199M125 200L125 207L126 207L125 200M179 200L180 201L179 200M225 200L226 201L225 200M279 200L279 207L280 207L279 200M180 201L181 202L180 201M224 201L225 202L224 201M181 202L182 203L181 202M223 202L224 203L223 202M182 203L183 204L182 203M222 203L223 204L222 203M183 204L184 205L183 204M221 204L222 205L221 204M184 205L185 206L184 205M220 205L221 206L220 205M185 206L186 207L185 206M219 206L220 207L219 206z"/>
<path style="fill:#7b6301; stroke:none;" d="M125 207L125 212L126 212L125 207z"/>
<path style="fill:#bc9701; stroke:none;" d="M186 207L187 208L186 207M218 207L219 208L218 207z"/>
<path style="fill:#7b6301; stroke:none;" d="M279 207L279 212L280 212L279 207z"/>
<path style="fill:transparent; stroke:none;" d="M0 208L0 405L197 405L197 404C186.766 402.466 180.006 395.006 173 388L142 357C126.467 341.467 109.42 327.39 94.0147 311.985C79.5995 297.57 66.5396 281.54 52 267C33.3111 248.311 12.5919 231.132 0 208z"/>
<path style="fill:#bc9701; stroke:none;" d="M187 208L188 209L187 208M217 208L218 209L217 208z"/>
<path style="fill:transparent; stroke:none;" d="M404 208C401.14 227.081 375.941 244.059 363 257C345.145 274.855 328.704 294.266 310.985 311.985C293.266 329.704 273.855 346.145 256 364C243.272 376.728 226.783 401.185 208 404L208 405L405 405L405 267L405 227L404 208z"/>
<path style="fill:#bc9701; stroke:none;" d="M188 209L189 210L188 209M216 209L217 210L216 209M97 210L97 213L98 213L97 210M189 210L190 211L189 210M215 210L216 211L215 210M307 210L307 213L308 213L307 210M190 211L191 212L190 211M214 211L215 212L214 211M191 212L192 213L191 212M213 212L214 213L213 212M192 213L193 214L192 213M212 213L213 214L212 213M193 214L194 215L193 214M211 214L212 215L211 214M126 215L127 216L126 215M194 215L195 216L194 215M210 215L211 216L210 215M278 215L279 216L278 215z"/>
<path style="fill:#7b6301; stroke:none;" d="M126.333 216.667L126.667 217.333L126.333 216.667z"/>
<path style="fill:#bc9701; stroke:none;" d="M195 216L196 217L195 216M209 216L210 217L209 216z"/>
<path style="fill:#7b6301; stroke:none;" d="M278.333 216.667L278.667 217.333L278.333 216.667M98.3333 217.667L98.6667 218.333L98.3333 217.667z"/>
<path style="fill:#bc9701; stroke:none;" d="M196 217L197 218L196 217M208 217L209 218L208 217z"/>
<path style="fill:#7b6301; stroke:none;" d="M306.333 217.667L306.667 218.333L306.333 217.667z"/>
<path style="fill:#bc9701; stroke:none;" d="M197 218L198 219L197 218M207 218L208 219L207 218M98.3333 219.667L98.6667 220.333L98.3333 219.667M198 219L199 220L198 219M206 219L207 220L206 219M306.333 219.667L306.667 220.333L306.333 219.667M127 220L128 221L127 220M199 220L200 221L199 220M205 220L206 221L205 220M277 220L278 221L277 220z"/>
<path style="fill:#7b6301; stroke:none;" d="M127.333 221.667L127.667 222.333L127.333 221.667z"/>
<path style="fill:#bc9701; stroke:none;" d="M200 221L201 222L200 221M204 221L205 222L204 221z"/>
<path style="fill:#7b6301; stroke:none;" d="M277.333 221.667L277.667 222.333L277.333 221.667z"/>
<path style="fill:#bc9701; stroke:none;" d="M201 222L202 223L201 222M203 222L204 223L203 222z"/>
<path style="fill:#7b6301; stroke:none;" d="M99.3333 223.667L99.6667 224.333L99.3333 223.667M305.333 223.667L305.667 224.333L305.333 223.667z"/>
<path style="fill:#bc9701; stroke:none;" d="M128 224L129 225L128 224M276 224L277 225L276 224M99 225L100 226L99 225z"/>
<path style="fill:#7b6301; stroke:none;" d="M128 225L129 226L128 225M276 225L277 226L276 225z"/>
<path style="fill:#bc9701; stroke:none;" d="M305 225L306 226L305 225M129 227L130 228L129 227M275 227L276 228L275 227z"/>
<path style="fill:#7b6301; stroke:none;" d="M100 228L101 229L100 228M129 228L130 229L129 228M275 228L276 229L275 228M304 228L305 229L304 228z"/>
<path style="fill:#bc9701; stroke:none;" d="M100 229L101 230L100 229M304 229L305 230L304 229M130 230L131 231L130 230M274 230L275 231L274 230z"/>
<path style="fill:#7b6301; stroke:none;" d="M130 231L131 232L130 231M274 231L275 232L274 231M101 232L102 233L101 232M303 232L304 233L303 232z"/>
<path style="fill:#bc9701; stroke:none;" d="M101 233L102 234L101 233z"/>
<path style="fill:#7b6301; stroke:none;" d="M131 233L132 234L131 233M273 233L274 234L273 233z"/>
<path style="fill:#bc9701; stroke:none;" d="M303 233L304 234L303 233z"/>
<path style="fill:#7b6301; stroke:none;" d="M102 235L103 236L102 235z"/>
<path style="fill:#bc9701; stroke:none;" d="M132 235L133 236L132 235M272 235L273 236L272 235z"/>
<path style="fill:#7b6301; stroke:none;" d="M302 235L303 236L302 235z"/>
<path style="fill:#bc9701; stroke:none;" d="M102 236L103 237L102 236z"/>
<path style="fill:#7b6301; stroke:none;" d="M132 236L133 237L132 236M272 236L273 237L272 236z"/>
<path style="fill:#bc9701; stroke:none;" d="M302 236L303 237L302 236M133 237L134 238L133 237M271 237L272 238L271 237z"/>
<path style="fill:#7b6301; stroke:none;" d="M103 238L104 239L103 238M133 238L134 239L133 238M271 238L272 239L271 238M301 238L302 239L301 238z"/>
<path style="fill:#bc9701; stroke:none;" d="M103 239L104 240L103 239M134 239L135 240L134 239M270 239L271 240L270 239M301 239L302 240L301 239z"/>
<path style="fill:#7b6301; stroke:none;" d="M104 241L105 242L104 241z"/>
<path style="fill:#bc9701; stroke:none;" d="M135 241L136 242L135 241M269 241L270 242L269 241z"/>
<path style="fill:#7b6301; stroke:none;" d="M300 241L301 242L300 241M105 243L106 244L105 243M136 243L137 244L136 243M268 243L269 244L268 243M299 243L300 244L299 243z"/>
<path style="fill:#bc9701; stroke:none;" d="M105 244L106 245L105 244M137 244L138 245L137 244M267 244L268 245L267 244M299 244L300 245L299 244z"/>
<path style="fill:#7b6301; stroke:none;" d="M106 246L107 247L106 246M138 246L139 247L138 246M266 246L267 247L266 246M298 246L299 247L298 246z"/>
<path style="fill:#bc9701; stroke:none;" d="M139 247L140 248L139 247M265 247L266 248L265 247z"/>
<path style="fill:#7b6301; stroke:none;" d="M107 248L108 249L107 248M297 248L298 249L297 248M140 249L141 250L140 249M264 249L265 250L264 249M108 250L109 251L108 250z"/>
<path style="fill:#bc9701; stroke:none;" d="M141 250L142 251L141 250M263 250L264 251L263 250z"/>
<path style="fill:#7b6301; stroke:none;" d="M296 250L297 251L296 250z"/>
<path style="fill:#bc9701; stroke:none;" d="M142 251L143 252L142 251M262 251L263 252L262 251z"/>
<path style="fill:#7b6301; stroke:none;" d="M109 252L110 253L109 252M295 252L296 253L295 252M143 253L144 254L143 253M261 253L262 254L261 253z"/>
<path style="fill:#bc9701; stroke:none;" d="M110 254L111 255L110 254z"/>
<path style="fill:#7b6301; stroke:none;" d="M144 254L145 255L144 254M260 254L261 255L260 254z"/>
<path style="fill:#bc9701; stroke:none;" d="M294 254L295 255L294 254z"/>
<path style="fill:#7b6301; stroke:none;" d="M145 255L146 256L145 255M259 255L260 256L259 255z"/>
<path style="fill:#bc9701; stroke:none;" d="M111 256L112 257L111 256z"/>
<path style="fill:#7b6301; stroke:none;" d="M146 256L147 257L146 256M258 256L259 257L258 256z"/>
<path style="fill:#bc9701; stroke:none;" d="M293 256L294 257L293 256z"/>
<path style="fill:#7b6301; stroke:none;" d="M112 257L113 258L112 257M147 257L148 258L147 257M257 257L258 258L257 257M292 257L293 258L292 257M148 258L149 259L148 258M256 258L257 259L256 258M113 259L114 260L113 259M149 259L150 260L149 259M255 259L256 260L255 259M291 259L292 260L291 259M150 260L151 261L150 260M254 260L255 261L254 260z"/>
<path style="fill:#bc9701; stroke:none;" d="M114 261L115 262L114 261z"/>
<path style="fill:#7b6301; stroke:none;" d="M151 261L152 262L151 261M253 261L254 262L253 261z"/>
<path style="fill:#bc9701; stroke:none;" d="M290 261L291 262L290 261z"/>
<path style="fill:#7b6301; stroke:none;" d="M115 262L116 263L115 262M152 262L153 263L152 262M252 262L253 263L252 262M289 262L290 263L289 262M116 263L117 264L116 263z"/>
<path style="fill:#bc9701; stroke:none;" d="M154 263L155 264L154 263M250 263L251 264L250 263z"/>
<path style="fill:#7b6301; stroke:none;" d="M288 263L289 264L288 263z"/>
<path style="fill:#bc9701; stroke:none;" d="M155 264L156 265L155 264M249 264L250 265L249 264M117 265L118 266L117 265z"/>
<path style="fill:#7b6301; stroke:none;" d="M156 265L157 266L156 265M248 265L249 266L248 265z"/>
<path style="fill:#bc9701; stroke:none;" d="M287 265L288 266L287 265z"/>
<path style="fill:#7b6301; stroke:none;" d="M118 266L119 267L118 266z"/>
<path style="fill:#bc9701; stroke:none;" d="M158.333 266.667L158.667 267.333L158.333 266.667M246.333 266.667L246.667 267.333L246.333 266.667z"/>
<path style="fill:#7b6301; stroke:none;" d="M286 266L287 267L286 266z"/>
<path style="fill:#bc9701; stroke:none;" d="M157 268L158 269L157 268M247 268L248 269L247 268M120 269L121 270L120 269M156 269L157 270L156 269M248 269L249 270L248 269M284 269L285 270L284 269z"/>
<path style="fill:#7b6301; stroke:none;" d="M121 270L122 271L121 270z"/>
<path style="fill:#bc9701; stroke:none;" d="M155 270L156 271L155 270M249 270L250 271L249 270z"/>
<path style="fill:#7b6301; stroke:none;" d="M283 270L284 271L283 270M122 271L123 272L122 271z"/>
<path style="fill:#bc9701; stroke:none;" d="M154 271L155 272L154 271M250 271L251 272L250 271z"/>
<path style="fill:#7b6301; stroke:none;" d="M282 271L283 272L282 271M123 272L124 273L123 272z"/>
<path style="fill:#bc9701; stroke:none;" d="M153 272L154 273L153 272M251 272L252 273L251 272z"/>
<path style="fill:#7b6301; stroke:none;" d="M281 272L282 273L281 272z"/>
<path style="fill:#bc9701; stroke:none;" d="M152 273L153 274L152 273M252 273L253 274L252 273M151 274L152 275L151 274M253 274L254 275L253 274M150 275L151 276L150 275M254 275L255 276L254 275M126 276L127 277L126 276M149 276L150 277L149 276M255 276L256 277L255 276M278 276L279 277L278 276M127 277L128 278L127 277M148 277L149 278L148 277M256 277L257 278L256 277M277 277L278 278L277 277M128 278L129 279L128 278M147 278L148 279L147 278M257 278L258 279L257 278M276 278L277 279L276 278M129 279L130 280L129 279M146 279L147 280L146 279M258 279L259 280L258 279M275 279L276 280L275 279M145 280L146 281L145 280M259 280L260 281L259 280M104 281L86 300C91.6591 296.014 102.341 287.843 104 281M144 281L145 282L144 281M260 281L261 282L260 281M300 281L319 300L300 281z"/>
<path style="fill:#020201; stroke:none;" d="M104 282L85 300C87.3198 308.516 97.4839 318.68 106 321L124 302L124 301L104 282z"/>
<path style="fill:#7b6301; stroke:none;" d="M105 282L106 283L105 282M133 282L134 283L133 282z"/>
<path style="fill:#bc9701; stroke:none;" d="M143 282L144 283L143 282M261 282L262 283L261 282z"/>
<path style="fill:#7b6301; stroke:none;" d="M271 282L272 283L271 282M299 282L298 284L299 282z"/>
<path style="fill:#020201; stroke:none;" d="M300 282L281 301L281 302L299 321C307.516 318.68 317.68 308.516 320 300L300 282z"/>
<path style="fill:#7b6301; stroke:none;" d="M106 283L107 284L106 283M134 283L135 284L134 283z"/>
<path style="fill:#bc9701; stroke:none;" d="M142 283L143 284L142 283M262 283L263 284L262 283z"/>
<path style="fill:#7b6301; stroke:none;" d="M270 283L271 284L270 283z"/>
<path style="fill:#bc9701; stroke:none;" d="M107 284L108 285L107 284z"/>
<path style="fill:#7b6301; stroke:none;" d="M135 284L136 285L135 284z"/>
<path style="fill:#bc9701; stroke:none;" d="M141 284L142 285L141 284M263 284L264 285L263 284z"/>
<path style="fill:#7b6301; stroke:none;" d="M269 284L270 285L269 284z"/>
<path style="fill:#bc9701; stroke:none;" d="M297 284L298 285L297 284M108 285L109 286L108 285M136 285L137 286L136 285M140 285L141 286L140 285M264 285L265 286L264 285M268 285L269 286L268 285M296 285L297 286L296 285M139 286L140 287L139 286M265 286L266 287L265 286z"/>
<path style="fill:#7b6301; stroke:none;" d="M111 289L112 290L111 289M293 289L294 290L293 289M112 290L113 291L112 290M292 290L293 291L292 290M113 291L114 292L113 291M291 291L292 292L291 291M114 292L115 293L114 292M290 292L291 293L290 292M115 293L116 294L115 293M289 293L290 294L289 293M116 294L117 295L116 294M288 294L289 295L288 294z"/>
<path style="fill:#bc9701; stroke:none;" d="M120 297L121 298L120 297M284 297L285 298L284 297M121 298L122 299L121 298M283 298L284 299L283 298z"/>
<path style="fill:#7b6301; stroke:none;" d="M122 299L123 300L122 299M282 299L283 300L282 299M123 300L124 301L123 300M281 300L282 301L281 300z"/>
<path style="fill:#bc9701; stroke:none;" d="M124 301L125 302L124 301M280 301L281 302L280 301M123 302L124 303L123 302M281 302L282 303L281 302M122 303L123 304L122 303M282 303L283 304L282 303M121 304L122 305L121 304M283 304L284 305L283 304M120 305L121 306L120 305M284 305L285 306L284 305M119 306L120 307L119 306M285 306L286 307L285 306M118 307L119 308L118 307M286 307L287 308L286 307M117 308L118 309L117 308M287 308L288 309L287 308M116 309L117 310L116 309M288 309L289 310L288 309M115 310L116 311L115 310M289 310L290 311L289 310M114 311L115 312L114 311M290 311L291 312L290 311M113 312L114 313L113 312M291 312L292 313L291 312M112 313L113 314L112 313M292 313L293 314L292 313M111 314L112 315L111 314M293 314L294 315L293 314M110 315L111 316L110 315M294 315L295 316L294 315M109 316L110 317L109 316M295 316L296 317L295 316M108 317L109 318L108 317M296 317L297 318L296 317M107 318L108 319L107 318M297 318L298 319L297 318M106 319L107 320L106 319M298 319L299 320L298 319z"/>
</svg>
