<svg width="66" height="70" viewBox="0 0 66 70" fill="none" xmlns="http://www.w3.org/2000/svg">
<g clip-path="url(#clip0)">
<path d="M66 34.1706C66 16.0856 51.2254 1.4248 33 1.4248C14.7746 1.4248 0 16.0856 0 34.1706V36.5096C0 54.5945 14.7746 69.2553 33 69.2553C51.2254 69.2553 66 54.5945 66 36.5096V34.1706Z" fill="#041836"/>
<path d="M11.1928 62.3423C8.92834 62.3423 7.07144 60.6246 7.07144 58.5298V5.23739C7.07144 3.14257 8.92834 1.4248 11.1928 1.4248H40.7673C43.0318 1.4248 44.8886 3.14257 44.8886 5.23739V58.5298C44.8886 60.6246 43.0318 62.3423 40.7673 62.3423H11.1928Z" fill="url(#paint0_linear)"/>
<path d="M11.1915 61.1275C9.65163 61.1275 8.38351 59.9544 8.38351 58.5299V5.23749C8.38351 3.813 9.65163 2.63989 11.1915 2.63989H40.766C42.3058 2.63989 43.5739 3.813 43.5739 5.23749V58.5299C43.5739 59.9544 42.3058 61.1275 40.766 61.1275H11.1915Z" fill="url(#paint1_radial)"/>
<path d="M42.2162 56.477C42.2162 57.4825 41.3103 58.3204 40.2234 58.3204H11.6907C10.6037 58.3204 9.69791 57.4825 9.69791 56.477V5.65643C9.69791 4.65092 10.6037 3.81299 11.6907 3.81299H40.2234C41.3103 3.81299 42.2162 4.65092 42.2162 5.65643V56.477Z" fill="url(#paint2_linear)"/>
<path d="M15.722 10.5169C13.4575 10.3493 11.6007 12.0671 11.7818 14.162C11.9177 15.7959 13.367 17.1366 15.1333 17.2623C17.3979 17.4299 19.2547 15.7121 19.0735 13.6172C18.9377 11.9833 17.4884 10.6426 15.722 10.5169Z" fill="url(#paint3_linear)"/>
<path d="M38.1853 13.3235H21.6091C21.0204 13.3235 20.5675 12.9046 20.5675 12.3599C20.5675 11.8152 21.0204 11.3962 21.6091 11.3962H38.1853C38.7741 11.3962 39.227 11.8152 39.227 12.3599C39.227 12.9046 38.7288 13.3235 38.1853 13.3235Z" fill="url(#paint4_linear)"/>
<path d="M30.1237 16.5087H21.6091C21.0204 16.5087 20.5675 16.0898 20.5675 15.5452C20.5675 15.0005 21.0204 14.5815 21.6091 14.5815H30.1237C30.7124 14.5815 31.1653 15.0005 31.1653 15.5452C31.1653 16.0898 30.7124 16.5087 30.1237 16.5087Z" fill="url(#paint5_linear)"/>
<path d="M18.1224 24.971C18.3037 26.4374 16.9902 27.6524 15.4051 27.4848C14.3181 27.3591 13.4577 26.5632 13.3218 25.5576C13.1406 24.0912 14.454 22.8762 16.0392 23.0438C17.1261 23.1695 17.9867 23.9655 18.1224 24.971Z" fill="url(#paint6_linear)"/>
<path d="M18.1224 32.7635C18.3037 34.2299 16.9902 35.4449 15.4051 35.2773C14.3181 35.1516 13.4577 34.3557 13.3218 33.3501C13.1406 31.8837 14.454 30.6687 16.0392 30.8363C17.1261 30.962 17.9867 31.8 18.1224 32.7635Z" fill="url(#paint7_linear)"/>
<path d="M18.1224 40.5572C18.3037 42.0235 16.9902 43.2386 15.4051 43.071C14.3181 42.9453 13.4577 42.1492 13.3218 41.1437C13.1406 39.6774 14.454 38.4624 16.0392 38.63C17.1261 38.7976 17.9867 39.5935 18.1224 40.5572Z" fill="url(#paint8_linear)"/>
<path d="M36.3281 25.0979H20.567C20.1142 25.0979 19.7065 24.7627 19.7065 24.3018C19.7065 23.8829 20.0688 23.5059 20.567 23.5059H36.3281C36.7809 23.5059 37.1885 23.841 37.1885 24.3018C37.1433 24.7627 36.7809 25.0979 36.3281 25.0979Z" fill="url(#paint9_linear)"/>
<path d="M29.1269 27.3591H20.567C20.1142 27.3591 19.7065 27.0239 19.7065 26.563C19.7065 26.1441 20.0688 25.7671 20.567 25.7671H29.1269C29.5798 25.7671 29.9873 26.1023 29.9873 26.563C29.9873 27.0239 29.625 27.3591 29.1269 27.3591Z" fill="url(#paint10_linear)"/>
<path d="M22.5145 32.8479H20.567C20.1142 32.8479 19.7065 32.5127 19.7065 32.0519C19.7065 31.6329 20.0688 31.2559 20.567 31.2559H22.5145C22.9674 31.2559 23.3751 31.591 23.3751 32.0519C23.3297 32.4708 22.9674 32.8479 22.5145 32.8479Z" fill="url(#paint11_linear)"/>
<path d="M31.9348 35.0682H20.567C20.1142 35.0682 19.7065 34.733 19.7065 34.2721C19.7065 33.8532 20.0688 33.4761 20.567 33.4761H31.9348C32.3877 33.4761 32.7954 33.8113 32.7954 34.2721C32.7954 34.733 32.4331 35.0682 31.9348 35.0682Z" fill="url(#paint12_linear)"/>
<path d="M27.4512 40.6404H20.567C20.1142 40.6404 19.7065 40.3052 19.7065 39.8444C19.7065 39.4254 20.0688 39.0483 20.567 39.0483H27.4512C27.9041 39.0483 28.3116 39.3835 28.3116 39.8444C28.3116 40.2633 27.9041 40.6404 27.4512 40.6404Z" fill="url(#paint13_linear)"/>
<path d="M21.7899 42.8618H20.567C20.1142 42.8618 19.7065 42.5266 19.7065 42.0658C19.7065 41.6468 20.0688 41.2698 20.567 41.2698H21.7899C22.2428 41.2698 22.6504 41.6049 22.6504 42.0658C22.6504 42.5266 22.2881 42.8618 21.7899 42.8618Z" fill="url(#paint14_linear)"/>
<path d="M29.399 59.6607C29.399 59.8703 29.2179 60.0379 28.9913 60.0379H22.9225C22.696 60.0379 22.5149 59.8703 22.5149 59.6607C22.5149 59.4513 22.696 59.2837 22.9225 59.2837H28.9913C29.2179 59.3257 29.399 59.4933 29.399 59.6607Z" fill="#656C81"/>
<path d="M42.5775 69.2553C51.6073 69.2553 58.9273 62.4839 58.9273 54.1307C58.9273 45.7776 51.6073 39.0061 42.5775 39.0061C33.5478 39.0061 26.2278 45.7776 26.2278 54.1307C26.2278 62.4839 33.5478 69.2553 42.5775 69.2553Z" fill="url(#paint15_linear)"/>
<path d="M42.5772 66.9514C50.2312 66.9514 56.436 61.2116 56.436 54.1311C56.436 47.0507 50.2312 41.3108 42.5772 41.3108C34.9233 41.3108 28.7185 47.0507 28.7185 54.1311C28.7185 61.2116 34.9233 66.9514 42.5772 66.9514Z" fill="url(#paint16_linear)"/>
<path d="M43.4847 62.1331C41.0844 62.1331 38.6388 62.1331 36.2384 62.1331C36.2384 60.3735 36.2384 58.6139 36.2384 56.8961C36.2384 56.8122 36.2384 56.8122 36.1477 56.8122C35.3778 56.8122 34.5626 56.8122 33.7927 56.8122C33.7021 56.8122 33.7021 56.8123 33.7021 56.7285C33.7021 56.2676 33.7021 55.8487 33.7021 55.3878C33.7021 55.2202 33.7021 55.0945 33.7021 54.9269C33.7021 54.8432 33.7473 54.885 33.838 54.885C34.6079 54.885 35.3778 54.885 36.1477 54.885C36.2384 54.885 36.2384 54.885 36.2384 54.8012C36.2384 54.1728 36.2384 53.5443 36.2384 52.9159C36.2384 52.8321 36.2384 52.8321 36.1477 52.8321C35.3778 52.8321 34.5626 52.8321 33.7927 52.8321C33.7021 52.8321 33.7021 52.8321 33.7021 52.7483C33.7021 52.1618 33.7021 51.5333 33.7021 50.9468C33.7021 50.8629 33.7473 50.9049 33.838 50.9049C34.6079 50.9049 35.3778 50.9049 36.1477 50.9049C36.2384 50.9049 36.2384 50.9049 36.2384 50.8211C36.2384 49.1033 36.2384 47.3437 36.2384 45.6259C36.2384 45.5002 36.2384 45.5421 36.3289 45.5421C38.8652 45.5421 41.3561 45.5421 43.8924 45.5421C47.5609 45.584 51.2293 47.595 52.4975 50.8629C52.5427 50.9468 52.5427 50.9468 52.6334 50.9468C53.3579 50.9468 54.0827 50.9468 54.8072 50.9468C54.8072 51.5751 54.8072 52.2455 54.8072 52.874C54.2185 52.874 53.6297 52.874 53.0863 52.874C53.0409 52.874 53.0409 52.874 53.0409 52.9159C53.0409 53.1254 53.0863 53.3767 53.0863 53.5862C53.0863 54.0052 53.0863 54.4241 53.0409 54.8432C53.0409 54.885 53.0409 54.885 53.0863 54.885C53.675 54.885 54.2638 54.885 54.8526 54.885C54.8526 55.5135 54.8526 56.1839 54.8526 56.8122C54.1279 56.8122 53.4033 56.8122 52.6334 56.8122C52.4975 56.8122 52.5427 56.8122 52.4975 56.8961C51.0482 60.2477 47.2439 62.1751 43.4847 62.1331ZM50.233 50.8629C47.9685 46.38 42.6695 47.2598 38.2764 47.1761C38.2311 47.1761 38.2311 47.1761 38.2311 47.218C38.2311 48.3911 38.2311 49.5642 38.2311 50.7373C38.2311 50.8629 38.2311 50.8211 38.3217 50.8211C42.3072 50.8629 46.2928 50.9049 50.233 50.8629ZM50.233 56.7704C46.2474 56.7704 42.2619 56.7704 38.3217 56.7704C38.2764 56.7704 38.2764 56.7704 38.2764 56.8122C38.2764 57.9854 38.2764 59.1166 38.2764 60.2897C38.2764 60.3735 38.2764 60.3735 38.367 60.3735C40.0427 60.3735 41.7638 60.3735 43.4394 60.3735C46.1569 60.4573 49.0555 59.2004 50.233 56.7704ZM44.5264 54.8432C46.6098 54.8012 48.7837 54.9269 50.8218 54.8012C50.867 54.3404 50.9123 53.8795 50.867 53.4186C50.867 53.251 50.8218 53.0416 50.8218 52.874C50.8218 52.8321 50.8218 52.8321 50.7764 52.8321C46.6098 52.9159 42.2167 52.7064 38.1858 52.9159C38.1858 53.5443 38.1858 54.1728 38.1858 54.8012C38.1858 54.885 38.1858 54.885 38.2764 54.885C40.405 54.8432 42.4883 54.8432 44.5264 54.8432Z" fill="white"/>
</g>
<defs>
<linearGradient id="paint0_linear" x1="7.07144" y1="31.8909" x2="44.8727" y2="31.8909" gradientUnits="userSpaceOnUse">
<stop stop-color="#069EFC"/>
<stop offset="1" stop-color="#14F4C9"/>
</linearGradient>
<radialGradient id="paint1_radial" cx="0" cy="0" r="1" gradientUnits="userSpaceOnUse" gradientTransform="translate(25.9708 31.891) scale(25.5703 23.6543)">
<stop stop-color="#88BAE1"/>
<stop offset="0.2065" stop-color="#84B6DE"/>
<stop offset="0.3982" stop-color="#79ACD3"/>
<stop offset="0.5842" stop-color="#669AC2"/>
<stop offset="0.7665" stop-color="#4C80AA"/>
<stop offset="0.9446" stop-color="#2A608B"/>
<stop offset="1" stop-color="#1E5480"/>
</radialGradient>
<linearGradient id="paint2_linear" x1="9.71234" y1="31.0645" x2="42.2325" y2="31.0645" gradientUnits="userSpaceOnUse">
<stop stop-color="#2E7DAF"/>
<stop offset="1" stop-color="#041836"/>
</linearGradient>
<linearGradient id="paint3_linear" x1="11.7453" y1="13.8957" x2="19.0822" y2="13.8957" gradientUnits="userSpaceOnUse">
<stop stop-color="#069EFC"/>
<stop offset="1" stop-color="#14F4C9"/>
</linearGradient>
<linearGradient id="paint4_linear" x1="20.5653" y1="12.379" x2="39.2119" y2="12.379" gradientUnits="userSpaceOnUse">
<stop stop-color="#069EFC"/>
<stop offset="1" stop-color="#14F4C9"/>
</linearGradient>
<linearGradient id="paint5_linear" x1="20.5653" y1="15.541" x2="31.1723" y2="15.541" gradientUnits="userSpaceOnUse">
<stop stop-color="#069EFC"/>
<stop offset="1" stop-color="#14F4C9"/>
</linearGradient>
<linearGradient id="paint6_linear" x1="13.3287" y1="25.2592" x2="18.1351" y2="25.2592" gradientUnits="userSpaceOnUse">
<stop stop-color="#069EFC"/>
<stop offset="1" stop-color="#14F4C9"/>
</linearGradient>
<linearGradient id="paint7_linear" x1="13.3287" y1="33.0622" x2="18.1351" y2="33.0622" gradientUnits="userSpaceOnUse">
<stop stop-color="#069EFC"/>
<stop offset="1" stop-color="#14F4C9"/>
</linearGradient>
<linearGradient id="paint8_linear" x1="13.3287" y1="40.8665" x2="18.1351" y2="40.8665" gradientUnits="userSpaceOnUse">
<stop stop-color="#069EFC"/>
<stop offset="1" stop-color="#14F4C9"/>
</linearGradient>
<linearGradient id="paint9_linear" x1="19.7124" y1="24.3251" x2="37.1621" y2="24.3251" gradientUnits="userSpaceOnUse">
<stop stop-color="#069EFC"/>
<stop offset="1" stop-color="#14F4C9"/>
</linearGradient>
<linearGradient id="paint10_linear" x1="19.7124" y1="26.5711" x2="29.989" y2="26.5711" gradientUnits="userSpaceOnUse">
<stop stop-color="#069EFC"/>
<stop offset="1" stop-color="#14F4C9"/>
</linearGradient>
<linearGradient id="paint11_linear" x1="19.7124" y1="32.044" x2="23.3522" y2="32.044" gradientUnits="userSpaceOnUse">
<stop stop-color="#069EFC"/>
<stop offset="1" stop-color="#14F4C9"/>
</linearGradient>
<linearGradient id="paint12_linear" x1="19.7124" y1="34.2909" x2="32.7952" y2="34.2909" gradientUnits="userSpaceOnUse">
<stop stop-color="#069EFC"/>
<stop offset="1" stop-color="#14F4C9"/>
</linearGradient>
<linearGradient id="paint13_linear" x1="19.7124" y1="39.843" x2="28.3055" y2="39.843" gradientUnits="userSpaceOnUse">
<stop stop-color="#069EFC"/>
<stop offset="1" stop-color="#14F4C9"/>
</linearGradient>
<linearGradient id="paint14_linear" x1="19.7124" y1="42.0912" x2="22.6626" y2="42.0912" gradientUnits="userSpaceOnUse">
<stop stop-color="#069EFC"/>
<stop offset="1" stop-color="#14F4C9"/>
</linearGradient>
<linearGradient id="paint15_linear" x1="26.2233" y1="54.1399" x2="58.912" y2="54.1399" gradientUnits="userSpaceOnUse">
<stop stop-color="#069EFC"/>
<stop offset="1" stop-color="#14F4C9"/>
</linearGradient>
<linearGradient id="paint16_linear" x1="22.5919" y1="34.1044" x2="46.0935" y2="61.6503" gradientUnits="userSpaceOnUse">
<stop stop-color="#14F4C9"/>
<stop offset="1" stop-color="#069EFC"/>
</linearGradient>
<clipPath id="clip0">
<rect width="66" height="69" fill="white" transform="translate(0 0.840088)"/>
</clipPath>
</defs>
</svg>
