<svg xmlns="http://www.w3.org/2000/svg" width="1922" height="2522" viewBox="0 0 1922 2522">
    <g fill="none" fill-rule="evenodd" stroke-dasharray="4 14" stroke-linecap="round" opacity=".2">
        <g stroke="#C2CDE3">
            <g>
                <g>
                    <path d="M0 2521L1920 2521M0 2465L1920 2465M0 2409L1920 2409M0 2353L1920 2353M0 2297L1920 2297M0 2241L1920 2241M0 2185L1920 2185M0 2129L1920 2129M0 2073L1920 2073M0 2017L1920 2017M0 1961L1920 1961M0 1905L1920 1905M0 1849L1920 1849M0 1793L1920 1793M0 1737L1920 1737M0 1681L1920 1681M0 1625L1920 1625M0 1569L1920 1569M0 1513L1920 1513M0 1457L1920 1457M0 1401L1920 1401M0 1345L1920 1345M0 1289L1920 1289M0 1233L1920 1233M0 1177L1920 1177M0 1121L1920 1121M0 1065L1920 1065M0 1009L1920 1009M0 953L1920 953M0 897L1920 897M0 841L1920 841M0 785L1920 785M0 729L1920 729M0 673L1920 673M0 617L1920 617M0 561L1920 561M0 505L1920 505M0 449L1920 449M0 393L1920 393M0 337L1920 337M0 281L1920 281M0 225L1920 225M0 169L1920 169M0 113L1920 113M0 57L1920 57M0 1L1920 1" transform="translate(1 -3881) translate(-.429 3639) translate(.429 242)"/>
                </g>
            </g>
        </g>
    </g>
</svg>
