<svg xmlns="http://www.w3.org/2000/svg" xmlns:xlink="http://www.w3.org/1999/xlink" width="1181" height="476" viewBox="0 0 1181 476" fill="none" style="">
<path opacity="" d="M408.845 100.141L403.846 100.226L408.845 100.141ZM141 56H358.852V46H141V56ZM403.846 100.226L405.156 176.445L415.154 176.274L413.844 100.055L403.846 100.226ZM460.148 230.5H524V220.5H460.148V230.5ZM141 179.5H363.25V169.5H141V179.5ZM416.75 233H524V223H416.75V233ZM141 305H356.5V295H141V305ZM423.5 238H524V228H423.5V238ZM141 429H361V419H141V429ZM416 374V286H406V374H416ZM461 241H524V231H461V241ZM416 286C416 261.147 436.147 241 461 241V231C430.624 231 406 255.624 406 286H416ZM395 266.5C395 250.76 407.76 238 423.5 238V228C402.237 228 385 245.237 385 266.5H395ZM356.5 305C377.763 305 395 287.763 395 266.5H385C385 282.24 372.24 295 356.5 295V305ZM363.25 179.5C375.262 179.5 385 189.238 385 201.25H395C395 183.715 380.785 169.5 363.25 169.5V179.5ZM361 429C391.376 429 416 404.376 416 374H406C406 398.853 385.853 419 361 419V429ZM405.156 176.445C405.672 206.448 430.141 230.5 460.148 230.5V220.5C435.597 220.5 415.576 200.821 415.154 176.274L405.156 176.445ZM385 201.25C385 218.785 399.215 233 416.75 233V223C404.738 223 395 213.262 395 201.25H385ZM358.852 56C383.403 56 403.424 75.6789 403.846 100.226L413.844 100.055C413.328 70.0519 388.859 46 358.852 46V56Z" fill="#fff1c8"/>
<style type="text/css">
.st1{fill:none;stroke:#151515;opacity: 0.5;stroke-width:2;stroke-linecap:round;stroke-miterlimit:5;stroke-dasharray:5 10;}
.st2{fill:none;stroke:#151515;opacity: 0.5;stroke-width:2.3768;stroke-linecap:round;stroke-miterlimit:10;stroke-dasharray:5 10;}
.flow-chart-dotted-line {
	stroke-dashoffset: 5;
	animation: u .6s linear infinite
}
.flow-chart-dotted-line.-is-reverse {
	animation: u .5s linear reverse infinite
}
@keyframes u {
	to {
		stroke-dashoffset: 35
	}
}
circle.pulse {
animation: pulses 3s linear infinite;
transform-origin:  50% 50%;
}
@keyframes pulses {
  0% {
    opacity: 0;
    -webkit-transform: scale(1);
            transform: scale(1);
  }
  50% {
    opacity: 0.3;
    -webkit-transform: scale(1.1);
            transform: scale(1.1);
  }
  100% {
    opacity: 0;
    -webkit-transform: scale(1.2);
            transform: scale(1.2);
  }
}
</style>
<g style="transform: translate(11.5%, 10.5%)">
	<path class="st1 flow-chart-dotted-line -is-reverse" d="M24,1.9h199c27.6,0,50,22.4,50,50v74.5c0,27.6,22.4,50,50,50h49.9" fill="#fa6900"/>
	<path class="st1 flow-chart-dotted-line -is-reverse" d="M23.9,125.8h204.3c15.1,0,27.3,12.2,27.3,27.3s12.2,27.3,27.3,27.3H374" fill="#fa6900"/>
	<path class="st1 flow-chart-dotted-line -is-reverse" d="M24.1,373H223c27.6,0,50-22.4,50-50v-85.2c0-27.6,22.4-50,50-50h49.8" fill="#fa6900"/>
	<path class="st1 flow-chart-dotted-line -is-reverse" d="M23.8,251h204.3c15.1,0,27.3-12.2,27.3-27.3v-12.3c0-15.1,12.2-27.3,27.3-27.3H374" fill="#fa6900"/>
</g>
<path opacity="0.1" d="M753.271 176.263L758.269 176.394L753.271 176.263ZM753.72 159.05L758.718 159.18L753.72 159.05ZM1030.96 117L804.029 115.355L804.102 105.356L1031.04 107L1030.96 117ZM758.718 159.18L758.269 176.394L748.272 176.133L748.722 158.919L758.718 159.18ZM703.288 229.959H639V219.959H703.288V229.959ZM1031 192.5H792.517V182.5H1031V192.5ZM753.483 231.534H639V221.534H753.483V231.534ZM1033 270.5H790.908V260.5H1033V270.5ZM755.092 234.685H639V224.685H755.092V234.685ZM1033 345H802V335H1033V345ZM747 290V281.575H757V290H747ZM702 236.575H639V226.575H702V236.575ZM747 281.575C747 256.723 726.853 236.575 702 236.575V226.575C732.376 226.575 757 251.2 757 281.575H747ZM768 247.592C768 240.464 762.221 234.685 755.092 234.685V224.685C767.744 224.685 778 234.941 778 247.592H768ZM790.908 270.5C778.256 270.5 768 260.244 768 247.592H778C778 254.721 783.779 260.5 790.908 260.5V270.5ZM792.517 192.5C784.5 192.5 778 199 778 207.017H768C768 193.477 778.977 182.5 792.517 182.5V192.5ZM802 345C771.624 345 747 320.376 747 290H757C757 314.853 777.147 335 802 335V345ZM758.269 176.394C757.491 206.2 733.105 229.959 703.288 229.959V219.959C727.683 219.959 747.636 200.52 748.272 176.133L758.269 176.394ZM778 207.017C778 220.558 767.023 231.534 753.483 231.534V221.534C761.5 221.534 768 215.035 768 207.017H778ZM804.029 115.355C779.507 115.178 759.358 134.666 758.718 159.18L748.722 158.919C749.504 128.958 774.131 105.138 804.102 105.356L804.029 115.355Z" fill="#f0c300"/>
<g style="transform: translate(54.1%, 23%)">
	<path class="st2 flow-chart-dotted-line" d="M370.6,1.1H165.7c-28.6,0-51.7,23.2-51.7,51.7V74c-2.9,12.1-16,40.1-34.6,40.5L9,114.9" fill="#fa6900"/>
	<path class="st2 flow-chart-dotted-line" d="M371.5,77.4L155.8,78c-9.3,0-21.7,8.3-21.7,19c0,12.2-14.8,20.3-25.1,19.6L7.6,116.5" fill="#fa6900"/>
	<path class="st2 flow-chart-dotted-line" d="M370.4,229.5H165.5c-26.3,0-50.2-18.5-50.7-36.5l-2.6-30.2c0-18.1-27.7-41.2-46.8-41.2l-55.9-0.5" fill="#fa6900"/>
	<path class="st2 flow-chart-dotted-line" d="M370.5,155.5H151.6c-2.1,0-17.3-3.6-17.5-15.2s-4-20.4-15.4-20.4L7.5,118.4" fill="#fa6900"/>
</g>





<circle cx="828.5" cy="111.5" r="7.5" fill="#151515"/>
<circle cx="876.5" cy="187.5" r="7.5" fill="#151515"/>
<circle cx="803.5" cy="265.5" r="7.5" fill="#151515"/>
<circle cx="851.5" cy="339.5" r="7.5" fill="#151515"/>

</svg>