
<svg xmlns="http://www.w3.org/2000/svg" xmlns:xlink="http://www.w3.org/1999/xlink"><symbol id="icons-arrow-down" viewBox="0 0 10 10"><path d="M9.754 4.408a.832.832 0 0 0-1.183 0l-2.74 2.75V.833a.833.833 0 1 0-1.664 0v6.325l-2.74-2.75A.836.836 0 1 0 .245 5.592l4.163 4.166c.08.076.173.135.275.175.201.09.431.09.633 0a.833.833 0 0 0 .274-.175l4.164-4.166a.834.834 0 0 0 0-1.184z" fill-rule="evenodd"/></symbol><symbol id="icons-arrow-right" viewBox="0 0 20 20"><path d="M19.875 9.366a1.665 1.665 0 0 0-.35-.55L11.188.49a1.676 1.676 0 0 0-2.801.75 1.67 1.67 0 0 0 .433 1.614l5.503 5.48H1.667a1.666 1.666 0 1 0 0 3.33h12.656L8.82 17.143a1.664 1.664 0 0 0 0 2.364 1.668 1.668 0 0 0 2.368 0l8.337-8.326c.152-.158.27-.345.35-.55a1.66 1.66 0 0 0 0-1.265z" fill-rule="evenodd"/></symbol><symbol id="icons-arrow-up-double" viewBox="0 0 20 20"><path d="M11.168 10.986a1.935 1.935 0 0 0-1.364-.561c-.513 0-1.004.202-1.364.56l-5.764 5.687a1.912 1.912 0 0 0-.039 2.73 1.975 1.975 0 0 0 2.767.037l4.4-4.435 4.4 4.435a1.938 1.938 0 0 0 2.728.001c.363-.357.568-.841.568-1.346 0-.506-.205-.99-.568-1.346l-5.764-5.762zM5.404 8.939l4.4-4.36 4.4 4.36a1.938 1.938 0 0 0 2.728 0c.363-.356.568-.84.568-1.346 0-.506-.205-.99-.568-1.346L11.168.561A1.935 1.935 0 0 0 9.804 0C9.29 0 8.8.202 8.44.56L2.676 6.248a1.885 1.885 0 0 0 0 2.692 1.948 1.948 0 0 0 2.728 0z"/></symbol><symbol id="icons-bolt" viewBox="0 0 20 20"><path d="M17.392 7.581a.99.99 0 0 0-.882-.548h-4.952V1.048a.997.997 0 0 0-.683-.998.986.986 0 0 0-1.11.36L1.844 11.381a1.004 1.004 0 0 0-.08.997.99.99 0 0 0 .882.639h4.952v5.984a.997.997 0 0 0 .99.998.988.988 0 0 0 .802-.409l7.924-10.972c.217-.304.248-.704.079-1.038zm-7.814 8.35V12.02a.994.994 0 0 0-.99-.997H4.625L9.578 4.12v3.91c0 .55.443.998.99.998h3.962L9.578 15.93z" fill-rule="evenodd"/></symbol><symbol id="icons-book" viewBox="0 0 20 20"><path d="M19.158.188A13.21 13.21 0 0 0 16.99 0 13.017 13.017 0 0 0 10 2.027 13.018 13.018 0 0 0 3.01.05 13.21 13.21 0 0 0 .841.237a.992.992 0 0 0-.829.99v11.865a.985.985 0 0 0 .35.767c.226.19.526.272.819.222A10.97 10.97 0 0 1 9.42 15.97l.12.07h.11a.917.917 0 0 0 .699 0h.11l.12-.07a10.968 10.968 0 0 1 8.238-1.997c.293.05.593-.032.819-.223a.985.985 0 0 0 .35-.766V1.117a.992.992 0 0 0-.83-.93zM9 13.33a12.955 12.955 0 0 0-5.992-1.464H2.01V1.978c.332-.02.666-.02.998 0 2.13-.003 4.215.616 5.992 1.78v9.572zm8.988-1.424h-.998a12.955 12.955 0 0 0-5.992 1.463V3.758a10.923 10.923 0 0 1 5.992-1.78c.332-.02.666-.02.998 0v9.928zm1.169 4.104a13.21 13.21 0 0 0-2.167-.188A13.017 13.017 0 0 0 10 17.849a13.017 13.017 0 0 0-6.99-2.027 13.21 13.21 0 0 0-2.168.188 1 1 0 0 0-.653.398.981.981 0 0 0-.176.739.998.998 0 0 0 1.169.781 10.97 10.97 0 0 1 8.239 1.889c.346.244.812.244 1.158 0a10.97 10.97 0 0 1 8.24-1.889.998.998 0 0 0 1.168-.781.981.981 0 0 0-.176-.74 1 1 0 0 0-.653-.397z" fill-rule="evenodd"/></symbol><symbol id="icons-business" viewBox="0 0 25 24"><path d="M20.422 5.342h-3.6v-1.21c0-2.006-1.612-3.632-3.6-3.632h-2.4c-1.988 0-3.6 1.626-3.6 3.632v1.21h-3.6c-.955 0-1.87.383-2.546 1.064A3.648 3.648 0 0 0 .022 8.974v10.894c0 2.006 1.612 3.632 3.6 3.632h16.8c1.988 0 3.6-1.626 3.6-3.632V8.974c0-2.006-1.612-3.632-3.6-3.632zm-10.8-1.21c0-.669.537-1.21 1.2-1.21h2.4c.663 0 1.2.541 1.2 1.21v1.21h-4.8v-1.21zm12 15.736c0 .669-.537 1.21-1.2 1.21h-16.8c-.663 0-1.2-.541-1.2-1.21v-6.657c1.17.468 2.374.848 3.6 1.137v.715c0 .668.537 1.21 1.2 1.21.663 0 1.2-.542 1.2-1.21v-.255a27.27 27.27 0 0 0 3.6.255 27.364 27.364 0 0 0 3.6-.255v.255c0 .668.537 1.21 1.2 1.21.663 0 1.2-.542 1.2-1.21v-.715c1.226-.289 2.43-.67 3.6-1.137v6.657zm0-9.309a24.32 24.32 0 0 1-3.6 1.211v-.375c0-.669-.537-1.21-1.2-1.21-.663 0-1.2.541-1.2 1.21v.896a23.925 23.925 0 0 1-7.2 0v-.896c0-.669-.537-1.21-1.2-1.21-.663 0-1.2.541-1.2 1.21v.4a24.32 24.32 0 0 1-3.6-1.211v-1.61c0-.669.537-1.21 1.2-1.21h16.8c.663 0 1.2.541 1.2 1.21v1.585z" fill-rule="evenodd"/></symbol><symbol id="icons-calendar" viewBox="0 0 20 20"><path d="M10 12a1 1 0 1 0 0-2 1 1 0 0 0 0 2zm5 0a1 1 0 1 0 0-2 1 1 0 0 0 0 2zm-5 4a1 1 0 1 0 0-2 1 1 0 0 0 0 2zm5 0a1 1 0 1 0 0-2 1 1 0 0 0 0 2zM5 12a1 1 0 1 0 0-2 1 1 0 0 0 0 2zM17 2h-1V1a1 1 0 0 0-2 0v1H6V1a1 1 0 1 0-2 0v1H3a3 3 0 0 0-3 3v12a3 3 0 0 0 3 3h14a3 3 0 0 0 3-3V5a3 3 0 0 0-3-3zm1 15a1 1 0 0 1-1 1H3a1 1 0 0 1-1-1V8h16v9zm0-11H2V5a1 1 0 0 1 1-1h14a1 1 0 0 1 1 1v1zM5 16a1 1 0 1 0 0-2 1 1 0 0 0 0 2z"/></symbol><symbol id="icons-check-double" viewBox="0 0 24 24"><path d="M22.71 5.5c.334 0 .653.135.888.375a1.275 1.275 0 0 1 0 1.862L13.124 18.125a1.241 1.241 0 0 1-1.774 0l-.881-.97 11.354-11.28c.235-.24.554-.375.888-.375zm-6.438 0c.333 0 .652.135.887.375a1.275 1.275 0 0 1 0 1.862L6.962 18.075a1.241 1.241 0 0 1-1.774 0L.39 13.21a1.307 1.307 0 0 1-.352-1.244c.11-.45.449-.804.887-.931a1.266 1.266 0 0 1 1.24.313l3.91 3.978 9.31-9.451c.234-.24.553-.375.887-.375z" fill-rule="evenodd"/></symbol><symbol id="icons-close" viewBox="0 0 20 20"><path d="m11.761 9.999 7.87-7.858A1.254 1.254 0 0 0 17.857.367L10 8.237 2.143.368A1.254 1.254 0 1 0 .37 2.141L8.24 10 .37 17.858a1.25 1.25 0 0 0 0 1.773 1.249 1.249 0 0 0 1.774 0L10 11.76l7.857 7.87a1.249 1.249 0 0 0 1.774 0 1.25 1.25 0 0 0 0-1.773l-7.87-7.858z"/></symbol><symbol id="icons-coins" viewBox="0 0 24 24"><path d="M23.064 12.25A3.58 3.58 0 0 0 24 9.861a3.592 3.592 0 0 0-3.6-3.583h-6.216a3.57 3.57 0 0 0-.452-3.26A3.605 3.605 0 0 0 10.8 1.5H3.6A3.592 3.592 0 0 0 0 5.083c.005.884.339 1.735.936 2.39a3.571 3.571 0 0 0 0 4.777 3.571 3.571 0 0 0 0 4.778A3.574 3.574 0 0 0 0 19.417 3.592 3.592 0 0 0 3.6 23h16.8a3.6 3.6 0 0 0 3.271-2.13 3.57 3.57 0 0 0-.607-3.842 3.571 3.571 0 0 0 0-4.778zM10.8 20.611H3.6c-.663 0-1.2-.535-1.2-1.194 0-.66.537-1.195 1.2-1.195h7.2c.663 0 1.2.535 1.2 1.195s-.537 1.194-1.2 1.194zm0-4.778H3.6c-.663 0-1.2-.534-1.2-1.194 0-.66.537-1.195 1.2-1.195h7.2c.663 0 1.2.535 1.2 1.195s-.537 1.194-1.2 1.194zm0-4.777H3.6c-.663 0-1.2-.535-1.2-1.195s.537-1.194 1.2-1.194h7.2c.663 0 1.2.534 1.2 1.194 0 .66-.537 1.195-1.2 1.195zm0-4.778H3.6c-.663 0-1.2-.535-1.2-1.195S2.937 3.89 3.6 3.89h7.2c.663 0 1.2.535 1.2 1.194 0 .66-.537 1.195-1.2 1.195zm10.428 13.987a1.119 1.119 0 0 1-.828.346h-6.216a3.413 3.413 0 0 0 0-2.389H20.4c.663 0 1.2.535 1.2 1.195a1.192 1.192 0 0 1-.372.848zm0-4.778a1.119 1.119 0 0 1-.828.346h-6.216a3.413 3.413 0 0 0 0-2.389H20.4c.663 0 1.2.535 1.2 1.195a1.192 1.192 0 0 1-.372.848zm0-4.778a1.119 1.119 0 0 1-.828.347h-6.216a3.413 3.413 0 0 0 0-2.39H20.4c.663 0 1.2.535 1.2 1.195a1.192 1.192 0 0 1-.372.848z" fill-rule="evenodd"/></symbol><symbol id="icons-comment" viewBox="0 0 16 17"><path d="M8.011.251C3.6.251.023 3.833.023 8.251a7.918 7.918 0 0 0 1.805 5.064l-1.598 1.6a.8.8 0 0 0-.168.872.799.799 0 0 0 .76.464h7.19c4.411 0 7.988-3.582 7.988-8s-3.577-8-7.989-8zm0 14.4H2.747l.743-.744a.8.8 0 0 0 0-1.128 6.406 6.406 0 0 1-.8-8.08 6.386 6.386 0 0 1 7.758-2.362A6.402 6.402 0 0 1 8.011 14.65z" fill-rule="evenodd"/></symbol><symbol id="icons-copy" viewBox="0 0 24 24"><path d="M22.5 8.328a1.578 1.578 0 0 0-.072-.324v-.108a1.284 1.284 0 0 0-.227-.336L15.035.36A1.278 1.278 0 0 0 14.7.132a.38.38 0 0 0-.107 0A1.048 1.048 0 0 0 14.199 0H9.36a3.592 3.592 0 0 0-3.583 3.6v1.2H4.583A3.592 3.592 0 0 0 1 8.4v12C1 22.388 2.604 24 4.583 24h9.556a3.592 3.592 0 0 0 3.583-3.6v-1.2h1.195a3.592 3.592 0 0 0 3.583-3.6V8.328zm-7.167-4.236L18.427 7.2h-1.9A1.197 1.197 0 0 1 15.333 6V4.092zm0 16.308c0 .663-.534 1.2-1.194 1.2H4.583c-.66 0-1.194-.537-1.194-1.2v-12c0-.663.535-1.2 1.194-1.2h1.195v8.4c0 1.988 1.604 3.6 3.583 3.6h5.972v1.2zm4.778-4.8c0 .663-.535 1.2-1.194 1.2H9.36c-.66 0-1.194-.537-1.194-1.2v-12c0-.663.534-1.2 1.194-1.2h3.583V6c0 1.988 1.605 3.6 3.584 3.6h3.583v6z" fill-rule="evenodd"/></symbol><symbol id="icons-crown" viewBox="0 0 12 12"><path d="m0 2.288 2.981 2.965 3.02-3.003L9.02 5.253 12 2.29v5.576a1.89 1.89 0 0 1-1.895 1.885h-8.21A1.89 1.89 0 0 1 0 7.865V2.288zm10.737 3.026v2.551a.63.63 0 0 1-.632.629h-8.21a.63.63 0 0 1-.632-.629V5.314l1.718 1.709 3.02-3.004L9.02 7.023l1.717-1.709z"/></symbol><symbol id="icons-cup" viewBox="0 0 24 24"><path d="M22.8 2.4h-3.6V1.2A1.2 1.2 0 0 0 18 0H6a1.2 1.2 0 0 0-1.2 1.2v1.2H1.2A1.2 1.2 0 0 0 0 3.6v3.6A4.8 4.8 0 0 0 4.8 12h1.848a7.2 7.2 0 0 0 4.152 2.292V16.8H9.6A3.6 3.6 0 0 0 6 20.4v2.4A1.2 1.2 0 0 0 7.2 24h9.6a1.2 1.2 0 0 0 1.2-1.2v-2.4a3.6 3.6 0 0 0-3.6-3.6h-1.2v-2.508A7.2 7.2 0 0 0 17.352 12H19.2A4.8 4.8 0 0 0 24 7.2V3.6a1.2 1.2 0 0 0-1.2-1.2zm-18 7.2a2.4 2.4 0 0 1-2.4-2.4V4.8h2.4v2.4a7.2 7.2 0 0 0 .42 2.4H4.8zm9.6 9.6a1.2 1.2 0 0 1 1.2 1.2v1.2H8.4v-1.2a1.2 1.2 0 0 1 1.2-1.2h4.8zm2.4-12a4.8 4.8 0 1 1-9.6 0V2.4h9.6v4.8zm4.8 0a2.4 2.4 0 0 1-2.4 2.4h-.42a7.2 7.2 0 0 0 .42-2.4V4.8h2.4v2.4z"/></symbol><symbol id="icons-day" viewBox="0 0 24 24"><path d="m4.368 18-.852.852a1.2 1.2 0 0 0 0 1.692 1.2 1.2 0 0 0 1.692 0l.852-.852A1.2 1.2 0 0 0 4.368 18zM3.6 12a1.2 1.2 0 0 0-1.2-1.2H1.2a1.2 1.2 0 1 0 0 2.4h1.2A1.2 1.2 0 0 0 3.6 12zM12 3.6a1.2 1.2 0 0 0 1.2-1.2V1.2a1.2 1.2 0 1 0-2.4 0v1.2A1.2 1.2 0 0 0 12 3.6zM4.368 6.06a1.2 1.2 0 0 0 1.692 0 1.2 1.2 0 0 0 0-1.692l-.852-.852a1.2 1.2 0 0 0-1.692 1.692l.852.852zm14.4.348a1.2 1.2 0 0 0 .84-.348l.852-.852a1.2 1.2 0 1 0-1.692-1.692L18 4.368a1.2 1.2 0 0 0 0 1.692 1.2 1.2 0 0 0 .792.348h-.024zM22.8 10.8h-1.2a1.2 1.2 0 1 0 0 2.4h1.2a1.2 1.2 0 1 0 0-2.4zM12 20.4a1.2 1.2 0 0 0-1.2 1.2v1.2a1.2 1.2 0 1 0 2.4 0v-1.2a1.2 1.2 0 0 0-1.2-1.2zm7.632-2.4A1.2 1.2 0 0 0 18 19.632l.852.852a1.2 1.2 0 0 0 1.692 0 1.2 1.2 0 0 0 0-1.692L19.632 18zM12 5.4a6.6 6.6 0 1 0 6.6 6.6A6.612 6.612 0 0 0 12 5.4zm0 10.8a4.2 4.2 0 1 1 0-8.4 4.2 4.2 0 0 1 0 8.4z" fill-rule="evenodd"/></symbol><symbol id="icons-design" viewBox="0 0 20 20"><path d="M5.867 13.199a.915.915 0 0 0 0 1.281.897.897 0 0 0 1.28 0 .915.915 0 0 0 0-1.281.897.897 0 0 0-1.28 0zm0-7.717a.915.915 0 0 0 0 1.281.897.897 0 0 0 1.28 0 .915.915 0 0 0 0-1.281.897.897 0 0 0-1.28 0zm4.46 9.09c-.498 0-.902.406-.902.908s.404.91.901.91a.906.906 0 0 0 .901-.91.914.914 0 0 0-.247-.672.897.897 0 0 0-.654-.282v.045zM4.92 9.117c-.498 0-.9.407-.9.909s.402.908.9.908.9-.406.9-.908a.914.914 0 0 0-.247-.673.897.897 0 0 0-.653-.282v.046zm5.405-5.454c-.497 0-.9.407-.9.909s.403.909.9.909a.905.905 0 0 0 .901-.91.914.914 0 0 0-.247-.671.897.897 0 0 0-.654-.283v.046zm3.19 1.863a.915.915 0 0 0-.198.991.9.9 0 0 0 .833.563.9.9 0 0 0 .832-.563.915.915 0 0 0-.197-.99.895.895 0 0 0-1.27-.046v.045zm5.675 0C16.904.914 11.514-1.187 6.747.677 1.98 2.543-.6 7.76.793 12.723c1.392 4.964 6.298 8.044 11.326 7.112a3.485 3.485 0 0 0 2.252-1.5c.561-.853.76-1.897.55-2.9a5.18 5.18 0 0 1-.09-.908 4.546 4.546 0 0 1 2.702-4.145 3.479 3.479 0 0 0 1.856-2.045c.316-.93.244-1.95-.198-2.827v.018zm-1.53 2.219c-.156.44-.48.797-.901.99a6.365 6.365 0 0 0-3.604 7.063c.111.518.01 1.059-.28 1.5a1.61 1.61 0 0 1-1.09.727c-.48.092-.97.137-1.459.137a8.073 8.073 0 0 1-5.824-2.486 8.221 8.221 0 0 1-2.284-5.95c.145-4.232 3.45-7.661 7.64-7.925h.46a8.101 8.101 0 0 1 7.26 4.544c.207.432.236.929.082 1.382v.018zm-7.334 1.327c-.497 0-.9.407-.9.91 0 .501.403.908.9.908a.905.905 0 0 0 .901-.909.905.905 0 0 0-.9-.909z"/></symbol><symbol id="icons-desktop" viewBox="0 0 20 20"><path d="M17 .833H3C1.343.833 0 2.17 0 3.82v7.963a2.993 2.993 0 0 0 3 2.987h6v1.99H5c-.552 0-1 .446-1 .996s.448.995 1 .995h10c.552 0 1-.446 1-.995a.998.998 0 0 0-1-.996h-4v-1.99h6c1.657 0 3-1.337 3-2.987V3.82a2.993 2.993 0 0 0-3-2.986zm1 10.95c0 .55-.448.995-1 .995H3c-.552 0-1-.446-1-.996V3.82c0-.55.448-.995 1-.995h14c.552 0 1 .446 1 .995v7.963z"/></symbol><symbol id="icons-empty" viewBox="0 0 192 192"><path d="M153.6 0c-21.208 0-38.4 17.192-38.4 38.4s17.192 38.4 38.4 38.4S192 59.608 192 38.4A38.4 38.4 0 0 0 153.6 0zm0 57.6c-10.604 0-19.2-8.596-19.2-19.2s8.596-19.2 19.2-19.2 19.2 8.596 19.2 19.2a19.2 19.2 0 0 1-19.2 19.2zm-28.8 115.2h-19.2v-19.2a9.6 9.6 0 1 0-19.2 0v19.2H67.2v-32.448l33.12-16.608a9.6 9.6 0 0 0 5.28-8.544V76.8a9.6 9.6 0 1 0-19.2 0v32.448l-19.2 9.6V57.6a9.6 9.6 0 1 0-19.2 0v80.448l-19.2-9.6V105.6a9.6 9.6 0 1 0-19.2 0v28.8a9.6 9.6 0 0 0 5.28 8.544L48 159.552V172.8H9.6a9.6 9.6 0 1 0 0 19.2h115.2a9.6 9.6 0 1 0 0-19.2z" fill-rule="evenodd"/></symbol><symbol id="icons-envelope" viewBox="0 0 20 20"><path d="M17 2.083H3c-1.657 0-3 1.33-3 2.97v9.895c0 1.64 1.343 2.969 3 2.969h14c1.657 0 3-1.33 3-2.97V5.053c0-1.64-1.343-2.969-3-2.969zm-.41 1.98L10.71 9.88a1.005 1.005 0 0 1-1.42 0L3.41 4.062h13.18zM18 14.947c0 .546-.448.99-1 .99H3c-.552 0-1-.444-1-.99v-9.49l5.88 5.819a3.022 3.022 0 0 0 4.24 0L18 5.457v9.49z" fill-rule="evenodd"/></symbol><symbol id="icons-farm" viewBox="0 0 25 24"><path d="M18.814 7.378a1.2 1.2 0 0 0 .84-.346l.852-.848a1.191 1.191 0 0 0-.5-2.069 1.203 1.203 0 0 0-1.192.385l-.792.848a1.19 1.19 0 0 0 .792 2.03zm-6.792-2.795c.663 0 1.2-.534 1.2-1.194V2.194c0-.66-.537-1.194-1.2-1.194-.663 0-1.2.535-1.2 1.194V3.39c0 .66.537 1.194 1.2 1.194zm-9.6 7.167h-1.2c-.663 0-1.2.535-1.2 1.194 0 .66.537 1.195 1.2 1.195h1.2c.663 0 1.2-.535 1.2-1.195s-.537-1.194-1.2-1.194zM4.39 7.032a1.203 1.203 0 0 0 1.692 0 1.19 1.19 0 0 0 0-1.684L5.23 4.5a1.204 1.204 0 0 0-1.63.062 1.19 1.19 0 0 0-.062 1.622l.852.848zm18.432 4.718h-1.2c-.663 0-1.2.535-1.2 1.194 0 .66.537 1.195 1.2 1.195h1.2c.663 0 1.2-.535 1.2-1.195s-.537-1.194-1.2-1.194zm-12 8.361h-3.6c-.663 0-1.2.535-1.2 1.195s.537 1.194 1.2 1.194h3.6c.663 0 1.2-.535 1.2-1.194 0-.66-.537-1.195-1.2-1.195zm8.4-4.778h-1.056c.303-.76.458-1.57.456-2.389 0-3.628-2.955-6.569-6.6-6.569-3.645 0-6.6 2.941-6.6 6.57a6.412 6.412 0 0 0 .456 2.388H4.822c-.663 0-1.2.535-1.2 1.195s.537 1.194 1.2 1.194h14.4c.663 0 1.2-.535 1.2-1.194 0-.66-.537-1.195-1.2-1.195zm-3.78 0h-6.84a4.096 4.096 0 0 1-.78-2.389c0-2.308 1.88-4.18 4.2-4.18 2.32 0 4.2 1.872 4.2 4.18a4.096 4.096 0 0 1-.78 2.39zm1.38 4.778h-1.2c-.663 0-1.2.535-1.2 1.195s.537 1.194 1.2 1.194h1.2c.663 0 1.2-.535 1.2-1.194 0-.66-.537-1.195-1.2-1.195z" fill-rule="evenodd"/></symbol><symbol id="icons-gift" viewBox="0 0 24 24"><path d="M19.417 6.005h-.418a4.187 4.187 0 0 0-2.18-5.696 4.156 4.156 0 0 0-4.569.969 4.156 4.156 0 0 0-4.568-.97 4.187 4.187 0 0 0-2.18 5.697h-.419A3.591 3.591 0 0 0 1.5 9.604v2.4c0 .662.535 1.199 1.194 1.199H3.89V20.4A3.59 3.59 0 0 0 7.472 24h9.556a3.591 3.591 0 0 0 3.583-3.6v-7.197h1.195c.66 0 1.194-.537 1.194-1.2v-2.4a3.59 3.59 0 0 0-3.583-3.598zM11.056 21.6H7.472c-.66 0-1.194-.537-1.194-1.2v-7.198h4.778V21.6zm0-10.798H3.889v-1.2c0-.662.535-1.199 1.194-1.199h5.973v2.4zm0-4.798H9.264c-.99 0-1.792-.806-1.792-1.8s.802-1.8 1.792-1.8 1.792.806 1.792 1.8v1.8zm2.388-1.8c0-.994.803-1.8 1.792-1.8.99 0 1.792.806 1.792 1.8s-.802 1.8-1.792 1.8h-1.792v-1.8zM18.222 20.4c0 .663-.535 1.2-1.194 1.2h-3.584v-8.398h4.778V20.4zm2.39-9.598h-7.168V8.404h5.973c.66 0 1.194.537 1.194 1.2v1.2z"/></symbol><symbol id="icons-globe" viewBox="0 0 24 24"><path d="M23.29 7.956v-.06A12.024 12.024 0 0 0 12 0 12.024 12.024 0 0 0 .71 7.896v.06a11.877 11.877 0 0 0 0 8.088v.06A12.024 12.024 0 0 0 12 24c5.046 0 9.555-3.153 11.29-7.896v-.06a11.877 11.877 0 0 0 0-8.088zM2.67 14.407a9.42 9.42 0 0 1 0-4.814h2.236a20.153 20.153 0 0 0 0 4.814H2.669zm.985 2.407H5.34a14.63 14.63 0 0 0 1.202 3.093 9.624 9.624 0 0 1-2.886-3.093zM5.34 7.186H3.655a9.625 9.625 0 0 1 2.85-3.093A14.631 14.631 0 0 0 5.34 7.186zm5.435 14.081a7.63 7.63 0 0 1-2.922-4.453h2.922v4.453zm0-6.86h-3.44a17.298 17.298 0 0 1 0-4.814h3.44v4.814zm0-7.221H7.852a7.63 7.63 0 0 1 2.922-4.453v4.453zm9.522 0h-1.683a14.63 14.63 0 0 0-1.202-3.093 9.624 9.624 0 0 1 2.885 3.093zm-7.118-4.453A7.63 7.63 0 0 1 16.1 7.186h-2.922V2.733zm0 18.534v-4.453H16.1a7.63 7.63 0 0 1-2.922 4.453zm3.44-6.86h-3.44V9.593h3.44a17.298 17.298 0 0 1 0 4.814zm.829 5.5c.517-.982.92-2.02 1.202-3.093h1.684a9.624 9.624 0 0 1-2.886 3.093zm3.835-5.5h-2.236c.098-.799.146-1.602.144-2.407a19.611 19.611 0 0 0-.144-2.407h2.236a9.42 9.42 0 0 1 0 4.814z" fill-rule="evenodd"/></symbol><symbol id="icons-govern" viewBox="0 0 24 24"><path d="M22.35 9.143c.305 0 .598-.12.813-.335A1.14 1.14 0 0 0 23.5 8V4.57c0-.492-.317-.929-.786-1.084L12.364.06a1.16 1.16 0 0 0-.728 0L1.286 3.487C.816 3.642.5 4.08.5 4.571V8c0 .303.121.594.337.808.215.214.508.335.813.335H2.8v8.21a3.424 3.424 0 0 0-2.3 3.218v2.286A1.15 1.15 0 0 0 1.65 24h20.7c.305 0 .598-.12.813-.335a1.14 1.14 0 0 0 .337-.808v-2.286a3.424 3.424 0 0 0-2.3-3.218v-8.21h1.15zM21.2 21.714H2.8v-1.143c0-.63.515-1.142 1.15-1.143h16.1c.635.001 1.15.512 1.15 1.143v1.143zM5.1 17.143v-8h2.3v8H5.1zm4.6 0v-8h4.6v8H9.7zm6.9 0v-8h2.3v8h-2.3zM2.8 6.857V5.395L12 2.347l9.2 3.048v1.462H2.8z" fill-rule="evenodd"/></symbol><symbol id="icons-graph" viewBox="0 0 24 24"><path d="M5.455 13.09H1.09A1.09 1.09 0 0 0 0 14.183v8.727C0 23.512.488 24 1.09 24h4.365a1.09 1.09 0 0 0 1.09-1.09v-8.728a1.09 1.09 0 0 0-1.09-1.091zm-1.091 8.728H2.182v-6.545h2.182v6.545zm18.545-13.09h-4.364a1.09 1.09 0 0 0-1.09 1.09V22.91a1.09 1.09 0 0 0 1.09 1.091h4.364A1.09 1.09 0 0 0 24 22.91V9.817a1.09 1.09 0 0 0-1.09-1.09zm-1.09 13.09h-2.183V10.91h2.182v10.91zM14.181 0H9.818a1.09 1.09 0 0 0-1.09 1.09v21.82c0 .602.488 1.09 1.09 1.09h4.364a1.09 1.09 0 0 0 1.09-1.09V1.09A1.09 1.09 0 0 0 14.183 0zM13.09 21.818h-2.182V2.182h2.182v19.636z" fill-rule="evenodd"/></symbol><symbol id="icons-grow" viewBox="0 0 24 24"><path d="M3 16.5A1.5 1.5 0 0 0 1.5 18v4.5a1.5 1.5 0 0 0 3 0V18A1.5 1.5 0 0 0 3 16.5zM9 12a1.5 1.5 0 0 0-1.5 1.5v9a1.5 1.5 0 0 0 3 0v-9A1.5 1.5 0 0 0 9 12zM21 0a1.5 1.5 0 0 0-1.5 1.5v21a1.5 1.5 0 0 0 3 0v-21A1.5 1.5 0 0 0 21 0zm-6 6a1.5 1.5 0 0 0-1.5 1.5v15a1.5 1.5 0 0 0 3 0v-15A1.5 1.5 0 0 0 15 6z" fill-rule="evenodd"/></symbol><symbol id="icons-heart-filled" viewBox="0 0 24 24"><path d="M21.828 3.677a7.608 7.608 0 0 0-9.802-.702C8.856.638 4.401 1.127 1.823 4.095a7.411 7.411 0 0 0 .402 10.161l7.207 7.2a3.627 3.627 0 0 0 5.093 0l7.207-7.2A7.428 7.428 0 0 0 24 8.986a7.425 7.425 0 0 0-2.172-5.31z" fill-rule="evenodd"/></symbol><symbol id="icons-heart" viewBox="0 0 24 24"><path d="M21.828 3.677a7.608 7.608 0 0 0-9.802-.702C8.856.638 4.401 1.127 1.823 4.095a7.411 7.411 0 0 0 .402 10.161l7.207 7.2a3.627 3.627 0 0 0 5.093 0l7.207-7.2A7.428 7.428 0 0 0 24 8.986a7.425 7.425 0 0 0-2.172-5.31zm-1.694 8.877-7.207 7.14a1.207 1.207 0 0 1-1.706 0l-7.207-7.14a5.071 5.071 0 0 1 0-7.14 5.163 5.163 0 0 1 7.207 0 1.207 1.207 0 0 0 1.706 0 5.165 5.165 0 0 1 6.82.383 5.047 5.047 0 0 1 .387 6.757z" fill-rule="evenodd"/></symbol><symbol id="icons-help" viewBox="0 0 24 24"><path d="M24 10.942v-.399l-.109-.725-.108-.472c0-.205-.097-.411-.157-.617a5.749 5.749 0 0 0-.157-.483 2.627 2.627 0 0 1-.085-.29v-.06A12.202 12.202 0 0 0 16.262.761h-.06l-.278-.085-.508-.157c-.18 0-.374-.097-.555-.145l-.555-.121-.555-.085c-.194 0-.375 0-.58-.072-.205-.073-.423 0-.628 0L11.928 0h-1.099c-.205 0-.386 0-.58.073l-.555.084-.555.121c-.181 0-.374.085-.555.145L8.076.58 7.8.665h-.06A12.202 12.202 0 0 0 .615 7.798v.06c-.023.1-.051.196-.085.291 0 .157-.108.314-.157.484-.048.169-.108.41-.157.616l-.108.472-.109.725v3.096l.109.725.108.472c0 .205.097.41.157.616.06.206.097.327.157.484.034.095.062.192.085.29a.52.52 0 0 1 0 .085 12.082 12.082 0 0 0 7.11 7.109h.06l.29.085.483.157.616.157.47.109.725.109h.399c.374 0 .76.06 1.146.06.387 0 .773 0 1.147-.06h.399l.724-.11.47-.108.617-.157.483-.157.29-.085h.06a12.082 12.082 0 0 0 7.11-7.11.52.52 0 0 1 0-.084c0-.097.06-.193.085-.29.024-.097.108-.315.157-.484.048-.17.108-.41.157-.616l.108-.472.109-.725v-.4c0-.374.06-.761.06-1.148 0-.387.109-.677.109-1.052zm-7.606-7.448a9.665 9.665 0 0 1 4.177 4.184L17.12 8.887a6.21 6.21 0 0 0-1.98-1.983l1.255-3.41zm-6.47-.846c.253-.06.495-.097.736-.133h.29a9.933 9.933 0 0 1 2.076 0h.29c.241 0 .483.072.736.133h.073l-1.207 3.458a5.412 5.412 0 0 0-.99-.06 5.214 5.214 0 0 0-.882.072L9.84 2.66l.085-.012zm-2.343.846L8.79 6.952a6.21 6.21 0 0 0-1.992 1.983l-3.453-1.21a9.666 9.666 0 0 1 4.177-4.23h.06zM2.5 14.158a5.049 5.049 0 0 1-.12-.725v-.303a8.985 8.985 0 0 1 0-2.08v-.301c.022-.245.062-.487.12-.726v-.072l3.453 1.209a5.413 5.413 0 0 0 0 1.765L2.5 14.134v.024zm5.022 6.53a9.665 9.665 0 0 1-4.177-4.184l3.453-1.21a6.21 6.21 0 0 0 1.98 1.984l-1.256 3.41zm6.471.846c-.254.06-.495.096-.736.132h-.29a9.933 9.933 0 0 1-2.077 0h-.29c-.24 0-.482-.072-.736-.132h-.072l1.207-3.458a5.388 5.388 0 0 0 1.763 0l1.207 3.458h.024zm-.809-6.046c-.205.073-.41.121-.604.17a3.29 3.29 0 0 1-1.207 0c-.193 0-.398-.097-.603-.17A3.624 3.624 0 0 1 8.547 13.3a3.91 3.91 0 0 1-.169-.617c-.077-.4-.077-.81 0-1.209a4 4 0 0 1 .157-.592 3.624 3.624 0 0 1 2.185-2.177c.206-.072.41-.12.604-.169a3.29 3.29 0 0 1 1.207 0c.193 0 .399.097.604.17a3.624 3.624 0 0 1 2.173 2.176c.073.2.13.406.169.616.077.4.077.81 0 1.21a3.624 3.624 0 0 1-2.342 2.769l.048.011zm3.151 5.211-1.207-3.458a6.21 6.21 0 0 0 1.98-1.983l3.452 1.21a9.665 9.665 0 0 1-4.225 4.22v.011zm5.252-7.569v.303a5.049 5.049 0 0 1-.121.725v.073l-3.453-1.21a5.413 5.413 0 0 0 0-1.765l3.453-1.209v.073c.058.238.098.48.12.725v.303c.081.69.081 1.388 0 2.08v-.098z" fill-rule="evenodd"/></symbol><symbol id="icons-home" viewBox="0 0 20 21"><path d="M18.171 6.048 12.2.794a2.978 2.978 0 0 0-3.981 0L2.246 6.048a3.002 3.002 0 0 0-.996 2.257v8.73a2.991 2.991 0 0 0 2.986 2.996h11.945a2.991 2.991 0 0 0 2.986-2.996v-8.74a3.001 3.001 0 0 0-.996-2.247zM12.2 18.034H8.218V13.04c0-.552.445-.999.995-.999h1.99c.55 0 .996.447.996.999v4.994zm4.977-.999a.997.997 0 0 1-.995.999H14.19V13.04a2.991 2.991 0 0 0-2.986-2.997H9.213a2.991 2.991 0 0 0-2.986 2.997v4.994h-1.99a.997.997 0 0 1-.996-.999v-8.74a1 1 0 0 1 .338-.749l5.972-5.243a.993.993 0 0 1 1.314 0l5.972 5.243a1 1 0 0 1 .339.75v8.739z" fill-rule="evenodd"/></symbol><symbol id="icons-image" viewBox="0 0 24 24"><path d="M20.4 2.5H3.6C1.612 2.5 0 4.095 0 6.063v11.875C0 19.904 1.612 21.5 3.6 21.5h16.8c1.988 0 3.6-1.595 3.6-3.563V6.063C24 4.095 22.388 2.5 20.4 2.5zM3.6 19.125c-.663 0-1.2-.532-1.2-1.188v-2.873l3.96-3.907a1.209 1.209 0 0 1 1.68 0l8.052 7.968H3.6zm18-1.188c0 .656-.537 1.188-1.2 1.188h-.924l-4.572-4.548 1.056-1.045a1.209 1.209 0 0 1 1.68 0l3.96 3.907v.498zm0-3.847-2.256-2.22a3.7 3.7 0 0 0-5.088 0L13.2 12.913l-3.456-3.42a3.7 3.7 0 0 0-5.088 0L2.4 11.715V6.063c0-.656.537-1.188 1.2-1.188h16.8c.663 0 1.2.532 1.2 1.188v8.027z" fill-rule="evenodd"/></symbol><symbol id="icons-key" viewBox="0 0 20 20"><path d="m19.679 4.532-1.418-1.41 1.418-1.409a1.005 1.005 0 0 0 0-1.419 1.001 1.001 0 0 0-1.418 0L7.74 10.83a4.986 4.986 0 0 0-6.616 1.012 5.003 5.003 0 0 0 .338 6.694 4.986 4.986 0 0 0 6.684.339 5.003 5.003 0 0 0 1.011-6.626l4.872-4.888 1.407 1.42a.998.998 0 0 0 .709.29.998.998 0 0 0 1.004-1 1 1 0 0 0-.295-.71l-1.418-1.36 1.418-1.419 1.407 1.42a.998.998 0 0 0 .709.29.998.998 0 0 0 .709-.29 1 1 0 0 0 0-1.47zM4.995 17.997A2.997 2.997 0 0 1 2 14.998 2.997 2.997 0 0 1 4.995 12a2.997 2.997 0 0 1 2.994 2.998 2.997 2.997 0 0 1-2.994 3z" fill-rule="evenodd"/></symbol><symbol id="icons-link" viewBox="0 0 20 20"><path d="m7.932 15.65-1.784 1.732a2.496 2.496 0 0 1-3.527 0 2.49 2.49 0 0 1 0-3.524l4.575-4.58a2.48 2.48 0 0 1 3.417-.091l.12.1a1.01 1.01 0 0 0 1.411-1.44 2.77 2.77 0 0 0-.181-.21 4.498 4.498 0 0 0-6.137.22L1.19 12.439a4.507 4.507 0 0 0 .132 6.241 4.518 4.518 0 0 0 6.247.132l1.744-1.701a1.006 1.006 0 0 0-1.381-1.46zM18.705 1.314a4.528 4.528 0 0 0-6.38 0l-1.743 1.701a1.006 1.006 0 0 0 1.38 1.46l1.744-1.731a2.496 2.496 0 0 1 3.527 0 2.49 2.49 0 0 1 0 3.523l-4.575 4.58a2.48 2.48 0 0 1-3.416.091l-.121-.1a1.01 1.01 0 0 0-1.41 1.44c.072.074.15.145.231.21a4.508 4.508 0 0 0 6.137-.22l4.585-4.581a4.517 4.517 0 0 0 .04-6.373z" fill-rule="evenodd"/></symbol><symbol id="icons-liquidity" viewBox="0 0 20 20"><path d="M15.017 4.983A7.766 7.766 0 1 0 4.983 15.017 7.766 7.766 0 1 0 15.017 4.983zm-1.605 1.605c.072.377.109.76.11 1.144a5.94 5.94 0 0 1-.16 1.345l-2.449-2.428a5.94 5.94 0 0 1 1.345-.16 6.14 6.14 0 0 1 1.144.11l.01-.01zm-.944 4.415a6.02 6.02 0 0 1-1.465 1.465L7.532 8.997a6.02 6.02 0 0 1 1.465-1.465l3.471 3.471zm-8.027 1.465a5.77 5.77 0 1 1 8.027-8.027h-.25a7.786 7.786 0 0 0-7.737 7.817c0 .08.01.17.01.25l-.05-.04zm2.107.893a6.14 6.14 0 0 1-.11-1.143 5.94 5.94 0 0 1 .16-1.345l2.439 2.438a5.94 5.94 0 0 1-1.345.16 6.14 6.14 0 0 1-1.094-.07l-.05-.04zm5.71 4.666A5.79 5.79 0 0 1 7.49 15.51h.251a7.786 7.786 0 0 0 7.777-7.767v-.25a5.77 5.77 0 0 1-3.261 10.535z" fill-rule="evenodd"/></symbol><symbol id="icons-medal" viewBox="0 0 11 10"><path d="M10.072 1.873a.5.5 0 0 0-.234-.305L7.247.068a.497.497 0 0 0-.683.18l-1.166 2.03L4.232.248a.498.498 0 0 0-.682-.18l-2.591 1.5a.5.5 0 0 0-.185.68l1.993 3.415a2.962 2.962 0 0 0-.358 1.33A3 3 0 0 0 4.324 9.8a2.983 2.983 0 0 0 3.297-.794 3.007 3.007 0 0 0 .438-3.373l1.943-3.38a.501.501 0 0 0 .07-.38zm-8.162.31 1.724-1 1.605 2.81a2.955 2.955 0 0 0-1.834.79l-1.495-2.6zm3.488 6.81c-1.1 0-1.993-.896-1.993-2 0-1.105.892-2 1.993-2 1.1 0 1.993.895 1.993 2 0 1.104-.892 2-1.993 2zm1.993-4.225a2.938 2.938 0 0 0-.927-.575l-.488-.915 1.206-2.095 1.724 1-1.515 2.585z"/></symbol><symbol id="icons-menu" viewBox="0 0 24 24"><path d="M22.5 10.5h-21a1.5 1.5 0 0 0 0 3h21a1.5 1.5 0 0 0 0-3zm0-6h-21a1.5 1.5 0 0 0 0 3h21a1.5 1.5 0 0 0 0-3zm0 12h-21a1.5 1.5 0 0 0 0 3h21a1.5 1.5 0 0 0 0-3z" fill-rule="evenodd"/></symbol><symbol id="icons-money-stack" viewBox="0 0 20 20"><path d="M19.09 14.545H.91a.91.91 0 0 0 0 1.819h18.18a.91.91 0 0 0 0-1.819zm0 3.637H.91A.91.91 0 1 0 .91 20h18.18a.91.91 0 0 0 0-1.818zM4.546 5.455a.91.91 0 1 0 0 1.818.91.91 0 0 0 0-1.818zM17.273 0H2.727A2.727 2.727 0 0 0 0 2.727V10a2.727 2.727 0 0 0 2.727 2.727h14.546A2.727 2.727 0 0 0 20 10V2.727A2.727 2.727 0 0 0 17.273 0zm.909 10a.91.91 0 0 1-.91.91H2.728a.91.91 0 0 1-.909-.91V2.727a.91.91 0 0 1 .91-.909h14.545a.91.91 0 0 1 .909.91V10zM10 3.636a2.727 2.727 0 1 0 0 5.455 2.727 2.727 0 0 0 0-5.455zm0 3.637a.91.91 0 1 1 0-1.818.91.91 0 0 1 0 1.818zm5.455-1.818a.91.91 0 1 0 0 1.818.91.91 0 0 0 0-1.818z"/></symbol><symbol id="icons-night" viewBox="0 0 20 20"><path d="M19.607 11.192a.993.993 0 0 0-1.049-.14 7.993 7.993 0 0 1-3.367.734c-4.475-.005-8.107-3.647-8.134-8.155a8.71 8.71 0 0 1 .25-2.013 1.011 1.011 0 0 0-.334-.962.993.993 0 0 0-.995-.176C1.658 2.437-.74 7.149.204 11.826c.944 4.676 4.978 8.07 9.713 8.172 4.736.101 8.91-3.116 10.05-7.749a1.011 1.011 0 0 0-.36-1.057zm-9.492 6.736c-3.436-.025-6.487-2.222-7.62-5.49a8.234 8.234 0 0 1 2.564-9.079v.272c.005 5.636 4.538 10.204 10.132 10.21a9.711 9.711 0 0 0 2.098-.222 8.096 8.096 0 0 1-7.174 4.35v-.041z"/></symbol><symbol id="icons-phone" viewBox="0 0 24 24"><path d="m12.862 17.148-.182-.144a.927.927 0 0 0-.219-.108l-.218-.096c-.4-.083-.815.04-1.105.324a1.37 1.37 0 0 0-.255.396 1.19 1.19 0 0 0 .26 1.306c.344.343.865.448 1.318.266.146-.07.28-.158.401-.264a1.19 1.19 0 0 0 .255-1.308 1.2 1.2 0 0 0-.255-.372zM16.857 0H7.143C5.13 0 3.5 1.612 3.5 3.6v16.8c0 1.988 1.631 3.6 3.643 3.6h9.714c2.012 0 3.643-1.612 3.643-3.6V3.6c0-1.988-1.631-3.6-3.643-3.6zm1.214 20.4c0 .663-.543 1.2-1.214 1.2H7.143c-.67 0-1.214-.537-1.214-1.2V3.6c0-.663.543-1.2 1.214-1.2h9.714c.67 0 1.214.537 1.214 1.2v16.8z" fill-rule="evenodd"/></symbol><symbol id="icons-play" viewBox="0 0 20 20"><path d="M17.27 6.665 6.535.51A3.8 3.8 0 0 0 .834 3.843V16.2a3.8 3.8 0 0 0 5.7 3.289l10.736-6.156a3.8 3.8 0 0 0 0-6.579v-.089zm-1.112 4.656L5.423 17.566a1.6 1.6 0 0 1-1.578 0 1.578 1.578 0 0 1-.789-1.366V3.798a1.575 1.575 0 0 1 1.578-1.577c.276.005.547.078.79.21l10.734 6.201a1.578 1.578 0 0 1 0 2.734v-.045z" fill-rule="evenodd"/></symbol><symbol id="icons-plus" viewBox="0 0 20 20"><path d="M18.75 8.75h-7.5v-7.5a1.25 1.25 0 0 0-2.5 0v7.5h-7.5a1.25 1.25 0 1 0 0 2.5h7.5v7.5a1.25 1.25 0 0 0 2.5 0v-7.5h7.5a1.25 1.25 0 0 0 0-2.5z"/></symbol><symbol id="icons-question" viewBox="0 0 24 24"><path d="M11.148 15.948c-.052.057-.1.117-.144.18a.912.912 0 0 0-.108.216.768.768 0 0 0-.072.216c-.006.08-.006.16 0 .24-.004.157.029.314.096.456.11.301.347.539.648.648.29.128.622.128.912 0a1.08 1.08 0 0 0 .648-.648 1.2 1.2 0 0 0 .072-.456 1.2 1.2 0 0 0-2.052-.852zM12 0C5.373 0 0 5.373 0 12s5.373 12 12 12 12-5.373 12-12A12 12 0 0 0 12 0zm0 21.6a9.6 9.6 0 1 1 0-19.2 9.6 9.6 0 0 1 0 19.2zM12 6a3.6 3.6 0 0 0-3.12 1.8A1.2 1.2 0 1 0 10.956 9 1.2 1.2 0 0 1 12 8.4a1.2 1.2 0 1 1 0 2.4 1.2 1.2 0 0 0-1.2 1.2v1.2a1.2 1.2 0 1 0 2.4 0v-.216A3.6 3.6 0 0 0 12 6z" fill-rule="evenodd"/></symbol><symbol id="icons-rocket" viewBox="0 0 24 24"><path d="M23.598 1.17a1.093 1.093 0 0 0-.78-.776 12.343 12.343 0 0 0-12.494 3.947l-1.22 1.443-2.85-.685a3.044 3.044 0 0 0-3.705 1.479L.14 10.827a1.085 1.085 0 0 0-.045.982c.143.316.429.546.77.618l3.361.718a14.568 14.568 0 0 0-.607 2.652c-.044.335.07.672.311.911l3.392 3.378a1.096 1.096 0 0 0 .869.315 13.364 13.364 0 0 0 2.726-.534l.704 3.272c.073.339.303.623.62.765.318.142.684.126.988-.044l4.272-2.4a3.301 3.301 0 0 0 1.505-3.6l-.732-3.005 1.354-1.24a12.176 12.176 0 0 0 3.969-12.444zm-20.82 9.437L4.48 7.6a.905.905 0 0 1 1.17-.409l1.88.454-.711.84a14.262 14.262 0 0 0-1.74 2.613l-2.301-.491zm13.644 8.958-2.972 1.669-.47-2.184a12.41 12.41 0 0 0 2.64-1.765l.814-.745.442 1.814a1.13 1.13 0 0 1-.454 1.21zm1.766-7.589-4.032 3.69a10.715 10.715 0 0 1-5.657 2.51l-2.63-2.62a11.888 11.888 0 0 1 2.627-5.671l1.836-2.171c.03-.032.06-.066.085-.101l1.57-1.857a10.175 10.175 0 0 1 9.64-3.399 10.02 10.02 0 0 1-3.44 9.62zm-1.01-6.715c-.906 0-1.641.732-1.641 1.634 0 .903.735 1.634 1.641 1.634s1.641-.731 1.641-1.634c0-.433-.173-.849-.48-1.155a1.645 1.645 0 0 0-1.161-.479z" fill-rule="evenodd"/></symbol><symbol id="icons-shield" viewBox="0 0 24 24"><path d="M21.06 1.979a1.178 1.178 0 0 0-.997-.24A9.418 9.418 0 0 1 12.677.214a1.177 1.177 0 0 0-1.354 0A9.418 9.418 0 0 1 3.937 1.74a1.178 1.178 0 0 0-.998.24c-.279.228-.44.573-.439.936v8.943a10.84 10.84 0 0 0 4.477 8.798l4.334 3.121c.413.297.965.297 1.378 0l4.334-3.12a10.84 10.84 0 0 0 4.477-8.8V2.916a1.205 1.205 0 0 0-.44-.936zm-1.935 9.879a8.431 8.431 0 0 1-3.48 6.842L12 21.329l-3.646-2.63a8.431 8.431 0 0 1-3.479-6.841V4.295c2.49.216 4.983-.368 7.125-1.668a11.773 11.773 0 0 0 7.125 1.668v7.563zm-5.296-2.75-3.195 3.242-1.056-1.08a1.183 1.183 0 0 0-1.687 0 1.215 1.215 0 0 0 0 1.704l1.9 1.92a1.181 1.181 0 0 0 1.687 0l4.084-4.093a1.215 1.215 0 0 0 0-1.704 1.183 1.183 0 0 0-1.686 0l-.047.012z" fill-rule="evenodd"/></symbol><symbol id="icons-soc-discord" viewBox="0 0 32 32"><path d="M27.107 5.4a26.143 26.143 0 0 0-6.602-2.067 19.24 19.24 0 0 0-.845 1.749 24.342 24.342 0 0 0-7.317 0 18.655 18.655 0 0 0-.856-1.749A26.056 26.056 0 0 0 4.88 5.404C.702 11.691-.43 17.822.136 23.866c2.771 2.06 5.457 3.312 8.097 4.131a20.036 20.036 0 0 0 1.734-2.844 17.082 17.082 0 0 1-2.73-1.323c.228-.169.452-.346.669-.527 5.265 2.452 10.986 2.452 16.188 0 .22.181.443.358.67.527a17.04 17.04 0 0 1-2.736 1.326c.5.998 1.08 1.95 1.734 2.844 2.643-.82 5.33-2.07 8.102-4.134.664-7.006-1.135-13.08-4.757-18.467zM10.684 20.148c-1.58 0-2.877-1.47-2.877-3.259s1.269-3.26 2.877-3.26c1.609 0 2.905 1.468 2.877 3.26.003 1.79-1.268 3.259-2.877 3.259zm10.632 0c-1.581 0-2.877-1.47-2.877-3.259s1.268-3.26 2.877-3.26c1.608 0 2.904 1.468 2.876 3.26 0 1.79-1.268 3.259-2.876 3.259z" fill-rule="evenodd"/></symbol><symbol id="icons-soc-facebook" viewBox="0 0 32 32"><path d="M20.984 5.312H24V.224A42.003 42.003 0 0 0 19.605 0c-4.363 0-7.347 2.656-7.347 7.52v4.192H7.333v5.696h4.925V32h5.903V17.408h4.909l.738-5.696H18.16V8.08c0-1.68.45-2.768 2.823-2.768z" fill-rule="evenodd"/></symbol><symbol id="icons-soc-medium" viewBox="0 0 32 32"><path d="M30.734 7.067H32V3.333H20.032L16.054 18h-.108L12.004 3.333H0v3.734h1.23A1.433 1.433 0 0 1 2.4 8.178v15.729a1.345 1.345 0 0 1-1.17 1.026H0v3.734h9.6v-3.734H7.2V8.4h.14l5.532 20.267h4.34L22.815 8.4h.118v16.533h-2.4v3.734H32v-3.734h-1.266a1.343 1.343 0 0 1-1.134-1.026V8.178a1.436 1.436 0 0 1 1.134-1.111z" fill-rule="evenodd"/></symbol><symbol id="icons-soc-telegram" viewBox="0 0 32 32"><path d="M16 0c8.837 0 16 7.163 16 16s-7.163 16-16 16S0 24.837 0 16 7.163 0 16 0zm6.542 9.632c-.602.01-1.525.332-5.969 2.18l-9.33 4.02c-.758.3-1.155.595-1.19.883-.07.553.726.726 1.728 1.051.817.266 1.916.576 2.487.589.519.011 1.097-.203 1.735-.641 4.359-2.942 6.608-4.429 6.75-4.461.099-.022.237-.051.33.032.094.083.085.24.075.283-.037.158-.956 1.06-1.947 2l-.398.376c-.995.936-1.953 1.815-2.064 1.93-.9.935-1.924 1.507-.344 2.548l3.57 2.399c.9.59 1.606 1.29 2.535 1.204.428-.04.87-.441 1.094-1.64.53-2.834 1.572-8.974 1.812-11.504a2.82 2.82 0 0 0-.026-.63.674.674 0 0 0-.228-.433c-.192-.155-.488-.188-.62-.186z" fill-rule="evenodd"/></symbol><symbol id="icons-soc-twitter" viewBox="0 0 32 32"><path d="M32 5.782c-1.203.52-2.475.865-3.776 1.022a6.598 6.598 0 0 0 2.896-3.625 13.151 13.151 0 0 1-4.176 1.597 6.57 6.57 0 0 0-7.914-1.337 6.543 6.543 0 0 0-3.286 7.31 18.636 18.636 0 0 1-13.52-6.852 6.633 6.633 0 0 0-.88 3.306 6.528 6.528 0 0 0 2.912 5.446 6.49 6.49 0 0 1-2.976-.815v.08a6.55 6.55 0 0 0 5.28 6.388 6.3 6.3 0 0 1-1.76.271 7.855 7.855 0 0 1-1.232-.112 6.575 6.575 0 0 0 6.128 4.536 13.168 13.168 0 0 1-8.096 2.81c-.535.002-1.07-.03-1.6-.096a18.54 18.54 0 0 0 10.064 2.955 18.563 18.563 0 0 0 13.288-5.404A18.49 18.49 0 0 0 28.8 10.014v-.847A13.473 13.473 0 0 0 32 5.782z" fill-rule="evenodd"/></symbol><symbol id="icons-soc-youtube" viewBox="0 0 32 32"><path d="M31.993 12.655a12.539 12.539 0 0 0-1.323-6.052 4.238 4.238 0 0 0-2.5-1.465c-4.045-.37-8.107-.522-12.167-.454a113.06 113.06 0 0 0-12.124.44 4.16 4.16 0 0 0-2.122 1.084C.45 7.424.304 9.505.158 11.263a71.328 71.328 0 0 0 0 9.495c.042.99.188 1.972.436 2.93.176.741.53 1.426 1.032 1.994.592.591 1.347.99 2.166 1.143 3.134.39 6.292.551 9.449.483 5.088.074 9.55 0 14.827-.41a4.175 4.175 0 0 0 2.224-1.143c.407-.41.71-.913.887-1.465.52-1.608.775-3.291.755-4.982.059-.82.059-5.774.059-6.653zm-19.275 7.532v-9.07l8.605 4.557c-2.413 1.348-5.596 2.872-8.605 4.513z" fill-rule="evenodd"/></symbol><symbol id="icons-stake" viewBox="0 0 20 20"><path d="m.49 6.92 8.812 5.1a.978.978 0 0 0 .98 0l8.811-5.1a.981.981 0 0 0 0-1.697L10.281.13a.978.978 0 0 0-.979 0L.49 5.223a.981.981 0 0 0 0 1.697zm9.302-4.768 6.853 3.924L9.792 10 2.938 6.076l6.854-3.924zm8.322 7.034-8.322 4.738-8.323-4.777a.977.977 0 0 0-1.341.363.982.982 0 0 0 .362 1.334l8.812 5.1a.978.978 0 0 0 .98 0l8.811-5.1a.982.982 0 0 0-.233-1.796.977.977 0 0 0-.746.099v.039zm0 3.924-8.322 4.738-8.323-4.778a.977.977 0 0 0-1.341.363.982.982 0 0 0 .362 1.335l8.812 5.1a.978.978 0 0 0 .98 0l8.811-5.1a.982.982 0 0 0-.233-1.796.977.977 0 0 0-.746.098v.04z" fill-rule="evenodd"/></symbol><symbol id="icons-star" viewBox="0 0 25 24"><path d="M18.697 23.5c-.195 0-.386-.048-.558-.138l-6.117-3.232-6.117 3.232a1.195 1.195 0 0 1-1.263-.092 1.209 1.209 0 0 1-.478-1.18l1.168-6.844L.384 10.4a1.21 1.21 0 0 1-.303-1.236c.14-.437.516-.755.968-.821l6.839-.999 3.058-6.227a1.249 1.249 0 0 1 2.152 0l3.058 6.227 6.839.998c.452.067.827.385.968.821a1.21 1.21 0 0 1-.303 1.237l-4.948 4.846 1.168 6.844c.06.35-.037.71-.266.981a1.198 1.198 0 0 1-.917.429z" fill-rule="evenodd"/></symbol><symbol id="icons-sync" viewBox="0 0 20 20"><path d="M17.91 13.51h-4.53a1 1 0 0 0 0 2h2.4A8 8 0 0 1 2 10a1 1 0 1 0-2 0 10 10 0 0 0 16.88 7.23V19a1 1 0 0 0 2 0v-4.5a1 1 0 0 0-.97-.99zM10 0a10 10 0 0 0-6.88 2.77V1a1 1 0 1 0-2 0v4.5a1 1 0 0 0 1 1h4.5a1 1 0 1 0 0-2h-2.4A8 8 0 0 1 18 10a1 1 0 0 0 2 0A10 10 0 0 0 10 0z"/></symbol><symbol id="icons-thumbs-up" viewBox="0 0 25 24"><path d="M23.184 9.696a3.6 3.6 0 0 0-2.76-1.296H14.95l.672-1.716A4.956 4.956 0 0 0 10.955 0a1.2 1.2 0 0 0-1.092.708L6.443 8.4h-2.82A3.6 3.6 0 0 0 .021 12v8.4a3.6 3.6 0 0 0 3.6 3.6H18.9a3.6 3.6 0 0 0 3.54-2.952l1.524-8.4a3.6 3.6 0 0 0-.78-2.952zM6.022 21.6h-2.4a1.2 1.2 0 0 1-1.2-1.2V12a1.2 1.2 0 0 1 1.2-1.2h2.4v10.8zm15.602-9.384-1.524 8.4a1.2 1.2 0 0 1-1.2.984H8.423V9.852l3.264-7.344a2.532 2.532 0 0 1 1.656 3.336l-.636 1.716a2.4 2.4 0 0 0 2.244 3.24h5.473a1.2 1.2 0 0 1 .924.432 1.2 1.2 0 0 1 .276.984z" fill-rule="evenodd"/></symbol><symbol id="icons-user" viewBox="0 0 20 20"><path d="M13.713 10.71a5.977 5.977 0 0 0 1.97-6.675A6.027 6.027 0 0 0 9.985 0a6.027 6.027 0 0 0-5.698 4.035 5.977 5.977 0 0 0 1.97 6.674 10.002 10.002 0 0 0-6.25 8.176 1.006 1.006 0 0 0 .894 1.109 1.01 1.01 0 0 0 1.115-.89c.457-4.045 3.896-7.102 7.99-7.102 4.092 0 7.532 3.057 7.988 7.102.057.509.49.893 1.005.89h.11a1 1 0 0 0 .885-1.1 10.002 10.002 0 0 0-6.28-8.185zM9.985 10c-2.22 0-4.02-1.79-4.02-3.998s1.8-3.998 4.02-3.998c2.22 0 4.02 1.79 4.02 3.998 0 1.06-.424 2.077-1.178 2.827a4.031 4.031 0 0 1-2.842 1.17z"/></symbol><symbol id="icons-users" viewBox="0 0 20 20"><path d="M10.287 9.991a4.455 4.455 0 0 0 1.547-3.373c0-2.505-2.038-4.535-4.551-4.535-2.514 0-4.552 2.03-4.552 4.535 0 1.295.565 2.526 1.548 3.373A7.254 7.254 0 0 0 0 16.593c0 .501.408.907.91.907.503 0 .91-.406.91-.907 0-3.005 2.446-5.441 5.463-5.441 3.016 0 5.462 2.436 5.462 5.441 0 .501.407.907.91.907.503 0 .91-.406.91-.907a7.254 7.254 0 0 0-4.278-6.602zm-3.004-.653a2.726 2.726 0 0 1-2.731-2.72 2.726 2.726 0 0 1 2.73-2.72 2.726 2.726 0 0 1 2.732 2.72c0 .721-.288 1.413-.8 1.923a2.736 2.736 0 0 1-1.931.797zm8.866.29a4.52 4.52 0 0 0 .748-4.87 4.553 4.553 0 0 0-4.152-2.675.909.909 0 0 0-.91.907c0 .501.407.907.91.907a2.726 2.726 0 0 1 2.73 2.72 2.719 2.719 0 0 1-1.365 2.35.906.906 0 0 0-.045 1.541l.355.236.118.063a6.346 6.346 0 0 1 3.641 5.786c0 .501.408.907.91.907.503 0 .91-.406.91-.907a8.155 8.155 0 0 0-3.85-6.965z" fill-rule="evenodd"/></symbol><symbol id="icons-withdraw" viewBox="0 0 16 16"><path d="m6.88 3.597.393-.433v2.634A.73.73 0 0 0 8 6.53a.73.73 0 0 0 .727-.733V3.164l.393.404a.725.725 0 0 0 1.062.03.737.737 0 0 0 0-1.043L8.516.875a.727.727 0 0 0-.24-.153.722.722 0 0 0-.552 0 .727.727 0 0 0-.24.154l-1.666 1.65a.762.762 0 0 0 0 1.071.746.746 0 0 0 1.062 0zM8 7.998a2.191 2.191 0 0 0-2.182 2.2c0 1.216.977 2.201 2.182 2.201a2.191 2.191 0 0 0 2.182-2.2A2.19 2.19 0 0 0 8 7.999zm0 2.934a.73.73 0 0 1-.727-.733A.73.73 0 0 1 8 9.465a.73.73 0 0 1 .727.734.73.73 0 0 1-.727.733zM2.91 10.2a.73.73 0 0 0 .726.733.73.73 0 0 0 .728-.733.73.73 0 0 0-.728-.734.73.73 0 0 0-.727.734zm10.18 0a.73.73 0 0 0-.726-.734.73.73 0 0 0-.728.734.73.73 0 0 0 .728.733.73.73 0 0 0 .727-.733zm.728-5.135H10.91a.73.73 0 0 0-.727.734.73.73 0 0 0 .727.733h2.91a.73.73 0 0 1 .726.734v5.868a.73.73 0 0 1-.727.733H2.182a.73.73 0 0 1-.727-.733V7.265a.73.73 0 0 1 .727-.734H5.09a.73.73 0 0 0 .727-.733.73.73 0 0 0-.727-.734H2.18A2.191 2.191 0 0 0 0 7.264v5.869c0 1.215.977 2.2 2.182 2.2h11.636a2.191 2.191 0 0 0 2.182-2.2V7.265a2.19 2.19 0 0 0-2.182-2.2z"/></symbol></svg>