<!DOCTYPE svg PUBLIC "-//W3C//DTD SVG 1.1//EN" "http://www.w3.org/Graphics/SVG/1.1/DTD/svg11.dtd">
<!-- Uploaded to: SVG Repo, www.svgrepo.com, Transformed by: SVG Repo Mixer Tools -->
<svg width="16px" height="16px" viewBox="0 0 8 8" id="meteor-icon-kit__solid-plus-xxs" fill="none" xmlns="http://www.w3.org/2000/svg">
<g id="SVGRepo_bgCarrier" stroke-width="0"/>
<g id="SVGRepo_tracerCarrier" stroke-linecap="round" stroke-linejoin="round"/>
<g id="SVGRepo_iconCarrier">
<path fill-rule="evenodd" clip-rule="evenodd" d="M2.5 2.5V1.5C2.5 0.67157 3.1716 0 4 0C4.8284 0 5.5 0.67157 5.5 1.5V2.5H6.5C7.3284 2.5 8 3.1716 8 4C8 4.8284 7.3284 5.5 6.5 5.5H5.5V6.5C5.5 7.3284 4.8284 8 4 8C3.1716 8 2.5 7.3284 2.5 6.5V5.5H1.5C0.67157 5.5 0 4.8284 0 4C0 3.1716 0.67157 2.5 1.5 2.5H2.5z" fill="#ffd700"/>
</g>
</svg>