<svg id="svg" version="1.1" xmlns="http://www.w3.org/2000/svg" xmlns:xlink="http://www.w3.org/1999/xlink" width="400" height="91.3705583756345" viewBox="0, 0, 400,91.3705583756345"><g id="svgg"><path id="path0" d="M43.571 0.223 C 43.106 0.342,42.319 0.711,41.822 1.044 C 40.661 1.823,23.240 19.221,23.532 19.311 C 23.916 19.430,28.000 23.612,28.000 23.886 C 28.000 24.031,27.889 24.212,27.754 24.288 C 27.436 24.466,25.665 26.181,24.525 27.414 L 23.633 28.379 21.265 26.015 L 18.897 23.652 10.315 32.228 C 5.594 36.945,1.511 41.130,1.241 41.527 C 0.972 41.925,0.697 42.290,0.632 42.339 C -0.115 42.898,-0.081 49.000,0.669 49.000 C 0.747 49.000,0.856 49.141,0.910 49.314 C 0.965 49.486,1.158 49.805,1.340 50.022 C 2.249 51.111,18.923 67.667,19.110 67.667 C 19.230 67.667,20.264 66.729,21.407 65.583 C 22.550 64.438,23.516 63.500,23.554 63.500 C 23.661 63.500,28.000 67.865,28.000 67.972 C 28.000 68.025,27.063 69.015,25.917 70.173 C 24.771 71.331,23.833 72.349,23.833 72.435 C 23.833 72.742,41.003 89.747,41.927 90.354 C 44.130 91.802,48.126 91.606,50.102 89.953 C 51.052 89.157,67.500 72.609,67.500 72.449 C 67.500 72.337,66.563 71.310,65.417 70.167 C 62.973 67.729,63.051 68.007,64.463 66.752 C 65.082 66.203,66.036 65.248,66.585 64.630 C 67.840 63.217,67.562 63.140,70.000 65.583 C 71.143 66.729,72.170 67.667,72.283 67.667 C 72.727 67.667,90.493 49.663,90.498 49.208 C 90.499 49.094,90.569 49.000,90.653 49.000 C 90.738 49.000,90.859 48.756,90.923 48.458 C 90.986 48.160,91.124 47.811,91.228 47.683 C 91.342 47.541,91.417 46.747,91.417 45.667 C 91.417 44.586,91.342 43.792,91.228 43.651 C 91.124 43.522,90.986 43.173,90.923 42.875 C 90.859 42.577,90.738 42.333,90.653 42.333 C 90.569 42.333,90.499 42.240,90.498 42.125 C 90.494 41.744,89.809 41.029,81.113 32.313 L 72.477 23.656 70.136 25.990 L 67.795 28.324 65.736 26.245 C 64.603 25.102,63.599 24.167,63.505 24.167 C 62.995 24.167,66.701 20.033,67.844 19.327 C 67.960 19.255,64.602 15.791,59.188 10.396 C 49.616 0.860,50.080 1.309,49.490 0.998 C 49.266 0.880,49.046 0.732,49.000 0.669 C 48.618 0.144,45.029 -0.151,43.571 0.223 M38.444 34.042 C 42.327 37.915,45.576 41.108,45.666 41.138 C 45.756 41.168,49.029 38.000,52.940 34.096 C 56.850 30.193,60.103 27.000,60.167 27.000 C 60.767 27.000,64.830 31.562,66.061 33.616 C 72.097 43.690,69.799 57.114,60.824 64.219 L 60.065 64.820 57.866 62.616 C 55.296 60.041,55.379 60.292,56.743 59.185 C 63.337 53.835,64.980 43.375,60.288 36.615 L 59.963 36.146 52.894 43.198 C 49.006 47.077,45.770 50.269,45.704 50.292 C 45.637 50.315,42.433 47.184,38.584 43.334 C 34.734 39.483,31.509 36.333,31.417 36.334 C 30.993 36.334,29.552 39.270,29.018 41.222 C 27.207 47.836,29.308 54.544,34.643 59.181 L 35.850 60.229 33.562 62.522 L 31.274 64.814 30.655 64.324 C 20.981 56.662,19.068 42.098,26.407 31.980 C 27.725 30.163,30.821 27.000,31.282 27.000 C 31.339 27.000,34.562 30.169,38.444 34.042 " stroke="none" fill="#fbcb04" fill-rule="evenodd"></path><path id="path1" d="M138.755 16.946 C 138.115 16.985,137.553 17.074,137.505 17.144 C 137.456 17.214,136.706 17.363,135.838 17.477 C 134.970 17.590,134.220 17.747,134.171 17.826 C 134.122 17.906,133.603 18.057,133.017 18.164 C 132.432 18.270,131.846 18.464,131.715 18.595 C 131.583 18.726,131.299 18.833,131.083 18.833 C 130.867 18.833,130.591 18.933,130.469 19.055 C 130.347 19.177,130.027 19.332,129.758 19.400 C 129.490 19.467,128.765 19.817,128.148 20.178 C 127.530 20.538,126.945 20.833,126.846 20.833 C 126.747 20.833,126.667 20.910,126.667 21.004 C 126.667 21.098,126.479 21.246,126.250 21.333 C 126.021 21.420,125.833 21.557,125.833 21.636 C 125.833 21.715,125.630 21.872,125.382 21.985 C 125.134 22.098,124.830 22.335,124.706 22.512 C 124.582 22.689,124.408 22.833,124.319 22.833 C 124.122 22.833,121.501 25.412,121.497 25.610 C 121.496 25.687,121.308 25.927,121.080 26.142 C 120.853 26.358,120.667 26.632,120.667 26.750 C 120.667 26.868,120.554 27.008,120.417 27.060 C 120.279 27.113,120.167 27.271,120.167 27.411 C 120.167 27.552,120.096 27.667,120.009 27.667 C 119.850 27.667,119.566 28.118,119.077 29.149 C 118.929 29.461,118.698 29.826,118.563 29.961 C 118.428 30.096,118.274 30.423,118.221 30.687 C 118.168 30.951,118.069 31.167,118.001 31.167 C 117.933 31.167,117.782 31.504,117.667 31.917 C 117.551 32.329,117.402 32.667,117.334 32.667 C 117.267 32.667,117.117 33.117,117.000 33.667 C 116.883 34.217,116.730 34.667,116.659 34.667 C 116.587 34.667,116.477 34.985,116.412 35.375 C 116.348 35.765,116.231 36.163,116.153 36.261 C 116.074 36.359,115.920 37.184,115.810 38.094 C 115.700 39.005,115.533 39.801,115.440 39.863 C 115.200 40.022,115.188 48.637,115.427 48.798 C 115.524 48.863,115.697 49.627,115.810 50.495 C 115.923 51.363,116.077 52.113,116.151 52.162 C 116.226 52.210,116.340 52.606,116.404 53.042 C 116.468 53.477,116.581 53.833,116.654 53.833 C 116.728 53.833,116.883 54.283,117.000 54.833 C 117.117 55.383,117.269 55.833,117.338 55.833 C 117.407 55.833,117.563 56.171,117.685 56.583 C 117.806 56.996,117.959 57.333,118.023 57.333 C 118.088 57.333,118.190 57.558,118.250 57.832 C 118.310 58.107,118.452 58.388,118.564 58.457 C 118.677 58.527,118.868 58.827,118.988 59.125 C 119.109 59.423,119.273 59.667,119.354 59.667 C 119.434 59.667,119.500 59.773,119.500 59.904 C 119.500 60.034,119.688 60.364,119.917 60.636 C 120.146 60.909,120.333 61.196,120.333 61.276 C 120.333 61.355,120.483 61.513,120.667 61.628 C 120.850 61.742,121.000 61.906,121.000 61.991 C 121.000 62.395,124.605 66.000,125.009 66.000 C 125.094 66.000,125.258 66.150,125.372 66.333 C 125.487 66.517,125.642 66.667,125.718 66.667 C 125.794 66.667,126.101 66.854,126.402 67.083 C 126.702 67.313,127.035 67.500,127.141 67.500 C 127.247 67.500,127.333 67.570,127.333 67.656 C 127.333 67.742,127.596 67.907,127.917 68.023 C 128.237 68.139,128.500 68.282,128.500 68.340 C 128.500 68.399,128.800 68.546,129.167 68.667 C 129.533 68.788,129.833 68.938,129.833 69.000 C 129.833 69.062,130.133 69.212,130.500 69.333 C 130.867 69.454,131.167 69.606,131.167 69.671 C 131.167 69.735,131.617 69.883,132.167 70.000 C 132.717 70.117,133.167 70.267,133.167 70.335 C 133.167 70.402,133.559 70.509,134.038 70.573 C 134.516 70.636,134.985 70.751,135.079 70.828 C 135.311 71.017,137.991 71.332,139.375 71.333 C 140.014 71.333,140.500 71.405,140.500 71.500 C 140.500 71.601,141.219 71.667,142.323 71.667 C 143.359 71.667,144.191 71.595,144.250 71.500 C 144.307 71.408,144.824 71.333,145.400 71.333 C 146.676 71.333,149.185 71.014,149.425 70.822 C 149.521 70.744,149.915 70.631,150.300 70.569 C 150.685 70.508,151.000 70.404,151.000 70.339 C 151.000 70.273,151.412 70.121,151.917 70.000 C 152.421 69.879,152.833 69.729,152.833 69.667 C 152.833 69.604,153.133 69.454,153.500 69.333 C 153.867 69.212,154.167 69.056,154.167 68.987 C 154.167 68.917,154.391 68.810,154.666 68.750 C 154.940 68.690,155.221 68.553,155.291 68.445 C 155.360 68.337,155.622 68.144,155.872 68.015 C 156.455 67.715,158.000 66.166,158.000 65.883 C 158.000 65.764,158.079 65.667,158.175 65.667 C 158.272 65.667,158.429 65.442,158.525 65.167 C 158.621 64.892,158.767 64.667,158.850 64.667 C 158.932 64.667,159.000 63.954,159.000 63.083 C 159.000 62.212,158.941 61.500,158.868 61.500 C 158.795 61.500,158.644 61.157,158.532 60.737 C 158.330 59.983,157.815 59.403,156.847 58.839 C 156.310 58.527,152.227 58.469,152.036 58.771 C 151.970 58.874,151.673 59.011,151.375 59.076 C 151.077 59.140,150.833 59.250,150.833 59.320 C 150.833 59.390,150.533 59.546,150.167 59.667 C 149.800 59.788,149.500 59.938,149.500 60.000 C 149.500 60.063,149.200 60.204,148.833 60.314 C 148.467 60.423,148.167 60.573,148.167 60.647 C 148.167 60.720,147.853 60.874,147.470 60.989 C 147.087 61.104,146.619 61.299,146.429 61.424 C 146.239 61.548,145.577 61.701,144.958 61.764 C 144.340 61.828,143.833 61.944,143.833 62.023 C 143.833 62.102,143.121 62.167,142.250 62.167 C 141.379 62.167,140.667 62.107,140.667 62.034 C 140.667 61.961,139.974 61.813,139.127 61.706 C 138.280 61.599,137.561 61.434,137.530 61.339 C 137.498 61.244,137.347 61.166,137.194 61.166 C 137.042 61.166,136.467 60.941,135.917 60.667 C 135.367 60.392,134.831 60.168,134.726 60.167 C 134.621 60.167,134.492 60.054,134.440 59.917 C 134.387 59.779,134.232 59.667,134.094 59.667 C 133.957 59.667,133.765 59.517,133.667 59.333 C 133.569 59.150,133.378 59.000,133.244 59.000 C 133.110 59.000,133.000 58.938,133.000 58.862 C 133.000 58.785,132.658 58.478,132.240 58.177 C 131.362 57.547,130.667 56.882,130.667 56.673 C 130.667 56.593,130.442 56.316,130.167 56.056 C 129.892 55.797,129.667 55.490,129.667 55.376 C 129.667 55.261,129.601 55.167,129.520 55.167 C 129.440 55.167,129.281 54.942,129.167 54.667 C 129.053 54.392,128.912 54.166,128.855 54.166 C 128.797 54.166,128.525 53.697,128.251 53.125 C 127.976 52.552,127.701 52.045,127.638 51.998 C 127.576 51.951,127.432 51.538,127.319 51.081 C 127.205 50.624,127.062 50.212,127.000 50.167 C 126.848 50.054,126.500 48.620,126.500 48.107 C 126.500 47.880,126.406 47.663,126.292 47.625 C 126.023 47.535,125.988 40.387,126.256 40.202 C 126.350 40.137,126.521 39.619,126.635 39.052 C 126.749 38.485,126.952 37.810,127.087 37.552 C 127.221 37.294,127.378 36.840,127.434 36.542 C 127.491 36.244,127.598 36.000,127.672 36.000 C 127.746 36.000,127.856 35.775,127.917 35.500 C 127.977 35.225,128.099 35.000,128.189 35.000 C 128.278 35.000,128.429 34.775,128.525 34.500 C 128.621 34.225,128.755 34.000,128.823 34.000 C 128.891 34.000,129.033 33.810,129.139 33.577 C 129.362 33.089,129.525 32.875,130.354 31.992 C 130.686 31.639,131.003 31.233,131.057 31.091 C 131.112 30.949,131.228 30.833,131.315 30.833 C 131.402 30.833,131.765 30.552,132.122 30.208 C 132.479 29.865,132.942 29.471,133.151 29.333 C 133.360 29.196,133.764 28.915,134.048 28.708 C 134.332 28.502,134.655 28.333,134.765 28.333 C 134.874 28.333,135.004 28.230,135.052 28.104 C 135.101 27.978,135.409 27.825,135.737 27.763 C 136.065 27.702,136.333 27.585,136.333 27.504 C 136.333 27.423,136.746 27.265,137.250 27.152 C 137.754 27.039,138.167 26.893,138.167 26.827 C 138.167 26.616,140.622 26.333,142.451 26.333 C 144.242 26.333,146.333 26.598,146.333 26.824 C 146.333 26.892,146.746 27.039,147.250 27.152 C 147.754 27.265,148.167 27.426,148.167 27.510 C 148.167 27.593,148.504 27.747,148.917 27.851 C 149.329 27.955,149.667 28.099,149.667 28.172 C 149.667 28.245,149.966 28.355,150.332 28.417 C 150.699 28.478,151.041 28.597,151.092 28.681 C 151.214 28.877,154.833 28.881,154.833 28.685 C 154.833 28.604,155.096 28.488,155.417 28.428 C 155.737 28.367,156.000 28.247,156.000 28.159 C 156.000 28.072,156.114 28.000,156.254 28.000 C 156.394 28.000,156.580 27.813,156.667 27.583 C 156.754 27.354,156.887 27.167,156.962 27.167 C 157.402 27.167,157.923 23.512,157.518 23.261 C 157.437 23.211,157.321 22.975,157.262 22.737 C 157.148 22.282,157.052 22.143,156.260 21.283 C 155.640 20.608,154.172 19.500,153.898 19.500 C 153.784 19.500,153.589 19.399,153.466 19.275 C 153.342 19.151,152.962 18.958,152.620 18.846 C 152.279 18.733,152.000 18.582,152.000 18.510 C 152.000 18.438,151.531 18.281,150.958 18.161 C 150.385 18.042,149.879 17.889,149.833 17.823 C 149.787 17.756,149.150 17.603,148.417 17.483 C 147.683 17.363,147.038 17.199,146.982 17.120 C 146.872 16.962,140.638 16.830,138.755 16.946 M226.125 18.278 C 225.781 18.319,225.500 18.409,225.500 18.477 C 225.500 18.544,225.256 18.692,224.958 18.805 C 224.272 19.064,223.181 20.468,222.952 21.385 C 222.857 21.769,222.697 22.137,222.598 22.202 C 222.337 22.373,222.342 65.964,222.602 66.131 C 222.704 66.196,222.839 66.605,222.903 67.040 C 222.967 67.474,223.118 67.927,223.238 68.047 C 223.358 68.167,223.509 68.433,223.574 68.638 C 223.773 69.265,224.859 70.167,225.414 70.167 C 225.553 70.167,225.667 70.242,225.667 70.333 C 225.667 70.435,226.417 70.500,227.583 70.500 C 228.637 70.500,229.500 70.433,229.500 70.351 C 229.500 70.270,229.705 70.151,229.955 70.089 C 230.547 69.940,231.789 68.581,231.931 67.927 C 231.992 67.646,232.106 67.376,232.184 67.326 C 232.899 66.868,232.894 21.977,232.179 21.501 C 232.109 21.455,231.999 21.204,231.936 20.944 C 231.872 20.684,231.729 20.363,231.618 20.229 C 230.858 19.316,230.361 18.863,230.000 18.751 C 229.771 18.680,229.543 18.560,229.494 18.484 C 229.387 18.319,226.999 18.172,226.125 18.278 M247.458 18.944 C 247.206 18.987,247.000 19.086,247.000 19.164 C 247.000 19.243,246.770 19.357,246.489 19.419 C 246.208 19.481,245.937 19.637,245.888 19.766 C 245.838 19.895,245.716 20.000,245.616 20.000 C 245.366 20.000,244.500 20.850,244.500 21.097 C 244.500 21.207,244.392 21.339,244.259 21.390 C 244.127 21.441,243.968 21.749,243.907 22.075 C 243.846 22.400,243.737 22.667,243.665 22.667 C 243.469 22.667,243.167 24.623,243.167 25.889 C 243.167 26.518,243.094 27.000,243.000 27.000 C 242.890 27.000,242.833 33.306,242.833 45.583 C 242.833 57.861,242.890 64.167,243.000 64.167 C 243.092 64.167,243.167 64.404,243.167 64.695 C 243.167 65.488,243.516 67.333,243.666 67.333 C 243.738 67.333,243.840 67.502,243.892 67.708 C 244.026 68.241,244.600 68.970,245.413 69.639 C 246.884 70.851,251.667 69.868,251.667 68.354 C 251.667 68.245,251.773 68.115,251.903 68.065 C 252.033 68.016,252.231 67.587,252.344 67.112 C 252.456 66.638,252.610 66.210,252.685 66.160 C 253.043 65.926,253.164 62.378,253.165 52.052 C 253.166 45.984,253.231 40.980,253.310 40.931 C 253.388 40.883,253.493 40.400,253.542 39.859 C 253.623 38.970,253.987 38.097,254.397 37.807 C 254.657 37.624,256.448 38.612,256.639 39.043 C 256.670 39.113,256.987 39.488,257.343 39.877 C 257.700 40.265,257.993 40.679,257.996 40.797 C 257.998 40.914,258.112 41.054,258.250 41.106 C 258.387 41.159,258.500 41.281,258.500 41.377 C 258.500 41.473,258.674 41.784,258.887 42.068 C 259.100 42.351,259.323 42.715,259.382 42.875 C 259.441 43.035,259.553 43.167,259.630 43.167 C 259.708 43.167,259.874 43.429,260.000 43.750 C 260.126 44.071,260.284 44.333,260.352 44.333 C 260.420 44.333,260.580 44.540,260.707 44.792 C 261.150 45.668,261.418 46.084,261.625 46.217 C 261.740 46.290,261.833 46.455,261.833 46.583 C 261.833 46.712,261.931 46.877,262.051 46.950 C 262.171 47.023,262.368 47.327,262.488 47.625 C 262.609 47.923,262.773 48.167,262.854 48.167 C 262.934 48.167,263.000 48.253,263.000 48.359 C 263.000 48.465,263.188 48.798,263.417 49.098 C 263.646 49.399,263.833 49.713,263.833 49.797 C 263.833 49.931,264.011 50.178,264.664 50.952 C 264.758 51.063,264.921 51.344,265.027 51.577 C 265.133 51.810,265.269 52.000,265.329 52.000 C 265.389 52.000,265.541 52.262,265.667 52.583 C 265.793 52.904,265.947 53.167,266.011 53.167 C 266.074 53.167,266.219 53.392,266.333 53.667 C 266.447 53.942,266.597 54.167,266.667 54.167 C 266.736 54.167,266.886 54.392,267.000 54.667 C 267.114 54.942,267.273 55.167,267.354 55.167 C 267.434 55.167,267.500 55.256,267.500 55.366 C 267.500 55.564,268.234 56.723,268.614 57.126 C 268.723 57.241,268.859 57.485,268.917 57.668 C 268.975 57.850,269.078 58.000,269.147 58.000 C 269.215 58.000,269.374 58.262,269.500 58.583 C 269.626 58.904,269.781 59.167,269.844 59.167 C 269.908 59.167,270.053 59.392,270.167 59.667 C 270.281 59.942,270.431 60.167,270.500 60.167 C 270.569 60.167,270.719 60.392,270.833 60.667 C 270.947 60.942,271.106 61.167,271.187 61.167 C 271.267 61.167,271.333 61.253,271.333 61.359 C 271.333 61.465,271.521 61.798,271.750 62.098 C 271.979 62.399,272.167 62.724,272.167 62.822 C 272.167 62.920,272.233 63.000,272.313 63.000 C 272.394 63.000,272.558 63.244,272.678 63.542 C 272.799 63.840,272.995 64.143,273.115 64.217 C 273.235 64.290,273.333 64.455,273.333 64.583 C 273.333 64.712,273.427 64.877,273.542 64.950 C 273.657 65.023,273.863 65.306,274.000 65.578 C 274.138 65.850,274.362 66.201,274.500 66.358 C 274.637 66.515,274.826 66.742,274.919 66.863 C 275.570 67.710,276.573 68.833,276.678 68.833 C 276.748 68.833,277.075 69.096,277.405 69.417 C 277.736 69.737,278.108 70.000,278.233 70.000 C 278.357 70.000,278.551 70.111,278.663 70.246 C 278.775 70.381,279.141 70.541,279.475 70.603 C 279.810 70.664,280.137 70.798,280.202 70.899 C 280.379 71.173,285.583 71.151,285.858 70.875 C 285.973 70.760,286.190 70.667,286.341 70.667 C 286.492 70.667,286.789 70.517,287.000 70.333 C 287.211 70.150,287.458 70.000,287.547 70.000 C 287.895 70.000,289.302 68.271,289.447 67.667 C 289.501 67.438,289.609 67.169,289.686 67.070 C 290.410 66.143,290.394 24.000,289.670 24.000 C 289.606 24.000,289.461 23.587,289.348 23.083 C 289.235 22.579,289.078 22.167,288.999 22.167 C 288.920 22.167,288.805 22.005,288.742 21.808 C 288.551 21.207,287.387 20.192,286.751 20.073 C 286.430 20.012,286.167 19.896,286.167 19.815 C 286.167 19.733,285.679 19.667,285.083 19.667 C 284.472 19.667,284.000 19.739,284.000 19.833 C 284.000 19.925,283.808 20.000,283.572 20.000 C 282.738 20.000,281.341 21.239,280.989 22.292 C 280.889 22.590,280.746 22.833,280.671 22.833 C 280.502 22.833,280.167 24.698,280.167 25.639 C 280.167 26.021,280.092 26.333,280.000 26.333 C 279.893 26.333,279.833 28.056,279.833 31.167 C 279.833 34.278,279.893 36.000,280.000 36.000 C 280.105 36.000,280.167 37.111,280.167 39.000 C 280.167 40.650,280.101 42.000,280.022 42.000 C 279.942 42.000,279.840 43.631,279.794 45.625 C 279.728 48.544,279.659 49.347,279.440 49.750 C 279.291 50.025,279.168 50.341,279.168 50.452 C 279.165 51.016,277.913 51.029,277.252 50.472 C 276.477 49.821,275.833 49.198,275.833 49.100 C 275.833 49.039,275.621 48.782,275.362 48.528 C 275.103 48.275,274.785 47.828,274.655 47.534 C 274.525 47.240,274.360 47.000,274.289 47.000 C 274.217 47.000,274.087 46.813,274.000 46.583 C 273.913 46.354,273.774 46.167,273.691 46.167 C 273.608 46.167,273.447 45.942,273.333 45.667 C 273.219 45.392,273.068 45.167,272.996 45.167 C 272.925 45.167,272.788 44.942,272.692 44.667 C 272.596 44.392,272.447 44.167,272.360 44.167 C 272.274 44.167,272.156 43.979,272.098 43.750 C 272.041 43.521,271.929 43.333,271.850 43.333 C 271.772 43.333,271.614 43.108,271.500 42.833 C 271.386 42.558,271.232 42.333,271.157 42.333 C 271.083 42.333,270.927 42.071,270.811 41.750 C 270.695 41.429,270.538 41.167,270.462 41.167 C 270.387 41.167,270.254 40.979,270.167 40.750 C 270.080 40.521,269.940 40.333,269.856 40.333 C 269.772 40.333,269.659 40.160,269.606 39.947 C 269.553 39.735,269.358 39.379,269.174 39.156 C 268.643 38.511,268.597 38.444,268.334 37.917 C 268.196 37.642,267.990 37.357,267.875 37.283 C 267.761 37.210,267.667 37.045,267.667 36.917 C 267.667 36.788,267.569 36.623,267.449 36.550 C 267.329 36.477,267.132 36.173,267.012 35.875 C 266.891 35.577,266.741 35.333,266.678 35.333 C 266.614 35.333,266.459 35.071,266.333 34.750 C 266.207 34.429,266.042 34.167,265.965 34.167 C 265.888 34.167,265.754 33.979,265.667 33.750 C 265.580 33.521,265.431 33.333,265.337 33.333 C 265.244 33.333,265.167 33.218,265.167 33.078 C 265.167 32.938,265.059 32.781,264.927 32.731 C 264.795 32.680,264.638 32.415,264.578 32.141 C 264.518 31.868,264.376 31.609,264.263 31.565 C 264.149 31.522,263.955 31.227,263.831 30.910 C 263.706 30.593,263.542 30.333,263.465 30.333 C 263.388 30.333,263.254 30.146,263.167 29.917 C 263.080 29.688,262.937 29.500,262.851 29.500 C 262.764 29.500,262.643 29.270,262.581 28.989 C 262.519 28.708,262.363 28.437,262.234 28.388 C 262.105 28.338,262.000 28.219,262.000 28.123 C 262.000 28.027,261.813 27.702,261.583 27.402 C 261.354 27.101,261.167 26.776,261.167 26.678 C 261.167 26.580,261.090 26.500,260.996 26.500 C 260.902 26.500,260.754 26.313,260.667 26.083 C 260.580 25.854,260.450 25.667,260.378 25.667 C 260.307 25.667,260.140 25.423,260.008 25.125 C 259.876 24.827,259.709 24.508,259.637 24.417 C 259.564 24.325,259.316 24.014,259.086 23.726 C 258.855 23.438,258.667 23.146,258.667 23.078 C 258.667 23.010,258.498 22.790,258.292 22.589 C 258.085 22.388,257.617 21.874,257.250 21.446 C 256.883 21.019,256.527 20.669,256.458 20.668 C 256.390 20.667,256.192 20.535,256.020 20.375 C 255.413 19.811,254.913 19.485,254.500 19.387 C 254.271 19.332,253.979 19.205,253.852 19.105 C 253.619 18.920,248.371 18.787,247.458 18.944 M304.542 18.946 C 304.152 18.986,303.833 19.090,303.833 19.176 C 303.833 19.263,303.649 19.333,303.425 19.333 C 302.924 19.333,302.131 19.668,301.950 19.955 C 301.877 20.071,301.723 20.167,301.609 20.167 C 301.357 20.167,300.167 21.396,300.167 21.657 C 300.167 21.760,300.065 21.883,299.940 21.931 C 299.816 21.978,299.613 22.332,299.489 22.717 C 299.365 23.102,299.211 23.455,299.147 23.501 C 298.420 24.021,298.433 66.183,299.160 66.667 C 299.229 66.712,299.382 67.050,299.501 67.417 C 300.247 69.714,303.935 71.014,305.613 69.572 C 305.872 69.349,306.177 69.167,306.292 69.167 C 306.406 69.167,306.500 69.103,306.500 69.026 C 306.500 68.949,306.687 68.667,306.916 68.401 C 307.146 68.135,307.333 67.823,307.333 67.708 C 307.333 67.594,307.401 67.500,307.483 67.500 C 307.566 67.500,307.727 67.106,307.841 66.625 C 307.955 66.144,308.131 65.697,308.233 65.631 C 308.363 65.547,308.441 61.793,308.500 52.728 C 308.565 42.709,308.628 39.929,308.792 39.875 C 308.906 39.837,309.000 39.592,309.000 39.330 C 309.000 37.651,310.249 37.743,311.018 39.479 C 311.144 39.766,311.293 40.000,311.348 40.000 C 311.402 40.000,311.537 40.300,311.647 40.667 C 311.757 41.033,311.919 41.333,312.007 41.333 C 312.095 41.333,312.167 41.418,312.167 41.521 C 312.167 41.685,312.810 43.299,313.154 44.000 C 313.222 44.137,313.381 44.606,313.508 45.042 C 313.635 45.477,313.788 45.833,313.847 45.833 C 313.906 45.833,314.050 46.283,314.167 46.833 C 314.283 47.383,314.438 47.833,314.511 47.833 C 314.583 47.833,314.735 48.246,314.848 48.750 C 314.961 49.254,315.104 49.667,315.167 49.667 C 315.229 49.667,315.379 50.079,315.500 50.583 C 315.621 51.087,315.775 51.500,315.841 51.500 C 315.908 51.500,316.014 51.781,316.077 52.125 C 316.140 52.469,316.293 52.908,316.417 53.101 C 316.541 53.293,316.694 53.725,316.756 54.059 C 316.819 54.393,316.925 54.667,316.992 54.667 C 317.059 54.667,317.206 55.079,317.319 55.583 C 317.432 56.087,317.583 56.500,317.656 56.500 C 317.728 56.500,317.883 56.950,318.000 57.500 C 318.117 58.050,318.267 58.500,318.333 58.500 C 318.400 58.500,318.550 58.950,318.667 59.500 C 318.783 60.050,318.933 60.500,319.000 60.500 C 319.067 60.500,319.217 60.950,319.333 61.500 C 319.450 62.050,319.610 62.500,319.689 62.500 C 319.769 62.500,319.833 62.611,319.833 62.747 C 319.833 63.083,320.701 65.201,320.943 65.457 C 321.051 65.570,321.189 65.889,321.250 66.165 C 321.310 66.441,321.411 66.667,321.473 66.667 C 321.535 66.667,321.678 66.876,321.792 67.133 C 322.050 67.717,323.790 69.500,324.101 69.500 C 324.229 69.500,324.333 69.566,324.333 69.647 C 324.333 70.356,328.972 70.281,329.383 69.566 C 329.457 69.438,329.594 69.333,329.688 69.333 C 329.918 69.333,330.833 68.407,330.833 68.174 C 330.833 68.073,330.946 67.946,331.083 67.894 C 331.221 67.841,331.333 67.703,331.333 67.588 C 331.333 67.473,331.479 67.194,331.656 66.968 C 331.834 66.742,332.030 66.357,332.091 66.112 C 332.153 65.867,332.269 65.667,332.349 65.667 C 332.429 65.667,332.580 65.329,332.684 64.917 C 332.788 64.504,332.927 64.167,332.993 64.167 C 333.059 64.167,333.212 63.754,333.333 63.250 C 333.454 62.746,333.606 62.333,333.671 62.333 C 333.735 62.333,333.883 61.883,334.000 61.333 C 334.117 60.783,334.272 60.333,334.344 60.333 C 334.417 60.333,334.568 59.921,334.681 59.417 C 334.794 58.913,334.943 58.500,335.012 58.500 C 335.081 58.500,335.188 58.200,335.250 57.833 C 335.312 57.467,335.426 57.167,335.503 57.167 C 335.580 57.167,335.735 56.754,335.848 56.250 C 335.961 55.746,336.104 55.333,336.167 55.333 C 336.229 55.333,336.379 54.921,336.500 54.417 C 336.621 53.913,336.771 53.500,336.833 53.500 C 336.896 53.500,337.039 53.087,337.152 52.583 C 337.265 52.079,337.417 51.667,337.489 51.667 C 337.562 51.667,337.717 51.217,337.833 50.667 C 337.950 50.117,338.094 49.667,338.153 49.667 C 338.212 49.667,338.365 49.310,338.492 48.875 C 338.619 48.440,338.776 47.971,338.842 47.833 C 339.400 46.657,339.667 46.016,339.667 45.848 C 339.667 45.738,339.808 45.334,339.981 44.949 C 340.154 44.565,340.348 44.006,340.411 43.708 C 340.475 43.410,340.596 43.167,340.680 43.167 C 340.764 43.167,340.833 43.043,340.833 42.891 C 340.833 42.740,341.015 42.231,341.238 41.761 C 341.460 41.291,341.693 40.702,341.756 40.453 C 341.818 40.204,341.922 40.000,341.987 40.000 C 342.052 40.000,342.206 39.741,342.331 39.424 C 342.455 39.107,342.656 38.809,342.778 38.762 C 342.900 38.715,343.000 38.570,343.000 38.440 C 343.000 38.204,343.339 38.000,343.730 38.000 C 343.955 38.000,344.333 38.913,344.333 39.456 C 344.333 39.648,344.427 39.837,344.542 39.875 C 344.705 39.929,344.768 42.692,344.833 52.645 C 344.890 61.331,344.973 65.383,345.094 65.465 C 345.191 65.530,345.365 66.015,345.481 66.542 C 345.596 67.069,345.752 67.500,345.827 67.500 C 345.902 67.500,346.008 67.669,346.062 67.875 C 346.291 68.757,347.583 69.804,348.689 70.004 C 349.817 70.209,351.552 70.084,351.880 69.775 C 351.992 69.669,352.285 69.480,352.531 69.353 C 352.777 69.226,353.067 68.907,353.176 68.644 C 353.285 68.382,353.438 68.167,353.517 68.167 C 353.596 68.167,353.707 67.979,353.765 67.750 C 353.822 67.521,353.923 67.333,353.989 67.333 C 354.166 67.333,354.500 65.753,354.500 64.914 C 354.500 64.514,354.575 64.140,354.667 64.083 C 354.776 64.016,354.833 57.887,354.833 46.240 C 354.833 34.524,354.777 28.500,354.667 28.500 C 354.568 28.500,354.500 27.886,354.500 26.990 C 354.500 25.439,354.230 23.213,354.006 22.917 C 353.936 22.825,353.830 22.544,353.770 22.292 C 353.710 22.040,353.587 21.833,353.497 21.833 C 353.407 21.833,353.333 21.740,353.333 21.625 C 353.333 21.510,353.146 21.199,352.916 20.932 C 352.687 20.666,352.500 20.385,352.500 20.307 C 352.500 20.230,352.391 20.167,352.258 20.167 C 352.125 20.167,351.957 20.071,351.883 19.955 C 351.705 19.671,350.911 19.333,350.423 19.333 C 350.205 19.333,349.998 19.243,349.961 19.133 C 349.873 18.868,344.200 18.846,344.031 19.110 C 343.968 19.207,343.566 19.339,343.137 19.402 C 342.708 19.465,342.171 19.663,341.944 19.842 C 341.717 20.020,341.446 20.167,341.343 20.167 C 341.240 20.167,341.113 20.279,341.060 20.417 C 341.008 20.554,340.887 20.667,340.794 20.667 C 340.610 20.667,339.743 21.554,339.333 22.161 C 339.196 22.364,338.915 22.764,338.708 23.048 C 338.502 23.332,338.333 23.663,338.333 23.782 C 338.333 23.902,338.268 24.000,338.188 24.000 C 338.109 24.000,337.944 24.356,337.823 24.792 C 337.702 25.227,337.507 25.679,337.391 25.797 C 337.275 25.915,337.131 26.271,337.071 26.589 C 337.012 26.907,336.902 27.167,336.827 27.167 C 336.752 27.167,336.598 27.579,336.485 28.083 C 336.373 28.587,336.223 29.000,336.152 29.000 C 336.082 29.000,335.932 29.413,335.819 29.917 C 335.706 30.421,335.551 30.833,335.473 30.833 C 335.396 30.833,335.331 30.965,335.328 31.125 C 335.325 31.285,335.177 31.717,335.000 32.083 C 334.823 32.450,334.675 32.865,334.672 33.005 C 334.669 33.145,334.558 33.414,334.426 33.603 C 334.293 33.792,334.097 34.297,333.989 34.724 C 333.882 35.151,333.738 35.500,333.670 35.500 C 333.601 35.500,333.450 35.950,333.333 36.500 C 333.217 37.050,333.062 37.500,332.989 37.500 C 332.917 37.500,332.765 37.912,332.652 38.417 C 332.539 38.921,332.389 39.333,332.319 39.333 C 332.248 39.333,332.098 39.746,331.985 40.250 C 331.873 40.754,331.717 41.167,331.640 41.167 C 331.563 41.167,331.500 41.283,331.500 41.426 C 331.500 41.568,331.358 42.000,331.186 42.384 C 331.013 42.769,330.819 43.327,330.756 43.625 C 330.692 43.923,330.588 44.167,330.523 44.167 C 330.459 44.167,330.306 44.504,330.185 44.917 C 330.063 45.329,329.900 45.667,329.822 45.667 C 329.745 45.667,329.631 45.935,329.570 46.263 C 329.508 46.591,329.359 46.898,329.239 46.944 C 329.119 46.990,328.970 47.256,328.909 47.536 C 328.442 49.662,325.671 50.192,324.954 48.292 C 324.893 48.131,324.766 48.000,324.672 48.000 C 324.577 48.000,324.500 47.899,324.500 47.776 C 324.500 47.652,324.355 47.383,324.177 47.178 C 323.999 46.974,323.806 46.587,323.747 46.320 C 323.688 46.052,323.572 45.833,323.489 45.833 C 323.406 45.833,323.253 45.496,323.149 45.083 C 323.045 44.671,322.906 44.333,322.840 44.333 C 322.774 44.333,322.621 43.921,322.500 43.417 C 322.379 42.913,322.229 42.500,322.167 42.500 C 322.104 42.500,321.954 42.088,321.833 41.583 C 321.712 41.079,321.559 40.667,321.492 40.667 C 321.425 40.667,321.318 40.385,321.253 40.042 C 321.189 39.698,320.993 39.102,320.818 38.717 C 320.643 38.333,320.500 37.902,320.500 37.759 C 320.500 37.617,320.435 37.500,320.356 37.500 C 320.277 37.500,320.117 37.050,320.000 36.500 C 319.883 35.950,319.728 35.500,319.656 35.500 C 319.583 35.500,319.432 35.087,319.319 34.583 C 319.206 34.079,319.061 33.667,318.996 33.667 C 318.932 33.667,318.783 33.217,318.667 32.667 C 318.550 32.117,318.399 31.667,318.330 31.667 C 318.262 31.667,318.117 31.311,318.007 30.877 C 317.898 30.443,317.753 30.012,317.684 29.919 C 317.616 29.826,317.458 29.412,317.334 29.000 C 317.210 28.587,317.047 28.179,316.971 28.092 C 316.895 28.005,316.833 27.804,316.833 27.645 C 316.833 27.487,316.735 27.258,316.615 27.137 C 316.496 27.016,316.298 26.560,316.177 26.125 C 316.056 25.690,315.908 25.333,315.848 25.333 C 315.788 25.333,315.640 24.996,315.518 24.583 C 315.396 24.171,315.248 23.833,315.189 23.833 C 315.130 23.833,314.977 23.597,314.849 23.308 C 314.721 23.019,314.497 22.648,314.350 22.483 C 314.203 22.317,313.784 21.841,313.418 21.424 C 313.052 21.008,312.666 20.667,312.561 20.667 C 312.455 20.667,312.330 20.564,312.281 20.438 C 312.233 20.312,311.991 20.159,311.743 20.097 C 311.496 20.034,311.191 19.882,311.067 19.757 C 310.942 19.632,310.520 19.477,310.128 19.411 C 309.737 19.346,309.379 19.234,309.333 19.163 C 309.234 19.009,305.551 18.842,304.542 18.946 M362.208 18.941 C 362.002 18.986,361.833 19.084,361.833 19.158 C 361.833 19.232,361.627 19.379,361.375 19.483 C 360.825 19.712,360.213 20.560,360.065 21.298 C 360.007 21.592,359.893 21.833,359.813 21.833 C 359.732 21.833,359.667 22.508,359.667 23.333 C 359.667 24.158,359.733 24.833,359.814 24.833 C 359.896 24.833,360.013 25.170,360.074 25.581 C 360.136 25.993,360.291 26.434,360.418 26.561 C 360.546 26.689,360.700 26.990,360.760 27.230 C 360.820 27.470,360.931 27.667,361.007 27.667 C 361.082 27.667,361.194 27.824,361.255 28.017 C 361.356 28.335,361.958 29.334,362.299 29.750 C 362.374 29.842,362.543 30.160,362.675 30.458 C 362.807 30.756,362.973 31.000,363.045 31.000 C 363.116 31.000,363.246 31.188,363.333 31.417 C 363.420 31.646,363.560 31.833,363.642 31.833 C 363.725 31.833,363.886 32.058,364.000 32.333 C 364.114 32.608,364.273 32.833,364.354 32.833 C 364.434 32.833,364.500 32.948,364.500 33.089 C 364.500 33.229,364.613 33.387,364.750 33.440 C 364.887 33.492,365.000 33.624,365.000 33.732 C 365.000 33.841,365.222 34.189,365.493 34.506 C 365.765 34.824,365.990 35.177,365.993 35.292 C 365.997 35.406,366.077 35.500,366.172 35.500 C 366.266 35.500,366.394 35.631,366.455 35.792 C 366.557 36.056,367.138 37.000,367.456 37.417 C 368.220 38.418,368.500 38.839,368.500 38.989 C 368.500 39.087,368.577 39.167,368.671 39.167 C 368.765 39.167,368.913 39.354,369.000 39.583 C 369.087 39.813,369.221 40.000,369.298 40.000 C 369.375 40.000,369.541 40.262,369.667 40.583 C 369.793 40.904,369.958 41.167,370.035 41.167 C 370.112 41.167,370.246 41.354,370.333 41.583 C 370.420 41.812,370.563 42.000,370.649 42.000 C 370.736 42.000,370.856 42.225,370.916 42.499 C 370.977 42.773,371.114 43.055,371.221 43.124 C 371.452 43.273,373.001 46.321,373.000 46.625 C 373.000 46.740,373.074 46.833,373.164 46.833 C 373.255 46.833,373.414 47.171,373.517 47.583 C 373.621 47.996,373.759 48.333,373.824 48.333 C 373.888 48.333,374.043 48.933,374.167 49.667 C 374.291 50.400,374.454 51.000,374.529 51.000 C 374.605 51.000,374.667 54.125,374.667 57.945 C 374.667 64.515,374.805 67.000,375.171 67.000 C 375.246 67.000,375.357 67.230,375.419 67.511 C 375.481 67.792,375.637 68.063,375.766 68.112 C 375.895 68.162,376.000 68.276,376.000 68.366 C 376.000 68.576,376.868 69.500,377.064 69.500 C 377.146 69.500,377.307 69.628,377.422 69.785 C 377.690 70.152,380.645 70.310,381.566 70.006 C 382.074 69.838,383.667 68.486,383.667 68.221 C 383.667 68.174,383.808 67.956,383.981 67.736 C 384.154 67.516,384.349 67.055,384.413 66.710 C 384.478 66.366,384.617 66.030,384.724 65.965 C 384.864 65.879,384.940 63.694,385.000 58.032 C 385.058 52.632,385.141 50.145,385.270 49.984 C 385.373 49.855,385.511 49.450,385.577 49.083 C 385.643 48.717,385.796 48.229,385.917 48.000 C 386.038 47.771,386.233 47.321,386.351 47.000 C 386.468 46.679,386.606 46.379,386.657 46.333 C 386.814 46.193,387.667 44.395,387.667 44.206 C 387.667 44.108,387.730 44.003,387.807 43.972 C 387.950 43.916,388.276 43.361,388.746 42.375 C 388.888 42.077,389.064 41.833,389.138 41.833 C 389.211 41.833,389.374 41.571,389.500 41.250 C 389.626 40.929,389.792 40.667,389.869 40.667 C 389.945 40.667,390.080 40.479,390.167 40.250 C 390.254 40.021,390.402 39.833,390.496 39.833 C 390.590 39.833,390.667 39.747,390.667 39.641 C 390.667 39.535,390.854 39.202,391.083 38.902 C 391.313 38.601,391.500 38.276,391.500 38.178 C 391.500 38.080,391.571 38.000,391.658 38.000 C 391.744 38.000,391.913 37.822,392.033 37.604 C 392.667 36.449,392.897 36.084,393.184 35.776 C 393.358 35.590,393.500 35.339,393.500 35.219 C 393.500 35.098,393.577 35.000,393.671 35.000 C 393.765 35.000,393.913 34.812,394.000 34.583 C 394.087 34.354,394.235 34.167,394.329 34.167 C 394.423 34.167,394.500 34.087,394.500 33.989 C 394.500 33.891,394.688 33.565,394.917 33.265 C 395.146 32.964,395.333 32.632,395.333 32.526 C 395.333 32.420,395.410 32.333,395.504 32.333 C 395.598 32.333,395.746 32.146,395.833 31.917 C 395.920 31.688,396.060 31.500,396.142 31.500 C 396.225 31.500,396.386 31.275,396.500 31.000 C 396.614 30.725,396.764 30.500,396.833 30.500 C 396.903 30.500,397.053 30.275,397.167 30.000 C 397.281 29.725,397.434 29.500,397.507 29.500 C 397.581 29.500,397.726 29.242,397.830 28.927 C 397.934 28.613,398.082 28.331,398.160 28.302 C 398.467 28.189,399.655 25.637,399.823 24.732 C 400.327 22.004,399.497 19.702,397.902 19.403 C 397.589 19.344,397.333 19.230,397.333 19.148 C 397.333 19.067,396.696 19.000,395.917 19.000 C 395.083 19.000,394.500 19.069,394.500 19.167 C 394.500 19.258,394.337 19.333,394.137 19.333 C 393.664 19.333,392.667 19.695,392.667 19.867 C 392.667 19.940,392.551 20.000,392.410 20.000 C 392.195 20.000,391.292 20.847,389.653 22.589 C 389.477 22.776,389.333 23.020,389.333 23.131 C 389.333 23.242,389.266 23.333,389.183 23.333 C 389.036 23.333,388.378 24.300,388.134 24.875 C 388.066 25.035,387.941 25.167,387.857 25.167 C 387.772 25.167,387.659 25.340,387.606 25.553 C 387.553 25.765,387.357 26.114,387.171 26.328 C 386.985 26.542,386.833 26.819,386.833 26.942 C 386.833 27.066,386.763 27.167,386.677 27.167 C 386.592 27.167,386.427 27.429,386.311 27.750 C 386.195 28.071,386.054 28.333,385.998 28.333 C 385.941 28.333,385.793 28.596,385.667 28.917 C 385.541 29.238,385.386 29.500,385.322 29.500 C 385.259 29.500,385.114 29.725,385.000 30.000 C 384.886 30.275,384.739 30.500,384.673 30.500 C 384.607 30.500,384.467 30.690,384.361 30.923 C 384.167 31.348,383.996 31.586,383.458 32.179 C 383.298 32.355,383.167 32.543,383.167 32.594 C 383.167 32.939,381.742 34.489,381.126 34.814 C 380.554 35.116,379.020 34.981,378.745 34.605 C 378.636 34.456,378.470 34.333,378.375 34.333 C 378.281 34.333,378.027 34.099,377.810 33.812 C 377.594 33.526,377.285 33.151,377.125 32.979 C 376.965 32.807,376.833 32.621,376.833 32.566 C 376.833 32.479,376.537 32.080,375.828 31.213 C 375.737 31.101,375.590 30.819,375.502 30.588 C 375.414 30.356,375.277 30.167,375.197 30.167 C 375.118 30.167,374.963 29.867,374.853 29.500 C 374.743 29.133,374.587 28.833,374.506 28.833 C 374.425 28.833,374.273 28.571,374.167 28.250 C 374.061 27.929,373.919 27.667,373.852 27.667 C 373.784 27.667,373.626 27.404,373.500 27.083 C 373.374 26.762,373.210 26.500,373.136 26.500 C 373.061 26.500,373.000 26.423,373.000 26.330 C 373.000 26.176,372.213 24.869,371.998 24.667 C 371.950 24.621,371.818 24.374,371.706 24.119 C 371.502 23.655,371.341 23.427,370.792 22.821 C 370.631 22.645,370.500 22.453,370.500 22.397 C 370.500 22.202,368.417 20.169,368.217 20.168 C 368.107 20.167,367.957 20.069,367.883 19.949 C 367.810 19.829,367.488 19.627,367.167 19.500 C 366.846 19.373,366.533 19.195,366.471 19.104 C 366.354 18.932,362.861 18.798,362.208 18.941 M22.541 19.910 C 22.359 20.097,21.843 20.593,21.396 21.011 C 18.796 23.446,18.796 23.323,21.387 25.924 L 23.553 28.098 25.707 25.940 L 27.862 23.783 25.730 21.646 C 23.475 19.386,23.198 19.235,22.541 19.910 M65.612 21.638 L 63.478 23.776 65.652 25.936 L 67.826 28.095 69.981 25.922 C 72.572 23.311,72.539 23.617,70.460 21.500 C 67.994 18.990,68.262 18.982,65.612 21.638 M183.708 20.278 C 183.135 20.317,182.667 20.412,182.667 20.488 C 182.667 20.565,182.104 20.680,181.417 20.745 C 180.729 20.809,180.167 20.918,180.167 20.988 C 180.167 21.057,179.642 21.207,179.000 21.322 C 178.358 21.436,177.833 21.585,177.833 21.652 C 177.833 21.718,177.458 21.875,177.000 22.000 C 176.542 22.125,176.167 22.279,176.167 22.342 C 176.167 22.405,175.829 22.551,175.417 22.667 C 175.004 22.782,174.667 22.931,174.667 22.996 C 174.667 23.062,174.385 23.242,174.042 23.395 C 173.036 23.844,172.500 24.173,172.500 24.342 C 172.500 24.429,172.385 24.500,172.245 24.500 C 172.104 24.500,171.946 24.613,171.894 24.750 C 171.841 24.887,171.701 25.000,171.583 25.000 C 171.465 25.000,171.192 25.186,170.976 25.414 C 170.760 25.641,170.526 25.829,170.456 25.830 C 170.283 25.834,167.501 28.608,167.497 28.780 C 167.496 28.855,167.308 29.093,167.080 29.309 C 166.853 29.525,166.667 29.806,166.667 29.934 C 166.667 30.062,166.590 30.167,166.496 30.167 C 166.402 30.167,166.254 30.354,166.167 30.583 C 166.080 30.813,165.940 31.000,165.856 31.000 C 165.772 31.000,165.657 31.182,165.601 31.405 C 165.545 31.628,165.406 31.909,165.291 32.030 C 164.985 32.354,164.167 34.072,164.167 34.392 C 164.167 34.543,164.093 34.667,164.003 34.667 C 163.913 34.667,163.791 34.873,163.731 35.125 C 163.671 35.377,163.492 35.883,163.332 36.250 C 163.172 36.617,162.987 37.292,162.921 37.750 C 162.855 38.208,162.738 38.622,162.662 38.670 C 162.585 38.717,162.436 39.579,162.330 40.586 C 162.225 41.593,162.070 42.547,161.986 42.706 C 161.773 43.109,161.787 48.833,162.000 48.833 C 162.092 48.833,162.167 49.152,162.166 49.542 C 162.166 50.466,162.524 53.059,162.666 53.167 C 162.727 53.212,162.875 53.719,162.995 54.292 C 163.114 54.865,163.265 55.333,163.330 55.333 C 163.394 55.333,163.539 55.746,163.652 56.250 C 163.765 56.754,163.912 57.167,163.978 57.167 C 164.045 57.167,164.200 57.448,164.323 57.792 C 164.446 58.135,164.593 58.454,164.650 58.500 C 164.707 58.546,164.968 59.015,165.230 59.542 C 165.492 60.069,165.754 60.500,165.813 60.500 C 165.871 60.500,166.023 60.736,166.151 61.025 C 166.279 61.314,166.503 61.679,166.650 61.837 C 166.797 61.995,167.104 62.374,167.333 62.679 C 167.991 63.554,170.815 66.333,171.047 66.333 C 171.103 66.333,171.334 66.505,171.560 66.714 C 171.786 66.924,172.184 67.205,172.444 67.339 C 172.704 67.473,172.954 67.630,173.000 67.687 C 173.183 67.915,175.972 69.301,176.469 69.410 C 176.761 69.474,177.000 69.584,177.000 69.653 C 177.000 69.723,177.431 69.876,177.958 69.994 C 178.485 70.111,178.960 70.275,179.013 70.358 C 179.065 70.441,179.497 70.555,179.971 70.611 C 180.445 70.667,180.833 70.766,180.833 70.830 C 180.833 71.474,192.897 71.473,193.750 70.830 C 193.842 70.761,194.310 70.651,194.792 70.586 C 195.273 70.522,195.667 70.413,195.667 70.344 C 195.667 70.276,196.079 70.127,196.583 70.015 C 197.088 69.902,197.500 69.752,197.500 69.681 C 197.500 69.611,197.912 69.454,198.417 69.333 C 198.921 69.212,199.333 69.062,199.333 69.000 C 199.333 68.938,199.629 68.789,199.991 68.670 C 200.353 68.550,200.685 68.360,200.728 68.248 C 200.771 68.135,201.018 67.990,201.277 67.925 C 201.535 67.860,201.785 67.756,201.832 67.694 C 201.878 67.631,202.235 67.374,202.625 67.121 C 203.015 66.869,203.333 66.588,203.333 66.498 C 203.333 66.407,203.427 66.332,203.542 66.331 C 204.125 66.325,208.490 61.995,208.498 61.415 C 208.499 61.323,208.650 61.153,208.833 61.039 C 209.017 60.924,209.167 60.719,209.167 60.582 C 209.167 60.445,209.224 60.333,209.294 60.333 C 209.423 60.333,209.592 60.051,210.093 59.000 C 210.246 58.679,210.426 58.379,210.495 58.333 C 210.563 58.288,210.710 57.969,210.822 57.625 C 210.934 57.281,211.088 57.000,211.163 57.000 C 211.238 57.000,211.390 56.625,211.500 56.167 C 211.610 55.708,211.759 55.333,211.831 55.333 C 211.903 55.333,212.054 54.845,212.167 54.248 C 212.280 53.651,212.431 53.126,212.503 53.082 C 212.575 53.037,212.687 52.532,212.752 51.959 C 212.817 51.386,212.953 50.814,213.055 50.689 C 213.311 50.374,213.417 43.403,213.188 42.000 C 212.707 39.057,212.613 38.577,212.502 38.500 C 212.436 38.454,212.285 38.004,212.167 37.500 C 212.048 36.996,211.905 36.546,211.848 36.500 C 211.791 36.454,211.648 36.043,211.529 35.587 C 211.411 35.131,211.255 34.719,211.181 34.671 C 211.108 34.623,210.957 34.302,210.845 33.958 C 210.733 33.615,210.578 33.333,210.500 33.333 C 210.423 33.333,210.310 33.109,210.250 32.834 C 210.190 32.560,210.051 32.279,209.942 32.209 C 209.832 32.140,209.648 31.896,209.532 31.667 C 209.081 30.780,208.848 30.438,208.596 30.297 C 208.451 30.216,208.333 30.045,208.333 29.917 C 208.333 29.788,208.239 29.623,208.124 29.550 C 208.009 29.477,207.694 29.117,207.425 28.750 C 206.895 28.028,205.183 26.333,204.984 26.333 C 204.917 26.333,204.592 26.071,204.261 25.750 C 203.931 25.429,203.592 25.167,203.509 25.167 C 203.425 25.167,203.256 25.073,203.132 24.958 C 202.701 24.559,201.907 24.046,201.538 23.929 C 201.334 23.864,201.167 23.746,201.167 23.666 C 201.167 23.587,200.904 23.427,200.583 23.311 C 200.262 23.195,200.000 23.052,200.000 22.993 C 200.000 22.935,199.681 22.785,199.292 22.660 C 198.902 22.536,198.433 22.344,198.250 22.233 C 198.067 22.123,197.654 21.978,197.333 21.912 C 197.012 21.846,196.710 21.729,196.662 21.654 C 196.613 21.578,196.069 21.420,195.453 21.303 C 194.837 21.186,194.333 21.040,194.333 20.979 C 194.333 20.917,193.790 20.813,193.125 20.747 C 192.460 20.681,191.871 20.555,191.816 20.467 C 191.709 20.299,185.512 20.154,183.708 20.278 M190.333 23.630 C 190.333 23.702,191.098 23.852,192.032 23.963 C 192.966 24.075,193.772 24.231,193.823 24.309 C 193.875 24.388,194.186 24.501,194.516 24.562 C 194.846 24.623,195.423 24.821,195.800 25.003 C 196.176 25.185,196.547 25.333,196.623 25.333 C 196.700 25.333,197.057 25.483,197.417 25.667 C 197.776 25.850,198.167 26.000,198.285 26.000 C 198.403 26.000,198.500 26.068,198.500 26.150 C 198.500 26.233,198.706 26.387,198.958 26.493 C 199.546 26.740,200.366 27.202,200.676 27.460 C 201.402 28.067,201.975 28.500,202.051 28.500 C 202.357 28.500,205.827 32.287,205.831 32.625 C 205.832 32.740,205.910 32.833,206.004 32.833 C 206.098 32.833,206.246 33.021,206.333 33.250 C 206.420 33.479,206.563 33.667,206.649 33.667 C 206.736 33.667,206.857 33.897,206.919 34.178 C 206.981 34.459,207.126 34.726,207.242 34.770 C 207.358 34.814,207.550 35.147,207.670 35.509 C 207.789 35.871,207.938 36.167,208.000 36.167 C 208.062 36.167,208.212 36.579,208.333 37.083 C 208.454 37.587,208.610 38.000,208.679 38.000 C 208.748 38.000,208.855 38.300,208.917 38.667 C 208.979 39.033,209.087 39.333,209.157 39.333 C 209.300 39.333,209.667 41.367,209.667 42.157 C 209.667 42.437,209.742 42.667,209.833 42.667 C 209.939 42.667,210.000 43.833,210.000 45.833 C 210.000 47.833,209.939 49.000,209.833 49.000 C 209.742 49.000,209.667 49.206,209.668 49.458 C 209.670 50.224,209.284 52.500,209.152 52.500 C 209.085 52.500,208.979 52.800,208.917 53.167 C 208.855 53.533,208.736 53.833,208.652 53.833 C 208.568 53.833,208.500 53.961,208.500 54.118 C 208.500 54.458,206.850 57.833,206.683 57.833 C 206.619 57.833,206.475 58.089,206.362 58.401 C 206.249 58.713,206.046 59.011,205.912 59.062 C 205.777 59.114,205.667 59.240,205.667 59.343 C 205.667 59.645,202.936 62.515,201.950 63.250 C 201.704 63.433,201.343 63.712,201.148 63.870 C 200.953 64.028,200.653 64.202,200.480 64.256 C 200.308 64.311,200.167 64.417,200.167 64.491 C 200.167 64.565,199.942 64.719,199.667 64.833 C 199.392 64.947,199.167 65.106,199.167 65.187 C 199.167 65.267,199.074 65.333,198.961 65.333 C 198.847 65.333,198.341 65.528,197.836 65.767 C 196.191 66.543,195.924 66.654,195.417 66.770 C 195.142 66.833,194.877 66.945,194.828 67.018 C 194.780 67.091,194.180 67.242,193.495 67.354 C 192.810 67.465,192.211 67.614,192.163 67.685 C 191.842 68.159,182.654 68.157,182.337 67.683 C 182.289 67.612,181.669 67.451,180.958 67.327 C 180.248 67.202,179.667 67.040,179.667 66.967 C 179.667 66.893,179.549 66.833,179.406 66.833 C 179.263 66.833,178.735 66.646,178.234 66.417 C 177.733 66.188,177.251 66.000,177.162 66.000 C 177.073 66.000,177.000 65.937,177.000 65.860 C 177.000 65.783,176.700 65.630,176.333 65.520 C 175.967 65.410,175.667 65.253,175.667 65.171 C 175.667 65.089,175.404 64.927,175.083 64.811 C 174.762 64.695,174.500 64.538,174.500 64.462 C 174.500 64.387,174.313 64.254,174.083 64.167 C 173.854 64.080,173.667 63.944,173.667 63.866 C 173.667 63.787,173.467 63.617,173.222 63.486 C 172.652 63.183,170.320 60.848,170.012 60.272 C 169.883 60.031,169.713 59.833,169.634 59.833 C 169.556 59.833,169.420 59.646,169.333 59.417 C 169.246 59.188,169.098 59.000,169.004 59.000 C 168.910 59.000,168.833 58.891,168.833 58.758 C 168.833 58.625,168.731 58.457,168.607 58.383 C 168.482 58.310,168.289 57.969,168.177 57.625 C 168.066 57.281,167.917 57.000,167.847 57.000 C 167.777 57.000,167.630 56.700,167.520 56.333 C 167.410 55.967,167.260 55.667,167.187 55.667 C 167.113 55.667,166.954 55.254,166.833 54.750 C 166.712 54.246,166.563 53.833,166.502 53.833 C 166.367 53.833,166.000 52.301,166.000 51.737 C 166.000 51.515,165.936 51.333,165.857 51.333 C 165.240 51.333,165.210 40.591,165.826 40.167 C 165.892 40.121,166.037 39.617,166.147 39.046 C 166.258 38.476,166.457 37.801,166.590 37.546 C 166.723 37.292,166.878 36.840,166.934 36.542 C 166.991 36.244,167.092 36.000,167.159 36.000 C 167.226 36.000,167.370 35.700,167.480 35.333 C 167.590 34.967,167.746 34.667,167.827 34.667 C 167.907 34.667,168.024 34.437,168.086 34.155 C 168.148 33.874,168.304 33.604,168.432 33.554 C 168.561 33.505,168.667 33.392,168.667 33.304 C 168.667 33.216,168.854 32.899,169.083 32.598 C 169.313 32.298,169.500 32.000,169.500 31.937 C 169.500 31.874,169.725 31.602,170.000 31.333 C 170.275 31.065,170.500 30.789,170.500 30.720 C 170.500 30.583,172.541 28.611,173.229 28.083 C 173.468 27.900,173.826 27.619,174.024 27.458 C 174.222 27.298,174.443 27.167,174.514 27.167 C 174.585 27.167,174.750 27.060,174.880 26.929 C 175.011 26.798,175.373 26.575,175.684 26.432 C 175.995 26.290,176.362 26.099,176.500 26.009 C 176.637 25.919,177.125 25.685,177.583 25.490 C 178.042 25.294,178.630 25.031,178.892 24.905 C 179.153 24.779,179.641 24.625,179.975 24.564 C 180.310 24.502,180.625 24.388,180.677 24.309 C 180.728 24.231,181.534 24.075,182.468 23.963 C 183.402 23.852,184.167 23.702,184.167 23.630 C 184.167 23.559,185.554 23.500,187.250 23.500 C 188.946 23.500,190.333 23.559,190.333 23.630 M183.183 27.180 C 182.229 27.253,181.404 27.382,181.349 27.467 C 181.295 27.551,180.875 27.675,180.417 27.743 C 179.958 27.810,179.269 28.008,178.884 28.182 C 178.500 28.357,178.068 28.500,177.926 28.500 C 177.783 28.500,177.667 28.563,177.667 28.640 C 177.667 28.717,177.371 28.878,177.009 28.997 C 176.647 29.117,176.315 29.306,176.272 29.419 C 176.229 29.532,175.998 29.673,175.759 29.733 C 175.313 29.845,175.204 29.923,174.111 30.918 C 173.759 31.238,173.434 31.500,173.387 31.500 C 173.230 31.500,172.333 32.415,172.326 32.583 C 172.322 32.675,172.097 32.934,171.826 33.159 C 171.555 33.384,171.333 33.662,171.333 33.778 C 171.333 33.894,171.189 34.065,171.014 34.159 C 170.838 34.254,170.646 34.550,170.587 34.818 C 170.528 35.086,170.379 35.344,170.256 35.391 C 170.132 35.439,169.981 35.708,169.919 35.989 C 169.857 36.270,169.739 36.500,169.656 36.500 C 169.573 36.500,169.420 36.837,169.316 37.250 C 169.212 37.662,169.068 38.000,168.995 38.000 C 168.922 38.000,168.810 38.311,168.746 38.691 C 168.682 39.072,168.522 39.638,168.392 39.950 C 168.262 40.262,168.109 41.114,168.053 41.842 C 167.997 42.571,167.887 43.167,167.809 43.167 C 167.605 43.167,167.629 48.124,167.833 48.250 C 167.925 48.307,168.002 48.667,168.003 49.052 C 168.008 49.977,168.738 53.131,168.994 53.333 C 169.052 53.379,169.193 53.735,169.306 54.125 C 169.420 54.515,169.576 54.833,169.652 54.833 C 169.728 54.833,169.885 55.171,170.000 55.583 C 170.115 55.996,170.266 56.333,170.335 56.333 C 170.403 56.333,170.553 56.558,170.667 56.833 C 170.781 57.108,170.931 57.333,171.000 57.333 C 171.069 57.333,171.215 57.548,171.324 57.811 C 171.433 58.074,171.705 58.386,171.928 58.506 C 172.151 58.625,172.333 58.811,172.333 58.919 C 172.333 59.137,173.904 60.829,174.116 60.840 C 174.190 60.844,174.510 61.069,174.827 61.340 C 175.144 61.611,175.501 61.833,175.619 61.833 C 175.737 61.833,175.833 61.903,175.833 61.989 C 175.833 62.075,176.096 62.240,176.417 62.356 C 176.737 62.472,177.000 62.625,177.000 62.696 C 177.000 62.862,178.351 63.478,179.000 63.608 C 179.275 63.663,179.500 63.761,179.500 63.826 C 179.500 63.963,181.017 64.333,181.582 64.333 C 181.797 64.333,181.999 64.414,182.032 64.512 C 182.068 64.622,182.979 64.729,184.379 64.787 L 186.667 64.883 186.667 64.442 C 186.667 64.111,186.583 64.000,186.333 64.000 C 186.150 64.000,186.000 63.935,186.000 63.856 C 186.000 63.777,185.550 63.617,185.000 63.500 C 184.450 63.383,184.000 63.229,184.000 63.157 C 184.000 63.085,183.762 62.974,183.472 62.911 C 183.182 62.847,182.713 62.654,182.431 62.481 C 182.148 62.309,181.792 62.168,181.639 62.167 C 181.486 62.167,181.336 62.108,181.306 62.036 C 181.275 61.964,180.744 61.655,180.125 61.350 C 179.506 61.044,179.000 60.743,179.000 60.681 C 179.000 60.618,178.737 60.472,178.417 60.356 C 178.096 60.240,177.833 60.073,177.833 59.984 C 177.833 59.895,177.702 59.774,177.542 59.713 C 177.032 59.522,174.789 57.118,174.473 56.423 C 174.367 56.190,174.220 56.000,174.147 56.000 C 174.073 56.000,173.923 55.700,173.814 55.333 C 173.704 54.967,173.563 54.667,173.500 54.667 C 173.438 54.667,173.284 54.348,173.159 53.958 C 173.033 53.569,172.886 53.212,172.831 53.167 C 172.581 52.957,171.966 50.139,171.879 48.804 C 171.826 47.989,171.720 47.283,171.642 47.235 C 171.456 47.120,171.457 44.333,171.642 44.333 C 171.720 44.333,171.834 43.619,171.896 42.745 C 171.957 41.871,172.111 40.840,172.239 40.453 C 172.366 40.066,172.523 39.487,172.587 39.167 C 172.652 38.846,172.764 38.508,172.835 38.417 C 172.907 38.325,173.060 37.931,173.176 37.542 C 173.291 37.152,173.437 36.833,173.500 36.833 C 173.562 36.833,173.711 36.537,173.830 36.175 C 173.950 35.813,174.149 35.478,174.274 35.431 C 174.398 35.383,174.501 35.248,174.503 35.130 C 174.504 35.013,174.692 34.740,174.920 34.524 C 175.147 34.308,175.338 34.046,175.343 33.941 C 175.349 33.836,175.768 33.412,176.275 33.000 C 176.782 32.587,177.353 32.081,177.545 31.875 C 177.737 31.669,177.992 31.500,178.113 31.500 C 178.234 31.500,178.333 31.423,178.333 31.329 C 178.333 31.235,178.521 31.087,178.750 31.000 C 178.979 30.913,179.167 30.765,179.167 30.671 C 179.167 30.577,179.262 30.500,179.378 30.500 C 179.494 30.500,180.188 30.197,180.920 29.826 C 182.417 29.068,183.793 28.564,184.812 28.401 C 185.190 28.340,185.500 28.225,185.500 28.145 C 185.500 28.065,185.725 28.000,186.000 28.000 C 186.444 28.000,186.500 27.944,186.500 27.500 C 186.500 26.926,186.502 26.926,183.183 27.180 M187.894 27.250 C 187.746 27.634,187.953 28.000,188.318 28.000 C 188.499 28.000,188.688 28.066,188.738 28.147 C 188.788 28.229,189.166 28.345,189.577 28.407 C 189.989 28.469,190.366 28.585,190.416 28.665 C 190.465 28.745,190.917 28.903,191.420 29.015 C 191.922 29.128,192.333 29.277,192.333 29.347 C 192.333 29.416,192.574 29.526,192.868 29.591 C 193.161 29.655,193.780 29.925,194.243 30.189 C 194.705 30.454,195.327 30.783,195.625 30.921 C 195.923 31.058,196.167 31.245,196.167 31.336 C 196.167 31.426,196.252 31.500,196.357 31.500 C 196.720 31.500,199.021 33.580,199.356 34.212 C 199.464 34.416,199.691 34.681,199.860 34.801 C 200.029 34.921,200.167 35.119,200.167 35.242 C 200.167 35.364,200.272 35.505,200.401 35.554 C 200.530 35.604,200.686 35.874,200.748 36.155 C 200.809 36.437,200.929 36.667,201.013 36.667 C 201.098 36.667,201.167 36.749,201.167 36.849 C 201.167 36.950,201.306 37.231,201.476 37.474 C 201.646 37.718,201.835 38.123,201.896 38.375 C 201.956 38.627,202.072 38.833,202.153 38.833 C 202.234 38.833,202.393 39.227,202.508 39.708 C 202.622 40.190,202.765 40.621,202.826 40.667 C 202.967 40.773,203.333 42.794,203.333 43.468 C 203.333 43.750,203.408 44.027,203.500 44.083 C 203.697 44.205,203.730 47.667,203.534 47.667 C 203.461 47.667,203.314 48.354,203.208 49.194 C 203.102 50.034,202.948 50.765,202.865 50.819 C 202.783 50.873,202.622 51.310,202.508 51.792 C 202.393 52.273,202.241 52.667,202.169 52.667 C 202.096 52.667,201.988 52.929,201.928 53.250 C 201.867 53.571,201.752 53.833,201.672 53.833 C 201.592 53.833,201.439 54.096,201.333 54.417 C 201.227 54.737,201.079 55.000,201.003 55.000 C 200.928 55.000,200.788 55.225,200.692 55.500 C 200.596 55.775,200.450 56.000,200.369 56.000 C 200.287 56.000,200.128 56.203,200.015 56.451 C 199.902 56.699,199.665 57.004,199.488 57.127 C 199.311 57.251,199.162 57.442,199.156 57.551 C 199.150 57.661,198.809 58.050,198.397 58.417 C 197.986 58.783,197.384 59.327,197.060 59.625 C 196.736 59.923,196.422 60.167,196.361 60.167 C 196.300 60.167,196.032 60.354,195.766 60.584 C 195.499 60.813,195.178 61.000,195.052 61.000 C 194.926 61.000,194.780 61.112,194.727 61.250 C 194.674 61.387,194.539 61.500,194.427 61.500 C 194.315 61.500,193.572 61.837,192.777 62.250 C 191.982 62.663,191.219 63.000,191.082 63.000 C 190.945 63.000,190.833 63.063,190.833 63.140 C 190.833 63.217,190.308 63.379,189.667 63.500 C 189.025 63.621,188.500 63.783,188.500 63.860 C 188.500 63.937,188.387 64.000,188.250 64.000 C 188.091 64.000,188.000 64.160,188.000 64.442 L 188.000 64.884 190.205 64.786 C 191.528 64.727,192.433 64.617,192.469 64.510 C 192.501 64.413,192.703 64.333,192.918 64.333 C 193.483 64.333,195.000 63.963,195.000 63.826 C 195.000 63.761,195.225 63.663,195.500 63.608 C 196.044 63.500,197.532 62.860,197.667 62.678 C 197.713 62.615,197.994 62.466,198.292 62.345 C 198.590 62.225,198.833 62.060,198.833 61.980 C 198.833 61.899,198.927 61.833,199.042 61.833 C 199.233 61.833,199.805 61.425,200.542 60.762 C 200.702 60.618,200.890 60.499,200.958 60.498 C 201.124 60.495,203.167 58.416,203.167 58.250 C 203.167 58.180,203.335 57.955,203.542 57.751 C 204.116 57.183,204.504 56.622,204.608 56.208 C 204.660 56.002,204.761 55.833,204.831 55.833 C 204.902 55.833,205.058 55.590,205.179 55.292 C 205.299 54.994,205.440 54.712,205.491 54.667 C 205.702 54.478,206.339 53.010,206.439 52.483 C 206.498 52.172,206.603 51.842,206.671 51.750 C 206.840 51.521,207.167 49.927,207.167 49.325 C 207.167 49.055,207.242 48.833,207.333 48.833 C 207.438 48.833,207.500 47.750,207.500 45.917 C 207.500 44.313,207.440 43.000,207.367 43.000 C 207.294 43.000,207.147 42.307,207.040 41.460 C 206.933 40.614,206.768 39.895,206.673 39.863 C 206.578 39.831,206.500 39.661,206.500 39.483 C 206.500 39.046,206.113 37.833,205.973 37.833 C 205.911 37.833,205.810 37.608,205.750 37.333 C 205.690 37.058,205.574 36.833,205.493 36.833 C 205.413 36.833,205.257 36.533,205.147 36.167 C 205.037 35.800,204.882 35.500,204.803 35.500 C 204.723 35.500,204.587 35.313,204.500 35.083 C 204.413 34.854,204.265 34.667,204.171 34.667 C 204.077 34.667,203.999 34.573,203.998 34.458 C 203.992 33.881,201.225 31.124,199.859 30.333 C 199.621 30.196,199.326 29.990,199.202 29.875 C 199.078 29.761,198.794 29.621,198.572 29.566 C 198.349 29.510,198.167 29.409,198.167 29.342 C 198.167 29.275,197.867 29.121,197.500 29.000 C 197.133 28.879,196.833 28.717,196.833 28.640 C 196.833 28.563,196.717 28.500,196.574 28.500 C 196.432 28.500,196.000 28.357,195.616 28.182 C 195.231 28.008,194.542 27.810,194.083 27.743 C 193.625 27.675,193.212 27.563,193.167 27.493 C 193.092 27.378,189.435 27.000,188.402 27.000 C 188.175 27.000,187.946 27.113,187.894 27.250 M29.989 28.298 C 22.084 35.311,19.862 46.907,24.598 56.431 C 26.026 59.304,30.308 64.500,31.247 64.500 C 31.471 64.500,35.501 60.466,35.496 60.248 C 35.494 60.157,35.187 59.858,34.813 59.583 C 28.983 55.289,26.573 46.335,29.397 39.458 C 29.878 38.285,31.155 36.000,31.329 36.000 C 31.406 36.000,34.670 39.199,38.584 43.108 L 45.699 50.216 52.855 43.066 L 60.011 35.917 60.341 36.333 C 60.860 36.990,62.137 39.706,62.429 40.777 C 62.576 41.312,62.779 42.050,62.880 42.417 C 63.121 43.291,63.119 48.555,62.876 49.417 C 62.773 49.783,62.571 50.506,62.427 51.023 C 62.284 51.541,62.054 52.178,61.917 52.440 C 61.781 52.702,61.668 52.979,61.668 53.054 C 61.664 53.599,59.146 57.214,57.992 58.333 C 57.274 59.030,56.091 59.999,55.958 59.999 C 55.890 60.000,55.833 60.076,55.833 60.168 C 55.833 60.391,59.947 64.500,60.169 64.500 C 60.490 64.500,64.114 60.760,64.852 59.667 C 65.534 58.658,67.000 56.202,67.000 56.069 C 67.000 56.037,67.175 55.614,67.390 55.130 C 70.780 47.481,69.470 37.818,64.152 31.250 C 62.672 29.422,60.513 27.333,60.104 27.333 C 60.002 27.333,56.712 30.539,52.792 34.458 L 45.667 41.582 38.458 34.380 L 31.250 27.179 29.989 28.298 M184.292 31.777 C 184.040 31.820,183.833 31.925,183.833 32.011 C 183.833 32.097,183.665 32.169,183.458 32.172 C 183.252 32.175,182.708 32.362,182.250 32.587 C 181.792 32.812,181.323 32.998,181.208 32.998 C 181.094 32.999,181.000 33.066,181.000 33.146 C 181.000 33.227,180.775 33.386,180.500 33.500 C 180.225 33.614,180.000 33.768,180.000 33.842 C 180.000 33.917,179.846 34.026,179.659 34.086 C 179.215 34.227,177.060 36.382,176.919 36.825 C 176.860 37.013,176.750 37.167,176.676 37.167 C 176.601 37.167,176.447 37.392,176.333 37.667 C 176.219 37.942,176.066 38.167,175.993 38.167 C 175.920 38.167,175.810 38.392,175.750 38.667 C 175.690 38.942,175.579 39.167,175.503 39.167 C 175.428 39.167,175.273 39.560,175.159 40.042 C 175.045 40.523,174.900 40.954,174.837 41.000 C 174.636 41.146,174.333 43.018,174.333 44.111 C 174.333 44.704,174.260 45.167,174.167 45.167 C 174.075 45.167,174.000 45.429,174.000 45.750 C 174.000 46.071,174.075 46.333,174.167 46.333 C 174.259 46.333,174.333 46.777,174.333 47.330 C 174.333 48.468,174.676 50.667,174.853 50.667 C 174.918 50.667,175.020 50.960,175.081 51.318 C 175.141 51.676,175.295 52.107,175.423 52.276 C 175.551 52.445,175.658 52.703,175.661 52.849 C 175.664 52.996,175.819 53.291,176.005 53.505 C 176.190 53.719,176.386 54.068,176.439 54.281 C 176.493 54.493,176.601 54.667,176.680 54.667 C 176.760 54.667,176.932 54.873,177.062 55.125 C 177.369 55.718,179.116 57.464,179.708 57.771 C 179.960 57.902,180.167 58.067,180.167 58.137 C 180.167 58.208,180.448 58.367,180.792 58.490 C 181.135 58.613,181.454 58.763,181.500 58.824 C 181.713 59.106,183.422 59.681,184.327 59.776 C 184.880 59.833,185.333 59.945,185.333 60.024 C 185.333 60.102,186.158 60.167,187.167 60.167 C 188.175 60.167,189.000 60.102,189.000 60.024 C 189.000 59.945,189.452 59.834,190.005 59.776 C 190.557 59.718,191.340 59.520,191.745 59.335 C 192.150 59.151,192.598 59.000,192.741 59.000 C 192.883 59.000,193.000 58.933,193.000 58.851 C 193.000 58.770,193.182 58.657,193.405 58.601 C 193.628 58.545,193.913 58.397,194.038 58.271 C 194.164 58.146,194.516 57.902,194.822 57.730 C 195.127 57.558,195.500 57.342,195.650 57.250 C 195.996 57.039,198.000 55.034,198.000 54.899 C 198.000 54.844,198.169 54.588,198.375 54.331 C 199.185 53.321,199.321 53.102,199.422 52.643 C 199.479 52.381,199.587 52.167,199.662 52.167 C 199.736 52.167,199.896 51.829,200.018 51.417 C 200.140 51.004,200.290 50.667,200.353 50.667 C 200.488 50.667,200.833 48.773,200.833 48.028 C 200.833 47.738,200.908 47.500,201.000 47.500 C 201.099 47.500,201.167 46.861,201.167 45.917 C 201.167 44.972,201.099 44.333,201.000 44.333 C 200.908 44.333,200.833 44.046,200.833 43.694 C 200.833 42.881,200.493 41.167,200.331 41.167 C 200.264 41.167,200.161 40.929,200.103 40.639 C 200.004 40.144,199.209 38.350,199.007 38.167 C 198.957 38.121,198.699 37.765,198.435 37.375 C 198.171 36.985,197.890 36.667,197.811 36.667 C 197.731 36.667,197.667 36.563,197.667 36.437 C 197.667 36.136,195.400 34.000,195.080 34.000 C 194.944 34.000,194.833 33.934,194.833 33.854 C 194.833 33.773,194.590 33.609,194.292 33.488 C 193.994 33.368,193.695 33.180,193.627 33.070 C 193.560 32.961,193.241 32.822,192.919 32.761 C 192.597 32.701,192.333 32.588,192.333 32.511 C 192.333 32.434,192.052 32.318,191.708 32.254 C 191.365 32.189,190.979 32.051,190.851 31.945 C 190.617 31.751,185.247 31.614,184.292 31.777 M189.306 35.191 C 189.336 35.269,189.515 35.333,189.703 35.333 C 190.215 35.333,191.386 35.708,191.637 35.952 C 191.758 36.070,191.964 36.167,192.095 36.167 C 192.226 36.167,192.333 36.244,192.333 36.339 C 192.333 36.433,192.467 36.565,192.630 36.630 C 193.473 36.970,195.180 38.551,195.511 39.299 C 195.642 39.593,195.798 39.833,195.860 39.833 C 196.020 39.833,197.000 41.887,197.000 42.222 C 197.000 42.375,197.066 42.500,197.146 42.500 C 197.752 42.500,197.768 48.351,197.164 49.086 C 197.087 49.178,196.935 49.610,196.826 50.044 C 196.717 50.478,196.575 50.833,196.511 50.833 C 196.448 50.833,196.294 51.093,196.169 51.410 C 196.045 51.727,195.844 52.024,195.722 52.071 C 195.600 52.118,195.500 52.254,195.500 52.374 C 195.500 52.665,193.072 54.981,192.566 55.173 C 192.346 55.257,192.167 55.392,192.167 55.474 C 192.167 55.556,191.810 55.721,191.375 55.841 C 190.940 55.961,190.544 56.116,190.496 56.186 C 190.097 56.771,184.000 56.756,184.000 56.170 C 184.000 56.106,183.700 55.963,183.333 55.853 C 182.967 55.743,182.667 55.581,182.667 55.493 C 182.667 55.405,182.584 55.333,182.482 55.333 C 182.071 55.333,180.027 53.434,179.650 52.702 C 179.522 52.453,179.363 52.210,179.297 52.160 C 179.064 51.985,178.370 50.547,178.248 49.986 C 178.180 49.673,178.066 49.379,177.993 49.332 C 177.486 49.006,177.483 42.667,177.990 42.334 C 178.061 42.288,178.219 41.856,178.341 41.375 C 178.463 40.894,178.610 40.500,178.667 40.500 C 178.724 40.500,178.874 40.237,179.000 39.917 C 179.126 39.596,179.290 39.333,179.364 39.333 C 179.439 39.333,179.500 39.248,179.500 39.144 C 179.500 39.040,179.669 38.791,179.875 38.590 C 180.081 38.389,180.392 38.024,180.565 37.779 C 180.738 37.534,180.941 37.333,181.016 37.333 C 181.090 37.333,181.335 37.165,181.560 36.958 C 182.263 36.313,182.459 36.183,182.902 36.072 C 183.139 36.013,183.333 35.904,183.333 35.832 C 183.333 35.659,184.274 35.333,184.775 35.333 C 184.990 35.333,185.167 35.262,185.167 35.176 C 185.167 34.849,189.178 34.864,189.306 35.191 M21.563 65.687 C 20.475 66.778,19.449 67.713,19.283 67.766 C 18.772 67.928,19.671 69.238,21.318 70.734 C 21.631 71.018,22.187 71.531,22.554 71.875 C 23.212 72.492,23.833 72.695,23.833 72.294 C 23.833 72.181,24.743 71.176,25.855 70.061 L 27.877 68.035 25.709 65.869 L 23.541 63.704 21.563 65.687 M65.624 65.864 L 63.498 68.008 65.499 69.999 C 66.600 71.094,67.500 72.105,67.500 72.245 C 67.500 72.688,68.095 72.522,68.824 71.875 C 69.469 71.303,69.886 70.881,71.708 68.964 C 72.329 68.311,72.511 67.833,72.139 67.833 C 72.033 67.833,71.001 66.908,69.848 65.776 L 67.750 63.719 65.624 65.864 " stroke="none" fill="#040404" fill-rule="evenodd"></path><path id="path2" d="M24.333 20.052 C 24.333 20.081,24.577 20.325,24.875 20.594 L 25.417 21.083 24.927 20.542 C 24.471 20.037,24.333 19.923,24.333 20.052 M26.824 24.958 L 26.250 25.583 26.875 25.009 C 27.457 24.474,27.577 24.333,27.449 24.333 C 27.422 24.333,27.140 24.615,26.824 24.958 M24.742 27.042 L 24.083 27.750 24.792 27.091 C 25.181 26.729,25.500 26.410,25.500 26.383 C 25.500 26.257,25.355 26.383,24.742 27.042 M31.184 27.042 C 31.224 27.065,31.668 27.458,32.170 27.917 L 33.083 28.750 32.256 27.875 C 31.801 27.394,31.358 27.000,31.270 27.000 C 31.183 27.000,31.144 27.019,31.184 27.042 M62.250 29.000 C 62.979 29.733,63.613 30.333,63.659 30.333 C 63.705 30.333,63.146 29.733,62.417 29.000 C 61.688 28.267,61.054 27.667,61.008 27.667 C 60.962 27.667,61.521 28.267,62.250 29.000 M28.910 29.042 L 28.083 29.917 28.958 29.090 C 29.771 28.321,29.910 28.167,29.785 28.167 C 29.759 28.167,29.365 28.560,28.910 29.042 M35.917 31.667 C 36.368 32.125,36.775 32.500,36.821 32.500 C 36.867 32.500,36.535 32.125,36.083 31.667 C 35.632 31.208,35.225 30.833,35.179 30.833 C 35.133 30.833,35.465 31.208,35.917 31.667 M38.167 33.917 C 38.478 34.237,38.770 34.500,38.815 34.500 C 38.861 34.500,38.644 34.237,38.333 33.917 C 38.022 33.596,37.730 33.333,37.685 33.333 C 37.639 33.333,37.856 33.596,38.167 33.917 M42.285 37.995 C 44.138 39.869,45.675 41.368,45.702 41.326 C 45.728 41.284,44.212 39.751,42.333 37.919 L 38.917 34.587 42.285 37.995 M22.039 43.167 C 22.039 43.487,22.073 43.619,22.115 43.458 C 22.157 43.298,22.157 43.035,22.115 42.875 C 22.073 42.715,22.039 42.846,22.039 43.167 M62.875 43.917 C 62.877 44.283,62.911 44.414,62.951 44.206 C 62.991 43.999,62.990 43.699,62.948 43.540 C 62.906 43.380,62.874 43.550,62.875 43.917 M28.375 44.417 C 28.377 44.783,28.411 44.914,28.451 44.706 C 28.491 44.499,28.490 44.199,28.448 44.040 C 28.406 43.880,28.374 44.050,28.375 44.417 M69.383 44.833 C 69.383 45.337,69.415 45.544,69.453 45.292 C 69.491 45.040,69.491 44.627,69.453 44.375 C 69.415 44.123,69.383 44.329,69.383 44.833 M21.894 45.917 C 21.895 46.833,21.923 47.187,21.956 46.703 C 21.990 46.218,21.990 45.468,21.956 45.036 C 21.921 44.604,21.894 45.000,21.894 45.917 M63.048 45.917 C 63.049 46.375,63.081 46.543,63.120 46.289 C 63.158 46.036,63.157 45.661,63.117 45.456 C 63.078 45.251,63.046 45.458,63.048 45.917 M69.383 47.000 C 69.383 47.504,69.415 47.710,69.453 47.458 C 69.491 47.206,69.491 46.794,69.453 46.542 C 69.415 46.290,69.383 46.496,69.383 47.000 M28.379 47.333 C 28.379 47.746,28.411 47.915,28.451 47.708 C 28.491 47.502,28.491 47.165,28.451 46.958 C 28.411 46.752,28.379 46.921,28.379 47.333 M62.875 47.917 C 62.877 48.283,62.911 48.414,62.951 48.206 C 62.991 47.999,62.990 47.699,62.948 47.540 C 62.906 47.380,62.874 47.550,62.875 47.917 M22.039 48.667 C 22.039 48.987,22.073 49.119,22.115 48.958 C 22.157 48.798,22.157 48.535,22.115 48.375 C 22.073 48.215,22.039 48.346,22.039 48.667 M32.167 56.885 C 32.167 56.914,32.410 57.158,32.708 57.427 L 33.250 57.917 32.760 57.375 C 32.304 56.870,32.167 56.757,32.167 56.885 M33.667 58.385 C 33.667 58.414,33.910 58.658,34.208 58.927 L 34.750 59.417 34.260 58.875 C 33.804 58.370,33.667 58.257,33.667 58.385 M58.238 62.950 C 59.822 64.572,60.333 64.961,60.333 64.546 C 60.333 64.490,60.281 64.497,60.217 64.561 C 60.152 64.625,59.271 63.869,58.258 62.881 L 56.417 61.083 58.238 62.950 M62.491 62.625 L 61.917 63.250 62.542 62.676 C 62.885 62.360,63.167 62.078,63.167 62.051 C 63.167 61.923,63.026 62.043,62.491 62.625 M69.833 65.583 C 70.976 66.729,71.949 67.667,71.995 67.667 C 72.041 67.667,71.143 66.729,70.000 65.583 C 68.857 64.438,67.884 63.500,67.838 63.500 C 67.793 63.500,68.690 64.438,69.833 65.583 M66.242 65.042 L 65.583 65.750 66.292 65.091 C 66.950 64.478,67.077 64.333,66.950 64.333 C 66.923 64.333,66.605 64.652,66.242 65.042 M25.833 65.917 C 26.424 66.512,26.945 67.000,26.990 67.000 C 27.036 67.000,26.591 66.512,26.000 65.917 C 25.409 65.321,24.889 64.833,24.843 64.833 C 24.797 64.833,25.243 65.321,25.833 65.917 M64.742 66.542 L 64.083 67.250 64.792 66.591 C 65.181 66.229,65.500 65.910,65.500 65.883 C 65.500 65.757,65.355 65.883,64.742 66.542 M65.333 70.083 C 66.476 71.229,67.449 72.167,67.495 72.167 C 67.541 72.167,66.643 71.229,65.500 70.083 C 64.357 68.938,63.384 68.000,63.338 68.000 C 63.293 68.000,64.190 68.938,65.333 70.083 " stroke="none" fill="#907404" fill-rule="evenodd"></path><path id="path3" d="M23.085 19.498 C 23.025 19.595,23.096 19.619,23.257 19.558 C 23.626 19.416,27.882 23.631,27.742 24.000 C 27.665 24.202,27.688 24.210,27.860 24.039 C 28.032 23.868,27.646 23.400,25.830 21.580 C 23.671 19.417,23.306 19.140,23.085 19.498 M25.412 26.208 L 24.250 27.417 25.458 26.254 C 26.581 25.175,26.743 25.000,26.621 25.000 C 26.595 25.000,26.051 25.544,25.412 26.208 M66.833 27.250 C 67.144 27.571,67.436 27.833,67.482 27.833 C 67.528 27.833,67.311 27.571,67.000 27.250 C 66.689 26.929,66.397 26.667,66.351 26.667 C 66.305 26.667,66.522 26.929,66.833 27.250 M38.452 34.327 C 42.412 38.310,45.675 41.535,45.702 41.493 C 45.728 41.451,42.487 38.192,38.500 34.251 L 31.250 27.085 38.452 34.327 M29.409 28.708 L 28.750 29.417 29.458 28.758 C 29.848 28.395,30.167 28.077,30.167 28.050 C 30.167 27.923,30.022 28.050,29.409 28.708 M63.167 30.083 C 63.478 30.404,63.770 30.667,63.815 30.667 C 63.861 30.667,63.644 30.404,63.333 30.083 C 63.022 29.762,62.730 29.500,62.685 29.500 C 62.639 29.500,62.856 29.762,63.167 30.083 M68.523 40.000 C 68.523 40.137,68.588 40.400,68.667 40.583 C 68.757 40.793,68.810 40.824,68.810 40.667 C 68.810 40.529,68.745 40.267,68.667 40.083 C 68.576 39.873,68.523 39.842,68.523 40.000 M69.220 44.500 C 69.220 45.096,69.250 45.340,69.287 45.042 C 69.324 44.744,69.324 44.256,69.287 43.958 C 69.250 43.660,69.220 43.904,69.220 44.500 M28.205 44.500 C 28.205 44.821,28.240 44.952,28.282 44.792 C 28.323 44.631,28.323 44.369,28.282 44.208 C 28.240 44.048,28.205 44.179,28.205 44.500 M22.062 45.917 C 22.063 46.925,22.090 47.316,22.123 46.786 C 22.157 46.255,22.156 45.430,22.123 44.952 C 22.089 44.474,22.062 44.908,22.062 45.917 M69.221 47.250 C 69.222 47.892,69.252 48.134,69.288 47.788 C 69.324 47.442,69.324 46.917,69.287 46.621 C 69.250 46.325,69.221 46.608,69.221 47.250 M28.205 47.167 C 28.205 47.487,28.240 47.619,28.282 47.458 C 28.323 47.298,28.323 47.035,28.282 46.875 C 28.240 46.715,28.205 46.846,28.205 47.167 M62.328 62.625 L 61.417 63.583 62.375 62.672 C 63.265 61.826,63.410 61.667,63.286 61.667 C 63.260 61.667,62.829 62.098,62.328 62.625 M29.000 62.750 C 29.311 63.071,29.603 63.333,29.649 63.333 C 29.695 63.333,29.478 63.071,29.167 62.750 C 28.856 62.429,28.564 62.167,28.518 62.167 C 28.472 62.167,28.689 62.429,29.000 62.750 M69.750 65.667 C 70.847 66.767,71.782 67.667,71.828 67.667 C 71.874 67.667,71.014 66.767,69.917 65.667 C 68.820 64.567,67.884 63.667,67.839 63.667 C 67.793 63.667,68.653 64.567,69.750 65.667 M65.579 65.875 L 64.417 67.083 65.625 65.921 C 66.290 65.282,66.833 64.738,66.833 64.713 C 66.833 64.591,66.658 64.753,65.579 65.875 M25.750 66.000 C 26.201 66.458,26.608 66.833,26.654 66.833 C 26.700 66.833,26.368 66.458,25.917 66.000 C 25.465 65.542,25.058 65.167,25.013 65.167 C 24.967 65.167,25.299 65.542,25.750 66.000 " stroke="none" fill="#5d4b04" fill-rule="evenodd"></path><path id="path4" d="M65.667 26.083 C 65.978 26.404,66.270 26.667,66.315 26.667 C 66.361 26.667,66.144 26.404,65.833 26.083 C 65.522 25.762,65.230 25.500,65.185 25.500 C 65.139 25.500,65.356 25.762,65.667 26.083 M28.217 45.833 C 28.217 46.337,28.248 46.544,28.286 46.292 C 28.324 46.040,28.324 45.627,28.286 45.375 C 28.248 45.123,28.217 45.329,28.217 45.833 M46.833 49.083 C 46.150 49.771,45.629 50.333,45.675 50.333 C 45.721 50.333,46.317 49.771,47.000 49.083 C 47.683 48.396,48.204 47.833,48.158 47.833 C 48.112 47.833,47.516 48.396,46.833 49.083 M33.497 62.458 L 31.417 64.583 33.542 62.503 C 35.516 60.570,35.742 60.333,35.622 60.333 C 35.598 60.333,34.642 61.290,33.497 62.458 M25.917 70.000 C 24.820 71.100,23.959 72.000,24.005 72.000 C 24.051 72.000,24.986 71.100,26.083 70.000 C 27.180 68.900,28.041 68.000,27.995 68.000 C 27.949 68.000,27.014 68.900,25.917 70.000 " stroke="none" fill="#7c6404" fill-rule="evenodd"></path></g></svg>