
<?xml version="1.0" encoding="UTF-8"?>
<!DOCTYPE svg PUBLIC "-//W3C//DTD SVG 1.1//EN" "http://www.w3.org/Graphics/SVG/1.1/DTD/svg11.dtd">
<svg xmlns="http://www.w3.org/2000/svg" version="1.1" width="1773px" height="405px" style="shape-rendering:geometricPrecision; text-rendering:geometricPrecision; image-rendering:optimizeQuality; fill-rule:evenodd; clip-rule:evenodd" xmlns:xlink="http://www.w3.org/1999/xlink">
<g><path style="opacity:0.989" fill="#fecb00" d="M 196.5,-0.5 C 200.167,-0.5 203.833,-0.5 207.5,-0.5C 212.955,0.893892 217.955,3.39389 222.5,7C 248.702,33.0347 274.702,59.2013 300.5,85.5C 293.521,91.8123 286.854,98.479 280.5,105.5C 287.167,111.5 293.5,117.833 299.5,124.5C 306.521,118.146 313.188,111.479 319.5,104.5C 345.465,129.965 371.299,155.632 397,181.5C 407,195.167 407,208.833 397,222.5C 371.299,248.368 345.465,274.035 319.5,299.5C 312.575,293.915 305.908,287.915 299.5,281.5C 293.5,288.167 287.167,294.5 280.5,300.5C 286.915,306.908 292.915,313.575 298.5,320.5C 273.368,346.132 248.035,371.632 222.5,397C 217.955,400.606 212.955,403.106 207.5,404.5C 203.833,404.5 200.167,404.5 196.5,404.5C 191.045,403.106 186.045,400.606 181.5,397C 155.965,371.632 130.632,346.132 105.5,320.5C 111.085,313.575 117.085,306.908 123.5,300.5C 116.833,294.5 110.5,288.167 104.5,281.5C 98.0918,287.915 91.4252,293.915 84.5,299.5C 58.5347,274.035 32.7013,248.368 7,222.5C 3.39389,217.955 0.893892,212.955 -0.5,207.5C -0.5,203.833 -0.5,200.167 -0.5,196.5C 0.893892,191.045 3.39389,186.045 7,181.5C 32.7013,155.632 58.5347,129.965 84.5,104.5C 90.8123,111.479 97.479,118.146 104.5,124.5C 110.5,117.833 116.833,111.5 123.5,105.5C 117.146,98.479 110.479,91.8123 103.5,85.5C 129.298,59.2013 155.298,33.0347 181.5,7C 186.045,3.39389 191.045,0.893892 196.5,-0.5 Z"/></g>
<g><path style="opacity:0.977" fill="#fecc00" d="M 619.5,74.5 C 642.519,72.6702 664.186,77.1702 684.5,88C 698.41,96.8226 701.244,108.323 693,122.5C 688.354,125.769 683.188,127.103 677.5,126.5C 674.833,126.333 672.167,126.167 669.5,126C 632.982,107.439 601.149,113.273 574,143.5C 555.926,170.002 552.592,198.335 564,228.5C 580.405,264.786 608.238,279.619 647.5,273C 655.288,269.606 662.955,265.939 670.5,262C 678.381,259.104 686.381,258.771 694.5,261C 700.937,265.206 703.937,271.206 703.5,279C 702.924,287.272 699.258,293.939 692.5,299C 673.714,311.203 653.047,317.036 630.5,316.5C 583.888,316.625 548.721,296.959 525,257.5C 506.064,217 505.731,176.333 524,135.5C 544.684,97.8977 576.518,77.5643 619.5,74.5 Z"/></g>
<g><path style="opacity:0.975" fill="#fecc00" d="M 1004.5,80.5 C 1021.94,80.7785 1030.44,89.7785 1030,107.5C 1030.96,169.52 1030.63,231.52 1029,293.5C 1024.73,310.388 1014.23,315.888 997.5,310C 992.503,306.857 989.336,302.357 988,296.5C 986.97,292.227 986.303,287.894 986,283.5C 985.333,224.5 985.333,165.5 986,106.5C 986.064,97.6277 989.231,90.1277 995.5,84C 998.459,82.3957 1001.46,81.2291 1004.5,80.5 Z"/></g>
<g><path style="opacity:0.979" fill="#fecc00" d="M 1098.5,83.5 C 1115.15,80.3794 1129.32,84.7127 1141,96.5C 1148.39,106.223 1155.39,116.223 1162,126.5C 1180.42,155.67 1199.08,184.67 1218,213.5C 1221.87,219.709 1227.2,224.042 1234,226.5C 1235.99,225.846 1237.32,224.513 1238,222.5C 1239.04,219.247 1239.7,215.914 1240,212.5C 1240.53,199.168 1241.03,185.834 1241.5,172.5C 1240.56,153.838 1240.39,135.172 1241,116.5C 1240.87,104.935 1245.37,95.7683 1254.5,89C 1270,85.001 1279.5,90.8343 1283,106.5C 1283.85,110.469 1284.52,114.469 1285,118.5C 1285.67,174.833 1285.67,231.167 1285,287.5C 1283.94,301.883 1276.44,310.717 1262.5,314C 1248.51,316.421 1236.18,313.088 1225.5,304C 1219.95,297.45 1214.78,290.617 1210,283.5C 1187.92,248.331 1165.58,213.331 1143,178.5C 1139.23,172.731 1134.23,168.398 1128,165.5C 1123.87,169.547 1121.87,174.547 1122,180.5C 1121.67,214.167 1121.33,247.833 1121,281.5C 1120.46,289.443 1118.13,296.776 1114,303.5C 1108.24,310.037 1101.08,312.203 1092.5,310C 1085.78,307.61 1081.44,302.943 1079.5,296C 1078.2,291.929 1077.37,287.762 1077,283.5C 1076.33,228.833 1076.33,174.167 1077,119.5C 1076.35,107.794 1079.85,97.627 1087.5,89C 1090.99,86.588 1094.66,84.7547 1098.5,83.5 Z"/></g>
<g><path style="opacity:0.978" fill="#fecc00" d="M 1352.5,83.5 C 1369.22,81.8955 1382.72,87.5621 1393,100.5C 1396.9,107.208 1400.24,114.208 1403,121.5C 1412.47,148.243 1422.14,174.91 1432,201.5C 1434.96,207.933 1438.8,213.766 1443.5,219C 1445.7,220.373 1448.03,220.706 1450.5,220C 1454.76,216.642 1457.93,212.475 1460,207.5C 1471.73,177.656 1483.06,147.656 1494,117.5C 1503.03,89.8333 1521.86,79 1550.5,85C 1558.45,86.5526 1563.95,91.0526 1567,98.5C 1568.31,102.42 1569.31,106.42 1570,110.5C 1571.1,141.985 1571.6,173.485 1571.5,205C 1571.33,231.167 1571.17,257.333 1571,283.5C 1570.76,292.567 1567.59,300.4 1561.5,307C 1546.38,313.737 1536.22,309.237 1531,293.5C 1530.12,290.211 1529.45,286.877 1529,283.5C 1528.67,250.5 1528.33,217.5 1528,184.5C 1528.19,177.93 1526.53,171.93 1523,166.5C 1516.93,172.286 1512.6,179.286 1510,187.5C 1498.61,217.68 1487.61,248.014 1477,278.5C 1474.05,287.058 1470.05,295.058 1465,302.5C 1456.34,311.29 1446.51,312.79 1435.5,307C 1427.28,299.409 1421.45,290.242 1418,279.5C 1407.39,248.349 1396.39,217.349 1385,186.5C 1382.29,179.578 1378.46,173.411 1373.5,168C 1372.5,167.333 1371.5,167.333 1370.5,168C 1368.32,172.891 1367.16,178.057 1367,183.5C 1366.95,219.196 1366.29,254.863 1365,290.5C 1362.77,302.031 1355.93,308.697 1344.5,310.5C 1335.13,308.966 1328.96,303.633 1326,294.5C 1325.06,290.886 1324.39,287.219 1324,283.5C 1323.33,226.833 1323.33,170.167 1324,113.5C 1325.94,96.0684 1335.44,86.0684 1352.5,83.5 Z"/></g>
<g><path style="opacity:0.977" fill="#fecc00" d="M 1772.5,98.5 C 1772.5,101.167 1772.5,103.833 1772.5,106.5C 1769.86,114.127 1766.36,121.46 1762,128.5C 1749,147.5 1736,166.5 1723,185.5C 1715.41,197.672 1709.75,210.672 1706,224.5C 1705.95,246.875 1705.28,269.209 1704,291.5C 1698.66,309.59 1687.49,314.757 1670.5,307C 1666.45,303.279 1663.62,298.779 1662,293.5C 1660.72,270.875 1660.05,248.208 1660,225.5C 1656.54,211.246 1650.87,197.913 1643,185.5C 1629.33,165.5 1615.67,145.5 1602,125.5C 1597.49,118.64 1594.99,111.14 1594.5,103C 1595.53,87.3004 1603.86,80.9671 1619.5,84C 1629.93,87.0881 1638.1,93.2548 1644,102.5C 1652.91,118.669 1662.58,134.336 1673,149.5C 1681.05,157.785 1688.72,157.451 1696,148.5C 1705.75,134.672 1714.75,120.339 1723,105.5C 1727.14,99.0579 1732.31,93.5579 1738.5,89C 1747.2,83.9691 1756.2,83.3024 1765.5,87C 1769.02,90.2251 1771.35,94.0584 1772.5,98.5 Z"/></g>
<g><path style="opacity:1" fill="#030200" d="M 103.5,85.5 C 110.479,91.8123 117.146,98.479 123.5,105.5C 116.833,111.5 110.5,117.833 104.5,124.5C 97.479,118.146 90.8123,111.479 84.5,104.5C 89.8333,97.1667 96.1667,90.8333 103.5,85.5 Z"/></g>
<g><path style="opacity:0.993" fill="#030200" d="M 300.5,85.5 C 307.833,90.8333 314.167,97.1667 319.5,104.5C 313.188,111.479 306.521,118.146 299.5,124.5C 293.5,117.833 287.167,111.5 280.5,105.5C 286.854,98.479 293.521,91.8123 300.5,85.5 Z"/></g>
<g><path style="opacity:0.932" fill="#fecc00" d="M 818.5,89.5 C 857.483,86.7655 890.65,99.0989 918,126.5C 942.897,158.642 950.564,194.642 941,234.5C 926.696,281.467 895.196,308.3 846.5,315C 807.684,319.949 774.184,309.115 746,282.5C 720.706,251.064 712.039,215.397 720,175.5C 732.837,123.824 765.67,95.1578 818.5,89.5 Z M 815.5,103.5 C 852.635,99.7057 883.801,111.372 909,138.5C 931.892,170.073 936.892,204.407 924,241.5C 905.342,281.271 873.842,301.605 829.5,302.5C 785.701,301.71 755.201,281.376 738,241.5C 725.795,205.279 730.128,171.279 751,139.5C 767.954,119.275 789.454,107.275 815.5,103.5 Z M 826.5,153.5 C 857.217,155.716 873.884,172.216 876.5,203C 875.387,223.569 865.721,238.569 847.5,248C 821.512,256.583 802.346,248.75 790,224.5C 782.399,203.444 785.399,184.111 799,166.5C 806.921,159.287 816.088,154.954 826.5,153.5 Z"/></g>
<g><path style="opacity:0.919" fill="#fefffe" d="M 819.5,119.5 C 821.5,119.5 823.5,119.5 825.5,119.5C 825.5,120.833 825.5,122.167 825.5,123.5C 782.134,131.862 760.134,158.195 759.5,202.5C 758.768,226.829 767.101,247.329 784.5,264C 797.252,273.089 811.252,279.589 826.5,283.5C 826.5,284.5 826.5,285.5 826.5,286.5C 790.505,286.969 765.005,270.969 750,238.5C 740.299,210.918 741.632,183.918 754,157.5C 769.097,133.364 790.93,120.697 819.5,119.5 Z"/></g>
<g><path style="opacity:0.922" fill="#fefffe" d="M 833.5,119.5 C 886.87,122.038 915.204,149.871 918.5,203C 917.867,240.273 900.534,266.273 866.5,281C 855.862,284.995 844.862,286.829 833.5,286.5C 833.281,285.325 833.614,284.325 834.5,283.5C 882.912,269.6 905.079,237.6 901,187.5C 892.578,151.414 870.078,129.914 833.5,123C 832.316,121.855 832.316,120.688 833.5,119.5 Z"/></g>
<g><path style="opacity:1" fill="#010100" d="M 137.5,119.5 C 159.132,140.632 180.632,161.965 202,183.5C 223.333,162.167 244.667,140.833 266,119.5C 301.801,149.573 313.967,187.406 302.5,233C 295.911,254.691 283.744,272.525 266,286.5C 259.319,279.986 252.819,273.319 246.5,266.5C 276.335,242.152 285.501,211.485 274,174.5C 271.673,169.175 268.84,164.175 265.5,159.5C 244.18,180.319 223.014,201.319 202,222.5C 180.986,201.319 159.82,180.319 138.5,159.5C 120.708,186.883 119.875,214.883 136,243.5C 141.628,252.628 148.795,260.294 157.5,266.5C 151.181,273.319 144.681,279.986 138,286.5C 99.9082,253.483 88.5749,212.817 104,164.5C 111.302,146.537 122.468,131.537 137.5,119.5 Z"/></g>
<g><path style="opacity:0.933" fill="#fecc00" d="M 818.5,140.5 C 862.145,138.642 886.145,159.476 890.5,203C 889.438,229.033 877.438,248.033 854.5,260C 825.969,271.41 802.136,265.243 783,241.5C 769.028,217.162 768.361,192.495 781,167.5C 790.053,153.6 802.553,144.6 818.5,140.5 Z M 826.5,153.5 C 816.088,154.954 806.921,159.287 799,166.5C 785.399,184.111 782.399,203.444 790,224.5C 802.346,248.75 821.512,256.583 847.5,248C 865.721,238.569 875.387,223.569 876.5,203C 873.884,172.216 857.217,155.716 826.5,153.5 Z"/></g>
<g><path style="opacity:0.973" fill="#020100" d="M 105.5,320.5 C 97.3539,316.199 90.5205,310.199 85,302.5C 84.5172,301.552 84.3505,300.552 84.5,299.5C 91.4252,293.915 98.0918,287.915 104.5,281.5C 110.5,288.167 116.833,294.5 123.5,300.5C 117.085,306.908 111.085,313.575 105.5,320.5 Z"/></g>
<g><path style="opacity:0.973" fill="#020100" d="M 319.5,299.5 C 315.199,307.646 309.199,314.479 301.5,320C 300.552,320.483 299.552,320.649 298.5,320.5C 292.915,313.575 286.915,306.908 280.5,300.5C 287.167,294.5 293.5,288.167 299.5,281.5C 305.908,287.915 312.575,293.915 319.5,299.5 Z"/></g>
</svg>
