<svg viewBox="0 0 220.75 220.75" xmlns="http://www.w3.org/2000/svg" xmlns:xlink="http://www.w3.org/1999/xlink"><linearGradient id="a" gradientUnits="userSpaceOnUse" x1="177.92" x2="42.83" y1="227.36" y2="-6.62"><stop offset="0" stop-color="#b8e1fa"/><stop offset="1" stop-color="#fff" stop-opacity=".45"/></linearGradient><linearGradient id="b" gradientUnits="userSpaceOnUse" x2="220.75" y1="110.37" y2="110.37"><stop offset="0" stop-color="#fff" stop-opacity=".05"/><stop offset="1" stop-color="#fff" stop-opacity=".5"/></linearGradient><linearGradient id="c" gradientUnits="userSpaceOnUse" x1="177.92" x2="42.83" y1="227.36" y2="-6.62"><stop offset="0" stop-color="#fff" stop-opacity="0"/><stop offset="1" stop-color="#fff" stop-opacity=".45"/></linearGradient><linearGradient id="d" gradientUnits="userSpaceOnUse" x1="112.44" x2="112.44" y1="44.37" y2="184.38"><stop offset="0" stop-color="#59b3fb"/><stop offset=".28" stop-color="#57aff5"/><stop offset=".67" stop-color="#53a2e3"/><stop offset="1" stop-color="#4e94ce"/></linearGradient><rect fill="url(#a)" height="220" rx="41.48" stroke="url(#b)" stroke-miterlimit="10" stroke-width=".75" width="220" x=".37" y=".37"/><rect fill="url(#c)" height="220" rx="41.48" stroke="url(#b)" stroke-miterlimit="10" stroke-width=".75" width="220" x=".37" y=".37"/><path d="m168.07 44.39a15.24 15.24 0 0 0 -14.85 21.51 1.44 1.44 0 0 1 -.38 1.88q-11.67 11.63-23.29 23.3a1.17 1.17 0 0 1 -1.8.2 20.07 20.07 0 0 0 -23-.1c-.87.58-1.3.54-2-.18q-8.75-8.85-17.57-17.6a1.58 1.58 0 0 1 -.44-2.08 10.13 10.13 0 0 0 -11.25-14 9.61 9.61 0 0 0 -7.91 7.75 9.51 9.51 0 0 0 3.26 9.85 9.67 9.67 0 0 0 10.84 1.55 1.29 1.29 0 0 1 1.73.34q8.86 8.91 17.79 17.77c.75.74.71 1.2.16 2a20.14 20.14 0 0 0 0 22.85c.63.91.43 1.31-.24 2q-15.12 15.13-30.2 30.29c-.75.75-1.16.86-2.06.17-8.55-6.56-20.75-2.25-23.94 8a20.1 20.1 0 0 0 -.05 7.88c1.41 6.94 8.53 12 16.48 11.37 6.77-.51 12.57-6.32 13.44-13.38a14.83 14.83 0 0 0 -1.33-8.23 1.12 1.12 0 0 1 .26-1.52q15.68-15.59 31.28-31.27a.93.93 0 0 1 1.47-.11 18.55 18.55 0 0 0 8.25 3.4c.77.11 1 .45 1 1.16v23.91c0 1-.62 1-1.27 1.21-6 1.73-9.83 5.63-11.18 11.7a15.18 15.18 0 0 0 12.42 18.13 2.42 2.42 0 0 1 .61.24h4.1c.16-.3.46-.23.72-.29a15.26 15.26 0 0 0 .84-29.78c-.67-.17-1.26-.23-1.26-1.23 0-8 0-16 0-23.92 0-.75.25-1 1-1.13a18.51 18.51 0 0 0 8-3.27c.76-.54 1.15-.51 1.79.14q8.85 8.92 17.79 17.79a1.48 1.48 0 0 1 .35 2 10.19 10.19 0 0 0 9.49 14.25 10.39 10.39 0 0 0 9.24-6.4 10.2 10.2 0 0 0 -2.36-11.1 10.07 10.07 0 0 0 -11.26-1.93 1.28 1.28 0 0 1 -1.75-.31q-9-9-18-18c-.55-.55-.64-.87-.15-1.56a20.16 20.16 0 0 0 .08-23.2c-.5-.74-.51-1.13.14-1.78q11.46-11.37 22.82-22.81c.66-.66 1.06-.83 1.89-.19a15 15 0 0 0 11.54 3.06 15.27 15.27 0 0 0 -1.25-30.35zm-92.64 27.91a5 5 0 0 1 -5.05-5 5.17 5.17 0 0 1 5.11-5.14 5.34 5.34 0 0 1 5.11 5c.09 2.26-2.94 5.55-5.17 5.14zm-15.87 101.61a10.68 10.68 0 0 1 -1.11.18 8.27 8.27 0 0 1 -1.65 0 6.9 6.9 0 0 1 -1.65-.33 9.59 9.59 0 0 1 -6.48-5 10.34 10.34 0 0 1 -1.14-5.08c.16-4.72 3.59-8.81 7.92-9.43v.05c0-.16.07-.21.18-.21h.11c.32-.05.63-.09 1-.12s.63-.05.95-.05a8.2 8.2 0 0 1 1.9.21 10 10 0 0 1 6.41 4.1 10.15 10.15 0 0 1 1.8 5.77 10 10 0 0 1 -8.24 9.91zm97.35-30.26a5 5 0 0 1 5 5.14 4.88 4.88 0 0 1 -5 5 5.11 5.11 0 0 1 -5.13-5.08 5.57 5.57 0 0 1 5.13-5.06zm-32 20.3a11 11 0 0 1 1.36 3.76 10.19 10.19 0 0 1 -5 10.14 6.57 6.57 0 0 1 -3.18 1.08 5.19 5.19 0 0 1 -2.23.29l-1.36-.12a11.07 11.07 0 0 1 -3.34-1.2c-.25-.14-.5-.29-.73-.45a9.87 9.87 0 0 1 -4.4-7.8 10.07 10.07 0 0 1 7.53-10.36 7.58 7.58 0 0 1 .94-.13 6.24 6.24 0 0 1 3.8.14 9.43 9.43 0 0 1 6.61 4.7zm-2.83-41.87a6.73 6.73 0 0 1 -1.18.27 12.92 12.92 0 0 1 -2.39.7 14 14 0 0 1 -7.19-.67 15.14 15.14 0 0 1 -5.94-3.53 13.93 13.93 0 0 1 -2.76-3.85 17.59 17.59 0 0 1 -1.34-3.82 15.17 15.17 0 0 1 9.39-17.39 9.46 9.46 0 0 1 .91-.26 16.46 16.46 0 0 1 3.71-.77h1.23s.82 0 1.23.08a11.55 11.55 0 0 1 3.64 1.07 7.57 7.57 0 0 1 2.4.82 10.54 10.54 0 0 1 1.38.9 18.23 18.23 0 0 1 1.83 1.63 15 15 0 0 1 4.48 10.94 15.39 15.39 0 0 1 -9.4 13.88zm47.67-52.67a2.37 2.37 0 0 1 -.53 0 6.62 6.62 0 0 1 -2.85.33 5.55 5.55 0 0 1 -1-.2 9.34 9.34 0 0 1 -2.52-.71 10.47 10.47 0 0 1 -1.5-.84 10.23 10.23 0 0 1 -4.35-8.14 10.1 10.1 0 0 1 8.46-10.18q.45-.08.9-.12a6.35 6.35 0 0 1 2.7.24 9.27 9.27 0 0 1 5.55 3 10.51 10.51 0 0 1 1 1.29 9.22 9.22 0 0 1 1.63 4.47 10.18 10.18 0 0 1 -7.49 10.86z" fill="url(#d)"/><g fill="#d2e4f6"><path d="m121.83 95a1.45 1.45 0 0 1 -.44-1.1 11.62 11.62 0 0 0 -3.64-1.07c-.41 0-.82-.07-1.23-.08s-.82 0-1.23 0a16.46 16.46 0 0 0 -3.71.77c-.49 1.36-1.73 2.16-2.44 3.38a21.37 21.37 0 0 0 -1.82 18.3 15.38 15.38 0 0 0 3.24 5.76 2.24 2.24 0 0 1 .76 1.41 14 14 0 0 0 7.19.67 12.92 12.92 0 0 0 2.39-.7 22.18 22.18 0 0 0 4-6.56c2.56-7.46 1.9-14.46-3.07-20.78z"/><path d="m116.52 92.72c.41 0 .82 0 1.23.08-.41-.04-.82-.07-1.23-.08z"/><path d="m121.39 93.87a11.55 11.55 0 0 0 -3.64-1.07 11.62 11.62 0 0 1 3.64 1.07z"/><path d="m59.87 154.7a4.25 4.25 0 0 1 -.31-.6 8.2 8.2 0 0 0 -1.9-.21c-.32 0-.63 0-.95.05s-.63.07-1 .12l-.29.22v-.05c.06.75-.54 1.22-.84 1.81a16.79 16.79 0 0 0 .42 16.62c.17.33.83.63.18 1.12a6.9 6.9 0 0 0 1.65.33 8.27 8.27 0 0 0 1.65 0 10.68 10.68 0 0 0 1.11-.18 17.57 17.57 0 0 0 2.83-6.67c.58-4.52.17-8.76-2.55-12.56z"/><path d="m59.56 154.1a8.2 8.2 0 0 0 -1.9-.21 8.2 8.2 0 0 1 1.9.21z"/><path d="m55.47 154.28-.02-.05z"/><path d="m169 49.79a6.35 6.35 0 0 0 -2.7-.24q-.45 0-.9.12c-.08 1.06-1 1.7-1.37 2.6a16.62 16.62 0 0 0 .87 16.23c.21.34.56.62.51 1.08a5.55 5.55 0 0 0 1 .2 6.62 6.62 0 0 0 2.85-.33 24.71 24.71 0 0 0 2.56-6.11 16.94 16.94 0 0 0 -2.82-13.55z"/><path d="m120.05 162.66c-.41-1.21-1.43-2.09-1.7-3.36a6.24 6.24 0 0 0 -3.8-.14c-.8 1.71-2 3.24-2.43 5.12-1.07 4.85-1 9.55 2 13.83a5.17 5.17 0 0 1 .42 1l1.36.12a5.19 5.19 0 0 0 2.23-.29c3.5-5.1 3.87-10.54 1.92-16.28z"/><path d="m114.55 179.1 1.36.12z"/><path d="m118.35 159.3a6.24 6.24 0 0 0 -3.8-.14 6.24 6.24 0 0 1 3.8.14z"/></g><path d="m110.56 121a15.38 15.38 0 0 1 -3.24-5.76 21.37 21.37 0 0 1 1.82-18.3c.71-1.22 2-2 2.44-3.38a9.46 9.46 0 0 0 -.91.26 15.17 15.17 0 0 0 -9.39 17.39 17.59 17.59 0 0 0 1.34 3.82 13.93 13.93 0 0 0 2.76 3.85 15.26 15.26 0 0 0 5.94 3.53 2.24 2.24 0 0 0 -.76-1.41z" fill="#e3f0fd"/><path d="m103.57 116.66a13.48 13.48 0 0 1 -.95-1.66 13.48 13.48 0 0 0 .95 1.66z" fill="#e3f0fd"/><path d="m105.38 118.85a13.6 13.6 0 0 1 -1.81-2.19 13.6 13.6 0 0 0 1.81 2.19z" fill="#e3f0fd"/><path d="m125.17 95.59a10.54 10.54 0 0 0 -1.38-.9 7.57 7.57 0 0 0 -2.4-.82 1.45 1.45 0 0 0 .44 1.1c5 6.35 5.63 13.35 3.11 20.82a22.18 22.18 0 0 1 -4 6.56 6.73 6.73 0 0 0 1.18-.27 15.39 15.39 0 0 0 9.41-13.88 15 15 0 0 0 -4.53-10.94 18.23 18.23 0 0 0 -1.83-1.67z" fill="#a1cff7"/><path d="m123.79 94.69a7.57 7.57 0 0 0 -2.4-.82 7.57 7.57 0 0 1 2.4.82z" fill="#a1cff7"/><path d="m123.79 94.69a10.54 10.54 0 0 1 1.38.9 10.54 10.54 0 0 0 -1.38-.9z" fill="#a1cff7"/><g fill="#e3f0fd"><path d="m114.13 178.11c-3-4.28-3.08-9-2-13.83.41-1.88 1.63-3.41 2.43-5.12a7.58 7.58 0 0 0 -.94.13 10.07 10.07 0 0 0 -7.53 10.36 9.87 9.87 0 0 0 4.4 7.8c.23.16.48.31.73.45a11.07 11.07 0 0 0 3.34 1.2 5.17 5.17 0 0 0 -.43-.99z"/><path d="m110.48 177.45a9.82 9.82 0 0 1 -1.32-1 9.82 9.82 0 0 0 1.32 1z"/><path d="m111.21 177.9a11.07 11.07 0 0 0 3.34 1.2 11.07 11.07 0 0 1 -3.34-1.2z"/><path d="m164.91 68.5a16.62 16.62 0 0 1 -.91-16.23c.41-.9 1.29-1.54 1.37-2.6a10.1 10.1 0 0 0 -8.37 10.18 10.23 10.23 0 0 0 4.4 8.15 10.47 10.47 0 0 0 1.5.84 9.34 9.34 0 0 0 2.52.71c.05-.43-.3-.71-.51-1.05z"/><path d="m55.15 173.78c.65-.49 0-.79-.18-1.12a16.79 16.79 0 0 1 -.36-16.66c.3-.59.9-1.06.84-1.81-4.33.62-7.76 4.71-7.92 9.43a10.34 10.34 0 0 0 1.14 5.08 9.59 9.59 0 0 0 6.48 5.08z"/></g><path d="m59.56 154.1a4.25 4.25 0 0 0 .31.6c2.72 3.8 3.17 8 2.52 12.54a17.57 17.57 0 0 1 -2.83 6.67 10 10 0 0 0 8.24-9.91 10.15 10.15 0 0 0 -1.8-5.77 10 10 0 0 0 -6.44-4.13z" fill="#a1cff7"/><path d="m66 158.23a10 10 0 0 0 -6.41-4.13 10 10 0 0 1 6.41 4.13z" fill="#a1cff7"/><path d="m118.35 159.3c.27 1.27 1.29 2.15 1.7 3.36 2 5.74 1.58 11.18-1.91 16.27a6.57 6.57 0 0 0 3.18-1.08 10.19 10.19 0 0 0 5-10.14 11 11 0 0 0 -1.36-3.76 9.43 9.43 0 0 0 -6.61-4.65z" fill="#a1cff7"/><path d="m118.35 159.3a9.43 9.43 0 0 1 6.56 4.65 9.43 9.43 0 0 0 -6.56-4.65z" fill="#a1cff7"/><path d="m75.49 62.17a5.17 5.17 0 0 0 -5.11 5.14 5 5 0 0 0 5.05 5c2.23.41 5.26-2.88 5.17-5.08a5.34 5.34 0 0 0 -5.11-5.06z" fill="#d2e4f6"/><path d="m156.94 153.77a4.88 4.88 0 0 0 5-5 5 5 0 0 0 -5-5.14 5.57 5.57 0 0 0 -5.1 5 5.11 5.11 0 0 0 5.1 5.14z" fill="#d2e4f6"/><path d="m175.58 54.12a10.51 10.51 0 0 0 -1-1.29 9.27 9.27 0 0 0 -5.55-3 16.94 16.94 0 0 1 2.77 13.55 24.71 24.71 0 0 1 -2.56 6.11 2.37 2.37 0 0 0 .53 0 10.18 10.18 0 0 0 7.46-10.82 9.22 9.22 0 0 0 -1.65-4.55z" fill="#a1cff7"/><path d="m55.47 154.28.29-.22h-.11c-.11.01-.19.06-.18.22z" fill="#e3f0fd"/><path d="m55.65 154.07c-.11 0-.19.05-.18.21-.01-.16.07-.21.18-.21z" fill="#e3f0fd"/></svg>