<svg viewBox="0 0 220.75 220.75" xmlns="http://www.w3.org/2000/svg" xmlns:xlink="http://www.w3.org/1999/xlink"><linearGradient id="a" gradientUnits="userSpaceOnUse" x1="177.92" x2="42.83" y1="227.36" y2="-6.62"><stop offset="0" stop-color="#b8e1fa"/><stop offset="1" stop-color="#fff" stop-opacity=".45"/></linearGradient><linearGradient id="b" gradientUnits="userSpaceOnUse" x2="220.75" y1="110.37" y2="110.37"><stop offset="0" stop-color="#fff" stop-opacity=".05"/><stop offset="1" stop-color="#fff" stop-opacity=".5"/></linearGradient><linearGradient id="c" gradientUnits="userSpaceOnUse" x1="177.92" x2="42.83" y1="227.36" y2="-6.62"><stop offset="0" stop-color="#fff" stop-opacity="0"/><stop offset="1" stop-color="#fff" stop-opacity=".45"/></linearGradient><linearGradient id="d" gradientUnits="userSpaceOnUse" x1="71.82" x2="75.89" y1="165.56" y2="172.6"><stop offset="0" stop-color="#59b3fb"/><stop offset=".28" stop-color="#57aff5"/><stop offset=".67" stop-color="#53a2e3"/><stop offset="1" stop-color="#4e94ce"/></linearGradient><linearGradient id="e" x1="62.2" x2="64.52" xlink:href="#d" y1="167.11" y2="171.13"/><linearGradient id="f" x1="55.22" x2="57.54" xlink:href="#d" y1="167.09" y2="171.11"/><linearGradient id="g" x1="125.27" x2="163.88" xlink:href="#d" y1="50.81" y2="117.68"/><linearGradient id="h" x1="103.77" x2="105.41" xlink:href="#d" y1="63.97" y2="66.83"/><linearGradient id="i" x1="67.05" x2="73.61" xlink:href="#d" y1="88.88" y2="100.24"/><linearGradient id="j" x1="140.1" x2="147.47" xlink:href="#d" y1="79.19" y2="91.97"/><linearGradient id="k" x1="79.33" x2="153.13" xlink:href="#d" y1="57.14" y2="184.95"/><linearGradient id="l" x1="48.25" x2="50.58" xlink:href="#d" y1="89.25" y2="93.28"/><linearGradient id="m" x1="61.31" x2="65.33" xlink:href="#d" y1="84.07" y2="91.03"/><rect fill="url(#a)" height="220" rx="41.48" stroke="url(#b)" stroke-miterlimit="10" stroke-width=".75" width="220" x=".37" y=".37"/><rect fill="url(#c)" height="220" rx="41.48" stroke="url(#b)" stroke-miterlimit="10" stroke-width=".75" width="220" x=".37" y=".37"/><path d="m130.81 128.28c3.9 1.85 6.68 4.54 11 5.26 5.95 1 5.78-2 11.6-3.63.34-.1.7-.16 1.05-.23v27.7c-.41 0-.81.06-1.22.06h-95.83c-.36 0-.72 0-1.09-.05q0-24.15 0-48.31c0-.56-.25-1.2.31-1.67 1.66 1.46 2.65 1.48 4.1 0l22.5-22.41c1.33-1.33 1.46-2.64.43-3.7s-2.41-1-3.71.34q-11.69 11.64-23.33 23.36c-.31-.22-.29-.54-.29-.86v-9.71c0-.36 0-.74.34-1 1.69 1.46 2.62 1.43 4.21-.14q1.8-1.77 3.58-3.56l5.11-5.12a2.35 2.35 0 0 0 .53-2.76 2.16 2.16 0 0 0 -2.19-1.34 3 3 0 0 0 -2 1.08l-9.18 9.15a.64.64 0 0 1 -.41-.64c.12-3.22-.24-6.44.22-9.65a10.35 10.35 0 0 1 2.19-4.57 9.91 9.91 0 0 1 1.08-.12h38c.36 0 4.73-2.11 5.09-2.08-.17 1.16 2.49 4.49 2.43 5.66-.42 7.63 1.2 24.25 5 31 4.13 7.29 10 13.68 17.6 17.15.9.43 1.77 1.18 2.88.79z" fill="#e1edff"/><path d="m153.61 178.19a4.17 4.17 0 0 1 -2 .26h-92.61c-.53 0-1.07-.09-1.61-.14-.12-.19-.19-.43-.36-.55a13.62 13.62 0 0 1 -5-7.88c-.64-2.54-.32-5.15-.4-7.72l15.56-.06h15.84c1 0 1.33.21 1.43 1.26a9 9 0 0 0 8.59 8q12.22.12 24.44 0a9 9 0 0 0 8.72-8.22c.09-.81.31-1.07 1.13-1.07h31.27a2.87 2.87 0 0 1 .41 0v3c0 4.06-.83 7.79-3.65 11-.54.71-1.66 1-1.76 2.12zm-79.76-6.79h3.54a2.34 2.34 0 0 0 2.3-2.07 2.23 2.23 0 0 0 -2-2.49c-2.53-.13-5.07-.13-7.61 0a2.23 2.23 0 0 0 -2 2.47 2.19 2.19 0 0 0 2.23 2.1c1.18.03 2.36-.01 3.54-.01zm-17.47-4.64a2.28 2.28 0 0 0 -2.27 2.39 2.16 2.16 0 0 0 2.36 2.24 2.3 2.3 0 0 0 2.27-2.26 2.45 2.45 0 0 0 -2.36-2.37zm9.28 2.31a2.31 2.31 0 0 0 -2.36-2.31 2.46 2.46 0 0 0 -2.3 2.32 2.29 2.29 0 0 0 2.35 2.31 2.17 2.17 0 0 0 2.31-2.32z" fill="#d2e6fb"/><path d="m154.42 157.38q0-18.3 0-36.6c1.18-.48 2.36-.92 3.52-1.43.91-.41 1.1 0 1.1.8v11.48 24.45c0 1.07-.27 1.47-1.36 1.37s-2.17-.05-3.26-.07z" fill="#bbdafb"/><path d="m105.4 162.1h15c1.28 0 1.45.26 1 1.44a4.42 4.42 0 0 1 -4.32 3.14q-11.66 0-23.32 0a4.48 4.48 0 0 1 -4.46-3.12c-.43-1.32-.3-1.51 1.08-1.52h15z" fill="#a1cff7"/><path d="m153.61 178.19c.1-1.12 1.22-1.41 1.82-2.08 2.82-3.16 3.68-6.89 3.65-11 0-1 0-2 0-3l3.81-.07c.45 0 .81.06.82.64.09 3.88.21 7.78-2.41 11.06a10.53 10.53 0 0 1 -7.69 4.45z" fill="#bbdafb"/><path d="m51.67 162.16c.08 2.57-.24 5.18.4 7.72a13.62 13.62 0 0 0 5 7.88c.17.12.24.36.36.55a11.61 11.61 0 0 1 -10.36-11.48c0-1.27 0-2.55 0-3.82 0-.73.25-.95 1-.92 1.15.05 2.37.05 3.6.07z" fill="#fefefe"/><g fill="none"><path d="m93.77 166.72q11.66 0 23.32 0a4.43 4.43 0 0 0 4.32-3.14c.44-1.18.27-1.44-1-1.44h-15-15c-1.38 0-1.51.2-1.08 1.52a4.48 4.48 0 0 0 4.44 3.06z"/><path d="m144.21 47.54a.64.64 0 0 0 .14.32v11.91c0-4 0-7.94 0-11.91a.64.64 0 0 1 -.14-.32z"/><path d="m141 59.73c0-1.93 0-3.87 0-5.81-.06 1.94-.08 3.88 0 5.81z"/><path d="m140.11 130.81h.24z"/><path d="m158.65 162.11c-10.42 0-20.85 0-31.27 0-.82 0-1 .26-1.13 1.07a9 9 0 0 1 -8.72 8.22q-12.21.1-24.44 0a9 9 0 0 1 -8.59-8c-.1-1.05-.47-1.26-1.43-1.26-5.28.05-10.56 0-15.84 0l-15.56.06c-1.23 0-2.45 0-3.68-.07-.7 0-1 .19-1 .92v3.82a11.61 11.61 0 0 0 10.36 11.48c.54.05 1.07.14 1.61.14h92.64a4.17 4.17 0 0 0 2-.26 10.53 10.53 0 0 0 7.67-4.4c2.62-3.28 2.5-7.18 2.41-11.06 0-.58-.37-.65-.82-.64l-3.81.07a2.87 2.87 0 0 0 -.4-.09z"/><path d="m142.76 131.54a1.53 1.53 0 0 1 -.37 0 1.53 1.53 0 0 0 .37 0z"/><path d="m139.79 130.65.02-.03z"/><path d="m141.48 131.35-.17-.07z"/><path d="m122.62 120a42.58 42.58 0 0 1 -8.07-9.22 38 38 0 0 1 -7.8-11.11 32 32 0 0 0 7.62 14.8c5.71 6.57 12.92 11 20.85 14.39.82.36 1.68.65 2.52 1a2.09 2.09 0 0 1 .22-.2 61.85 61.85 0 0 1 -15.34-9.66z"/></g><path d="m173.32 55.44c2.08 1.06 2.88 2.67 2.27 5.39a8.48 8.48 0 0 1 .17 1.58v1.59q0 15 0 29.92a24.8 24.8 0 0 1 -1.32 8.23c.35.33.09.66 0 1a35.94 35.94 0 0 1 -7 12.11 47.44 47.44 0 0 1 -3.76 3.87v2.06a44 44 0 0 0 10.05-10.32c3.16-4.65 5.24-9.74 5.3-15.39.13-12 0-24.09 0-36.14a2.37 2.37 0 0 0 -1.44-2.3c-1.24-.62-2.45-1.29-3.68-1.93l-16.23-8.42c-1.61-.83-3.19-1.7-4.79-2.54-3.31-1.73-6.63-3.44-10-5.16.11.25-.11.37-.22.54l17.72 9.24c4.37 2.23 8.61 4.47 12.93 6.67z" fill="#84c3f8"/><path d="m157.74 123.89a63 63 0 0 1 -9.22 5.25c-.32.15-.78.2-.87.68h.2.18a79.41 79.41 0 0 0 11-5.44v-1.39c-.42.26-.84.59-1.29.9z" fill="#84c3f8"/><path d="m159.05 122.92v1.39c1.28-.78 2.54-1.61 3.76-2.49l.86-.65v-2.06a54.32 54.32 0 0 1 -4.62 3.81z" fill="#84c3f8"/><path d="m147.65 129.82h.2z" fill="#84c3f8"/><path d="m143 39c3.32 1.72 6.64 3.43 10 5.16-3.38-1.76-6.7-3.47-10-5.16z" fill="#84c3f8"/><path d="m175.59 60.83a8.48 8.48 0 0 1 .17 1.58 8.48 8.48 0 0 0 -.17-1.58z" fill="#84c3f8"/><g fill="#a1cff7"><path d="m112 58.49c1.62-.79 3.19-1.69 4.79-2.53q12-6.24 23.94-12.49a3.77 3.77 0 0 1 3.84 0c4.44 2.36 8.91 4.67 13.37 7l15.37 8a6.17 6.17 0 0 1 1.39.94 3.16 3.16 0 0 1 .9 1.42c.61-2.72-.19-4.33-2.27-5.39-4.29-2.2-8.56-4.46-12.84-6.69l-17.72-9.24c-3.19 1.48-6.25 3.19-9.36 4.82l-21.94 11.45a3.78 3.78 0 0 0 -1.78 4.68 5.51 5.51 0 0 1 2.31-1.97z"/><path d="m174.69 59.41a3.16 3.16 0 0 1 .9 1.42 3.16 3.16 0 0 0 -.9-1.42z"/><path d="m174.44 102.15c0 .09-.05.19-.08.28a35.32 35.32 0 0 1 -10.81 14.5c-.52.43-1 .86-1.57 1.28-.95.75-1.94 1.44-2.93 2.11a67.58 67.58 0 0 1 -14.85 7.35 4.44 4.44 0 0 1 -3.13 0 64.33 64.33 0 0 1 -18-9.64c-1.1-.87-2.16-1.78-3.17-2.72-.28-.19-.56-.37-.83-.58a41.74 41.74 0 0 1 -4.52-3.91 42.58 42.58 0 0 0 8.07 9.22 61.85 61.85 0 0 0 15.38 9.64c.6.34 1.37.35 1.83 1a.57.57 0 0 1 .54.22l1 .44.17.07a2.93 2.93 0 0 0 .91.21 1.53 1.53 0 0 0 .37 0 1.86 1.86 0 0 0 .39-.1l4.5-1.62c.09-.48.55-.53.87-.68a63 63 0 0 0 9.22-5.25c.45-.31.87-.65 1.31-1a54.32 54.32 0 0 0 4.62-3.81 47.44 47.44 0 0 0 3.76-3.87 35.94 35.94 0 0 0 7-12.11c.04-.37.3-.7-.05-1.03z"/><path d="m119.07 114.73c.27.21.55.39.83.58a34.77 34.77 0 0 1 -8.8-12.31l-.06-.16a.49.49 0 0 0 -.3-.37 11.65 11.65 0 0 0 1.19 3.54 34.88 34.88 0 0 0 2.62 4.82 41.74 41.74 0 0 0 4.52 3.9z"/><path d="m140.35 130.84 1 .44z"/><path d="m142.39 131.56a2.93 2.93 0 0 1 -.91-.21 2.93 2.93 0 0 0 .91.21z"/><path d="m147.65 129.82-4.5 1.62z"/></g><path d="m139.81 130.62a.43.43 0 0 0 .11.12l.19.07h.24a.57.57 0 0 0 -.54-.19z" fill="#d2e3fb"/><path d="m128.5 69.1a20.89 20.89 0 0 0 -7 19.86 21.46 21.46 0 0 0 20.58 17.81 19.4 19.4 0 0 0 6.75-1 14.48 14.48 0 0 1 2.69-2 23.11 23.11 0 0 0 8.75-13.69 22.59 22.59 0 0 0 -1.46-14.22 24.33 24.33 0 0 0 -4.47-6.72 23.14 23.14 0 0 0 -4.91-3.88c-.24-.15-.56-.2-.6-.56a20.89 20.89 0 0 0 -6.25-1 19.32 19.32 0 0 0 -2.14.12 20.55 20.55 0 0 0 -11.94 5.28zm18.88 6.09a5 5 0 0 1 8.29 2.11 4.62 4.62 0 0 1 -1.11 4.7q-6.8 6.84-13.63 13.62a4.8 4.8 0 0 1 -6.5 0c-1.22-1.16-2.39-2.36-3.57-3.55a4.77 4.77 0 0 1 -1-5.53 4.85 4.85 0 0 1 4.79-2.82 3.58 3.58 0 0 1 2.18.64 1.09 1.09 0 0 0 1.64-.22q4.42-4.54 8.91-8.95z" fill="#a1cff7"/><path d="m148.82 64.75a20.89 20.89 0 0 0 -6.25-1 20.89 20.89 0 0 1 6.25 1z" fill="#a1cff7"/><path d="m140.94 123.19v-.76a41.06 41.06 0 0 1 -5-.51c1.42.66 2.85 1.29 4.32 1.88.74.28.68-.08.68-.61z" fill="#d2e3fb"/><path d="m140.93 111.47c0-1.44.3-1.58-1.47-1.61a8.13 8.13 0 0 1 -.86-.15 24.74 24.74 0 0 1 1.55-49.06c.63-.07.81-.32.8-.92 0-1.93 0-3.87 0-5.81v-5.62c0-1.18 0-1.18-1.07-.63-8.78 4.58-17.55 9.18-26.35 13.73-.67.35-.7.81-.7 1.41q0 15.94 0 31.88a18.77 18.77 0 0 0 .25 3.18 22.27 22.27 0 0 0 3.25 8.21 32.43 32.43 0 0 0 3.57 4.6 49.83 49.83 0 0 0 16 11.25 43.09 43.09 0 0 0 5 .5v-5.32c.04-1.88.04-3.76.03-5.64z" fill="#d2e3fb"/><path d="m144.34 122.43v1.21a15.89 15.89 0 0 0 3.51-1.53c-1.17.16-2.34.27-3.51.32z" fill="#d2e3fb"/><path d="m169 62.08a2.08 2.08 0 0 0 -1.33-2.1c-5.39-2.75-10.77-5.56-16.14-8.35l-7.19-3.77v11.91c0 .63.24.82.84.87a23.36 23.36 0 0 1 15 7.07c6.77 7 8.84 15.25 6.29 24.6a24.64 24.64 0 0 1 -21.19 17.57c-.69.05-.94.26-.93 1v6.22 5.35c1.17-.05 2.34-.16 3.51-.32.8-.43 1.58-.9 2.37-1.34a46.8 46.8 0 0 0 7.66-5.33c.8-.7 1.59-1.42 2.34-2.17 4.37-4.37 7.71-9.38 8.74-15.65a6.25 6.25 0 0 0 0-1q.03-17.27.03-34.56z" fill="#d2e3fb"/><path d="m144.34 123.64c.18.35.18.35.66.16 1.54-.6 3.06-1.24 4.55-1.94-.56.1-1.13.18-1.7.25a15.89 15.89 0 0 1 -3.51 1.53z" fill="#bbd9fb"/><path d="m151.54 51.63c5.38 2.79 10.75 5.6 16.14 8.35a2.08 2.08 0 0 1 1.33 2.1q0 17.3 0 34.57a6.25 6.25 0 0 1 0 1c-1 6.27-4.37 11.28-8.74 15.65-.75.75-1.54 1.47-2.34 2.17l3-.54a37.58 37.58 0 0 0 7.49-8 20.57 20.57 0 0 0 4.09-11.59c.07-10.91 0-21.82 0-32.73a1.16 1.16 0 0 0 -.7-1.21c-4.55-2.35-9.09-4.75-13.63-7.13s-8.8-4.6-13.21-6.89c-.18-.1-.39-.34-.59-.15a.35.35 0 0 0 -.11.3.64.64 0 0 0 .14.32z" fill="#bbd9fb"/><path d="m150.22 120.77c-.79.44-1.57.91-2.37 1.34.57-.07 1.14-.15 1.7-.25 1.28-.6 2.54-1.24 3.77-1.93a53.26 53.26 0 0 0 7.52-5l-3 .54a46.8 46.8 0 0 1 -7.62 5.3z" fill="#bbd9fb"/><path d="m149.42 65.31a23.14 23.14 0 0 1 4.91 3.88 24.33 24.33 0 0 1 4.47 6.72 22.59 22.59 0 0 1 1.46 14.22 23.11 23.11 0 0 1 -8.75 13.69 14.48 14.48 0 0 0 -2.69 2 2.38 2.38 0 0 0 .37-.06 21.58 21.58 0 0 0 14.43-25 22 22 0 0 0 -10.62-14.37 16.77 16.77 0 0 0 -4.17-1.64c.03.36.35.41.59.56z" fill="#84c3f8"/><path d="m153 66.39a16.77 16.77 0 0 0 -4.17-1.64 16.77 16.77 0 0 1 4.17 1.64z" fill="#84c3f8"/><path d="m136.26 88.13c-.21-.2-.4-.42-.62-.62a1.64 1.64 0 0 0 -2.48-.07 1.61 1.61 0 0 0 .16 2.4c1 1 2.05 2.06 3.07 3.09a1.63 1.63 0 0 0 1.32.53 1.79 1.79 0 0 0 1.41-.69l12.66-12.68c.91-.9 1-1.9.24-2.62s-1.67-.59-2.56.29c-1.2 1.18-2.38 2.37-3.56 3.56l-6.79 6.78a1.76 1.76 0 0 1 -2.85.03z" fill="#d2e3fb"/><path d="m77.7 166.84c-2.53-.13-5.07-.13-7.61 0a2.23 2.23 0 0 0 -2 2.47 2.19 2.19 0 0 0 2.23 2.1c1.18.05 2.36 0 3.54 0h3.54a2.34 2.34 0 0 0 2.3-2.07 2.23 2.23 0 0 0 -2-2.5z" fill="url(#d)"/><path d="m63.3 166.76a2.46 2.46 0 0 0 -2.3 2.32 2.29 2.29 0 0 0 2.35 2.31 2.17 2.17 0 0 0 2.28-2.32 2.31 2.31 0 0 0 -2.33-2.31z" fill="url(#e)"/><path d="m56.38 166.76a2.28 2.28 0 0 0 -2.27 2.39 2.16 2.16 0 0 0 2.36 2.24 2.3 2.3 0 0 0 2.27-2.26 2.45 2.45 0 0 0 -2.36-2.37z" fill="url(#f)"/><path d="m109.59 96a24.79 24.79 0 0 0 1.15 6.47.49.49 0 0 1 .3.37l.06.16a34.77 34.77 0 0 0 8.8 12.32c1 .94 2.07 1.85 3.17 2.72a64.33 64.33 0 0 0 18 9.64 4.44 4.44 0 0 0 3.13 0 67.58 67.58 0 0 0 14.85-7.35c1-.67 2-1.36 2.93-2.11.54-.42 1.05-.85 1.57-1.28a35.32 35.32 0 0 0 10.81-14.5c0-.09 0-.19.08-.28a24.8 24.8 0 0 0 1.32-8.23q0-15 0-29.92c0-.53 0-1.06 0-1.59a8.48 8.48 0 0 0 -.17-1.58 3.16 3.16 0 0 0 -.9-1.42 6.17 6.17 0 0 0 -1.39-.94l-15.37-8c-4.46-2.32-8.93-4.63-13.37-7a3.77 3.77 0 0 0 -3.84 0q-12 6.27-23.94 12.49c-1.6.84-3.17 1.74-4.79 2.53a5.51 5.51 0 0 0 -2.3 2 9.31 9.31 0 0 0 -.18 2.11v29c-.02 1.45-.01 2.92.08 4.39zm34.73-48.75c.2-.19.41 0 .59.15q6.61 3.44 13.21 6.89c4.54 2.38 9.08 4.78 13.63 7.13a1.16 1.16 0 0 1 .7 1.21v32.73a20.57 20.57 0 0 1 -4.09 11.59 37.58 37.58 0 0 1 -7.49 8 53.26 53.26 0 0 1 -7.52 5c-1.23.69-2.49 1.33-3.77 1.93-1.49.7-3 1.34-4.55 1.94-.48.19-.48.19-.66-.16v-1.21c0-1.78 0-3.57 0-5.35 0-2.07 0-4.15 0-6.22 0-.72.24-.93.93-1a24.64 24.64 0 0 0 21.19-17.57c2.55-9.35.48-17.65-6.29-24.6a23.36 23.36 0 0 0 -15-7.07c-.6 0-.85-.24-.84-.87 0-4 0-7.94 0-11.91a.64.64 0 0 1 -.14-.32.35.35 0 0 1 .1-.3zm4.5 17.51a16.77 16.77 0 0 1 4.18 1.63 21.51 21.51 0 0 1 6.37 32.29 21 21 0 0 1 -10.17 7 2.38 2.38 0 0 1 -.37.06 19.4 19.4 0 0 1 -6.75 1 21.46 21.46 0 0 1 -20.59-17.74 20.89 20.89 0 0 1 7-19.86 20.52 20.52 0 0 1 11.93-5.19 19.32 19.32 0 0 1 2.14-.12 20.89 20.89 0 0 1 6.26.92zm-35.3-3.35c8.8-4.55 17.57-9.15 26.35-13.73 1.06-.55 1.07-.55 1.07.63v5.62 5.81c0 .6-.17.85-.8.92a24.74 24.74 0 0 0 -1.55 49.06 8.13 8.13 0 0 0 .86.15c1.77 0 1.47.17 1.47 1.61v5.64 6.08c0 .53 0 .89-.7.61-1.47-.59-2.9-1.22-4.32-1.87a49.83 49.83 0 0 1 -16-11.25 32.43 32.43 0 0 1 -3.57-4.6 22.27 22.27 0 0 1 -3.25-8.21 18.77 18.77 0 0 1 -.25-3.18q0-15.94 0-31.88c-.01-.61.02-1.07.69-1.42z" fill="url(#g)"/><path d="m106.21 65.38a1.6 1.6 0 0 0 -1.66-1.63 1.67 1.67 0 0 0 -1.62 1.61 1.69 1.69 0 0 0 1.64 1.64 1.6 1.6 0 0 0 1.64-1.62z" fill="url(#h)"/><path d="m56.65 107.41c1.66 1.46 2.65 1.48 4.1 0l22.48-22.41c1.33-1.33 1.46-2.64.43-3.7s-2.41-1-3.71.34q-11.69 11.62-23.33 23.36a3.16 3.16 0 0 0 .03 2.41z" fill="url(#i)"/><path d="m136.84 84.32a3.58 3.58 0 0 0 -2.18-.64 4.85 4.85 0 0 0 -4.79 2.82 4.77 4.77 0 0 0 1 5.53c1.18 1.19 2.35 2.39 3.56 3.55a4.81 4.81 0 0 0 6.51 0q6.84-6.78 13.63-13.62a4.62 4.62 0 0 0 1.11-4.67 5 5 0 0 0 -8.29-2.11q-4.49 4.41-8.9 8.91a1.09 1.09 0 0 1 -1.65.23zm9.06-3c1.18-1.19 2.36-2.38 3.56-3.56.89-.88 1.84-1 2.56-.29s.67 1.72-.24 2.62l-12.66 12.68a1.79 1.79 0 0 1 -1.41.69 1.63 1.63 0 0 1 -1.32-.53c-1-1-2.06-2-3.07-3.09a1.61 1.61 0 0 1 -.16-2.4 1.64 1.64 0 0 1 2.48.07c.22.2.41.42.62.62a1.76 1.76 0 0 0 2.85 0z" fill="url(#j)"/><path d="m182.35 59.35a5.44 5.44 0 0 0 -3.21-5.28c-6.44-3.33-12.85-6.74-19.3-10.07-5.42-2.79-10.74-5.77-16.26-8.36h-1.91c-.47.2-.95.38-1.41.61l-7.37 3.85-27.11 14.17a5 5 0 0 0 -2.85 4.31 1.7 1.7 0 0 0 1.48 1.85 1.64 1.64 0 0 0 1.79-1.51 2.23 2.23 0 0 1 1.34-1.85l34.05-17.77a2.28 2.28 0 0 1 1.41-.3c3.32 1.72 6.64 3.43 10 5.16 1.6.84 3.18 1.71 4.79 2.54l16.21 8.39c1.23.64 2.44 1.31 3.68 1.93a2.37 2.37 0 0 1 1.44 2.3c0 12.05.08 24.09 0 36.14-.06 5.65-2.14 10.74-5.3 15.39a44 44 0 0 1 -10.05 10.32l-.86.65c-1.22.88-2.48 1.71-3.76 2.49a79.41 79.41 0 0 1 -11 5.44h-.18-.2l-4.5 1.62a1.86 1.86 0 0 1 -.39.1 1.53 1.53 0 0 1 -.37 0 2.93 2.93 0 0 1 -.91-.21l-.17-.07-1-.44h-.24a.62.62 0 0 1 -.19-.07.43.43 0 0 1 -.11-.12 7.16 7.16 0 0 1 -2-.77c-.84-.33-1.7-.62-2.52-1-7.93-3.38-15.14-7.82-20.85-14.39a32 32 0 0 1 -7.62-14.8 29.09 29.09 0 0 1 -.56-6.53c.12-5 .08-14.74 0-19.4a2.64 2.64 0 0 0 -2.65-2.63c-8.13 0-33.08 0-45.29 0-6.26 0-11.24 4.66-11.23 10.45a2.31 2.31 0 0 0 2.17 2.62c1.45.08 2.34-.79 2.48-2.44a6.07 6.07 0 0 1 7-5.86 9.91 9.91 0 0 1 1.08-.12h38 5.07v18.97a29 29 0 0 0 1.74 10c3 8.16 8.49 14.37 15.36 19.48a73 73 0 0 0 20.76 10.41 5.86 5.86 0 0 0 3.68 0 79.37 79.37 0 0 0 14-6.06l.57-.34v3.48 24.45c0 1.07-.28 1.47-1.37 1.37s-2.19 0-3.28-.07c-.41 0-.81.06-1.22.06h-95.8c-.36 0-.72 0-1.09-.05a29.7 29.7 0 0 0 -3 .07c-1.31.15-1.66-.27-1.66-1.61q.07-27.1 0-54.2c0-2.3-.81-3.45-2.39-3.4s-2.26 1.18-2.26 3.4q0 27.16 0 54.34c0 .85 0 1.39-1 1.64a4.69 4.69 0 0 0 -3.61 4.37v4.87a16.18 16.18 0 0 0 6.53 12.92 19.7 19.7 0 0 0 7.67 3.29h97.83c.4-.46 1-.37 1.49-.5a16.43 16.43 0 0 0 12.42-15.71c0-1.58 0-3.17 0-4.75a4.89 4.89 0 0 0 -3.72-4.56c-.8-.21-.94-.59-.94-1.35q0-15.5 0-31a48.73 48.73 0 0 0 12.09-11.59 32.79 32.79 0 0 0 6.61-20c-.13-11.4-.05-22.84-.03-34.27zm-92 102.73h15 15c1.28 0 1.45.26 1 1.44a4.43 4.43 0 0 1 -4.32 3.14q-11.66 0-23.32 0a4.48 4.48 0 0 1 -4.46-3.12c-.37-1.26-.25-1.45 1.14-1.46zm73.3.65c.09 3.88.21 7.78-2.41 11.06a10.53 10.53 0 0 1 -7.67 4.4 4.17 4.17 0 0 1 -2 .26h-92.57c-.53 0-1.07-.09-1.61-.14a11.61 11.61 0 0 1 -10.36-11.48c0-1.27 0-2.55 0-3.82 0-.73.25-.95 1-.92 1.23 0 2.46 0 3.68.07l15.56-.06h15.84c1 0 1.33.21 1.43 1.26a9 9 0 0 0 8.59 8q12.22.12 24.44 0a9 9 0 0 0 8.72-8.22c.09-.81.31-1.07 1.13-1.07h31.27a2.87 2.87 0 0 1 .41 0l3.81-.07c.41.08.77.15.78.73z" fill="url(#k)"/><path d="m51.71 91.55a2.32 2.32 0 0 0 -2.13-2.63 2.41 2.41 0 0 0 -2.49 2.18 2.33 2.33 0 0 0 2.18 2.47 2.26 2.26 0 0 0 2.44-2.02z" fill="url(#l)"/><path d="m67.91 80.55a3 3 0 0 0 -2 1.08l-9.18 9.15a2.88 2.88 0 0 0 -.08 2.69c1.69 1.46 2.62 1.43 4.21-.14q1.8-1.77 3.58-3.56l5.11-5.12a2.35 2.35 0 0 0 .53-2.76 2.16 2.16 0 0 0 -2.17-1.34z" fill="url(#m)"/><path d="m139.26 88.1a1.76 1.76 0 0 1 -2.85 0c-.2-.2-.4-.42-.61-.62a1.65 1.65 0 0 0 -2.49-.07 1.61 1.61 0 0 0 .16 2.4c1 1 2.06 2.06 3.08 3.09a1.62 1.62 0 0 0 1.32.53 1.77 1.77 0 0 0 1.4-.69l12.67-12.68c.9-.9 1-1.9.23-2.62s-1.67-.59-2.56.29c-1.19 1.18-2.37 2.37-3.56 3.56z" fill="#fefefe"/></svg>