<svg viewBox="0 0 220.75 220.75" xmlns="http://www.w3.org/2000/svg" xmlns:xlink="http://www.w3.org/1999/xlink"><linearGradient id="a" gradientUnits="userSpaceOnUse" x1="177.92" x2="42.83" y1="227.36" y2="-6.62"><stop offset="0" stop-color="#b8e1fa"/><stop offset="1" stop-color="#fff" stop-opacity=".45"/></linearGradient><linearGradient id="b" gradientUnits="userSpaceOnUse" x2="220.75" y1="110.37" y2="110.37"><stop offset="0" stop-color="#fff" stop-opacity=".05"/><stop offset="1" stop-color="#fff" stop-opacity=".5"/></linearGradient><linearGradient id="c" gradientUnits="userSpaceOnUse" x1="177.92" x2="42.83" y1="227.36" y2="-6.62"><stop offset="0" stop-color="#fff" stop-opacity="0"/><stop offset="1" stop-color="#fff" stop-opacity=".45"/></linearGradient><linearGradient id="d" gradientUnits="userSpaceOnUse" x1="111.37" x2="111.37" y1="131.68" y2="182.96"><stop offset="0" stop-color="#59b3fb"/><stop offset=".28" stop-color="#57aff5"/><stop offset=".67" stop-color="#53a2e3"/><stop offset="1" stop-color="#4e94ce"/></linearGradient><linearGradient id="e" x1="43.71" x2="43.71" xlink:href="#d" y1="157.29" y2="161.93"/><linearGradient id="f" gradientTransform="matrix(.999002 -.04466556 .04466556 .999002 -3.55 5.1)" gradientUnits="userSpaceOnUse" x1="63.62" x2="124.12" y1="77.38" y2="65.29"><stop offset="0" stop-color="#58c4ee"/><stop offset=".51" stop-color="#76e3f9"/><stop offset="1" stop-color="#6af2e7"/></linearGradient><linearGradient id="g" x1="80.11" x2="145.77" xlink:href="#d" y1="48.67" y2="114.33"/><rect fill="url(#a)" height="220" rx="41.48" stroke="url(#b)" stroke-miterlimit="10" stroke-width=".75" width="220" x=".37" y=".37"/><rect fill="url(#c)" height="220" rx="41.48" stroke="url(#b)" stroke-miterlimit="10" stroke-width=".75" width="220" x=".37" y=".37"/><path d="m67.09 150.41h-16.4q0 13.93 0 27.86h16.37z" fill="#badafa"/><path d="m180.42 136.86c-2.81-5.66-9.83-6.9-14.93-2.64q-8.75 7.32-17.51 14.64c-.4.33-.76 1.13-1.5.24-2.17-2.62-5.08-3.53-8.38-3.52-7.43 0-14.86 0-22.29 0a3.56 3.56 0 0 1 -2.41-.71 19 19 0 0 0 -11.55-4 39.6 39.6 0 0 0 -20.47 4.83 16.74 16.74 0 0 1 -4.53 1.87c-.51.1-1.06.32-1.51-.24-1.23-1.54-2.94-1.81-4.79-1.8-7.83 0-15.67 0-23.51 0a10.41 10.41 0 0 0 -2.16.21 4.58 4.58 0 0 0 -3.49 4.63 2.22 2.22 0 0 0 1.68 2.1 1.91 1.91 0 0 0 2.48-.91c.51-1.38 1.46-1.34 2.55-1.29.86 0 1.73 0 2.59.07h16.4 1.64.82a7.32 7.32 0 0 0 .81 0c1.08-.08 1.4.28 1.39 1.37v23.48c0 3.09 0 3.09-3 3.09-.54 0-1.09 0-1.64 0h-16.46c-1.18 0-2.36 0-3.54.06-.83.05-1.11-.21-1.09-1.07 0-2.64 0-5.28 0-7.92a2.43 2.43 0 0 0 -2.25-2.72c-1.37-.05-2.39 1.08-2.4 2.73v8.87a4.64 4.64 0 0 0 2.52 4.23c.27.15.63.18.76.52h28.17a7.17 7.17 0 0 0 2.7-2c.46-.63 1.18-.37 1.78-.37 20.73 0 41.45-.09 62.17.05a14.72 14.72 0 0 0 11.51-4.8c8.86-9.23 17.88-18.31 26.9-27.4a16.48 16.48 0 0 0 3.49-5.41v-3.83c-.31-.79-.58-1.6-.95-2.36zm-76.17 9c-1-.07-2-.22-3.06-.27 1.01.05 2.04.2 3.06.27zm70.75-1.18-21.23 21.72c-2.46 2.51-4.89 5-7.34 7.56a6.38 6.38 0 0 1 -5.52 2.11c-.55 0-1.09.06-1.64.06q-30.62 0-61.23 0c-1.43 0-1.7-.41-1.69-1.75.07-6.83.05-13.66 0-20.48 0-1 .13-1.45 1.25-1.61a15.79 15.79 0 0 0 5.58-2.15 35.47 35.47 0 0 1 17-4.55h1c1 .06 2 .2 3.06.28a10.58 10.58 0 0 1 5.27 2.07c1.55.89 2.89 2.25 4.83 2.34.59 0 1.17.09 1.76.1h20c.59 0 1.18 0 1.77.07 1.35-.1 2.7-.22 3.84.75a4.54 4.54 0 0 1 2.17 4.78 4.64 4.64 0 0 1 -3.7 3.59 13.14 13.14 0 0 1 -2.17.17c-7.74 0-15.48 0-23.22 0-.41 0-.82 0-1.23 0a2.31 2.31 0 0 0 -.56 4.52 5.44 5.44 0 0 0 1.62.16h23.76c6 0 9.59-3.19 10.29-9.08a2.37 2.37 0 0 1 .93-1.71l18.85-15.85.5-.41a3.56 3.56 0 0 1 1.72-.86 7.51 7.51 0 0 1 .91-.11h.63a4.44 4.44 0 0 1 2.35.61 4.31 4.31 0 0 1 1.5 1.63 4.9 4.9 0 0 1 .64 2.32 5.2 5.2 0 0 1 -1.7 3.72z" fill="url(#d)"/><path d="m172.24 136.45c-.2 0-.41 0-.63 0z" fill="#3f719f"/><path d="m153.77 166.23c-2.46 2.5-4.89 5-7.34 7.52a6.43 6.43 0 0 1 -5.52 2.1 2.37 2.37 0 0 1 .25-.61 6.13 6.13 0 0 1 .65-.7q13.78-13.92 27.56-27.83c3-3.05 3.51-6.41 1.33-10.13a3.56 3.56 0 0 0 -1.72.86l-.5.41-18.85 15.85a2.37 2.37 0 0 0 -.93 1.71c-.7 5.89-4.34 9.08-10.29 9.08h-23.76a5.44 5.44 0 0 1 -1.62-.16 2.31 2.31 0 0 1 .56-4.52h1.23 23.22a13.14 13.14 0 0 0 2.17-.17 4.64 4.64 0 0 0 3.7-3.59 4.54 4.54 0 0 0 -2.17-4.78c-1.14-1-2.49-.85-3.84-.75-.59 0-1.18-.07-1.77-.07h-20c-.59 0-1.17-.08-1.76-.1-1.94-.09-3.28-1.45-4.83-2.34a10.58 10.58 0 0 0 -5.27-2.07c-1-.08-2-.22-3.06-.28-.34 0-.68 0-1 0a35.47 35.47 0 0 0 -17 4.55 15.79 15.79 0 0 1 -5.58 2.15c-1.12.16-1.26.65-1.25 1.61v20.48c0 1.34.26 1.76 1.69 1.75q30.61-.07 61.23 0c.55 0 1.09 0 1.64-.06a6.38 6.38 0 0 0 5.52-2.11c2.45-2.52 4.88-5.05 7.34-7.56l21.2-21.79a5.2 5.2 0 0 0 1.7-3.67 5.18 5.18 0 0 1 -1.7 3.63q-10.6 10.79-21.23 21.59z" fill="#e1edff"/><path d="m46 159.63a2.32 2.32 0 0 0 -4.64-.07 2.32 2.32 0 1 0 4.64.07z" fill="url(#e)"/><path d="m101.19 145.59c1 0 2 .2 3.06.27-1.02-.07-2.05-.22-3.06-.27z" fill="#3f719f"/><path d="m101.19 145.59c1 0 2 .2 3.06.27-1.02-.07-2.05-.22-3.06-.27z" fill="#e1edff"/><g fill="#badafa"><path d="m176.09 138.69a4.31 4.31 0 0 0 -1.5-1.63 4.44 4.44 0 0 0 -2.35-.61 4.44 4.44 0 0 1 2.35.61 4.3 4.3 0 0 1 1.5 1.65 4.91 4.91 0 0 1 .64 2.3 4.9 4.9 0 0 0 -.64-2.32z"/><path d="m170.7 136.58a7.51 7.51 0 0 1 .91-.11 7.51 7.51 0 0 0 -.91.11z"/><path d="m174.59 137.06a4.44 4.44 0 0 0 -2.35-.61c-.2 0-.41 0-.63 0a7.51 7.51 0 0 0 -.91.11c2.18 3.72 1.69 7.08-1.33 10.13q-13.78 13.9-27.56 27.83a6.13 6.13 0 0 0 -.65.7 2.37 2.37 0 0 0 -.25.61 6.43 6.43 0 0 0 5.52-2.1c2.45-2.51 4.88-5 7.34-7.52q10.62-10.8 21.26-21.59a5.18 5.18 0 0 0 1.7-3.63 4.91 4.91 0 0 0 -.64-2.3 4.3 4.3 0 0 0 -1.5-1.63z"/></g><path d="m68.7 178.31c3 0 3 0 3-3.09 0-7.82 0-15.65 0-23.48 0-1.09-.31-1.45-1.39-1.37a7.32 7.32 0 0 1 -.81 0h-.82c-.55 0-1.09 0-1.64 0v27.86c.57.05 1.12.08 1.66.08z" fill="#9fd0fb"/><path d="m100.42 68.71c.46.13.94.25 1.43.4a22.68 22.68 0 0 1 3.23 1.27c.47.23 1.89 1 1.41.74-1.41-.74-3.84.78-2.91.85-6.5-.49.09-2.34 1.5-1.59.48.25.47.23 0 0a14.81 14.81 0 0 0 -4.42 3.5l-.09.09a32.67 32.67 0 0 0 -3.15 4.27c-9.1 14.76-5.21 35.16 8.68 45.1a35.81 35.81 0 0 1 -20.28-11.34 42.19 42.19 0 0 1 -8.69-15.13 20.78 20.78 0 0 1 -.9-7.88 23.31 23.31 0 0 1 6.41-14.53c3.74-3.94 9.79-7.96 17.78-5.75z" fill="#a1cff7" opacity=".5"/><path d="m100.49 44a50.88 50.88 0 0 1 9.89-1.44c13.09-.58 25 4.13 32.58 12.91l.31.35a27.38 27.38 0 0 1 6.56 12.3 17.81 17.81 0 0 1 -4.9 17 16.85 16.85 0 0 1 -2.73 2.18c.08-.37.17-.73.22-1.11s.08-.58.11-.88c.07-.74.11-1.44.12-2.12 0-.38 0-.75 0-1.11a25.19 25.19 0 0 0 -2-8.65c-4.49-11.65-16.09-19.92-30-22.25-.67-.11-1.35-.21-2-.29l-.69-.06c-.45 0-.9-.09-1.35-.11h-.82-1.22-.88c-.39 0-.78 0-1.16 0s-.78 0-1.17.06h-.62c-.51 0-1 .09-1.51.15h-.31c-.61.07-1.21.16-1.82.26l-.48.1-1.31.25-.64.15-1.18.31c-.23.05-.45.12-.68.18l-1.09.32-.67.21c-.37.12-.74.24-1.11.38l-.61.22c-.42.15-.83.31-1.24.48l-.45.18c-.56.24-1.11.48-1.66.74l-.26.13c-.45.22-.9.44-1.35.68l-.53.29c-.35.19-.7.38-1 .58l-.59.35-1 .6-.58.38-.93.64-.54.39c-.34.24-.66.49-1 .74l-.44.35c-.46.36-.91.74-1.35 1.12l-1.22 1.13a41.87 41.87 0 0 1 25.3-18.09z" fill="#84c3f8" opacity=".5"/><path d="m131.81 109.12c-17 .76-31.36-8.45-35.28-22.49-2.49 6.75-.66 14.9-.32 16.25 4 16.37 16.09 19.31 25.49 18.89a28.59 28.59 0 0 0 5.32-.69 34.82 34.82 0 0 0 7.83-3.41l.39-.25a42.11 42.11 0 0 0 12.16-12 42.73 42.73 0 0 1 -15.59 3.73z" fill="none"/><path d="m78.17 58.1c.44-.38.89-.76 1.34-1.12l.44-.34c.32-.26.65-.51 1-.75l.54-.39.94-.64.58-.38 1-.6.58-.35c.34-.2.69-.39 1-.58l.54-.29c.44-.24.89-.46 1.34-.68l.27-.13c.55-.26 1.1-.5 1.66-.74l.44-.18c.41-.16.82-.33 1.24-.48l.62-.22 1.1-.38.67-.21 1.09-.32.68-.18 1.14-.28.64-.15 1.31-.25.49-.09c.6-.11 1.2-.2 1.81-.27h.32l1.5-.15h.63l.87-.06h.29 1.16.88 1.22.82l1.36.11.69.07c.67.07 1.35.17 2 .28 13.91 2.33 25.5 10.6 30 22.25a25.25 25.25 0 0 1 2 8.65v1.11a19.51 19.51 0 0 1 -.12 2.12c0 .3-.06.59-.11.89s-.13.73-.21 1.1a17.84 17.84 0 0 0 7.63-19.14 27.33 27.33 0 0 0 -6.56-12.33l-.3-.35c-7.62-8.78-19.5-13.49-32.59-12.9a50.76 50.76 0 0 0 -9.88 1.43 41.84 41.84 0 0 0 -25.3 18.07c.4-.38.8-.76 1.22-1.13z" fill="none"/><path d="m101.82 64.23a31.37 31.37 0 0 0 -5.46-1.29c-.45-.06-.91-.12-1.36-.16h-.43l-.94-.06h-.51-1.4-.83-.64c-.16 0-.32 0-.48 0s-.49 0-.74.06h-.45l-.56.07a24.92 24.92 0 0 0 -13.48 11.41c-3.3 5.66-4.54 12.14-3.23 17.31a43.31 43.31 0 0 0 8.31 17 42.26 42.26 0 0 0 22.28 14.28l-.58-.49a34.28 34.28 0 0 1 0-52.5l.11-.09a17.44 17.44 0 0 1 5.58-3.23 28.43 28.43 0 0 0 -3.61-1.7c-.51-.25-1.06-.44-1.58-.61z" fill="none"/><path d="m85.71 63.27-.63.13-.45.1-.69.16-.48.13-.66.21-.47.14-.66.21-.45.15-.73.26-.34.13c-.35.13-.7.27-1 .42l-.31.14-.72.32-.4.2q-.3.14-.6.3c-.14.07-.28.14-.41.22l-.57.31-.4.24-.56.34-.37.23-.6.41-.29.2-.83.62-.23.19c-.2.15-.39.31-.58.48l-.3.26-.37.34c-4 6-6 13.22-5.37 19.65-.95-11.07 7.22-22.01 19.47-26.49z" fill="url(#f)"/><g fill="#fff"><path d="m66.46 79.33c0-.33.1-.65.17-1 0 .25-.1.51-.14.76z"/><path d="m114 91.9a1.2 1.2 0 0 1 .08-.27 1.2 1.2 0 0 0 -.08.27z"/><path d="m114.4 91a3.14 3.14 0 0 1 .57-.5 3.14 3.14 0 0 0 -.57.5z"/><path d="m114.35 93.13a3.59 3.59 0 0 0 .82.91 11.66 11.66 0 0 0 3.41 1.85 11.66 11.66 0 0 1 -3.41-1.89 3.59 3.59 0 0 1 -.82-.87z"/><path d="m120.1 96.38c-.51-.15-1-.31-1.52-.49.5.18 1.01.34 1.52.49z"/><path d="m90.25 62.71h.64-.27z"/><path d="m122.12 89.67a3 3 0 0 1 .68-2.31 13.23 13.23 0 0 0 1-7.76c0-.13-.07-.27-.11-.43a11.75 11.75 0 0 0 -3.18-5.44l.45.94a22.32 22.32 0 0 1 1.66 10.86 13.64 13.64 0 0 1 -2.32 5.94 23.93 23.93 0 0 0 6.46 1.18h.24a13.34 13.34 0 0 0 1.41 0h.24a14.25 14.25 0 0 1 -4.19-.84 3.4 3.4 0 0 1 -2.34-2.14z"/><path d="m123.71 79.17a23.36 23.36 0 0 0 -5.06-9.43 30.75 30.75 0 0 0 -3.18-2.86 25.32 25.32 0 0 1 5.06 6.85 11.75 11.75 0 0 1 3.18 5.44z"/><path d="m99.21 56.51v-.3c-1.08 0-2.22.16-3.39.29 1.18-.05 2.28-.04 3.39.01z"/><path d="m95.81 56.5a41.32 41.32 0 0 0 -7.65 1.06q-1 .25-2 .57l-.56.33c.44-.07.89-.12 1.33-.18s.93-.27 1.4-.39a62.29 62.29 0 0 1 7.48-1.39z"/><path d="m114 65.33a13.86 13.86 0 0 0 -4.73-3c.65.36 1.29.75 1.93 1.17a31.27 31.27 0 0 1 3 2.28h.24z"/><path d="m95.83 56.5a62.29 62.29 0 0 0 -7.52 1.39c-.47.12-.94.25-1.4.39 1.16-.16 2.33-.29 3.52-.34a37 37 0 0 1 6.59.29c.48.07 1.29.2 2.31.41l-.1-2.13c-1.13-.05-2.23-.06-3.4-.01z"/><path d="m131.38 92.69a23.11 23.11 0 0 1 -2.76 0h-.24a13.34 13.34 0 0 1 -1.41 0h-.19a23.93 23.93 0 0 1 -6.46-1.18 13.64 13.64 0 0 0 2.32-5.94 22.32 22.32 0 0 0 -1.64-10.9l-.45-.94q-.34-.33-.72-.63a11.81 11.81 0 0 0 -7.51-2.68c.16.15.31.31.46.46.37.39.72.77 1 1.16.16.19.31.39.46.58a21.61 21.61 0 0 1 2.41 4 17.58 17.58 0 0 1 1.24 8.4 4 4 0 0 1 -.07.46 10.62 10.62 0 0 1 -2.71 4.88l-.16.13a3.14 3.14 0 0 0 -.57.5 1.63 1.63 0 0 0 -.31.6 1.2 1.2 0 0 0 -.08.27 1.93 1.93 0 0 0 0 .53 2 2 0 0 0 .14.38c0 .11.1.21.16.32a3.59 3.59 0 0 0 .82.91 11.66 11.66 0 0 0 3.41 1.85c.5.18 1 .34 1.52.49l.76.19c.61.15 1.2.28 1.77.38l1.21.19c.84.11 1.55.18 2 .22h.74 1 .48.65a14.15 14.15 0 0 0 1.46-.14h.33q.66-.11 1.32-.27h.16a14.17 14.17 0 0 0 1.4-.44l.33-.12c.46-.18.91-.37 1.36-.58a16.17 16.17 0 0 0 2.51-1.5 16.59 16.59 0 0 0 3.38-3.27l-.93.26a39.62 39.62 0 0 1 -8.59 1.43z"/><path d="m74.17 64.2a38.06 38.06 0 0 1 12-6.07 37.25 37.25 0 0 1 18-5.57 35 35 0 0 1 7.46.44c12.48 2.09 22.58 9.48 26.35 19.26l.13.32a19.4 19.4 0 0 1 1.43 9.42 11.74 11.74 0 0 1 -1.61 4.88l.7-.19h.09.09a17.24 17.24 0 0 0 5.13-2.22c.08-.37.16-.73.21-1.1s.09-.59.11-.89a19.51 19.51 0 0 0 .12-2.12c0-.38 0-.75 0-1.11a25.5 25.5 0 0 0 -2-8.65c-4.5-11.65-16.09-19.92-30-22.25-.68-.11-1.36-.21-2-.28l-.69-.07-1.36-.11h-.82-1.22-.88-1.16c-.39 0-.78 0-1.16.06h-.63l-1.5.15h-.32c-.61.07-1.21.16-1.81.27l-.49.09-1.34.25-.64.15-1.14.28-.68.18-1.09.32-.67.21-1.1.38-.62.22c-.42.15-.83.32-1.24.48l-.44.18c-.56.24-1.11.48-1.66.74l-.27.13c-.45.22-.9.44-1.34.68l-.54.29c-.35.19-.7.38-1 .58l-.58.35-1 .6-.58.38-.94.64-.54.39c-.33.24-.66.49-1 .75l-.44.34c-.45.36-.9.74-1.34 1.12-.42.37-.82.75-1.22 1.13-.17.26-.34.51-.5.77a42.3 42.3 0 0 0 -2.26 4.2z"/><path d="m89 62.8c.25 0 .49 0 .74-.06s.32 0 .48 0h.37.27.83 1.4.51l.94.06h.43c.45 0 .91.1 1.36.16a31.37 31.37 0 0 1 5.46 1.29c.52.17 1.07.36 1.63.58a28.43 28.43 0 0 1 3.61 1.7 13.54 13.54 0 0 1 1.4-.4 15.41 15.41 0 0 1 5.39-.36 28.08 28.08 0 0 0 -8.73-3.68 31.89 31.89 0 0 0 -8.94-.83 56.56 56.56 0 0 0 -6.76 1.26c-.47.12-.94.26-1.4.41l.56-.07z"/><path d="m96.18 61.24h-.18a35.92 35.92 0 0 0 -6.74.92 35.54 35.54 0 0 0 -3.59 1.1h.19l.34-.07 1.2-.19h.33.29c.46-.15.93-.29 1.4-.41a56.56 56.56 0 0 1 6.76-1.35z"/><path d="m111.24 63.5c-.64-.42-1.28-.81-1.93-1.17a24.06 24.06 0 0 0 -9.9-1.33c-1 0-2.12.15-3.23.29a31.89 31.89 0 0 1 8.94.83 28.08 28.08 0 0 1 8.73 3.68h.41a31.27 31.27 0 0 0 -3.02-2.3z"/><path d="m86.89 58.28c-.44.06-.89.11-1.33.18l.56-.33a38.06 38.06 0 0 0 -12 6.07 42.3 42.3 0 0 1 2.31-4.2c.16-.26.33-.51.5-.77l-.09.08-.38.38-.87.89-.44.48-.75.85-.44.52-.69.87-.41.54c-.23.3-.45.62-.67.94s-.24.33-.36.51c-.25.38-.5.77-.74 1.16-.06.11-.14.22-.2.33-.31.51-.6 1-.87 1.54l-.21.41c-.2.39-.39.78-.58 1.19-.09.19-.18.39-.26.59s-.31.69-.45 1-.17.44-.25.66-.25.69-.37 1-.16.46-.23.69-.21.71-.31 1.07-.13.45-.19.68c-.1.4-.19.8-.28 1.21l-.12.58c-.11.53-.2 1.08-.28 1.62 0-.25.09-.51.14-.76 0-.1.05-.2.07-.3s.1-.42.16-.63l.12-.36c.06-.19.12-.37.19-.56s.09-.24.14-.36.14-.36.22-.54.11-.24.16-.35.18-.37.28-.55l.17-.31c.12-.22.24-.43.37-.64a2.12 2.12 0 0 0 .12-.2c.18-.27.36-.54.55-.8.06-.08.13-.16.19-.25l.42-.54.26-.3c.13-.15.26-.31.4-.46l.29-.31c.14-.14.28-.29.43-.43l.3-.3.1-.09a29 29 0 0 1 15.32-11.7z"/><path d="m138.81 86.66h-.09-.09l-.7.19a11.74 11.74 0 0 1 -5 4.62 11.17 11.17 0 0 1 -4.32 1.14 23.11 23.11 0 0 0 2.76 0 39.62 39.62 0 0 0 8.63-1.35l.93-.26a16.44 16.44 0 0 0 3-6.56 17.24 17.24 0 0 1 -5.12 2.22z"/><path d="m109.31 62.33a36.52 36.52 0 0 0 -10-3.69l.1 2.31a24.06 24.06 0 0 1 9.9 1.38z"/><path d="m114.26 65.78h-.41c.57.36 1.11.74 1.62 1.13-.38-.39-.78-.76-1.21-1.13z"/><path d="m96 61.25h.14c1.11-.14 2.2-.24 3.23-.29l-.1-2.31c-1-.21-1.83-.34-2.31-.41a37 37 0 0 0 -6.59-.29c-1.19.05-2.36.18-3.52.34a29 29 0 0 0 -15.32 11.8l.37-.34.3-.26c.19-.17.38-.33.58-.48l.23-.19.83-.62.29-.2.6-.41.37-.23.6-.36.4-.24.57-.31c.13-.08.27-.15.41-.22s.4-.21.6-.3l.4-.2.72-.32.31-.14c.34-.15.69-.29 1-.42l.34-.13.73-.26.45-.15.66-.21.51-.1.66-.18.48-.13.69-.16.45-.1.63-.13a35.54 35.54 0 0 1 3.59-1.1 35.92 35.92 0 0 1 6.7-.95z"/></g><path d="m155.78 95.35a1.23 1.23 0 0 0 -.39-.06 1.08 1.08 0 0 0 -.67.28 32.41 32.41 0 0 1 -3.38 2.64 38.07 38.07 0 0 1 -19.73 6.58c-15.23.69-28-7.54-31.09-20a12 12 0 0 1 3.57-11.55l.13-.11a12.4 12.4 0 0 1 5.23-2.77 11.32 11.32 0 0 1 1.85-.36l-.07-.07-.22-.18h-.01v-.07a27.37 27.37 0 0 0 -2.55-1.92c-.4-.27-.84-.54-1.37-.84a17.25 17.25 0 0 0 -5.27 3.11l-.17.13a34.36 34.36 0 0 0 -4.13 4.14 33.94 33.94 0 0 0 4.14 47.74q.28.25.57.48l1.44 1.18-1.8-.47a42.79 42.79 0 0 1 -22.56-14.39 43.65 43.65 0 0 1 -8.38-17.17c-1.31-5.28-.08-11.86 3.27-17.61a25.16 25.16 0 0 1 13.7-11.54l.64-.09h.47l.74-.06 1.14-.06h.84 1.93l1 .07h.42q.72.06 1.38.15a32.74 32.74 0 0 1 5.55 1.31c.56.19 1.12.38 1.64.59a27.5 27.5 0 0 1 3.56 1.66l.24.14c.56.32 1 .6 1.45.88a28.62 28.62 0 0 1 2.93 2.25l.1.09.6.56.11.11q.26.24.48.48c.36.37.72.77 1 1.18.16.2.32.39.47.59a21.39 21.39 0 0 1 2.42 4.12 18.45 18.45 0 0 1 1.28 8.61c0 .14 0 .3-.08.5a11 11 0 0 1 -2.82 5.08l-.2.17-.09.07a2.49 2.49 0 0 0 -.42.38 1.06 1.06 0 0 0 -.23.45v.09a.26.26 0 0 0 0 .1 1.38 1.38 0 0 0 0 .4 1.12 1.12 0 0 0 .1.27c0 .12.1.21.15.31a3.81 3.81 0 0 0 .72.81 11.46 11.46 0 0 0 3.3 1.77 15.3 15.3 0 0 0 1.49.48l.75.2c.57.14 1.16.26 1.74.37l1.2.18c.88.13 1.58.19 2 .22h.72 1a.85.85 0 0 0 .16 0h.2.63c.45 0 .93-.06 1.42-.13h.32c.47-.08.89-.16 1.29-.26h.16c.42-.11.87-.25 1.36-.42l.28-.11c.5-.19.94-.38 1.33-.57a16.39 16.39 0 0 0 2.54-1.46 16 16 0 0 0 3.28-3.2l.08-.11h.13a21.5 21.5 0 0 0 8.92-5.26 22.15 22.15 0 0 0 6.07-21.08 31.56 31.56 0 0 0 -7.5-14.11l-.29-.34c-8.5-9.79-21.64-15-36.07-14.41a55.45 55.45 0 0 0 -10.73 1.51 46.69 46.69 0 0 0 -34.73 52.6h.13v.14a20.18 20.18 0 0 0 .49 2.92 47.54 47.54 0 0 0 9.14 18.69 46.45 46.45 0 0 0 58.12 11.65l-.06-.13.12-.06c1.06-.52 2-1 2.74-1.48l.43-.27a46.8 46.8 0 0 0 18.88-24.39 1.13 1.13 0 0 0 -.06-.81 1.06 1.06 0 0 0 -.61-.51zm-15.84-13.29a12.33 12.33 0 0 1 -6.83 9.83 11.71 11.71 0 0 1 -4.46 1.18h-.09-.16-.54c-.3 0-.61 0-.92 0h-.18a24.58 24.58 0 0 1 -6.58-1.2l-.49-.18.29-.43a13.07 13.07 0 0 0 2.25-5.76 21.81 21.81 0 0 0 -1.62-10.65l-.45-.92a24.46 24.46 0 0 0 -5-6.74 6.58 6.58 0 0 1 -.52-.48 21 21 0 0 0 -3.64-2.86l-.43-.27c-.51-.32-1-.62-1.49-.9a36.39 36.39 0 0 0 -9.86-3.68c-1.08-.23-1.89-.35-2.28-.4a36.07 36.07 0 0 0 -6.51-.29c-1.06 0-2.17.15-3.48.33h-.4c-.31 0-.62.08-.93.14l-2 .33 1.67-1.08.34-.2.19-.12a37.72 37.72 0 0 1 18.22-5.63 36.5 36.5 0 0 1 7.55.45c12.62 2.11 22.84 9.59 26.67 19.51l.12.33a19.79 19.79 0 0 1 1.56 9.69zm-63.36-23.06a42.33 42.33 0 0 1 25.55-18.24 50.83 50.83 0 0 1 10-1.45c.74 0 1.47-.05 2.19-.05 12.35 0 23.45 4.71 30.72 13.09l.31.36a27.74 27.74 0 0 1 6.65 12.49 18.23 18.23 0 0 1 -5 17.35 17.28 17.28 0 0 1 -2.79 2.23l-.83.54.25-1.15c.06-.29.13-.59.17-.89s.08-.57.11-.87a20.74 20.74 0 0 0 .11-2.09c0-.33 0-.69 0-1.08a24.59 24.59 0 0 0 -1.9-8.24l-.11-.29c-4.33-11.23-15.71-19.66-29.69-22-.66-.11-1.32-.2-2-.28h-.36-.32l-1.34-.12h-.49-.52-1-.86c-.39 0-.77 0-1.16 0l-1.15.06h-.25-.36l-1.5.15h-.31c-.58.08-1.18.16-1.79.27h-.28-.21l-1.29.25-.43.1h-.21c-.37.08-.75.17-1.12.27l-.68.18-1.12.41-.66.21-1.1.37h-.14l-.47.17c-.41.15-.82.32-1.22.48l-.45.18-1.64.73-.26.13c-.5.24-.93.46-1.33.67l-.27.15-.26.14-1 .58-.58.34-1 .59-.58.38c-.31.21-.62.42-.92.64l-.13.09-.41.29c-.33.24-.65.49-1 .74l-.44.34c-.48.38-.91.75-1.32 1.11s-.78.7-1.23 1.13l-2.48 2.54zm71.16 46.59a43.19 43.19 0 0 1 -12.28 12.15l-.39.24a35.45 35.45 0 0 1 -7.95 3.47 29.43 29.43 0 0 1 -5.41.7c-.56 0-1.12 0-1.67 0-8.89 0-20.31-3.34-24.23-19.24-.38-1.56-2.17-9.68.33-16.49l.44-1.19.34 1.22c3.72 13.3 17 22.23 33 22.23h1.9a41.72 41.72 0 0 0 8.16-1.18 41.2 41.2 0 0 0 7.28-2.51l1.3-.59z" fill="url(#g)"/><path d="m114.09 91.63a1.63 1.63 0 0 1 .31-.6 1.63 1.63 0 0 0 -.31.6z" fill="#fff"/><path d="m114 91.9a1.93 1.93 0 0 0 0 .53 1.93 1.93 0 0 1 0-.53z" fill="#fff"/><path d="m144.37 79.22v1.11c.02-.33.01-.75 0-1.11z" fill="#fff"/></svg>