<svg viewBox="0 0 220.75 220.75" xmlns="http://www.w3.org/2000/svg" xmlns:xlink="http://www.w3.org/1999/xlink"><linearGradient id="a" gradientUnits="userSpaceOnUse" x1="177.92" x2="42.83" y1="227.36" y2="-6.62"><stop offset="0" stop-color="#b8e1fa"/><stop offset="1" stop-color="#fff" stop-opacity=".45"/></linearGradient><linearGradient id="b" gradientUnits="userSpaceOnUse" x2="220.75" y1="110.37" y2="110.37"><stop offset="0" stop-color="#fff" stop-opacity=".05"/><stop offset="1" stop-color="#fff" stop-opacity=".5"/></linearGradient><linearGradient id="c" gradientUnits="userSpaceOnUse" x1="177.92" x2="42.83" y1="227.36" y2="-6.62"><stop offset="0" stop-color="#fff" stop-opacity="0"/><stop offset="1" stop-color="#fff" stop-opacity=".45"/></linearGradient><linearGradient id="d" gradientUnits="userSpaceOnUse" x1="110.37" x2="110.37" y1="40.37" y2="180.37"><stop offset="0" stop-color="#59b3fb"/><stop offset=".28" stop-color="#57aff5"/><stop offset=".67" stop-color="#53a2e3"/><stop offset="1" stop-color="#4e94ce"/></linearGradient><rect fill="url(#a)" height="220" rx="41.48" stroke="url(#b)" stroke-miterlimit="10" stroke-width=".75" width="220" x=".37" y=".37"/><rect fill="url(#c)" height="220" rx="41.48" stroke="url(#b)" stroke-miterlimit="10" stroke-width=".75" width="220" x=".37" y=".37"/><path d="m117.87 159c5.17-15.62 5.56-31.71 4.81-47.92a106.22 106.22 0 0 0 -3.3-22.7c-.65-2.41-1.74-3.35-3.36-2.94s-2.13 1.81-1.43 4.32a96.85 96.85 0 0 1 3 19.51 166.16 166.16 0 0 1 -.82 32.54 68 68 0 0 1 -3.21 14.3 16.41 16.41 0 0 1 -1.68 3.54c-1.18 1.8-1.73 1.8-2.83 0a17.94 17.94 0 0 1 -1.62-3.57 76.12 76.12 0 0 1 -3.43-16.81 165.39 165.39 0 0 1 -.56-29.35 98.21 98.21 0 0 1 3.24-20.92c.51-1.77-.11-3.12-1.55-3.55s-2.68.4-3.22 2.15a94.73 94.73 0 0 0 -3.45 20.32 161.69 161.69 0 0 0 0 27c.7 8 1.67 16 4.55 23.63a5.29 5.29 0 0 1 .12.75 19.08 19.08 0 0 1 -5.1-3.54c-5.86-5.59-9-12.65-10.89-20.36a61 61 0 0 1 -1.3-20.52c.19-2-.15-2.66-2-3.59l.91-5c1.89 0 2.88-.53 3.15-1.81a2.6 2.6 0 0 0 -1.75-3.08 47.45 47.45 0 0 1 6.85-12.66 9.91 9.91 0 0 0 2-2.82l.3-.6.31-.34c.89-1 1.82-2 2.65-3.07a33.49 33.49 0 0 0 7.25-19.7 109.63 109.63 0 0 0 -.58-11.88 5 5 0 0 1 3 5c-.11 3.58 0 7.17 0 10.76 0 1.74.72 2.72 2 3 1.72.31 3-.81 3-2.83a85.07 85.07 0 0 0 -.05-9.45c-.4-4 1.58-6.06 4.83-7.5.35-.15.72-.28 1.08-.43a9.32 9.32 0 0 1 0 3.57c-.34 6.33-.59 12.65.65 18.93a34.83 34.83 0 0 0 6.56 15.13 55.09 55.09 0 0 1 6.51 9.92c-1.62 1.36-1.75 1.94-1 4 5.41 14.73 5.35 29.37-.76 43.89a32.49 32.49 0 0 1 -8.06 11.6 16.28 16.28 0 0 1 -4.65 3.18z" fill="#d2e6fb"/><path d="m132.51 96.43a55.09 55.09 0 0 0 -6.51-9.92 34.83 34.83 0 0 1 -6.6-15.16c-1.24-6.28-1-12.6-.65-18.93a9.32 9.32 0 0 0 0-3.57 6.08 6.08 0 0 1 2.38-.82l.1.1c-.35 4-.88 7.9-.94 11.88-.2 12.33 4.6 22.2 14.33 29.74a39.72 39.72 0 0 1 14.92 24.07c3.35 16-4.69 33.82-18.92 41.79-.33.18-.68.32-1.12.53 0-.61.32-.88.55-1.2a54.14 54.14 0 0 0 10.35-30.84 64.39 64.39 0 0 0 -4.1-25.53c-.82-2.1-1.62-2.57-3.79-2.14z" fill="#bdd9fb"/><path d="m104.85 50.36a109.63 109.63 0 0 1 .58 11.88 33.49 33.49 0 0 1 -7.25 19.7c-.83 1.06-1.76 2.06-2.65 3.06l-.31.34-.3.6a2.88 2.88 0 0 0 -1.5.84 53.57 53.57 0 0 0 -6.59 5.92 40.44 40.44 0 0 0 -11.06 24.73 41.2 41.2 0 0 0 8 28.91c1.23 1.66 2.35 3.41 4.23 4.53a34.62 34.62 0 0 1 3.46 5.37 39.63 39.63 0 0 1 -5.94-65.71c6.85-5.52 11.92-12.14 14-20.82 1.34-5.6 1.15-11.25.58-16.92-.16-1.57-.41-3.14-.65-4.9a17.31 17.31 0 0 1 5.4 2.47z" fill="#fefefe"/><path d="m88 150.87c-1.83-1.12-2.94-2.9-4.16-4.55a41.2 41.2 0 0 1 -8-28.91 40.44 40.44 0 0 1 11.01-24.73 53.57 53.57 0 0 1 6.59-5.92 2.88 2.88 0 0 1 1.5-.84 9.91 9.91 0 0 1 -2 2.82 47.45 47.45 0 0 0 -6.8 12.73c-1.46-.1-2.6.38-3 1.87s.4 2.37 1.61 3l-.91 5c-2.19.2-2.85.79-3.06 3.08-1.16 12.55.39 24.59 6.83 35.68a5.6 5.6 0 0 1 .39.77z" fill="#bdd9fb"/><path d="m121.11 48c.19-.12.19-.06.1.1z" fill="#bdd9fb"/><path d="m118.06 159.14c-.1.09-.22.16-.31 0s.07-.14.12-.2z" fill="#d2e6fb"/><path d="m94.93 85.93.3-.6z" fill="#bdd9fb"/><path d="m95.22 85.35.31-.34z" fill="#bdd9fb"/><path d="m86.3 104.13c-.28 1.38-1.34 2-3.37 2-1.3-.7-2.16-1.68-1.73-3.24s1.67-2.12 3.23-2a2.77 2.77 0 0 1 1.87 3.24zm72 20.25a49.34 49.34 0 0 1 -3.48 18.16 48.51 48.51 0 0 1 -3 6.11 48 48 0 0 1 -31.2 23.07 17.82 17.82 0 0 1 2.93 4.91 2.6 2.6 0 0 1 -.93 3.31 3.06 3.06 0 0 1 -3.61-.36 5.22 5.22 0 0 1 -1-1.75 9.74 9.74 0 0 0 -5-5c0 1.76.06 3.26 0 4.75a2.65 2.65 0 1 1 -5.3 0c-.07-1 0-2.08 0-3.12 0-.43.22-1-.3-1.25s-.87.23-1.25.48a10.19 10.19 0 0 0 -3.82 4.61c-.79 1.77-2.1 2.37-3.59 1.74s-2-2.12-1.24-3.93a12.71 12.71 0 0 1 2.12-3.61 2.74 2.74 0 0 0 .55-.83 48.11 48.11 0 0 1 -34.2-29.25c-.36-.89-.69-1.79-1-2.71a48.83 48.83 0 0 1 -2.48-15.38c0-.74 0-1.49.06-2.23 0-.18 0-.37 0-.55a42.55 42.55 0 0 1 1.91-11.08c.07-.22.12-.44.19-.66a49.8 49.8 0 0 1 2.94-7.29 48.79 48.79 0 0 1 9.09-12.63 48.13 48.13 0 0 1 6.39-5.36c0-.09.07-.18.11-.26a3.66 3.66 0 0 0 1.35-.88 32.43 32.43 0 0 0 9.86-23 70.26 70.26 0 0 0 -1.06-13.5c-.73-4.32 2.68-7.41 6.94-6.28a22 22 0 0 1 9 4.72c.78.67 1.25.74 2.06 0a22.06 22.06 0 0 1 9.18-4.78c4.16-1.07 7.49 2 6.79 6.28a72.86 72.86 0 0 0 -1 14.29 31.56 31.56 0 0 0 9.51 22.06 5.4 5.4 0 0 0 .59.5c.12.09.25.17.38.25a48 48 0 0 1 7.21 5.91 48.22 48.22 0 0 1 11.93 19.42c.38 1.17.72 2.37 1 3.58s.58 2.63.79 4c0 .18.05.35.07.53q.1.7.18 1.41c.17 1.51.28 3 .31 4.59-.01.31 0 .63 0 1.01zm-72.65-41.49.64-.37zm5.6-2.89.82-.36zm-2.89 1.4.83-.43zm63.94 35a42.65 42.65 0 0 0 -16-25.8 40.21 40.21 0 0 1 -10.69-12.12 38.56 38.56 0 0 1 -4.61-19.76c.07-4.28.64-8.49 1-12.73.1-.17.1-.24-.1-.11a6.36 6.36 0 0 0 -2.55.88c-.39.15-.78.29-1.16.46-3.48 1.54-5.61 3.79-5.18 8a87.58 87.58 0 0 1 0 10.12c0 2.17-1.36 3.37-3.2 3-1.38-.25-2.13-1.3-2.15-3.16 0-3.85-.1-7.69 0-11.54a5.34 5.34 0 0 0 -3.25-5.33 18.43 18.43 0 0 0 -5.86-2.66c.26 1.89.53 3.57.7 5.26.61 6.07.81 12.13-.62 18.13a35.61 35.61 0 0 1 -3.63 9.45 45 45 0 0 1 -11.33 12.93 42.46 42.46 0 0 0 6.33 70.4 37.73 37.73 0 0 0 -3.7-5.76 7.2 7.2 0 0 0 -.35-.85c-6.9-11.89-8.57-24.79-7.33-38.23.23-2.45.94-3.09 3.29-3.31 1.93 1 2.29 1.72 2.09 3.85a65.32 65.32 0 0 0 1.38 22c2 8.26 5.4 15.83 11.68 21.82a20.25 20.25 0 0 0 5.46 3.78 7 7 0 0 0 -.13-.79c-3.09-8.16-4.12-16.72-4.88-25.32a174.06 174.06 0 0 1 0-29 101.18 101.18 0 0 1 3.7-21.78c.57-1.88 1.92-2.75 3.44-2.3s2.21 1.9 1.66 3.8a105.74 105.74 0 0 0 -3.5 22.43 178.72 178.72 0 0 0 .6 31.46 81.61 81.61 0 0 0 3.73 18 19.17 19.17 0 0 0 1.74 3.83c1.18 1.91 1.77 1.91 3 0a17.79 17.79 0 0 0 1.8-3.79 72.65 72.65 0 0 0 3.43-15.33 176.62 176.62 0 0 0 .88-34.86 102.71 102.71 0 0 0 -3.23-20.91c-.75-2.68-.26-4.18 1.53-4.62s2.91.56 3.6 3.15a113.5 113.5 0 0 1 3.54 24.32c.8 17.36.38 34.61-5.16 51.34 0 .07-.14.17-.12.21s.22.09.33 0a17.33 17.33 0 0 0 5-3.4 35 35 0 0 0 8.64-12.43c6.54-15.56 6.6-31.25.81-47-.82-2.24-.68-2.87 1-4.33 2.33-.43 3.18 0 4 2.29a68.83 68.83 0 0 1 4.39 27.37 58 58 0 0 1 -11.08 33c-.25.34-.64.64-.59 1.29.47-.22.84-.38 1.19-.57 15.43-8.58 24.04-27.67 20.46-44.81z" fill="url(#d)"/></svg>