<svg width="60" height="60" viewBox="0 0 60 60" fill="none" xmlns="http://www.w3.org/2000/svg">
<circle cx="30" cy="30" r="30" fill="#2D6BF6"/>
<g clip-path="url(#clip0_117_648)">
<path d="M45.6873 20.1418C45.6849 20.127 45.6854 20.1113 45.6817 20.0967C45.6713 20.0565 45.656 20.0179 45.636 19.9818C45.6293 19.9694 45.6191 19.9595 45.6111 19.948C45.5968 19.9247 45.5805 19.9028 45.5625 19.8824C45.5515 19.8708 45.5376 19.8629 45.5256 19.8524C45.5078 19.8354 45.4887 19.82 45.4684 19.8061L45.465 19.8048L45.462 19.8025L41.5549 17.4956C41.4841 17.4538 41.404 17.4319 41.3224 17.4319C41.2409 17.4319 41.1607 17.4538 41.0899 17.4956L37.1807 19.8023L37.1778 19.8045L37.1743 19.8059C37.154 19.8198 37.1348 19.8353 37.1168 19.8524C37.1048 19.8626 37.0901 19.8708 37.0802 19.8821C37.062 19.9027 37.0455 19.9249 37.0311 19.9485C37.0233 19.9601 37.0134 19.9697 37.0067 19.9818C36.9868 20.0179 36.9714 20.0565 36.961 20.0967C36.9573 20.1107 36.9578 20.1259 36.9554 20.1402C36.9498 20.1665 36.9464 20.1934 36.9453 20.2203V21.2021L33.4684 18.9582C33.4735 18.9341 33.4767 18.9096 33.478 18.8849V14.8571C33.4768 14.8306 33.4734 14.8042 33.4679 14.7783C33.4655 14.7634 33.466 14.7478 33.4623 14.7332C33.4519 14.6931 33.4365 14.6546 33.4166 14.6186C33.4072 14.6043 33.3971 14.5905 33.3864 14.5773C33.3735 14.5568 33.3591 14.5374 33.3433 14.5192C33.3293 14.5064 33.3144 14.4944 33.299 14.4834C33.2832 14.4687 33.2664 14.4552 33.2487 14.4429H33.2461L33.2442 14.4388L29.3347 12.1321C29.2639 12.0903 29.1838 12.0684 29.1022 12.0684C29.0207 12.0684 28.9405 12.0903 28.8697 12.1321L24.9602 14.4388L24.957 14.4412H24.9543C24.9366 14.4536 24.9197 14.4672 24.9038 14.482C24.8885 14.4929 24.8738 14.5048 24.8597 14.5175C24.8438 14.536 24.8292 14.5557 24.8162 14.5765C24.8056 14.5894 24.7957 14.6029 24.7865 14.6169C24.7665 14.653 24.7512 14.6916 24.7408 14.7318C24.7371 14.7458 24.7376 14.761 24.7352 14.7753C24.7296 14.8017 24.7262 14.8285 24.7251 14.8554V18.8849C24.7264 18.9097 24.7296 18.9343 24.7347 18.9585L21.2586 21.2021V20.2206C21.2574 20.1941 21.254 20.1677 21.2485 20.1418C21.2461 20.127 21.2466 20.1113 21.2428 20.0967C21.2325 20.0565 21.2171 20.0179 21.1972 19.9818C21.1905 19.9694 21.1803 19.9595 21.1723 19.948C21.158 19.9247 21.1417 19.9028 21.1237 19.8824C21.1127 19.8708 21.0988 19.8629 21.0868 19.8524C21.0689 19.8354 21.0498 19.82 21.0296 19.8061L21.0261 19.8048L21.0232 19.8025L17.1156 17.4956C17.0448 17.4538 16.9646 17.4319 16.8831 17.4319C16.8015 17.4319 16.7214 17.4538 16.6506 17.4956L12.7421 19.8023L12.7392 19.8045L12.7357 19.8059C12.7154 19.8198 12.6962 19.8353 12.6783 19.8524C12.6662 19.8626 12.6516 19.8708 12.6417 19.8821C12.6234 19.9027 12.607 19.9249 12.5925 19.9485C12.5847 19.9601 12.5749 19.9697 12.5682 19.9818C12.5482 20.0179 12.5329 20.0565 12.5225 20.0967C12.5187 20.1107 12.5193 20.1259 12.5169 20.1402C12.5113 20.1665 12.5079 20.1934 12.5067 20.2203V24.2482C12.5067 24.3347 12.5293 24.4197 12.5721 24.4941C12.615 24.5685 12.6765 24.6297 12.7502 24.6712L16.4152 26.7336V32.2519L12.7421 34.4197L12.7392 34.4219L12.7357 34.4233C12.7154 34.4372 12.6962 34.4528 12.6783 34.4699C12.6662 34.48 12.6516 34.4883 12.6417 34.4996C12.6234 34.5202 12.607 34.5424 12.5925 34.566C12.5847 34.5775 12.5749 34.5872 12.5682 34.5993C12.5482 34.6354 12.5329 34.674 12.5225 34.7141C12.5187 34.7282 12.5193 34.7433 12.5169 34.7576C12.5113 34.784 12.5079 34.8108 12.5067 34.8378V38.8656C12.5068 38.9522 12.5294 39.0372 12.5724 39.1116C12.6153 39.1861 12.6769 39.2472 12.7507 39.2886L16.6589 41.4871C16.6808 41.4981 16.7036 41.5073 16.727 41.5146C16.7396 41.5193 16.7513 41.5262 16.7641 41.5295C16.8419 41.5513 16.9239 41.5513 17.0017 41.5295C17.0145 41.5259 17.0263 41.519 17.0389 41.5146C17.0622 41.5073 17.085 41.4981 17.107 41.4871L20.4254 39.6202L24.7277 42.5721V44.5695C24.7277 44.6561 24.7503 44.741 24.7932 44.8154C24.836 44.8899 24.8975 44.951 24.9712 44.9925L28.8793 47.191C28.9013 47.202 28.9241 47.2112 28.9475 47.2185C28.9601 47.2232 28.9718 47.2301 28.9846 47.2334C29.0624 47.2552 29.1444 47.2552 29.2222 47.2334C29.235 47.2298 29.2468 47.2229 29.2593 47.2185C29.2827 47.2112 29.3055 47.202 29.3275 47.191L33.2346 44.992C33.3083 44.9505 33.3698 44.8893 33.4126 44.8149C33.4554 44.7405 33.478 44.6555 33.478 44.569V42.5716L37.7804 39.6197L41.0988 41.4865C41.1207 41.4976 41.1435 41.5068 41.1669 41.5141C41.1795 41.5188 41.1912 41.5256 41.2041 41.5289C41.2818 41.5508 41.3638 41.5508 41.4416 41.5289C41.4544 41.5254 41.4662 41.5185 41.4788 41.5141C41.5021 41.5068 41.5249 41.4976 41.5469 41.4865L45.4537 39.2886C45.5274 39.2472 45.5889 39.186 45.6318 39.1116C45.6746 39.0371 45.6972 38.9522 45.6972 38.8656V34.8381C45.6959 34.8116 45.6925 34.7852 45.687 34.7593C45.6846 34.7444 45.6852 34.7287 45.6814 34.7141C45.6711 34.674 45.6557 34.6354 45.6357 34.5993C45.629 34.5869 45.6189 34.577 45.6109 34.5654C45.5965 34.5422 45.5802 34.5202 45.5622 34.4999C45.5513 34.4883 45.5374 34.4803 45.5254 34.4699C45.5075 34.4529 45.4884 34.4374 45.4682 34.4236L45.4647 34.4222L45.4618 34.42L41.7887 32.2521V26.7336L45.4535 24.672C45.5272 24.6305 45.5887 24.5693 45.6315 24.4949C45.6743 24.4205 45.6969 24.3355 45.6969 24.249V20.2206C45.6959 20.1941 45.6926 20.1678 45.6873 20.1418ZM31.9327 40.5992L29.1022 42.1915L26.2718 40.5992L26.152 40.5318L29.1022 38.7907L32.0524 40.5307L31.9327 40.5992ZM20.3233 23.9623L17.3504 25.6345V22.7052L20.3233 21.033V23.9623ZM16.8828 33.0866L19.833 34.8276L19.7132 34.8951L16.8828 36.4874L14.0523 34.8951L13.9326 34.8276L16.8828 33.0866ZM20.7517 34.2592L17.3504 32.2516V26.7336L20.4487 24.9906L24.7264 27.8591V31.3753L20.7517 34.2592ZM25.6617 18.5988V15.6695L28.6346 17.3428V20.2713L25.6617 18.5988ZM32.5427 18.5988L29.5699 20.2713V17.3428L32.5427 15.67V18.5988ZM29.1022 25.8463L32.0524 27.5873L31.9327 27.6548L29.1022 29.2471L26.2718 27.6548L26.152 27.5873L29.1022 25.8463ZM25.6617 28.4099L28.6346 30.0823V33.0125L25.6617 31.3395V28.4099ZM29.5699 30.0823L32.5427 28.4099V31.3395L29.5699 33.0125V30.0823ZM33.478 27.8591L37.7558 24.9898L40.854 26.7336V32.2519L37.4527 34.2595L33.478 31.3753V27.8591ZM40.8535 22.7052V25.6345L37.8811 23.9623V21.033L40.8535 22.7052ZM37.8811 38.5798V35.6502L40.854 37.3226V40.252L37.8811 38.5798ZM44.1521 34.8951L41.3216 36.4874L38.4909 34.8951L38.3712 34.8276L41.3214 33.0866L44.2715 34.8276L44.1521 34.8951ZM41.3216 18.4691L44.2718 20.2101L44.1521 20.2776L41.3216 21.8699L38.4909 20.2776L38.3712 20.2101L41.3216 18.4691ZM36.9621 24.3718L32.9949 27.0329L29.5699 25.0116V21.3695L32.7071 19.6043L36.9455 22.3394V24.2479C36.9458 24.2898 36.9514 24.3314 36.9621 24.3718ZM29.1022 13.1059L32.0521 14.8472L29.2316 16.434L29.1022 16.5067L28.9729 16.434L26.1523 14.8469L29.1022 13.1059ZM25.4973 19.6051L28.6346 21.3703V25.0116L25.2095 27.0329L21.2423 24.3718C21.253 24.3314 21.2584 24.2898 21.2586 24.2479V22.3394L25.4973 19.6051ZM16.8828 18.4691L19.833 20.2101L19.7132 20.2776L16.8828 21.8699L14.0523 20.2776L13.9326 20.2101L16.8828 18.4691ZM13.4428 21.033L16.4157 22.7054V25.6345L13.4428 23.9623V21.033ZM13.4428 35.6505L16.4157 37.3229V40.2522L13.4428 38.5798V35.6505ZM17.351 37.3229L20.3239 35.6505V38.5798L17.351 40.252V37.3229ZM21.2327 39.016C21.2494 38.9676 21.2584 38.9167 21.2594 38.8654V35.0705L25.2253 32.1921L28.6346 34.1099V37.956L24.9602 40.1239L24.9573 40.1261L24.9538 40.1275C24.9335 40.1414 24.9143 40.157 24.8964 40.174C24.8843 40.1842 24.8696 40.1925 24.8597 40.2038C24.8415 40.2244 24.8251 40.2466 24.8106 40.2701C24.8028 40.2817 24.7929 40.2913 24.7863 40.3035C24.7663 40.3395 24.7509 40.3781 24.7406 40.4183C24.7368 40.4323 24.7374 40.4475 24.7349 40.4618C24.7294 40.4882 24.726 40.515 24.7248 40.5419V41.4138L21.2327 39.016ZM25.6617 42.3116V41.3541L28.6346 43.0265V45.9558L25.6617 44.2837V42.3116ZM29.5699 45.9558V43.0268L32.5427 41.3543V44.284L29.5699 45.9558ZM33.478 40.5419C33.4768 40.5154 33.4734 40.4891 33.4679 40.4632C33.4655 40.4483 33.466 40.4326 33.4623 40.418C33.4519 40.3779 33.4365 40.3393 33.4166 40.3032C33.4099 40.2908 33.3997 40.2809 33.3917 40.2693C33.3774 40.2461 33.3611 40.2241 33.3431 40.2038C33.3321 40.1922 33.3182 40.1842 33.3062 40.1737C33.2884 40.1568 33.2692 40.1413 33.249 40.1275L33.2455 40.1261L33.2426 40.1239L29.5699 37.956V34.1099L32.9791 32.1921L36.9458 35.0705V38.8656C36.9468 38.917 36.9558 38.9679 36.9725 39.0163L33.4788 41.4141L33.478 40.5419ZM41.7887 40.2517V37.3226L44.7616 35.6502V38.5798L41.7887 40.2517ZM41.7887 25.6342V22.7052L44.7616 21.033V23.9623L41.7887 25.6342Z" fill="white"/>
</g>
<defs>
<clipPath id="clip0_117_648">
<rect width="34.2049" height="35.25" fill="white" transform="translate(12 12)"/>
</clipPath>
</defs>
</svg>
