<svg width="60" height="60" viewBox="0 0 60 60" fill="none" xmlns="http://www.w3.org/2000/svg">
<circle cx="30" cy="30" r="30" fill="#2D6BF6"/>
<path d="M19.5494 25.0998C19.5009 24.8998 19.5009 24.6998 19.5009 24.4498C19.5009 22.4498 21.1019 20.7998 23.0426 20.7998C23.6734 20.7998 24.3041 20.9498 24.7893 21.2998" stroke="white" stroke-width="1.22667" stroke-miterlimit="10" stroke-linecap="round" stroke-linejoin="round"/>
<path d="M24.9351 21.7C24.9351 18.55 27.4095 16 30.4661 16C33.5227 16 35.9971 18.55 35.9971 21.7" stroke="white" stroke-width="1.22667" stroke-miterlimit="10" stroke-linecap="round" stroke-linejoin="round"/>
<path d="M35.9969 21.4496C36.3851 21.2496 36.8217 21.0996 37.3069 21.0996C38.811 21.0996 40.0239 22.3496 40.0239 23.8996C40.0239 24.0996 40.0239 24.2996 39.9754 24.4496" stroke="white" stroke-width="1.22667" stroke-miterlimit="10" stroke-linecap="round" stroke-linejoin="round"/>
<path d="M20.8596 32.5499H17.803C15.7167 32.5499 13.9701 30.7999 13.9701 28.5999C13.9701 26.3999 15.6682 24.6499 17.803 24.6499C18.4337 24.6499 19.0159 24.7999 19.5011 25.0499" stroke="white" stroke-width="1.22667" stroke-miterlimit="10" stroke-linecap="round" stroke-linejoin="round"/>
<path d="M40.121 24.4497C42.3043 24.4497 44.0509 26.2497 44.0509 28.4997C44.0509 30.7497 42.3043 32.5497 40.121 32.5497H36.9188" stroke="white" stroke-width="1.22667" stroke-miterlimit="10" stroke-linecap="round" stroke-linejoin="round"/>
<path d="M29.0105 37.1994C32.1723 37.1994 34.7355 34.5579 34.7355 31.2994C34.7355 28.0409 32.1723 25.3994 29.0105 25.3994C25.8486 25.3994 23.2854 28.0409 23.2854 31.2994C23.2854 34.5579 25.8486 37.1994 29.0105 37.1994Z" stroke="white" stroke-width="1.22667" stroke-miterlimit="10" stroke-linecap="round" stroke-linejoin="round"/>
<path d="M27.7003 28.2998V34.3498" stroke="white" stroke-width="1.22667" stroke-miterlimit="10" stroke-linecap="round" stroke-linejoin="round"/>
<path d="M27.0698 28.2998H29.4957C30.3205 28.2998 30.9512 28.9498 30.9512 29.7998C30.9512 30.6498 30.3205 31.2998 29.4957 31.2998H27.7006" stroke="white" stroke-width="1.22667" stroke-miterlimit="10" stroke-linecap="round" stroke-linejoin="round"/>
<path d="M27.7006 31.2998H29.4957C30.3205 31.2998 30.9512 31.9498 30.9512 32.7998C30.9512 33.6498 30.3205 34.2998 29.4957 34.2998H27.0698" stroke="white" stroke-width="1.22667" stroke-miterlimit="10" stroke-linecap="round" stroke-linejoin="round"/>
<path d="M27.8944 27.3496V28.0996" stroke="white" stroke-width="1.22667" stroke-miterlimit="10" stroke-linecap="round" stroke-linejoin="round"/>
<path d="M29.5439 27.3496V28.0996" stroke="white" stroke-width="1.22667" stroke-miterlimit="10" stroke-linecap="round" stroke-linejoin="round"/>
<path d="M27.8944 34.5V35.3" stroke="white" stroke-width="1.22667" stroke-miterlimit="10" stroke-linecap="round" stroke-linejoin="round"/>
<path d="M29.5439 34.5V35.3" stroke="white" stroke-width="1.22667" stroke-miterlimit="10" stroke-linecap="round" stroke-linejoin="round"/>
<path d="M29.0105 39.4494C33.3782 39.4494 36.9189 35.8005 36.9189 31.2994C36.9189 26.7983 33.3782 23.1494 29.0105 23.1494C24.6429 23.1494 21.1022 26.7983 21.1022 31.2994C21.1022 35.8005 24.6429 39.4494 29.0105 39.4494Z" stroke="white" stroke-width="1.22667" stroke-miterlimit="10" stroke-linecap="round" stroke-linejoin="round"/>
<path d="M29.0107 39.4502V42.2002" stroke="white" stroke-width="1.22667" stroke-miterlimit="10" stroke-linecap="round" stroke-linejoin="round"/>
<path d="M27.2639 44.3C27.2639 43.3 28.0402 42.5 29.0105 42.5C29.9809 42.5 30.7572 43.3 30.7572 44.3C30.7572 45.3 29.9809 46.1 29.0105 46.1C28.0402 46.1 27.2639 45.3 27.2639 44.3Z" stroke="white" stroke-width="1.22667" stroke-miterlimit="10" stroke-linecap="round" stroke-linejoin="round"/>
<path d="M19.1617 45.1999C19.1617 44.1999 19.938 43.3999 20.9084 43.3999C21.8787 43.3999 22.655 44.1999 22.655 45.1999C22.655 46.1999 21.8787 46.9999 20.9084 46.9999C19.938 46.9999 19.1617 46.1999 19.1617 45.1999Z" stroke="white" stroke-width="1.22667" stroke-miterlimit="10" stroke-linecap="round" stroke-linejoin="round"/>
<path d="M23.0914 36.9497V38.5497C23.0914 39.2997 22.7032 39.9997 22.0725 40.3497L21.9269 40.4497C21.2962 40.7997 20.9081 41.4997 20.9081 42.2497V43.3997" stroke="white" stroke-width="1.22667" stroke-miterlimit="10" stroke-linecap="round" stroke-linejoin="round"/>
<path d="M38.86 45.1994C38.86 44.1994 38.0837 43.3994 37.1133 43.3994C36.143 43.3994 35.3667 44.1994 35.3667 45.1994C35.3667 46.1994 36.143 46.9994 37.1133 46.9994C38.0837 46.9994 38.86 46.1994 38.86 45.1994Z" stroke="white" stroke-width="1.22667" stroke-miterlimit="10" stroke-linecap="round" stroke-linejoin="round"/>
<path d="M34.9296 36.9497V38.5497C34.9296 39.2997 35.3177 39.9997 35.9484 40.3497L36.094 40.4497C36.7247 40.7997 37.1129 41.4997 37.1129 42.2497V43.3997" stroke="white" stroke-width="1.22667" stroke-miterlimit="10" stroke-linecap="round" stroke-linejoin="round"/>
<path d="M41.8677 42.5995C42.8324 42.5995 43.6144 41.7936 43.6144 40.7995C43.6144 39.8054 42.8324 38.9995 41.8677 38.9995C40.9031 38.9995 40.1211 39.8054 40.1211 40.7995C40.1211 41.7936 40.9031 42.5995 41.8677 42.5995Z" stroke="white" stroke-width="1.22667" stroke-miterlimit="10" stroke-linecap="round" stroke-linejoin="round"/>
<path d="M39.6357 32.5498V34.1498C39.6357 34.8998 40.0239 35.5998 40.6546 35.9498L40.8002 36.0498C41.4309 36.3998 41.819 37.0998 41.819 37.8498V38.9998" stroke="white" stroke-width="1.22667" stroke-miterlimit="10" stroke-linecap="round" stroke-linejoin="round"/>
<path d="M14.4065 40.7995C14.4065 39.7995 15.1828 38.9995 16.1531 38.9995C17.1235 38.9995 17.8998 39.7995 17.8998 40.7995C17.8998 41.7995 17.1235 42.5995 16.1531 42.5995C15.1828 42.5995 14.4065 41.7495 14.4065 40.7995Z" stroke="white" stroke-width="1.22667" stroke-miterlimit="10" stroke-linecap="round" stroke-linejoin="round"/>
<path d="M18.3849 32.5498V34.1498C18.3849 34.8998 17.9968 35.5998 17.3661 35.9498L17.2205 36.0498C16.5898 36.3998 16.2017 37.0998 16.2017 37.8498V38.9998" stroke="white" stroke-width="1.22667" stroke-miterlimit="10" stroke-linecap="round" stroke-linejoin="round"/>
</svg>
