<svg width="60" height="60" viewBox="0 0 60 60" fill="none" xmlns="http://www.w3.org/2000/svg">
<circle cx="30" cy="30" r="30" fill="#2D6BF6"/>
<g clip-path="url(#clip0_117_748)">
<path d="M17.2037 21.2725H21.6829C21.942 21.2725 22.152 21.0561 22.152 20.7891C22.152 20.522 21.942 20.3057 21.6829 20.3057H17.2037C16.9446 20.3057 16.7346 20.522 16.7346 20.7891C16.7346 21.0561 16.9446 21.2725 17.2037 21.2725Z" fill="white"/>
<path d="M17.2037 22.9062H25.122C25.3811 22.9062 25.5911 22.6899 25.5911 22.4229C25.5911 22.1558 25.3811 21.9395 25.122 21.9395H17.2037C16.9446 21.9395 16.7346 22.1558 16.7346 22.4229C16.7346 22.6899 16.9446 22.9062 17.2037 22.9062Z" fill="white"/>
<path d="M32.899 27.9961H37.3782C37.6373 27.9961 37.8473 27.7797 37.8473 27.5127C37.8473 27.2457 37.6373 27.0293 37.3782 27.0293H32.899C32.6399 27.0293 32.4299 27.2457 32.4299 27.5127C32.4299 27.7797 32.6399 27.9961 32.899 27.9961Z" fill="white"/>
<path d="M40.8173 28.6636H32.899C32.6399 28.6636 32.4299 28.8799 32.4299 29.147C32.4299 29.414 32.6399 29.6304 32.899 29.6304H40.8173C41.0764 29.6304 41.2863 29.414 41.2863 29.147C41.2863 28.8799 41.0764 28.6636 40.8173 28.6636Z" fill="white"/>
<path d="M42.4704 31.4663C43.0476 31.4663 43.5172 30.9823 43.5172 30.3875V26.2724C43.5172 25.6775 43.0476 25.1935 42.4704 25.1935H39.1867V19.3347C39.1867 19.0677 38.9767 18.8513 38.7176 18.8513C38.4585 18.8513 38.2485 19.0677 38.2485 19.3347V25.1935H31.246C30.6688 25.1935 30.1992 25.6775 30.1992 26.2724V30.3875C30.1992 30.9823 30.6688 31.4663 31.246 31.4663H33.2715C33.3088 31.4663 33.343 31.4856 33.3631 31.518L33.9038 32.3876C34.0972 32.6987 34.4267 32.8845 34.7853 32.8845C35.1438 32.8845 35.4733 32.6987 35.6668 32.3876L36.2074 31.5179C36.2275 31.4856 36.2617 31.4663 36.299 31.4663H38.2486V36.7413H31.246C30.6688 36.7413 30.1992 37.2253 30.1992 37.8202V41.9353C30.1992 42.5302 30.6688 43.0142 31.246 43.0142H33.2715C33.3088 43.0142 33.343 43.0335 33.3631 43.0658L33.9037 43.9354C34.0972 44.2465 34.4266 44.4323 34.7853 44.4323C35.1439 44.4323 35.4733 44.2465 35.6668 43.9354L36.2074 43.0657C36.2275 43.0335 36.2617 43.0142 36.299 43.0142H38.2486V44.5467C38.2486 45.0906 37.8193 45.5332 37.2914 45.5332H20.7298C20.2021 45.5332 19.7726 45.0907 19.7726 44.5467V36.29H21.3289C21.3662 36.29 21.4004 36.3094 21.4204 36.3417L21.9611 37.2112C22.1544 37.5224 22.4839 37.7081 22.8426 37.7081C23.2011 37.7081 23.5307 37.5224 23.7241 37.2113L24.2646 36.3417C24.2847 36.3094 24.319 36.29 24.3562 36.29H26.7752C27.3525 36.29 27.8221 35.8061 27.8221 35.2112V31.0961C27.8221 30.5012 27.3525 30.0172 26.7752 30.0172H19.7726V24.7422H21.3289C21.3662 24.7422 21.4004 24.7615 21.4204 24.7938L21.9611 25.6633C22.1544 25.9745 22.4839 26.1603 22.8426 26.1603C23.2011 26.1603 23.5307 25.9745 23.7241 25.6634L24.2646 24.7939C24.2847 24.7615 24.319 24.7422 24.3562 24.7422H26.7752C27.3525 24.7422 27.8221 24.2582 27.8221 23.6634V19.5482C27.8221 18.9534 27.3525 18.4694 26.7752 18.4694H24.54C24.2809 18.4694 24.071 18.6858 24.071 18.9528C24.071 19.2198 24.2809 19.4362 24.54 19.4362H26.7752C26.8352 19.4362 26.884 19.4865 26.884 19.5482V23.6634C26.884 23.7251 26.8352 23.7754 26.7752 23.7754H24.3562C23.9978 23.7754 23.6682 23.9611 23.4747 24.2722L22.9341 25.1419C22.9076 25.1845 22.8697 25.1935 22.8426 25.1935C22.8154 25.1935 22.7775 25.1845 22.751 25.1418L22.2103 24.2722C22.0169 23.9611 21.6874 23.7754 21.3289 23.7754H15.5508C15.4908 23.7754 15.442 23.7251 15.442 23.6634V19.5482C15.442 19.4865 15.4908 19.4362 15.5508 19.4362H22.6644C22.9235 19.4362 23.1335 19.2198 23.1335 18.9528C23.1335 18.6858 22.9235 18.4694 22.6644 18.4694H19.7726V15.4533C19.7726 14.9093 20.202 14.4668 20.7298 14.4668H24.2755L25.0267 15.925C25.264 16.3856 25.7258 16.6717 26.2317 16.6717H31.5034C32.0093 16.6717 32.4711 16.3856 32.7084 15.925L33.4596 14.4668H37.2913C37.8191 14.4668 38.2485 14.9093 38.2485 15.4533V17.4019C38.2485 17.669 38.4585 17.8853 38.7176 17.8853C38.9767 17.8853 39.1867 17.669 39.1867 17.4019V15.4533C39.1867 14.3762 38.3364 13.5 37.2913 13.5H20.7298C19.6848 13.5 18.8345 14.3762 18.8345 15.4533V18.4694H15.5508C14.9735 18.4694 14.5039 18.9534 14.5039 19.5482V23.6634C14.5039 24.2582 14.9735 24.7422 15.5508 24.7422H18.8345V30.0172H15.5508C14.9735 30.0172 14.5039 30.5012 14.5039 31.0961V35.2112C14.5039 35.8061 14.9735 36.29 15.5508 36.29H18.8345V44.5467C18.8345 45.6238 19.6848 46.5001 20.7298 46.5001H37.2914C38.3365 46.5001 39.1867 45.6238 39.1867 44.5467V43.0142H42.4704C43.0476 43.0142 43.5173 42.5303 43.5173 41.9354V40.8131C43.5173 40.5461 43.3073 40.3297 43.0482 40.3297C42.7891 40.3297 42.5791 40.5461 42.5791 40.8131V41.9354C42.5791 41.9972 42.5303 42.0474 42.4704 42.0474H36.2989C35.9403 42.0474 35.6107 42.2332 35.4174 42.5443L34.8768 43.4139C34.8502 43.4566 34.8123 43.4655 34.7852 43.4655C34.758 43.4655 34.7201 43.4566 34.6936 43.4139L34.153 42.5444C33.9596 42.2332 33.6301 42.0474 33.2715 42.0474H31.2459C31.186 42.0474 31.1372 41.9972 31.1372 41.9354V37.8203C31.1372 37.7585 31.186 37.7082 31.2459 37.7082H42.4703C42.5302 37.7082 42.579 37.7585 42.579 37.8203V38.8803C42.579 39.1473 42.789 39.3637 43.0481 39.3637C43.3072 39.3637 43.5171 39.1473 43.5171 38.8803V37.8203C43.5171 37.2254 43.0475 36.7414 42.4703 36.7414H39.1866V31.4663H42.4704ZM32.3975 14.4668L31.8797 15.4716C31.8056 15.6155 31.6614 15.7049 31.5034 15.7049H26.2317C26.0736 15.7049 25.9294 15.6155 25.8552 15.4717L25.3376 14.4668H32.3975ZM15.5508 35.3232C15.4908 35.3232 15.442 35.273 15.442 35.2112V31.0961C15.442 31.0343 15.4908 30.984 15.5508 30.984H26.7751C26.8351 30.984 26.8839 31.0343 26.8839 31.0961V35.2112C26.8839 35.273 26.8351 35.3232 26.7751 35.3232H24.3561C23.9977 35.3232 23.6681 35.509 23.4746 35.8201L22.934 36.6898C22.9074 36.7324 22.8696 36.7413 22.8425 36.7413C22.8153 36.7413 22.7774 36.7324 22.7509 36.6897L22.2102 35.8201C22.0168 35.509 21.6872 35.3232 21.3288 35.3232H15.5508ZM36.2988 30.4995C35.9403 30.4995 35.6107 30.6853 35.4173 30.9964L34.8768 31.866C34.8502 31.9086 34.8123 31.9177 34.7851 31.9177C34.758 31.9177 34.7201 31.9086 34.6936 31.866L34.153 30.9965C33.9595 30.6853 33.63 30.4995 33.2714 30.4995H31.2459C31.186 30.4995 31.1372 30.4492 31.1372 30.3875V26.2724C31.1372 26.2106 31.186 26.1603 31.2459 26.1603H42.4702C42.5302 26.1603 42.5789 26.2106 42.5789 26.2724V30.3875C42.5789 30.4492 42.5302 30.4995 42.4702 30.4995H36.2988Z" fill="white"/>
<path d="M17.2037 32.8203H21.6829C21.942 32.8203 22.152 32.6039 22.152 32.3369C22.152 32.0699 21.942 31.8535 21.6829 31.8535H17.2037C16.9446 31.8535 16.7346 32.0699 16.7346 32.3369C16.7346 32.6039 16.9446 32.8203 17.2037 32.8203Z" fill="white"/>
<path d="M25.5911 33.9707C25.5911 33.7037 25.3811 33.4873 25.122 33.4873H17.2037C16.9446 33.4873 16.7346 33.7037 16.7346 33.9707C16.7346 34.2377 16.9446 34.4541 17.2037 34.4541H25.122C25.3811 34.4541 25.5911 34.2377 25.5911 33.9707Z" fill="white"/>
<path d="M32.899 39.5439H37.3782C37.6373 39.5439 37.8473 39.3276 37.8473 39.0605C37.8473 38.7935 37.6373 38.5771 37.3782 38.5771H32.899C32.6399 38.5771 32.4299 38.7935 32.4299 39.0605C32.4299 39.3276 32.6399 39.5439 32.899 39.5439Z" fill="white"/>
<path d="M32.899 41.1782H40.8173C41.0764 41.1782 41.2863 40.9619 41.2863 40.6948C41.2863 40.4278 41.0764 40.2114 40.8173 40.2114H32.899C32.6399 40.2114 32.4299 40.4278 32.4299 40.6948C32.4299 40.9619 32.6399 41.1782 32.899 41.1782Z" fill="white"/>
</g>
<defs>
<clipPath id="clip0_117_748">
<rect width="32.0216" height="33" fill="white" transform="translate(13 13.5)"/>
</clipPath>
</defs>
</svg>
